<?xml version="1.0" standalone="no"?>
<!DOCTYPE svg PUBLIC "-//W3C//DTD SVG 1.1//EN" "http://www.w3.org/Graphics/SVG/1.1/DTD/svg11.dtd" >
<svg xmlns="http://www.w3.org/2000/svg" xmlns:xlink="http://www.w3.org/1999/xlink" version="1.1">
<metadata>
Created by FontForge 20170731 at Fri Jun 12 14:33:02 2020
 By Aleksey,,,
(c) 2014 - 2019 Adobe Systems Incorporated (http://www.adobe.com/), with Reserved Font Name `Source'.
</metadata>
<defs>
<font id="SourceSerifPro-LightIt" horiz-adv-x="0" >
  <font-face 
    font-family="Source Serif Pro Light"
    font-weight="300"
    font-style="italic"
    font-stretch="normal"
    units-per-em="1000"
    panose-1="2 4 3 3 5 4 5 2 2 4"
    ascent="800"
    descent="-200"
    x-height="485"
    cap-height="674"
    bbox="-172 -335 2230 978"
    underline-thickness="50"
    underline-position="-125"
    slope="-12"
    unicode-range="U+0021-1F16B"
  />
<missing-glyph horiz-adv-x="640" 
d="M80 0v674h480v-674h-480zM141 33h358l-179 274zM119 614v-554l181 277zM340 337l181 -277v554zM141 641l179 -274l179 274h-358z" />
    <glyph glyph-name="f_f" unicode="ff" horiz-adv-x="571" 
d="M405 755q39 0 65 -19.5t32 -42.5q-7 -20 -26 -20q-13 0 -24.5 8.5t-27.5 25.5l-24 27q-37 -6 -73 -30.5t-63.5 -74.5t-42.5 -134q-1 -5 -1.5 -10t-1.5 -10h230q1 5 1.5 10t1.5 10q15 101 48.5 157.5t75.5 79.5t81 23q41 0 68.5 -20.5t32.5 -43.5q-1 -11 -9 -17.5
t-18 -6.5q-13 0 -22.5 7t-25.5 26l-31 33q-37 -7 -67.5 -31.5t-52.5 -74t-36 -132.5q-1 -5 -1.5 -10t-1.5 -10h140l-6 -37l-140 3q-16 -99 -31.5 -200.5t-33.5 -201.5q-16 -85 -34 -142.5t-59 -97.5q-29 -29 -54 -40.5t-54 -11.5t-52.5 16t-30.5 38q1 13 9.5 20t19.5 7
q14 0 25 -7.5t22 -18.5l29 -28q20 5 36 17.5t32 33.5q26 33 41 81t29 133q17 102 33 201t30 202h-231q-16 -100 -31.5 -201.5t-33.5 -201.5q-16 -85 -34 -142.5t-59 -97.5q-29 -29 -54 -40.5t-54 -11.5t-52.5 16t-30.5 38q1 13 9.5 20t19.5 7q14 0 25 -7.5t22 -18.5l29 -28
q20 5 36 17.5t32 33.5q26 33 41 81t29 133q17 102 32 201t31 202h-114l5 25l114 8q1 5 1.5 10t1.5 10q14 86 48 143.5t81 87t99 29.5z" />
    <glyph glyph-name="f_i" unicode="fi" horiz-adv-x="567" 
d="M427 755q54 0 82.5 -20.5t34.5 -43.5q-1 -12 -9 -18t-17 -6q-13 0 -23 7t-27 26l-27 29h-5.5h-5.5q-82 0 -135.5 -55.5t-73.5 -178.5q-1 -5 -1.5 -11t-2.5 -11h218l56 12l13 -10l-78 -361q-3 -16 -6.5 -32.5t-3.5 -27.5q0 -12 7.5 -18t18.5 -6q23 0 50.5 21.5t58.5 59.5
l16 -12q-32 -45 -68.5 -78.5t-83.5 -33.5q-19 0 -32.5 12t-13.5 33q0 16 2.5 30.5t8.5 40.5l72 338l-239 2q-16 -100 -32 -202t-34 -202q-16 -85 -34 -142.5t-59 -97.5q-29 -29 -54 -40.5t-54 -11.5t-52.5 16t-30.5 38q1 13 9.5 20t19.5 7q14 0 25 -7.5t22 -18.5l29 -28
q20 5 36 17.5t32 33.5q26 33 41 81t29 133q17 102 32 201.5t31 202.5h-114l5 24l114 8q1 5 1.5 10t1.5 10q15 93 51 150t87.5 83.5t111.5 26.5z" />
    <glyph glyph-name="f_l" unicode="fl" horiz-adv-x="555" 
d="M405 755q29 0 51 -11t35 -28q0 4 0.5 8t1.5 8l41 13l11 -9l-126 -622q-4 -16 -6.5 -32t-2.5 -26q0 -26 28 -26q21 0 49 22t59 59l15 -12q-31 -45 -67.5 -78.5t-82.5 -33.5q-20 0 -34 13t-14 37q0 14 2.5 28t6.5 38l80 398q16 79 32 173q-3 -1 -8 -1q-13 0 -24.5 8.5
t-27.5 25.5l-24 27q-37 -6 -73 -30.5t-63.5 -74.5t-42.5 -134q-1 -5 -1.5 -10t-1.5 -10h140l-6 -37l-140 3q-16 -99 -31.5 -200.5t-33.5 -201.5q-16 -85 -34 -142.5t-59 -97.5q-29 -29 -54 -40.5t-54 -11.5t-52.5 16t-30.5 38q1 13 9.5 20t19.5 7q14 0 25 -7.5t22 -18.5
l29 -28q20 5 36 17.5t32 33.5q26 33 41 81t29 133q17 102 32 201t31 202h-114l5 25l114 8q1 5 1.5 10t1.5 10q14 86 48 143.5t81 87t99 29.5z" />
    <glyph glyph-name="f_f_i" unicode="ffi" horiz-adv-x="841" 
d="M405 755q39 0 65 -19.5t32 -42.5q-7 -20 -26 -20q-13 0 -24.5 8.5t-27.5 25.5l-24 27q-37 -6 -73 -30.5t-63.5 -74.5t-42.5 -134q-1 -5 -1.5 -10t-1.5 -10h230q1 5 1.5 10t1.5 10q15 93 51 150t87.5 83.5t111.5 26.5q54 0 82.5 -20.5t34.5 -43.5q-1 -12 -9 -18t-17 -6
q-13 0 -23 7t-27 26l-27 29h-5.5h-5.5q-82 0 -135.5 -55.5t-73.5 -178.5q-1 -5 -1.5 -11t-2.5 -11h218l56 12l13 -10l-78 -361q-3 -16 -6.5 -32.5t-3.5 -27.5q0 -12 7.5 -18t18.5 -6q23 0 50.5 21.5t58.5 59.5l16 -12q-32 -45 -68.5 -78.5t-83.5 -33.5q-19 0 -32.5 12
t-13.5 33q0 16 2.5 30.5t8.5 40.5l72 338l-239 2q-16 -100 -32 -202t-34 -202q-16 -85 -34 -142.5t-59 -97.5q-29 -29 -54 -40.5t-54 -11.5t-52.5 16t-30.5 38q1 13 9.5 20t19.5 7q14 0 25 -7.5t22 -18.5l29 -28q20 5 36 17.5t32 33.5q26 33 41 81t29 133q17 102 32 201
t31 202h-231q-16 -100 -31.5 -201.5t-33.5 -201.5q-16 -85 -34 -142.5t-59 -97.5q-29 -29 -54 -40.5t-54 -11.5t-52.5 16t-30.5 38q1 13 9.5 20t19.5 7q14 0 25 -7.5t22 -18.5l29 -28q20 5 36 17.5t32 33.5q26 33 41 81t29 133q17 102 32 201t31 202h-114l5 25l114 8
q1 5 1.5 10t1.5 10q14 86 48 143.5t81 87t99 29.5z" />
    <glyph glyph-name="f_f_l" unicode="ffl" horiz-adv-x="830" 
d="M405 755q39 0 65 -19.5t32 -42.5q-7 -20 -26 -20q-13 0 -24.5 8.5t-27.5 25.5l-24 27q-37 -6 -73 -30.5t-63.5 -74.5t-42.5 -134q-1 -5 -1.5 -10t-1.5 -10h230q1 5 1.5 10t1.5 10q14 86 48 143.5t81 87t99 29.5q29 0 51 -11t35 -28q0 4 0.5 8t1.5 8l41 13l11 -9
l-126 -622q-4 -16 -6.5 -32t-2.5 -26q0 -26 28 -26q21 0 49 22t59 59l15 -12q-31 -45 -67.5 -78.5t-82.5 -33.5q-20 0 -34 13t-14 37q0 14 2.5 28t6.5 38l80 398q16 79 32 173q-3 -1 -8 -1q-13 0 -24.5 8.5t-27.5 25.5l-24 27q-37 -6 -73 -30.5t-63.5 -74.5t-42.5 -134
q-1 -5 -1.5 -10t-1.5 -10h140l-6 -37l-140 3q-16 -99 -31.5 -200.5t-33.5 -201.5q-16 -85 -34 -142.5t-59 -97.5q-29 -29 -54 -40.5t-54 -11.5t-52.5 16t-30.5 38q1 13 9.5 20t19.5 7q14 0 25 -7.5t22 -18.5l29 -28q20 5 36 17.5t32 33.5q26 33 41 81t29 133q17 102 32 201
t31 202h-231q-16 -100 -31.5 -201.5t-33.5 -201.5q-16 -85 -34 -142.5t-59 -97.5q-29 -29 -54 -40.5t-54 -11.5t-52.5 16t-30.5 38q1 13 9.5 20t19.5 7q14 0 25 -7.5t22 -18.5l29 -28q20 5 36 17.5t32 33.5q26 33 41 81t29 133q17 102 32 201t31 202h-114l5 25l114 8
q1 5 1.5 10t1.5 10q14 86 48 143.5t81 87t99 29.5z" />
    <glyph glyph-name="f_b" unicode="fb" horiz-adv-x="781" 
d="M414 89q0 -29 14.5 -45.5t46.5 -16.5q29 0 64.5 13.5t71.5 47.5q32 31 56.5 73t38.5 89t14 93q0 52 -17.5 76t-46.5 24q-45 0 -95.5 -36.5t-107.5 -98.5l-19 -88q-7 -34 -11.5 -56t-6.5 -38.5t-2 -36.5zM405 755q29 0 50.5 -11t34.5 -27q0 4 0.5 7.5t1.5 7.5l41 13l10 -9
l-83 -394q32 43 70 75t76 50t70 18q39 0 65 -27t26 -94q0 -52 -17.5 -105.5t-48.5 -102t-71.5 -87t-86 -60.5t-92.5 -22q-37 0 -60.5 23t-23.5 63q0 32 7.5 67.5t15.5 74.5l59 287q18 86 33 171h-2.5h-3.5q-13 0 -24.5 8.5t-27.5 25.5l-24 27q-37 -6 -73 -30.5t-63.5 -74.5
t-42.5 -134q-1 -5 -1.5 -10t-1.5 -10h140l-6 -37l-140 3q-16 -99 -31.5 -200.5t-33.5 -201.5q-16 -85 -34 -142.5t-59 -97.5q-29 -29 -54 -40.5t-54 -11.5t-52.5 16t-30.5 38q1 13 9.5 20t19.5 7q14 0 25 -7.5t22 -18.5l29 -28q20 5 36 17.5t32 33.5q26 33 41 81t29 133
q17 102 32 201t31 202h-114l5 25l114 8q1 5 1.5 10t1.5 10q14 86 48 143.5t81 87t99 29.5z" />
    <glyph glyph-name="f_h" unicode="fh" horiz-adv-x="820" 
d="M405 755q29 0 51 -11t35 -28q0 4 0.5 7.5t1.5 7.5l42 14l10 -9l-76 -369q54 53 113 85.5t101 32.5q32 0 48 -17.5t16 -48.5q0 -24 -5 -47t-12 -51l-49 -207q-4 -17 -8 -33.5t-4 -27.5q0 -23 26 -23q23 0 51.5 22t57.5 59l16 -12q-31 -45 -69.5 -78.5t-84.5 -33.5
q-20 0 -32.5 11.5t-12.5 29.5q0 19 3.5 34t10.5 41l48 206q5 25 10 48t5 41q0 25 -10 35t-29 10q-34 0 -81 -24.5t-115 -82.5l-26 -128l-20 -104t-19 -104l-39 -6l-8 6l102 501q8 38 16 84t15 89q-3 -1 -8 -1q-13 0 -24.5 8.5t-27.5 25.5l-24 27q-37 -6 -73 -30.5
t-63.5 -74.5t-42.5 -134q-1 -5 -1.5 -10t-1.5 -10h140l-6 -37l-140 3q-16 -99 -31.5 -200.5t-33.5 -201.5q-16 -85 -34 -142.5t-59 -97.5q-29 -29 -54 -40.5t-54 -11.5t-52.5 16t-30.5 38q1 13 9.5 20t19.5 7q14 0 25 -7.5t22 -18.5l29 -28q20 5 36 17.5t32 33.5
q26 33 41 81t29 133q17 102 32 201t31 202h-114l5 25l114 8q1 5 1.5 10t1.5 10q14 86 48 143.5t81 87t99 29.5z" />
    <glyph glyph-name="f_j" unicode="fj" horiz-adv-x="524" 
d="M427 755q54 0 82.5 -20.5t34.5 -43.5q-1 -12 -9 -18t-17 -6q-13 0 -23 7t-27 26l-27 29h-5.5h-5.5q-82 0 -135.5 -55.5t-73.5 -178.5q-1 -5 -1.5 -11t-2.5 -11h217l56 12l13 -10l-87 -450q-16 -79 -41 -134.5t-72 -97.5q-24 -21 -48 -32t-49 -16l-5 21q26 8 48.5 21
t42.5 38q28 33 48.5 80t36.5 135l76 401l-240 2q-16 -100 -32 -202t-34 -202q-16 -85 -34 -142.5t-59 -97.5q-29 -29 -54 -40.5t-54 -11.5t-52.5 16t-30.5 38q1 13 9.5 20t19.5 7q14 0 25 -7.5t22 -18.5l29 -28q20 5 36 17.5t32 33.5q26 33 41 81t29 133q17 102 32 201.5
t31 202.5h-114l5 24l114 8q1 5 1.5 10t1.5 10q15 93 51 150t87.5 83.5t111.5 26.5z" />
    <glyph glyph-name="f_k" unicode="fk" horiz-adv-x="749" 
d="M405 755q30 0 52 -11.5t34 -28.5q1 4 1.5 8t1.5 8l41 14l9 -9l-93 -463l285 209q11 -1 18 -8.5t7 -16.5t-6.5 -16t-23.5 -17l-269 -163l20 -4q43 -10 67 -34t46 -68l41 -85q13 -27 29.5 -36t40.5 -11l53 -2l-3 -20q-20 -6 -35.5 -8t-29.5 -2q-33 0 -56.5 14.5t-40.5 53.5
l-43 92q-19 43 -37 61.5t-53 28.5l-16 4l-7 -37l-20 -104l-20 -104l-39 -6l-7 6l101 501q8 40 16.5 84t15.5 89q-3 -1 -9 -1q-13 0 -24.5 8.5t-27.5 25.5l-24 27q-37 -6 -73 -30.5t-63.5 -74.5t-42.5 -134q-1 -5 -1.5 -10t-1.5 -10h140l-6 -37l-140 3q-16 -99 -31.5 -200.5
t-33.5 -201.5q-16 -85 -34 -142.5t-59 -97.5q-29 -29 -54 -40.5t-54 -11.5t-52.5 16t-30.5 38q1 13 9.5 20t19.5 7q14 0 25 -7.5t22 -18.5l29 -28q20 5 36 17.5t32 33.5q26 33 41 81t29 133q17 102 32 201t31 202h-114l5 25l114 8q1 5 1.5 10t1.5 10q14 86 48 143.5t81 87
t99 29.5z" />
    <glyph glyph-name="f_t" unicode="ft" horiz-adv-x="599" 
d="M405 755q39 0 65 -19.5t32 -42.5q-7 -20 -26 -20q-13 0 -24.5 8.5t-27.5 25.5l-24 27q-37 -6 -73 -30.5t-63.5 -74.5t-42.5 -134q-1 -5 -1.5 -10t-1.5 -10h244l37 134h34l-28 -134h135l-5 -37l-138 4l-69 -328q-4 -16 -7 -32t-3 -27q0 -25 27 -25q23 0 51 21.5t59 59.5
l15 -12q-31 -45 -69 -78.5t-84 -33.5q-19 0 -32.5 12t-13.5 33q0 16 2 30.5t8 40.5l72 339h-241q-16 -100 -31.5 -201.5t-33.5 -201.5q-16 -85 -34 -142.5t-59 -97.5q-29 -29 -54 -40.5t-54 -11.5t-52.5 16t-30.5 38q1 13 9.5 20t19.5 7q14 0 25 -7.5t22 -18.5l29 -28
q20 5 36 17.5t32 33.5q26 33 41 81t29 133q17 102 32 201t31 202h-114l5 25l114 8q1 5 1.5 10t1.5 10q14 86 48 143.5t81 87t99 29.5z" />
    <glyph glyph-name="f_f_b" unicode="ffb" horiz-adv-x="1055" 
d="M405 755q39 0 65 -19.5t32 -42.5q-7 -20 -26 -20q-13 0 -24.5 8.5t-27.5 25.5l-24 27q-37 -6 -73 -30.5t-63.5 -74.5t-42.5 -134q-1 -5 -1.5 -10t-1.5 -10h230q1 5 1.5 10t1.5 10q14 86 48 143.5t81 87t99 29.5q29 0 50.5 -11t34.5 -27q0 4 0.5 7.5t1.5 7.5l41 13l10 -9
l-83 -394q32 43 70 75t76 50t70 18q39 0 65 -27t26 -94q0 -52 -17.5 -105.5t-48.5 -102t-71.5 -87t-86 -60.5t-92.5 -22q-37 0 -60.5 23t-23.5 63q0 32 7.5 67.5t15.5 74.5l59 287q18 86 33 171h-2.5h-3.5q-13 0 -24.5 8.5t-27.5 25.5l-24 27q-37 -6 -73 -30.5t-63.5 -74.5
t-42.5 -134q-1 -5 -1.5 -10t-1.5 -10h140l-6 -37l-140 3q-16 -99 -31.5 -200.5t-33.5 -201.5q-16 -85 -34 -142.5t-59 -97.5q-29 -29 -54 -40.5t-54 -11.5t-52.5 16t-30.5 38q1 13 9.5 20t19.5 7q14 0 25 -7.5t22 -18.5l29 -28q20 5 36 17.5t32 33.5q26 33 41 81t29 133
q17 102 32 201t31 202h-231q-16 -100 -31.5 -201.5t-33.5 -201.5q-16 -85 -34 -142.5t-59 -97.5q-29 -29 -54 -40.5t-54 -11.5t-52.5 16t-30.5 38q1 13 9.5 20t19.5 7q14 0 25 -7.5t22 -18.5l29 -28q20 5 36 17.5t32 33.5q26 33 41 81t29 133q17 102 32 201t31 202h-114
l5 25l114 8q1 5 1.5 10t1.5 10q14 86 48 143.5t81 87t99 29.5zM688 89q0 -29 14.5 -45.5t46.5 -16.5q29 0 64.5 13.5t71.5 47.5q32 31 56.5 73t38.5 89t14 93q0 52 -17.5 76t-46.5 24q-45 0 -95.5 -36.5t-107.5 -98.5l-19 -88q-7 -34 -11.5 -56t-6.5 -38.5t-2 -36.5z" />
    <glyph glyph-name="f_f_f" unicode="fff" horiz-adv-x="845" 
d="M930 755q41 0 68.5 -20.5t32.5 -43.5q-1 -11 -9 -17.5t-18 -6.5q-13 0 -22.5 7t-25.5 26l-31 33q-37 -7 -67.5 -31.5t-52.5 -74t-36 -132.5q-1 -5 -1.5 -10t-1.5 -10h140l-6 -37l-140 3q-16 -99 -31.5 -200.5t-33.5 -201.5q-16 -85 -34 -142.5t-59 -97.5
q-29 -29 -54 -40.5t-54 -11.5t-52.5 16t-30.5 38q1 13 9.5 20t19.5 7q14 0 25 -7.5t22 -18.5l29 -28q20 5 36 17.5t32 33.5q26 33 41 81t29 133q17 102 33 201t30 202h-231q-16 -100 -31.5 -201.5t-33.5 -201.5q-16 -85 -34 -142.5t-59 -97.5q-29 -29 -54 -40.5t-54 -11.5
t-52.5 16t-30.5 38q1 13 9.5 20t19.5 7q14 0 25 -7.5t22 -18.5l29 -28q20 5 36 17.5t32 33.5q26 33 41 81t29 133q17 102 32 201t31 202h-231q-16 -100 -31.5 -201.5t-33.5 -201.5q-16 -85 -34 -142.5t-59 -97.5q-29 -29 -54 -40.5t-54 -11.5t-52.5 16t-30.5 38q1 13 9.5 20
t19.5 7q14 0 25 -7.5t22 -18.5l29 -28q20 5 36 17.5t32 33.5q26 33 41 81t29 133q17 102 32 201t31 202h-114l5 25l114 8q1 5 1.5 10t1.5 10q14 86 48 143.5t81 87t99 29.5q39 0 65 -19.5t32 -42.5q-7 -20 -26 -20q-13 0 -24.5 8.5t-27.5 25.5l-24 27q-37 -6 -73 -30.5
t-63.5 -74.5t-42.5 -134q-1 -5 -1.5 -10t-1.5 -10h230q1 5 1.5 10t1.5 10q14 86 48 143.5t81 87t99 29.5q39 0 65 -19.5t32 -42.5q-7 -20 -26 -20q-13 0 -24.5 8.5t-27.5 25.5l-24 27q-37 -6 -73 -30.5t-63.5 -74.5t-42.5 -134q-1 -5 -1.5 -10t-1.5 -10h230q1 5 1.5 10
t1.5 10q15 101 48.5 157.5t75.5 79.5t81 23z" />
    <glyph glyph-name="f_f_h" unicode="ffh" horiz-adv-x="1094" 
d="M405 755q39 0 65 -19.5t32 -42.5q-7 -20 -26 -20q-13 0 -24.5 8.5t-27.5 25.5l-24 27q-37 -6 -73 -30.5t-63.5 -74.5t-42.5 -134q-1 -5 -1.5 -10t-1.5 -10h230q1 5 1.5 10t1.5 10q14 86 48 143.5t81 87t99 29.5q29 0 51 -11t35 -28q0 4 0.5 7.5t1.5 7.5l42 14l10 -9
l-76 -369q54 53 113 85.5t101 32.5q32 0 48 -17.5t16 -48.5q0 -24 -5 -47t-12 -51l-49 -207q-4 -17 -8 -33.5t-4 -27.5q0 -23 26 -23q23 0 51.5 22t57.5 59l16 -12q-31 -45 -69.5 -78.5t-84.5 -33.5q-20 0 -32.5 11.5t-12.5 29.5q0 19 3.5 34t10.5 41l48 206q5 25 10 48
t5 41q0 25 -10 35t-29 10q-34 0 -81 -24.5t-115 -82.5l-26 -128l-20 -104t-19 -104l-39 -6l-8 6l102 501q8 38 16 84t15 89q-3 -1 -8 -1q-13 0 -24.5 8.5t-27.5 25.5l-24 27q-37 -6 -73 -30.5t-63.5 -74.5t-42.5 -134q-1 -5 -1.5 -10t-1.5 -10h140l-6 -37l-140 3
q-16 -99 -31.5 -200.5t-33.5 -201.5q-16 -85 -34 -142.5t-59 -97.5q-29 -29 -54 -40.5t-54 -11.5t-52.5 16t-30.5 38q1 13 9.5 20t19.5 7q14 0 25 -7.5t22 -18.5l29 -28q20 5 36 17.5t32 33.5q26 33 41 81t29 133q17 102 32 201t31 202h-231q-16 -100 -31.5 -201.5
t-33.5 -201.5q-16 -85 -34 -142.5t-59 -97.5q-29 -29 -54 -40.5t-54 -11.5t-52.5 16t-30.5 38q1 13 9.5 20t19.5 7q14 0 25 -7.5t22 -18.5l29 -28q20 5 36 17.5t32 33.5q26 33 41 81t29 133q17 102 32 201t31 202h-114l5 25l114 8q1 5 1.5 10t1.5 10q14 86 48 143.5t81 87
t99 29.5z" />
    <glyph glyph-name="f_f_j" unicode="ffj" horiz-adv-x="798" 
d="M405 755q39 0 65 -19.5t32 -42.5q-7 -20 -26 -20q-13 0 -24.5 8.5t-27.5 25.5l-24 27q-37 -6 -73 -30.5t-63.5 -74.5t-42.5 -134q-1 -5 -1.5 -10t-1.5 -10h230q1 5 1.5 10t1.5 10q15 93 51 150t87.5 83.5t111.5 26.5q54 0 82.5 -20.5t34.5 -43.5q-1 -12 -9 -18t-17 -6
q-13 0 -23 7t-27 26l-27 29h-5.5h-5.5q-82 0 -135.5 -55.5t-73.5 -178.5q-1 -5 -1.5 -11t-2.5 -11h217l56 12l13 -10l-87 -450q-16 -79 -41 -134.5t-72 -97.5q-24 -21 -48 -32t-49 -16l-5 21q26 8 48.5 21t42.5 38q28 33 48.5 80t36.5 135l76 401l-240 2q-16 -100 -32 -202
t-34 -202q-16 -85 -34 -142.5t-59 -97.5q-29 -29 -54 -40.5t-54 -11.5t-52.5 16t-30.5 38q1 13 9.5 20t19.5 7q14 0 25 -7.5t22 -18.5l29 -28q20 5 36 17.5t32 33.5q26 33 41 81t29 133q17 102 32 201t31 202h-231q-16 -100 -31.5 -201.5t-33.5 -201.5q-16 -85 -34 -142.5
t-59 -97.5q-29 -29 -54 -40.5t-54 -11.5t-52.5 16t-30.5 38q1 13 9.5 20t19.5 7q14 0 25 -7.5t22 -18.5l29 -28q20 5 36 17.5t32 33.5q26 33 41 81t29 133q17 102 32 201t31 202h-114l5 25l114 8q1 5 1.5 10t1.5 10q14 86 48 143.5t81 87t99 29.5z" />
    <glyph glyph-name="f_f_k" unicode="ffk" horiz-adv-x="1023" 
d="M405 755q39 0 65 -19.5t32 -42.5q-7 -20 -26 -20q-13 0 -24.5 8.5t-27.5 25.5l-24 27q-37 -6 -73 -30.5t-63.5 -74.5t-42.5 -134q-1 -5 -1.5 -10t-1.5 -10h230q1 5 1.5 10t1.5 10q14 86 48 143.5t81 87t99 29.5q30 0 52 -11.5t34 -28.5q1 4 1.5 8t1.5 8l41 14l9 -9
l-93 -463l285 209q11 -1 18 -8.5t7 -16.5t-6.5 -16t-23.5 -17l-269 -163l20 -4q43 -10 67 -34t46 -68l41 -85q13 -27 29.5 -36t40.5 -11l53 -2l-3 -20q-20 -6 -35.5 -8t-29.5 -2q-33 0 -56.5 14.5t-40.5 53.5l-43 92q-19 43 -37 61.5t-53 28.5l-16 4l-7 -37l-20 -104
l-20 -104l-39 -6l-7 6l101 501q8 40 16.5 84t15.5 89q-3 -1 -9 -1q-13 0 -24.5 8.5t-27.5 25.5l-24 27q-37 -6 -73 -30.5t-63.5 -74.5t-42.5 -134q-1 -5 -1.5 -10t-1.5 -10h140l-6 -37l-140 3q-16 -99 -31.5 -200.5t-33.5 -201.5q-16 -85 -34 -142.5t-59 -97.5
q-29 -29 -54 -40.5t-54 -11.5t-52.5 16t-30.5 38q1 13 9.5 20t19.5 7q14 0 25 -7.5t22 -18.5l29 -28q20 5 36 17.5t32 33.5q26 33 41 81t29 133q17 102 32 201t31 202h-231q-16 -100 -31.5 -201.5t-33.5 -201.5q-16 -85 -34 -142.5t-59 -97.5q-29 -29 -54 -40.5t-54 -11.5
t-52.5 16t-30.5 38q1 13 9.5 20t19.5 7q14 0 25 -7.5t22 -18.5l29 -28q20 5 36 17.5t32 33.5q26 33 41 81t29 133q17 102 32 201t31 202h-114l5 25l114 8q1 5 1.5 10t1.5 10q14 86 48 143.5t81 87t99 29.5z" />
    <glyph glyph-name="f_f_t" unicode="fft" horiz-adv-x="873" 
d="M405 755q39 0 65 -19.5t32 -42.5q-7 -20 -26 -20q-13 0 -24.5 8.5t-27.5 25.5l-24 27q-37 -6 -73 -30.5t-63.5 -74.5t-42.5 -134q-1 -5 -1.5 -10t-1.5 -10h230q1 5 1.5 10t1.5 10q14 86 48 143.5t81 87t99 29.5q39 0 65 -19.5t32 -42.5q-7 -20 -26 -20q-13 0 -24.5 8.5
t-27.5 25.5l-24 27q-37 -6 -73 -30.5t-63.5 -74.5t-42.5 -134q-1 -5 -1.5 -10t-1.5 -10h244l37 134h34l-28 -134h135l-5 -37l-138 4l-69 -328q-4 -16 -7 -32t-3 -27q0 -25 27 -25q23 0 51 21.5t59 59.5l15 -12q-31 -45 -69 -78.5t-84 -33.5q-19 0 -32.5 12t-13.5 33
q0 16 2 30.5t8 40.5l72 339h-241q-16 -100 -31.5 -201.5t-33.5 -201.5q-16 -85 -34 -142.5t-59 -97.5q-29 -29 -54 -40.5t-54 -11.5t-52.5 16t-30.5 38q1 13 9.5 20t19.5 7q14 0 25 -7.5t22 -18.5l29 -28q20 5 36 17.5t32 33.5q26 33 41 81t29 133q17 102 32 201t31 202
h-231q-16 -100 -31.5 -201.5t-33.5 -201.5q-16 -85 -34 -142.5t-59 -97.5q-29 -29 -54 -40.5t-54 -11.5t-52.5 16t-30.5 38q1 13 9.5 20t19.5 7q14 0 25 -7.5t22 -18.5l29 -28q20 5 36 17.5t32 33.5q26 33 41 81t29 133q17 102 32 201t31 202h-114l5 25l114 8q1 5 1.5 10
t1.5 10q14 86 48 143.5t81 87t99 29.5z" />
    <glyph glyph-name=".notdef" horiz-adv-x="640" 
d="M80 0v674h480v-674h-480zM141 33h358l-179 274zM119 614v-554l181 277zM340 337l181 -277v554zM141 641l179 -274l179 274h-358z" />
    <glyph glyph-name=".null" 
 />
    <glyph glyph-name="nonmarkingreturn" horiz-adv-x="333" 
 />
    <glyph glyph-name="space" unicode="&#xa0;" horiz-adv-x="226" 
 />
    <glyph glyph-name="space" unicode=" " horiz-adv-x="226" 
 />
    <glyph glyph-name="exclam" unicode="!" horiz-adv-x="290" 
d="M134 175l35 215q14 95 24 157t16 96q5 26 16 35.5t24 9.5q27 0 27 -27q0 -13 -6 -40.5t-19.5 -80t-36.5 -141t-59 -224.5h-21zM72 32q0 20 14.5 33.5t33.5 13.5q18 0 28.5 -11.5t10.5 -28.5q0 -20 -14 -33.5t-34 -13.5q-17 0 -28 12t-11 28z" />
    <glyph glyph-name="quotedbl" unicode="&#x22;" horiz-adv-x="378" 
d="M211 743q12 0 18 -9t6 -23q0 -18 -17.5 -80t-46.5 -176h-23l10 98q4 38 7.5 81.5t8.5 69.5q7 39 37 39zM369 743q12 0 18 -9t6 -23q0 -18 -17.5 -80t-46.5 -176h-23l10 98q4 38 7.5 81.5t8.5 69.5q7 39 37 39z" />
    <glyph glyph-name="numbersign" unicode="#" horiz-adv-x="558" 
d="M190 246h193l47 178h-192zM93 0l53 197h-100l10 49h103l47 178h-101l10 48h104l48 180h31l-48 -180h193l48 180h31l-48 -180h98l-10 -48h-100l-48 -178h99l-9 -49h-103l-52 -197h-32l53 197h-193l-52 -197h-32z" />
    <glyph glyph-name="dollar" unicode="$" horiz-adv-x="510" 
d="M402 150q0 49 -24.5 79t-80.5 64l-57 -279q71 1 116.5 36.5t45.5 99.5zM184 -115l21 103q-73 5 -110 42.5t-42 98.5q8 24 30 24q12 0 21.5 -8t11.5 -32l6 -70q37 -24 89 -28l61 293l-19 12q-58 36 -84.5 76.5t-26.5 92.5q0 53 27 92.5t72.5 61t101.5 21.5h3l19 91h29
l-19 -93q60 -7 94 -41t39 -92q-6 -26 -30 -26q-13 0 -22.5 10.5t-10.5 32.5l-5 63q-16 12 -33.5 18t-37.5 8l-61 -288l21 -13q68 -41 92.5 -80.5t24.5 -91.5q0 -55 -28 -94.5t-76 -60t-108 -20.5l-21 -102h-29zM186 505q0 -55 25.5 -84t72.5 -58l56 273h-1q-69 0 -111 -37
t-42 -94z" />
    <glyph glyph-name="percent" unicode="%" horiz-adv-x="870" 
d="M222 -13l-23 17l503 661l23 -17zM186 252q-47 0 -76.5 34t-29.5 98q0 78 24 141.5t64.5 101.5t88.5 38q46 0 75 -34t29 -102q0 -77 -24.5 -140t-64 -100t-86.5 -37zM189 274q33 0 62.5 36t47.5 95.5t18 129.5q0 60 -18.5 83.5t-44.5 23.5q-32 0 -62 -34.5t-48.5 -93
t-18.5 -130.5q0 -61 18 -85.5t46 -24.5zM657 -9q-47 0 -76.5 34t-29.5 98q0 78 24 141.5t64.5 101.5t88.5 38q46 0 75 -34t29 -102q0 -77 -24.5 -140t-64 -100t-86.5 -37zM660 13q33 0 62.5 36t47.5 95.5t18 129.5q0 60 -18.5 83.5t-44.5 23.5q-32 0 -62 -34.5t-48.5 -93
t-18.5 -130.5q0 -61 18 -85.5t46 -24.5z" />
    <glyph glyph-name="ampersand" unicode="&#x26;" horiz-adv-x="678" 
d="M306 -13q-118 0 -181 59.5t-63 153.5q0 51 21 96t59 77.5t89 44.5q-13 20 -20.5 44t-7.5 50q0 45 22.5 85t67.5 65.5t110 25.5q101 0 124 -75q-5 -22 -26 -22q-11 0 -20.5 6.5t-17.5 22.5l-20 39q-10 2 -20 3t-21 1q-78 0 -118.5 -43t-40.5 -105q0 -28 8 -50t21 -41h6h6
q32 0 54 -10t22 -26q0 -13 -8 -21t-24 -8q-22 0 -43 10.5t-38 27.5q-48 -13 -78.5 -42.5t-45.5 -68t-15 -79.5q0 -52 25.5 -93t71 -64t105.5 -23q88 0 140 39.5t52 103.5q0 47 -30 73t-80 33l5 31q81 1 132.5 19.5t83.5 56.5t54 95l43 -17q-34 -82 -93.5 -123.5
t-153.5 -49.5q36 -15 53 -46.5t17 -68.5q0 -58 -29 -99.5t-80 -64t-118 -22.5z" />
    <glyph glyph-name="quotesingle" unicode="'" horiz-adv-x="220" 
d="M211 743q12 0 18 -9t6 -23q0 -18 -17.5 -80t-46.5 -176h-23l10 98q4 38 7.5 81.5t8.5 69.5q7 39 37 39z" />
    <glyph glyph-name="parenleft" unicode="(" horiz-adv-x="350" 
d="M221 -208q-71 87 -103.5 182t-32.5 197q0 101 32 199t102.5 190.5t187.5 178.5l16 -21q-107 -88 -170.5 -174.5t-91.5 -178t-28 -195.5q0 -96 24 -182t85 -181z" />
    <glyph glyph-name="parenright" unicode=")" horiz-adv-x="350" 
d="M168 738q71 -87 103.5 -182t32.5 -197q0 -101 -32 -198.5t-102.5 -190.5t-187.5 -179l-16 21q107 88 170.5 174.5t91.5 178.5t28 195q0 96 -23.5 182t-85.5 181z" />
    <glyph glyph-name="asterisk" unicode="*" horiz-adv-x="473" 
d="M277 755q10 0 16.5 -5.5t9.5 -20.5q2 -14 5.5 -50.5t7.5 -116.5q51 34 81.5 55t48.5 31t30 10q21 0 21 -22q0 -13 -14 -23t-50.5 -25t-106.5 -43q51 -40 82 -63.5t45 -37.5t15 -25q1 -10 -5 -16.5t-15 -7.5q-11 -1 -26 11.5t-40.5 42.5t-68.5 83q-33 -94 -50 -135
t-37 -41q-8 0 -14.5 5.5t-6.5 16.5t8.5 28t28.5 48t54 85q-79 1 -121 3.5t-57 9.5t-15 21q0 9 5.5 16.5t19.5 7.5q12 0 48.5 -8.5t121.5 -30.5q-22 77 -33.5 115.5t-11.5 54.5q0 11 5.5 19t18.5 8z" />
    <glyph glyph-name="plus" unicode="+" horiz-adv-x="530" 
d="M271 99v217h-203v35h203v213h37v-213h202v-35h-202v-217h-37z" />
    <glyph glyph-name="comma" unicode="," horiz-adv-x="294" 
d="M13 -165l-11 18q82 45 117 128l-21 22q-17 16 -17 38q0 16 11 27.5t30 11.5t34 -12q6 -13 6 -28q0 -41 -19 -80.5t-52.5 -72t-77.5 -52.5z" />
    <glyph glyph-name="hyphen" unicode="&#x2010;" horiz-adv-x="310" 
d="M56 228v42h230v-42h-230z" />
    <glyph glyph-name="hyphen" unicode="&#xad;" horiz-adv-x="310" 
d="M56 228v42h230v-42h-230z" />
    <glyph glyph-name="hyphen" unicode="-" horiz-adv-x="310" 
d="M56 228v42h230v-42h-230z" />
    <glyph glyph-name="period" unicode="." horiz-adv-x="294" 
d="M117 -7q-19 0 -30 11.5t-11 27.5q0 20 14.5 33.5t34.5 13.5q18 0 28.5 -11.5t10.5 -27.5q0 -21 -13.5 -34t-33.5 -13z" />
    <glyph glyph-name="slash" unicode="/" horiz-adv-x="326" 
d="M-78 -160l446 870h41l-445 -870h-42z" />
    <glyph glyph-name="zero" unicode="0" horiz-adv-x="510" 
d="M228 -11q-70 0 -115.5 54t-45.5 159q0 94 21.5 177t60.5 147t90 100.5t110 36.5q69 0 114.5 -53t45.5 -161q0 -94 -22 -177.5t-61 -147t-90 -99.5t-108 -36zM234 18q46 0 87 33.5t72.5 92t49.5 136.5t18 166q0 68 -16.5 109.5t-43 60t-58.5 18.5q-45 0 -86 -34t-73 -93.5
t-50.5 -136.5t-18.5 -163q0 -102 34 -145.5t85 -43.5z" />
    <glyph glyph-name="one" unicode="1" horiz-adv-x="510" 
d="M190 612l189 51l11 -12l-34 -144l-59 -295q-9 -43 -18 -87.5t-17 -88.5l152 -10l-6 -26h-345l6 26l147 9l116 573l-147 -24z" />
    <glyph glyph-name="two" unicode="2" horiz-adv-x="510" 
d="M43 0l8 39l133 124q82 75 135 126.5t82.5 88.5t41 68.5t11.5 65.5q0 57 -34 90.5t-101 33.5q-33 0 -64.5 -12.5t-52.5 -39.5l-2 -70q-1 -28 -11 -39t-24 -11q-24 0 -29 24q11 92 65 134t130 42q83 0 127 -42t44 -107q0 -42 -15.5 -78t-50 -75.5t-90.5 -90.5t-136 -123
l-112 -100h342l-10 -48h-387z" />
    <glyph glyph-name="three" unicode="3" horiz-adv-x="510" 
d="M244 -13q-49 0 -88.5 17t-62 55t-20.5 99q7 19 28 19q29 -2 27 -37l-2 -79q25 -25 55.5 -35.5t65.5 -10.5q46 0 84.5 18.5t61.5 56t23 94.5q0 66 -38.5 99t-109.5 33h-38l6 29h38q43 0 83.5 19.5t67.5 57t27 92.5q0 57 -30 89.5t-90 32.5q-31 0 -60.5 -10t-52.5 -31
l-9 -68q-5 -36 -33 -36q-10 0 -18.5 8t-8.5 21q18 74 66.5 109t123.5 35q81 0 120.5 -42.5t39.5 -106.5q0 -45 -22.5 -83t-60.5 -64t-86 -37q66 -10 100 -50t34 -100q0 -67 -32 -109.5t-82.5 -63.5t-106.5 -21z" />
    <glyph glyph-name="four" unicode="4" horiz-adv-x="510" 
d="M508 200h-115l-45 -220h-43l45 220h-309l7 33l408 426h30l-85 -419h115zM91 240h267l72 352z" />
    <glyph glyph-name="five" unicode="5" horiz-adv-x="510" 
d="M234 -13q-73 0 -116 40.5t-42 122.5q5 11 12.5 15.5t16.5 4.5q28 0 29 -42l-1 -72q20 -22 43.5 -31.5t57.5 -9.5q52 0 93.5 22t65.5 65.5t24 108.5q0 77 -39 115t-100 38q-31 0 -57 -5.5t-49 -16.5l-20 5l77 304h300l-11 -49h-272l-57 -226q21 7 47 11.5t54 4.5
q83 0 129.5 -48t46.5 -129q0 -76 -32.5 -127t-85 -76t-114.5 -25z" />
    <glyph glyph-name="six" unicode="6" horiz-adv-x="510" 
d="M133 205q0 -54 14.5 -97t45 -68t78.5 -25q41 0 76 22.5t56 65t21 102.5q0 74 -34.5 110t-99.5 36q-39 0 -77 -12.5t-71 -39.5q-9 -45 -9 -94zM263 -13q-86 0 -132 60t-46 158q0 93 33.5 174t94 143.5t144 99.5t183.5 41l1 -22q-100 -10 -180 -51.5t-134 -108t-78 -152.5
q71 57 160 57q77 0 120.5 -47.5t43.5 -129.5q0 -67 -29 -117t-76.5 -77.5t-104.5 -27.5z" />
    <glyph glyph-name="seven" unicode="7" horiz-adv-x="510" 
d="M89 7l385 597h-345l10 47h383l-6 -32l-375 -619h-46z" />
    <glyph glyph-name="eight" unicode="8" horiz-adv-x="510" 
d="M186 497q0 -45 24.5 -77.5t90.5 -72.5q81 37 115 78t34 95t-31 86t-87 32q-41 0 -74 -18t-52.5 -50t-19.5 -73zM243 -12q-79 0 -124.5 36.5t-45.5 101.5t46 115.5t133 84.5q-62 42 -85.5 80t-23.5 82q0 51 25.5 90.5t69.5 62.5t97 23q72 0 114.5 -39t42.5 -101t-40 -107
t-129 -83q71 -45 99.5 -84t28.5 -92q0 -50 -27 -88.5t-73.5 -60t-107.5 -21.5zM115 134q0 -58 35.5 -89t98.5 -31q73 0 115 37t42 96q0 32 -10.5 56.5t-39.5 49.5t-83 59q-80 -32 -119 -77t-39 -101z" />
    <glyph glyph-name="nine" unicode="9" horiz-adv-x="510" 
d="M164 452q0 -69 37 -108.5t103 -39.5q36 0 71 13t72 38q4 21 6 43.5t2 46.5q0 91 -33 141t-98 50q-43 0 -79.5 -24.5t-58.5 -66t-22 -93.5zM65 12q161 45 254.5 123t122.5 194q-40 -28 -77.5 -42t-78.5 -14q-77 0 -123 48t-46 124q0 61 29 110.5t77.5 79t106.5 29.5
q83 0 127.5 -58t44.5 -159q0 -175 -108.5 -291.5t-321.5 -168.5z" />
    <glyph glyph-name="colon" unicode=":" horiz-adv-x="300" 
d="M116 -7q-19 0 -30 11.5t-11 27.5q0 20 14.5 33.5t34.5 13.5q18 0 28.5 -11.5t10.5 -27.5q0 -21 -13.5 -34t-33.5 -13zM192 357q-19 0 -30 11.5t-11 27.5q0 20 14.5 33.5t34.5 13.5q18 0 28.5 -11.5t10.5 -27.5q0 -21 -13.5 -34t-33.5 -13z" />
    <glyph glyph-name="semicolon" unicode=";" horiz-adv-x="300" 
d="M192 357q-19 0 -30 11.5t-11 27.5q0 20 14.5 33.5t34.5 13.5q18 0 28.5 -11.5t10.5 -27.5q0 -21 -13.5 -34t-33.5 -13zM15 -165l-11 18q82 45 117 128l-21 22q-17 16 -17 38q0 16 11 27.5t30 11.5t34 -12q6 -13 6 -28q0 -41 -19 -80.5t-52.5 -72t-77.5 -52.5z" />
    <glyph glyph-name="less" unicode="&#x3c;" horiz-adv-x="530" 
d="M87 319v29l363 216l17 -30l-340 -200l340 -200l-17 -30z" />
    <glyph glyph-name="equal" unicode="=" horiz-adv-x="530" 
d="M512 216h-442v35h442v-35zM512 416h-442v35h442v-35z" />
    <glyph glyph-name="greater" unicode="&#x3e;" horiz-adv-x="530" 
d="M468 348v-29l-363 -216l-17 30l340 200l-340 200l17 30z" />
    <glyph glyph-name="question" unicode="?" horiz-adv-x="408" 
d="M71 30q0 20 13.5 33t32.5 13q20 0 31 -12.5t11 -29.5q0 -18 -13 -31.5t-32 -13.5t-31 12t-12 29zM112 161q2 55 7 87.5t14 52.5t24 35q13 13 38.5 32.5t80.5 53.5q46 28 72.5 50.5t37.5 45t11 49.5q0 43 -27.5 68t-78.5 25q-17 0 -32.5 -1.5t-29.5 -5.5l-26 -56
q-13 -29 -36 -29q-12 0 -18.5 8.5t-6.5 18.5q9 36 48 64.5t107 28.5q65 0 105 -32t40 -92q0 -40 -16 -68.5t-48.5 -53.5t-82.5 -56q-52 -31 -76 -49t-37 -31q-12 -12 -20.5 -27t-14 -42.5t-9.5 -77.5z" />
    <glyph glyph-name="at" unicode="@" horiz-adv-x="850" 
d="M309 177q0 -48 17 -69t45 -21q35 0 69 27.5t79 79.5l51 238q-24 18 -53 18q-38 0 -75 -23.5t-67 -62.5t-48 -87.5t-18 -99.5zM568 50q-45 0 -56 32.5t-1 76.5v2q-37 -48 -77 -79.5t-81 -31.5q-34 0 -61.5 24t-27.5 84q0 56 24 113.5t63.5 106t86.5 78.5t93 30
q32 0 54 -24l28 28l10 -6l-71 -328q-10 -43 -1 -58.5t32 -15.5q28 0 64 17.5t69.5 53t55.5 90t22 129.5q0 76 -30.5 135t-89 93t-144.5 34t-163.5 -33.5t-137.5 -95.5t-94.5 -147.5t-34.5 -190.5q0 -135 76 -213.5t213 -78.5q51 0 91.5 8.5t80.5 25.5l6 -21
q-44 -22 -93 -32.5t-99 -10.5q-99 0 -169.5 39.5t-108.5 110.5t-38 164q0 113 38.5 205.5t104.5 159t151.5 102.5t179.5 36q101 0 166.5 -40t98 -106t32.5 -146q0 -82 -26.5 -142t-67.5 -99.5t-86 -59t-82 -19.5z" />
    <glyph glyph-name="A" unicode="A" horiz-adv-x="661" 
d="M-28 0l6 28l82 9l340 637h35l89 -638l97 -8l-6 -28h-255l6 28l102 8l-28 210h-234l-108 -209l88 -9l-5 -28h-209zM222 276h215l-44 331z" />
    <glyph glyph-name="B" unicode="B" horiz-adv-x="585" 
d="M124 646l5 28h219q107 0 156.5 -38.5t49.5 -98.5q0 -68 -44.5 -117.5t-130.5 -66.5q82 -12 121 -54.5t39 -98.5q0 -94 -70.5 -147t-195.5 -53h-260l6 28l97 8l62 326q13 69 25 138t22 138zM219 312q-13 -70 -25.5 -140t-23.5 -140h102q104 0 158.5 44.5t54.5 123.5
q0 66 -50 101t-148 35h-63zM333 642h-52l-52 -275h61q109 0 160.5 43t51.5 116q0 55 -37.5 85.5t-131.5 30.5z" />
    <glyph glyph-name="C" unicode="C" horiz-adv-x="598" 
d="M344 -15q-86 0 -149.5 36t-98 102.5t-34.5 156.5q0 89 29 163.5t81 129.5t120.5 85.5t146.5 30.5q50 0 92.5 -12t85.5 -41l-23 -139h-37l5 129q-51 30 -130 30q-68 0 -125.5 -28.5t-99.5 -79t-65.5 -118.5t-23.5 -148q0 -87 31.5 -145.5t86 -88.5t122.5 -30q63 0 123 26
l42 132h38l-29 -145q-46 -23 -89.5 -34.5t-98.5 -11.5z" />
    <glyph glyph-name="D" unicode="D" horiz-adv-x="681" 
d="M124 646l5 28h237q143 0 222 -73.5t79 -207.5q0 -120 -51 -208.5t-141 -136.5t-207 -48h-255l6 28l97 8l62 326q13 69 25 138t22 138zM219 312q-13 -70 -25.5 -140t-23.5 -140h99q86 0 150 29t106.5 79t63.5 115.5t21 137.5q1 122 -66.5 185.5t-194.5 63.5h-68z" />
    <glyph glyph-name="E" unicode="E" horiz-adv-x="577" 
d="M124 646l5 28h460l-21 -163h-35l5 130h-257l-53 -283h180l30 96h29l-43 -224h-28l7 96h-181l-3 -14q-13 -70 -25.5 -139.5t-23.5 -139.5h293l43 130h35l-39 -163h-489l6 28l97 8l62 326q13 69 25 138t22 138z" />
    <glyph glyph-name="F" unicode="F" horiz-adv-x="549" 
d="M124 646l5 28h472l-23 -163h-34l5 130h-268l-53 -283h180l30 96h28l-42 -228h-28l7 100h-181l-3 -14q-13 -69 -25 -138t-23 -137l107 -9l-6 -28h-259l6 28l97 8l62 326q13 69 25 138t22 138z" />
    <glyph glyph-name="G" unicode="G" horiz-adv-x="660" 
d="M62 278q0 92 29 167t80.5 130t119.5 84.5t146 29.5q65 0 111 -13.5t90 -42.5l-22 -139h-37l5 128q-61 34 -148 34q-95 0 -166.5 -49t-111.5 -133.5t-40 -193.5q0 -84 33.5 -142.5t90.5 -89t125 -30.5q38 0 69.5 7t63.5 21l8 48q8 47 16.5 94.5t16.5 93.5l-111 9l5 28h242
l-5 -28l-77 -8l-45 -248q-49 -25 -93.5 -37.5t-100.5 -12.5q-89 0 -155 36t-102.5 102t-36.5 155z" />
    <glyph glyph-name="H" unicode="H" horiz-adv-x="765" 
d="M545 646l5 28h255l-6 -28l-98 -8l-61 -326q-13 -69 -25 -138t-23 -137l102 -9l-5 -28h-255l6 28l97 8l57 301h-370l-5 -25q-13 -69 -25 -138t-23 -137l103 -9l-6 -28h-255l6 28l97 8l62 326q26 138 48 276l-102 8l5 28h255l-6 -28l-98 -8l-50 -270h370q12 68 24 135.5
t22 134.5z" />
    <glyph glyph-name="I" unicode="I" horiz-adv-x="343" 
d="M124 646l5 28h255l-6 -28l-98 -8l-61 -326q-13 -69 -25 -138t-23 -137l102 -9l-5 -28h-255l6 28l97 8l62 326q13 69 25 138t22 138z" />
    <glyph glyph-name="J" unicode="J" horiz-adv-x="402" 
d="M187 646l6 28h263l-6 -28l-100 -8l-63 -353q-10 -55 -17 -86.5t-16 -58.5q-26 -91 -78 -136.5t-107 -45.5q-37 0 -60 11.5t-28 30.5q7 31 42 31q14 0 31.5 -8t54.5 -31q41 22 67.5 65.5t40.5 116.5q8 42 16 87t19 111q10 56 20 121.5t23 143.5z" />
    <glyph glyph-name="K" unicode="K" horiz-adv-x="657" 
d="M480 646l5 28h225l-5 -28l-88 -9l-265 -242l196 -358l91 -9l-5 -28h-237l5 28l90 8l-179 324l-102 -94q-10 -58 -20.5 -115t-19.5 -114l102 -9l-5 -28h-255l6 28l97 8l62 326q13 69 25 138t22 138l-101 8l5 28h255l-6 -28l-98 -8l-61 -326v0l355 325z" />
    <glyph glyph-name="L" unicode="L" horiz-adv-x="550" 
d="M124 646l5 28h259l-6 -28l-102 -9l-61 -325q-13 -70 -25.5 -139.5t-23.5 -139.5h278l46 140h36l-39 -173h-478l6 28l97 8l62 326q13 69 25 138t22 138z" />
    <glyph glyph-name="M" unicode="M" horiz-adv-x="915" 
d="M4 0l5 28l94 9l140 600l-94 9l6 28h150l128 -594l355 594h148l-4 -28l-97 -8l-49 -327q-10 -68 -18 -136.5t-18 -136.5l99 -9l-4 -29h-246l4 29l93 8l82 565l-357 -602h-23l-131 596l-131 -559l96 -9l-5 -28h-223z" />
    <glyph glyph-name="N" unicode="N" horiz-adv-x="727" 
d="M551 646l6 28h231l-5 -28l-85 -9l-121 -647h-25l-308 596l-103 -549l110 -9l-5 -28h-232l5 28l88 9l113 596l-3 6l-95 7l5 28h135l299 -587l103 550z" />
    <glyph glyph-name="O" unicode="O" horiz-adv-x="656" 
d="M304 -15q-76 0 -129.5 35t-81.5 97t-28 142q0 90 26 168t73 137t109.5 92t134.5 33q79 0 132 -35t80.5 -97t27.5 -143q0 -90 -25.5 -168t-72 -136.5t-109.5 -91.5t-137 -33zM312 19q60 0 111 29.5t89.5 82.5t59.5 123.5t21 152.5q0 112 -45.5 180t-146.5 68
q-61 0 -112.5 -31t-89 -85t-58.5 -124.5t-21 -148.5q0 -71 20.5 -127t63 -88t108.5 -32z" />
    <glyph glyph-name="P" unicode="P" horiz-adv-x="555" 
d="M345 642h-64l-62 -330l-1 -7h77q78 0 127 25t72 67.5t23 94.5q0 75 -41.5 112.5t-130.5 37.5zM124 646l5 28h227q111 0 163.5 -47t52.5 -131q0 -63 -31.5 -113t-91.5 -79t-148 -29h-89q-10 -59 -21 -119t-20 -119l107 -9l-6 -28h-259l6 28l97 8l62 326q13 69 25 138
t22 138z" />
    <glyph glyph-name="Q" unicode="Q" horiz-adv-x="656" 
d="M312 19q60 0 111 29.5t89.5 82.5t59.5 123.5t21 152.5q0 112 -45.5 180t-146.5 68q-61 0 -112.5 -31t-89 -85t-58.5 -124.5t-21 -148.5q0 -71 20.5 -127t63 -88t108.5 -32zM489 -247q-100 0 -157.5 63t-62.5 171q-97 13 -150.5 87t-53.5 185q0 90 26 168t73 137t109.5 92
t134.5 33q79 0 132 -35t80.5 -97t27.5 -143q0 -88 -24.5 -164.5t-69 -134.5t-104.5 -92.5t-131 -37.5q5 -96 53.5 -143.5t130.5 -47.5q44 0 75.5 11t64.5 32l11 -20q-31 -28 -70.5 -46t-94.5 -18z" />
    <glyph glyph-name="R" unicode="R" horiz-adv-x="632" 
d="M358 642h-77l-57 -298h106q89 0 138.5 48t49.5 120q0 61 -37.5 95.5t-122.5 34.5zM124 646l5 28h240q98 0 150.5 -41.5t52.5 -118.5q0 -74 -52.5 -129.5t-147.5 -66.5q26 -10 41.5 -34t34.5 -70l73 -179l102 -8l-6 -27q-12 -2 -29.5 -4.5t-43.5 -2.5q-35 0 -52 11t-28 40
l-66 169q-17 44 -31 65.5t-32.5 28.5t-50.5 7h-65q-13 -69 -25 -138.5t-23 -138.5l107 -9l-6 -28h-259l6 28l97 8l62 326q13 69 25 138t22 138z" />
    <glyph glyph-name="S" unicode="S" horiz-adv-x="506" 
d="M38 38l19 130h36l2 -123q27 -13 55.5 -20t62.5 -7q83 0 129 38t46 99q0 31 -11 54.5t-37.5 49.5t-74.5 62q-73 56 -100.5 98.5t-27.5 91.5q0 56 27.5 95.5t74 61t102.5 21.5q49 0 86 -11t79 -34l-23 -130h-37l4 118q-29 14 -53.5 19t-52.5 5q-70 0 -115 -34.5t-45 -98.5
q0 -31 10.5 -55.5t34.5 -48.5t64 -54q54 -41 85.5 -73t45 -61.5t13.5 -65.5q0 -56 -28.5 -96.5t-79 -62t-116.5 -21.5q-52 0 -98.5 15t-76.5 38z" />
    <glyph glyph-name="T" unicode="T" horiz-adv-x="595" 
d="M84 505l39 169h529l-24 -169h-35l6 136h-191l-62 -329q-13 -69 -24.5 -138t-22.5 -137l108 -9l-6 -28h-265l6 28l102 8l61 326q14 70 25.5 140t23.5 139h-190l-45 -136h-35z" />
    <glyph glyph-name="U" unicode="U" horiz-adv-x="720" 
d="M534 646l6 28h238l-6 -28l-92 -9l-72 -380q-27 -145 -93.5 -208.5t-180.5 -63.5q-93 0 -147 46t-54 137q0 21 3.5 45.5t7.5 49.5l18 98q14 69 26 138.5t24 138.5l-97 8l5 28h249l-6 -28l-99 -8l-69 -373q-4 -22 -7 -44t-3 -48q-1 -72 44 -108t112 -36q69 0 114 22
t74.5 77.5t48.5 154.5l67 354z" />
    <glyph glyph-name="V" unicode="V" horiz-adv-x="608" 
d="M487 646l5 28h226l-5 -28l-90 -9l-341 -647h-28l-100 648l-88 8l5 28h249l-5 -28l-107 -9l82 -566l295 566z" />
    <glyph glyph-name="W" unicode="W" horiz-adv-x="880" 
d="M759 646l5 28h226l-5 -28l-94 -9l-285 -647h-27l-73 585l-275 -585h-27l-51 648l-87 8l5 28h241l-5 -28l-101 -9l36 -557l260 557l-96 9l5 28h242l-5 -28l-100 -9l65 -562l241 562z" />
    <glyph glyph-name="X" unicode="X" horiz-adv-x="638" 
d="M460 646l5 28h234l-5 -28l-89 -9l-230 -285l133 -315l93 -9l-6 -28h-245l6 28l96 8l-115 271l-211 -270l106 -9l-5 -28h-235l5 28l87 8l242 299l-128 303l-83 8l5 28h243l-5 -28l-104 -9l109 -257l201 257z" />
    <glyph glyph-name="Y" unicode="Y" horiz-adv-x="556" 
d="M65 646l6 28h239l-5 -28l-101 -8l114 -329l219 328l-99 9l5 28h224l-6 -28l-88 -9l-246 -362q-11 -59 -22 -119t-22 -119l112 -9l-6 -28h-275l6 28l111 8l44 238l-129 364z" />
    <glyph glyph-name="Z" unicode="Z" horiz-adv-x="540" 
d="M87 505l37 169h458l-5 -26l-511 -615h370l47 136h37l-39 -169h-484l5 26l512 615h-344l-46 -136h-37z" />
    <glyph glyph-name="bracketleft" unicode="[" horiz-adv-x="304" 
d="M37 -159q17 77 32.5 157t30.5 160l45 240q15 79 29.5 158.5t27.5 158.5h164l-6 -29l-116 -9q-14 -68 -27.5 -138t-27.5 -141l-45 -240q-13 -69 -26.5 -139t-24.5 -140l113 -9l-6 -29h-163z" />
    <glyph glyph-name="backslash" unicode="\" horiz-adv-x="294" 
d="M236 -160h-36l-89 870h35z" />
    <glyph glyph-name="bracketright" unicode="]" horiz-adv-x="304" 
d="M311 715q-16 -77 -32 -157t-31 -160l-45 -240q-15 -79 -29.5 -158.5t-27.5 -158.5h-164l6 29l116 9q14 68 28 138.5t27 140.5l45 240q14 69 27 139t24 140l-113 9l6 29h163z" />
    <glyph glyph-name="asciicircum" unicode="^" horiz-adv-x="530" 
d="M109 233l157 253h38l162 -253l-30 -21l-151 233l-146 -233z" />
    <glyph glyph-name="underscore" unicode="_" horiz-adv-x="510" 
d="M5 -42v42h430v-42h-430z" />
    <glyph glyph-name="grave" unicode="`" horiz-adv-x="400" 
d="M370 550l-17 -11q-27 35 -57 75t-53 70t-23 47q0 11 8 16.5t18 5.5q11 0 20 -10t19 -30q17 -34 41 -78.5t44 -84.5z" />
    <glyph glyph-name="a" unicode="a" horiz-adv-x="517" 
d="M101 132q0 -55 20 -78.5t51 -23.5q39 0 78.5 31.5t90.5 91.5l58 271q-28 20 -60 20q-35 0 -70.5 -18t-66.5 -49q-45 -46 -73 -111.5t-28 -133.5zM369 -13q-19 0 -33 12.5t-14 37.5q0 19 2.5 34.5t7.5 38.5l1 5q-43 -55 -89 -91.5t-93 -36.5q-37 0 -67.5 28t-30.5 96
q0 51 18 103.5t48.5 101t69.5 86.5t82 60.5t85 22.5q35 0 60 -27l29 31l12 -8l-80 -367q-4 -16 -7 -32.5t-3 -29.5q0 -12 8 -17t19 -5q24 0 53 23t56 59l17 -13q-30 -45 -68.5 -78.5t-82.5 -33.5z" />
    <glyph glyph-name="b" unicode="b" horiz-adv-x="492" 
d="M124 89q0 -29 14.5 -45.5t46.5 -16.5q29 0 64.5 13.5t71.5 47.5q32 31 56.5 73t38.5 89t14 93q0 52 -17 76t-47 24q-44 0 -95 -36.5t-108 -98.5l-18 -88q-7 -34 -12 -56t-7 -38.5t-2 -36.5zM161 -13q-37 0 -60.5 23t-23.5 63q0 32 7.5 67.5t15.5 74.5l101 476l-115 5
l3 20l154 29l10 -9l-82 -394q32 43 70 75t76 50t70 18q39 0 64.5 -27t25.5 -94q0 -52 -17.5 -105.5t-48.5 -102t-71.5 -87t-86 -60.5t-92.5 -22z" />
    <glyph glyph-name="c" unicode="c" horiz-adv-x="407" 
d="M208 -13q-39 0 -72 19t-53 58.5t-20 100.5q0 63 22 121t58.5 102.5t82 70.5t92.5 26q39 0 65.5 -20t33.5 -44q-1 -12 -9.5 -18t-17.5 -6q-10 0 -19.5 6t-21.5 18l-38 40q-42 -7 -79 -33.5t-64.5 -67t-43 -88.5t-15.5 -97q0 -73 32 -109t87 -36q42 0 76 23t60 58l16 -12
q-31 -50 -75 -81t-97 -31z" />
    <glyph glyph-name="d" unicode="d" horiz-adv-x="535" 
d="M102 129q0 -52 18 -75.5t48 -23.5q43 0 89 35t106 103l50 251q-16 14 -33 19.5t-33 5.5q-44 0 -85.5 -24t-74.5 -63q-38 -46 -61.5 -106t-23.5 -122zM396 114q-3 -16 -5.5 -32t-2.5 -27q0 -25 27 -25q23 0 52 22t58 59l15 -12q-30 -44 -68.5 -78t-83.5 -34
q-20 0 -33.5 12t-13.5 35q0 14 2 28.5t7 40.5l6 29q-32 -41 -68.5 -74t-73 -52t-69.5 -19q-38 0 -64 27.5t-26 94.5q0 51 18 104.5t49 102t70.5 86.5t83.5 60.5t87 22.5q35 0 60 -21l45 227l-113 5l4 20l151 29l11 -9z" />
    <glyph glyph-name="e" unicode="e" horiz-adv-x="407" 
d="M309 456q-33 0 -67.5 -21.5t-63.5 -58.5t-48.5 -83t-22.5 -95q134 38 200 91t66 108q0 29 -17.5 44t-46.5 15zM208 -13q-39 0 -72 18t-53 57.5t-20 103.5q0 60 21 116.5t57 102.5t82.5 73t97.5 27q41 0 67 -20.5t26 -61.5q0 -62 -74.5 -124.5t-233.5 -106.5
q2 -73 33.5 -107.5t83.5 -34.5q45 0 79.5 23t61.5 58l16 -12q-32 -49 -75 -80.5t-97 -31.5z" />
    <glyph glyph-name="f" unicode="f" horiz-adv-x="298" 
d="M382 755q41 0 68.5 -20.5t32.5 -43.5q-1 -11 -9 -17.5t-18 -6.5q-13 0 -22.5 7t-25.5 26l-31 33q-37 -7 -67.5 -31.5t-52.5 -74t-36 -132.5q-1 -5 -1.5 -10t-1.5 -10h140l-6 -37l-140 3q-16 -99 -31.5 -200.5t-33.5 -201.5q-16 -85 -34 -142.5t-59 -97.5
q-29 -29 -54 -40.5t-54 -11.5t-52.5 16t-30.5 38q1 13 9.5 20t19.5 7q14 0 25 -7.5t22 -18.5l29 -28q20 5 36 17.5t32 33.5q26 33 41 81t29 133q17 102 33 201t30 202h-114l5 25l114 8q1 5 1.5 10t1.5 10q15 101 48.5 157.5t75.5 79.5t81 23z" />
    <glyph glyph-name="g" unicode="g" horiz-adv-x="474" 
d="M227 175q38 1 68 23t47 60.5t17 86.5q0 53 -23 84t-70 31q-40 0 -70 -24t-46.5 -63t-16.5 -85q0 -113 94 -113zM87 282q0 57 25 103t67 73t94 27q47 0 78.5 -26t38.5 -73q11 60 36.5 84.5t50.5 24.5q13 0 23 -5q6 -6 6 -14q0 -20 -21 -32.5t-64 -26.5q-6 -15 -10.5 -32.5
t-8.5 -41.5q-16 -100 -66 -146.5t-115 -46.5q-49 0 -83 23q-25 -23 -31.5 -39t-6.5 -30q0 -18 12.5 -31.5t43.5 -18.5l118 -16q77 -10 106.5 -37t29.5 -67q0 -45 -33 -85.5t-92 -66t-137 -25.5q-76 0 -121.5 27.5t-45.5 83.5q0 50 37.5 89.5t88.5 62.5q-29 11 -39 29.5
t-10 35.5q0 51 67 98q-18 17 -28 42t-10 57zM29 -116q0 -44 36.5 -70t103.5 -26q56 0 100.5 16t70.5 44.5t26 65.5q0 22 -9 38.5t-34.5 28t-75.5 17.5l-109 14q-1 0 -3 0.5t-4 0.5q-49 -28 -75.5 -58t-26.5 -71z" />
    <glyph glyph-name="h" unicode="h" horiz-adv-x="530" 
d="M68 -6l-7 6l101 501q10 48 19 95.5t17 95.5l-110 4l3 20l154 29l10 -9l-75 -368q36 35 74.5 61t74.5 41t63 15q32 0 48.5 -17.5t16.5 -48.5q0 -24 -5.5 -47t-11.5 -51l-49 -207q-4 -17 -8 -33.5t-4 -27.5q0 -23 25 -23q23 0 51.5 22t58.5 59l15 -12q-30 -45 -69 -78.5
t-84 -33.5q-20 0 -32.5 11.5t-12.5 29.5q0 19 3.5 34t9.5 41l49 206q5 25 10 48t5 41q0 25 -10 35t-30 10q-34 0 -80.5 -24.5t-114.5 -82.5l-26 -128q-10 -52 -20.5 -104t-19.5 -104z" />
    <glyph glyph-name="i" unicode="i" horiz-adv-x="294" 
d="M95 32q0 16 3 30.5t8 40.5l70 328l-114 4l3 20l152 30l13 -10l-77 -361q-4 -16 -7 -32.5t-3 -27.5q0 -24 26 -24q23 0 50.5 21.5t58.5 59.5l15 -12q-32 -45 -68.5 -78.5t-82.5 -33.5q-19 0 -33 12t-14 33zM235 649q-16 0 -28 10.5t-12 29.5q0 20 14 33t30 13
q17 0 28 -10.5t11 -29.5t-13.5 -32.5t-29.5 -13.5z" />
    <glyph glyph-name="j" unicode="j" horiz-adv-x="250" 
d="M235 649q-16 0 -28 10.5t-12 29.5q0 20 14 33t30 13q17 0 28 -10.5t11 -29.5t-13.5 -32.5t-29.5 -13.5zM-68 -255l-5 21q26 8 48.5 21t43.5 38q28 33 48 80t36 135l75 391l-116 4l3 20l152 30l13 -10l-88 -450q-15 -79 -40.5 -134.5t-72.5 -97.5q-24 -21 -48 -32t-49 -16
z" />
    <glyph glyph-name="k" unicode="k" horiz-adv-x="455" 
d="M58 0l102 501q10 48 19 95.5t16 95.5l-110 4l3 20l154 29l8 -9l-93 -463l286 209q11 -1 17.5 -8.5t6.5 -16.5t-6 -16t-23 -17l-270 -163l20 -4q43 -10 67 -34t46 -68l41 -85q14 -27 30.5 -36t40.5 -11l52 -2l-3 -20q-19 -6 -34.5 -8t-29.5 -2q-34 0 -57.5 14.5
t-40.5 53.5l-42 92q-20 43 -37.5 61.5t-52.5 28.5l-17 4l-7 -37l-20 -104l-20 -104l-39 -6z" />
    <glyph glyph-name="l" unicode="l" horiz-adv-x="261" 
d="M117 -13q-20 0 -34 13t-14 37q0 14 2.5 28t6.5 38l80 398q10 48 19 95.5t16 95.5l-109 4l3 20l153 29l11 -9l-126 -622q-4 -16 -6.5 -32t-2.5 -26q0 -26 28 -26q21 0 49 22t59 59l15 -12q-31 -45 -67.5 -78.5t-82.5 -33.5z" />
    <glyph glyph-name="m" unicode="m" horiz-adv-x="810" 
d="M656 -13q-20 0 -33 11.5t-13 29.5q0 19 4 34t10 41l48 206q6 25 11 48t5 41q0 25 -9.5 35t-29.5 10q-34 0 -75 -23.5t-108 -80.5q-1 -4 -1.5 -7.5t-1.5 -6.5l-25 -117q-11 -52 -21.5 -103.5t-20.5 -104.5l-39 -6l-7 6l69 325q4 20 8 39t4 35q0 24 -10 34t-29 10
q-34 0 -78.5 -24.5t-111.5 -81.5l-29 -129q-12 -52 -21.5 -103.5t-20.5 -104.5l-39 -6l-7 6l91 431l-114 4l3 20l151 30l13 -10l-21 -107q53 52 110 84.5t98 32.5q32 0 48 -17.5t16 -47.5q0 -10 -2 -23t-5 -27q52 52 105.5 83.5t94.5 31.5q32 0 48 -17.5t16 -48.5
q0 -24 -5.5 -47t-11.5 -51l-50 -207q-4 -17 -7.5 -33.5t-3.5 -27.5q0 -23 25 -23q23 0 51 21.5t59 59.5l15 -12q-31 -45 -69 -78.5t-84 -33.5z" />
    <glyph glyph-name="n" unicode="n" horiz-adv-x="558" 
d="M131 0l-39 -6l-7 6l91 431l-114 4l3 20l151 30l13 -10l-21 -107q36 35 74.5 61t75 41t63.5 15q32 0 48 -17.5t16 -48.5q0 -24 -5 -47t-12 -51l-49 -207q-4 -17 -8 -33.5t-4 -27.5q0 -23 26 -23q23 0 51.5 22t57.5 59l16 -12q-31 -45 -69.5 -78.5t-84.5 -33.5
q-20 0 -32.5 11.5t-12.5 29.5q0 19 3.5 34t10.5 41l48 206q5 25 10 48t5 41q0 25 -10 35t-29 10q-34 0 -80.5 -24.5t-114.5 -81.5l-29 -129q-12 -52 -21.5 -103.5t-20.5 -104.5z" />
    <glyph glyph-name="o" unicode="o" horiz-adv-x="485" 
d="M217 -13q-39 0 -74.5 18t-58.5 57t-23 100t18.5 119t52 104t78.5 73t97 27q65 0 110 -42.5t45 -134.5q0 -63 -19 -121t-52.5 -103t-78 -71t-95.5 -26zM223 15q42 0 76.5 25t60 66t39.5 91t14 100q0 85 -31 122t-80 37q-42 0 -77 -24.5t-61 -66t-40 -92.5t-14 -103
q0 -81 33 -118t80 -37z" />
    <glyph glyph-name="p" unicode="p" horiz-adv-x="521" 
d="M-54 -243l5 25l89 9l136 640l-114 4l3 20l153 30l13 -10l-28 -127q32 41 69.5 71.5t75 48t68.5 17.5q39 0 64.5 -27t25.5 -94q0 -52 -17.5 -105.5t-47.5 -102t-69 -87t-83 -60.5t-88 -22q-19 0 -36.5 5t-34.5 17q-16 -74 -26 -124.5t-18 -92.5l100 -10l-5 -25h-235z
M395 443q-43 0 -93 -35t-106 -95l-55 -257q20 -15 40 -21t41 -6q45 0 86.5 25.5t72.5 67.5q37 47 57.5 105t20.5 116q0 52 -17 76t-47 24z" />
    <glyph glyph-name="q" unicode="q" horiz-adv-x="492" 
d="M102 127q0 -97 65 -97q42 0 88.5 32.5t103.5 93.5l56 267q-17 11 -33.5 16t-31.5 5q-39 0 -76 -18.5t-69 -50.5q-46 -47 -74.5 -113.5t-28.5 -134.5zM145 -13q-39 0 -64.5 27.5t-25.5 94.5q0 51 18 104.5t49.5 102t71.5 86.5t84.5 60.5t88.5 22.5q39 0 68 -26l24 26
l12 -8l-110 -516q-9 -43 -17.5 -85t-16.5 -85l93 -9l-5 -25h-235l5 25l97 9l69 328q-48 -56 -103.5 -94t-102.5 -38z" />
    <glyph glyph-name="r" unicode="r" horiz-adv-x="387" 
d="M85 0l91 431l-114 4l3 20l148 30l13 -10l-27 -145q22 40 47.5 75.5t54 57.5t57.5 22q47 0 62 -25q-1 -17 -10 -27.5t-26 -10.5q-16 0 -31.5 7t-30.5 18q-36 -25 -69.5 -70t-65.5 -103l-14 -66q-11 -52 -21 -103.5t-21 -104.5l-39 -6z" />
    <glyph glyph-name="s" unicode="s" horiz-adv-x="366" 
d="M322 122q0 -63 -44.5 -99t-112.5 -36q-55 0 -84.5 22.5t-40.5 68.5q2 10 9.5 16.5t16.5 6.5q24 0 33 -27l16 -53q20 -6 44 -6q56 0 88 27t32 69q0 29 -16 54t-60 55q-41 29 -65 59t-24 73q0 59 41 96t107 37q45 0 75.5 -20.5t40.5 -57.5q-5 -21 -27 -21q-24 0 -35 30
l-15 36q-17 5 -33 5q-56 0 -83 -27t-27 -66q0 -37 17.5 -58t58.5 -52q49 -36 68.5 -65t19.5 -67z" />
    <glyph glyph-name="t" unicode="t" horiz-adv-x="324" 
d="M105 103l72 339h-115l5 25l119 8l37 134h34l-28 -134h135l-5 -37l-138 4l-69 -328q-4 -16 -7 -32t-3 -27q0 -25 27 -25q23 0 51 21.5t59 59.5l15 -12q-31 -45 -69 -78.5t-84 -33.5q-19 0 -32.5 12t-13.5 33q0 16 2 30.5t8 40.5z" />
    <glyph glyph-name="u" unicode="u" horiz-adv-x="555" 
d="M161 -13q-28 0 -46 16.5t-18 53.5q0 29 7 64t14 65l54 246l-107 3l4 21l145 29l13 -10l-62 -274q-7 -31 -13.5 -68.5t-6.5 -57.5q0 -44 42 -44q32 0 76.5 21.5t111.5 78.5l30 144q11 48 20.5 96.5t18.5 96.5l38 17l10 -8l-77 -363q-3 -16 -6.5 -32.5t-3.5 -27.5
q0 -24 27 -24q23 0 51 21.5t59 59.5l16 -12q-33 -45 -70 -78.5t-81 -33.5q-20 0 -34.5 12.5t-14.5 35.5q0 14 2.5 28t8.5 39q-61 -58 -111 -86.5t-97 -28.5z" />
    <glyph glyph-name="v" unicode="v" horiz-adv-x="468" 
d="M187 -4q-2 85 -4.5 152.5t-6.5 125t-12 111.5q-5 35 -13.5 46t-21.5 11q-16 0 -33.5 -14.5t-43.5 -61.5l-17 10q26 58 53.5 83.5t59.5 25.5q27 0 41.5 -19t20.5 -65q11 -76 14 -162.5t3 -188.5q59 70 103 136.5t77 134.5q5 8 8 17t7 19l-4 29q-1 11 -3 25t-2 23
q0 26 11 38.5t26 12.5q17 0 24 -9q5 -9 5 -29q0 -17 -6.5 -48.5t-37.5 -90.5q-34 -67 -91 -147.5t-136 -166.5l-15 -2z" />
    <glyph glyph-name="w" unicode="w" horiz-adv-x="728" 
d="M187 -4q-2 128 -6.5 219.5t-15.5 170.5q-4 35 -13 45.5t-23 10.5q-16 0 -33.5 -15t-43.5 -61l-17 10q26 58 53.5 83.5t58.5 25.5q27 0 42 -17.5t21 -61.5q9 -72 13 -158.5t4 -184.5q62 93 117.5 193.5t103.5 215.5h24q2 -45 5 -100.5t5.5 -114t4.5 -111t3 -91.5
q39 47 69.5 88t57 84t51.5 94q5 10 8.5 19t7.5 19l-6 32q-5 25 -5 45q0 25 12 37t27 12q16 -1 22 -9q5 -9 5 -30q0 -17 -7 -48t-37 -90q-37 -77 -93 -155t-131 -159l-16 -2l-5 4q-2 57 -5.5 123.5t-6.5 129.5t-6 110q-24 -50 -58.5 -111.5t-76 -126.5t-88.5 -127l-16 -2z
" />
    <glyph glyph-name="x" unicode="x" horiz-adv-x="528" 
d="M2 56q2 14 10 21t18 7q11 0 18.5 -4t14.5 -18l26 -46q25 7 46 32q34 40 68.5 91t65.5 97l-39 147q-9 35 -19.5 47t-27.5 12q-19 0 -38 -14.5t-44 -61.5l-17 11q24 58 54.5 83t58.5 25q29 0 45.5 -19.5t29.5 -68.5l29 -118q35 56 64.5 97t49.5 65q20 23 40.5 33.5
t42.5 10.5q20 0 38.5 -13.5t24.5 -38.5q0 -13 -8 -23t-22 -10q-9 0 -17.5 4t-16.5 17l-19 31q-20 -9 -41 -31q-34 -39 -66.5 -84.5t-61.5 -88.5l35 -140q11 -44 23.5 -61t37.5 -17q22 0 50.5 22.5t56.5 59.5l17 -13q-34 -49 -71.5 -80.5t-69.5 -31.5q-31 0 -48 20.5
t-31 75.5l-32 122q-34 -55 -63.5 -100t-58.5 -80q-18 -22 -37 -30t-39 -8q-27 0 -49 18t-28 51z" />
    <glyph glyph-name="y" unicode="y" horiz-adv-x="469" 
d="M-80 -197q3 16 14 23.5t26 7.5q14 0 27 -6t29 -18l13 -10q46 26 88 68q46 46 88 106q-4 78 -9.5 139.5t-12 117t-15.5 115.5q-6 41 -11 61.5t-11.5 27.5t-17.5 7q-14 0 -31.5 -14t-44.5 -62l-17 10q27 60 55.5 84.5t57.5 24.5q28 0 42.5 -21t21.5 -86q10 -84 16.5 -169
t10.5 -180q58 101 100 188.5t60 149.5q16 51 26 76.5t18 34.5t18 9q25 0 25 -23q0 -11 -3 -22.5t-13 -31.5q-13 -29 -27.5 -58t-37.5 -73q-30 -58 -55 -104.5t-48 -87t-49 -81.5q-28 -43 -55.5 -80t-62.5 -75q-38 -40 -78.5 -67t-72.5 -27q-26 0 -43 12.5t-21 33.5z" />
    <glyph glyph-name="z" unicode="z" horiz-adv-x="443" 
d="M80 308l22 141l44 36q68 -13 133 -29t131 -38l25 59l37 7l7 -6q-7 -25 -28 -54t-55 -64q-65 -69 -140.5 -129.5t-151.5 -137.5q58 -43 98.5 -57.5t77.5 -14.5q27 0 51 8.5t45 22.5q-10 18 -14.5 30t-4.5 25q0 20 9.5 31.5t24.5 12.5q23 -9 23 -51q0 -33 -22 -61
t-56.5 -45t-71.5 -17q-48 0 -89 21.5t-90 72.5l-29 -73l-38 -5l-6 5q11 27 28 54t40 51q46 48 96.5 91.5t104.5 90.5t108 104q-62 14 -121.5 26t-126.5 23l-36 -134z" />
    <glyph glyph-name="braceleft" unicode="{" horiz-adv-x="361" 
d="M50 264l6 28q77 8 111 39.5t34 80.5q0 25 -6.5 60t-6.5 72q0 81 43.5 126t148.5 45h36l-6 -29l-31 -2q-60 -3 -92 -18t-44 -46t-12 -82q0 -31 3 -64t3 -58q0 -49 -30.5 -87.5t-94.5 -50.5q43 -8 60.5 -30.5t17.5 -52.5q0 -21 -8.5 -52t-20 -66.5t-20 -71t-8.5 -66.5
q0 -32 21 -48t71 -19l41 -2l-6 -29h-48q-64 0 -94 23.5t-30 66.5q0 35 10.5 72t24.5 71.5t24.5 64t10.5 49.5q0 31 -25 50.5t-83 25.5z" />
    <glyph glyph-name="bar" unicode="|" horiz-adv-x="244" 
d="M118 -250v1000h38v-1000h-38z" />
    <glyph glyph-name="braceright" unicode="}" horiz-adv-x="361" 
d="M355 292l-6 -28q-77 -7 -111 -38.5t-34 -81.5q0 -25 6.5 -60t6.5 -72q0 -81 -43.5 -126t-148.5 -45h-36l6 29l31 2q60 3 92 18t44 46.5t12 81.5q0 32 -3 64.5t-3 57.5q0 49 30.5 87.5t94.5 50.5q-43 8 -60.5 30.5t-17.5 52.5q0 21 8.5 52t20 66.5t20 71t8.5 66.5
q0 32 -21 48t-71 19l-41 2l6 29h48q65 0 94.5 -23t29.5 -67q0 -35 -10.5 -72t-24.5 -71.5t-24.5 -64t-10.5 -49.5q0 -31 25 -50.5t83 -25.5z" />
    <glyph glyph-name="asciitilde" unicode="~" horiz-adv-x="530" 
d="M297 356q21 -21 39.5 -30.5t40.5 -9.5q27 0 46 20t25 66l31 -5q-4 -52 -31 -83.5t-74 -31.5q-31 0 -54.5 13t-49.5 38q-22 21 -39.5 30.5t-40.5 9.5q-27 0 -46.5 -19t-25.5 -67l-31 6q5 53 32 84t74 31q31 0 55 -14.5t49 -37.5z" />
    <glyph glyph-name="exclamdown" unicode="&#xa1;" horiz-adv-x="290" 
d="M184 302l-35 -215q-13 -95 -23.5 -156.5t-16.5 -96.5q-5 -26 -15.5 -35.5t-24.5 -9.5q-27 0 -27 27q0 14 6 41t19.5 79.5t36.5 141t59 224.5h21zM246 445q0 -20 -14 -33.5t-34 -13.5q-18 0 -28.5 12t-10.5 28q0 20 14.5 33.5t33.5 13.5q17 0 28 -11.5t11 -28.5z" />
    <glyph glyph-name="cent" unicode="&#xa2;" horiz-adv-x="510" 
d="M234 -48h-29l23 112q-52 8 -87 51t-35 128q0 59 18 113.5t49 98t71 71.5t85 33l21 105h29l-21 -104q52 -3 85 -33.5t37 -88.5q-1 -16 -8 -24t-18 -8q-16 0 -23.5 11t-9.5 28l-13 71q-27 13 -56 14l-87 -426h3q44 0 78.5 23.5t60.5 58.5l16 -12q-31 -49 -74 -79.5
t-93 -32.5zM151 250q0 -62 23 -97.5t63 -44.5l85 420q-37 -6 -68 -31.5t-54 -65t-36 -86.5t-13 -95z" />
    <glyph glyph-name="sterling" unicode="&#xa3;" horiz-adv-x="510" 
d="M14 0l8 36q82 59 125 121.5t46 137.5h-124l7 35h114q-4 25 -15 49.5t-20 51t-9 56.5q0 48 24 88t68.5 64.5t105.5 24.5q66 0 111.5 -35.5t47.5 -120.5q-12 -22 -31 -22q-32 0 -35 48q-1 25 -1 43.5v34.5q-20 13 -42 17.5t-44 4.5q-71 0 -112 -42t-41 -106
q0 -32 7.5 -58.5t16 -50t11.5 -47.5h159l-7 -35h-150q-4 -70 -46 -131.5t-110 -114.5h349l-10 -49h-403z" />
    <glyph glyph-name="currency" unicode="&#xa4;" horiz-adv-x="510" 
d="M158 333q0 -38 17.5 -67.5t47 -46t64.5 -16.5t64 17t46 46.5t17 66.5q0 38 -17.5 67.5t-46 46t-63.5 16.5q-36 0 -65 -16.5t-46.5 -46t-17.5 -67.5zM122 333q0 33 10.5 60.5t29.5 48.5l-37 25q-28 19 -42.5 32.5t-14.5 26.5q0 11 8 18.5t18 7.5q13 0 26 -14t32 -43
l27 -38q46 38 108 38t108 -38l25 37q20 29 33 43t26 14q11 0 18.5 -7.5t7.5 -18.5q0 -13 -14 -26t-43 -32l-37 -26q19 -21 29.5 -48.5t10.5 -59.5q0 -33 -10.5 -60.5t-29.5 -47.5l36 -26q29 -19 43 -32.5t14 -26.5q0 -10 -7.5 -17.5t-18.5 -7.5q-13 0 -25.5 14t-32.5 43
l-26 37q-46 -38 -107 -38t-109 38l-26 -37q-19 -28 -32 -42.5t-26 -14.5q-11 0 -18.5 8t-7.5 18q0 13 14 26t43 32l37 26q-19 21 -29.5 48.5t-10.5 59.5z" />
    <glyph glyph-name="yen" unicode="&#xa5;" horiz-adv-x="510" 
d="M53 142l7 34h166l18 88h-166l7 35h154l-83 317l-69 8l6 27h211l-6 -27l-94 -9l77 -311l198 312l-84 8l6 27h188l-6 -27l-68 -9l-203 -316h148l-7 -35h-163q-6 -26 -10 -47.5t-8 -40.5h162l-7 -34h-162q-6 -31 -10.5 -55.5t-9.5 -49.5l103 -9l-6 -28h-260l6 28l110 9
l21 105h-166z" />
    <glyph glyph-name="brokenbar" unicode="&#xa6;" horiz-adv-x="244" 
d="M119 -250v450h38v-450h-38zM157 320h-38v430h38v-430z" />
    <glyph glyph-name="section" unicode="&#xa7;" horiz-adv-x="464" 
d="M349 688q47 0 77.5 -20t40.5 -57q-1 -10 -9 -15.5t-18 -5.5t-19.5 6.5t-15.5 22.5l-15 38q-17 5 -33 5q-56 0 -84 -27.5t-28 -66.5q0 -37 17.5 -58t58.5 -51l40 -29q47 -34 66.5 -64.5t19.5 -71.5q0 -65 -49.5 -106t-132.5 -49q37 -28 52 -54t15 -64q0 -59 -44.5 -94.5
t-112.5 -35.5q-55 0 -85 21.5t-41 67.5q3 10 10 16.5t16 6.5q26 0 33 -27l15 -52q20 -7 46 -7q56 0 88 28t32 70q0 29 -15.5 53.5t-58.5 55.5l-40 29q-40 30 -63.5 61t-23.5 76q0 62 47.5 105.5t131.5 51.5q-28 23 -45.5 49t-17.5 63q0 56 40 92.5t105 36.5zM204 183l34 -24
q82 6 125.5 41t43.5 84q0 31 -15.5 57.5t-57.5 56.5l-41 29q-85 -5 -125 -41.5t-40 -88.5q0 -36 17 -59t59 -55z" />
    <glyph glyph-name="dieresis" unicode="&#xa8;" horiz-adv-x="400" 
d="M210 648q-13 0 -23.5 9t-10.5 25q0 20 13 31.5t28 11.5q14 0 24 -9t10 -24q0 -19 -12.5 -31.5t-28.5 -12.5zM393 648q-13 0 -23 9t-10 25q0 20 13 31.5t28 11.5q14 0 24 -9t10 -24q0 -19 -13 -31.5t-29 -12.5z" />
    <glyph glyph-name="copyright" unicode="&#xa9;" horiz-adv-x="778" 
d="M395 15q69 0 131.5 24t111.5 70.5t77 113t28 150.5q0 90 -36.5 154t-100 98t-145.5 34q-69 0 -131.5 -24.5t-111 -71t-77 -112.5t-28.5 -150q0 -90 36.5 -154t100 -98t145.5 -34zM399 -14q-93 0 -165.5 37t-114 106.5t-41.5 166.5q0 92 31 165t84.5 123.5t121.5 77
t142 26.5q94 0 166 -37t113.5 -106.5t41.5 -167.5q0 -92 -31 -164.5t-84.5 -123t-121.5 -77t-142 -26.5zM419 130q-51 0 -90.5 23.5t-61.5 66t-22 97.5q0 68 29 120t79 81.5t112 29.5q34 0 61.5 -7t54.5 -24l-14 -93h-26l3 81q-31 17 -81 17q-52 0 -91.5 -26.5t-62 -72
t-22.5 -103.5q0 -52 19.5 -88.5t51 -55.5t67.5 -19q34 0 67 14l24 76h26l-17 -90q-27 -13 -51.5 -20t-54.5 -7z" />
    <glyph glyph-name="ordfeminine" unicode="&#xaa;" horiz-adv-x="360" 
d="M156 524q0 -35 13.5 -50.5t34.5 -15.5q25 0 50.5 19t57.5 53l39 180q-18 12 -41 12q-28 0 -55.5 -17t-50 -45.5t-35.5 -63.5t-13 -72zM335 423q-14 0 -23.5 9.5t-9.5 28.5t4 40q-29 -34 -59.5 -56t-61.5 -22q-26 0 -47 19t-21 65q0 42 18.5 85.5t49 80t67 58.5t72.5 22
q25 0 43 -18l22 21l9 -6l-53 -241q-3 -10 -5 -20t-2 -18q0 -7 6 -10.5t13 -3.5q15 0 33.5 14.5t37.5 37.5l13 -10q-20 -30 -47 -53t-59 -23z" />
    <glyph glyph-name="guillemotleft" unicode="&#xab;" horiz-adv-x="547" 
d="M255 49l-185 188l6 31l239 188l15 -21l-205 -182l150 -185zM456 49l-185 188l6 31l239 188l15 -21l-205 -182l150 -185z" />
    <glyph glyph-name="logicalnot" unicode="&#xac;" horiz-adv-x="530" 
d="M59 352v34h441v-214h-38v180h-403z" />
    <glyph glyph-name="registered" unicode="&#xae;" horiz-adv-x="460" 
d="M284 342q49 0 91.5 23t69 66.5t26.5 103.5q0 72 -42.5 112.5t-107.5 40.5q-49 0 -92 -23t-69 -66.5t-26 -103.5q0 -73 42.5 -113t107.5 -40zM284 318q-77 0 -127.5 45.5t-50.5 128.5q0 69 30.5 118.5t79.5 75.5t106 26q77 0 127 -45.5t50 -128.5q0 -69 -30 -118.5
t-79 -75.5t-106 -26zM320 607h-22l-16 -84h21q27 0 40.5 14.5t13.5 34.5q0 17 -8.5 26t-28.5 9zM241 608l3 13h78q29 0 46.5 -12.5t17.5 -37.5q0 -48 -62 -57q20 -5 30 -33l17 -47l28 -2l-3 -13q-8 -1 -13.5 -1.5t-13.5 -0.5q-16 0 -22 4.5t-9 15.5l-15 43q-5 16 -11 22.5
t-18 6.5h-15l-14 -75l26 -2l-3 -13h-83l3 13l26 2l33 172z" />
    <glyph glyph-name="macron" unicode="&#xaf;" horiz-adv-x="400" 
d="M184 624l8 40h228l-8 -40h-228z" />
    <glyph glyph-name="degree" unicode="&#xb0;" horiz-adv-x="319" 
d="M243 475q37 0 62 25.5t25 66.5t-25 67.5t-62 26.5q-36 0 -61.5 -26.5t-25.5 -67.5t25.5 -66.5t61.5 -25.5zM243 447q-48 0 -83 32.5t-35 87.5q0 54 35 87.5t83 33.5t83.5 -33.5t35.5 -87.5q0 -55 -35.5 -87.5t-83.5 -32.5z" />
    <glyph glyph-name="plusminus" unicode="&#xb1;" horiz-adv-x="530" 
d="M490 0h-442v34h442v-34zM251 106v210h-203v35h203v205h37v-205h202v-35h-202v-210h-37z" />
    <glyph glyph-name="two.sups" unicode="&#xb2;" horiz-adv-x="334" 
d="M103 433l6 32q77 69 123.5 114t70.5 74t32.5 49t8.5 39q0 34 -19 53t-56 19q-35 0 -62 -21l-2 -45q-1 -22 -8.5 -31t-18.5 -9q-20 0 -23 22q9 57 44 82t85 25q53 0 79.5 -25.5t26.5 -65.5q0 -24 -11 -46.5t-37.5 -51t-73.5 -69.5t-119 -104h205l-9 -41h-242z" />
    <glyph glyph-name="three.sups" unicode="&#xb3;" horiz-adv-x="334" 
d="M225 424q-47 0 -78 24.5t-30 79.5q7 16 22 16q22 0 23 -31v-50q13 -10 28 -13.5t33 -3.5q40 0 69 24.5t29 73.5q0 39 -25.5 58.5t-81.5 19.5l5 23q55 0 90.5 24.5t35.5 73.5q0 71 -69 71q-32 0 -57 -16l-6 -43q-5 -29 -26 -29q-7 0 -13.5 5t-8.5 14q9 46 40.5 68.5
t79.5 22.5q53 0 78 -26.5t25 -64.5q0 -40 -29 -70t-75 -41q84 -15 84 -93q0 -39 -19.5 -65t-52 -39t-71.5 -13z" />
    <glyph glyph-name="acute" unicode="&#xb4;" horiz-adv-x="400" 
d="M226 550q20 40 44 84.5t41 78.5q20 39 39 39q10 0 18 -5t8 -17q0 -16 -23 -46q-22 -30 -52.5 -70t-57.5 -75z" />
    <glyph glyph-name="mu" unicode="&#x3bc;" horiz-adv-x="533" 
d="M428 -13q-57 0 -57 68q0 9 1 21t5 31q-36 -58 -79.5 -89t-84.5 -31q-34 0 -59 21.5t-36 58.5l-42 -247l-44 -9l-8 6l71 289l68 367l45 10l8 -7q-28 -115 -47 -199.5t-36 -162.5q13 -45 36 -62.5t56 -17.5q41 0 81.5 29t77.5 84q1 4 1.5 8.5t1.5 8.5l62 309l45 10l8 -7
l-62 -260q-16 -58 -22 -92.5t-6 -54.5q0 -23 8.5 -31t23.5 -8q18 0 38 12.5t39 32.5l12 -15q-23 -29 -50.5 -51t-54.5 -22z" />
    <glyph glyph-name="mu" unicode="&#xb5;" horiz-adv-x="533" 
d="M428 -13q-57 0 -57 68q0 9 1 21t5 31q-36 -58 -79.5 -89t-84.5 -31q-34 0 -59 21.5t-36 58.5l-42 -247l-44 -9l-8 6l71 289l68 367l45 10l8 -7q-28 -115 -47 -199.5t-36 -162.5q13 -45 36 -62.5t56 -17.5q41 0 81.5 29t77.5 84q1 4 1.5 8.5t1.5 8.5l62 309l45 10l8 -7
l-62 -260q-16 -58 -22 -92.5t-6 -54.5q0 -23 8.5 -31t23.5 -8q18 0 38 12.5t39 32.5l12 -15q-23 -29 -50.5 -51t-54.5 -22z" />
    <glyph glyph-name="paragraph" unicode="&#xb6;" horiz-adv-x="600" 
d="M447 641l-88 -474q-69 9 -123 35.5t-85.5 75t-31.5 119.5q0 83 39.5 145t119 97t200.5 35h194l-5 -28l-105 -8l-85 -458q-14 -78 -28 -155.5t-26 -154.5h-48l143 771h-71z" />
    <glyph glyph-name="periodcentered" unicode="&#xb7;" horiz-adv-x="294" 
d="M175 286q-19 0 -30 11.5t-11 27.5q0 20 14.5 33.5t34.5 13.5q18 0 28.5 -11.5t10.5 -27.5q0 -21 -13.5 -34t-33.5 -13z" />
    <glyph glyph-name="cedilla" unicode="&#xb8;" horiz-adv-x="400" 
d="M105 -85l43 85h20l-34 -71q43 -15 65.5 -33t22.5 -49t-27 -50.5t-71 -19.5q-48 0 -80 19l8 19q15 -7 31.5 -11t35.5 -4q29 0 47 13.5t18 35.5q0 27 -19 41t-60 25z" />
    <glyph glyph-name="one.sups" unicode="&#xb9;" horiz-adv-x="334" 
d="M336 433h-220l5 19l86 7l69 336l-86 -12l4 21l127 32l7 -6l-20 -89l-58 -281l89 -8z" />
    <glyph glyph-name="ordmasculine" unicode="&#xba;" horiz-adv-x="338" 
d="M232 423q-42 0 -76 28t-34 90q0 54 22.5 102.5t61 79t86.5 30.5q45 0 76.5 -28t31.5 -90q0 -55 -22.5 -103.5t-60.5 -78.5t-85 -30zM236 445q37 0 64.5 28.5t43.5 71.5t16 87q0 53 -20 76t-52 23q-37 0 -66 -28.5t-45 -72t-16 -89.5q0 -51 22 -73.5t53 -22.5z" />
    <glyph glyph-name="guillemotright" unicode="&#xbb;" horiz-adv-x="547" 
d="M325 456l185 -188l-6 -31l-239 -188l-15 21l205 182l-150 185zM124 456l185 -188l-6 -31l-239 -188l-15 21l205 182l-150 185z" />
    <glyph glyph-name="onequarter" unicode="&#xbc;" horiz-adv-x="870" 
d="M242 -13l-23 17l503 661l23 -17zM299 261h-220l5 19l86 7l69 336l-86 -12l4 21l127 32l7 -6l-20 -89l-58 -281l89 -8zM826 108h-72l-25 -120h-39l24 120h-182l6 29l245 263h31l-53 -259h71zM569 141h152l42 207z" />
    <glyph glyph-name="onehalf" unicode="&#xbd;" horiz-adv-x="870" 
d="M222 -13l-23 17l503 661l23 -17zM299 261h-220l5 19l86 7l69 336l-86 -12l4 21l127 32l7 -6l-20 -89l-58 -281l89 -8zM541 0l6 32q77 69 123.5 114t70.5 74t32.5 49t8.5 39q0 34 -19 53t-56 19q-35 0 -62 -21l-2 -45q-1 -22 -8.5 -31t-18.5 -9q-20 0 -23 22q9 57 44 82
t85 25q53 0 79.5 -25.5t26.5 -65.5q0 -24 -11 -46.5t-37.5 -51t-73.5 -69.5t-119 -104h205l-9 -41h-242z" />
    <glyph glyph-name="threequarters" unicode="&#xbe;" horiz-adv-x="870" 
d="M252 -13l-23 17l503 661l23 -17zM188 252q-47 0 -78 24.5t-30 79.5q7 16 22 16q22 0 23 -31v-50q13 -10 28 -13.5t33 -3.5q40 0 69 24.5t29 73.5q0 39 -25.5 58.5t-81.5 19.5l5 23q55 0 90.5 24.5t35.5 73.5q0 71 -69 71q-32 0 -57 -16l-6 -43q-5 -29 -26 -29
q-7 0 -13.5 5t-8.5 14q9 46 40.5 68.5t79.5 22.5q53 0 78 -26.5t25 -64.5q0 -40 -29 -70t-75 -41q84 -15 84 -93q0 -39 -19.5 -65t-52 -39t-71.5 -13zM826 108h-72l-25 -120h-39l24 120h-182l6 29l245 263h31l-53 -259h71zM569 141h152l42 207z" />
    <glyph glyph-name="questiondown" unicode="&#xbf;" horiz-adv-x="408" 
d="M364 444q0 -19 -13.5 -32.5t-32.5 -13.5t-30.5 12.5t-11.5 29.5q0 18 13 31.5t32 13.5t31 -12t12 -29zM323 313q-2 -55 -7 -87.5t-14 -52t-24 -35.5q-13 -13 -38 -32.5t-81 -53.5q-46 -28 -72.5 -50.5t-37.5 -44.5t-11 -50q0 -43 27.5 -68t78.5 -25q17 0 33 1.5t29 5.5
l26 56q13 29 36 29q12 0 18.5 -8t6.5 -19q-9 -36 -48 -64.5t-107 -28.5q-64 0 -104.5 32t-40.5 92q0 41 16 69t48.5 53.5t82.5 55.5q53 32 76.5 49.5t36.5 30.5q12 12 20.5 27t14.5 42.5t9 77.5z" />
    <glyph glyph-name="Agrave" unicode="&#xc0;" horiz-adv-x="661" 
d="M-28 0l6 28l82 9l340 637h35l89 -638l97 -8l-6 -28h-255l6 28l102 8l-28 210h-234l-108 -209l88 -9l-5 -28h-209zM222 276h215l-44 331zM450 743l-12 -16q-30 17 -59.5 35t-58.5 34q-26 16 -37 26t-11 21t8 17t18 6t21 -7t32 -27q24 -21 49 -43.5t50 -45.5z" />
    <glyph glyph-name="Aacute" unicode="&#xc1;" horiz-adv-x="661" 
d="M-28 0l6 28l82 9l340 637h35l89 -638l97 -8l-6 -28h-255l6 28l102 8l-28 210h-234l-108 -209l88 -9l-5 -28h-209zM222 276h215l-44 331zM386 738q29 22 57.5 43.5t55.5 40.5q23 17 34 24t23 6q11 0 18 -7t6 -18q-1 -10 -11 -19.5t-40 -23.5q-65 -30 -133 -62z" />
    <glyph glyph-name="Acircumflex" unicode="&#xc2;" horiz-adv-x="661" 
d="M-28 0l6 28l82 9l340 637h35l89 -638l97 -8l-6 -28h-255l6 28l102 8l-28 210h-234l-108 -209l88 -9l-5 -28h-209zM222 276h215l-44 331zM449 845l119 -115l-16 -16l-120 84l-140 -84l-9 16l144 115h22z" />
    <glyph glyph-name="Atilde" unicode="&#xc3;" horiz-adv-x="661" 
d="M-28 0l6 28l82 9l340 637h35l89 -638l97 -8l-6 -28h-255l6 28l102 8l-28 210h-234l-108 -209l88 -9l-5 -28h-209zM222 276h215l-44 331zM260 746q17 50 44.5 78t67.5 28q29 0 46 -11t32 -28q17 -16 30.5 -29t35.5 -13q24 0 44 18t38 58l20 -7q-17 -49 -44.5 -77.5
t-67.5 -28.5q-30 0 -46.5 11.5t-32.5 27.5q-16 17 -29 30t-35 13q-48 0 -83 -77z" />
    <glyph glyph-name="Adieresis" unicode="&#xc4;" horiz-adv-x="661" 
d="M-28 0l6 28l82 9l340 637h35l89 -638l97 -8l-6 -28h-255l6 28l102 8l-28 210h-234l-108 -209l88 -9l-5 -28h-209zM222 276h215l-44 331zM313 753q-14 0 -24.5 9t-10.5 26q0 20 13.5 32t29.5 12q15 0 25 -9.5t10 -24.5q0 -20 -13 -32.5t-30 -12.5zM517 753q-13 0 -23.5 9
t-10.5 26q0 20 13.5 32t29.5 12q15 0 24.5 -9.5t9.5 -24.5q0 -20 -13 -32.5t-30 -12.5z" />
    <glyph glyph-name="Aring" unicode="&#xc5;" horiz-adv-x="661" 
d="M-28 0l6 28l82 9l340 637h35l89 -638l97 -8l-6 -28h-255l6 28l102 8l-28 210h-234l-108 -209l88 -9l-5 -28h-209zM222 276h215l-44 331zM425 718q-35 0 -58 21.5t-23 56.5q0 30 14.5 51.5t37 32.5t45.5 11q35 0 57.5 -20.5t22.5 -55.5q0 -46 -30.5 -71.5t-65.5 -25.5z
M427 743q27 0 45 21t18 48q0 22 -12.5 38t-37.5 16q-26 0 -45.5 -20t-19.5 -48q0 -22 13.5 -38.5t38.5 -16.5z" />
    <glyph glyph-name="AE" unicode="&#xc6;" horiz-adv-x="888" 
d="M529 636h-1l-256 -360h201l16 86q13 68 25 137t22 137h-7zM-31 0l5 28l87 9l433 602l-92 7l6 28h492l-21 -163h-35l5 130h-257l-53 -283h180l30 96h29l-43 -224h-28l7 96h-181l-3 -14q-13 -70 -25.5 -139.5t-23.5 -139.5h293l43 130h35l-39 -163h-489l5 28l98 8l40 210
h-217l-149 -210l82 -8l-6 -28h-208z" />
    <glyph glyph-name="Ccedilla" unicode="&#xc7;" horiz-adv-x="598" 
d="M344 -15q-86 0 -149.5 36t-98 102.5t-34.5 156.5q0 89 29 163.5t81 129.5t120.5 85.5t146.5 30.5q50 0 92.5 -12t85.5 -41l-23 -139h-37l5 129q-51 30 -130 30q-68 0 -125.5 -28.5t-99.5 -79t-65.5 -118.5t-23.5 -148q0 -87 31.5 -145.5t86 -88.5t122.5 -30q63 0 123 26
l42 132h38l-29 -145q-46 -23 -89.5 -34.5t-98.5 -11.5zM289 -85l43 85h20l-34 -71q43 -15 65.5 -33t22.5 -49t-27 -50.5t-71 -19.5q-48 0 -80 19l8 19q15 -7 31.5 -11t35.5 -4q29 0 47 13.5t18 35.5q0 27 -19 41t-60 25z" />
    <glyph glyph-name="Egrave" unicode="&#xc8;" horiz-adv-x="577" 
d="M124 646l5 28h460l-21 -163h-35l5 130h-257l-53 -283h180l30 96h29l-43 -224h-28l7 96h-181l-3 -14q-13 -70 -25.5 -139.5t-23.5 -139.5h293l43 130h35l-39 -163h-489l6 28l97 8l62 326q13 69 25 138t22 138zM429 743l-12 -16q-30 17 -59.5 35t-58.5 34q-26 16 -37 26
t-11 21t8 17t18 6t21 -7t32 -27q24 -21 49 -43.5t50 -45.5z" />
    <glyph glyph-name="Eacute" unicode="&#xc9;" horiz-adv-x="577" 
d="M124 646l5 28h460l-21 -163h-35l5 130h-257l-53 -283h180l30 96h29l-43 -224h-28l7 96h-181l-3 -14q-13 -70 -25.5 -139.5t-23.5 -139.5h293l43 130h35l-39 -163h-489l6 28l97 8l62 326q13 69 25 138t22 138zM360 738q29 22 57.5 43.5t55.5 40.5q23 17 34 24t23 6
q11 0 18 -7t6 -18q-1 -10 -11 -19.5t-40 -23.5q-65 -30 -133 -62z" />
    <glyph glyph-name="Ecircumflex" unicode="&#xca;" horiz-adv-x="577" 
d="M124 646l5 28h460l-21 -163h-35l5 130h-257l-53 -283h180l30 96h29l-43 -224h-28l7 96h-181l-3 -14q-13 -70 -25.5 -139.5t-23.5 -139.5h293l43 130h35l-39 -163h-489l6 28l97 8l62 326q13 69 25 138t22 138zM421 847l119 -115l-16 -16l-120 84l-140 -84l-9 16l144 115
h22z" />
    <glyph glyph-name="Edieresis" unicode="&#xcb;" horiz-adv-x="577" 
d="M124 646l5 28h460l-21 -163h-35l5 130h-257l-53 -283h180l30 96h29l-43 -224h-28l7 96h-181l-3 -14q-13 -70 -25.5 -139.5t-23.5 -139.5h293l43 130h35l-39 -163h-489l6 28l97 8l62 326q13 69 25 138t22 138zM299 753q-14 0 -24.5 9t-10.5 26q0 20 13.5 32t29.5 12
q15 0 25 -9.5t10 -24.5q0 -20 -13 -32.5t-30 -12.5zM503 753q-13 0 -23.5 9t-10.5 26q0 20 13.5 32t29.5 12q15 0 24.5 -9.5t9.5 -24.5q0 -20 -13 -32.5t-30 -12.5z" />
    <glyph glyph-name="Igrave" unicode="&#xcc;" horiz-adv-x="343" 
d="M124 646l5 28h255l-6 -28l-98 -8l-61 -326q-13 -69 -25 -138t-23 -137l102 -9l-5 -28h-255l6 28l97 8l62 326q13 69 25 138t22 138zM299 743l-12 -16q-30 17 -59.5 35t-58.5 34q-26 16 -37 26t-11 21t8 17t18 6t21 -7t32 -27q24 -21 49 -43.5t50 -45.5z" />
    <glyph glyph-name="Iacute" unicode="&#xcd;" horiz-adv-x="343" 
d="M124 646l5 28h255l-6 -28l-98 -8l-61 -326q-13 -69 -25 -138t-23 -137l102 -9l-5 -28h-255l6 28l97 8l62 326q13 69 25 138t22 138zM222 738q29 22 57.5 43.5t55.5 40.5q23 17 34 24t23 6q11 0 18 -7t6 -18q-1 -10 -11 -19.5t-40 -23.5q-65 -30 -133 -62z" />
    <glyph glyph-name="Icircumflex" unicode="&#xce;" horiz-adv-x="343" 
d="M124 646l5 28h255l-6 -28l-98 -8l-61 -326q-13 -69 -25 -138t-23 -137l102 -9l-5 -28h-255l6 28l97 8l62 326q13 69 25 138t22 138zM294 850l119 -115l-16 -16l-120 84l-140 -84l-9 16l144 115h22z" />
    <glyph glyph-name="Idieresis" unicode="&#xcf;" horiz-adv-x="343" 
d="M185 753q-13 0 -23.5 9t-10.5 26q0 20 13 32t29 12q15 0 25 -9.5t10 -24.5q0 -20 -13 -32.5t-30 -12.5zM356 753q-13 0 -23.5 9t-10.5 26q0 20 13 32t29 12q15 0 25 -9.5t10 -24.5q0 -20 -13 -32.5t-30 -12.5zM124 646l5 28h255l-6 -28l-98 -8l-61 -326q-13 -69 -25 -138
t-23 -137l102 -9l-5 -28h-255l6 28l97 8l62 326q13 69 25 138t22 138z" />
    <glyph glyph-name="Eth" unicode="&#xd0;" horiz-adv-x="681" 
d="M124 646l5 28h237q143 0 222 -73.5t79 -207.5q0 -120 -51 -208.5t-141 -136.5t-207 -48h-255l6 28l97 8l56 293h-115l6 32h115v1q13 69 25 138t22 138zM402 329h-180l-3 -17q-13 -70 -25.5 -140t-23.5 -140h99q86 0 150 29t106.5 79t63.5 115.5t21 137.5
q1 122 -66.5 185.5t-194.5 63.5h-68l-53 -281h179z" />
    <glyph glyph-name="Ntilde" unicode="&#xd1;" horiz-adv-x="727" 
d="M551 646l6 28h231l-5 -28l-85 -9l-121 -647h-25l-308 596l-103 -549l110 -9l-5 -28h-232l5 28l88 9l113 596l-3 6l-95 7l5 28h135l299 -587l103 550zM305 746q17 50 44.5 78t67.5 28q29 0 46 -11t32 -28q17 -16 30.5 -29t35.5 -13q24 0 44 18t38 58l20 -7
q-17 -49 -44.5 -77.5t-67.5 -28.5q-30 0 -46.5 11.5t-32.5 27.5q-16 17 -29 30t-35 13q-48 0 -83 -77z" />
    <glyph glyph-name="Ograve" unicode="&#xd2;" horiz-adv-x="656" 
d="M304 -15q-76 0 -129.5 35t-81.5 97t-28 142q0 90 26 168t73 137t109.5 92t134.5 33q79 0 132 -35t80.5 -97t27.5 -143q0 -90 -25.5 -168t-72 -136.5t-109.5 -91.5t-137 -33zM312 19q60 0 111 29.5t89.5 82.5t59.5 123.5t21 152.5q0 112 -45.5 180t-146.5 68
q-61 0 -112.5 -31t-89 -85t-58.5 -124.5t-21 -148.5q0 -71 20.5 -127t63 -88t108.5 -32zM458 743l-12 -16q-30 17 -59.5 35t-58.5 34q-26 16 -37 26t-11 21t8 17t18 6t21 -7t32 -27q24 -21 49 -43.5t50 -45.5z" />
    <glyph glyph-name="Oacute" unicode="&#xd3;" horiz-adv-x="656" 
d="M304 -15q-76 0 -129.5 35t-81.5 97t-28 142q0 90 26 168t73 137t109.5 92t134.5 33q79 0 132 -35t80.5 -97t27.5 -143q0 -90 -25.5 -168t-72 -136.5t-109.5 -91.5t-137 -33zM312 19q60 0 111 29.5t89.5 82.5t59.5 123.5t21 152.5q0 112 -45.5 180t-146.5 68
q-61 0 -112.5 -31t-89 -85t-58.5 -124.5t-21 -148.5q0 -71 20.5 -127t63 -88t108.5 -32zM402 738q29 22 57.5 43.5t55.5 40.5q23 17 34 24t23 6q11 0 18 -7t6 -18q-1 -10 -11 -19.5t-40 -23.5q-65 -30 -133 -62z" />
    <glyph glyph-name="Ocircumflex" unicode="&#xd4;" horiz-adv-x="656" 
d="M304 -15q-76 0 -129.5 35t-81.5 97t-28 142q0 90 26 168t73 137t109.5 92t134.5 33q79 0 132 -35t80.5 -97t27.5 -143q0 -90 -25.5 -168t-72 -136.5t-109.5 -91.5t-137 -33zM312 19q60 0 111 29.5t89.5 82.5t59.5 123.5t21 152.5q0 112 -45.5 180t-146.5 68
q-61 0 -112.5 -31t-89 -85t-58.5 -124.5t-21 -148.5q0 -71 20.5 -127t63 -88t108.5 -32zM444 850l119 -115l-16 -16l-120 84l-140 -84l-9 16l144 115h22z" />
    <glyph glyph-name="Otilde" unicode="&#xd5;" horiz-adv-x="656" 
d="M304 -15q-76 0 -129.5 35t-81.5 97t-28 142q0 90 26 168t73 137t109.5 92t134.5 33q79 0 132 -35t80.5 -97t27.5 -143q0 -90 -25.5 -168t-72 -136.5t-109.5 -91.5t-137 -33zM312 19q60 0 111 29.5t89.5 82.5t59.5 123.5t21 152.5q0 112 -45.5 180t-146.5 68
q-61 0 -112.5 -31t-89 -85t-58.5 -124.5t-21 -148.5q0 -71 20.5 -127t63 -88t108.5 -32zM259 746q17 50 44.5 78t67.5 28q29 0 46 -11t32 -28q17 -16 30.5 -29t35.5 -13q24 0 44 18t38 58l20 -7q-17 -49 -44.5 -77.5t-67.5 -28.5q-30 0 -46.5 11.5t-32.5 27.5q-16 17 -29 30
t-35 13q-48 0 -83 -77z" />
    <glyph glyph-name="Odieresis" unicode="&#xd6;" horiz-adv-x="656" 
d="M304 -15q-76 0 -129.5 35t-81.5 97t-28 142q0 90 26 168t73 137t109.5 92t134.5 33q79 0 132 -35t80.5 -97t27.5 -143q0 -90 -25.5 -168t-72 -136.5t-109.5 -91.5t-137 -33zM312 19q60 0 111 29.5t89.5 82.5t59.5 123.5t21 152.5q0 112 -45.5 180t-146.5 68
q-61 0 -112.5 -31t-89 -85t-58.5 -124.5t-21 -148.5q0 -71 20.5 -127t63 -88t108.5 -32zM316 753q-14 0 -24.5 9t-10.5 26q0 20 13.5 32t29.5 12q15 0 25 -9.5t10 -24.5q0 -20 -13 -32.5t-30 -12.5zM520 753q-13 0 -23.5 9t-10.5 26q0 20 13.5 32t29.5 12q15 0 24.5 -9.5
t9.5 -24.5q0 -20 -13 -32.5t-30 -12.5z" />
    <glyph glyph-name="multiply" unicode="&#xd7;" horiz-adv-x="530" 
d="M465 133l-175 175l-176 -175l-25 25l175 176l-175 175l25 25l176 -176l175 176l25 -25l-176 -175l176 -176z" />
    <glyph glyph-name="Oslash" unicode="&#xd8;" horiz-adv-x="656" 
d="M696 671l-88 -91q20 -34 30 -76t10 -90q0 -90 -26 -168t-73 -136.5t-110 -91.5t-136 -33q-61 0 -107 23t-77 64l-87 -90l-24 23l93 96q-36 66 -36 158q0 90 26.5 168t74 137t110 92t133.5 33q60 0 105 -21t75 -59l82 85zM118 269q0 -77 18 -131l423 440q-44 78 -156 78
q-61 0 -113 -31t-90.5 -85t-60 -124t-21.5 -147zM310 18q60 0 111.5 30t90 82.5t60.5 123t22 151.5q0 42 -4.5 77t-15.5 63l-424 -440q47 -87 160 -87z" />
    <glyph glyph-name="Ugrave" unicode="&#xd9;" horiz-adv-x="720" 
d="M534 646l6 28h238l-6 -28l-92 -9l-72 -380q-27 -145 -93.5 -208.5t-180.5 -63.5q-93 0 -147 46t-54 137q0 21 3.5 45.5t7.5 49.5l18 98q14 69 26 138.5t24 138.5l-97 8l5 28h249l-6 -28l-99 -8l-69 -373q-4 -22 -7 -44t-3 -48q-1 -72 44 -108t112 -36q69 0 114 22
t74.5 77.5t48.5 154.5l67 354zM499 743l-12 -16q-30 17 -59.5 35t-58.5 34q-26 16 -37 26t-11 21t8 17t18 6t21 -7t32 -27q24 -21 49 -43.5t50 -45.5z" />
    <glyph glyph-name="Uacute" unicode="&#xda;" horiz-adv-x="720" 
d="M534 646l6 28h238l-6 -28l-92 -9l-72 -380q-27 -145 -93.5 -208.5t-180.5 -63.5q-93 0 -147 46t-54 137q0 21 3.5 45.5t7.5 49.5l18 98q14 69 26 138.5t24 138.5l-97 8l5 28h249l-6 -28l-99 -8l-69 -373q-4 -22 -7 -44t-3 -48q-1 -72 44 -108t112 -36q69 0 114 22
t74.5 77.5t48.5 154.5l67 354zM441 738q29 22 57.5 43.5t55.5 40.5q23 17 34 24t23 6q11 0 18 -7t6 -18q-1 -10 -11 -19.5t-40 -23.5q-65 -30 -133 -62z" />
    <glyph glyph-name="Ucircumflex" unicode="&#xdb;" horiz-adv-x="720" 
d="M534 646l6 28h238l-6 -28l-92 -9l-72 -380q-27 -145 -93.5 -208.5t-180.5 -63.5q-93 0 -147 46t-54 137q0 21 3.5 45.5t7.5 49.5l18 98q14 69 26 138.5t24 138.5l-97 8l5 28h249l-6 -28l-99 -8l-69 -373q-4 -22 -7 -44t-3 -48q-1 -72 44 -108t112 -36q69 0 114 22
t74.5 77.5t48.5 154.5l67 354zM501 850l119 -115l-16 -16l-120 84l-140 -84l-9 16l144 115h22z" />
    <glyph glyph-name="Udieresis" unicode="&#xdc;" horiz-adv-x="720" 
d="M534 646l6 28h238l-6 -28l-92 -9l-72 -380q-27 -145 -93.5 -208.5t-180.5 -63.5q-93 0 -147 46t-54 137q0 21 3.5 45.5t7.5 49.5l18 98q14 69 26 138.5t24 138.5l-97 8l5 28h249l-6 -28l-99 -8l-69 -373q-4 -22 -7 -44t-3 -48q-1 -72 44 -108t112 -36q69 0 114 22
t74.5 77.5t48.5 154.5l67 354zM370 753q-14 0 -24.5 9t-10.5 26q0 20 13.5 32t29.5 12q15 0 25 -9.5t10 -24.5q0 -20 -13 -32.5t-30 -12.5zM574 753q-13 0 -23.5 9t-10.5 26q0 20 13.5 32t29.5 12q15 0 24.5 -9.5t9.5 -24.5q0 -20 -13 -32.5t-30 -12.5z" />
    <glyph glyph-name="Yacute" unicode="&#xdd;" horiz-adv-x="556" 
d="M65 646l6 28h239l-5 -28l-101 -8l114 -329l219 328l-99 9l5 28h224l-6 -28l-88 -9l-246 -362q-11 -59 -22 -119t-22 -119l112 -9l-6 -28h-275l6 28l111 8l44 238l-129 364zM351 735q29 22 57.5 43.5t55.5 40.5q23 17 34 24t23 6q11 0 18 -7t6 -18q-1 -10 -11 -19.5
t-40 -23.5q-65 -30 -133 -62z" />
    <glyph glyph-name="Thorn" unicode="&#xde;" horiz-adv-x="560" 
d="M219 312q-5 -31 -11 -61t-11 -61h86q79 0 127.5 23.5t71.5 64.5t23 92q0 65 -43 99t-136 34h-71zM124 646l5 28h255l-6 -28l-98 -8l-19 -103h74q113 0 168.5 -44t55.5 -121q0 -61 -32 -108.5t-93 -74.5t-149 -27h-93q-12 -61 -21 -123l102 -9l-5 -28h-255l6 28l97 8
l62 326q13 69 25 138t22 138z" />
    <glyph glyph-name="germandbls" unicode="&#xdf;" horiz-adv-x="507" 
d="M105 39q19 115 36 227t35 229q11 70 38 129t73.5 95t114.5 36q62 0 94 -30.5t32 -77.5q0 -43 -27.5 -81t-82.5 -82q-43 -34 -63.5 -61.5t-20.5 -65.5q0 -33 15.5 -55t50.5 -48q50 -37 69.5 -65.5t19.5 -67.5q0 -62 -44.5 -98t-112.5 -36q-55 0 -84.5 21.5t-40.5 67.5
q2 10 9 16.5t17 6.5q25 0 32 -27l15 -52q20 -7 46 -7q56 0 88.5 28t32.5 71q0 29 -16 53.5t-59 54.5q-77 53 -77 124q0 51 28.5 85t76.5 75q50 44 68.5 74t18.5 64q0 41 -24 64.5t-66 23.5q-55 0 -90.5 -32t-55.5 -85.5t-31 -117.5q-19 -112 -36.5 -227.5t-38.5 -228.5
q-15 -85 -33 -142.5t-59 -97.5q-29 -29 -54.5 -40.5t-53.5 -11.5q-29 0 -53 16t-31 38q2 13 10.5 20t19.5 7q14 0 25 -7.5t22 -18.5l29 -28q37 11 68 51q26 33 41 81t29 133z" />
    <glyph glyph-name="agrave" unicode="&#xe0;" horiz-adv-x="517" 
d="M101 132q0 -55 20 -78.5t51 -23.5q39 0 78.5 31.5t90.5 91.5l58 271q-28 20 -60 20q-35 0 -70.5 -18t-66.5 -49q-45 -46 -73 -111.5t-28 -133.5zM369 -13q-19 0 -33 12.5t-14 37.5q0 19 2.5 34.5t7.5 38.5l1 5q-43 -55 -89 -91.5t-93 -36.5q-37 0 -67.5 28t-30.5 96
q0 51 18 103.5t48.5 101t69.5 86.5t82 60.5t85 22.5q35 0 60 -27l29 31l12 -8l-80 -367q-4 -16 -7 -32.5t-3 -29.5q0 -12 8 -17t19 -5q24 0 53 23t56 59l17 -13q-30 -45 -68.5 -78.5t-82.5 -33.5zM387 550l-17 -11q-27 35 -57 75t-53 70t-23 47q0 11 8 16.5t18 5.5
q11 0 20 -10t19 -30q17 -34 41 -78.5t44 -84.5z" />
    <glyph glyph-name="aacute" unicode="&#xe1;" horiz-adv-x="517" 
d="M101 132q0 -55 20 -78.5t51 -23.5q39 0 78.5 31.5t90.5 91.5l58 271q-28 20 -60 20q-35 0 -70.5 -18t-66.5 -49q-45 -46 -73 -111.5t-28 -133.5zM369 -13q-19 0 -33 12.5t-14 37.5q0 19 2.5 34.5t7.5 38.5l1 5q-43 -55 -89 -91.5t-93 -36.5q-37 0 -67.5 28t-30.5 96
q0 51 18 103.5t48.5 101t69.5 86.5t82 60.5t85 22.5q35 0 60 -27l29 31l12 -8l-80 -367q-4 -16 -7 -32.5t-3 -29.5q0 -12 8 -17t19 -5q24 0 53 23t56 59l17 -13q-30 -45 -68.5 -78.5t-82.5 -33.5zM346 550q20 40 44 84.5t41 78.5q20 39 39 39q10 0 18 -5t8 -17
q0 -16 -23 -46q-22 -30 -52.5 -70t-57.5 -75z" />
    <glyph glyph-name="acircumflex" unicode="&#xe2;" horiz-adv-x="517" 
d="M101 132q0 -55 20 -78.5t51 -23.5q39 0 78.5 31.5t90.5 91.5l58 271q-28 20 -60 20q-35 0 -70.5 -18t-66.5 -49q-45 -46 -73 -111.5t-28 -133.5zM369 -13q-19 0 -33 12.5t-14 37.5q0 19 2.5 34.5t7.5 38.5l1 5q-43 -55 -89 -91.5t-93 -36.5q-37 0 -67.5 28t-30.5 96
q0 51 18 103.5t48.5 101t69.5 86.5t82 60.5t85 22.5q35 0 60 -27l29 31l12 -8l-80 -367q-4 -16 -7 -32.5t-3 -29.5q0 -12 8 -17t19 -5q24 0 53 23t56 59l17 -13q-30 -45 -68.5 -78.5t-82.5 -33.5zM473 550l-91 135l-137 -135l-13 14l149 177h22l88 -177z" />
    <glyph glyph-name="atilde" unicode="&#xe3;" horiz-adv-x="517" 
d="M101 132q0 -55 20 -78.5t51 -23.5q39 0 78.5 31.5t90.5 91.5l58 271q-28 20 -60 20q-35 0 -70.5 -18t-66.5 -49q-45 -46 -73 -111.5t-28 -133.5zM369 -13q-19 0 -33 12.5t-14 37.5q0 19 2.5 34.5t7.5 38.5l1 5q-43 -55 -89 -91.5t-93 -36.5q-37 0 -67.5 28t-30.5 96
q0 51 18 103.5t48.5 101t69.5 86.5t82 60.5t85 22.5q35 0 60 -27l29 31l12 -8l-80 -367q-4 -16 -7 -32.5t-3 -29.5q0 -12 8 -17t19 -5q24 0 53 23t56 59l17 -13q-30 -45 -68.5 -78.5t-82.5 -33.5zM208 596q13 54 39 79.5t59 25.5q25 0 41 -11.5t33 -30.5q20 -20 33.5 -31.5
t32.5 -11.5q18 0 36.5 18.5t33.5 59.5l18 -8q-16 -52 -40.5 -78t-55.5 -26q-23 0 -39.5 11.5t-35.5 30.5q-19 20 -33.5 31.5t-32.5 11.5q-21 0 -39.5 -18t-32.5 -60z" />
    <glyph glyph-name="adieresis" unicode="&#xe4;" horiz-adv-x="517" 
d="M101 132q0 -55 20 -78.5t51 -23.5q39 0 78.5 31.5t90.5 91.5l58 271q-28 20 -60 20q-35 0 -70.5 -18t-66.5 -49q-45 -46 -73 -111.5t-28 -133.5zM369 -13q-19 0 -33 12.5t-14 37.5q0 19 2.5 34.5t7.5 38.5l1 5q-43 -55 -89 -91.5t-93 -36.5q-37 0 -67.5 28t-30.5 96
q0 51 18 103.5t48.5 101t69.5 86.5t82 60.5t85 22.5q35 0 60 -27l29 31l12 -8l-80 -367q-4 -16 -7 -32.5t-3 -29.5q0 -12 8 -17t19 -5q24 0 53 23t56 59l17 -13q-30 -45 -68.5 -78.5t-82.5 -33.5zM281 645q-13 0 -23.5 9t-10.5 25q0 20 13 31.5t28 11.5q14 0 24 -9t10 -24
q0 -19 -12.5 -31.5t-28.5 -12.5zM464 645q-13 0 -23 9t-10 25q0 20 13 31.5t28 11.5q14 0 24 -9t10 -24q0 -19 -13 -31.5t-29 -12.5z" />
    <glyph glyph-name="aring" unicode="&#xe5;" horiz-adv-x="517" 
d="M101 132q0 -55 20 -78.5t51 -23.5q39 0 78.5 31.5t90.5 91.5l58 271q-28 20 -60 20q-35 0 -70.5 -18t-66.5 -49q-45 -46 -73 -111.5t-28 -133.5zM369 -13q-19 0 -33 12.5t-14 37.5q0 19 2.5 34.5t7.5 38.5l1 5q-43 -55 -89 -91.5t-93 -36.5q-37 0 -67.5 28t-30.5 96
q0 51 18 103.5t48.5 101t69.5 86.5t82 60.5t85 22.5q35 0 60 -27l29 31l12 -8l-80 -367q-4 -16 -7 -32.5t-3 -29.5q0 -12 8 -17t19 -5q24 0 53 23t56 59l17 -13q-30 -45 -68.5 -78.5t-82.5 -33.5zM376 559q-37 0 -61.5 23t-24.5 60q0 33 15.5 55.5t39 34.5t48.5 12
q35 0 60.5 -22.5t25.5 -59.5q0 -33 -15.5 -56t-39 -35t-48.5 -12zM377 586q29 0 49 21.5t20 52.5q0 23 -14 40.5t-40 17.5q-31 0 -50 -22.5t-19 -51.5q0 -22 13.5 -40t40.5 -18z" />
    <glyph glyph-name="ae" unicode="&#xe6;" horiz-adv-x="674" 
d="M101 132q0 -55 20 -78.5t51 -23.5q38 0 76 25t84 75q-1 8 -1.5 17t-0.5 19q0 69 27.5 134.5t73.5 111.5q-39 32 -92 32q-35 0 -70.5 -18t-66.5 -49q-45 -46 -73 -111.5t-28 -133.5zM576 456q-33 0 -67.5 -21.5t-63.5 -58.5t-48.5 -83t-22.5 -95q134 38 200 91t66 108
q0 29 -17.5 44t-46.5 15zM475 -13q-48 0 -86.5 28t-52.5 91q-43 -52 -90.5 -85.5t-94.5 -33.5q-37 0 -67.5 28t-30.5 96q0 51 18 103.5t48.5 101t69.5 86.5t82 60.5t85 22.5q33 0 58.5 -12.5t44.5 -35.5q29 23 62 35.5t67 12.5q41 0 67 -20.5t26 -61.5q0 -62 -74.5 -124.5
t-233.5 -106.5q2 -73 33.5 -107.5t83.5 -34.5q45 0 79.5 23t61.5 58l16 -12q-32 -49 -75 -80.5t-97 -31.5z" />
    <glyph glyph-name="ccedilla" unicode="&#xe7;" horiz-adv-x="407" 
d="M208 -13q-39 0 -72 19t-53 58.5t-20 100.5q0 63 22 121t58.5 102.5t82 70.5t92.5 26q39 0 65.5 -20t33.5 -44q-1 -12 -9.5 -18t-17.5 -6q-10 0 -19.5 6t-21.5 18l-38 40q-42 -7 -79 -33.5t-64.5 -67t-43 -88.5t-15.5 -97q0 -73 32 -109t87 -36q42 0 76 23t60 58l16 -12
q-31 -50 -75 -81t-97 -31zM162 -85l43 85h20l-34 -71q43 -15 65.5 -33t22.5 -49t-27 -50.5t-71 -19.5q-48 0 -80 19l8 19q15 -7 31.5 -11t35.5 -4q29 0 47 13.5t18 35.5q0 27 -19 41t-60 25z" />
    <glyph glyph-name="egrave" unicode="&#xe8;" horiz-adv-x="407" 
d="M309 456q-33 0 -67.5 -21.5t-63.5 -58.5t-48.5 -83t-22.5 -95q134 38 200 91t66 108q0 29 -17.5 44t-46.5 15zM208 -13q-39 0 -72 18t-53 57.5t-20 103.5q0 60 21 116.5t57 102.5t82.5 73t97.5 27q41 0 67 -20.5t26 -61.5q0 -62 -74.5 -124.5t-233.5 -106.5
q2 -73 33.5 -107.5t83.5 -34.5q45 0 79.5 23t61.5 58l16 -12q-32 -49 -75 -80.5t-97 -31.5zM348 550l-17 -11q-27 35 -57 75t-53 70t-23 47q0 11 8 16.5t18 5.5q11 0 20 -10t19 -30q17 -34 41 -78.5t44 -84.5z" />
    <glyph glyph-name="eacute" unicode="&#xe9;" horiz-adv-x="407" 
d="M309 456q-33 0 -67.5 -21.5t-63.5 -58.5t-48.5 -83t-22.5 -95q134 38 200 91t66 108q0 29 -17.5 44t-46.5 15zM208 -13q-39 0 -72 18t-53 57.5t-20 103.5q0 60 21 116.5t57 102.5t82.5 73t97.5 27q41 0 67 -20.5t26 -61.5q0 -62 -74.5 -124.5t-233.5 -106.5
q2 -73 33.5 -107.5t83.5 -34.5q45 0 79.5 23t61.5 58l16 -12q-32 -49 -75 -80.5t-97 -31.5zM312 550q20 40 44 84.5t41 78.5q20 39 39 39q10 0 18 -5t8 -17q0 -16 -23 -46q-22 -30 -52.5 -70t-57.5 -75z" />
    <glyph glyph-name="ecircumflex" unicode="&#xea;" horiz-adv-x="407" 
d="M309 456q-33 0 -67.5 -21.5t-63.5 -58.5t-48.5 -83t-22.5 -95q134 38 200 91t66 108q0 29 -17.5 44t-46.5 15zM208 -13q-39 0 -72 18t-53 57.5t-20 103.5q0 60 21 116.5t57 102.5t82.5 73t97.5 27q41 0 67 -20.5t26 -61.5q0 -62 -74.5 -124.5t-233.5 -106.5
q2 -73 33.5 -107.5t83.5 -34.5q45 0 79.5 23t61.5 58l16 -12q-32 -49 -75 -80.5t-97 -31.5zM435 550l-91 135l-137 -135l-13 14l149 177h22l88 -177z" />
    <glyph glyph-name="edieresis" unicode="&#xeb;" horiz-adv-x="407" 
d="M309 456q-33 0 -67.5 -21.5t-63.5 -58.5t-48.5 -83t-22.5 -95q134 38 200 91t66 108q0 29 -17.5 44t-46.5 15zM208 -13q-39 0 -72 18t-53 57.5t-20 103.5q0 60 21 116.5t57 102.5t82.5 73t97.5 27q41 0 67 -20.5t26 -61.5q0 -62 -74.5 -124.5t-233.5 -106.5
q2 -73 33.5 -107.5t83.5 -34.5q45 0 79.5 23t61.5 58l16 -12q-32 -49 -75 -80.5t-97 -31.5zM254 648q-13 0 -23.5 9t-10.5 25q0 20 13 31.5t28 11.5q14 0 24 -9t10 -24q0 -19 -12.5 -31.5t-28.5 -12.5zM437 648q-13 0 -23 9t-10 25q0 20 13 31.5t28 11.5q14 0 24 -9t10 -24
q0 -19 -13 -31.5t-29 -12.5z" />
    <glyph glyph-name="igrave" unicode="&#xec;" horiz-adv-x="294" 
d="M95 32q0 16 3 30.5t8 40.5l70 328l-114 4l3 20l152 30l13 -10l-77 -361q-4 -16 -7 -32.5t-3 -27.5q0 -24 26 -24q23 0 50.5 21.5t58.5 59.5l15 -12q-32 -45 -68.5 -78.5t-82.5 -33.5q-19 0 -33 12t-14 33zM225 550l-17 -11q-27 35 -57 75t-53 70t-23 47q0 11 8 16.5
t18 5.5q11 0 20 -10t19 -30q17 -34 41 -78.5t44 -84.5z" />
    <glyph glyph-name="iacute" unicode="&#xed;" horiz-adv-x="294" 
d="M95 32q0 16 3 30.5t8 40.5l70 328l-114 4l3 20l152 30l13 -10l-77 -361q-4 -16 -7 -32.5t-3 -27.5q0 -24 26 -24q23 0 50.5 21.5t58.5 59.5l15 -12q-32 -45 -68.5 -78.5t-82.5 -33.5q-19 0 -33 12t-14 33zM214 550q20 40 44 84.5t41 78.5q20 39 39 39q10 0 18 -5t8 -17
q0 -16 -23 -46q-22 -30 -52.5 -70t-57.5 -75z" />
    <glyph glyph-name="icircumflex" unicode="&#xee;" horiz-adv-x="294" 
d="M95 32q0 16 3 30.5t8 40.5l70 328l-114 4l3 20l152 30l13 -10l-77 -361q-4 -16 -7 -32.5t-3 -27.5q0 -24 26 -24q23 0 50.5 21.5t58.5 59.5l15 -12q-32 -45 -68.5 -78.5t-82.5 -33.5q-19 0 -33 12t-14 33zM325 550l-91 135l-137 -135l-13 14l149 177h22l88 -177z" />
    <glyph glyph-name="idieresis" unicode="&#xef;" horiz-adv-x="294" 
d="M157 648q-13 0 -23.5 9t-10.5 25q0 20 13 31.5t28 11.5q14 0 24 -9t10 -24q0 -19 -12.5 -31.5t-28.5 -12.5zM316 648q-13 0 -23 9t-10 25q0 20 13 31.5t28 11.5q14 0 24 -9t10 -24q0 -19 -13 -31.5t-29 -12.5zM95 32q0 16 3 30.5t8 40.5l70 328l-114 4l3 20l152 30
l13 -10l-77 -361q-4 -16 -7 -32.5t-3 -27.5q0 -24 26 -24q23 0 50.5 21.5t58.5 59.5l15 -12q-32 -45 -68.5 -78.5t-82.5 -33.5q-19 0 -33 12t-14 33z" />
    <glyph glyph-name="eth" unicode="&#xf0;" horiz-adv-x="476" 
d="M213 -13q-41 0 -77 19t-58 58t-22 100q0 62 19.5 119t54 102t79.5 71.5t95 26.5q69 0 108 -57q-8 58 -28.5 108.5t-54.5 93.5l-135 -78l-12 22l131 75q-21 25 -47 46t-57 40l16 21q34 -18 63.5 -40.5t53.5 -49.5l127 73l12 -22l-122 -70q49 -61 74.5 -141t25.5 -175
q0 -75 -20 -137.5t-54.5 -108.5t-78.5 -71t-93 -25zM217 15q41 0 76.5 24.5t62 67t42 96t15.5 111.5q0 77 -31.5 108.5t-78.5 31.5q-43 0 -79 -24.5t-62.5 -65t-41.5 -90.5t-15 -102q0 -81 31.5 -119t80.5 -38z" />
    <glyph glyph-name="ntilde" unicode="&#xf1;" horiz-adv-x="558" 
d="M131 0l-39 -6l-7 6l91 431l-114 4l3 20l151 30l13 -10l-21 -107q36 35 74.5 61t75 41t63.5 15q32 0 48 -17.5t16 -48.5q0 -24 -5 -47t-12 -51l-49 -207q-4 -17 -8 -33.5t-4 -27.5q0 -23 26 -23q23 0 51.5 22t57.5 59l16 -12q-31 -45 -69.5 -78.5t-84.5 -33.5
q-20 0 -32.5 11.5t-12.5 29.5q0 19 3.5 34t10.5 41l48 206q5 25 10 48t5 41q0 25 -10 35t-29 10q-34 0 -80.5 -24.5t-114.5 -81.5l-29 -129q-12 -52 -21.5 -103.5t-20.5 -104.5zM209 596q13 54 39 79.5t59 25.5q25 0 41 -11.5t33 -30.5q20 -20 33.5 -31.5t32.5 -11.5
q18 0 36.5 18.5t33.5 59.5l18 -8q-16 -52 -40.5 -78t-55.5 -26q-23 0 -39.5 11.5t-35.5 30.5q-19 20 -33.5 31.5t-32.5 11.5q-21 0 -39.5 -18t-32.5 -60z" />
    <glyph glyph-name="ograve" unicode="&#xf2;" horiz-adv-x="485" 
d="M217 -13q-39 0 -74.5 18t-58.5 57t-23 100t18.5 119t52 104t78.5 73t97 27q65 0 110 -42.5t45 -134.5q0 -63 -19 -121t-52.5 -103t-78 -71t-95.5 -26zM223 15q42 0 76.5 25t60 66t39.5 91t14 100q0 85 -31 122t-80 37q-42 0 -77 -24.5t-61 -66t-40 -92.5t-14 -103
q0 -81 33 -118t80 -37zM344 550l-17 -11q-27 35 -57 75t-53 70t-23 47q0 11 8 16.5t18 5.5q11 0 20 -10t19 -30q17 -34 41 -78.5t44 -84.5z" />
    <glyph glyph-name="oacute" unicode="&#xf3;" horiz-adv-x="485" 
d="M217 -13q-39 0 -74.5 18t-58.5 57t-23 100t18.5 119t52 104t78.5 73t97 27q65 0 110 -42.5t45 -134.5q0 -63 -19 -121t-52.5 -103t-78 -71t-95.5 -26zM223 15q42 0 76.5 25t60 66t39.5 91t14 100q0 85 -31 122t-80 37q-42 0 -77 -24.5t-61 -66t-40 -92.5t-14 -103
q0 -81 33 -118t80 -37zM300 550q20 40 44 84.5t41 78.5q20 39 39 39q10 0 18 -5t8 -17q0 -16 -23 -46q-22 -30 -52.5 -70t-57.5 -75z" />
    <glyph glyph-name="ocircumflex" unicode="&#xf4;" horiz-adv-x="485" 
d="M217 -13q-39 0 -74.5 18t-58.5 57t-23 100t18.5 119t52 104t78.5 73t97 27q65 0 110 -42.5t45 -134.5q0 -63 -19 -121t-52.5 -103t-78 -71t-95.5 -26zM223 15q42 0 76.5 25t60 66t39.5 91t14 100q0 85 -31 122t-80 37q-42 0 -77 -24.5t-61 -66t-40 -92.5t-14 -103
q0 -81 33 -118t80 -37zM435 550l-91 135l-137 -135l-13 14l149 177h22l88 -177z" />
    <glyph glyph-name="otilde" unicode="&#xf5;" horiz-adv-x="485" 
d="M217 -13q-39 0 -74.5 18t-58.5 57t-23 100t18.5 119t52 104t78.5 73t97 27q65 0 110 -42.5t45 -134.5q0 -63 -19 -121t-52.5 -103t-78 -71t-95.5 -26zM223 15q42 0 76.5 25t60 66t39.5 91t14 100q0 85 -31 122t-80 37q-42 0 -77 -24.5t-61 -66t-40 -92.5t-14 -103
q0 -81 33 -118t80 -37zM177 597q13 54 39 79.5t59 25.5q25 0 41 -11.5t33 -30.5q20 -20 33.5 -31.5t32.5 -11.5q18 0 36.5 18.5t33.5 59.5l18 -8q-16 -52 -40.5 -78t-55.5 -26q-23 0 -39.5 11.5t-35.5 30.5q-19 20 -33.5 31.5t-32.5 11.5q-21 0 -39.5 -18t-32.5 -60z" />
    <glyph glyph-name="odieresis" unicode="&#xf6;" horiz-adv-x="485" 
d="M217 -13q-39 0 -74.5 18t-58.5 57t-23 100t18.5 119t52 104t78.5 73t97 27q65 0 110 -42.5t45 -134.5q0 -63 -19 -121t-52.5 -103t-78 -71t-95.5 -26zM223 15q42 0 76.5 25t60 66t39.5 91t14 100q0 85 -31 122t-80 37q-42 0 -77 -24.5t-61 -66t-40 -92.5t-14 -103
q0 -81 33 -118t80 -37zM252 648q-13 0 -23.5 9t-10.5 25q0 20 13 31.5t28 11.5q14 0 24 -9t10 -24q0 -19 -12.5 -31.5t-28.5 -12.5zM435 648q-13 0 -23 9t-10 25q0 20 13 31.5t28 11.5q14 0 24 -9t10 -24q0 -19 -13 -31.5t-29 -12.5z" />
    <glyph glyph-name="divide" unicode="&#xf7;" horiz-adv-x="530" 
d="M289 97q-19 0 -31.5 13t-12.5 31q0 19 12.5 31t31.5 12q20 0 32.5 -12t12.5 -31q0 -18 -12.5 -31t-32.5 -13zM289 481q-19 0 -31.5 12.5t-12.5 30.5q0 19 12.5 31t31.5 12q20 0 32.5 -12t12.5 -31q0 -18 -12.5 -30.5t-32.5 -12.5zM510 316h-442v35h442v-35z" />
    <glyph glyph-name="oslash" unicode="&#xf8;" horiz-adv-x="485" 
d="M516 478l-74 -73q20 -40 20 -97q0 -63 -19 -121t-52.5 -103t-78 -71t-95.5 -26q-37 0 -71.5 16.5t-57.5 51.5l-77 -77l-20 18l85 84q-15 33 -15 82q0 61 18.5 119t52 104t78.5 73t97 27q37 0 68.5 -14t52.5 -43l69 68zM108 170q0 -15 1.5 -28.5t2.5 -25.5l286 282
q-14 32 -39 45t-57 13q-43 0 -78.5 -24.5t-61.5 -66t-40 -92.5t-14 -103zM223 15q42 0 77 25t61 66t40 91t14 100q0 22 -2 40.5t-5 33.5l-288 -285q14 -40 41.5 -55.5t61.5 -15.5z" />
    <glyph glyph-name="ugrave" unicode="&#xf9;" horiz-adv-x="555" 
d="M161 -13q-28 0 -46 16.5t-18 53.5q0 29 7 64t14 65l54 246l-107 3l4 21l145 29l13 -10l-62 -274q-7 -31 -13.5 -68.5t-6.5 -57.5q0 -44 42 -44q32 0 76.5 21.5t111.5 78.5l30 144q11 48 20.5 96.5t18.5 96.5l38 17l10 -8l-77 -363q-3 -16 -6.5 -32.5t-3.5 -27.5
q0 -24 27 -24q23 0 51 21.5t59 59.5l16 -12q-33 -45 -70 -78.5t-81 -33.5q-20 0 -34.5 12.5t-14.5 35.5q0 14 2.5 28t8.5 39q-61 -58 -111 -86.5t-97 -28.5zM364 540l-17 -11q-27 35 -57 75t-53 70t-23 47q0 11 8 16.5t18 5.5q11 0 20 -10t19 -30q17 -34 41 -78.5t44 -84.5z
" />
    <glyph glyph-name="uacute" unicode="&#xfa;" horiz-adv-x="555" 
d="M161 -13q-28 0 -46 16.5t-18 53.5q0 29 7 64t14 65l54 246l-107 3l4 21l145 29l13 -10l-62 -274q-7 -31 -13.5 -68.5t-6.5 -57.5q0 -44 42 -44q32 0 76.5 21.5t111.5 78.5l30 144q11 48 20.5 96.5t18.5 96.5l38 17l10 -8l-77 -363q-3 -16 -6.5 -32.5t-3.5 -27.5
q0 -24 27 -24q23 0 51 21.5t59 59.5l16 -12q-33 -45 -70 -78.5t-81 -33.5q-20 0 -34.5 12.5t-14.5 35.5q0 14 2.5 28t8.5 39q-61 -58 -111 -86.5t-97 -28.5zM329 550q20 40 44 84.5t41 78.5q20 39 39 39q10 0 18 -5t8 -17q0 -16 -23 -46q-22 -30 -52.5 -70t-57.5 -75z" />
    <glyph glyph-name="ucircumflex" unicode="&#xfb;" horiz-adv-x="555" 
d="M161 -13q-28 0 -46 16.5t-18 53.5q0 29 7 64t14 65l54 246l-107 3l4 21l145 29l13 -10l-62 -274q-7 -31 -13.5 -68.5t-6.5 -57.5q0 -44 42 -44q32 0 76.5 21.5t111.5 78.5l30 144q11 48 20.5 96.5t18.5 96.5l38 17l10 -8l-77 -363q-3 -16 -6.5 -32.5t-3.5 -27.5
q0 -24 27 -24q23 0 51 21.5t59 59.5l16 -12q-33 -45 -70 -78.5t-81 -33.5q-20 0 -34.5 12.5t-14.5 35.5q0 14 2.5 28t8.5 39q-61 -58 -111 -86.5t-97 -28.5zM458 550l-91 135l-137 -135l-13 14l149 177h22l88 -177z" />
    <glyph glyph-name="udieresis" unicode="&#xfc;" horiz-adv-x="555" 
d="M161 -13q-28 0 -46 16.5t-18 53.5q0 29 7 64t14 65l54 246l-107 3l4 21l145 29l13 -10l-62 -274q-7 -31 -13.5 -68.5t-6.5 -57.5q0 -44 42 -44q32 0 76.5 21.5t111.5 78.5l30 144q11 48 20.5 96.5t18.5 96.5l38 17l10 -8l-77 -363q-3 -16 -6.5 -32.5t-3.5 -27.5
q0 -24 27 -24q23 0 51 21.5t59 59.5l16 -12q-33 -45 -70 -78.5t-81 -33.5q-20 0 -34.5 12.5t-14.5 35.5q0 14 2.5 28t8.5 39q-61 -58 -111 -86.5t-97 -28.5zM271 648q-13 0 -23.5 9t-10.5 25q0 20 13 31.5t28 11.5q14 0 24 -9t10 -24q0 -19 -12.5 -31.5t-28.5 -12.5z
M454 648q-13 0 -23 9t-10 25q0 20 13 31.5t28 11.5q14 0 24 -9t10 -24q0 -19 -13 -31.5t-29 -12.5z" />
    <glyph glyph-name="yacute" unicode="&#xfd;" horiz-adv-x="469" 
d="M-80 -197q3 16 14 23.5t26 7.5q14 0 27 -6t29 -18l13 -10q46 26 88 68q46 46 88 106q-4 78 -9.5 139.5t-12 117t-15.5 115.5q-6 41 -11 61.5t-11.5 27.5t-17.5 7q-14 0 -31.5 -14t-44.5 -62l-17 10q27 60 55.5 84.5t57.5 24.5q28 0 42.5 -21t21.5 -86q10 -84 16.5 -169
t10.5 -180q58 101 100 188.5t60 149.5q16 51 26 76.5t18 34.5t18 9q25 0 25 -23q0 -11 -3 -22.5t-13 -31.5q-13 -29 -27.5 -58t-37.5 -73q-30 -58 -55 -104.5t-48 -87t-49 -81.5q-28 -43 -55.5 -80t-62.5 -75q-38 -40 -78.5 -67t-72.5 -27q-26 0 -43 12.5t-21 33.5zM321 546
q20 40 44 84.5t41 78.5q20 39 39 39q10 0 18 -5t8 -17q0 -16 -23 -46q-22 -30 -52.5 -70t-57.5 -75z" />
    <glyph glyph-name="thorn" unicode="&#xfe;" horiz-adv-x="507" 
d="M382 443q-43 0 -93.5 -35.5t-106.5 -95.5l-55 -255q20 -16 41 -22t41 -6q45 0 86.5 25.5t73.5 67.5q36 47 56.5 105t20.5 116q0 52 -17 76t-47 24zM173 -217l-4 -26h-235l4 26l89 9l151 709q10 47 19 95t16 96l-111 4l4 20l154 29l10 -9l-82 -392q32 42 69.5 73.5
t75.5 49.5t70 18q39 0 65 -27t26 -94q0 -52 -17.5 -105.5t-48 -102t-69.5 -87t-83 -60.5t-88 -22q-19 0 -36.5 5t-34.5 17q-10 -49 -22 -107t-22 -109z" />
    <glyph glyph-name="ydieresis" unicode="&#xff;" horiz-adv-x="469" 
d="M-80 -197q3 16 14 23.5t26 7.5q14 0 27 -6t29 -18l13 -10q46 26 88 68q46 46 88 106q-4 78 -9.5 139.5t-12 117t-15.5 115.5q-6 41 -11 61.5t-11.5 27.5t-17.5 7q-14 0 -31.5 -14t-44.5 -62l-17 10q27 60 55.5 84.5t57.5 24.5q28 0 42.5 -21t21.5 -86q10 -84 16.5 -169
t10.5 -180q58 101 100 188.5t60 149.5q16 51 26 76.5t18 34.5t18 9q25 0 25 -23q0 -11 -3 -22.5t-13 -31.5q-13 -29 -27.5 -58t-37.5 -73q-30 -58 -55 -104.5t-48 -87t-49 -81.5q-28 -43 -55.5 -80t-62.5 -75q-38 -40 -78.5 -67t-72.5 -27q-26 0 -43 12.5t-21 33.5zM271 645
q-13 0 -23.5 9t-10.5 25q0 20 13 31.5t28 11.5q14 0 24 -9t10 -24q0 -19 -12.5 -31.5t-28.5 -12.5zM454 645q-13 0 -23 9t-10 25q0 20 13 31.5t28 11.5q14 0 24 -9t10 -24q0 -19 -13 -31.5t-29 -12.5z" />
    <glyph glyph-name="Amacron" unicode="&#x100;" horiz-adv-x="661" 
d="M-28 0l6 28l82 9l340 637h35l89 -638l97 -8l-6 -28h-255l6 28l102 8l-28 210h-234l-108 -209l88 -9l-5 -28h-209zM222 276h215l-44 331zM266 764l8 39h295l-8 -39h-295z" />
    <glyph glyph-name="amacron" unicode="&#x101;" horiz-adv-x="517" 
d="M101 132q0 -55 20 -78.5t51 -23.5q39 0 78.5 31.5t90.5 91.5l58 271q-28 20 -60 20q-35 0 -70.5 -18t-66.5 -49q-45 -46 -73 -111.5t-28 -133.5zM369 -13q-19 0 -33 12.5t-14 37.5q0 19 2.5 34.5t7.5 38.5l1 5q-43 -55 -89 -91.5t-93 -36.5q-37 0 -67.5 28t-30.5 96
q0 51 18 103.5t48.5 101t69.5 86.5t82 60.5t85 22.5q35 0 60 -27l29 31l12 -8l-80 -367q-4 -16 -7 -32.5t-3 -29.5q0 -12 8 -17t19 -5q24 0 53 23t56 59l17 -13q-30 -45 -68.5 -78.5t-82.5 -33.5zM266 624l8 40h228l-8 -40h-228z" />
    <glyph glyph-name="Abreve" unicode="&#x102;" horiz-adv-x="661" 
d="M-28 0l6 28l82 9l340 637h35l89 -638l97 -8l-6 -28h-255l6 28l102 8l-28 210h-234l-108 -209l88 -9l-5 -28h-209zM222 276h215l-44 331zM425 735q-61 0 -90.5 36.5t-34.5 82.5l21 9q9 -40 37 -64t74 -24q42 0 73.5 24t50.5 64l23 -7q-17 -48 -54.5 -84.5t-99.5 -36.5z
" />
    <glyph glyph-name="abreve" unicode="&#x103;" horiz-adv-x="517" 
d="M101 132q0 -55 20 -78.5t51 -23.5q39 0 78.5 31.5t90.5 91.5l58 271q-28 20 -60 20q-35 0 -70.5 -18t-66.5 -49q-45 -46 -73 -111.5t-28 -133.5zM369 -13q-19 0 -33 12.5t-14 37.5q0 19 2.5 34.5t7.5 38.5l1 5q-43 -55 -89 -91.5t-93 -36.5q-37 0 -67.5 28t-30.5 96
q0 51 18 103.5t48.5 101t69.5 86.5t82 60.5t85 22.5q35 0 60 -27l29 31l12 -8l-80 -367q-4 -16 -7 -32.5t-3 -29.5q0 -12 8 -17t19 -5q24 0 53 23t56 59l17 -13q-30 -45 -68.5 -78.5t-82.5 -33.5zM366 581q-66 0 -96.5 41t-32.5 101l23 9q9 -46 34.5 -77.5t77.5 -31.5
q47 0 80.5 29.5t55.5 78.5l22 -7q-19 -61 -60.5 -102t-103.5 -41z" />
    <glyph glyph-name="Aogonek" unicode="&#x104;" horiz-adv-x="661" 
d="M-28 0l6 28l82 9l340 637h35l89 -638l97 -8l-6 -28h-255l6 28l102 8l-28 210h-234l-108 -209l88 -9l-5 -28h-209zM222 276h215l-44 331zM384 -170q0 45 35 91t79 87h24q-43 -43 -69.5 -83.5t-26.5 -78.5q0 -56 51 -56q19 0 41.5 8t40.5 21l10 -13q-21 -20 -48.5 -34.5
t-56.5 -14.5q-40 0 -60 21t-20 52z" />
    <glyph glyph-name="aogonek" unicode="&#x105;" horiz-adv-x="517" 
d="M101 132q0 -55 20 -78.5t51 -23.5q39 0 78.5 31.5t90.5 91.5l58 271q-28 20 -60 20q-35 0 -70.5 -18t-66.5 -49q-45 -46 -73 -111.5t-28 -133.5zM296 -170q0 40 28.5 81.5t67.5 78.5q-12 -3 -23 -3q-19 0 -33 12.5t-14 37.5q0 19 2.5 34.5t7.5 38.5l1 5
q-43 -55 -89 -91.5t-93 -36.5q-37 0 -67.5 28t-30.5 96q0 51 18 103.5t48.5 101t69.5 86.5t82 60.5t85 22.5q35 0 60 -27l29 31l12 -8l-80 -367q-4 -16 -7 -32.5t-3 -29.5q0 -12 8 -17t19 -5q24 0 53 23t56 59l17 -13q-15 -22 -33 -43t-42 -42q-43 -37 -75 -82.5t-32 -85.5
q0 -56 51 -56q19 0 41.5 8t40.5 21l10 -13q-21 -20 -48.5 -34.5t-56.5 -14.5q-40 0 -60 21t-20 52z" />
    <glyph glyph-name="Cacute" unicode="&#x106;" horiz-adv-x="598" 
d="M344 -15q-86 0 -149.5 36t-98 102.5t-34.5 156.5q0 89 29 163.5t81 129.5t120.5 85.5t146.5 30.5q50 0 92.5 -12t85.5 -41l-23 -139h-37l5 129q-51 30 -130 30q-68 0 -125.5 -28.5t-99.5 -79t-65.5 -118.5t-23.5 -148q0 -87 31.5 -145.5t86 -88.5t122.5 -30q63 0 123 26
l42 132h38l-29 -145q-46 -23 -89.5 -34.5t-98.5 -11.5zM416 738q29 22 57.5 43.5t55.5 40.5q23 17 34 24t23 6q11 0 18 -7t6 -18q-1 -10 -11 -19.5t-40 -23.5q-65 -30 -133 -62z" />
    <glyph glyph-name="cacute" unicode="&#x107;" horiz-adv-x="407" 
d="M208 -13q-39 0 -72 19t-53 58.5t-20 100.5q0 63 22 121t58.5 102.5t82 70.5t92.5 26q39 0 65.5 -20t33.5 -44q-1 -12 -9.5 -18t-17.5 -6q-10 0 -19.5 6t-21.5 18l-38 40q-42 -7 -79 -33.5t-64.5 -67t-43 -88.5t-15.5 -97q0 -73 32 -109t87 -36q42 0 76 23t60 58l16 -12
q-31 -50 -75 -81t-97 -31zM315 550q20 40 44 84.5t41 78.5q20 39 39 39q10 0 18 -5t8 -17q0 -16 -23 -46q-22 -30 -52.5 -70t-57.5 -75z" />
    <glyph glyph-name="Ccircumflex" unicode="&#x108;" horiz-adv-x="598" 
d="M344 -15q-86 0 -149.5 36t-98 102.5t-34.5 156.5q0 89 29 163.5t81 129.5t120.5 85.5t146.5 30.5q50 0 92.5 -12t85.5 -41l-23 -139h-37l5 129q-51 30 -130 30q-68 0 -125.5 -28.5t-99.5 -79t-65.5 -118.5t-23.5 -148q0 -87 31.5 -145.5t86 -88.5t122.5 -30q63 0 123 26
l42 132h38l-29 -145q-46 -23 -89.5 -34.5t-98.5 -11.5zM471 850l119 -115l-16 -16l-120 84l-140 -84l-9 16l144 115h22z" />
    <glyph glyph-name="ccircumflex" unicode="&#x109;" horiz-adv-x="407" 
d="M208 -13q-39 0 -72 19t-53 58.5t-20 100.5q0 63 22 121t58.5 102.5t82 70.5t92.5 26q39 0 65.5 -20t33.5 -44q-1 -12 -9.5 -18t-17.5 -6q-10 0 -19.5 6t-21.5 18l-38 40q-42 -7 -79 -33.5t-64.5 -67t-43 -88.5t-15.5 -97q0 -73 32 -109t87 -36q42 0 76 23t60 58l16 -12
q-31 -50 -75 -81t-97 -31zM440 550l-91 135l-137 -135l-13 14l149 177h22l88 -177z" />
    <glyph glyph-name="Cdotaccent" unicode="&#x10a;" horiz-adv-x="598" 
d="M344 -15q-86 0 -149.5 36t-98 102.5t-34.5 156.5q0 89 29 163.5t81 129.5t120.5 85.5t146.5 30.5q50 0 92.5 -12t85.5 -41l-23 -139h-37l5 129q-51 30 -130 30q-68 0 -125.5 -28.5t-99.5 -79t-65.5 -118.5t-23.5 -148q0 -87 31.5 -145.5t86 -88.5t122.5 -30q63 0 123 26
l42 132h38l-29 -145q-46 -23 -89.5 -34.5t-98.5 -11.5zM480 747q-16 0 -27.5 10t-11.5 29q0 20 13.5 33.5t29.5 13.5q17 0 28 -10.5t11 -28.5q0 -20 -13.5 -33.5t-29.5 -13.5z" />
    <glyph glyph-name="cdotaccent" unicode="&#x10b;" horiz-adv-x="407" 
d="M208 -13q-39 0 -72 19t-53 58.5t-20 100.5q0 63 22 121t58.5 102.5t82 70.5t92.5 26q39 0 65.5 -20t33.5 -44q-1 -12 -9.5 -18t-17.5 -6q-10 0 -19.5 6t-21.5 18l-38 40q-42 -7 -79 -33.5t-64.5 -67t-43 -88.5t-15.5 -97q0 -73 32 -109t87 -36q42 0 76 23t60 58l16 -12
q-31 -50 -75 -81t-97 -31zM349 632q-16 0 -27 10t-11 29q0 20 13.5 32.5t28.5 12.5q17 0 27.5 -10t10.5 -27q0 -20 -13 -33.5t-29 -13.5z" />
    <glyph glyph-name="Ccaron" unicode="&#x10c;" horiz-adv-x="598" 
d="M344 -15q-86 0 -149.5 36t-98 102.5t-34.5 156.5q0 89 29 163.5t81 129.5t120.5 85.5t146.5 30.5q50 0 92.5 -12t85.5 -41l-23 -139h-37l5 129q-51 30 -130 30q-68 0 -125.5 -28.5t-99.5 -79t-65.5 -118.5t-23.5 -148q0 -87 31.5 -145.5t86 -88.5t122.5 -30q63 0 123 26
l42 132h38l-29 -145q-46 -23 -89.5 -34.5t-98.5 -11.5zM350 866l102 -91l131 91l13 -15l-132 -115h-34l-99 115z" />
    <glyph glyph-name="ccaron" unicode="&#x10d;" horiz-adv-x="407" 
d="M208 -13q-39 0 -72 19t-53 58.5t-20 100.5q0 63 22 121t58.5 102.5t82 70.5t92.5 26q39 0 65.5 -20t33.5 -44q-1 -12 -9.5 -18t-17.5 -6q-10 0 -19.5 6t-21.5 18l-38 40q-42 -7 -79 -33.5t-64.5 -67t-43 -88.5t-15.5 -97q0 -73 32 -109t87 -36q42 0 76 23t60 58l16 -12
q-31 -50 -75 -81t-97 -31zM248 751l88 -142l140 143l15 -13l-150 -183h-26l-86 183z" />
    <glyph glyph-name="Dcaron" unicode="&#x10e;" horiz-adv-x="681" 
d="M124 646l5 28h237q143 0 222 -73.5t79 -207.5q0 -120 -51 -208.5t-141 -136.5t-207 -48h-255l6 28l97 8l62 326q13 69 25 138t22 138zM219 312q-13 -70 -25.5 -140t-23.5 -140h99q86 0 150 29t106.5 79t63.5 115.5t21 137.5q1 122 -66.5 185.5t-194.5 63.5h-68zM306 866
l102 -91l131 91l13 -15l-132 -115h-34l-99 115z" />
    <glyph glyph-name="dcaron" unicode="&#x10f;" horiz-adv-x="541" 
d="M102 129q0 -52 18 -75.5t48 -23.5q43 0 89 35t106 103l50 251q-16 14 -33 19.5t-33 5.5q-44 0 -85.5 -24t-74.5 -63q-38 -46 -61.5 -106t-23.5 -122zM396 114q-3 -16 -5.5 -32t-2.5 -27q0 -25 27 -25q23 0 52 22t58 59l15 -12q-30 -44 -68.5 -78t-83.5 -34
q-20 0 -33.5 12t-13.5 35q0 14 2 28.5t7 40.5l6 29q-32 -41 -68.5 -74t-73 -52t-69.5 -19q-38 0 -64 27.5t-26 94.5q0 51 18 104.5t49 102t70.5 86.5t83.5 60.5t87 22.5q35 0 60 -21l45 227l-113 5l4 20l151 29l11 -9zM654 751q14 0 18 -6t4 -14q0 -17 -14 -55.5t-31 -82.5
l-27 -66l-21 1l44 217q15 6 27 6z" />
    <glyph glyph-name="Dcroat" unicode="&#x110;" horiz-adv-x="681" 
d="M124 646l5 28h237q143 0 222 -73.5t79 -207.5q0 -120 -51 -208.5t-141 -136.5t-207 -48h-255l6 28l97 8l56 293h-115l6 32h115v1q13 69 25 138t22 138zM402 329h-180l-3 -17q-13 -70 -25.5 -140t-23.5 -140h99q86 0 150 29t106.5 79t63.5 115.5t21 137.5
q1 122 -66.5 185.5t-194.5 63.5h-68l-53 -281h179z" />
    <glyph glyph-name="dcroat" unicode="&#x111;" horiz-adv-x="535" 
d="M102 129q0 -52 18 -75.5t48 -23.5q43 0 89 35t106 102l47 242q-16 13 -32.5 18.5t-31.5 5.5q-44 0 -85.5 -24t-74.5 -63q-37 -44 -60.5 -101t-23.5 -116zM396 114q-3 -16 -5.5 -32t-2.5 -27q0 -25 27 -25q23 0 52 22t58 59l15 -12q-30 -44 -68.5 -78t-83.5 -34
q-20 0 -33.5 12t-13.5 35q0 14 2 28.5t7 40.5l6 29q-32 -41 -68.5 -74t-73 -52t-69.5 -19q-38 0 -64 27.5t-26 94.5q0 50 18 101.5t48.5 98.5t70 84t83.5 58.5t87 21.5q35 0 58 -19l23 114h-162l5 24h162l20 99l-113 5l4 20l151 29l11 -9l-29 -144h112l-4 -24h-113z" />
    <glyph glyph-name="Emacron" unicode="&#x112;" horiz-adv-x="577" 
d="M124 646l5 28h460l-21 -163h-35l5 130h-257l-53 -283h180l30 96h29l-43 -224h-28l7 96h-181l-3 -14q-13 -70 -25.5 -139.5t-23.5 -139.5h293l43 130h35l-39 -163h-489l6 28l97 8l62 326q13 69 25 138t22 138zM258 764l8 39h295l-8 -39h-295z" />
    <glyph glyph-name="emacron" unicode="&#x113;" horiz-adv-x="407" 
d="M309 456q-33 0 -67.5 -21.5t-63.5 -58.5t-48.5 -83t-22.5 -95q134 38 200 91t66 108q0 29 -17.5 44t-46.5 15zM208 -13q-39 0 -72 18t-53 57.5t-20 103.5q0 60 21 116.5t57 102.5t82.5 73t97.5 27q41 0 67 -20.5t26 -61.5q0 -62 -74.5 -124.5t-233.5 -106.5
q2 -73 33.5 -107.5t83.5 -34.5q45 0 79.5 23t61.5 58l16 -12q-32 -49 -75 -80.5t-97 -31.5zM232 624l8 40h228l-8 -40h-228z" />
    <glyph glyph-name="Ebreve" unicode="&#x114;" horiz-adv-x="577" 
d="M124 646l5 28h460l-21 -163h-35l5 130h-257l-53 -283h180l30 96h29l-43 -224h-28l7 96h-181l-3 -14q-13 -70 -25.5 -139.5t-23.5 -139.5h293l43 130h35l-39 -163h-489l6 28l97 8l62 326q13 69 25 138t22 138zM414 735q-61 0 -90.5 36.5t-34.5 82.5l21 9q9 -40 37 -64
t74 -24q42 0 73.5 24t50.5 64l23 -7q-17 -48 -54.5 -84.5t-99.5 -36.5z" />
    <glyph glyph-name="ebreve" unicode="&#x115;" horiz-adv-x="407" 
d="M309 456q-33 0 -67.5 -21.5t-63.5 -58.5t-48.5 -83t-22.5 -95q134 38 200 91t66 108q0 29 -17.5 44t-46.5 15zM208 -13q-39 0 -72 18t-53 57.5t-20 103.5q0 60 21 116.5t57 102.5t82.5 73t97.5 27q41 0 67 -20.5t26 -61.5q0 -62 -74.5 -124.5t-233.5 -106.5
q2 -73 33.5 -107.5t83.5 -34.5q45 0 79.5 23t61.5 58l16 -12q-32 -49 -75 -80.5t-97 -31.5zM343 581q-66 0 -96.5 41t-32.5 101l23 9q9 -46 34.5 -77.5t77.5 -31.5q47 0 80.5 29.5t55.5 78.5l22 -7q-19 -61 -60.5 -102t-103.5 -41z" />
    <glyph glyph-name="Edotaccent" unicode="&#x116;" horiz-adv-x="577" 
d="M124 646l5 28h460l-21 -163h-35l5 130h-257l-53 -283h180l30 96h29l-43 -224h-28l7 96h-181l-3 -14q-13 -70 -25.5 -139.5t-23.5 -139.5h293l43 130h35l-39 -163h-489l6 28l97 8l62 326q13 69 25 138t22 138zM408 747q-16 0 -27.5 10t-11.5 29q0 20 13.5 33.5t29.5 13.5
q17 0 28 -10.5t11 -28.5q0 -20 -13.5 -33.5t-29.5 -13.5z" />
    <glyph glyph-name="edotaccent" unicode="&#x117;" horiz-adv-x="407" 
d="M309 456q-33 0 -67.5 -21.5t-63.5 -58.5t-48.5 -83t-22.5 -95q134 38 200 91t66 108q0 29 -17.5 44t-46.5 15zM208 -13q-39 0 -72 18t-53 57.5t-20 103.5q0 60 21 116.5t57 102.5t82.5 73t97.5 27q41 0 67 -20.5t26 -61.5q0 -62 -74.5 -124.5t-233.5 -106.5
q2 -73 33.5 -107.5t83.5 -34.5q45 0 79.5 23t61.5 58l16 -12q-32 -49 -75 -80.5t-97 -31.5zM343 632q-16 0 -27 10t-11 29q0 20 13.5 32.5t28.5 12.5q17 0 27.5 -10t10.5 -27q0 -20 -13 -33.5t-29 -13.5z" />
    <glyph glyph-name="Eogonek" unicode="&#x118;" horiz-adv-x="577" 
d="M124 646l5 28h460l-21 -163h-35l5 130h-257l-53 -283h180l30 96h29l-43 -224h-28l7 96h-181l-3 -14q-13 -70 -25.5 -139.5t-23.5 -139.5h293l43 130h35l-39 -163h-489l6 28l97 8l62 326q13 69 25 138t22 138zM298 -170q0 45 35 91t79 87h24q-43 -43 -69.5 -83.5
t-26.5 -78.5q0 -56 51 -56q19 0 41.5 8t40.5 21l10 -13q-21 -20 -48.5 -34.5t-56.5 -14.5q-40 0 -60 21t-20 52z" />
    <glyph glyph-name="eogonek" unicode="&#x119;" horiz-adv-x="407" 
d="M309 456q-33 0 -67.5 -21.5t-63.5 -58.5t-48.5 -83t-22.5 -95q134 38 200 91t66 108q0 29 -17.5 44t-46.5 15zM233 -243q-40 0 -59.5 21t-19.5 52q0 41 29.5 83.5t70.5 80.5q-20 -7 -46 -7q-39 0 -72 18t-53 57.5t-20 103.5q0 60 21 116.5t57 102.5t82.5 73t97.5 27
q41 0 67 -20.5t26 -61.5q0 -62 -74.5 -124.5t-233.5 -106.5q2 -73 33.5 -107.5t83.5 -34.5q45 0 79.5 23t61.5 58l16 -12q-15 -22 -31 -41t-36 -36q-51 -43 -84.5 -89t-33.5 -87q0 -56 52 -56q19 0 41 8t40 21l11 -13q-22 -20 -49.5 -34.5t-56.5 -14.5z" />
    <glyph glyph-name="Ecaron" unicode="&#x11a;" horiz-adv-x="577" 
d="M124 646l5 28h460l-21 -163h-35l5 130h-257l-53 -283h180l30 96h29l-43 -224h-28l7 96h-181l-3 -14q-13 -70 -25.5 -139.5t-23.5 -139.5h293l43 130h35l-39 -163h-489l6 28l97 8l62 326q13 69 25 138t22 138zM306 866l102 -91l131 91l13 -15l-132 -115h-34l-99 115z" />
    <glyph glyph-name="ecaron" unicode="&#x11b;" horiz-adv-x="407" 
d="M309 456q-33 0 -67.5 -21.5t-63.5 -58.5t-48.5 -83t-22.5 -95q134 38 200 91t66 108q0 29 -17.5 44t-46.5 15zM208 -13q-39 0 -72 18t-53 57.5t-20 103.5q0 60 21 116.5t57 102.5t82.5 73t97.5 27q41 0 67 -20.5t26 -61.5q0 -62 -74.5 -124.5t-233.5 -106.5
q2 -73 33.5 -107.5t83.5 -34.5q45 0 79.5 23t61.5 58l16 -12q-32 -49 -75 -80.5t-97 -31.5zM248 751l88 -142l140 143l15 -13l-150 -183h-26l-86 183z" />
    <glyph glyph-name="Gcircumflex" unicode="&#x11c;" horiz-adv-x="660" 
d="M62 278q0 92 29 167t80.5 130t119.5 84.5t146 29.5q65 0 111 -13.5t90 -42.5l-22 -139h-37l5 128q-61 34 -148 34q-95 0 -166.5 -49t-111.5 -133.5t-40 -193.5q0 -84 33.5 -142.5t90.5 -89t125 -30.5q38 0 69.5 7t63.5 21l8 48q8 47 16.5 94.5t16.5 93.5l-111 9l5 28h242
l-5 -28l-77 -8l-45 -248q-49 -25 -93.5 -37.5t-100.5 -12.5q-89 0 -155 36t-102.5 102t-36.5 155zM464 850l119 -115l-16 -16l-120 84l-140 -84l-9 16l144 115h22z" />
    <glyph glyph-name="gcircumflex" unicode="&#x11d;" horiz-adv-x="474" 
d="M227 175q38 1 68 23t47 60.5t17 86.5q0 53 -23 84t-70 31q-40 0 -70 -24t-46.5 -63t-16.5 -85q0 -113 94 -113zM87 282q0 57 25 103t67 73t94 27q47 0 78.5 -26t38.5 -73q11 60 36.5 84.5t50.5 24.5q13 0 23 -5q6 -6 6 -14q0 -20 -21 -32.5t-64 -26.5q-6 -15 -10.5 -32.5
t-8.5 -41.5q-16 -100 -66 -146.5t-115 -46.5q-49 0 -83 23q-25 -23 -31.5 -39t-6.5 -30q0 -18 12.5 -31.5t43.5 -18.5l118 -16q77 -10 106.5 -37t29.5 -67q0 -45 -33 -85.5t-92 -66t-137 -25.5q-76 0 -121.5 27.5t-45.5 83.5q0 50 37.5 89.5t88.5 62.5q-29 11 -39 29.5
t-10 35.5q0 51 67 98q-18 17 -28 42t-10 57zM29 -116q0 -44 36.5 -70t103.5 -26q56 0 100.5 16t70.5 44.5t26 65.5q0 22 -9 38.5t-34.5 28t-75.5 17.5l-109 14q-1 0 -3 0.5t-4 0.5q-49 -28 -75.5 -58t-26.5 -71zM415 550l-91 135l-137 -135l-13 14l149 177h22l88 -177z" />
    <glyph glyph-name="Gbreve" unicode="&#x11e;" horiz-adv-x="660" 
d="M62 278q0 92 29 167t80.5 130t119.5 84.5t146 29.5q65 0 111 -13.5t90 -42.5l-22 -139h-37l5 128q-61 34 -148 34q-95 0 -166.5 -49t-111.5 -133.5t-40 -193.5q0 -84 33.5 -142.5t90.5 -89t125 -30.5q38 0 69.5 7t63.5 21l8 48q8 47 16.5 94.5t16.5 93.5l-111 9l5 28h242
l-5 -28l-77 -8l-45 -248q-49 -25 -93.5 -37.5t-100.5 -12.5q-89 0 -155 36t-102.5 102t-36.5 155zM453 735q-61 0 -90.5 36.5t-34.5 82.5l21 9q9 -40 37 -64t74 -24q42 0 73.5 24t50.5 64l23 -7q-17 -48 -54.5 -84.5t-99.5 -36.5z" />
    <glyph glyph-name="gbreve" unicode="&#x11f;" horiz-adv-x="474" 
d="M227 175q38 1 68 23t47 60.5t17 86.5q0 53 -23 84t-70 31q-40 0 -70 -24t-46.5 -63t-16.5 -85q0 -113 94 -113zM87 282q0 57 25 103t67 73t94 27q47 0 78.5 -26t38.5 -73q11 60 36.5 84.5t50.5 24.5q13 0 23 -5q6 -6 6 -14q0 -20 -21 -32.5t-64 -26.5q-6 -15 -10.5 -32.5
t-8.5 -41.5q-16 -100 -66 -146.5t-115 -46.5q-49 0 -83 23q-25 -23 -31.5 -39t-6.5 -30q0 -18 12.5 -31.5t43.5 -18.5l118 -16q77 -10 106.5 -37t29.5 -67q0 -45 -33 -85.5t-92 -66t-137 -25.5q-76 0 -121.5 27.5t-45.5 83.5q0 50 37.5 89.5t88.5 62.5q-29 11 -39 29.5
t-10 35.5q0 51 67 98q-18 17 -28 42t-10 57zM29 -116q0 -44 36.5 -70t103.5 -26q56 0 100.5 16t70.5 44.5t26 65.5q0 22 -9 38.5t-34.5 28t-75.5 17.5l-109 14q-1 0 -3 0.5t-4 0.5q-49 -28 -75.5 -58t-26.5 -71zM304 581q-66 0 -96.5 41t-32.5 101l23 9q9 -46 34.5 -77.5
t77.5 -31.5q47 0 80.5 29.5t55.5 78.5l22 -7q-19 -61 -60.5 -102t-103.5 -41z" />
    <glyph glyph-name="Gdotaccent" unicode="&#x120;" horiz-adv-x="660" 
d="M62 278q0 92 29 167t80.5 130t119.5 84.5t146 29.5q65 0 111 -13.5t90 -42.5l-22 -139h-37l5 128q-61 34 -148 34q-95 0 -166.5 -49t-111.5 -133.5t-40 -193.5q0 -84 33.5 -142.5t90.5 -89t125 -30.5q38 0 69.5 7t63.5 21l8 48q8 47 16.5 94.5t16.5 93.5l-111 9l5 28h242
l-5 -28l-77 -8l-45 -248q-49 -25 -93.5 -37.5t-100.5 -12.5q-89 0 -155 36t-102.5 102t-36.5 155zM456 747q-16 0 -27.5 10t-11.5 29q0 20 13.5 33.5t29.5 13.5q17 0 28 -10.5t11 -28.5q0 -20 -13.5 -33.5t-29.5 -13.5z" />
    <glyph glyph-name="gdotaccent" unicode="&#x121;" horiz-adv-x="474" 
d="M227 175q38 1 68 23t47 60.5t17 86.5q0 53 -23 84t-70 31q-40 0 -70 -24t-46.5 -63t-16.5 -85q0 -113 94 -113zM87 282q0 57 25 103t67 73t94 27q47 0 78.5 -26t38.5 -73q11 60 36.5 84.5t50.5 24.5q13 0 23 -5q6 -6 6 -14q0 -20 -21 -32.5t-64 -26.5q-6 -15 -10.5 -32.5
t-8.5 -41.5q-16 -100 -66 -146.5t-115 -46.5q-49 0 -83 23q-25 -23 -31.5 -39t-6.5 -30q0 -18 12.5 -31.5t43.5 -18.5l118 -16q77 -10 106.5 -37t29.5 -67q0 -45 -33 -85.5t-92 -66t-137 -25.5q-76 0 -121.5 27.5t-45.5 83.5q0 50 37.5 89.5t88.5 62.5q-29 11 -39 29.5
t-10 35.5q0 51 67 98q-18 17 -28 42t-10 57zM29 -116q0 -44 36.5 -70t103.5 -26q56 0 100.5 16t70.5 44.5t26 65.5q0 22 -9 38.5t-34.5 28t-75.5 17.5l-109 14q-1 0 -3 0.5t-4 0.5q-49 -28 -75.5 -58t-26.5 -71zM311 632q-16 0 -27 10t-11 29q0 20 13.5 32.5t28.5 12.5
q17 0 27.5 -10t10.5 -27q0 -20 -13 -33.5t-29 -13.5z" />
    <glyph glyph-name="uni0122" unicode="&#x122;" horiz-adv-x="660" 
d="M62 278q0 92 29 167t80.5 130t119.5 84.5t146 29.5q65 0 111 -13.5t90 -42.5l-22 -139h-37l5 128q-61 34 -148 34q-95 0 -166.5 -49t-111.5 -133.5t-40 -193.5q0 -84 33.5 -142.5t90.5 -89t125 -30.5q38 0 69.5 7t63.5 21l8 48q8 47 16.5 94.5t16.5 93.5l-111 9l5 28h242
l-5 -28l-77 -8l-45 -248q-49 -25 -93.5 -37.5t-100.5 -12.5q-89 0 -155 36t-102.5 102t-36.5 155zM260 -238l-10 18q29 17 45.5 33t28.5 39q-20 13 -27 26.5t-7 26.5q0 14 10.5 23.5t23.5 9.5q18 0 33 -15q2 -9 3.5 -15.5t1.5 -13.5q0 -47 -27 -77.5t-75 -54.5z" />
    <glyph glyph-name="uni0123" unicode="&#x123;" horiz-adv-x="474" 
d="M227 175q38 1 68 23t47 60.5t17 86.5q0 53 -23 84t-70 31q-40 0 -70 -24t-46.5 -63t-16.5 -85q0 -113 94 -113zM87 282q0 57 25 103t67 73t94 27q47 0 78.5 -26t38.5 -73q11 60 36.5 84.5t50.5 24.5q13 0 23 -5q6 -6 6 -14q0 -20 -21 -32.5t-64 -26.5q-6 -15 -10.5 -32.5
t-8.5 -41.5q-16 -100 -66 -146.5t-115 -46.5q-49 0 -83 23q-25 -23 -31.5 -39t-6.5 -30q0 -18 12.5 -31.5t43.5 -18.5l118 -16q77 -10 106.5 -37t29.5 -67q0 -45 -33 -85.5t-92 -66t-137 -25.5q-76 0 -121.5 27.5t-45.5 83.5q0 50 37.5 89.5t88.5 62.5q-29 11 -39 29.5
t-10 35.5q0 51 67 98q-18 17 -28 42t-10 57zM362 755l10 -18q-28 -17 -45 -33t-29 -39q20 -13 27 -26.5t7 -26.5q0 -14 -10 -23.5t-24 -9.5q-18 0 -33 15q-2 9 -3.5 15.5t-1.5 13.5q0 47 27 77.5t75 54.5zM29 -116q0 -44 36.5 -70t103.5 -26q56 0 100.5 16t70.5 44.5
t26 65.5q0 22 -9 38.5t-34.5 28t-75.5 17.5l-109 14q-1 0 -3 0.5t-4 0.5q-49 -28 -75.5 -58t-26.5 -71z" />
    <glyph glyph-name="Hcircumflex" unicode="&#x124;" horiz-adv-x="765" 
d="M545 646l5 28h255l-6 -28l-98 -8l-61 -326q-13 -69 -25 -138t-23 -137l102 -9l-5 -28h-255l6 28l97 8l57 301h-370l-5 -25q-13 -69 -25 -138t-23 -137l103 -9l-6 -28h-255l6 28l97 8l62 326q26 138 48 276l-102 8l5 28h255l-6 -28l-98 -8l-50 -270h370q12 68 24 135.5
t22 134.5zM503 850l119 -115l-16 -16l-120 84l-140 -84l-9 16l144 115h22z" />
    <glyph glyph-name="hcircumflex" unicode="&#x125;" horiz-adv-x="530" 
d="M68 -6l-7 6l101 501q10 48 19 95.5t17 95.5l-110 4l3 20l154 29l10 -9l-75 -368q36 35 74.5 61t74.5 41t63 15q32 0 48.5 -17.5t16.5 -48.5q0 -24 -5.5 -47t-11.5 -51l-49 -207q-4 -17 -8 -33.5t-4 -27.5q0 -23 25 -23q23 0 51.5 22t58.5 59l15 -12q-30 -45 -69 -78.5
t-84 -33.5q-20 0 -32.5 11.5t-12.5 29.5q0 19 3.5 34t9.5 41l49 206q5 25 10 48t5 41q0 25 -10 35t-30 10q-34 0 -80.5 -24.5t-114.5 -82.5l-26 -128q-10 -52 -20.5 -104t-19.5 -104zM409 892l119 -115l-16 -16l-120 84l-140 -84l-9 16l144 115h22z" />
    <glyph glyph-name="Hbar" unicode="&#x126;" horiz-adv-x="765" 
d="M599 362q5 31 11 61.5t11 61.5h-370l-24 -132h370zM545 646l5 28h255l-6 -28l-98 -8l-22 -121h129l-6 -32h-130l-32 -173q-13 -69 -25 -138t-23 -137l102 -9l-5 -28h-255l6 28l97 8l54 285h-370l-2 -9q-13 -69 -25 -138t-23 -137l103 -9l-6 -28h-255l6 28l97 8l62 326
q5 31 11 61.5t11 61.5h-121l5 32h122q5 30 10 60.5t10 60.5l-102 8l5 28h255l-6 -28l-98 -8l-22 -121h368q5 30 10.5 60.5t9.5 60.5z" />
    <glyph glyph-name="hbar" unicode="&#x127;" horiz-adv-x="530" 
d="M68 -6l-7 6l101 501q3 16 6 31t6 31h-111l6 30h111q5 25 9.5 49.5t8.5 49.5l-110 4l3 20l154 29l10 -9l-29 -143h181l-6 -30h-181l-41 -199q53 52 112 84.5t100 32.5q32 0 48 -17.5t16 -48.5q0 -24 -5 -47t-12 -51l-47 -203q-4 -17 -8 -33.5t-4 -27.5q0 -23 25 -23
q23 0 51.5 22t58.5 59l15 -12q-30 -45 -69 -78.5t-84 -33.5q-20 0 -32.5 11.5t-12.5 29.5q0 19 3.5 34t9.5 41l47 202q6 25 11 48t5 41q0 25 -10 35t-30 10q-34 0 -80.5 -24.5t-113.5 -81.5l-26 -125q-10 -52 -20.5 -104t-19.5 -104z" />
    <glyph glyph-name="Itilde" unicode="&#x128;" horiz-adv-x="343" 
d="M124 646l5 28h255l-6 -28l-98 -8l-61 -326q-13 -69 -25 -138t-23 -137l102 -9l-5 -28h-255l6 28l97 8l62 326q13 69 25 138t22 138zM104 746q17 50 44.5 78t67.5 28q29 0 46 -11t32 -28q17 -16 30.5 -29t35.5 -13q24 0 44 18t38 58l20 -7q-17 -49 -44.5 -77.5
t-67.5 -28.5q-30 0 -46.5 11.5t-32.5 27.5q-16 17 -29 30t-35 13q-48 0 -83 -77z" />
    <glyph glyph-name="itilde" unicode="&#x129;" horiz-adv-x="294" 
d="M95 32q0 16 3 30.5t8 40.5l70 328l-114 4l3 20l152 30l13 -10l-77 -361q-4 -16 -7 -32.5t-3 -27.5q0 -24 26 -24q23 0 50.5 21.5t58.5 59.5l15 -12q-32 -45 -68.5 -78.5t-82.5 -33.5q-19 0 -33 12t-14 33zM82 596q13 54 39 79.5t59 25.5q25 0 41 -11.5t33 -30.5
q20 -20 33.5 -31.5t32.5 -11.5q18 0 36.5 18.5t33.5 59.5l18 -8q-16 -52 -40.5 -78t-55.5 -26q-23 0 -39.5 11.5t-35.5 30.5q-19 20 -33.5 31.5t-32.5 11.5q-21 0 -39.5 -18t-32.5 -60z" />
    <glyph glyph-name="Imacron" unicode="&#x12a;" horiz-adv-x="343" 
d="M124 646l5 28h255l-6 -28l-98 -8l-61 -326q-13 -69 -25 -138t-23 -137l102 -9l-5 -28h-255l6 28l97 8l62 326q13 69 25 138t22 138zM124 764l8 39h295l-8 -39h-295z" />
    <glyph glyph-name="imacron" unicode="&#x12b;" horiz-adv-x="294" 
d="M95 32q0 16 3 30.5t8 40.5l70 328l-114 4l3 20l152 30l13 -10l-77 -361q-4 -16 -7 -32.5t-3 -27.5q0 -24 26 -24q23 0 50.5 21.5t58.5 59.5l15 -12q-32 -45 -68.5 -78.5t-82.5 -33.5q-19 0 -33 12t-14 33zM116 624l8 40h228l-8 -40h-228z" />
    <glyph glyph-name="Iogonek" unicode="&#x12e;" horiz-adv-x="343" 
d="M124 646l5 28h255l-6 -28l-98 -8l-61 -326q-13 -69 -25 -138t-23 -137l102 -9l-5 -28h-255l6 28l97 8l62 326q13 69 25 138t22 138zM31 -170q0 45 35 91t79 87h24q-43 -43 -69.5 -83.5t-26.5 -78.5q0 -56 51 -56q19 0 41.5 8t40.5 21l10 -13q-21 -20 -48.5 -34.5
t-56.5 -14.5q-40 0 -60 21t-20 52z" />
    <glyph glyph-name="iogonek" unicode="&#x12f;" horiz-adv-x="294" 
d="M235 649q-16 0 -28 10.5t-12 29.5q0 20 14 33t30 13q17 0 28 -10.5t11 -29.5t-13.5 -32.5t-29.5 -13.5zM95 32q0 16 3 30.5t8 40.5l70 328l-114 4l3 20l152 30l13 -10l-77 -361q-4 -16 -7 -32.5t-3 -27.5q0 -24 26 -24q23 0 50.5 21.5t58.5 59.5l15 -12
q-16 -22 -31.5 -39.5t-35.5 -37.5q-54 -52 -84 -93.5t-30 -82.5q0 -56 51 -56q19 0 41.5 8t40.5 21l10 -13q-21 -20 -48.5 -34.5t-56.5 -14.5q-40 0 -60 21t-20 52q0 40 28.5 81.5t67.5 78.5q-12 -3 -24 -3q-19 0 -33 12t-14 33z" />
    <glyph glyph-name="Idotaccent" unicode="&#x130;" horiz-adv-x="343" 
d="M124 646l5 28h255l-6 -28l-98 -8l-61 -326q-13 -69 -25 -138t-23 -137l102 -9l-5 -28h-255l6 28l97 8l62 326q13 69 25 138t22 138zM274 747q-16 0 -27.5 10t-11.5 29q0 20 13.5 33.5t29.5 13.5q17 0 28 -10.5t11 -28.5q0 -20 -13.5 -33.5t-29.5 -13.5z" />
    <glyph glyph-name="dotlessi" unicode="&#x131;" horiz-adv-x="294" 
d="M95 32q0 16 3 30.5t8 40.5l70 328l-114 4l3 20l152 30l13 -10l-77 -361q-4 -16 -7 -32.5t-3 -27.5q0 -24 26 -24q23 0 50.5 21.5t58.5 59.5l15 -12q-32 -45 -68.5 -78.5t-82.5 -33.5q-19 0 -33 12t-14 33z" />
    <glyph glyph-name="Jcircumflex" unicode="&#x134;" horiz-adv-x="402" 
d="M187 646l6 28h263l-6 -28l-100 -8l-63 -353q-10 -55 -17 -86.5t-16 -58.5q-26 -91 -78 -136.5t-107 -45.5q-37 0 -60 11.5t-28 30.5q7 31 42 31q14 0 31.5 -8t54.5 -31q41 22 67.5 65.5t40.5 116.5q8 42 16 87t19 111q10 56 20 121.5t23 143.5zM360 850l119 -115l-16 -16
l-120 84l-140 -84l-9 16l144 115h22z" />
    <glyph glyph-name="jcircumflex" unicode="&#x135;" horiz-adv-x="250" 
d="M-68 -255l-5 21q26 8 48.5 21t43.5 38q28 33 48 80t36 135l75 391l-116 4l3 20l152 30l13 -10l-88 -450q-15 -79 -40.5 -134.5t-72.5 -97.5q-24 -21 -48 -32t-49 -16zM329 550l-91 135l-137 -135l-13 14l149 177h22l88 -177z" />
    <glyph glyph-name="uni0136" unicode="&#x136;" horiz-adv-x="657" 
d="M480 646l5 28h225l-5 -28l-88 -9l-265 -242l196 -358l91 -9l-5 -28h-237l5 28l90 8l-179 324l-102 -94q-10 -58 -20.5 -115t-19.5 -114l102 -9l-5 -28h-255l6 28l97 8l62 326q13 69 25 138t22 138l-101 8l5 28h255l-6 -28l-98 -8l-61 -326v0l355 325zM254 -238l-10 18
q29 17 45.5 33t28.5 39q-20 13 -27 26.5t-7 26.5q0 14 10.5 23.5t23.5 9.5q18 0 33 -15q2 -9 3.5 -15.5t1.5 -13.5q0 -47 -27 -77.5t-75 -54.5z" />
    <glyph glyph-name="uni0137" unicode="&#x137;" horiz-adv-x="455" 
d="M58 0l102 501q10 48 19 95.5t16 95.5l-110 4l3 20l154 29l8 -9l-93 -463l286 209q11 -1 17.5 -8.5t6.5 -16.5t-6 -16t-23 -17l-270 -163l20 -4q43 -10 67 -34t46 -68l41 -85q14 -27 30.5 -36t40.5 -11l52 -2l-3 -20q-19 -6 -34.5 -8t-29.5 -2q-34 0 -57.5 14.5
t-40.5 53.5l-42 92q-20 43 -37.5 61.5t-52.5 28.5l-17 4l-7 -37l-20 -104l-20 -104l-39 -6zM126 -238l-10 18q29 17 45.5 33t28.5 39q-20 13 -27 26.5t-7 26.5q0 14 10.5 23.5t23.5 9.5q18 0 33 -15q2 -9 3.5 -15.5t1.5 -13.5q0 -47 -27 -77.5t-75 -54.5z" />
    <glyph glyph-name="kgreenlandic" unicode="&#x138;" horiz-adv-x="485" 
d="M131 0l-39 -6l-7 6l91 431l-114 4l3 20l151 30l13 -10l-24 -124l-20 -90l287 221q11 -1 18 -8.5t7 -16.5t-6.5 -15.5t-23.5 -17.5l-269 -173l21 -5q43 -10 65.5 -33.5t46.5 -67.5l41 -75q14 -27 30 -36t40 -11l53 -2l-3 -20q-20 -6 -35.5 -8t-29.5 -2q-33 0 -55 14.5
t-42 53.5l-42 82q-14 28 -25.5 45.5t-26 27.5t-38.5 16l-19 6l-6 -28q-11 -52 -21 -103.5t-21 -104.5z" />
    <glyph glyph-name="Lacute" unicode="&#x139;" horiz-adv-x="550" 
d="M124 646l5 28h259l-6 -28l-102 -9l-61 -325q-13 -70 -25.5 -139.5t-23.5 -139.5h278l46 140h36l-39 -173h-478l6 28l97 8l62 326q13 69 25 138t22 138zM283 738q29 22 57.5 43.5t55.5 40.5q23 17 34 24t23 6q11 0 18 -7t6 -18q-1 -10 -11 -19.5t-40 -23.5
q-65 -30 -133 -62z" />
    <glyph glyph-name="lacute" unicode="&#x13a;" horiz-adv-x="261" 
d="M117 -13q-20 0 -34 13t-14 37q0 14 2.5 28t6.5 38l80 398q10 48 19 95.5t16 95.5l-109 4l3 20l153 29l11 -9l-126 -622q-4 -16 -6.5 -32t-2.5 -26q0 -26 28 -26q21 0 49 22t59 59l15 -12q-31 -45 -67.5 -78.5t-82.5 -33.5zM214 786q29 22 57.5 43.5t55.5 40.5
q23 17 34 24t23 6q11 0 18 -7t6 -18q-1 -10 -11 -19.5t-40 -23.5q-65 -30 -133 -62z" />
    <glyph glyph-name="uni013B" unicode="&#x13b;" horiz-adv-x="550" 
d="M124 646l5 28h259l-6 -28l-102 -9l-61 -325q-13 -70 -25.5 -139.5t-23.5 -139.5h278l46 140h36l-39 -173h-478l6 28l97 8l62 326q13 69 25 138t22 138zM211 -238l-10 18q29 17 45.5 33t28.5 39q-20 13 -27 26.5t-7 26.5q0 14 10.5 23.5t23.5 9.5q18 0 33 -15
q2 -9 3.5 -15.5t1.5 -13.5q0 -47 -27 -77.5t-75 -54.5z" />
    <glyph glyph-name="uni013C" unicode="&#x13c;" horiz-adv-x="261" 
d="M117 -13q-20 0 -34 13t-14 37q0 14 2.5 28t6.5 38l80 398q10 48 19 95.5t16 95.5l-109 4l3 20l153 29l11 -9l-126 -622q-4 -16 -6.5 -32t-2.5 -26q0 -26 28 -26q21 0 49 22t59 59l15 -12q-31 -45 -67.5 -78.5t-82.5 -33.5zM36 -238l-10 18q29 17 45.5 33t28.5 39
q-20 13 -27 26.5t-7 26.5q0 14 10.5 23.5t23.5 9.5q18 0 33 -15q2 -9 3.5 -15.5t1.5 -13.5q0 -47 -27 -77.5t-75 -54.5z" />
    <glyph glyph-name="Lcaron" unicode="&#x13d;" horiz-adv-x="550" 
d="M124 646l5 28h259l-6 -28l-102 -9l-61 -325q-13 -70 -25.5 -139.5t-23.5 -139.5h278l46 140h36l-39 -173h-478l6 28l97 8l62 326q13 69 25 138t22 138zM553 741q14 0 18 -6t4 -14q0 -17 -14 -55.5t-31 -82.5l-27 -66l-21 1l44 217q15 6 27 6z" />
    <glyph glyph-name="lcaron" unicode="&#x13e;" horiz-adv-x="269" 
d="M117 -13q-20 0 -34 13t-14 37q0 14 2.5 28t6.5 38l80 398q10 48 19 95.5t16 95.5l-109 4l3 20l153 29l11 -9l-126 -622q-4 -16 -6.5 -32t-2.5 -26q0 -26 28 -26q21 0 49 22t59 59l15 -12q-31 -45 -67.5 -78.5t-82.5 -33.5zM384 751q14 0 18 -6t4 -14q0 -17 -14 -55.5
t-31 -82.5l-27 -66l-21 1l44 217q15 6 27 6z" />
    <glyph glyph-name="Ldot" unicode="&#x13f;" horiz-adv-x="550" 
d="M124 646l5 28h259l-6 -28l-102 -9l-61 -325q-13 -70 -25.5 -139.5t-23.5 -139.5h278l46 140h36l-39 -173h-478l6 28l97 8l62 326q13 69 25 138t22 138zM461 320q-19 0 -30 11.5t-11 27.5q0 20 14.5 33.5t34.5 13.5q18 0 28.5 -11.5t10.5 -27.5q0 -21 -13.5 -34t-33.5 -13
z" />
    <glyph glyph-name="ldot" unicode="&#x140;" horiz-adv-x="265" 
d="M117 -13q-20 0 -34 13t-14 37q0 14 2.5 28t6.5 38l80 398q10 48 19 95.5t16 95.5l-109 4l3 20l153 29l11 -9l-126 -622q-4 -16 -6.5 -32t-2.5 -26q0 -26 28 -26q21 0 49 22t59 59l15 -12q-31 -45 -67.5 -78.5t-82.5 -33.5zM293 311q-19 0 -30 11.5t-11 27.5
q0 20 14.5 33.5t34.5 13.5q18 0 28.5 -11.5t10.5 -27.5q0 -21 -13.5 -34t-33.5 -13z" />
    <glyph glyph-name="Lslash" unicode="&#x141;" horiz-adv-x="550" 
d="M124 646l5 28h259l-6 -28l-102 -9l-51 -274l202 105l-8 -39l-202 -105l-2 -12q-13 -70 -25.5 -139.5t-23.5 -139.5h278l46 140h36l-39 -173h-478l6 28l97 8l50 261l-122 -62l8 39l121 63l5 25q13 69 25 138t22 138z" />
    <glyph glyph-name="lslash" unicode="&#x142;" horiz-adv-x="261" 
d="M117 -13q-20 0 -34 13t-14 37q0 14 2.5 28t6.5 38l51 254l-105 -52l6 34l106 53l22 109q10 48 19 95.5t16 95.5l-109 4l3 20l153 29l11 -9l-66 -325l107 54l-7 -35l-107 -52l-53 -264q-4 -16 -6.5 -32t-2.5 -26q0 -26 28 -26q21 0 49 22t59 59l15 -12
q-31 -45 -67.5 -78.5t-82.5 -33.5z" />
    <glyph glyph-name="Nacute" unicode="&#x143;" horiz-adv-x="727" 
d="M551 646l6 28h231l-5 -28l-85 -9l-121 -647h-25l-308 596l-103 -549l110 -9l-5 -28h-232l5 28l88 9l113 596l-3 6l-95 7l5 28h135l299 -587l103 550zM422 734q29 22 57.5 43.5t55.5 40.5q23 17 34 24t23 6q11 0 18 -7t6 -18q-1 -10 -11 -19.5t-40 -23.5q-65 -30 -133 -62
z" />
    <glyph glyph-name="nacute" unicode="&#x144;" horiz-adv-x="558" 
d="M131 0l-39 -6l-7 6l91 431l-114 4l3 20l151 30l13 -10l-21 -107q36 35 74.5 61t75 41t63.5 15q32 0 48 -17.5t16 -48.5q0 -24 -5 -47t-12 -51l-49 -207q-4 -17 -8 -33.5t-4 -27.5q0 -23 26 -23q23 0 51.5 22t57.5 59l16 -12q-31 -45 -69.5 -78.5t-84.5 -33.5
q-20 0 -32.5 11.5t-12.5 29.5q0 19 3.5 34t10.5 41l48 206q5 25 10 48t5 41q0 25 -10 35t-29 10q-34 0 -80.5 -24.5t-114.5 -81.5l-29 -129q-12 -52 -21.5 -103.5t-20.5 -104.5zM334 550q20 40 44 84.5t41 78.5q20 39 39 39q10 0 18 -5t8 -17q0 -16 -23 -46
q-22 -30 -52.5 -70t-57.5 -75z" />
    <glyph glyph-name="uni0145" unicode="&#x145;" horiz-adv-x="727" 
d="M551 646l6 28h231l-5 -28l-85 -9l-121 -647h-25l-308 596l-103 -549l110 -9l-5 -28h-232l5 28l88 9l113 596l-3 6l-95 7l5 28h135l299 -587l103 550zM285 -232l-10 18q29 17 45.5 33t28.5 39q-20 13 -27 26.5t-7 26.5q0 14 10.5 23.5t23.5 9.5q18 0 33 -15
q2 -9 3.5 -15.5t1.5 -13.5q0 -47 -27 -77.5t-75 -54.5z" />
    <glyph glyph-name="uni0146" unicode="&#x146;" horiz-adv-x="558" 
d="M131 0l-39 -6l-7 6l91 431l-114 4l3 20l151 30l13 -10l-21 -107q36 35 74.5 61t75 41t63.5 15q32 0 48 -17.5t16 -48.5q0 -24 -5 -47t-12 -51l-49 -207q-4 -17 -8 -33.5t-4 -27.5q0 -23 26 -23q23 0 51.5 22t57.5 59l16 -12q-31 -45 -69.5 -78.5t-84.5 -33.5
q-20 0 -32.5 11.5t-12.5 29.5q0 19 3.5 34t10.5 41l48 206q5 25 10 48t5 41q0 25 -10 35t-29 10q-34 0 -80.5 -24.5t-114.5 -81.5l-29 -129q-12 -52 -21.5 -103.5t-20.5 -104.5zM173 -234l-10 18q29 17 45.5 33t28.5 39q-20 13 -27 26.5t-7 26.5q0 14 10.5 23.5t23.5 9.5
q18 0 33 -15q2 -9 3.5 -15.5t1.5 -13.5q0 -47 -27 -77.5t-75 -54.5z" />
    <glyph glyph-name="Ncaron" unicode="&#x147;" horiz-adv-x="727" 
d="M551 646l6 28h231l-5 -28l-85 -9l-121 -647h-25l-308 596l-103 -549l110 -9l-5 -28h-232l5 28l88 9l113 596l-3 6l-95 7l5 28h135l299 -587l103 550zM360 862l102 -91l131 91l13 -15l-132 -115h-34l-99 115z" />
    <glyph glyph-name="ncaron" unicode="&#x148;" horiz-adv-x="558" 
d="M131 0l-39 -6l-7 6l91 431l-114 4l3 20l151 30l13 -10l-21 -107q36 35 74.5 61t75 41t63.5 15q32 0 48 -17.5t16 -48.5q0 -24 -5 -47t-12 -51l-49 -207q-4 -17 -8 -33.5t-4 -27.5q0 -23 26 -23q23 0 51.5 22t57.5 59l16 -12q-31 -45 -69.5 -78.5t-84.5 -33.5
q-20 0 -32.5 11.5t-12.5 29.5q0 19 3.5 34t10.5 41l48 206q5 25 10 48t5 41q0 25 -10 35t-29 10q-34 0 -80.5 -24.5t-114.5 -81.5l-29 -129q-12 -52 -21.5 -103.5t-20.5 -104.5zM276 751l88 -142l140 143l15 -13l-150 -183h-26l-86 183z" />
    <glyph glyph-name="napostrophe" unicode="&#x149;" horiz-adv-x="754" 
d="M281 0l-39 -6l-7 6l91 431l-114 4l3 20l151 30l13 -10l-21 -107q36 35 74.5 61t75 41t63.5 15q32 0 48 -17.5t16 -48.5q0 -24 -5 -47t-12 -51l-49 -207q-4 -17 -8 -33.5t-4 -27.5q0 -23 26 -23q23 0 51.5 22t57.5 59l16 -12q-31 -45 -69.5 -78.5t-84.5 -33.5
q-20 0 -32.5 11.5t-12.5 29.5q0 19 3.5 34t10.5 41l48 206q5 25 10 48t5 41q0 25 -10 35t-29 10q-34 0 -80.5 -24.5t-114.5 -81.5l-29 -129q-12 -52 -21.5 -103.5t-20.5 -104.5zM230 720q8 0 16 -2t16 -9q5 -8 7 -20.5t2 -23.5q0 -56 -34 -104t-89 -92l-14 18q35 33 57 60
t38 67l-16 20q-21 24 -21 42q0 20 11.5 32t26.5 12z" />
    <glyph glyph-name="Omacron" unicode="&#x14c;" horiz-adv-x="656" 
d="M304 -15q-76 0 -129.5 35t-81.5 97t-28 142q0 90 26 168t73 137t109.5 92t134.5 33q79 0 132 -35t80.5 -97t27.5 -143q0 -90 -25.5 -168t-72 -136.5t-109.5 -91.5t-137 -33zM312 19q60 0 111 29.5t89.5 82.5t59.5 123.5t21 152.5q0 112 -45.5 180t-146.5 68
q-61 0 -112.5 -31t-89 -85t-58.5 -124.5t-21 -148.5q0 -71 20.5 -127t63 -88t108.5 -32zM271 764l8 39h295l-8 -39h-295z" />
    <glyph glyph-name="omacron" unicode="&#x14d;" horiz-adv-x="485" 
d="M217 -13q-39 0 -74.5 18t-58.5 57t-23 100t18.5 119t52 104t78.5 73t97 27q65 0 110 -42.5t45 -134.5q0 -63 -19 -121t-52.5 -103t-78 -71t-95.5 -26zM223 15q42 0 76.5 25t60 66t39.5 91t14 100q0 85 -31 122t-80 37q-42 0 -77 -24.5t-61 -66t-40 -92.5t-14 -103
q0 -81 33 -118t80 -37zM233 624l8 40h228l-8 -40h-228z" />
    <glyph glyph-name="uni014E" unicode="&#x14e;" horiz-adv-x="656" 
d="M304 -15q-76 0 -129.5 35t-81.5 97t-28 142q0 90 26 168t73 137t109.5 92t134.5 33q79 0 132 -35t80.5 -97t27.5 -143q0 -90 -25.5 -168t-72 -136.5t-109.5 -91.5t-137 -33zM312 19q60 0 111 29.5t89.5 82.5t59.5 123.5t21 152.5q0 112 -45.5 180t-146.5 68
q-61 0 -112.5 -31t-89 -85t-58.5 -124.5t-21 -148.5q0 -71 20.5 -127t63 -88t108.5 -32zM411 735q-61 0 -90.5 36.5t-34.5 82.5l21 9q9 -40 37 -64t74 -24q42 0 73.5 24t50.5 64l23 -7q-17 -48 -54.5 -84.5t-99.5 -36.5z" />
    <glyph glyph-name="uni014F" unicode="&#x14f;" horiz-adv-x="485" 
d="M217 -13q-39 0 -74.5 18t-58.5 57t-23 100t18.5 119t52 104t78.5 73t97 27q65 0 110 -42.5t45 -134.5q0 -63 -19 -121t-52.5 -103t-78 -71t-95.5 -26zM223 15q42 0 76.5 25t60 66t39.5 91t14 100q0 85 -31 122t-80 37q-42 0 -77 -24.5t-61 -66t-40 -92.5t-14 -103
q0 -81 33 -118t80 -37zM334 581q-66 0 -96.5 41t-32.5 101l23 9q9 -46 34.5 -77.5t77.5 -31.5q47 0 80.5 29.5t55.5 78.5l22 -7q-19 -61 -60.5 -102t-103.5 -41z" />
    <glyph glyph-name="Ohungarumlaut" unicode="&#x150;" horiz-adv-x="656" 
d="M304 -15q-76 0 -129.5 35t-81.5 97t-28 142q0 90 26 168t73 137t109.5 92t134.5 33q79 0 132 -35t80.5 -97t27.5 -143q0 -90 -25.5 -168t-72 -136.5t-109.5 -91.5t-137 -33zM312 19q60 0 111 29.5t89.5 82.5t59.5 123.5t21 152.5q0 112 -45.5 180t-146.5 68
q-61 0 -112.5 -31t-89 -85t-58.5 -124.5t-21 -148.5q0 -71 20.5 -127t63 -88t108.5 -32zM338 735l97 113q11 14 21 19t18 5q22 0 22 -19q0 -18 -24 -36l-118 -96zM483 734l98 114q11 14 21 19t18 5q22 0 22 -19q0 -18 -24 -36l-119 -97z" />
    <glyph glyph-name="ohungarumlaut" unicode="&#x151;" horiz-adv-x="485" 
d="M217 -13q-39 0 -74.5 18t-58.5 57t-23 100t18.5 119t52 104t78.5 73t97 27q65 0 110 -42.5t45 -134.5q0 -63 -19 -121t-52.5 -103t-78 -71t-95.5 -26zM223 15q42 0 76.5 25t60 66t39.5 91t14 100q0 85 -31 122t-80 37q-42 0 -77 -24.5t-61 -66t-40 -92.5t-14 -103
q0 -81 33 -118t80 -37zM243 567l87 138q19 32 38 32q10 0 16.5 -5.5t6.5 -15.5q0 -19 -22 -41l-109 -120zM382 567l87 138q19 32 39 32q22 0 22 -21q0 -19 -22 -41l-109 -120z" />
    <glyph glyph-name="OE" unicode="&#x152;" horiz-adv-x="880" 
d="M120 265q0 -73 25 -129t73.5 -87t118.5 -31q22 0 41.5 3t38.5 7l64 334q14 71 26 143t24 142q-36 9 -83 9q-71 0 -131 -30.5t-104 -84t-68.5 -124.5t-24.5 -152zM437 0q-24 -4 -51.5 -9.5t-56.5 -5.5q-79 0 -138.5 34t-92.5 96.5t-33 147.5q0 90 30 167.5t82.5 135.5
t122 90.5t148.5 32.5q36 0 64 -5t51 -10h329l-21 -163h-34l5 130h-258l-53 -283h181l30 96h28l-43 -224h-28l7 96h-181l-3 -14q-13 -70 -25.5 -139.5t-23.5 -139.5h293l44 130h34l-39 -163h-368z" />
    <glyph glyph-name="oe" unicode="&#x153;" horiz-adv-x="747" 
d="M221 15q41 0 76.5 25t61.5 67t40.5 92t14.5 101q0 83 -30 119.5t-79 36.5q-42 0 -78 -25t-62.5 -66.5t-41 -92.5t-14.5 -104q0 -80 32.5 -116.5t79.5 -36.5zM649 456q-33 0 -67.5 -21.5t-63.5 -58.5t-48.5 -83t-22.5 -95q134 38 200 91t66 108q0 29 -17.5 44t-46.5 15z
M548 -13q-50 0 -90 30.5t-51 98.5q-34 -58 -84 -93.5t-108 -35.5q-39 0 -74 18t-57.5 56t-22.5 98q0 62 19 120t53 104.5t79.5 74t97.5 27.5q53 0 93.5 -32.5t51.5 -103.5q36 59 90.5 97.5t115.5 38.5q41 0 67 -20.5t26 -61.5q0 -62 -74.5 -124.5t-233.5 -106.5
q2 -73 33.5 -107.5t83.5 -34.5q45 0 79.5 23t61.5 58l16 -12q-32 -49 -75 -80.5t-97 -31.5z" />
    <glyph glyph-name="Racute" unicode="&#x154;" horiz-adv-x="632" 
d="M358 642h-77l-57 -298h106q89 0 138.5 48t49.5 120q0 61 -37.5 95.5t-122.5 34.5zM124 646l5 28h240q98 0 150.5 -41.5t52.5 -118.5q0 -74 -52.5 -129.5t-147.5 -66.5q26 -10 41.5 -34t34.5 -70l73 -179l102 -8l-6 -27q-12 -2 -29.5 -4.5t-43.5 -2.5q-35 0 -52 11t-28 40
l-66 169q-17 44 -31 65.5t-32.5 28.5t-50.5 7h-65q-13 -69 -25 -138.5t-23 -138.5l107 -9l-6 -28h-259l6 28l97 8l62 326q13 69 25 138t22 138zM357 738q29 22 57.5 43.5t55.5 40.5q23 17 34 24t23 6q11 0 18 -7t6 -18q-1 -10 -11 -19.5t-40 -23.5q-65 -30 -133 -62z" />
    <glyph glyph-name="racute" unicode="&#x155;" horiz-adv-x="387" 
d="M85 0l91 431l-114 4l3 20l148 30l13 -10l-27 -145q22 40 47.5 75.5t54 57.5t57.5 22q47 0 62 -25q-1 -17 -10 -27.5t-26 -10.5q-16 0 -31.5 7t-30.5 18q-36 -25 -69.5 -70t-65.5 -103l-14 -66q-11 -52 -21 -103.5t-21 -104.5l-39 -6zM269 550q20 40 44 84.5t41 78.5
q20 39 39 39q10 0 18 -5t8 -17q0 -16 -23 -46q-22 -30 -52.5 -70t-57.5 -75z" />
    <glyph glyph-name="uni0156" unicode="&#x156;" horiz-adv-x="632" 
d="M358 642h-77l-57 -298h106q89 0 138.5 48t49.5 120q0 61 -37.5 95.5t-122.5 34.5zM124 646l5 28h240q98 0 150.5 -41.5t52.5 -118.5q0 -74 -52.5 -129.5t-147.5 -66.5q26 -10 41.5 -34t34.5 -70l73 -179l102 -8l-6 -27q-12 -2 -29.5 -4.5t-43.5 -2.5q-35 0 -52 11t-28 40
l-66 169q-17 44 -31 65.5t-32.5 28.5t-50.5 7h-65q-13 -69 -25 -138.5t-23 -138.5l107 -9l-6 -28h-259l6 28l97 8l62 326q13 69 25 138t22 138zM271 -238l-10 18q29 17 45.5 33t28.5 39q-20 13 -27 26.5t-7 26.5q0 14 10.5 23.5t23.5 9.5q18 0 33 -15q2 -9 3.5 -15.5
t1.5 -13.5q0 -47 -27 -77.5t-75 -54.5z" />
    <glyph glyph-name="uni0157" unicode="&#x157;" horiz-adv-x="387" 
d="M85 0l91 431l-114 4l3 20l148 30l13 -10l-27 -145q22 40 47.5 75.5t54 57.5t57.5 22q47 0 62 -25q-1 -17 -10 -27.5t-26 -10.5q-16 0 -31.5 7t-30.5 18q-36 -25 -69.5 -70t-65.5 -103l-14 -66q-11 -52 -21 -103.5t-21 -104.5l-39 -6zM25 -238l-10 18q29 17 45.5 33
t28.5 39q-20 13 -27 26.5t-7 26.5q0 14 10.5 23.5t23.5 9.5q18 0 33 -15q2 -9 3.5 -15.5t1.5 -13.5q0 -47 -27 -77.5t-75 -54.5z" />
    <glyph glyph-name="Rcaron" unicode="&#x158;" horiz-adv-x="632" 
d="M358 642h-77l-57 -298h106q89 0 138.5 48t49.5 120q0 61 -37.5 95.5t-122.5 34.5zM124 646l5 28h240q98 0 150.5 -41.5t52.5 -118.5q0 -74 -52.5 -129.5t-147.5 -66.5q26 -10 41.5 -34t34.5 -70l73 -179l102 -8l-6 -27q-12 -2 -29.5 -4.5t-43.5 -2.5q-35 0 -52 11t-28 40
l-66 169q-17 44 -31 65.5t-32.5 28.5t-50.5 7h-65q-13 -69 -25 -138.5t-23 -138.5l107 -9l-6 -28h-259l6 28l97 8l62 326q13 69 25 138t22 138zM294 866l102 -91l131 91l13 -15l-132 -115h-34l-99 115z" />
    <glyph glyph-name="rcaron" unicode="&#x159;" horiz-adv-x="387" 
d="M85 0l91 431l-114 4l3 20l148 30l13 -10l-27 -145q22 40 47.5 75.5t54 57.5t57.5 22q47 0 62 -25q-1 -17 -10 -27.5t-26 -10.5q-16 0 -31.5 7t-30.5 18q-36 -25 -69.5 -70t-65.5 -103l-14 -66q-11 -52 -21 -103.5t-21 -104.5l-39 -6zM201 751l88 -142l140 143l15 -13
l-150 -183h-26l-86 183z" />
    <glyph glyph-name="Sacute" unicode="&#x15a;" horiz-adv-x="506" 
d="M38 38l19 130h36l2 -123q27 -13 55.5 -20t62.5 -7q83 0 129 38t46 99q0 31 -11 54.5t-37.5 49.5t-74.5 62q-73 56 -100.5 98.5t-27.5 91.5q0 56 27.5 95.5t74 61t102.5 21.5q49 0 86 -11t79 -34l-23 -130h-37l4 118q-29 14 -53.5 19t-52.5 5q-70 0 -115 -34.5t-45 -98.5
q0 -31 10.5 -55.5t34.5 -48.5t64 -54q54 -41 85.5 -73t45 -61.5t13.5 -65.5q0 -56 -28.5 -96.5t-79 -62t-116.5 -21.5q-52 0 -98.5 15t-76.5 38zM340 738q29 22 57.5 43.5t55.5 40.5q23 17 34 24t23 6q11 0 18 -7t6 -18q-1 -10 -11 -19.5t-40 -23.5q-65 -30 -133 -62z" />
    <glyph glyph-name="sacute" unicode="&#x15b;" horiz-adv-x="366" 
d="M322 122q0 -63 -44.5 -99t-112.5 -36q-55 0 -84.5 22.5t-40.5 68.5q2 10 9.5 16.5t16.5 6.5q24 0 33 -27l16 -53q20 -6 44 -6q56 0 88 27t32 69q0 29 -16 54t-60 55q-41 29 -65 59t-24 73q0 59 41 96t107 37q45 0 75.5 -20.5t40.5 -57.5q-5 -21 -27 -21q-24 0 -35 30
l-15 36q-17 5 -33 5q-56 0 -83 -27t-27 -66q0 -37 17.5 -58t58.5 -52q49 -36 68.5 -65t19.5 -67zM263 550q20 40 44 84.5t41 78.5q20 39 39 39q10 0 18 -5t8 -17q0 -16 -23 -46q-22 -30 -52.5 -70t-57.5 -75z" />
    <glyph glyph-name="Scircumflex" unicode="&#x15c;" horiz-adv-x="506" 
d="M38 38l19 130h36l2 -123q27 -13 55.5 -20t62.5 -7q83 0 129 38t46 99q0 31 -11 54.5t-37.5 49.5t-74.5 62q-73 56 -100.5 98.5t-27.5 91.5q0 56 27.5 95.5t74 61t102.5 21.5q49 0 86 -11t79 -34l-23 -130h-37l4 118q-29 14 -53.5 19t-52.5 5q-70 0 -115 -34.5t-45 -98.5
q0 -31 10.5 -55.5t34.5 -48.5t64 -54q54 -41 85.5 -73t45 -61.5t13.5 -65.5q0 -56 -28.5 -96.5t-79 -62t-116.5 -21.5q-52 0 -98.5 15t-76.5 38zM379 850l119 -115l-16 -16l-120 84l-140 -84l-9 16l144 115h22z" />
    <glyph glyph-name="scircumflex" unicode="&#x15d;" horiz-adv-x="366" 
d="M322 122q0 -63 -44.5 -99t-112.5 -36q-55 0 -84.5 22.5t-40.5 68.5q2 10 9.5 16.5t16.5 6.5q24 0 33 -27l16 -53q20 -6 44 -6q56 0 88 27t32 69q0 29 -16 54t-60 55q-41 29 -65 59t-24 73q0 59 41 96t107 37q45 0 75.5 -20.5t40.5 -57.5q-5 -21 -27 -21q-24 0 -35 30
l-15 36q-17 5 -33 5q-56 0 -83 -27t-27 -66q0 -37 17.5 -58t58.5 -52q49 -36 68.5 -65t19.5 -67zM387 550l-91 135l-137 -135l-13 14l149 177h22l88 -177z" />
    <glyph glyph-name="uni015E" unicode="&#x15e;" horiz-adv-x="506" 
d="M38 38l19 130h36l2 -123q27 -13 55.5 -20t62.5 -7q83 0 129 38t46 99q0 31 -11 54.5t-37.5 49.5t-74.5 62q-73 56 -100.5 98.5t-27.5 91.5q0 56 27.5 95.5t74 61t102.5 21.5q49 0 86 -11t79 -34l-23 -130h-37l4 118q-29 14 -53.5 19t-52.5 5q-70 0 -115 -34.5t-45 -98.5
q0 -31 10.5 -55.5t34.5 -48.5t64 -54q54 -41 85.5 -73t45 -61.5t13.5 -65.5q0 -56 -28.5 -96.5t-79 -62t-116.5 -21.5q-52 0 -98.5 15t-76.5 38zM165 -85l43 85h20l-34 -71q43 -15 65.5 -33t22.5 -49t-27 -50.5t-71 -19.5q-48 0 -80 19l8 19q15 -7 31.5 -11t35.5 -4
q29 0 47 13.5t18 35.5q0 27 -19 41t-60 25z" />
    <glyph glyph-name="uni015F" unicode="&#x15f;" horiz-adv-x="366" 
d="M322 122q0 -63 -44.5 -99t-112.5 -36q-55 0 -84.5 22.5t-40.5 68.5q2 10 9.5 16.5t16.5 6.5q24 0 33 -27l16 -53q20 -6 44 -6q56 0 88 27t32 69q0 29 -16 54t-60 55q-41 29 -65 59t-24 73q0 59 41 96t107 37q45 0 75.5 -20.5t40.5 -57.5q-5 -21 -27 -21q-24 0 -35 30
l-15 36q-17 5 -33 5q-56 0 -83 -27t-27 -66q0 -37 17.5 -58t58.5 -52q49 -36 68.5 -65t19.5 -67zM124 -85l43 85h20l-34 -71q43 -15 65.5 -33t22.5 -49t-27 -50.5t-71 -19.5q-48 0 -80 19l8 19q15 -7 31.5 -11t35.5 -4q29 0 47 13.5t18 35.5q0 27 -19 41t-60 25z" />
    <glyph glyph-name="Scaron" unicode="&#x160;" horiz-adv-x="506" 
d="M38 38l19 130h36l2 -123q27 -13 55.5 -20t62.5 -7q83 0 129 38t46 99q0 31 -11 54.5t-37.5 49.5t-74.5 62q-73 56 -100.5 98.5t-27.5 91.5q0 56 27.5 95.5t74 61t102.5 21.5q49 0 86 -11t79 -34l-23 -130h-37l4 118q-29 14 -53.5 19t-52.5 5q-70 0 -115 -34.5t-45 -98.5
q0 -31 10.5 -55.5t34.5 -48.5t64 -54q54 -41 85.5 -73t45 -61.5t13.5 -65.5q0 -56 -28.5 -96.5t-79 -62t-116.5 -21.5q-52 0 -98.5 15t-76.5 38zM273 866l102 -91l131 91l13 -15l-132 -115h-34l-99 115z" />
    <glyph glyph-name="scaron" unicode="&#x161;" horiz-adv-x="366" 
d="M322 122q0 -63 -44.5 -99t-112.5 -36q-55 0 -84.5 22.5t-40.5 68.5q2 10 9.5 16.5t16.5 6.5q24 0 33 -27l16 -53q20 -6 44 -6q56 0 88 27t32 69q0 29 -16 54t-60 55q-41 29 -65 59t-24 73q0 59 41 96t107 37q45 0 75.5 -20.5t40.5 -57.5q-5 -21 -27 -21q-24 0 -35 30
l-15 36q-17 5 -33 5q-56 0 -83 -27t-27 -66q0 -37 17.5 -58t58.5 -52q49 -36 68.5 -65t19.5 -67zM197 751l88 -142l140 143l15 -13l-150 -183h-26l-86 183z" />
    <glyph glyph-name="uni0162" unicode="&#x162;" horiz-adv-x="595" 
d="M84 505l39 169h529l-24 -169h-35l6 136h-191l-62 -329q-13 -69 -24.5 -138t-22.5 -137l108 -9l-6 -28h-265l6 28l102 8l61 326q14 70 25.5 140t23.5 139h-190l-45 -136h-35zM214 -85l43 85h20l-34 -71q43 -15 65.5 -33t22.5 -49t-27 -50.5t-71 -19.5q-48 0 -80 19l8 19
q15 -7 31.5 -11t35.5 -4q29 0 47 13.5t18 35.5q0 27 -19 41t-60 25z" />
    <glyph glyph-name="uni0163" unicode="&#x163;" horiz-adv-x="324" 
d="M105 103l72 339h-115l5 25l119 8l37 134h34l-28 -134h135l-5 -37l-138 4l-69 -328q-4 -16 -7 -32t-3 -27q0 -25 27 -25q23 0 51 21.5t59 59.5l15 -12q-31 -45 -69 -78.5t-84 -33.5q-19 0 -32.5 12t-13.5 33q0 16 2 30.5t8 40.5zM104 -85l43 85h20l-34 -71
q43 -15 65.5 -33t22.5 -49t-27 -50.5t-71 -19.5q-48 0 -80 19l8 19q15 -7 31.5 -11t35.5 -4q29 0 47 13.5t18 35.5q0 27 -19 41t-60 25z" />
    <glyph glyph-name="Tcaron" unicode="&#x164;" horiz-adv-x="595" 
d="M84 505l39 169h529l-24 -169h-35l6 136h-191l-62 -329q-13 -69 -24.5 -138t-22.5 -137l108 -9l-6 -28h-265l6 28l102 8l61 326q14 70 25.5 140t23.5 139h-190l-45 -136h-35zM295 866l102 -91l131 91l13 -15l-132 -115h-34l-99 115z" />
    <glyph glyph-name="tcaron" unicode="&#x165;" horiz-adv-x="324" 
d="M105 103l72 339h-115l5 25l119 8l37 134h34l-28 -134h135l-5 -37l-138 4l-69 -328q-4 -16 -7 -32t-3 -27q0 -25 27 -25q23 0 51 21.5t59 59.5l15 -12q-31 -45 -69 -78.5t-84 -33.5q-19 0 -32.5 12t-13.5 33q0 16 2 30.5t8 40.5zM410 754q14 0 18 -6t4 -14
q0 -17 -14 -55.5t-31 -82.5l-27 -66l-21 1l44 217q15 6 27 6z" />
    <glyph glyph-name="Utilde" unicode="&#x168;" horiz-adv-x="720" 
d="M534 646l6 28h238l-6 -28l-92 -9l-72 -380q-27 -145 -93.5 -208.5t-180.5 -63.5q-93 0 -147 46t-54 137q0 21 3.5 45.5t7.5 49.5l18 98q14 69 26 138.5t24 138.5l-97 8l5 28h249l-6 -28l-99 -8l-69 -373q-4 -22 -7 -44t-3 -48q-1 -72 44 -108t112 -36q69 0 114 22
t74.5 77.5t48.5 154.5l67 354zM320 746q17 50 44.5 78t67.5 28q29 0 46 -11t32 -28q17 -16 30.5 -29t35.5 -13q24 0 44 18t38 58l20 -7q-17 -49 -44.5 -77.5t-67.5 -28.5q-30 0 -46.5 11.5t-32.5 27.5q-16 17 -29 30t-35 13q-48 0 -83 -77z" />
    <glyph glyph-name="utilde" unicode="&#x169;" horiz-adv-x="555" 
d="M161 -13q-28 0 -46 16.5t-18 53.5q0 29 7 64t14 65l54 246l-107 3l4 21l145 29l13 -10l-62 -274q-7 -31 -13.5 -68.5t-6.5 -57.5q0 -44 42 -44q32 0 76.5 21.5t111.5 78.5l30 144q11 48 20.5 96.5t18.5 96.5l38 17l10 -8l-77 -363q-3 -16 -6.5 -32.5t-3.5 -27.5
q0 -24 27 -24q23 0 51 21.5t59 59.5l16 -12q-33 -45 -70 -78.5t-81 -33.5q-20 0 -34.5 12.5t-14.5 35.5q0 14 2.5 28t8.5 39q-61 -58 -111 -86.5t-97 -28.5zM197 596q13 54 39 79.5t59 25.5q25 0 41 -11.5t33 -30.5q20 -20 33.5 -31.5t32.5 -11.5q18 0 36.5 18.5t33.5 59.5
l18 -8q-16 -52 -40.5 -78t-55.5 -26q-23 0 -39.5 11.5t-35.5 30.5q-19 20 -33.5 31.5t-32.5 11.5q-21 0 -39.5 -18t-32.5 -60z" />
    <glyph glyph-name="Umacron" unicode="&#x16a;" horiz-adv-x="720" 
d="M534 646l6 28h238l-6 -28l-92 -9l-72 -380q-27 -145 -93.5 -208.5t-180.5 -63.5q-93 0 -147 46t-54 137q0 21 3.5 45.5t7.5 49.5l18 98q14 69 26 138.5t24 138.5l-97 8l5 28h249l-6 -28l-99 -8l-69 -373q-4 -22 -7 -44t-3 -48q-1 -72 44 -108t112 -36q69 0 114 22
t74.5 77.5t48.5 154.5l67 354zM322 764l8 39h295l-8 -39h-295z" />
    <glyph glyph-name="umacron" unicode="&#x16b;" horiz-adv-x="555" 
d="M161 -13q-28 0 -46 16.5t-18 53.5q0 29 7 64t14 65l54 246l-107 3l4 21l145 29l13 -10l-62 -274q-7 -31 -13.5 -68.5t-6.5 -57.5q0 -44 42 -44q32 0 76.5 21.5t111.5 78.5l30 144q11 48 20.5 96.5t18.5 96.5l38 17l10 -8l-77 -363q-3 -16 -6.5 -32.5t-3.5 -27.5
q0 -24 27 -24q23 0 51 21.5t59 59.5l16 -12q-33 -45 -70 -78.5t-81 -33.5q-20 0 -34.5 12.5t-14.5 35.5q0 14 2.5 28t8.5 39q-61 -58 -111 -86.5t-97 -28.5zM257 624l8 40h228l-8 -40h-228z" />
    <glyph glyph-name="Ubreve" unicode="&#x16c;" horiz-adv-x="720" 
d="M534 646l6 28h238l-6 -28l-92 -9l-72 -380q-27 -145 -93.5 -208.5t-180.5 -63.5q-93 0 -147 46t-54 137q0 21 3.5 45.5t7.5 49.5l18 98q14 69 26 138.5t24 138.5l-97 8l5 28h249l-6 -28l-99 -8l-69 -373q-4 -22 -7 -44t-3 -48q-1 -72 44 -108t112 -36q69 0 114 22
t74.5 77.5t48.5 154.5l67 354zM473 735q-61 0 -90.5 36.5t-34.5 82.5l21 9q9 -40 37 -64t74 -24q42 0 73.5 24t50.5 64l23 -7q-17 -48 -54.5 -84.5t-99.5 -36.5z" />
    <glyph glyph-name="ubreve" unicode="&#x16d;" horiz-adv-x="555" 
d="M161 -13q-28 0 -46 16.5t-18 53.5q0 29 7 64t14 65l54 246l-107 3l4 21l145 29l13 -10l-62 -274q-7 -31 -13.5 -68.5t-6.5 -57.5q0 -44 42 -44q32 0 76.5 21.5t111.5 78.5l30 144q11 48 20.5 96.5t18.5 96.5l38 17l10 -8l-77 -363q-3 -16 -6.5 -32.5t-3.5 -27.5
q0 -24 27 -24q23 0 51 21.5t59 59.5l16 -12q-33 -45 -70 -78.5t-81 -33.5q-20 0 -34.5 12.5t-14.5 35.5q0 14 2.5 28t8.5 39q-61 -58 -111 -86.5t-97 -28.5zM360 581q-66 0 -96.5 41t-32.5 101l23 9q9 -46 34.5 -77.5t77.5 -31.5q47 0 80.5 29.5t55.5 78.5l22 -7
q-19 -61 -60.5 -102t-103.5 -41z" />
    <glyph glyph-name="Uring" unicode="&#x16e;" horiz-adv-x="720" 
d="M534 646l6 28h238l-6 -28l-92 -9l-72 -380q-27 -145 -93.5 -208.5t-180.5 -63.5q-93 0 -147 46t-54 137q0 21 3.5 45.5t7.5 49.5l18 98q14 69 26 138.5t24 138.5l-97 8l5 28h249l-6 -28l-99 -8l-69 -373q-4 -22 -7 -44t-3 -48q-1 -72 44 -108t112 -36q69 0 114 22
t74.5 77.5t48.5 154.5l67 354zM473 718q-35 0 -58 21.5t-23 56.5q0 30 14.5 51.5t37 32.5t45.5 11q35 0 57.5 -20.5t22.5 -55.5q0 -46 -30.5 -71.5t-65.5 -25.5zM475 743q27 0 45 21t18 48q0 22 -12.5 38t-37.5 16q-26 0 -45.5 -20t-19.5 -48q0 -22 13.5 -38.5t38.5 -16.5z
" />
    <glyph glyph-name="uring" unicode="&#x16f;" horiz-adv-x="555" 
d="M161 -13q-28 0 -46 16.5t-18 53.5q0 29 7 64t14 65l54 246l-107 3l4 21l145 29l13 -10l-62 -274q-7 -31 -13.5 -68.5t-6.5 -57.5q0 -44 42 -44q32 0 76.5 21.5t111.5 78.5l30 144q11 48 20.5 96.5t18.5 96.5l38 17l10 -8l-77 -363q-3 -16 -6.5 -32.5t-3.5 -27.5
q0 -24 27 -24q23 0 51 21.5t59 59.5l16 -12q-33 -45 -70 -78.5t-81 -33.5q-20 0 -34.5 12.5t-14.5 35.5q0 14 2.5 28t8.5 39q-61 -58 -111 -86.5t-97 -28.5zM359 561q-37 0 -61.5 23t-24.5 60q0 33 15.5 55.5t39 34.5t48.5 12q35 0 60.5 -22.5t25.5 -59.5q0 -33 -15.5 -56
t-39 -35t-48.5 -12zM360 588q29 0 49 21.5t20 52.5q0 23 -14 40.5t-40 17.5q-31 0 -50 -22.5t-19 -51.5q0 -22 13.5 -40t40.5 -18z" />
    <glyph glyph-name="Uhungarumlaut" unicode="&#x170;" horiz-adv-x="720" 
d="M534 646l6 28h238l-6 -28l-92 -9l-72 -380q-27 -145 -93.5 -208.5t-180.5 -63.5q-93 0 -147 46t-54 137q0 21 3.5 45.5t7.5 49.5l18 98q14 69 26 138.5t24 138.5l-97 8l5 28h249l-6 -28l-99 -8l-69 -373q-4 -22 -7 -44t-3 -48q-1 -72 44 -108t112 -36q69 0 114 22
t74.5 77.5t48.5 154.5l67 354zM375 735l97 113q11 14 21 19t18 5q22 0 22 -19q0 -18 -24 -36l-118 -96zM520 734l98 114q11 14 21 19t18 5q22 0 22 -19q0 -18 -24 -36l-119 -97z" />
    <glyph glyph-name="uhungarumlaut" unicode="&#x171;" horiz-adv-x="555" 
d="M161 -13q-28 0 -46 16.5t-18 53.5q0 29 7 64t14 65l54 246l-107 3l4 21l145 29l13 -10l-62 -274q-7 -31 -13.5 -68.5t-6.5 -57.5q0 -44 42 -44q32 0 76.5 21.5t111.5 78.5l30 144q11 48 20.5 96.5t18.5 96.5l38 17l10 -8l-77 -363q-3 -16 -6.5 -32.5t-3.5 -27.5
q0 -24 27 -24q23 0 51 21.5t59 59.5l16 -12q-33 -45 -70 -78.5t-81 -33.5q-20 0 -34.5 12.5t-14.5 35.5q0 14 2.5 28t8.5 39q-61 -58 -111 -86.5t-97 -28.5zM268 573l87 138q19 32 38 32q10 0 16.5 -5.5t6.5 -15.5q0 -19 -22 -41l-109 -120zM407 573l87 138q19 32 39 32
q22 0 22 -21q0 -19 -22 -41l-109 -120z" />
    <glyph glyph-name="Uogonek" unicode="&#x172;" horiz-adv-x="720" 
d="M534 646l6 28h238l-6 -28l-92 -9l-72 -380q-16 -85 -41.5 -137t-70.5 -90q-53 -44 -88.5 -93.5t-35.5 -90.5q0 -56 51 -56q19 0 41.5 8t40.5 21l10 -13q-21 -20 -48.5 -34.5t-56.5 -14.5q-40 0 -60 21t-20 52q0 42 32 86t75 84q-45 -15 -103 -15q-91 0 -146 46.5
t-55 136.5q0 21 3.5 45.5t7.5 49.5l18 98q14 69 26 138.5t24 138.5l-97 8l5 28h249l-6 -28l-99 -8l-69 -373q-4 -22 -6.5 -42t-2.5 -46q-1 -74 43.5 -111t111.5 -37q73 0 118 22.5t72.5 78t46.5 153.5l67 354z" />
    <glyph glyph-name="uogonek" unicode="&#x173;" horiz-adv-x="555" 
d="M161 -13q-28 0 -46 16.5t-18 53.5q0 29 7 64t14 65l54 246l-107 3l4 21l145 29l13 -10l-62 -274q-7 -31 -13.5 -68.5t-6.5 -57.5q0 -44 42 -44q32 0 76.5 21.5t111.5 78.5l30 144q11 48 20.5 96.5t18.5 96.5l38 17l10 -8l-77 -363q-3 -16 -6.5 -32.5t-3.5 -27.5
q0 -24 27 -24q23 0 51 21.5t59 59.5l16 -12q-16 -22 -33 -42t-40 -40q-44 -39 -77 -84.5t-33 -86.5q0 -56 52 -56q19 0 41.5 8t40.5 21l10 -13q-21 -20 -49 -34.5t-57 -14.5q-40 0 -59.5 21t-19.5 52q0 40 28 81t68 79q-12 -3 -23 -3q-20 0 -34.5 12.5t-14.5 35.5
q0 14 2.5 28t8.5 39q-61 -58 -111 -86.5t-97 -28.5z" />
    <glyph glyph-name="Wcircumflex" unicode="&#x174;" horiz-adv-x="880" 
d="M759 646l5 28h226l-5 -28l-94 -9l-285 -647h-27l-73 585l-275 -585h-27l-51 648l-87 8l5 28h241l-5 -28l-101 -9l36 -557l260 557l-96 9l5 28h242l-5 -28l-100 -9l65 -562l241 562zM564 850l119 -115l-16 -16l-120 84l-140 -84l-9 16l144 115h22z" />
    <glyph glyph-name="wcircumflex" unicode="&#x175;" horiz-adv-x="728" 
d="M187 -4q-2 128 -6.5 219.5t-15.5 170.5q-4 35 -13 45.5t-23 10.5q-16 0 -33.5 -15t-43.5 -61l-17 10q26 58 53.5 83.5t58.5 25.5q27 0 42 -17.5t21 -61.5q9 -72 13 -158.5t4 -184.5q62 93 117.5 193.5t103.5 215.5h24q2 -45 5 -100.5t5.5 -114t4.5 -111t3 -91.5
q39 47 69.5 88t57 84t51.5 94q5 10 8.5 19t7.5 19l-6 32q-5 25 -5 45q0 25 12 37t27 12q16 -1 22 -9q5 -9 5 -30q0 -17 -7 -48t-37 -90q-37 -77 -93 -155t-131 -159l-16 -2l-5 4q-2 57 -5.5 123.5t-6.5 129.5t-6 110q-24 -50 -58.5 -111.5t-76 -126.5t-88.5 -127l-16 -2z
M583 550l-91 135l-137 -135l-13 14l149 177h22l88 -177z" />
    <glyph glyph-name="Ycircumflex" unicode="&#x176;" horiz-adv-x="556" 
d="M65 646l6 28h239l-5 -28l-101 -8l114 -329l219 328l-99 9l5 28h224l-6 -28l-88 -9l-246 -362q-11 -59 -22 -119t-22 -119l112 -9l-6 -28h-275l6 28l111 8l44 238l-129 364zM406 850l119 -115l-16 -16l-120 84l-140 -84l-9 16l144 115h22z" />
    <glyph glyph-name="ycircumflex" unicode="&#x177;" horiz-adv-x="469" 
d="M-80 -197q3 16 14 23.5t26 7.5q14 0 27 -6t29 -18l13 -10q46 26 88 68q46 46 88 106q-4 78 -9.5 139.5t-12 117t-15.5 115.5q-6 41 -11 61.5t-11.5 27.5t-17.5 7q-14 0 -31.5 -14t-44.5 -62l-17 10q27 60 55.5 84.5t57.5 24.5q28 0 42.5 -21t21.5 -86q10 -84 16.5 -169
t10.5 -180q58 101 100 188.5t60 149.5q16 51 26 76.5t18 34.5t18 9q25 0 25 -23q0 -11 -3 -22.5t-13 -31.5q-13 -29 -27.5 -58t-37.5 -73q-30 -58 -55 -104.5t-48 -87t-49 -81.5q-28 -43 -55.5 -80t-62.5 -75q-38 -40 -78.5 -67t-72.5 -27q-26 0 -43 12.5t-21 33.5zM444 550
l-91 135l-137 -135l-13 14l149 177h22l88 -177z" />
    <glyph glyph-name="Ydieresis" unicode="&#x178;" horiz-adv-x="556" 
d="M65 646l6 28h239l-5 -28l-101 -8l114 -329l219 328l-99 9l5 28h224l-6 -28l-88 -9l-246 -362q-11 -59 -22 -119t-22 -119l112 -9l-6 -28h-275l6 28l111 8l44 238l-129 364zM287 753q-14 0 -24.5 9t-10.5 26q0 20 13.5 32t29.5 12q15 0 25 -9.5t10 -24.5q0 -20 -13 -32.5
t-30 -12.5zM491 753q-13 0 -23.5 9t-10.5 26q0 20 13.5 32t29.5 12q15 0 24.5 -9.5t9.5 -24.5q0 -20 -13 -32.5t-30 -12.5z" />
    <glyph glyph-name="Zacute" unicode="&#x179;" horiz-adv-x="540" 
d="M87 505l37 169h458l-5 -26l-511 -615h370l47 136h37l-39 -169h-484l5 26l512 615h-344l-46 -136h-37zM326 738q29 22 57.5 43.5t55.5 40.5q23 17 34 24t23 6q11 0 18 -7t6 -18q-1 -10 -11 -19.5t-40 -23.5q-65 -30 -133 -62z" />
    <glyph glyph-name="zacute" unicode="&#x17a;" horiz-adv-x="443" 
d="M80 308l22 141l44 36q68 -13 133 -29t131 -38l25 59l37 7l7 -6q-7 -25 -28 -54t-55 -64q-65 -69 -140.5 -129.5t-151.5 -137.5q58 -43 98.5 -57.5t77.5 -14.5q27 0 51 8.5t45 22.5q-10 18 -14.5 30t-4.5 25q0 20 9.5 31.5t24.5 12.5q23 -9 23 -51q0 -33 -22 -61
t-56.5 -45t-71.5 -17q-48 0 -89 21.5t-90 72.5l-29 -73l-38 -5l-6 5q11 27 28 54t40 51q46 48 96.5 91.5t104.5 90.5t108 104q-62 14 -121.5 26t-126.5 23l-36 -134zM301 550q20 40 44 84.5t41 78.5q20 39 39 39q10 0 18 -5t8 -17q0 -16 -23 -46q-22 -30 -52.5 -70
t-57.5 -75z" />
    <glyph glyph-name="Zdotaccent" unicode="&#x17b;" horiz-adv-x="540" 
d="M87 505l37 169h458l-5 -26l-511 -615h370l47 136h37l-39 -169h-484l5 26l512 615h-344l-46 -136h-37zM368 747q-16 0 -27.5 10t-11.5 29q0 20 13.5 33.5t29.5 13.5q17 0 28 -10.5t11 -28.5q0 -20 -13.5 -33.5t-29.5 -13.5z" />
    <glyph glyph-name="zdotaccent" unicode="&#x17c;" horiz-adv-x="443" 
d="M80 308l22 141l44 36q68 -13 133 -29t131 -38l25 59l37 7l7 -6q-7 -25 -28 -54t-55 -64q-65 -69 -140.5 -129.5t-151.5 -137.5q58 -43 98.5 -57.5t77.5 -14.5q27 0 51 8.5t45 22.5q-10 18 -14.5 30t-4.5 25q0 20 9.5 31.5t24.5 12.5q23 -9 23 -51q0 -33 -22 -61
t-56.5 -45t-71.5 -17q-48 0 -89 21.5t-90 72.5l-29 -73l-38 -5l-6 5q11 27 28 54t40 51q46 48 96.5 91.5t104.5 90.5t108 104q-62 14 -121.5 26t-126.5 23l-36 -134zM328 628q-16 0 -27 10t-11 29q0 20 13.5 32.5t28.5 12.5q17 0 27.5 -10t10.5 -27q0 -20 -13 -33.5
t-29 -13.5z" />
    <glyph glyph-name="Zcaron" unicode="&#x17d;" horiz-adv-x="540" 
d="M87 505l37 169h458l-5 -26l-511 -615h370l47 136h37l-39 -169h-484l5 26l512 615h-344l-46 -136h-37zM281 866l102 -91l131 91l13 -15l-132 -115h-34l-99 115z" />
    <glyph glyph-name="zcaron" unicode="&#x17e;" horiz-adv-x="443" 
d="M80 308l22 141l44 36q68 -13 133 -29t131 -38l25 59l37 7l7 -6q-7 -25 -28 -54t-55 -64q-65 -69 -140.5 -129.5t-151.5 -137.5q58 -43 98.5 -57.5t77.5 -14.5q27 0 51 8.5t45 22.5q-10 18 -14.5 30t-4.5 25q0 20 9.5 31.5t24.5 12.5q23 -9 23 -51q0 -33 -22 -61
t-56.5 -45t-71.5 -17q-48 0 -89 21.5t-90 72.5l-29 -73l-38 -5l-6 5q11 27 28 54t40 51q46 48 96.5 91.5t104.5 90.5t108 104q-62 14 -121.5 26t-126.5 23l-36 -134zM243 751l88 -142l140 143l15 -13l-150 -183h-26l-86 183z" />
    <glyph glyph-name="longs" unicode="&#x17f;" horiz-adv-x="295" 
d="M381 755q41 0 68.5 -20.5t32.5 -43.5q-1 -11 -9 -17.5t-18 -6.5q-13 0 -22.5 7t-26.5 26l-32 33q-26 -4 -50 -20q-24 -15 -43 -39t-34 -66.5t-27 -112.5q-19 -112 -36.5 -227.5t-38.5 -228.5q-15 -85 -33 -142.5t-59 -97.5q-29 -29 -54.5 -40.5t-53.5 -11.5q-29 0 -53 16
t-31 38q2 13 10.5 20t19.5 7q14 0 25 -7.5t22 -18.5l29 -28q37 11 68 51q26 33 41 81t29 133q19 115 36 227t35 229q15 97 45 151t76 82q20 14 40 20.5t44 6.5z" />
    <glyph glyph-name="uni018F" unicode="&#x18f;" horiz-adv-x="624" 
d="M282 -15q-68 0 -117 29.5t-75 83t-26 123.5q0 38 7 73.5t19 69.5h468q1 11 1.5 22.5t0.5 22.5q0 82 -27 135.5t-73 80.5t-105 27q-104 0 -187 -70l-15 20q47 43 100 65t114 22q73 0 128 -32.5t86 -98t31 -164.5q0 -90 -27.5 -165t-74.5 -129.5t-106 -84.5t-122 -30z
M288 18q63 0 119.5 38.5t96 108.5t51.5 166h-423q-8 -25 -12.5 -50t-4.5 -65q0 -92 44.5 -145t128.5 -53z" />
    <glyph glyph-name="uni0192" unicode="&#x192;" horiz-adv-x="510" 
d="M153 355l7 35h119q20 83 43 135.5t57 87.5q29 30 56.5 40.5t52.5 10.5q29 0 49 -11.5t29 -28.5q-2 -13 -11.5 -22.5t-24.5 -9.5q-24 0 -59 30l-14 13q-19 -7 -34 -19t-26 -26q-17 -23 -29.5 -49.5t-22.5 -62.5t-22 -88h120l-7 -35h-120l-28 -127q-16 -72 -31.5 -123.5
t-34.5 -88.5t-46 -65q-28 -29 -55.5 -40t-52.5 -11q-29 0 -49.5 12t-29.5 29q2 13 11.5 22t24.5 9q24 0 58 -31l13 -12q20 6 36 18t27 27q18 25 31 56t25.5 76t26.5 111l29 138h-118z" />
    <glyph glyph-name="Ohorn" unicode="&#x1a0;" horiz-adv-x="656" 
d="M304 -15q-76 0 -129.5 35t-81.5 97t-28 142q0 90 26 168t73 137t109.5 92t134.5 33q79 0 132 -35t80.5 -97t27.5 -143q0 -90 -25.5 -168t-72 -136.5t-109.5 -91.5t-137 -33zM312 19q60 0 111 29.5t89.5 82.5t59.5 123.5t21 152.5q0 112 -45.5 180t-146.5 68
q-61 0 -112.5 -31t-89 -85t-58.5 -124.5t-21 -148.5q0 -71 20.5 -127t63 -88t108.5 -32zM559 595v20q64 8 88 37t24 60q0 21 -6 33.5t-6 24.5q0 13 9 21t21 8q5 0 10 -1t10 -6q3 -8 6 -17.5t3 -23.5q0 -38 -18 -72t-53 -56.5t-88 -27.5z" />
    <glyph glyph-name="ohorn" unicode="&#x1a1;" horiz-adv-x="485" 
d="M217 -13q-39 0 -74.5 18t-58.5 57t-23 100t18.5 119t52 104t78.5 73t97 27q65 0 110 -42.5t45 -134.5q0 -63 -19 -121t-52.5 -103t-78 -71t-95.5 -26zM223 15q42 0 76.5 25t60 66t39.5 91t14 100q0 85 -31 122t-80 37q-42 0 -77 -24.5t-61 -66t-40 -92.5t-14 -103
q0 -81 33 -118t80 -37zM400 409v20q64 8 88 37t24 60q0 21 -6 33.5t-6 24.5q0 13 9 21t21 8q5 0 10 -1t10 -6q3 -8 6 -17.5t3 -23.5q0 -38 -18 -72t-53 -56.5t-88 -27.5z" />
    <glyph glyph-name="Uhorn" unicode="&#x1af;" horiz-adv-x="720" 
d="M133 168q0 21 3.5 45.5t7.5 49.5l18 98q14 69 26 138.5t24 138.5l-97 8l5 28h249l-6 -28l-99 -8l-69 -373q-4 -22 -7 -44t-3 -48q-1 -72 44 -108t112 -36q69 0 114 22t74.5 77.5t48.5 154.5l67 354l-111 9l6 28h127q61 0 82.5 12.5t21.5 32.5q0 17 -7 29.5t-7 27.5
q0 14 8.5 22t21.5 8q6 0 11.5 -1t11.5 -6q3 -8 5 -19t2 -23q0 -60 -33 -86t-104 -33l-72 -381q-27 -145 -93.5 -208.5t-180.5 -63.5q-93 0 -147 46t-54 137z" />
    <glyph glyph-name="uhorn" unicode="&#x1b0;" horiz-adv-x="555" 
d="M161 -13q-28 0 -46 16.5t-18 53.5q0 29 7 64t14 65l54 246l-107 3l4 21l145 29l13 -10l-62 -274q-7 -31 -13.5 -68.5t-6.5 -57.5q0 -44 42 -44q32 0 76.5 21.5t111.5 78.5l30 144q11 48 20.5 96.5t18.5 96.5l38 17l10 -8l-77 -363q-3 -16 -6.5 -32.5t-3.5 -27.5
q0 -24 27 -24q23 0 51 21.5t59 59.5l16 -12q-33 -45 -70 -78.5t-81 -33.5q-20 0 -34.5 12.5t-14.5 35.5q0 14 2.5 28t8.5 39q-61 -58 -111 -86.5t-97 -28.5zM464 400v20q64 8 88 37t24 60q0 21 -6 33.5t-6 24.5q0 13 9 21t21 8q5 0 10 -1t10 -6q3 -8 6 -17.5t3 -23.5
q0 -38 -18 -72t-53 -56.5t-88 -27.5z" />
    <glyph glyph-name="uni01CD" unicode="&#x1cd;" horiz-adv-x="661" 
d="M-28 0l6 28l82 9l340 637h35l89 -638l97 -8l-6 -28h-255l6 28l102 8l-28 210h-234l-108 -209l88 -9l-5 -28h-209zM222 276h215l-44 331zM322 866l102 -91l131 91l13 -15l-132 -115h-34l-99 115z" />
    <glyph glyph-name="uni01CE" unicode="&#x1ce;" horiz-adv-x="517" 
d="M101 132q0 -55 20 -78.5t51 -23.5q39 0 78.5 31.5t90.5 91.5l58 271q-28 20 -60 20q-35 0 -70.5 -18t-66.5 -49q-45 -46 -73 -111.5t-28 -133.5zM369 -13q-19 0 -33 12.5t-14 37.5q0 19 2.5 34.5t7.5 38.5l1 5q-43 -55 -89 -91.5t-93 -36.5q-37 0 -67.5 28t-30.5 96
q0 51 18 103.5t48.5 101t69.5 86.5t82 60.5t85 22.5q35 0 60 -27l29 31l12 -8l-80 -367q-4 -16 -7 -32.5t-3 -29.5q0 -12 8 -17t19 -5q24 0 53 23t56 59l17 -13q-30 -45 -68.5 -78.5t-82.5 -33.5zM290 751l88 -142l140 143l15 -13l-150 -183h-26l-86 183z" />
    <glyph glyph-name="uni01CF" unicode="&#x1cf;" horiz-adv-x="343" 
d="M124 646l5 28h255l-6 -28l-98 -8l-61 -326q-13 -69 -25 -138t-23 -137l102 -9l-5 -28h-255l6 28l97 8l62 326q13 69 25 138t22 138zM175 866l102 -91l131 91l13 -15l-132 -115h-34l-99 115z" />
    <glyph glyph-name="uni01D0" unicode="&#x1d0;" horiz-adv-x="294" 
d="M95 32q0 16 3 30.5t8 40.5l70 328l-114 4l3 20l152 30l13 -10l-77 -361q-4 -16 -7 -32.5t-3 -27.5q0 -24 26 -24q23 0 50.5 21.5t58.5 59.5l15 -12q-32 -45 -68.5 -78.5t-82.5 -33.5q-19 0 -33 12t-14 33zM152 751l88 -142l140 143l15 -13l-150 -183h-26l-86 183z" />
    <glyph glyph-name="uni01D1" unicode="&#x1d1;" horiz-adv-x="656" 
d="M304 -15q-76 0 -129.5 35t-81.5 97t-28 142q0 90 26 168t73 137t109.5 92t134.5 33q79 0 132 -35t80.5 -97t27.5 -143q0 -90 -25.5 -168t-72 -136.5t-109.5 -91.5t-137 -33zM312 19q60 0 111 29.5t89.5 82.5t59.5 123.5t21 152.5q0 112 -45.5 180t-146.5 68
q-61 0 -112.5 -31t-89 -85t-58.5 -124.5t-21 -148.5q0 -71 20.5 -127t63 -88t108.5 -32zM332 866l102 -91l131 91l13 -15l-132 -115h-34l-99 115z" />
    <glyph glyph-name="uni01D2" unicode="&#x1d2;" horiz-adv-x="485" 
d="M217 -14q-39 0 -74.5 18t-58.5 57t-23 100t18.5 119t52 104t78.5 73t97 27q65 0 110 -42.5t45 -134.5q0 -63 -19 -121t-52.5 -103t-78 -71t-95.5 -26zM223 14q42 0 76.5 25t60 66t39.5 91t14 100q0 85 -31 122t-80 37q-42 0 -77 -24.5t-61 -66t-40 -92.5t-14 -103
q0 -81 33 -118t80 -37zM246 751l88 -142l140 143l15 -13l-150 -183h-26l-86 183z" />
    <glyph glyph-name="uni01D3" unicode="&#x1d3;" horiz-adv-x="720" 
d="M534 646l6 28h238l-6 -28l-92 -9l-72 -380q-27 -145 -93.5 -208.5t-180.5 -63.5q-93 0 -147 46t-54 137q0 21 3.5 45.5t7.5 49.5l18 98q14 69 26 138.5t24 138.5l-97 8l5 28h249l-6 -28l-99 -8l-69 -373q-4 -22 -7 -44t-3 -48q-1 -72 44 -108t112 -36q69 0 114 22
t74.5 77.5t48.5 154.5l67 354zM377 866l102 -91l131 91l13 -15l-132 -115h-34l-99 115z" />
    <glyph glyph-name="uni01D4" unicode="&#x1d4;" horiz-adv-x="555" 
d="M161 -13q-28 0 -46 16.5t-18 53.5q0 29 7 64t14 65l54 246l-107 3l4 21l145 29l13 -10l-62 -274q-7 -31 -13.5 -68.5t-6.5 -57.5q0 -44 42 -44q32 0 76.5 21.5t111.5 78.5l30 144q11 48 20.5 96.5t18.5 96.5l38 17l10 -8l-77 -363q-3 -16 -6.5 -32.5t-3.5 -27.5
q0 -24 27 -24q23 0 51 21.5t59 59.5l16 -12q-33 -45 -70 -78.5t-81 -33.5q-20 0 -34.5 12.5t-14.5 35.5q0 14 2.5 28t8.5 39q-61 -58 -111 -86.5t-97 -28.5zM274 751l88 -142l140 143l15 -13l-150 -183h-26l-86 183z" />
    <glyph glyph-name="uni01D5" unicode="&#x1d5;" horiz-adv-x="720" 
d="M534 646l6 28h238l-6 -28l-92 -9l-72 -380q-27 -145 -93.5 -208.5t-180.5 -63.5q-93 0 -147 46t-54 137q0 21 3.5 45.5t7.5 49.5l18 98q14 69 26 138.5t24 138.5l-97 8l5 28h249l-6 -28l-99 -8l-69 -373q-4 -22 -7 -44t-3 -48q-1 -72 44 -108t112 -36q69 0 114 22
t74.5 77.5t48.5 154.5l67 354zM374 753q-14 0 -24.5 9t-10.5 26q0 20 13.5 32t29.5 12q15 0 25 -9.5t10 -24.5q0 -20 -13 -32.5t-30 -12.5zM578 753q-13 0 -23.5 9t-10.5 26q0 20 13.5 32t29.5 12q15 0 24.5 -9.5t9.5 -24.5q0 -20 -13 -32.5t-30 -12.5zM343 906l8 39h295
l-8 -39h-295z" />
    <glyph glyph-name="uni01D6" unicode="&#x1d6;" horiz-adv-x="555" 
d="M161 -13q-28 0 -46 16.5t-18 53.5q0 29 7 64t14 65l54 246l-107 3l4 21l145 29l13 -10l-62 -274q-7 -31 -13.5 -68.5t-6.5 -57.5q0 -44 42 -44q32 0 76.5 21.5t111.5 78.5l30 144q11 48 20.5 96.5t18.5 96.5l38 17l10 -8l-77 -363q-3 -16 -6.5 -32.5t-3.5 -27.5
q0 -24 27 -24q23 0 51 21.5t59 59.5l16 -12q-33 -45 -70 -78.5t-81 -33.5q-20 0 -34.5 12.5t-14.5 35.5q0 14 2.5 28t8.5 39q-61 -58 -111 -86.5t-97 -28.5zM266 596q-13 0 -23.5 9t-10.5 25q0 20 13 31.5t28 11.5q14 0 24 -9t10 -24q0 -19 -12.5 -31.5t-28.5 -12.5z
M449 596q-13 0 -23 9t-10 25q0 20 13 31.5t28 11.5q14 0 24 -9t10 -24q0 -19 -13 -31.5t-29 -12.5zM262 730l8 40h228l-8 -40h-228z" />
    <glyph glyph-name="uni01D7" unicode="&#x1d7;" horiz-adv-x="720" 
d="M534 646l6 28h238l-6 -28l-92 -9l-72 -380q-27 -145 -93.5 -208.5t-180.5 -63.5q-93 0 -147 46t-54 137q0 21 3.5 45.5t7.5 49.5l18 98q14 69 26 138.5t24 138.5l-97 8l5 28h249l-6 -28l-99 -8l-69 -373q-4 -22 -7 -44t-3 -48q-1 -72 44 -108t112 -36q69 0 114 22
t74.5 77.5t48.5 154.5l67 354zM369 753q-13 0 -24 9t-11 26q0 20 13.5 32t29.5 12q15 0 24.5 -9.5t9.5 -24.5q0 -20 -12.5 -32.5t-29.5 -12.5zM481 831l-15 18l84 89q20 21 31.5 30.5t23.5 9.5q11 0 18 -6.5t7 -17.5q0 -13 -9 -21.5t-35 -26.5zM584 753q-14 0 -24.5 9
t-10.5 26q0 20 13.5 32t29.5 12q15 0 25 -9.5t10 -24.5q0 -20 -13 -32.5t-30 -12.5z" />
    <glyph glyph-name="uni01D8" unicode="&#x1d8;" horiz-adv-x="555" 
d="M161 -13q-28 0 -46 16.5t-18 53.5q0 29 7 64t14 65l54 246l-107 3l4 21l145 29l13 -10l-62 -274q-7 -31 -13.5 -68.5t-6.5 -57.5q0 -44 42 -44q32 0 76.5 21.5t111.5 78.5l30 144q11 48 20.5 96.5t18.5 96.5l38 17l10 -8l-77 -363q-3 -16 -6.5 -32.5t-3.5 -27.5
q0 -24 27 -24q23 0 51 21.5t59 59.5l16 -12q-33 -45 -70 -78.5t-81 -33.5q-20 0 -34.5 12.5t-14.5 35.5q0 14 2.5 28t8.5 39q-61 -58 -111 -86.5t-97 -28.5zM257 579q-13 0 -23 9t-10 25q0 20 13 31.5t28 11.5q14 0 24 -9t10 -24q0 -19 -12.5 -31.5t-29.5 -12.5zM368 659
l-17 14l66 103q16 28 35 28q10 0 17 -6.5t7 -17.5q0 -10 -6 -19t-14 -17zM450 579q-13 0 -23 9t-10 25q0 20 12.5 31.5t28.5 11.5q14 0 23.5 -9t9.5 -24q0 -19 -12.5 -31.5t-28.5 -12.5z" />
    <glyph glyph-name="uni01D9" unicode="&#x1d9;" horiz-adv-x="720" 
d="M534 646l6 28h238l-6 -28l-92 -9l-72 -380q-27 -145 -93.5 -208.5t-180.5 -63.5q-93 0 -147 46t-54 137q0 21 3.5 45.5t7.5 49.5l18 98q14 69 26 138.5t24 138.5l-97 8l5 28h249l-6 -28l-99 -8l-69 -373q-4 -22 -7 -44t-3 -48q-1 -72 44 -108t112 -36q69 0 114 22
t74.5 77.5t48.5 154.5l67 354zM372 753q-13 0 -24 9t-11 26q0 20 13.5 32t29.5 12q15 0 25 -9.5t10 -24.5q0 -20 -13 -32.5t-30 -12.5zM581 753q-13 0 -24 9t-11 26q0 20 13.5 32t29.5 12q15 0 25 -9.5t10 -24.5q0 -20 -13 -32.5t-30 -12.5zM470 846l-99 115l19 15l102 -91
l131 91l13 -15l-132 -115h-34z" />
    <glyph glyph-name="uni01DA" unicode="&#x1da;" horiz-adv-x="555" 
d="M161 -13q-28 0 -46 16.5t-18 53.5q0 29 7 64t14 65l54 246l-107 3l4 21l145 29l13 -10l-62 -274q-7 -31 -13.5 -68.5t-6.5 -57.5q0 -44 42 -44q32 0 76.5 21.5t111.5 78.5l30 144q11 48 20.5 96.5t18.5 96.5l38 17l10 -8l-77 -363q-3 -16 -6.5 -32.5t-3.5 -27.5
q0 -24 27 -24q23 0 51 21.5t59 59.5l16 -12q-33 -45 -70 -78.5t-81 -33.5q-20 0 -34.5 12.5t-14.5 35.5q0 14 2.5 28t8.5 39q-61 -58 -111 -86.5t-97 -28.5zM265 602q-13 0 -23.5 9t-10.5 25q0 19 13 31t28 12q14 0 24 -9.5t10 -23.5q0 -20 -12.5 -32t-28.5 -12zM453 602
q-13 0 -23.5 9t-10.5 25q0 19 13 31t28 12q14 0 24 -9.5t10 -23.5q0 -20 -12.5 -32t-28.5 -12zM353 688l-99 115l18 15l102 -91l131 91l14 -15l-132 -115h-34z" />
    <glyph glyph-name="uni01DB" unicode="&#x1db;" horiz-adv-x="720" 
d="M534 646l6 28h238l-6 -28l-92 -9l-72 -380q-27 -145 -93.5 -208.5t-180.5 -63.5q-93 0 -147 46t-54 137q0 21 3.5 45.5t7.5 49.5l18 98q14 69 26 138.5t24 138.5l-97 8l5 28h249l-6 -28l-99 -8l-69 -373q-4 -22 -7 -44t-3 -48q-1 -72 44 -108t112 -36q69 0 114 22
t74.5 77.5t48.5 154.5l67 354zM369 753q-13 0 -24 9t-11 26q0 20 13.5 32t29.5 12q15 0 24.5 -9.5t9.5 -24.5q0 -20 -12.5 -32.5t-29.5 -12.5zM509 831l-106 75q-25 18 -34.5 26.5t-9.5 21.5q0 11 7.5 17.5t18.5 6.5t23 -9.5t31 -30.5l84 -89zM584 753q-14 0 -24.5 9
t-10.5 26q0 20 13.5 32t29.5 12q15 0 25 -9.5t10 -24.5q0 -20 -13 -32.5t-30 -12.5z" />
    <glyph glyph-name="uni01DC" unicode="&#x1dc;" horiz-adv-x="555" 
d="M161 -13q-28 0 -46 16.5t-18 53.5q0 29 7 64t14 65l54 246l-107 3l4 21l145 29l13 -10l-62 -274q-7 -31 -13.5 -68.5t-6.5 -57.5q0 -44 42 -44q32 0 76.5 21.5t111.5 78.5l30 144q11 48 20.5 96.5t18.5 96.5l38 17l10 -8l-77 -363q-3 -16 -6.5 -32.5t-3.5 -27.5
q0 -24 27 -24q23 0 51 21.5t59 59.5l16 -12q-33 -45 -70 -78.5t-81 -33.5q-20 0 -34.5 12.5t-14.5 35.5q0 14 2.5 28t8.5 39q-61 -58 -111 -86.5t-97 -28.5zM257 579q-13 0 -23 9t-10 25q0 20 13 31.5t28 11.5q14 0 24 -9t10 -24q0 -19 -12.5 -31.5t-29.5 -12.5zM370 660
l-72 72q-16 17 -21.5 26.5t-5.5 19.5q0 12 8 19.5t18 7.5q25 0 43 -37l50 -93zM450 579q-13 0 -23 9t-10 25q0 20 12.5 31.5t28.5 11.5q14 0 23.5 -9t9.5 -24q0 -19 -12.5 -31.5t-28.5 -12.5z" />
    <glyph glyph-name="Gcaron" unicode="&#x1e6;" horiz-adv-x="660" 
d="M62 278q0 92 29 167t80.5 130t119.5 84.5t146 29.5q65 0 111 -13.5t90 -42.5l-22 -139h-37l5 128q-61 34 -148 34q-95 0 -166.5 -49t-111.5 -133.5t-40 -193.5q0 -84 33.5 -142.5t90.5 -89t125 -30.5q38 0 69.5 7t63.5 21l8 48q8 47 16.5 94.5t16.5 93.5l-111 9l5 28h242
l-5 -28l-77 -8l-45 -248q-49 -25 -93.5 -37.5t-100.5 -12.5q-89 0 -155 36t-102.5 102t-36.5 155zM356 866l102 -91l131 91l13 -15l-132 -115h-34l-99 115z" />
    <glyph glyph-name="gcaron" unicode="&#x1e7;" horiz-adv-x="474" 
d="M227 175q38 1 68 23t47 60.5t17 86.5q0 53 -23 84t-70 31q-40 0 -70 -24t-46.5 -63t-16.5 -85q0 -113 94 -113zM87 282q0 57 25 103t67 73t94 27q47 0 78.5 -26t38.5 -73q11 60 36.5 84.5t50.5 24.5q13 0 23 -5q6 -6 6 -14q0 -20 -21 -32.5t-64 -26.5q-6 -15 -10.5 -32.5
t-8.5 -41.5q-16 -100 -66 -146.5t-115 -46.5q-49 0 -83 23q-25 -23 -31.5 -39t-6.5 -30q0 -18 12.5 -31.5t43.5 -18.5l118 -16q77 -10 106.5 -37t29.5 -67q0 -45 -33 -85.5t-92 -66t-137 -25.5q-76 0 -121.5 27.5t-45.5 83.5q0 50 37.5 89.5t88.5 62.5q-29 11 -39 29.5
t-10 35.5q0 51 67 98q-18 17 -28 42t-10 57zM29 -116q0 -44 36.5 -70t103.5 -26q56 0 100.5 16t70.5 44.5t26 65.5q0 22 -9 38.5t-34.5 28t-75.5 17.5l-109 14q-1 0 -3 0.5t-4 0.5q-49 -28 -75.5 -58t-26.5 -71zM230 751l88 -142l140 143l15 -13l-150 -183h-26l-86 183z" />
    <glyph glyph-name="uni01F8" unicode="&#x1f8;" horiz-adv-x="727" 
d="M551 646l6 28h231l-5 -28l-85 -9l-121 -647h-25l-308 596l-103 -549l110 -9l-5 -28h-232l5 28l88 9l113 596l-3 6l-95 7l5 28h135l299 -587l103 550zM501 733l-12 -16q-30 17 -59.5 35t-58.5 34q-26 16 -37 26t-11 21t8 17t18 6t21 -7t32 -27q24 -21 49 -43.5t50 -45.5z
" />
    <glyph glyph-name="uni01F9" unicode="&#x1f9;" horiz-adv-x="558" 
d="M131 0l-39 -6l-7 6l91 431l-114 4l3 20l151 30l13 -10l-21 -107q36 35 74.5 61t75 41t63.5 15q32 0 48 -17.5t16 -48.5q0 -24 -5 -47t-12 -51l-49 -207q-4 -17 -8 -33.5t-4 -27.5q0 -23 26 -23q23 0 51.5 22t57.5 59l16 -12q-31 -45 -69.5 -78.5t-84.5 -33.5
q-20 0 -32.5 11.5t-12.5 29.5q0 19 3.5 34t10.5 41l48 206q5 25 10 48t5 41q0 25 -10 35t-29 10q-34 0 -80.5 -24.5t-114.5 -81.5l-29 -129q-12 -52 -21.5 -103.5t-20.5 -104.5zM349 550l-17 -11q-27 35 -57 75t-53 70t-23 47q0 11 8 16.5t18 5.5q11 0 20 -10t19 -30
q17 -34 41 -78.5t44 -84.5z" />
    <glyph glyph-name="uni0218" unicode="&#x218;" horiz-adv-x="506" 
d="M38 38l19 130h36l2 -123q27 -13 55.5 -20t62.5 -7q83 0 129 38t46 99q0 31 -11 54.5t-37.5 49.5t-74.5 62q-73 56 -100.5 98.5t-27.5 91.5q0 56 27.5 95.5t74 61t102.5 21.5q49 0 86 -11t79 -34l-23 -130h-37l4 118q-29 14 -53.5 19t-52.5 5q-70 0 -115 -34.5t-45 -98.5
q0 -31 10.5 -55.5t34.5 -48.5t64 -54q54 -41 85.5 -73t45 -61.5t13.5 -65.5q0 -56 -28.5 -96.5t-79 -62t-116.5 -21.5q-52 0 -98.5 15t-76.5 38zM126 -238l-10 18q29 17 45.5 33t28.5 39q-20 13 -27 26.5t-7 26.5q0 14 10.5 23.5t23.5 9.5q18 0 33 -15q2 -9 3.5 -15.5
t1.5 -13.5q0 -47 -27 -77.5t-75 -54.5z" />
    <glyph glyph-name="uni0219" unicode="&#x219;" horiz-adv-x="366" 
d="M322 122q0 -63 -44.5 -99t-112.5 -36q-55 0 -84.5 22.5t-40.5 68.5q2 10 9.5 16.5t16.5 6.5q24 0 33 -27l16 -53q20 -6 44 -6q56 0 88 27t32 69q0 29 -16 54t-60 55q-41 29 -65 59t-24 73q0 59 41 96t107 37q45 0 75.5 -20.5t40.5 -57.5q-5 -21 -27 -21q-24 0 -35 30
l-15 36q-17 5 -33 5q-56 0 -83 -27t-27 -66q0 -37 17.5 -58t58.5 -52q49 -36 68.5 -65t19.5 -67zM79 -238l-10 18q29 17 45.5 33t28.5 39q-20 13 -27 26.5t-7 26.5q0 14 10.5 23.5t23.5 9.5q18 0 33 -15q2 -9 3.5 -15.5t1.5 -13.5q0 -47 -27 -77.5t-75 -54.5z" />
    <glyph glyph-name="uni021A" unicode="&#x21a;" horiz-adv-x="595" 
d="M84 505l39 169h529l-24 -169h-35l6 136h-191l-62 -329q-13 -69 -24.5 -138t-22.5 -137l108 -9l-6 -28h-265l6 28l102 8l61 326q14 70 25.5 140t23.5 139h-190l-45 -136h-35zM185 -238l-10 18q29 17 45.5 33t28.5 39q-20 13 -27 26.5t-7 26.5q0 14 10.5 23.5t23.5 9.5
q18 0 33 -15q2 -9 3.5 -15.5t1.5 -13.5q0 -47 -27 -77.5t-75 -54.5z" />
    <glyph glyph-name="uni021B" unicode="&#x21b;" horiz-adv-x="324" 
d="M105 103l72 339h-115l5 25l119 8l37 134h34l-28 -134h135l-5 -37l-138 4l-69 -328q-4 -16 -7 -32t-3 -27q0 -25 27 -25q23 0 51 21.5t59 59.5l15 -12q-31 -45 -69 -78.5t-84 -33.5q-19 0 -32.5 12t-13.5 33q0 16 2 30.5t8 40.5zM67 -238l-10 18q29 17 45.5 33t28.5 39
q-20 13 -27 26.5t-7 26.5q0 14 10.5 23.5t23.5 9.5q18 0 33 -15q2 -9 3.5 -15.5t1.5 -13.5q0 -47 -27 -77.5t-75 -54.5z" />
    <glyph glyph-name="uni0237" unicode="&#x237;" horiz-adv-x="250" 
d="M-68 -255l-5 21q26 8 48.5 21t43.5 38q28 33 48 80t36 135l75 391l-116 4l3 20l152 30l13 -10l-88 -450q-15 -79 -40.5 -134.5t-72.5 -97.5q-24 -21 -48 -32t-49 -16z" />
    <glyph glyph-name="uni0251" unicode="&#x251;" horiz-adv-x="517" 
d="M101 132q0 -55 20 -78.5t51 -23.5q39 0 78.5 31.5t90.5 91.5l58 271q-28 20 -60 20q-35 0 -70.5 -18t-66.5 -49q-45 -46 -73 -111.5t-28 -133.5zM369 -13q-19 0 -33 12.5t-14 37.5q0 19 2.5 34.5t7.5 38.5l1 5q-43 -55 -89 -91.5t-93 -36.5q-37 0 -67.5 28t-30.5 96
q0 51 18 103.5t48.5 101t69.5 86.5t82 60.5t85 22.5q35 0 60 -27l29 31l12 -8l-80 -367q-4 -16 -7 -32.5t-3 -29.5q0 -12 8 -17t19 -5q24 0 53 23t56 59l17 -13q-30 -45 -68.5 -78.5t-82.5 -33.5z" />
    <glyph glyph-name="uni0259" unicode="&#x259;" horiz-adv-x="426" 
d="M133 -13q-40 0 -64.5 21.5t-24.5 61.5q0 65 77.5 127t236.5 107q-1 73 -27.5 107t-76.5 34q-46 0 -82.5 -24t-65.5 -61l-15 12q34 51 79 82t99 31q58 0 97 -41t39 -135q0 -60 -23 -117.5t-61.5 -103.5t-87 -73.5t-100.5 -27.5zM85 75q0 -29 17 -44.5t47 -15.5q33 0 68 22
t66 60t51 85t23 97q-134 -40 -203 -92.5t-69 -111.5z" />
    <glyph glyph-name="uni0261" unicode="&#x261;" horiz-adv-x="467" 
d="M139 -253q-64 0 -102 27.5t-46 85.5q4 11 13.5 18.5t20.5 7.5q27 0 33 -36l12 -66q17 -4 33 -7t35 -3q42 0 72.5 16t52.5 38q23 23 35.5 61t22 97.5t21.5 145.5q-45 -59 -93 -99.5t-98 -40.5q-37 0 -67.5 28t-30.5 96q0 50 18 102t48.5 100t69.5 85.5t82 59.5t85 22
q35 0 60 -28l29 32l13 -8l-32 -143l-42 -211q-13 -94 -24.5 -156t-26 -99.5t-38.5 -60.5q-31 -31 -69 -47.5t-87 -16.5zM101 137q0 -55 20 -78.5t51 -23.5q41 0 82 34t95 98l50 256q-27 21 -60 21q-35 0 -70.5 -18t-66.5 -49q-44 -45 -72.5 -109.5t-28.5 -130.5z" />
    <glyph glyph-name="h.sups" unicode="&#x2b0;" horiz-adv-x="379" 
d="M138 428l-6 5l66 320q6 32 12.5 63.5t10.5 62.5l-72 3l2 14l110 23l7 -6l-50 -238q36 35 76.5 56.5t68.5 21.5q44 0 44 -46q0 -14 -3 -29.5t-7 -33.5l-33 -135q-7 -27 -6.5 -39.5t16.5 -12.5q14 0 33 13.5t38 37.5l12 -9q-20 -30 -47.5 -53t-59.5 -23q-15 0 -24 8.5
t-9 21.5t3 24t6 28l31 129q4 16 7 30.5t3 25.5q0 29 -26 29q-22 0 -53 -15.5t-74 -50.5l-17 -83q-7 -36 -13.5 -69.5t-13.5 -68.5z" />
    <glyph glyph-name="j.sups" unicode="&#x2b2;" horiz-adv-x="182" 
d="M245 853q-13 0 -21 8t-8 22q0 15 10 24.5t21 9.5q30 0 30 -29q0 -15 -10 -25t-22 -10zM38 267l-5 14q18 6 33 14.5t29 24.5q18 20 30.5 51.5t23.5 88.5l49 252l-75 3l2 15l107 23l9 -7l-57 -293q-10 -52 -27 -87.5t-47 -62.5q-18 -16 -36 -24.5t-36 -11.5z" />
    <glyph glyph-name="r.sups" unicode="&#x2b3;" horiz-adv-x="273" 
d="M138 433l59 279l-75 3l3 15l104 23l9 -7l-18 -98q22 42 50 73.5t58 31.5q33 0 44 -20q-1 -13 -8 -21.5t-20 -8.5q-9 0 -19 4.5t-23 14.5q-25 -19 -47.5 -48.5t-43.5 -67.5l-8 -36q-7 -34 -13.5 -68.5t-13.5 -69.5l-33 -4z" />
    <glyph glyph-name="w.sups" unicode="&#x2b7;" horiz-adv-x="505" 
d="M209 430q-4 73 -7 140.5t-11 112.5q-4 22 -10 28t-15 6q-10 0 -21.5 -9t-27.5 -35l-13 8q36 72 79 72q20 0 29.5 -12.5t14.5 -41.5q7 -40 10 -99.5t4 -118.5q41 61 77.5 125.5t67.5 136.5h20q3 -33 6 -82.5t6 -99.5t4 -87q33 41 61 79t55 92q2 5 4.5 9t4.5 8q-6 31 -7 41
t-1 14q0 19 9 27.5t20 8.5q14 0 17 -6q4 -8 4 -24q0 -12 -5 -31.5t-25 -57.5q-25 -49 -63 -100.5t-89 -104.5l-18 1q-2 34 -4.5 75.5t-5.5 82t-5 72.5q-26 -52 -62.5 -112t-83.5 -119z" />
    <glyph glyph-name="y.sups" unicode="&#x2b8;" horiz-adv-x="328" 
d="M29 308q6 23 30 23q10 0 20 -5t27 -20q17 9 32 21t30 26q13 12 26.5 27.5t26.5 31.5q-4 74 -10.5 133t-16.5 116q-6 37 -11.5 46.5t-16.5 9.5q-10 0 -21 -8t-28 -36l-13 8q20 39 40 55.5t40 16.5t30 -14.5t16 -55.5q8 -53 12.5 -109t7.5 -119q37 64 63.5 119t39.5 98
q15 52 24 67t20 15q19 0 19 -19q0 -8 -2.5 -17t-10.5 -24q-9 -19 -18.5 -38.5t-26.5 -48.5q-28 -52 -50.5 -92t-49.5 -79q-18 -28 -36.5 -52.5t-42.5 -49.5q-25 -26 -53 -43t-51 -17q-41 0 -46 34z" />
    <glyph glyph-name="quoteleft" unicode="&#x2018;" horiz-adv-x="248" 
d="M198 504q-8 0 -16 2t-16 9q-4 8 -6.5 21t-2.5 23q0 56 34 104.5t89 91.5l14 -18q-35 -33 -57 -60t-38 -67l16 -20q21 -24 21 -42q0 -20 -11.5 -32t-26.5 -12z" />
    <glyph glyph-name="quoteleft" unicode="&#x2bb;" horiz-adv-x="248" 
d="M198 504q-8 0 -16 2t-16 9q-4 8 -6.5 21t-2.5 23q0 56 34 104.5t89 91.5l14 -18q-35 -33 -57 -60t-38 -67l16 -20q21 -24 21 -42q0 -20 -11.5 -32t-26.5 -12z" />
    <glyph glyph-name="quoteright" unicode="&#x2019;" horiz-adv-x="248" 
d="M230 720q8 0 16 -2t16 -9q5 -8 7 -20.5t2 -23.5q0 -56 -34 -104t-89 -92l-14 18q35 33 57 60t38 67l-16 20q-21 24 -21 42q0 20 11.5 32t26.5 12z" />
    <glyph glyph-name="quoteright" unicode="&#x2bc;" horiz-adv-x="248" 
d="M230 720q8 0 16 -2t16 -9q5 -8 7 -20.5t2 -23.5q0 -56 -34 -104t-89 -92l-14 18q35 33 57 60t38 67l-16 20q-21 24 -21 42q0 20 11.5 32t26.5 12z" />
    <glyph glyph-name="uni02BE" unicode="&#x2be;" horiz-adv-x="200" 
d="M111 545l4 28q47 1 71 23.5t24 57.5q0 30 -17.5 49.5t-51.5 23.5l5 28q44 -2 71.5 -29.5t27.5 -68.5q0 -47 -32.5 -79.5t-101.5 -32.5z" />
    <glyph glyph-name="uni02BF" unicode="&#x2bf;" horiz-adv-x="200" 
d="M234 545q-43 2 -71 29t-28 68q0 47 32.5 80t101.5 33l-4 -28q-46 -1 -70.5 -24t-24.5 -58q0 -29 17.5 -48.5t51.5 -23.5z" />
    <glyph glyph-name="circumflex" unicode="&#x2c6;" horiz-adv-x="279" 
d="M335 550l-91 135l-137 -135l-13 14l149 177h22l88 -177z" />
    <glyph glyph-name="caron" unicode="&#x2c7;" horiz-adv-x="400" 
d="M188 751l88 -142l140 143l15 -13l-150 -183h-26l-86 183z" />
    <glyph glyph-name="uni02C8" unicode="&#x2c8;" horiz-adv-x="123" 
d="M121 563l32 191h47l-43 -191h-36z" />
    <glyph glyph-name="uni02C9" unicode="&#x2c9;" horiz-adv-x="332" 
d="M148 624l8 40h228l-8 -40h-228z" />
    <glyph glyph-name="uni02CA" unicode="&#x2ca;" horiz-adv-x="170" 
d="M100 550q20 40 44 84.5t41 78.5q20 39 39 39q10 0 18 -5t8 -17q0 -16 -23 -46q-22 -30 -52.5 -70t-57.5 -75z" />
    <glyph glyph-name="uni02CB" unicode="&#x2cb;" horiz-adv-x="201" 
d="M265 550l-17 -11q-27 35 -57 75t-53 70t-23 47q0 11 8 16.5t18 5.5q11 0 20 -10t19 -30q17 -34 41 -78.5t44 -84.5z" />
    <glyph glyph-name="uni02CC" unicode="&#x2cc;" horiz-adv-x="123" 
d="M-44 -265l40 191h36l-29 -191h-47z" />
    <glyph glyph-name="breve" unicode="&#x2d8;" horiz-adv-x="400" 
d="M277 581q-66 0 -96.5 41t-32.5 101l23 9q9 -46 34.5 -77.5t77.5 -31.5q47 0 80.5 29.5t55.5 78.5l22 -7q-19 -61 -60.5 -102t-103.5 -41z" />
    <glyph glyph-name="dotaccent" unicode="&#x2d9;" horiz-adv-x="400" 
d="M294 632q-16 0 -27 10t-11 29q0 20 13.5 32.5t28.5 12.5q17 0 27.5 -10t10.5 -27q0 -20 -13 -33.5t-29 -13.5z" />
    <glyph glyph-name="ring" unicode="&#x2da;" horiz-adv-x="400" 
d="M290 561q-37 0 -61.5 23t-24.5 60q0 33 15.5 55.5t39 34.5t48.5 12q35 0 60.5 -22.5t25.5 -59.5q0 -33 -15.5 -56t-39 -35t-48.5 -12zM291 588q29 0 49 21.5t20 52.5q0 23 -14 40.5t-40 17.5q-31 0 -50 -22.5t-19 -51.5q0 -22 13.5 -40t40.5 -18z" />
    <glyph glyph-name="ogonek" unicode="&#x2db;" horiz-adv-x="400" 
d="M54 -170q0 45 35 91t79 87h24q-43 -43 -69.5 -83.5t-26.5 -78.5q0 -56 51 -56q19 0 41.5 8t40.5 21l10 -13q-21 -20 -48.5 -34.5t-56.5 -14.5q-40 0 -60 21t-20 52z" />
    <glyph glyph-name="tilde" unicode="&#x2dc;" horiz-adv-x="400" 
d="M121 596q13 54 39 79.5t59 25.5q25 0 41 -11.5t33 -30.5q20 -20 33.5 -31.5t32.5 -11.5q18 0 36.5 18.5t33.5 59.5l18 -8q-16 -52 -40.5 -78t-55.5 -26q-23 0 -39.5 11.5t-35.5 30.5q-19 20 -33.5 31.5t-32.5 11.5q-21 0 -39.5 -18t-32.5 -60z" />
    <glyph glyph-name="hungarumlaut" unicode="&#x2dd;" horiz-adv-x="400" 
d="M149 573l87 138q19 32 38 32q10 0 16.5 -5.5t6.5 -15.5q0 -19 -22 -41l-109 -120zM288 573l87 138q19 32 39 32q22 0 22 -21q0 -19 -22 -41l-109 -120z" />
    <glyph glyph-name="l.sups" unicode="&#x2e1;" horiz-adv-x="196" 
d="M173 423q-15 0 -24.5 9.5t-9.5 25.5q0 11 1.5 21.5t5.5 29.5l49 244q14 62 24 126l-73 3l3 14l109 23l7 -6l-83 -405q-6 -28 -4 -39.5t18 -11.5q14 0 32 13.5t38 37.5l12 -9q-22 -30 -47 -53t-58 -23z" />
    <glyph glyph-name="s.sups" unicode="&#x2e2;" horiz-adv-x="254" 
d="M306 516q0 -43 -31 -68t-79 -25q-39 0 -59.5 15t-27.5 46q3 19 20 19q18 0 24 -23l12 -35q12 -3 26 -3q37 0 58 17.5t21 43.5q0 18 -10.5 34.5t-39.5 35.5q-29 20 -46 40t-17 48q0 41 28 66.5t73 25.5q34 0 55.5 -14.5t28.5 -38.5q-5 -18 -21 -18q-18 0 -27 23l-11 27
q-4 2 -8.5 2h-9.5q-37 0 -55 -17.5t-18 -41.5t12.5 -38.5t40.5 -34.5q35 -24 48 -42.5t13 -43.5z" />
    <glyph glyph-name="x.sups" unicode="&#x2e3;" horiz-adv-x="366" 
d="M292 485l-23 79q-22 -34 -41 -62.5t-39 -51.5q-24 -27 -52 -27q-19 0 -34.5 12.5t-19.5 34.5q2 11 9 16.5t14 5.5q14 0 25 -19l16 -27q14 6 27 20q20 22 44.5 57t43.5 63l-27 94q-7 23 -14 30.5t-18 7.5q-13 0 -25.5 -9t-27.5 -37l-13 10q17 38 38.5 54.5t40.5 16.5
q20 0 31.5 -13t20.5 -45l22 -78q47 76 75 106q27 30 57 30q14 0 27 -9t17 -26q0 -11 -6.5 -19t-16.5 -8q-15 0 -26 16l-13 19q-10 -5 -23 -18q-21 -21 -43.5 -53t-42.5 -58l26 -93q7 -27 16 -37t25 -10q14 0 32.5 14t37.5 38l13 -10q-23 -33 -49 -54.5t-50 -21.5
q-21 0 -32 13t-22 49z" />
    <glyph glyph-name="uni0300" unicode="&#x300;" 
d="M126 550l-17 -11q-27 35 -57 75t-53 70t-23 47q0 11 8 16.5t18 5.5q11 0 20 -10t19 -30q17 -34 41 -78.5t44 -84.5z" />
    <glyph glyph-name="uni0301" unicode="&#x301;" 
d="M106 550q20 40 44 84.5t41 78.5q20 39 39 39q10 0 18 -5t8 -17q0 -16 -23 -46q-22 -30 -52.5 -70t-57.5 -75z" />
    <glyph glyph-name="uni0302" unicode="&#x302;" 
d="M237 550l-91 135l-137 -135l-13 14l149 177h22l88 -177z" />
    <glyph glyph-name="uni0303" unicode="&#x303;" 
d="M-27 596q13 54 39 79.5t59 25.5q25 0 41 -11.5t33 -30.5q20 -20 33.5 -31.5t32.5 -11.5q18 0 36.5 18.5t33.5 59.5l18 -8q-16 -52 -40.5 -78t-55.5 -26q-23 0 -39.5 11.5t-35.5 30.5q-19 20 -33.5 31.5t-32.5 11.5q-21 0 -39.5 -18t-32.5 -60z" />
    <glyph glyph-name="uni0304" unicode="&#x304;" 
d="M17 624l8 40h228l-8 -40h-228z" />
    <glyph glyph-name="uni0306" unicode="&#x306;" 
d="M121 581q-66 0 -96.5 41t-32.5 101l23 9q9 -46 34.5 -77.5t77.5 -31.5q47 0 80.5 29.5t55.5 78.5l22 -7q-19 -61 -60.5 -102t-103.5 -41z" />
    <glyph glyph-name="uni0307" unicode="&#x307;" 
d="M141 632q-16 0 -27 10t-11 29q0 20 13.5 32.5t28.5 12.5q17 0 27.5 -10t10.5 -27q0 -20 -13 -33.5t-29 -13.5z" />
    <glyph glyph-name="uni0308" unicode="&#x308;" 
d="M45 648q-13 0 -23.5 9t-10.5 25q0 20 13 31.5t28 11.5q14 0 24 -9t10 -24q0 -19 -12.5 -31.5t-28.5 -12.5zM228 648q-13 0 -23 9t-10 25q0 20 13 31.5t28 11.5q14 0 24 -9t10 -24q0 -19 -13 -31.5t-29 -12.5z" />
    <glyph glyph-name="uni0309" unicode="&#x309;" 
d="M110 556l-4 20q35 7 51.5 25t16.5 40q0 24 -18 37t-60 20l9 38q102 -12 102 -84q0 -37 -25.5 -64t-71.5 -32z" />
    <glyph glyph-name="uni030A" unicode="&#x30a;" 
d="M130 561q-37 0 -61.5 23t-24.5 60q0 33 15.5 55.5t39 34.5t48.5 12q35 0 60.5 -22.5t25.5 -59.5q0 -33 -15.5 -56t-39 -35t-48.5 -12zM131 588q29 0 49 21.5t20 52.5q0 23 -14 40.5t-40 17.5q-31 0 -50 -22.5t-19 -51.5q0 -22 13.5 -40t40.5 -18z" />
    <glyph glyph-name="uni030B" unicode="&#x30b;" 
d="M16 573l87 138q19 32 38 32q10 0 16.5 -5.5t6.5 -15.5q0 -19 -22 -41l-109 -120zM155 573l87 138q19 32 39 32q22 0 22 -21q0 -19 -22 -41l-109 -120z" />
    <glyph glyph-name="uni030C" unicode="&#x30c;" 
d="M37 751l88 -142l140 143l15 -13l-150 -183h-26l-86 183z" />
    <glyph glyph-name="uni031B" unicode="&#x31b;" 
d="M20 392v20q64 8 88 37t24 60q0 21 -6 33.5t-6 24.5q0 13 9 21t21 8q5 0 10 -1t10 -6q3 -8 6 -17.5t3 -23.5q0 -38 -18 -72t-53 -56.5t-88 -27.5z" />
    <glyph glyph-name="uni0323" unicode="&#x323;" 
d="M-31 -177q-16 0 -27 10t-11 29q0 20 13.5 32.5t28.5 12.5q17 0 27.5 -10t10.5 -27q0 -20 -13 -33.5t-29 -13.5z" />
    <glyph glyph-name="uni0324" unicode="&#x324;" 
d="M-117 -142q-13 0 -23.5 9t-10.5 25q0 20 13 31.5t28 11.5q14 0 24 -9t10 -24q0 -19 -12.5 -31.5t-28.5 -12.5zM66 -142q-13 0 -23 9t-10 25q0 20 13 31.5t28 11.5q14 0 24 -9t10 -24q0 -19 -13 -31.5t-29 -12.5z" />
    <glyph glyph-name="uni0326" unicode="&#x326;" 
d="M-84 -238l-10 18q29 17 45.5 33t28.5 39q-20 13 -27 26.5t-7 26.5q0 14 10.5 23.5t23.5 9.5q18 0 33 -15q2 -9 3.5 -15.5t1.5 -13.5q0 -47 -27 -77.5t-75 -54.5z" />
    <glyph glyph-name="uni0327" unicode="&#x327;" 
d="M-46 -85l43 85h20l-34 -71q43 -15 65.5 -33t22.5 -49t-27 -50.5t-71 -19.5q-48 0 -80 19l8 19q15 -7 31.5 -11t35.5 -4q29 0 47 13.5t18 35.5q0 27 -19 41t-60 25z" />
    <glyph glyph-name="uni0328" unicode="&#x328;" 
d="M-113 -170q0 45 35 91t79 87h24q-43 -43 -69.5 -83.5t-26.5 -78.5q0 -56 51 -56q19 0 41.5 8t40.5 21l10 -13q-21 -20 -48.5 -34.5t-56.5 -14.5q-40 0 -60 21t-20 52z" />
    <glyph glyph-name="uni0329" unicode="&#x329;" 
d="M-75 -265l40 191h36l-29 -191h-47z" />
    <glyph glyph-name="uni032E" unicode="&#x32e;" 
d="M-38 -220q-66 0 -96.5 41t-32.5 101l23 9q9 -46 34.5 -77.5t77.5 -31.5q47 0 80.5 29.5t55.5 78.5l22 -7q-19 -61 -60.5 -102t-103.5 -41z" />
    <glyph glyph-name="uni0331" unicode="&#x331;" 
d="M-139 -147l8 40h228l-8 -40h-228z" />
    <glyph glyph-name="uni0374" unicode="&#x374;" horiz-adv-x="237" 
d="M145 457l68 275q14 10 33 10q24 0 24 -25q0 -22 -17 -63t-45 -105l-41 -95z" />
    <glyph glyph-name="uni0375" unicode="&#x375;" horiz-adv-x="240" 
d="M96 158l-68 -275q-14 -10 -33 -10q-24 0 -24 25q0 22 17 63t45 105l41 95z" />
    <glyph glyph-name="uni037E" unicode="&#x37e;" horiz-adv-x="300" 
d="M192 357q-19 0 -30 11.5t-11 27.5q0 20 14.5 33.5t34.5 13.5q18 0 28.5 -11.5t10.5 -27.5q0 -21 -13.5 -34t-33.5 -13zM15 -165l-11 18q82 45 117 128l-21 22q-17 16 -17 38q0 16 11 27.5t30 11.5t34 -12q6 -13 6 -28q0 -41 -19 -80.5t-52.5 -72t-77.5 -52.5z" />
    <glyph glyph-name="tonos" unicode="&#x384;" horiz-adv-x="400" 
d="M250 556q17 41 33 81l32 80q8 20 16 29t19 9q12 0 18.5 -7t6.5 -17q0 -9 -4.5 -18t-15.5 -28q-22 -35 -43.5 -69.5t-43.5 -69.5z" />
    <glyph glyph-name="dieresistonos" unicode="&#x385;" horiz-adv-x="423" 
d="M200 655q-13 0 -22 8.5t-9 21.5q0 17 11.5 28t26.5 11q13 0 21.5 -8t8.5 -22q0 -17 -11.5 -28t-25.5 -11zM273 569l-20 8q11 41 22 81t21 80q5 19 12 29t21 10q13 0 20 -7t7 -17q0 -8 -4.5 -17.5l-13.5 -28.5q-16 -34 -32 -68.5t-33 -69.5zM406 655q-13 0 -22 8.5
t-9 21.5q0 17 11.5 28t25.5 11t22.5 -8t8.5 -22q0 -17 -11.5 -28t-25.5 -11z" />
    <glyph glyph-name="Alphatonos" unicode="&#x386;" horiz-adv-x="661" 
d="M222 276h215l-44 331zM-28 0l6 28l82 9l340 637h35l89 -638l97 -8l-6 -28h-255l6 28l102 8l-28 210h-234l-108 -209l88 -9l-5 -28h-209zM134 490q17 41 33 81l32 80q8 20 16 29t19 9q12 0 18.5 -7t6.5 -17q0 -9 -4.5 -18t-15.5 -28q-22 -35 -43.5 -69.5t-43.5 -69.5z" />
    <glyph glyph-name="anoteleia" unicode="&#x387;" horiz-adv-x="294" 
d="M197 395q-19 0 -30 11.5t-11 27.5q0 20 14.5 33.5t34.5 13.5q18 0 28.5 -11.5t10.5 -27.5q0 -21 -13.5 -34t-33.5 -13z" />
    <glyph glyph-name="Epsilontonos" unicode="&#x388;" horiz-adv-x="732" 
d="M168 0l6 28l97 8l62 326q13 69 25 138t22 138l-101 8l5 28h460l-21 -163h-35l5 130h-257l-53 -283h180l30 96h29l-43 -224h-28l7 96h-181l-3 -14q-13 -70 -25.5 -139.5t-23.5 -139.5h293l43 130h35l-39 -163h-489zM91 490q17 41 33 81l32 80q8 20 16 29t19 9
q12 0 18.5 -7t6.5 -17q0 -9 -4.5 -18t-15.5 -28q-22 -35 -43.5 -69.5t-43.5 -69.5z" />
    <glyph glyph-name="Etatonos" unicode="&#x389;" horiz-adv-x="920" 
d="M700 646l5 28h255l-6 -28l-98 -8l-61 -326q-13 -69 -25 -138t-23 -137l102 -9l-5 -28h-255l6 28l97 8l57 301h-370l-5 -25q-13 -69 -25 -138t-23 -137l103 -9l-6 -28h-255l6 28l97 8l62 326q26 138 48 276l-102 8l5 28h255l-6 -28l-98 -8l-50 -270h370q12 68 24 135.5
t22 134.5zM91 490q17 41 33 81l32 80q8 20 16 29t19 9q12 0 18.5 -7t6.5 -17q0 -9 -4.5 -18t-15.5 -28q-22 -35 -43.5 -69.5t-43.5 -69.5z" />
    <glyph glyph-name="Iotatonos" unicode="&#x38a;" horiz-adv-x="499" 
d="M279 646l5 28h255l-6 -28l-98 -8l-61 -326q-13 -69 -25 -138t-23 -137l102 -9l-5 -28h-255l6 28l97 8l62 326q13 69 25 138t22 138zM91 490q17 41 33 81l32 80q8 20 16 29t19 9q12 0 18.5 -7t6.5 -17q0 -9 -4.5 -18t-15.5 -28q-22 -35 -43.5 -69.5t-43.5 -69.5z" />
    <glyph glyph-name="Omicrontonos" unicode="&#x38c;" horiz-adv-x="773" 
d="M421 -15q-76 0 -129.5 35t-81.5 97t-28 142q0 90 26 168t73 137t109.5 92t134.5 33q79 0 132 -35t80.5 -97t27.5 -143q0 -90 -25.5 -168t-72 -136.5t-109.5 -91.5t-137 -33zM429 19q60 0 111 29.5t89.5 82.5t59.5 123.5t21 152.5q0 112 -45.5 180t-146.5 68
q-61 0 -112.5 -31t-89 -85t-58.5 -124.5t-21 -148.5q0 -71 20.5 -127t63 -88t108.5 -32zM91 490q17 41 33 81l32 80q8 20 16 29t19 9q12 0 18.5 -7t6.5 -17q0 -9 -4.5 -18t-15.5 -28q-22 -35 -43.5 -69.5t-43.5 -69.5z" />
    <glyph glyph-name="Upsilontonos" unicode="&#x38e;" horiz-adv-x="742" 
d="M625 646l5 28h224l-6 -28l-88 -9l-246 -362q-11 -59 -22 -119t-22 -119l112 -9l-6 -28h-275l6 28l111 8l44 238l-129 364l-81 8l6 28h239l-5 -28l-101 -8l114 -329l219 328zM91 490q17 41 33 81l32 80q8 20 16 29t19 9q12 0 18.5 -7t6.5 -17q0 -9 -4.5 -18t-15.5 -28
q-22 -35 -43.5 -69.5t-43.5 -69.5z" />
    <glyph glyph-name="Omegatonos" unicode="&#x38f;" horiz-adv-x="821" 
d="M184 0l-4 160h34l13 -114h144l9 50q-70 41 -107 103t-37 145q0 79 24.5 142.5t66.5 108.5t97.5 69t116.5 24q68 0 123 -28t87 -82.5t32 -134.5q0 -77 -28.5 -145.5t-80 -121.5t-120.5 -83l-6 -47h146l43 114h36l-42 -160h-221l14 112q100 44 152 128t52 202
q0 98 -48.5 155.5t-140.5 57.5q-70 0 -126.5 -39t-89.5 -109t-33 -165q0 -85 29 -139t96 -90l-21 -113h-210zM91 490q17 41 33 81l32 80q8 20 16 29t19 9q12 0 18.5 -7t6.5 -17q0 -9 -4.5 -18t-15.5 -28q-22 -35 -43.5 -69.5t-43.5 -69.5z" />
    <glyph glyph-name="iotadieresistonos" unicode="&#x390;" horiz-adv-x="289" 
d="M155 -13q-25 0 -42 16t-17 50q0 12 3.5 33t10.5 58t19 97l46 229l45 10l7 -7l-28 -116q-19 -80 -30.5 -131.5t-18 -82t-9 -46.5t-2.5 -26q0 -23 8 -32t23 -9q17 0 35 10t43 35l11 -15q-60 -73 -104 -73zM146 655q-13 0 -22 8.5t-9 21.5q0 17 11.5 28t26.5 11
q13 0 21.5 -8t8.5 -22q0 -17 -11.5 -28t-25.5 -11zM219 569l-20 8q11 41 22 81t21 80q5 19 12 29t21 10q13 0 20 -7t7 -17q0 -8 -4.5 -17.5l-13.5 -28.5q-16 -34 -32 -68.5t-33 -69.5zM352 655q-13 0 -22 8.5t-9 21.5q0 17 11.5 28t25.5 11t22.5 -8t8.5 -22q0 -17 -11.5 -28
t-25.5 -11z" />
    <glyph glyph-name="Alpha" unicode="&#x391;" horiz-adv-x="661" 
d="M-28 0l6 28l82 9l340 637h35l89 -638l97 -8l-6 -28h-255l6 28l102 8l-28 210h-234l-108 -209l88 -9l-5 -28h-209zM222 276h215l-44 331z" />
    <glyph glyph-name="Beta" unicode="&#x392;" horiz-adv-x="585" 
d="M124 646l5 28h219q107 0 156.5 -38.5t49.5 -98.5q0 -68 -44.5 -117.5t-130.5 -66.5q82 -12 121 -54.5t39 -98.5q0 -94 -70.5 -147t-195.5 -53h-260l6 28l97 8l62 326q13 69 25 138t22 138zM219 312q-13 -70 -25.5 -140t-23.5 -140h102q104 0 158.5 44.5t54.5 123.5
q0 66 -50 101t-148 35h-63zM333 642h-52l-52 -275h61q109 0 160.5 43t51.5 116q0 55 -37.5 85.5t-131.5 30.5z" />
    <glyph glyph-name="Gamma" unicode="&#x393;" horiz-adv-x="529" 
d="M124 646l5 28h452l-23 -167h-34l5 134h-248l-62 -329q-13 -69 -25 -138t-23 -137l107 -9l-6 -28h-259l6 28l97 8l62 326q13 69 25 138t22 138z" />
    <glyph glyph-name="Delta" unicode="&#x2206;" horiz-adv-x="653" 
d="M27 0l7 39l379 635h35l122 -635l-8 -39h-535zM75 42h439l-107 570z" />
    <glyph glyph-name="Delta" unicode="&#x394;" horiz-adv-x="653" 
d="M27 0l7 39l379 635h35l122 -635l-8 -39h-535zM75 42h439l-107 570z" />
    <glyph glyph-name="Epsilon" unicode="&#x395;" horiz-adv-x="577" 
d="M124 646l5 28h460l-21 -163h-35l5 130h-257l-53 -283h180l30 96h29l-43 -224h-28l7 96h-181l-3 -14q-13 -70 -25.5 -139.5t-23.5 -139.5h293l43 130h35l-39 -163h-489l6 28l97 8l62 326q13 69 25 138t22 138z" />
    <glyph glyph-name="Zeta" unicode="&#x396;" horiz-adv-x="540" 
d="M87 505l37 169h458l-5 -26l-511 -615h370l47 136h37l-39 -169h-484l5 26l512 615h-344l-46 -136h-37z" />
    <glyph glyph-name="Eta" unicode="&#x397;" horiz-adv-x="765" 
d="M545 646l5 28h255l-6 -28l-98 -8l-61 -326q-13 -69 -25 -138t-23 -137l102 -9l-5 -28h-255l6 28l97 8l57 301h-370l-5 -25q-13 -69 -25 -138t-23 -137l103 -9l-6 -28h-255l6 28l97 8l62 326q26 138 48 276l-102 8l5 28h255l-6 -28l-98 -8l-50 -270h370q12 68 24 135.5
t22 134.5z" />
    <glyph glyph-name="Theta" unicode="&#x398;" horiz-adv-x="656" 
d="M193 243l36 188h29l-4 -77h212l26 77h29l-36 -188h-29l4 77h-212l-26 -77h-29zM312 19q60 0 111 29.5t89.5 82.5t59.5 123.5t21 152.5q0 112 -45.5 180t-146.5 68q-61 0 -112.5 -31t-89 -85t-58.5 -124.5t-21 -148.5q0 -71 20.5 -127t63 -88t108.5 -32zM304 -15
q-76 0 -129.5 35t-81.5 97t-28 142q0 90 26 168t73 137t109.5 92t134.5 33q79 0 132 -35t80.5 -97t27.5 -143q0 -90 -25.5 -168t-72 -136.5t-109.5 -91.5t-137 -33z" />
    <glyph glyph-name="Iota" unicode="&#x399;" horiz-adv-x="343" 
d="M124 646l5 28h255l-6 -28l-98 -8l-61 -326q-13 -69 -25 -138t-23 -137l102 -9l-5 -28h-255l6 28l97 8l62 326q13 69 25 138t22 138z" />
    <glyph glyph-name="Kappa" unicode="&#x39a;" horiz-adv-x="657" 
d="M480 646l5 28h225l-5 -28l-88 -9l-265 -242l196 -358l91 -9l-5 -28h-237l5 28l90 8l-179 324l-102 -94q-10 -58 -20.5 -115t-19.5 -114l102 -9l-5 -28h-255l6 28l97 8l62 326q13 69 25 138t22 138l-101 8l5 28h255l-6 -28l-98 -8l-61 -326v0l355 325z" />
    <glyph glyph-name="Lambda" unicode="&#x39b;" horiz-adv-x="661" 
d="M-28 0l6 28l82 9l340 637h35l89 -638l97 -8l-6 -28h-255l6 28l102 8l-75 571l-295 -570l88 -9l-5 -28h-209z" />
    <glyph glyph-name="Mu" unicode="&#x39c;" horiz-adv-x="915" 
d="M4 0l5 28l94 9l140 600l-94 9l6 28h150l128 -594l355 594h148l-4 -28l-97 -8l-49 -327q-10 -68 -18 -136.5t-18 -136.5l99 -9l-4 -29h-246l4 29l93 8l82 565l-357 -602h-23l-131 596l-131 -559l96 -9l-5 -28h-223z" />
    <glyph glyph-name="Nu" unicode="&#x39d;" horiz-adv-x="738" 
d="M551 646l6 28h231l-5 -28l-85 -9l-121 -647h-25l-308 596l-103 -549l110 -9l-5 -28h-232l5 28l88 9l113 596l-3 6l-95 7l5 28h135l299 -587l103 550z" />
    <glyph glyph-name="Xi" unicode="&#x39e;" horiz-adv-x="564" 
d="M12 0l22 167h39l-5 -120h381l39 120h38l-40 -167h-474zM421 240l7 84h-234l-27 -84h-28l39 202h29l-6 -80h234l26 80h28l-39 -202h-29zM109 511l39 163h455l-21 -163h-34l3 116h-369l-38 -116h-35z" />
    <glyph glyph-name="Omicron" unicode="&#x39f;" horiz-adv-x="656" 
d="M304 -15q-76 0 -129.5 35t-81.5 97t-28 142q0 90 26 168t73 137t109.5 92t134.5 33q79 0 132 -35t80.5 -97t27.5 -143q0 -90 -25.5 -168t-72 -136.5t-109.5 -91.5t-137 -33zM312 19q60 0 111 29.5t89.5 82.5t59.5 123.5t21 152.5q0 112 -45.5 180t-146.5 68
q-61 0 -112.5 -31t-89 -85t-58.5 -124.5t-21 -148.5q0 -71 20.5 -127t63 -88t108.5 -32z" />
    <glyph glyph-name="Pi" unicode="&#x3a0;" horiz-adv-x="761" 
d="M13 0l6 28l97 8l62 326q26 138 48 276l-102 8l5 28h672l-6 -28l-98 -8l-61 -326q-13 -69 -25 -138t-23 -137l102 -9l-5 -28h-255l6 28l97 8l62 326q13 70 25 140t23 140h-362l-62 -330q-13 -69 -25 -138t-23 -137l103 -9l-6 -28h-255z" />
    <glyph glyph-name="Rho" unicode="&#x3a1;" horiz-adv-x="555" 
d="M345 642h-64l-62 -330l-1 -7h77q78 0 127 25t72 67.5t23 94.5q0 75 -41.5 112.5t-130.5 37.5zM124 646l5 28h227q111 0 163.5 -47t52.5 -131q0 -63 -31.5 -113t-91.5 -79t-148 -29h-89q-10 -59 -21 -119t-20 -119l107 -9l-6 -28h-259l6 28l97 8l62 326q13 69 25 138
t22 138z" />
    <glyph glyph-name="Sigma" unicode="&#x3a3;" horiz-adv-x="542" 
d="M482 0h-485l7 35l291 303l-166 310l5 26h450l-24 -169h-36l4 136h-336l156 -293l-290 -299h382l47 137h38z" />
    <glyph glyph-name="Tau" unicode="&#x3a4;" horiz-adv-x="595" 
d="M84 505l39 169h529l-24 -169h-35l6 136h-191l-62 -329q-13 -69 -24.5 -138t-22.5 -137l108 -9l-6 -28h-265l6 28l102 8l61 326q14 70 25.5 140t23.5 139h-190l-45 -136h-35z" />
    <glyph glyph-name="Upsilon" unicode="&#x3a5;" horiz-adv-x="556" 
d="M65 646l6 28h239l-5 -28l-101 -8l114 -329l219 328l-99 9l5 28h224l-6 -28l-88 -9l-246 -362q-11 -59 -22 -119t-22 -119l112 -9l-6 -28h-275l6 28l111 8l44 238l-129 364z" />
    <glyph glyph-name="Phi" unicode="&#x3a6;" horiz-adv-x="692" 
d="M394 312q-7 -40 -14.5 -80.5t-15.5 -81.5q135 4 202.5 65t68.5 162q1 75 -47 119.5t-149 49.5zM121 320q-1 -75 47 -119.5t148 -49.5l41 211q9 45 17.5 92t16.5 93q-136 -4 -203 -65t-67 -162zM307 652l6 28h254l-6 -28l-103 -9l-13 -65q125 -6 184.5 -60.5t58.5 -137.5
q0 -73 -35.5 -131.5t-108 -93t-185.5 -37.5q-4 -20 -7.5 -40.5t-6.5 -41.5l98 -8l-5 -28h-255l6 28l105 9l16 82q-124 6 -183.5 61t-58.5 137q0 74 35.5 132t108.5 93t185 37q3 16 5.5 32t5.5 32z" />
    <glyph glyph-name="Chi" unicode="&#x3a7;" horiz-adv-x="640" 
d="M460 646l5 28h234l-5 -28l-89 -9l-230 -285l133 -315l93 -9l-6 -28h-245l6 28l96 8l-115 271l-211 -270l106 -9l-5 -28h-235l5 28l87 8l242 299l-128 303l-83 8l5 28h243l-5 -28l-104 -9l109 -257l201 257z" />
    <glyph glyph-name="Psi" unicode="&#x3a8;" horiz-adv-x="740" 
d="M224 0l6 28l97 8l40 213q-89 5 -132.5 50t-50.5 137l-9 132q-2 26 -3.5 42t-9.5 24t-30 10l-28 2l6 28h32q39 0 55 -11.5t20.5 -36.5t6.5 -65l9 -124q6 -81 38.5 -116t102.5 -40l15 81q14 76 25.5 144t21.5 132l-94 8l6 28h242l-6 -28l-93 -8l-61 -326q-1 -8 -2.5 -16
t-3.5 -16q52 2 93.5 18.5t72.5 56t51 108.5l30 105q12 40 24.5 63t34 33t59.5 10h25l-5 -28l-24 -2q-30 -3 -39 -19t-20 -52l-34 -111q-36 -116 -104 -163t-169 -51q-10 -56 -19.5 -108.5t-17.5 -102.5l102 -9l-5 -28h-255z" />
    <glyph glyph-name="Omega" unicode="&#x2126;" horiz-adv-x="705" 
d="M67 0l-4 160h34l13 -114h144l9 50q-70 41 -107 103t-37 145q0 79 24.5 142.5t66.5 108.5t97.5 69t116.5 24q68 0 123 -28t87 -82.5t32 -134.5q0 -77 -28.5 -145.5t-80 -121.5t-120.5 -83l-6 -47h146l43 114h36l-42 -160h-221l14 112q100 44 152 128t52 202
q0 98 -48.5 155.5t-140.5 57.5q-70 0 -126.5 -39t-89.5 -109t-33 -165q0 -85 29 -139t96 -90l-21 -113h-210z" />
    <glyph glyph-name="Omega" unicode="&#x3a9;" horiz-adv-x="705" 
d="M67 0l-4 160h34l13 -114h144l9 50q-70 41 -107 103t-37 145q0 79 24.5 142.5t66.5 108.5t97.5 69t116.5 24q68 0 123 -28t87 -82.5t32 -134.5q0 -77 -28.5 -145.5t-80 -121.5t-120.5 -83l-6 -47h146l43 114h36l-42 -160h-221l14 112q100 44 152 128t52 202
q0 98 -48.5 155.5t-140.5 57.5q-70 0 -126.5 -39t-89.5 -109t-33 -165q0 -85 29 -139t96 -90l-21 -113h-210z" />
    <glyph glyph-name="Iotadieresis" unicode="&#x3aa;" horiz-adv-x="343" 
d="M185 753q-13 0 -23.5 9t-10.5 26q0 20 13 32t29 12q15 0 25 -9.5t10 -24.5q0 -20 -13 -32.5t-30 -12.5zM356 753q-13 0 -23.5 9t-10.5 26q0 20 13 32t29 12q15 0 25 -9.5t10 -24.5q0 -20 -13 -32.5t-30 -12.5zM124 646l5 28h255l-6 -28l-98 -8l-61 -326q-13 -69 -25 -138
t-23 -137l102 -9l-5 -28h-255l6 28l97 8l62 326q13 69 25 138t22 138z" />
    <glyph glyph-name="Upsilondieresis" unicode="&#x3ab;" horiz-adv-x="556" 
d="M65 646l6 28h239l-5 -28l-101 -8l114 -329l219 328l-99 9l5 28h224l-6 -28l-88 -9l-246 -362q-11 -59 -22 -119t-22 -119l112 -9l-6 -28h-275l6 28l111 8l44 238l-129 364zM287 753q-14 0 -24.5 9t-10.5 26q0 20 13.5 32t29.5 12q15 0 25 -9.5t10 -24.5q0 -20 -13 -32.5
t-30 -12.5zM491 753q-13 0 -23.5 9t-10.5 26q0 20 13.5 32t29.5 12q15 0 24.5 -9.5t9.5 -24.5q0 -20 -13 -32.5t-30 -12.5z" />
    <glyph glyph-name="alphatonos" unicode="&#x3ac;" horiz-adv-x="564" 
d="M110 138q0 -52 18 -81t53 -29q78 0 190 185l-10 110q-5 69 -24 99t-54 30q-34 0 -65 -28.5t-55.5 -74.5t-38.5 -101.5t-14 -109.5zM163 -12q-46 0 -74 34t-28 102q0 60 17.5 123t48.5 117t72.5 87.5t89.5 33.5q44 0 74 -30.5t38 -117.5l7 -71l116 221l44 -22v-6
l-156 -235l10 -104q5 -53 14.5 -72t33.5 -18q18 0 37.5 12.5t38.5 31.5l13 -14q-24 -29 -52 -51t-58 -22q-33 0 -47.5 23t-19.5 88l-7 77q-58 -100 -109.5 -143.5t-102.5 -43.5zM303 568q17 41 33 81l32 80q8 20 16 29t19 9q12 0 18.5 -7t6.5 -17q0 -9 -4.5 -18t-15.5 -28
q-22 -35 -43.5 -69.5t-43.5 -69.5z" />
    <glyph glyph-name="epsilontonos" unicode="&#x3ad;" horiz-adv-x="408" 
d="M190 -13q-63 0 -105.5 27.5t-42.5 87.5q0 50 42.5 91.5t124.5 52.5q-109 15 -109 105q0 56 49.5 95t135.5 39q49 0 90 -14t54 -35q-1 -15 -9 -24.5t-23 -9.5q-16 0 -45 24l-40 31q-7 1 -13.5 1h-13.5q-71 0 -103.5 -30t-32.5 -71q0 -42 30.5 -65.5t96.5 -23.5h26t25 1
l-8 -42q-7 1 -22.5 1h-22.5q-95 -4 -138.5 -39.5t-43.5 -79.5q0 -41 28.5 -62t79.5 -21q57 0 101 17.5t84 49.5l14 -15q-90 -91 -209 -91zM289 568q17 41 33 81l32 80q8 20 16 29t19 9q12 0 18.5 -7t6.5 -17q0 -9 -4.5 -18t-15.5 -28q-22 -35 -43.5 -69.5t-43.5 -69.5z" />
    <glyph glyph-name="etatonos" unicode="&#x3ae;" horiz-adv-x="515" 
d="M93 0q24 96 42.5 176t34.5 158q14 65 5.5 86.5t-31.5 21.5q-16 0 -31 -5t-33 -14l-10 18q29 24 48.5 34t42.5 10q38 0 50.5 -30t4.5 -89q53 57 102.5 88t88.5 31q34 0 55 -20t21 -65q0 -26 -3 -54.5t-11.5 -73.5t-25.5 -123l-70 -328l-47 -11l-6 7l66 275q22 86 33.5 140
t16.5 88.5t5 61.5q0 57 -55 57q-31 0 -75.5 -25t-99.5 -82l-69 -332l-41 -6zM302 568q17 41 33 81l32 80q8 20 16 29t19 9q12 0 18.5 -7t6.5 -17q0 -9 -4.5 -18t-15.5 -28q-22 -35 -43.5 -69.5t-43.5 -69.5z" />
    <glyph glyph-name="iotatonos" unicode="&#x3af;" horiz-adv-x="289" 
d="M155 -13q-25 0 -42 16t-17 50q0 12 3.5 33t10.5 58t19 97l46 229l45 10l7 -7l-28 -116q-19 -80 -30.5 -131.5t-18 -82t-9 -46.5t-2.5 -26q0 -23 8 -32t23 -9q17 0 35 10t43 35l11 -15q-60 -73 -104 -73zM207 568q17 41 33 81l32 80q8 20 16 29t19 9q12 0 18.5 -7t6.5 -17
q0 -9 -4.5 -18t-15.5 -28q-22 -35 -43.5 -69.5t-43.5 -69.5z" />
    <glyph glyph-name="upsilondieresistonos" unicode="&#x3b0;" horiz-adv-x="511" 
d="M249 -13q-53 0 -90.5 29.5t-37.5 93.5q0 26 8 64.5t19 81t19 80t8 62.5q0 26 -10.5 35t-24.5 9q-26 0 -63 -19l-9 18q28 24 48 34t42 10q32 0 46.5 -20.5t14.5 -58.5q0 -27 -8 -67t-19 -83.5t-19 -82.5t-8 -63q0 -40 25 -65t68 -25q50 0 92.5 35.5t69 103t27.5 162.5
q-20 50 -27.5 75.5t-7.5 43.5q0 24 12.5 34.5t25.5 10.5q10 0 15.5 -3.5t9.5 -11.5q2 -18 3 -49t1 -68q0 -105 -28 -187.5t-79.5 -130.5t-122.5 -48zM249 649q-13 0 -22 8.5t-9 21.5q0 17 11.5 28t26.5 11q13 0 21.5 -8t8.5 -22q0 -17 -11.5 -28t-25.5 -11zM322 563l-20 8
q11 41 22 81t21 80q5 19 12 29t21 10q13 0 20 -7t7 -17q0 -8 -4.5 -17.5l-13.5 -28.5q-16 -34 -32 -68.5t-33 -69.5zM455 649q-13 0 -22 8.5t-9 21.5q0 17 11.5 28t25.5 11t22.5 -8t8.5 -22q0 -17 -11.5 -28t-25.5 -11z" />
    <glyph glyph-name="alpha" unicode="&#x3b1;" horiz-adv-x="564" 
d="M110 138q0 -52 18 -81t53 -29q78 0 190 185l-10 110q-5 69 -24 99t-54 30q-34 0 -65 -28.5t-55.5 -74.5t-38.5 -101.5t-14 -109.5zM163 -12q-46 0 -74 34t-28 102q0 60 17.5 123t48.5 117t72.5 87.5t89.5 33.5q44 0 74 -30.5t38 -117.5l7 -71l116 221l44 -22v-6
l-156 -235l10 -104q5 -53 14.5 -72t33.5 -18q18 0 37.5 12.5t38.5 31.5l13 -14q-24 -29 -52 -51t-58 -22q-33 0 -47.5 23t-19.5 88l-7 77q-58 -100 -109.5 -143.5t-102.5 -43.5z" />
    <glyph glyph-name="beta" unicode="&#x3b2;" horiz-adv-x="537" 
d="M201 478l-71 -369q29 -45 71 -65t89 -20q51 0 87.5 24t56.5 64t20 87q0 164 -191 155l-5 28q110 17 168 74t58 137q0 53 -22.5 85t-75.5 32q-69 0 -115 -53.5t-70 -178.5zM31 -189l-8 6l67 321l71 353q25 125 86 186.5t143 61.5q71 0 105 -41.5t34 -102.5
q0 -48 -23.5 -92t-67 -77t-102.5 -50q74 -7 120 -54t46 -120q0 -59 -26.5 -108t-73.5 -78t-108 -29q-55 0 -100 24t-71 71l-45 -262z" />
    <glyph glyph-name="gamma" unicode="&#x3b3;" horiz-adv-x="456" 
d="M134 -189l-9 7l54 181q-2 128 -7 209.5t-12 142.5q-4 40 -9.5 59t-14 25.5t-20.5 6.5q-25 0 -62 -19l-9 18q29 24 49 34t42 10q35 0 48.5 -27t20.5 -90q6 -40 9 -93t4 -111t0 -114q62 74 105 139.5t75 131.5q4 8 7.5 16.5t6.5 16.5l-3 33q-1 11 -2 25.5t-1 24.5
q0 26 10.5 38.5t25.5 12.5q8 0 14.5 -3t9.5 -6q5 -9 5 -29q0 -22 -8.5 -54t-35.5 -85q-34 -68 -88 -145.5t-124 -155.5l-34 -188z" />
    <glyph glyph-name="delta" unicode="&#x3b4;" horiz-adv-x="475" 
d="M231 -13q-54 0 -92.5 25t-58.5 68t-20 96q0 77 30 136t80.5 96t113.5 48q-58 48 -79 83.5t-21 71.5q0 42 22.5 70.5t59.5 43t82 14.5q60 0 104 -23.5t60 -58.5q-1 -13 -9 -20.5t-19 -7.5q-14 0 -24.5 8t-20.5 21l-34 47q-13 3 -26.5 5t-27.5 2q-60 0 -92.5 -24.5
t-32.5 -70.5q0 -18 8 -36t30 -42t65 -61q60 -51 94 -103t34 -128q0 -70 -29.5 -129.5t-80.5 -95t-116 -35.5zM109 175q0 -81 35.5 -120.5t88.5 -39.5q51 0 90.5 30t62.5 81t23 112q0 62 -25 109t-81 93q-55 -14 -99 -48.5t-69.5 -88.5t-25.5 -128z" />
    <glyph glyph-name="epsilon" unicode="&#x3b5;" horiz-adv-x="408" 
d="M190 -13q-63 0 -105.5 27.5t-42.5 87.5q0 50 42.5 91.5t124.5 52.5q-109 15 -109 105q0 56 49.5 95t135.5 39q49 0 90 -14t54 -35q-1 -15 -9 -24.5t-23 -9.5q-16 0 -45 24l-40 31q-7 1 -13.5 1h-13.5q-71 0 -103.5 -30t-32.5 -71q0 -42 30.5 -65.5t96.5 -23.5h26t25 1
l-8 -42q-7 1 -22.5 1h-22.5q-95 -4 -138.5 -39.5t-43.5 -79.5q0 -41 28.5 -62t79.5 -21q57 0 101 17.5t84 49.5l14 -15q-90 -91 -209 -91z" />
    <glyph glyph-name="zeta" unicode="&#x3b6;" horiz-adv-x="365" 
d="M265 -179q16 25 26 50.5t10 48.5q0 25 -6.5 40.5t-27 28t-62.5 28.5q-71 28 -103 68t-32 98q0 62 37.5 133.5t119.5 164.5t216 217h-269l8 47l310 -10l-5 -31q-103 -100 -174 -176.5t-113 -136t-61 -108t-19 -92.5q0 -42 22.5 -74t89.5 -58q45 -17 69.5 -34.5t33.5 -38.5
t9 -51q0 -57 -60 -128z" />
    <glyph glyph-name="eta" unicode="&#x3b7;" horiz-adv-x="515" 
d="M93 0q24 96 42.5 176t34.5 158q14 65 5.5 86.5t-31.5 21.5q-16 0 -31 -5t-33 -14l-10 18q29 24 48.5 34t42.5 10q38 0 50.5 -30t4.5 -89q53 57 102.5 88t88.5 31q34 0 55 -20t21 -65q0 -26 -3 -54.5t-11.5 -73.5t-25.5 -123l-70 -328l-47 -11l-6 7l66 275q22 86 33.5 140
t16.5 88.5t5 61.5q0 57 -55 57q-31 0 -75.5 -25t-99.5 -82l-69 -332l-41 -6z" />
    <glyph glyph-name="theta" unicode="&#x3b8;" horiz-adv-x="473" 
d="M221 -13q-69 0 -108 52t-39 157q0 112 21.5 211.5t60 175.5t89.5 119t109 43q66 0 102.5 -55t36.5 -162q0 -114 -20 -212t-57 -172t-86.5 -115.5t-108.5 -41.5zM350 717q-45 0 -86.5 -41.5t-73.5 -114.5t-50 -170h297q4 35 6 72.5t2 76.5q0 92 -23 134.5t-72 42.5z
M225 15q49 0 90 42.5t71.5 119t45.5 177.5h-298q-12 -78 -12 -165q0 -92 27 -133t76 -41z" />
    <glyph glyph-name="iota" unicode="&#x3b9;" horiz-adv-x="289" 
d="M155 -13q-25 0 -42 16t-17 50q0 12 3.5 33t10.5 58t19 97l46 229l45 10l7 -7l-28 -116q-19 -80 -30.5 -131.5t-18 -82t-9 -46.5t-2.5 -26q0 -23 8 -32t23 -9q17 0 35 10t43 35l11 -15q-60 -73 -104 -73z" />
    <glyph glyph-name="kappa" unicode="&#x3ba;" horiz-adv-x="502" 
d="M93 0q24 96 42 176t34 158q10 45 8 68.5t-11 31.5t-22 8q-16 0 -31 -5t-33 -14l-10 18q29 24 48.5 34t42.5 10q80 0 51 -146l-17 -84l281 223q11 -1 18.5 -7.5t7.5 -17.5q0 -12 -11 -24t-49 -35l-234 -147l5 -1q49 -4 74 -30t41 -66l28 -69q11 -29 22 -40t29 -11
q23 0 42.5 14t35.5 31l12 -15q-28 -35 -52.5 -54t-53.5 -19q-26 0 -43 16.5t-30 52.5l-28 77q-16 49 -37 70.5t-57 25.5l-7 1l-47 -230l-41 -6z" />
    <glyph glyph-name="lambda" unicode="&#x3bb;" horiz-adv-x="507" 
d="M412 -13q-31 0 -45 26t-20 96l-28 324q-69 -109 -135.5 -218.5t-131.5 -223.5l-44 9l-5 7q77 128 156.5 250t153.5 235l-6 73q-7 76 -30.5 102t-63.5 26q-27 0 -50.5 -7.5t-47.5 -20.5l-12 22q29 27 60 39.5t59 12.5q47 0 75.5 -34.5t38.5 -129.5l44 -443q5 -58 15 -78.5
t32 -20.5q18 0 34.5 8.5t35.5 23.5l11 -16q-22 -27 -45.5 -44.5t-50.5 -17.5z" />
    <glyph glyph-name="nu" unicode="&#x3bd;" horiz-adv-x="461" 
d="M176 0q2 127 -3.5 208.5t-12.5 142.5q-4 40 -9.5 59t-14 25.5t-20.5 6.5q-13 0 -27 -5t-32 -14l-9 18q29 23 47.5 33.5t40.5 10.5q35 0 48.5 -27t20.5 -90q8 -60 11 -137.5t0 -178.5q123 138 186 268q9 19 16 36l-5 35q-1 11 -3 25t-2 23q0 26 10.5 38t26.5 12t24 -8
q2 -5 3.5 -11.5t1.5 -17.5q0 -22 -8.5 -55.5t-35.5 -86.5q-37 -71 -94.5 -150.5t-134.5 -160.5l-22 -2z" />
    <glyph glyph-name="xi" unicode="&#x3be;" horiz-adv-x="401" 
d="M277 -193l-20 14q16 25 26.5 50t10.5 51q0 22 -6 36.5t-25 27.5t-57 28q-76 29 -110 69t-34 105q0 42 21 82t67.5 69t122.5 37q-64 18 -92 57t-28 82q0 73 50 119.5t127 64.5l-180 2l8 45l329 -11l-6 -34q-137 -6 -210.5 -51t-73.5 -129q0 -31 17 -60t52.5 -47t90.5 -18
q9 0 22 0.5t29 1.5l-10 -42h-73q-61 0 -109.5 -18.5t-76.5 -54.5t-28 -89q0 -48 27 -79.5t92 -57.5q44 -17 67 -35t31.5 -39t8.5 -48q0 -28 -14 -59t-46 -69z" />
    <glyph glyph-name="omicron" unicode="&#x3bf;" horiz-adv-x="479" 
d="M218 -13q-38 0 -73 18t-57 56.5t-22 99.5q0 62 19 119.5t52 103.5t77 73.5t95 27.5q62 0 106 -42.5t44 -133.5q0 -64 -19 -122t-52 -103t-76.5 -71t-93.5 -26zM224 15q41 0 75 25t59 66.5t38.5 91.5t13.5 100q0 84 -29.5 121t-76.5 37q-41 0 -75.5 -25t-60 -66.5
t-39.5 -92.5t-14 -103q0 -81 31.5 -117.5t77.5 -36.5z" />
    <glyph glyph-name="pi" unicode="&#x3c0;" horiz-adv-x="552" 
d="M66 415v24q38 17 79.5 25t99.5 8h350l-7 -43l-132 4q-22 -106 -37 -176t-23 -113t-8 -68t9 -35.5t27 -10.5q19 0 39 12t39 32l12 -16q-23 -28 -52 -49.5t-61 -21.5q-28 0 -44.5 16.5t-16.5 53.5q0 38 20.5 127.5t61.5 248.5h-179q-18 -86 -33 -148.5t-27 -110t-23 -89.5
q-27 -96 -102 -96q-39 0 -39 28q0 11 6 18.5t12 11.5q19 5 40 9.5t42 6.5q27 92 50.5 179.5t45.5 189.5z" />
    <glyph glyph-name="rho" unicode="&#x3c1;" horiz-adv-x="505" 
d="M151 244l-31 -145q22 -37 55.5 -58.5t73.5 -21.5q54 0 95.5 36.5t64.5 99.5t23 142t-29 119t-83 40q-63 0 -105.5 -54.5t-63.5 -157.5zM25 -189l-8 6l84 406q26 127 82.5 194.5t144.5 67.5q68 0 111 -46.5t43 -138.5q0 -65 -18 -121.5t-49.5 -99.5t-73.5 -67.5t-91 -24.5
q-44 0 -80.5 23t-57.5 63l-43 -253z" />
    <glyph glyph-name="uni03C2" unicode="&#x3c2;" horiz-adv-x="391" 
d="M255 -179q16 26 26 50.5t10 49.5q0 23 -6.5 38t-25.5 28t-57 28q-75 29 -108.5 74.5t-33.5 120.5t32 137.5t90 100t135 37.5q38 0 70.5 -14t41.5 -34q0 -13 -10 -22.5t-25 -9.5q-11 0 -21.5 5.5t-24.5 15.5l-45 34q-65 -9 -109 -43.5t-66 -85t-22 -107.5q0 -66 27 -102.5
t95 -64.5q63 -25 84.5 -51.5t21.5 -70.5q0 -28 -14 -59.5t-45 -68.5z" />
    <glyph glyph-name="sigma" unicode="&#x3c3;" horiz-adv-x="544" 
d="M217 -13q-64 0 -108 46t-44 137q0 85 34 152.5t98.5 107.5t153.5 42l210 4l-7 -48l-201 8q46 -21 72.5 -66.5t26.5 -103.5q0 -48 -16.5 -97.5t-47.5 -90.5t-74 -66t-97 -25zM114 174q0 -84 31.5 -121.5t78.5 -37.5q41 0 74.5 22.5t57.5 59.5t37 81.5t13 88.5
q0 66 -26 109.5t-74 60.5q-59 -8 -102 -44t-66.5 -92t-23.5 -127z" />
    <glyph glyph-name="tau" unicode="&#x3c4;" horiz-adv-x="411" 
d="M54 415v24q38 17 86.5 25t109.5 8h204l-6 -43l-174 4q-28 -139 -48.5 -233t-20.5 -127q0 -23 9.5 -33t28.5 -10q15 0 40 9.5t50 34.5l13 -15q-30 -38 -63 -55t-58 -17q-37 0 -53 19t-16 53q0 23 10.5 76t29 129.5t42.5 168.5z" />
    </font>
</defs>
</svg>
