<?xml version="1.0" standalone="no"?>
<!DOCTYPE svg PUBLIC "-//W3C//DTD SVG 1.1//EN" "http://www.w3.org/Graphics/SVG/1.1/DTD/svg11.dtd" >
<svg xmlns="http://www.w3.org/2000/svg" xmlns:xlink="http://www.w3.org/1999/xlink" version="1.1">
<metadata>
Created by FontForge 20170731 at Mon Jun 29 15:02:15 2020
 By Aleksey,,,
Copyright 2016 The Nunito Sans Project Authors (https://github.com/Fonthausen/NunitoSans)
</metadata>
<defs>
<font id="NunitoSans-ExtraLightItalic" horiz-adv-x="0" >
  <font-face 
    font-family="Nunito Sans ExtraLight"
    font-weight="200"
    font-style="italic"
    font-stretch="normal"
    units-per-em="1000"
    panose-1="0 0 0 0 0 0 0 0 0 0"
    ascent="800"
    descent="-200"
    x-height="484"
    cap-height="705"
    bbox="-286 -270 1322 1036"
    underline-thickness="28"
    underline-position="-122"
    slope="-9"
    unicode-range="U+000D-FB02"
  />
<missing-glyph horiz-adv-x="500" 
d="M50 -180v885h400v-885h-400zM100 -130h300v785h-300v-785z" />
    <glyph glyph-name="fi" unicode="fi" horiz-adv-x="512" 
d="M67 0l71 448h-96l6 36h96l7 49q12 78 61.5 123t128.5 49l42 2l2 -37l-46 -3q-126 -9 -147 -139l-7 -44h280l-77 -484h-42l71 448h-237l-71 -448h-42zM434 619l10 63h64l-10 -63h-64z" />
    <glyph glyph-name="fl" unicode="fl" horiz-adv-x="581" 
d="M67 0l71 448h-96l6 36h96l7 49q12 78 61.5 123t128.5 49l42 2l2 -37l-46 -3q-126 -9 -147 -139l-7 -44h148l-6 -36h-147l-71 -448h-42zM483 -8q-62 0 -91 38t-17 113l89 562h42l-89 -562q-10 -61 8.5 -86.5t65.5 -25.5q25 0 50 6l-9 -38q-11 -4 -24.5 -5.5t-24.5 -1.5z
" />
    <glyph glyph-name=".notdef" horiz-adv-x="500" 
d="M50 -180v885h400v-885h-400zM100 -130h300v785h-300v-785z" />
    <glyph glyph-name=".null" 
 />
    <glyph glyph-name="nonmarkingreturn" horiz-adv-x="333" 
 />
    <glyph glyph-name="NULL" 
 />
    <glyph glyph-name="NULL" 
 />
    <glyph glyph-name="CR" unicode="&#xd;" horiz-adv-x="246" 
 />
    <glyph glyph-name="space" unicode=" " horiz-adv-x="246" 
 />
    <glyph glyph-name="exclam" unicode="!" horiz-adv-x="211" 
d="M80 162l73 543h53l-99 -543h-27zM33 0l11 70h69l-11 -70h-69z" />
    <glyph glyph-name="quotedbl" unicode="&#x22;" horiz-adv-x="342" 
d="M119 440l29 265h52l-53 -265h-28zM259 440l29 265h52l-53 -265h-28z" />
    <glyph glyph-name="numbersign" unicode="#" horiz-adv-x="600" 
d="M55 0l69 191h-105l6 40h112l89 251h-142l6 40h149l65 183h42l-64 -183h188l64 183h43l-64 -183h104l-6 -40h-112l-89 -251h142l-6 -40h-149l-69 -191h-43l68 191h-187l-68 -191h-43zM179 231h188l89 251h-188z" />
    <glyph glyph-name="dollar" unicode="$" horiz-adv-x="600" 
d="M233 -115l18 112q-65 4 -119.5 24t-98.5 62l23 35q53 -46 105 -63.5t127 -17.5q53 0 97.5 16t71 48t26.5 79q0 36 -13.5 61.5t-46.5 44.5t-92 35l-81 22q-67 18 -108 56.5t-41 117.5q0 65 35.5 108.5t95.5 65t131 18.5l18 111h40l-19 -115q51 -7 97 -30.5t80 -62.5
l-23 -34q-44 50 -95 70t-110 20q-94 0 -150 -38.5t-56 -112.5q0 -62 29 -90.5t85 -43.5l81 -22q101 -28 144 -69t43 -108q0 -59 -32.5 -100.5t-86 -64t-117.5 -23.5l-18 -111h-40z" />
    <glyph glyph-name="percent" unicode="%" horiz-adv-x="916" 
d="M225 -22l-32 24l533 725l32 -24zM239 282q-63 0 -100 42t-37 117q0 74 23 136t68.5 99t111.5 37q63 0 100 -42t37 -117q0 -74 -23 -136t-68 -99t-112 -37zM239 319q53 0 88 30.5t53 82.5t20 116q2 67 -25 97.5t-70 30.5q-53 0 -88 -30.5t-53 -82t-20 -116.5
q-2 -67 25 -97.5t70 -30.5zM646 -8q-63 0 -100 42t-37 117q0 74 23 136t68.5 99t111.5 37q63 0 100 -42t37 -117q0 -74 -23 -136t-68 -99t-112 -37zM646 29q53 0 88 30.5t53 82.5t20 116q2 67 -25 97.5t-70 30.5q-53 0 -88 -30.5t-53 -82t-20 -116.5q-2 -67 25 -97.5
t70 -30.5z" />
    <glyph glyph-name="ampersand" unicode="&#x26;" horiz-adv-x="664" 
d="M242 -8q-87 0 -138.5 40t-51.5 110q0 43 17.5 79.5t46 66.5t61.5 53.5t63 40.5l28 16q-35 47 -49 85t-14 69q0 73 46.5 117t122.5 44q59 0 93.5 -33.5t34.5 -86.5q0 -47 -22 -81t-62 -64t-93 -62l154 -219q29 41 53 104t36 133h41q-30 -166 -106 -272l93 -132h-48l-69 99
q-44 -51 -103 -79t-134 -28zM373 674q-56 0 -91 -34.5t-35 -83.5q0 -34 11.5 -63t45.5 -76q60 37 94.5 65t49 53t14.5 54q0 37 -24.5 61t-64.5 24zM239 31q70 0 123.5 26t93.5 75l-168 235l-28 -17q-75 -45 -120.5 -93t-45.5 -113q0 -113 145 -113z" />
    <glyph glyph-name="quotesingle" unicode="'" horiz-adv-x="202" 
d="M119 440l29 265h52l-53 -265h-28z" />
    <glyph glyph-name="parenleft" unicode="(" horiz-adv-x="281" 
d="M142 -190q-19 74 -29.5 147t-10.5 145q0 117 23 228t64 209.5t96 176.5l33 -17q-79 -129 -125.5 -278.5t-46.5 -320.5q0 -66 8 -136.5t23 -141.5z" />
    <glyph glyph-name="parenright" unicode=")" horiz-adv-x="281" 
d="M2 -190l-33 17q79 129 125.5 278.5t46.5 320.5q0 66 -8 136.5t-23 141.5l35 12q19 -74 29.5 -147t10.5 -145q0 -116 -23 -227.5t-64 -210t-96 -176.5z" />
    <glyph glyph-name="asterisk" unicode="*" horiz-adv-x="448" 
d="M193 367l-33 20l84 137l-161 -4v39l161 -4l-84 138l33 19l78 -141l77 141l33 -19l-83 -138l161 4v-39l-161 4l83 -137l-33 -19l-77 140z" />
    <glyph glyph-name="plus" unicode="+" horiz-adv-x="600" 
d="M248 40l36 227h-224l6 39h224l35 222h40l-35 -222h224l-6 -39h-224l-36 -227h-40z" />
    <glyph glyph-name="comma" unicode="," horiz-adv-x="211" 
d="M47 -98l-23 24q23 22 30.5 39t10.5 35h-32l11 70h69l-10 -61q-5 -32 -16 -57t-40 -50z" />
    <glyph glyph-name="hyphen" unicode="-" horiz-adv-x="416" 
d="M77 246l6 38h264l-6 -38h-264z" />
    <glyph glyph-name="period" unicode="." horiz-adv-x="211" 
d="M33 0l11 70h69l-11 -70h-69z" />
    <glyph glyph-name="slash" unicode="/" horiz-adv-x="256" 
d="M-28 -58l-34 19l376 785l35 -19z" />
    <glyph glyph-name="zero" unicode="0" horiz-adv-x="600" 
d="M289 -8q-105 0 -159 65t-54 188q0 146 33 251t94 161t144 56q105 0 158.5 -65t53.5 -188q0 -146 -33 -251t-93.5 -161t-143.5 -56zM292 33q104 0 163 115.5t59 329.5q0 194 -170 194q-104 0 -163.5 -115t-59.5 -330q0 -194 171 -194z" />
    <glyph glyph-name="one" unicode="1" horiz-adv-x="600" 
d="M100 0l6 39h162l96 606l-141 -85l-17 35l180 110h30l-106 -666h152l-6 -39h-356z" />
    <glyph glyph-name="two" unicode="2" horiz-adv-x="600" 
d="M66 0l5 32l289 271q62 58 104 119.5t42 130.5q0 56 -37 87.5t-106 31.5q-57 0 -108.5 -23.5t-99.5 -65.5l-19 36q46 44 104 69t124 25q86 0 136 -43.5t50 -114.5q0 -55 -22.5 -104t-60.5 -93.5t-85 -87.5l-249 -231h366l-6 -39h-427z" />
    <glyph glyph-name="three" unicode="3" horiz-adv-x="600" 
d="M279 -8q-62 0 -124.5 19t-112.5 69l23 34q53 -49 103.5 -65t110.5 -16q51 0 92.5 20.5t65.5 59t24 91.5q0 60 -41 97.5t-116 37.5h-93l6 39h91q52 0 95 20.5t68.5 58.5t25.5 89q0 56 -38.5 91t-102.5 35q-55 0 -108 -21t-98 -66l-19 35q43 46 103 69.5t123 23.5
q56 0 97 -21.5t64 -59t23 -85.5q0 -68 -41 -119.5t-106 -69.5q54 -19 82.5 -60t28.5 -94q0 -64 -31 -112t-82.5 -74t-112.5 -26z" />
    <glyph glyph-name="four" unicode="4" horiz-adv-x="600" 
d="M363 0l27 166h-342l5 33l429 506h35l-79 -500h111l-6 -39h-111l-27 -166h-42zM396 205l66 416l-355 -416h289z" />
    <glyph glyph-name="five" unicode="5" horiz-adv-x="600" 
d="M292 -8q-58 0 -116 19t-105 69l22 34q51 -49 97 -65t102 -16t101 26.5t71.5 72t26.5 102.5q0 70 -39.5 115t-109.5 45q-58 0 -103 -26.5t-83 -73.5h-37l65 411h387l-6 -39h-345l-48 -305q33 36 79.5 55t94.5 19q49 0 92 -21t70 -64.5t27 -113.5q0 -72 -33 -127t-88.5 -86
t-121.5 -31z" />
    <glyph glyph-name="six" unicode="6" horiz-adv-x="600" 
d="M303 -8q-66 0 -115 31t-76 88.5t-27 135.5q0 92 19 175.5t58 149t97.5 103.5t137.5 38q54 0 106.5 -24.5t86.5 -68.5l-23 -34q-37 44 -81 65t-94 21q-76 0 -134 -48.5t-92.5 -136.5t-39.5 -208q24 72 83.5 113t128.5 41q58 0 102.5 -25.5t70 -70t25.5 -100.5
q0 -69 -30.5 -124.5t-83.5 -88t-119 -32.5zM300 33q58 0 101 27.5t67 74t24 101.5q0 46 -20.5 81t-56.5 55t-81 20q-57 0 -100.5 -27.5t-67.5 -73.5t-24 -102q0 -46 21 -81t56.5 -55t80.5 -20z" />
    <glyph glyph-name="seven" unicode="7" horiz-adv-x="600" 
d="M96 0l440 666h-391l6 39h443l-5 -31l-443 -674h-50z" />
    <glyph glyph-name="eight" unicode="8" horiz-adv-x="600" 
d="M267 -8q-63 0 -113 19.5t-79 56.5t-29 87q0 53 22.5 98t62 74t90.5 36q-51 15 -78 53t-27 91q0 66 32.5 112t89 70t129.5 24q60 0 106.5 -20.5t73 -57t26.5 -86.5q0 -73 -44 -125t-111 -68q53 -12 85.5 -50.5t32.5 -96.5q0 -70 -34.5 -118.5t-95 -73.5t-139.5 -25z
M321 377q61 0 107.5 20.5t73.5 59t27 91.5q0 60 -44.5 92.5t-118.5 32.5q-96 0 -151 -42t-55 -126q0 -61 44 -94.5t117 -33.5zM269 32q104 0 163.5 45t59.5 135q0 63 -48.5 94t-127.5 31q-103 0 -164.5 -44.5t-61.5 -133.5q0 -64 49.5 -95.5t129.5 -31.5z" />
    <glyph glyph-name="nine" unicode="9" horiz-adv-x="600" 
d="M238 -8q-54 0 -106 25t-87 68l23 34q37 -44 81 -65t94 -21q76 0 134 48.5t92.5 136.5t39.5 208q-24 -72 -83.5 -113t-128.5 -41q-57 0 -102 25.5t-70.5 70t-25.5 100.5q0 70 31 125t83.5 87.5t118.5 32.5t115 -31t76 -88t27 -136q0 -92 -19 -175.5t-58 -149t-97.5 -103.5
t-137.5 -38zM301 313q58 0 101 27.5t67 74t24 101.5q0 46 -20.5 81t-56.5 55t-81 20q-57 0 -100.5 -27.5t-67.5 -73.5t-24 -102q0 -46 21 -81t56.5 -55t80.5 -20z" />
    <glyph glyph-name="colon" unicode=":" horiz-adv-x="211" 
d="M99 414l11 70h69l-11 -70h-69zM33 0l11 70h69l-11 -70h-69z" />
    <glyph glyph-name="semicolon" unicode=";" horiz-adv-x="211" 
d="M98 414l11 70h69l-11 -70h-69zM46 -98l-23 24q23 22 30.5 39t10.5 35h-32l11 70h69l-10 -61q-5 -32 -16 -57t-40 -50z" />
    <glyph glyph-name="less" unicode="&#x3c;" horiz-adv-x="600" 
d="M511 37l-451 232l6 36l524 232l-7 -46l-469 -207l404 -206z" />
    <glyph glyph-name="equal" unicode="=" horiz-adv-x="600" 
d="M75 367l6 39h488l-6 -39h-488zM44 168l6 39h488l-6 -39h-488z" />
    <glyph glyph-name="greater" unicode="&#x3e;" horiz-adv-x="600" 
d="M23 37l7 46l470 206l-405 207l7 41l452 -232l-6 -36z" />
    <glyph glyph-name="question" unicode="?" horiz-adv-x="429" 
d="M166 162l3 21q5 37 16 68.5t36 65t70 75.5q22 20 48 45t45 57t19 73q0 45 -28.5 75t-90.5 30q-56 0 -107 -23t-94 -64l-20 36q44 45 103.5 68.5t117.5 23.5q54 0 90.5 -19.5t54.5 -52.5t18 -72q0 -43 -21.5 -81.5t-51.5 -70.5t-58 -56q-61 -52 -83.5 -94.5t-31.5 -82.5
l-5 -22h-30zM121 0l11 70h68l-11 -70h-68z" />
    <glyph glyph-name="at" unicode="@" horiz-adv-x="943" 
d="M495 -162q-126 0 -220 53.5t-145.5 152t-51.5 233.5q0 96 31 176t88 138.5t135.5 90t172.5 31.5q113 0 199 -46.5t134.5 -129t48.5 -191.5q0 -87 -23.5 -151.5t-65.5 -100t-99 -35.5q-48 0 -76 24.5t-30 66.5q-28 -43 -69.5 -67t-85.5 -24q-75 0 -116.5 47t-41.5 130
q0 74 28.5 132t78 91t111.5 33q50 0 84.5 -23t47.5 -63l13 78h42l-47 -275q-2 -11 -3 -21.5t-1 -19.5q0 -72 68 -72q44 0 76.5 31t51 87.5t18.5 131.5q0 97 -44 170.5t-121.5 115.5t-178.5 42q-114 0 -200.5 -50t-135 -139.5t-48.5 -207.5q0 -125 46 -214.5t130 -137.5
t199 -48q86 0 154.5 28.5t110.5 79.5l27 -32q-49 -55 -124.5 -85t-167.5 -30zM439 98q50 0 89.5 30t62.5 82t23 117q0 126 -116 126q-49 0 -89 -28t-63 -77t-23 -112q0 -67 30.5 -102.5t85.5 -35.5z" />
    <glyph glyph-name="A" unicode="A" horiz-adv-x="716" 
d="M-3 0l415 705h40l191 -705h-42l-53 195h-387l-115 -195h-49zM425 648l-241 -414h353l-110 414h-2z" />
    <glyph glyph-name="B" unicode="B" horiz-adv-x="666" 
d="M58 0l112 705h247q104 0 156 -43.5t52 -120.5q0 -72 -40 -120.5t-109 -65.5q52 -16 82 -55t30 -93q0 -103 -62 -155t-180 -52h-288zM160 376h227q89 0 141.5 42.5t52.5 121.5q0 126 -167 126h-208zM107 39h243q194 0 194 167q0 65 -42.5 98t-122.5 33h-225z" />
    <glyph glyph-name="C" unicode="C" horiz-adv-x="667" 
d="M371 -8q-86 0 -151 33.5t-101 102.5t-36 177q0 87 24.5 161.5t70.5 129.5t110.5 86t145.5 31q74 0 132 -25t97 -70l-25 -35q-41 46 -90.5 67.5t-116.5 21.5q-93 0 -161 -47.5t-105 -130.5t-37 -190q0 -97 30 -157t85 -87t129 -27q62 0 110.5 21t97.5 67l24 -34
q-97 -95 -233 -95z" />
    <glyph glyph-name="D" unicode="D" horiz-adv-x="725" 
d="M58 0l112 705h190q153 0 236 -75.5t83 -213.5q0 -85 -22.5 -160t-70.5 -132.5t-122.5 -90.5t-179.5 -33h-226zM106 39h180q96 0 162.5 30t107.5 83t59.5 121t18.5 143q0 122 -69 186t-206 64h-153z" />
    <glyph glyph-name="E" unicode="E" horiz-adv-x="570" 
d="M58 0l112 705h424l-6 -39h-382l-46 -289h362l-6 -39h-363l-47 -299h382l-6 -39h-424z" />
    <glyph glyph-name="F" unicode="F" horiz-adv-x="536" 
d="M58 0l112 705h414l-6 -39h-372l-46 -289h352l-6 -39h-352l-54 -338h-42z" />
    <glyph glyph-name="G" unicode="G" horiz-adv-x="718" 
d="M384 -8q-145 0 -223.5 76t-78.5 221q0 128 43 223.5t122 148t186 52.5q75 0 134.5 -25t99.5 -70l-25 -35q-43 46 -93.5 67.5t-118.5 21.5q-93 0 -161 -46.5t-105 -132.5t-37 -204q0 -130 65.5 -193t193.5 -63q52 0 94 8.5t79 21.5l41 253h-194l6 39h234l-51 -323
q-36 -16 -94 -28t-117 -12z" />
    <glyph glyph-name="H" unicode="H" horiz-adv-x="751" 
d="M58 0l112 705h42l-52 -328h474l52 328h42l-112 -705h-42l54 338h-474l-54 -338h-42z" />
    <glyph glyph-name="I" unicode="I" horiz-adv-x="234" 
d="M58 0l112 705h42l-112 -705h-42z" />
    <glyph glyph-name="J" unicode="J" horiz-adv-x="297" 
d="M-43 -6l-1 38l50 4q122 9 144 151l82 518h42l-84 -528q-13 -82 -59 -128.5t-126 -51.5z" />
    <glyph glyph-name="K" unicode="K" horiz-adv-x="590" 
d="M58 0l112 705h42l-52 -328h2l421 328h62l-447 -351l358 -354h-57l-343 338h-2l-54 -338h-42z" />
    <glyph glyph-name="L" unicode="L" horiz-adv-x="527" 
d="M58 0l112 705h42l-106 -666h376l-6 -39h-418z" />
    <glyph glyph-name="M" unicode="M" horiz-adv-x="844" 
d="M60 0l112 705h36l199 -552l377 552h36l-112 -705h-39l97 617l-346 -507h-35l-187 517l-99 -627h-39z" />
    <glyph glyph-name="N" unicode="N" horiz-adv-x="732" 
d="M58 0l112 705h35l364 -638l101 638h39l-112 -705h-34l-365 640l-101 -640h-39z" />
    <glyph glyph-name="O" unicode="O" horiz-adv-x="751" 
d="M357 -8q-126 0 -200.5 76t-74.5 221q0 89 22 166t66 135t109 90.5t150 32.5q126 0 200.5 -76t74.5 -221q0 -89 -22 -166t-66 -135t-108.5 -90.5t-150.5 -32.5zM359 33q98 0 164.5 50.5t101 137.5t34.5 195q0 130 -61.5 193t-171.5 63q-97 0 -163.5 -50.5t-101 -137
t-34.5 -195.5q0 -130 61.5 -193t170.5 -63z" />
    <glyph glyph-name="P" unicode="P" horiz-adv-x="616" 
d="M58 0l112 705h237q100 0 157 -45.5t57 -138.5q0 -101 -64.5 -162.5t-186.5 -61.5h-223l-47 -297h-42zM154 336h220q99 0 151 47t52 137q0 76 -43.5 111t-126.5 35h-201z" />
    <glyph glyph-name="Q" unicode="Q" horiz-adv-x="751" 
d="M519 -190l-53 116q-31 66 -119 66v0q-122 3 -193.5 79t-71.5 218q0 89 22 166t66 135t109 90.5t150 32.5q126 0 200.5 -76t74.5 -221q0 -103 -29.5 -189.5t-87.5 -145.5t-144 -79q19 -8 34 -24.5t29 -46.5l48 -105zM359 33q98 0 164.5 50.5t101 137.5t34.5 195
q0 130 -61.5 193t-171.5 63q-97 0 -163.5 -50.5t-101 -137t-34.5 -195.5q0 -130 61.5 -193t170.5 -63z" />
    <glyph glyph-name="R" unicode="R" horiz-adv-x="654" 
d="M58 0l112 705h231q111 0 165.5 -49.5t54.5 -135.5q0 -89 -55 -140.5t-142 -61.5q22 -10 38.5 -31.5t28.5 -52.5l89 -234h-41l-84 221q-19 50 -49 70.5t-89 20.5h-168l-49 -312h-42zM156 351h227q91 0 142.5 44t51.5 124q0 73 -42 110t-134 37h-195z" />
    <glyph glyph-name="S" unicode="S" horiz-adv-x="600" 
d="M295 -8q-77 0 -144.5 19.5t-117.5 67.5l23 33q53 -46 109.5 -62.5t131.5 -16.5q90 0 146.5 39.5t56.5 109.5q0 47 -33 81t-119 53l-99 24q-67 16 -108 54.5t-41 117.5q0 60 33.5 105.5t90 70.5t125.5 25q68 0 132 -22t106 -71l-23 -35q-44 47 -99.5 67t-117.5 20
q-57 0 -103 -20t-73 -55.5t-27 -84.5q0 -62 29 -90t85 -42l99 -24q99 -22 143 -65t44 -105t-33 -105.5t-89 -66t-127 -22.5z" />
    <glyph glyph-name="T" unicode="T" horiz-adv-x="586" 
d="M233 0l106 666h-269l6 39h580l-6 -39h-269l-106 -666h-42z" />
    <glyph glyph-name="U" unicode="U" horiz-adv-x="720" 
d="M330 -8q-133 0 -194 74.5t-38 221.5l66 417h42l-67 -423q-40 -249 191 -249q113 0 177 56t84 181l69 435h42l-70 -444q-21 -135 -95.5 -202t-206.5 -67z" />
    <glyph glyph-name="V" unicode="V" horiz-adv-x="667" 
d="M271 0l-190 705h43l176 -653l384 653h48l-416 -705h-45z" />
    <glyph glyph-name="W" unicode="W" horiz-adv-x="1091" 
d="M243 0l-132 705h42l119 -641l323 641h39l121 -647l325 647h46l-356 -705h-43l-120 642l-323 -642h-41z" />
    <glyph glyph-name="X" unicode="X" horiz-adv-x="631" 
d="M-14 0l325 364l-197 341h46l179 -311l274 311h53l-305 -345l208 -360h-46l-191 329l-293 -329h-53z" />
    <glyph glyph-name="Y" unicode="Y" horiz-adv-x="577" 
d="M228 0l54 342l-210 363h45l189 -326l293 326h52l-327 -362l-54 -343h-42z" />
    <glyph glyph-name="Z" unicode="Z" horiz-adv-x="575" 
d="M11 0l5 31l531 635h-431l7 39h489l-5 -31l-532 -635h445l-6 -39h-503z" />
    <glyph glyph-name="bracketleft" unicode="[" horiz-adv-x="281" 
d="M45 -180l140 885h165l-6 -37h-123l-128 -811h123l-6 -37h-165z" />
    <glyph glyph-name="backslash" unicode="\" horiz-adv-x="256" 
d="M190 -58l-129 797l37 7l129 -797z" />
    <glyph glyph-name="bracketright" unicode="]" horiz-adv-x="281" 
d="M-63 -180l6 37h123l128 811h-123l6 37h165l-140 -885h-165z" />
    <glyph glyph-name="asciicircum" unicode="^" horiz-adv-x="600" 
d="M35 140l308 488h36l154 -488h-39l-139 436l-275 -436h-45z" />
    <glyph glyph-name="underscore" unicode="_" horiz-adv-x="500" 
d="M-23 -33l5 33h459l-5 -33h-459z" />
    <glyph glyph-name="grave" unicode="`" horiz-adv-x="500" 
d="M278 549l-140 200h53l123 -200h-36z" />
    <glyph glyph-name="a" unicode="a" horiz-adv-x="514" 
d="M205 -8q-40 0 -76 17.5t-58 49.5t-22 75q0 76 65 108.5t210 32.5h71l6 40q11 68 -15.5 103t-96.5 35q-46 0 -85.5 -12.5t-77.5 -40.5l-18 36q35 26 84 41t99 15q88 0 126 -50t24 -140l-48 -302h-41l12 80q-25 -45 -69 -66.5t-90 -21.5zM208 30q40 0 76.5 19t62.5 55
t34 87l8 47h-49q-93 0 -146 -9.5t-75.5 -32t-22.5 -60.5q0 -52 34.5 -79t77.5 -27z" />
    <glyph glyph-name="b" unicode="b" horiz-adv-x="568" 
d="M275 -8q-57 0 -103 28t-66 87l-17 -107h-42l112 705h42l-48 -304q28 43 72 67t102 24q86 0 138 -55.5t52 -150.5q0 -78 -27.5 -145t-81.5 -108t-133 -41zM277 31q64 0 108 35t66.5 93t22.5 127q0 83 -40.5 125t-112.5 42q-64 0 -108 -35t-66.5 -92.5t-22.5 -127.5
q0 -82 40.5 -124.5t112.5 -42.5z" />
    <glyph glyph-name="c" unicode="c" horiz-adv-x="455" 
d="M248 -8q-100 0 -148 58.5t-48 151.5q0 53 14 104.5t43.5 93.5t76 67t111.5 25q48 0 90.5 -17.5t67.5 -46.5l-21 -32q-54 57 -139 57q-53 0 -91 -21.5t-62 -58t-35.5 -81t-11.5 -90.5q0 -78 36.5 -124.5t118.5 -46.5q33 0 69 13.5t67 42.5l19 -34q-29 -28 -72 -44.5
t-85 -16.5z" />
    <glyph glyph-name="d" unicode="d" horiz-adv-x="568" 
d="M241 -8q-85 0 -137.5 55.5t-52.5 150.5q0 78 27.5 145t81.5 108t133 41q57 0 103 -28t66 -87l52 328h42l-112 -705h-42l13 83q-28 -43 -72 -67t-102 -24zM247 31q64 0 108 35t66.5 93t22.5 127q0 83 -40.5 125t-112.5 42q-64 0 -108 -35t-66.5 -92.5t-22.5 -127.5
q0 -82 40.5 -124.5t112.5 -42.5z" />
    <glyph glyph-name="e" unicode="e" horiz-adv-x="523" 
d="M261 -8q-98 0 -154 55.5t-56 152.5q0 77 29 143.5t85 107.5t136 41q73 0 115 -35t56.5 -90t4.5 -115l-3 -18h-379q-11 -91 32.5 -147t131.5 -56q48 0 88 14t74 47l22 -31q-32 -34 -82 -51.5t-100 -17.5zM300 454q-62 0 -103 -27t-64 -69t-32 -87h339q6 51 -6 92.5t-45 66
t-89 24.5z" />
    <glyph glyph-name="f" unicode="f" horiz-adv-x="306" 
d="M67 0l71 448h-96l6 36h96l7 49q12 78 61.5 123t128.5 49l42 2l2 -37l-46 -3q-126 -9 -147 -139l-7 -44h148l-6 -36h-147l-71 -448h-42z" />
    <glyph glyph-name="g" unicode="g" horiz-adv-x="570" 
d="M241 -188q-64 0 -114 21.5t-88 52.5l19 35q45 -34 84 -52t97 -18q68 0 111 36.5t55 112.5l17 110q-27 -46 -73 -72.5t-107 -26.5q-57 0 -100 24.5t-67 69t-24 103.5q0 55 15.5 106t46.5 91t76 63.5t105 23.5q58 0 104 -28t66 -87l17 107h42l-77 -482
q-16 -97 -66.5 -143.5t-138.5 -46.5zM248 50q65 0 109 34.5t66.5 90.5t22.5 121q0 75 -40.5 116t-113.5 41q-64 0 -108.5 -34.5t-67 -90t-22.5 -120.5q0 -76 40.5 -117t113.5 -41z" />
    <glyph glyph-name="h" unicode="h" horiz-adv-x="553" 
d="M47 0l112 705h42l-49 -307q28 45 73.5 69.5t105.5 24.5q81 0 122 -48.5t25 -148.5l-47 -295h-42l47 296q25 157 -106 157q-86 0 -135.5 -51.5t-63.5 -137.5l-42 -264h-42z" />
    <glyph glyph-name="i" unicode="i" horiz-adv-x="212" 
d="M134 619l10 63h64l-10 -63h-64zM46 0l77 484h42l-77 -484h-42z" />
    <glyph glyph-name="j" unicode="j" horiz-adv-x="215" 
d="M137 619l10 63h64l-10 -63h-64zM-119 -193l-2 38l41 3q106 8 126 130l80 506h42l-81 -510q-12 -77 -55 -118t-108 -46z" />
    <glyph glyph-name="k" unicode="k" horiz-adv-x="468" 
d="M47 0l111 705h42l-70 -445h2l284 224h60l-301 -239l254 -245h-56l-245 237h-2l-37 -237h-42z" />
    <glyph glyph-name="l" unicode="l" horiz-adv-x="275" 
d="M177 -8q-62 0 -91 38t-17 113l89 562h42l-89 -562q-10 -61 8.5 -86.5t65.5 -25.5q25 0 50 6l-9 -38q-11 -4 -24.5 -5.5t-24.5 -1.5z" />
    <glyph glyph-name="m" unicode="m" horiz-adv-x="838" 
d="M49 0l77 484h41l-15 -89q27 46 68 71.5t94 25.5q54 0 89.5 -27.5t45.5 -79.5q25 50 70 78.5t106 28.5q76 0 114 -48t22 -149l-47 -295h-42l47 301q24 152 -96 152q-71 0 -118 -50t-61 -139l-42 -264h-42l48 301q24 152 -96 152q-71 0 -118 -50t-61 -139l-42 -264h-42z
" />
    <glyph glyph-name="n" unicode="n" horiz-adv-x="553" 
d="M47 0l77 484h41l-14 -88q28 45 73.5 70.5t106.5 25.5q81 0 122 -48.5t25 -148.5l-47 -295h-42l47 296q25 157 -106 157q-86 0 -135.5 -51.5t-63.5 -137.5l-42 -264h-42z" />
    <glyph glyph-name="o" unicode="o" horiz-adv-x="538" 
d="M245 -8q-89 0 -141.5 55.5t-52.5 152.5q0 77 28 143.5t82 107.5t132 41q89 0 141.5 -55t52.5 -153q0 -77 -28 -143.5t-81.5 -107.5t-132.5 -41zM247 31q64 0 108 35t66.5 93t22.5 127q0 83 -40.5 125t-112.5 42q-64 0 -108 -35t-66.5 -92.5t-22.5 -127.5
q0 -82 40.5 -124.5t112.5 -42.5z" />
    <glyph glyph-name="p" unicode="p" horiz-adv-x="568" 
d="M18 -180l105 664h42l-13 -85q27 43 72 68t103 25q86 0 138 -55t52 -153q0 -77 -28 -143.5t-81.5 -107.5t-132.5 -41q-57 0 -103 28t-66 87l-46 -287h-42zM277 31q64 0 108 35t66.5 93t22.5 127q0 83 -40.5 125t-112.5 42q-64 0 -108 -35t-66.5 -92.5t-22.5 -127.5
q0 -82 40.5 -124.5t112.5 -42.5z" />
    <glyph glyph-name="q" unicode="q" horiz-adv-x="568" 
d="M374 -180l41 263q-28 -43 -72 -67t-102 -24q-85 0 -137.5 55.5t-52.5 150.5q0 78 27.5 145t81.5 108t133 41q57 0 103 -28t66 -87l17 107h42l-105 -664h-42zM247 31q64 0 108 35t66.5 93t22.5 127q0 83 -40.5 125t-112.5 42q-64 0 -108 -35t-66.5 -92.5t-22.5 -127.5
q0 -82 40.5 -124.5t112.5 -42.5z" />
    <glyph glyph-name="r" unicode="r" horiz-adv-x="327" 
d="M47 0l77 484h41l-13 -80q23 37 62 60.5t97 28.5l35 3l4 -38l-33 -3q-91 -8 -131.5 -54.5t-52.5 -120.5l-44 -280h-42z" />
    <glyph glyph-name="s" unicode="s" horiz-adv-x="475" 
d="M220 -8q-56 0 -103.5 16.5t-76.5 44.5l23 33q35 -30 74.5 -42.5t85.5 -12.5q60 0 95.5 25t35.5 72q0 30 -19.5 50t-54.5 29l-97 26q-45 12 -72 43t-27 74q0 63 50.5 102.5t130.5 39.5q51 0 95.5 -18t67.5 -48l-21 -32q-53 59 -143 59q-61 0 -98.5 -27.5t-37.5 -74.5
q0 -29 17.5 -50t53.5 -31l97 -26q47 -13 74.5 -41t27.5 -72q0 -64 -49 -101.5t-129 -37.5z" />
    <glyph glyph-name="t" unicode="t" horiz-adv-x="320" 
d="M220 -8q-73 0 -108 43t-23 118l47 295h-97l6 36h96l24 151h42l-24 -151h159l-6 -36h-159l-45 -286q-11 -70 12.5 -100.5t78.5 -30.5q19 0 34.5 4t26.5 8l9 -35q-10 -6 -31.5 -11t-41.5 -5z" />
    <glyph glyph-name="u" unicode="u" horiz-adv-x="545" 
d="M219 -8q-79 0 -119.5 48.5t-24.5 148.5l47 295h42l-47 -296q-25 -157 103 -157q83 0 132 52t62 137l42 264h42l-77 -484h-41l14 87q-27 -45 -72 -70t-103 -25z" />
    <glyph glyph-name="v" unicode="v" horiz-adv-x="504" 
d="M189 0l-129 484h46l112 -440l253 440h49l-283 -484h-48z" />
    <glyph glyph-name="w" unicode="w" horiz-adv-x="830" 
d="M171 0l-93 484h43l80 -435l225 435h51l83 -436l222 436h46l-248 -484h-49l-85 435l-226 -435h-49z" />
    <glyph glyph-name="x" unicode="x" horiz-adv-x="506" 
d="M-9 0l239 250l-151 234h47l133 -207l192 207h54l-224 -238l158 -246h-47l-140 219l-208 -219h-53z" />
    <glyph glyph-name="y" unicode="y" horiz-adv-x="504" 
d="M86 -180l103 177l-129 487h44l112 -440l255 440h50l-389 -664h-46z" />
    <glyph glyph-name="z" unicode="z" horiz-adv-x="454" 
d="M22 0l5 29l362 420h-296l6 35h349l-5 -29l-362 -420h307l-6 -35h-360z" />
    <glyph glyph-name="braceleft" unicode="{" horiz-adv-x="318" 
d="M185 -180q-54 0 -75 21.5t-14 63.5l40 257q6 41 -6 60.5t-55 21.5l-20 1l5 36l22 1q43 2 61 22t25 60l41 256q7 41 30.5 63t65.5 22h82l-6 -37h-78q-44 0 -52 -46l-41 -261q-7 -47 -31.5 -70t-50.5 -28q24 -6 40.5 -29t9.5 -69l-40 -262q-8 -46 36 -46h79l-6 -37h-62z
" />
    <glyph glyph-name="bar" unicode="|" horiz-adv-x="244" 
d="M34 -180l140 885h42l-140 -885h-42z" />
    <glyph glyph-name="braceright" unicode="}" horiz-adv-x="318" 
d="M-63 -180l6 37h78q44 0 52 46l41 261q7 47 31.5 70t50.5 28q-24 6 -40.5 29t-9.5 69l40 262q8 46 -36 46h-79l6 37h62q54 0 75 -21.5t14 -63.5l-40 -257q-6 -40 6 -60t55 -22l20 -1l-5 -36l-22 -1q-43 -2 -61 -21.5t-25 -60.5l-41 -256q-7 -40 -30.5 -62.5t-65.5 -22.5
h-82z" />
    <glyph glyph-name="asciitilde" unicode="~" horiz-adv-x="600" 
d="M424 224q-36 0 -68.5 15t-60.5 31q-28 17 -52.5 29t-49.5 12q-37 0 -60.5 -21t-40.5 -48l-33 19q27 44 56.5 66.5t74.5 22.5q36 0 70 -15t62 -32q28 -16 51 -28t48 -12q38 0 61.5 21t39.5 48l33 -19q-27 -43 -56.5 -66t-74.5 -23z" />
    <glyph glyph-name="uni00A0" unicode="&#xa0;" horiz-adv-x="246" 
 />
    <glyph glyph-name="exclamdown" unicode="&#xa1;" horiz-adv-x="211" 
d="M98 414l11 70h69l-11 -70h-69zM12 -180l93 503h27l-67 -503h-53z" />
    <glyph glyph-name="cent" unicode="&#xa2;" horiz-adv-x="600" 
d="M233 -115l18 113q-79 14 -116 69t-37 135q0 50 13 99t40.5 90t71.5 67.5t105 30.5l19 115h40l-19 -115q44 -3 81 -20t59 -43l-21 -32q-54 57 -139 57q-56 0 -95.5 -21.5t-64 -57.5t-36 -80.5t-11.5 -89.5q0 -76 37 -122.5t125 -46.5q33 0 69 13.5t67 42.5l19 -34
q-34 -34 -82 -48.5t-85 -12.5l-18 -109h-40z" />
    <glyph glyph-name="sterling" unicode="&#xa3;" horiz-adv-x="600" 
d="M14 0l6 39h110l47 296h-111l6 36h111l24 151q15 93 67.5 142t150.5 49q62 0 112 -23t77 -60l-23 -37q-57 79 -169 79q-150 0 -173 -148l-24 -153h192l-6 -36h-192l-47 -296h342l-6 -39h-494z" />
    <glyph glyph-name="currency" unicode="&#xa4;" horiz-adv-x="600" 
d="M75 -22l-35 36l74 76q-24 32 -38 72t-14 83q0 44 13.5 84t38.5 71l-74 76l35 36l74 -76q31 27 70.5 42t82.5 15t81.5 -14.5t69.5 -40.5l71 74l36 -36l-73 -73q26 -33 40.5 -73t14.5 -85t-14.5 -85t-40.5 -72l73 -74l-36 -36l-72 74q-31 -26 -69 -40.5t-81 -14.5t-82 15
t-71 41zM301 40q54 0 97.5 27.5t69 74t25.5 103.5t-25.5 103.5t-69 74.5t-97.5 27q-53 0 -96.5 -27.5t-69.5 -74t-26 -103.5t26 -103.5t69.5 -74t96.5 -27.5z" />
    <glyph glyph-name="yen" unicode="&#xa5;" horiz-adv-x="600" 
d="M240 0l30 189h-203l6 36h203l18 114h-203l6 36h174l-193 330h46l193 -333l297 333h54l-295 -330h172l-6 -36h-203l-18 -114h203l-6 -36h-203l-30 -189h-42z" />
    <glyph glyph-name="brokenbar" unicode="&#xa6;" horiz-adv-x="244" 
d="M122 372l53 333h42l-53 -333h-42zM35 -180l53 333h42l-53 -333h-42z" />
    <glyph glyph-name="section" unicode="&#xa7;" horiz-adv-x="523" 
d="M187 -188q-67 0 -115.5 17t-80.5 48l23 33q59 -59 172 -59q52 0 89.5 19.5t57.5 52.5t20 73q0 46 -19.5 71.5t-65.5 54.5l-88 56q-56 36 -86 75t-30 83q0 38 21 76t57 63q-9 26 -9 56q0 53 29 94t76.5 64.5t104.5 23.5q56 0 102.5 -16t77.5 -51l-21 -32q-25 29 -68 44.5
t-90 15.5q-52 0 -89.5 -19.5t-57.5 -52.5t-20 -73q0 -46 19 -73.5t66 -56.5l84 -52q119 -73 119 -158q0 -37 -20 -74.5t-57 -64.5q9 -24 9 -56q0 -53 -29 -94t-76.5 -64.5t-104.5 -23.5zM105 340q0 -36 25.5 -65.5t73.5 -61.5l75 -49q32 -21 55 -40t38 -41q25 22 38.5 50
t13.5 52q0 36 -26 65.5t-76 61.5l-70 45q-32 21 -55.5 41t-38.5 43q-26 -22 -39.5 -49.5t-13.5 -51.5z" />
    <glyph glyph-name="dieresis" unicode="&#xa8;" horiz-adv-x="500" 
d="M360 620l9 60h61l-9 -60h-61zM199 620l9 60h61l-9 -60h-61z" />
    <glyph glyph-name="copyright" unicode="&#xa9;" horiz-adv-x="815" 
d="M425 -8q-76 0 -142 27.5t-115 76.5t-76.5 115t-27.5 142q0 77 27.5 142.5t76.5 114t114.5 76t142.5 27.5t142.5 -27.5t114 -76t76 -114t27.5 -142.5q0 -76 -27.5 -142t-76 -115t-114 -76.5t-142.5 -27.5zM425 28q68 0 127 24.5t103 69t68.5 103.5t24.5 128t-24.5 128
t-68.5 103t-103 68.5t-127 24.5q-69 0 -128 -24.5t-103 -68.5t-68.5 -103t-24.5 -128t24.5 -128t68.5 -103.5t103 -69t128 -24.5zM434 137q-94 0 -147 60.5t-53 158.5t53 155t147 57q40 0 78 -15.5t63 -41.5l-18 -32q-29 28 -61.5 39.5t-62.5 11.5q-74 0 -116 -46t-42 -129
q0 -82 42 -131t116 -49q30 0 62.5 12t61.5 40l18 -33q-25 -26 -64 -41.5t-77 -15.5z" />
    <glyph glyph-name="ordfeminine" unicode="&#xaa;" horiz-adv-x="316" 
d="M171 413q-41 0 -69 25.5t-28 62.5q0 44 39 64t127 20h54l3 21q6 39 -16.5 57.5t-60.5 18.5q-28 0 -51 -8t-46 -25l-15 28q20 17 50 26.5t63 9.5q53 0 85.5 -30.5t23.5 -86.5l-28 -178h-34l8 53h-2q-16 -26 -42 -42t-61 -16zM173 444q25 0 49.5 12t42 33.5t21.5 47.5l3 19
h-40q-79 0 -109 -12.5t-30 -41.5q0 -26 17.5 -42t45.5 -16z" />
    <glyph glyph-name="guillemotleft" unicode="&#xab;" horiz-adv-x="394" 
d="M127 95l-65 159l3 22l117 159l35 -14l-110 -158l56 -157zM285 95l-65 159l3 22l117 159l35 -14l-110 -158l56 -157z" />
    <glyph glyph-name="logicalnot" unicode="&#xac;" horiz-adv-x="600" 
d="M490 157l34 213h-448l6 39h488l-40 -252h-40z" />
    <glyph glyph-name="uni00AD" unicode="&#xad;" horiz-adv-x="416" 
d="M77 246l6 38h264l-6 -38h-264z" />
    <glyph glyph-name="registered" unicode="&#xae;" horiz-adv-x="815" 
d="M425 -8q-76 0 -142 27.5t-115 76.5t-76.5 115t-27.5 142q0 77 27.5 142.5t76.5 114t114.5 76t142.5 27.5t142.5 -27.5t114 -76t76 -114t27.5 -142.5q0 -76 -27.5 -142t-76 -115t-114 -76.5t-142.5 -27.5zM425 28q68 0 127 24.5t103 69t68.5 103.5t24.5 128t-24.5 128
t-68.5 103t-103 68.5t-127 24.5q-69 0 -128 -24.5t-103 -68.5t-68.5 -103t-24.5 -128t24.5 -128t68.5 -103.5t103 -69t128 -24.5zM290 142v421h162q65 0 100 -31t35 -89q0 -97 -97 -115q31 -11 46 -47l57 -139h-43l-56 134q-12 28 -33.5 37.5t-52.5 9.5h-77v-181h-41z
M331 360h116q99 0 99 83t-99 83h-116v-166z" />
    <glyph glyph-name="macron" unicode="&#xaf;" horiz-adv-x="500" 
d="M172 633l6 38h280l-6 -38h-280z" />
    <glyph glyph-name="degree" unicode="&#xb0;" horiz-adv-x="364" 
d="M234 426q-40 0 -72 19t-50.5 51t-18.5 72t18.5 72t50.5 51t72 19t71.5 -18.5t50 -50.5t18.5 -73q0 -40 -18.5 -72.5t-50 -51t-71.5 -18.5zM234 466q44 0 71 28.5t27 73.5t-27 73.5t-71 28.5q-43 0 -70.5 -28.5t-27.5 -73.5t27.5 -73.5t70.5 -28.5z" />
    <glyph glyph-name="plusminus" unicode="&#xb1;" horiz-adv-x="600" 
d="M261 117l29 186h-224l6 39h225l29 186h40l-29 -186h223l-6 -39h-224l-29 -186h-40zM18 0l6 39h488l-6 -39h-488z" />
    <glyph glyph-name="uni00B2" unicode="&#xb2;" horiz-adv-x="380" 
d="M65 282l5 30l170 156q38 34 62.5 68t25.5 71q1 31 -20 48t-59 17q-33 0 -65 -13t-61 -37l-14 33q29 26 67 40t79 14q54 0 85.5 -27t29.5 -71q-1 -50 -31.5 -89.5t-74.5 -79.5l-135 -123h212l-6 -37h-270z" />
    <glyph glyph-name="uni00B3" unicode="&#xb3;" horiz-adv-x="380" 
d="M203 279q-39 0 -78 11.5t-68 40.5l20 31q30 -28 60.5 -37t66.5 -9q40 0 70 24t31 66q1 33 -21.5 52.5t-65.5 19.5h-78l6 37h77q44 0 75.5 24t32.5 65q1 31 -20.5 49.5t-58.5 18.5q-31 0 -63 -11.5t-61 -37.5l-14 32q29 27 67 40.5t77 13.5q55 0 85.5 -29t29.5 -72
q-1 -40 -26 -70t-65 -41q32 -11 48.5 -35.5t15.5 -56.5q-1 -37 -20.5 -65.5t-51.5 -44.5t-71 -16z" />
    <glyph glyph-name="acute" unicode="&#xb4;" horiz-adv-x="500" 
d="M280 549l135 200h55l-154 -200h-36z" />
    <glyph glyph-name="uni00B5" unicode="&#xb5;" horiz-adv-x="600" 
d="M45 -180l106 664h42l-47 -296q-25 -157 103 -157q83 0 132 52t62 137l42 264h42l-77 -484h-41l14 87q-27 -45 -72 -70t-103 -25q-92 0 -128 62l-33 -234h-42z" />
    <glyph glyph-name="paragraph" unicode="&#xb6;" horiz-adv-x="556" 
d="M172 -180l81 515q-50 0 -85.5 21.5t-54.5 57.5t-19 80q0 62 27 109.5t75 74.5t110 27h227l-140 -885h-42l134 847h-137l-134 -847h-42z" />
    <glyph glyph-name="periodcentered" unicode="&#xb7;" horiz-adv-x="211" 
d="M69 230l11 70h69l-11 -70h-69z" />
    <glyph glyph-name="cedilla" unicode="&#xb8;" horiz-adv-x="500" 
d="M193 -190q-49 0 -77 18l12 34q18 -9 33 -12.5t39 -3.5q28 0 47 11.5t19 33.5q0 30 -35 30q-11 0 -23 -2t-30 -8l-13 13l31 96h38l-23 -69q15 3 26 3q29 0 49 -15.5t20 -44.5q0 -37 -32 -60.5t-81 -23.5z" />
    <glyph glyph-name="uni00B9" unicode="&#xb9;" horiz-adv-x="380" 
d="M111 282l6 37h90l52 332l-85 -52l-19 34l118 72h33l-61 -386h80l-6 -37h-208z" />
    <glyph glyph-name="ordmasculine" unicode="&#xba;" horiz-adv-x="326" 
d="M207 413q-57 0 -93 37.5t-36 99.5q0 50 19.5 86.5t52 56.5t71.5 20q57 0 93 -37.5t36 -99.5q0 -50 -19.5 -86.5t-51.5 -56.5t-72 -20zM208 444q47 0 76.5 34.5t29.5 98.5q0 50 -25.5 77.5t-68.5 27.5q-47 0 -76.5 -34.5t-29.5 -98.5q0 -50 25.5 -77.5t68.5 -27.5z" />
    <glyph glyph-name="guillemotright" unicode="&#xbb;" horiz-adv-x="394" 
d="M60 95l-35 14l110 158l-56 157l36 11l65 -159l-3 -22zM218 95l-35 14l110 158l-56 157l36 11l65 -159l-3 -22z" />
    <glyph glyph-name="onequarter" unicode="&#xbc;" horiz-adv-x="877" 
d="M111 282l6 37h90l52 332l-85 -52l-19 34l118 72h33l-61 -386h80l-6 -37h-208zM222 -21l-28 19l535 728l28 -19zM701 0l15 94h-196l5 33l249 296h32l-46 -292h67l-6 -37h-67l-15 -94h-38zM722 131l34 218l-183 -218h149z" />
    <glyph glyph-name="onehalf" unicode="&#xbd;" horiz-adv-x="917" 
d="M111 282l6 37h90l52 332l-85 -52l-19 34l118 72h33l-61 -386h80l-6 -37h-208zM222 -21l-28 19l535 728l28 -19zM557 0l5 30l170 156q38 34 62.5 68t25.5 71q1 31 -20 48t-59 17q-33 0 -65 -13t-61 -37l-14 33q29 26 67 40t79 14q54 0 85.5 -27t29.5 -71
q-1 -50 -31.5 -89.5t-74.5 -79.5l-135 -123h212l-6 -37h-270z" />
    <glyph glyph-name="threequarters" unicode="&#xbe;" horiz-adv-x="877" 
d="M203 279q-39 0 -78 11.5t-68 40.5l20 31q30 -28 60.5 -37t66.5 -9q40 0 70 24t31 66q1 33 -21.5 52.5t-65.5 19.5h-78l6 37h77q44 0 75.5 24t32.5 65q1 31 -20.5 49.5t-58.5 18.5q-31 0 -63 -11.5t-61 -37.5l-14 32q29 27 67 40.5t77 13.5q55 0 85.5 -29t29.5 -72
q-1 -40 -26 -70t-65 -41q32 -11 48.5 -35.5t15.5 -56.5q-1 -37 -20.5 -65.5t-51.5 -44.5t-71 -16zM222 -21l-28 19l535 728l28 -19zM701 0l15 94h-196l5 33l249 296h32l-46 -292h67l-6 -37h-67l-15 -94h-38zM722 131l34 218l-183 -218h149z" />
    <glyph glyph-name="questiondown" unicode="&#xbf;" horiz-adv-x="429" 
d="M226 414l11 70h68l-11 -70h-68zM142 -188q-48 0 -83 18.5t-54.5 50t-19.5 69.5q-1 54 32.5 97.5t84.5 86.5q57 48 84.5 85t38.5 83l5 20h30l-3 -18q-6 -39 -19.5 -70.5t-38.5 -61t-67 -65.5q-46 -39 -74.5 -74.5t-28.5 -80.5q0 -42 29.5 -70.5t84.5 -28.5q59 0 111 18.5
t97 58.5l19 -36q-41 -40 -100.5 -61t-127.5 -21z" />
    <glyph glyph-name="Agrave" unicode="&#xc0;" horiz-adv-x="716" 
d="M-3 0l415 705h40l191 -705h-42l-53 195h-387l-115 -195h-49zM425 648l-241 -414h353l-110 414h-2zM425 765l-122 170h55l105 -170h-38z" />
    <glyph glyph-name="Aacute" unicode="&#xc1;" horiz-adv-x="716" 
d="M-3 0l415 705h40l191 -705h-42l-53 195h-387l-115 -195h-49zM425 648l-241 -414h353l-110 414h-2zM425 765l131 170h57l-150 -170h-38z" />
    <glyph glyph-name="Acircumflex" unicode="&#xc2;" horiz-adv-x="716" 
d="M-3 0l415 705h40l191 -705h-42l-53 195h-387l-115 -195h-49zM425 648l-241 -414h353l-110 414h-2zM290 765l139 170h48l103 -170h-37l-92 132l-124 -132h-37z" />
    <glyph glyph-name="Atilde" unicode="&#xc3;" horiz-adv-x="716" 
d="M-3 0l415 705h40l191 -705h-42l-53 195h-387l-115 -195h-49zM425 648l-241 -414h353l-110 414h-2zM279 792l-32 2q11 58 40.5 89.5t73.5 31.5q29 0 54 -15t48 -32q20 -15 38 -26.5t37 -11.5q59 0 79 87l32 -2q-11 -58 -40 -89.5t-73 -31.5q-29 0 -54.5 15.5t-48.5 31.5
q-19 15 -38 26.5t-37 11.5q-59 0 -79 -87z" />
    <glyph glyph-name="Adieresis" unicode="&#xc4;" horiz-adv-x="716" 
d="M-3 0l415 705h40l191 -705h-42l-53 195h-387l-115 -195h-49zM425 648l-241 -414h353l-110 414h-2zM502 820l10 60h61l-10 -60h-61zM341 820l10 60h61l-10 -60h-61z" />
    <glyph glyph-name="Aring" unicode="&#xc5;" horiz-adv-x="716" 
d="M-3 0l415 705h40l191 -705h-42l-53 195h-387l-115 -195h-49zM425 648l-241 -414h353l-110 414h-2zM461 760q-47 0 -79.5 32t-32.5 78t32.5 78t79.5 32t79.5 -32t32.5 -78t-32.5 -78t-79.5 -32zM461 792q35 0 56.5 22.5t21.5 55.5t-21.5 55.5t-56.5 22.5q-34 0 -56 -22.5
t-22 -55.5t22 -55.5t56 -22.5z" />
    <glyph glyph-name="AE" unicode="&#xc6;" horiz-adv-x="971" 
d="M-37 0l532 705h500l-6 -39h-450l15 -289h369l-6 -39h-361l15 -299h319l-7 -39h-349l-9 195h-366l-147 -195h-49zM499 648l-310 -414h334l-22 414h-2z" />
    <glyph glyph-name="Ccedilla" unicode="&#xc7;" horiz-adv-x="667" 
d="M371 -8q-86 0 -151 33.5t-101 102.5t-36 177q0 87 24.5 161.5t70.5 129.5t110.5 86t145.5 31q74 0 132 -25t97 -70l-25 -35q-41 46 -90.5 67.5t-116.5 21.5q-93 0 -161 -47.5t-105 -130.5t-37 -190q0 -97 30 -157t85 -87t129 -27q62 0 110.5 21t97.5 67l24 -34
q-97 -95 -233 -95zM346 -190q-49 0 -77 18l12 34q18 -9 33 -12.5t39 -3.5q28 0 47 11.5t19 33.5q0 30 -35 30q-11 0 -23 -2t-30 -8l-13 13l31 96h38l-23 -69q15 3 26 3q29 0 49 -15.5t20 -44.5q0 -37 -32 -60.5t-81 -23.5z" />
    <glyph glyph-name="Egrave" unicode="&#xc8;" horiz-adv-x="570" 
d="M58 0l112 705h424l-6 -39h-382l-46 -289h362l-6 -39h-363l-47 -299h382l-6 -39h-424zM387 765l-122 170h55l105 -170h-38z" />
    <glyph glyph-name="Eacute" unicode="&#xc9;" horiz-adv-x="570" 
d="M58 0l112 705h424l-6 -39h-382l-46 -289h362l-6 -39h-363l-47 -299h382l-6 -39h-424zM387 765l131 170h57l-150 -170h-38z" />
    <glyph glyph-name="Ecircumflex" unicode="&#xca;" horiz-adv-x="570" 
d="M58 0l112 705h424l-6 -39h-382l-46 -289h362l-6 -39h-363l-47 -299h382l-6 -39h-424zM252 765l139 170h48l103 -170h-37l-92 132l-124 -132h-37z" />
    <glyph glyph-name="Edieresis" unicode="&#xcb;" horiz-adv-x="570" 
d="M58 0l112 705h424l-6 -39h-382l-46 -289h362l-6 -39h-363l-47 -299h382l-6 -39h-424zM464 820l10 60h61l-10 -60h-61zM303 820l10 60h61l-10 -60h-61z" />
    <glyph glyph-name="Igrave" unicode="&#xcc;" horiz-adv-x="234" 
d="M58 0l112 705h42l-112 -705h-42zM182 765l-122 170h55l105 -170h-38z" />
    <glyph glyph-name="Iacute" unicode="&#xcd;" horiz-adv-x="234" 
d="M58 0l112 705h42l-112 -705h-42zM182 765l131 170h57l-150 -170h-38z" />
    <glyph glyph-name="Icircumflex" unicode="&#xce;" horiz-adv-x="234" 
d="M58 0l112 705h42l-112 -705h-42zM47 765l139 170h48l103 -170h-37l-92 132l-124 -132h-37z" />
    <glyph glyph-name="Idieresis" unicode="&#xcf;" horiz-adv-x="234" 
d="M58 0l112 705h42l-112 -705h-42zM259 820l10 60h61l-10 -60h-61zM98 820l10 60h61l-10 -60h-61z" />
    <glyph glyph-name="Eth" unicode="&#xd0;" horiz-adv-x="725" 
d="M58 0l112 705h190q153 0 236 -75.5t83 -213.5q0 -85 -22.5 -160t-70.5 -132.5t-122.5 -90.5t-179.5 -33h-226zM106 39h180q96 0 162.5 30t107.5 83t59.5 121t18.5 143q0 122 -69 186t-206 64h-153zM22 340l6 37h334l-6 -37h-334z" />
    <glyph glyph-name="Ntilde" unicode="&#xd1;" horiz-adv-x="732" 
d="M58 0l112 705h35l364 -638l101 638h39l-112 -705h-34l-365 640l-101 -640h-39zM285 792l-32 2q11 58 40.5 89.5t73.5 31.5q29 0 54 -15t48 -32q20 -15 38 -26.5t37 -11.5q59 0 79 87l32 -2q-11 -58 -40 -89.5t-73 -31.5q-29 0 -54.5 15.5t-48.5 31.5q-19 15 -38 26.5
t-37 11.5q-59 0 -79 -87z" />
    <glyph glyph-name="Ograve" unicode="&#xd2;" horiz-adv-x="751" 
d="M357 -8q-126 0 -200.5 76t-74.5 221q0 89 22 166t66 135t109 90.5t150 32.5q126 0 200.5 -76t74.5 -221q0 -89 -22 -166t-66 -135t-108.5 -90.5t-150.5 -32.5zM359 33q98 0 164.5 50.5t101 137.5t34.5 195q0 130 -61.5 193t-171.5 63q-97 0 -163.5 -50.5t-101 -137
t-34.5 -195.5q0 -130 61.5 -193t170.5 -63zM431 765l-122 170h55l105 -170h-38z" />
    <glyph glyph-name="Oacute" unicode="&#xd3;" horiz-adv-x="751" 
d="M357 -8q-126 0 -200.5 76t-74.5 221q0 89 22 166t66 135t109 90.5t150 32.5q126 0 200.5 -76t74.5 -221q0 -89 -22 -166t-66 -135t-108.5 -90.5t-150.5 -32.5zM359 33q98 0 164.5 50.5t101 137.5t34.5 195q0 130 -61.5 193t-171.5 63q-97 0 -163.5 -50.5t-101 -137
t-34.5 -195.5q0 -130 61.5 -193t170.5 -63zM431 765l131 170h57l-150 -170h-38z" />
    <glyph glyph-name="Ocircumflex" unicode="&#xd4;" horiz-adv-x="751" 
d="M357 -8q-126 0 -200.5 76t-74.5 221q0 89 22 166t66 135t109 90.5t150 32.5q126 0 200.5 -76t74.5 -221q0 -89 -22 -166t-66 -135t-108.5 -90.5t-150.5 -32.5zM359 33q98 0 164.5 50.5t101 137.5t34.5 195q0 130 -61.5 193t-171.5 63q-97 0 -163.5 -50.5t-101 -137
t-34.5 -195.5q0 -130 61.5 -193t170.5 -63zM296 765l139 170h48l103 -170h-37l-92 132l-124 -132h-37z" />
    <glyph glyph-name="Otilde" unicode="&#xd5;" horiz-adv-x="751" 
d="M357 -8q-126 0 -200.5 76t-74.5 221q0 89 22 166t66 135t109 90.5t150 32.5q126 0 200.5 -76t74.5 -221q0 -89 -22 -166t-66 -135t-108.5 -90.5t-150.5 -32.5zM359 33q98 0 164.5 50.5t101 137.5t34.5 195q0 130 -61.5 193t-171.5 63q-97 0 -163.5 -50.5t-101 -137
t-34.5 -195.5q0 -130 61.5 -193t170.5 -63zM285 792l-32 2q11 58 40.5 89.5t73.5 31.5q29 0 54 -15t48 -32q20 -15 38 -26.5t37 -11.5q59 0 79 87l32 -2q-11 -58 -40 -89.5t-73 -31.5q-29 0 -54.5 15.5t-48.5 31.5q-19 15 -38 26.5t-37 11.5q-59 0 -79 -87z" />
    <glyph glyph-name="Odieresis" unicode="&#xd6;" horiz-adv-x="751" 
d="M357 -8q-126 0 -200.5 76t-74.5 221q0 89 22 166t66 135t109 90.5t150 32.5q126 0 200.5 -76t74.5 -221q0 -89 -22 -166t-66 -135t-108.5 -90.5t-150.5 -32.5zM359 33q98 0 164.5 50.5t101 137.5t34.5 195q0 130 -61.5 193t-171.5 63q-97 0 -163.5 -50.5t-101 -137
t-34.5 -195.5q0 -130 61.5 -193t170.5 -63zM508 820l10 60h61l-10 -60h-61zM347 820l10 60h61l-10 -60h-61z" />
    <glyph glyph-name="multiply" unicode="&#xd7;" horiz-adv-x="600" 
d="M82 49l-28 28l226 209l-186 204l28 28l188 -206l224 206l28 -28l-226 -208l186 -205l-28 -28l-188 206z" />
    <glyph glyph-name="Oslash" unicode="&#xd8;" horiz-adv-x="751" 
d="M357 -8q-126 0 -200.5 76t-74.5 221q0 89 22 166t66 135t109 90.5t150 32.5q126 0 200.5 -76t74.5 -221q0 -89 -22 -166t-66 -135t-108.5 -90.5t-150.5 -32.5zM359 33q98 0 164.5 50.5t101 137.5t34.5 195q0 130 -61.5 193t-171.5 63q-97 0 -163.5 -50.5t-101 -137
t-34.5 -195.5q0 -130 61.5 -193t170.5 -63zM137 -24l-30 22l58 79l17 22l392 530l16 22l59 78l30 -22l-59 -79l-16 -22l-392 -530l-17 -22z" />
    <glyph glyph-name="Ugrave" unicode="&#xd9;" horiz-adv-x="720" 
d="M330 -8q-133 0 -194 74.5t-38 221.5l66 417h42l-67 -423q-40 -249 191 -249q113 0 177 56t84 181l69 435h42l-70 -444q-21 -135 -95.5 -202t-206.5 -67zM424 765l-122 170h55l105 -170h-38z" />
    <glyph glyph-name="Uacute" unicode="&#xda;" horiz-adv-x="720" 
d="M330 -8q-133 0 -194 74.5t-38 221.5l66 417h42l-67 -423q-40 -249 191 -249q113 0 177 56t84 181l69 435h42l-70 -444q-21 -135 -95.5 -202t-206.5 -67zM424 765l131 170h57l-150 -170h-38z" />
    <glyph glyph-name="Ucircumflex" unicode="&#xdb;" horiz-adv-x="720" 
d="M330 -8q-133 0 -194 74.5t-38 221.5l66 417h42l-67 -423q-40 -249 191 -249q113 0 177 56t84 181l69 435h42l-70 -444q-21 -135 -95.5 -202t-206.5 -67zM289 765l139 170h48l103 -170h-37l-92 132l-124 -132h-37z" />
    <glyph glyph-name="Udieresis" unicode="&#xdc;" horiz-adv-x="720" 
d="M330 -8q-133 0 -194 74.5t-38 221.5l66 417h42l-67 -423q-40 -249 191 -249q113 0 177 56t84 181l69 435h42l-70 -444q-21 -135 -95.5 -202t-206.5 -67zM501 820l10 60h61l-10 -60h-61zM340 820l10 60h61l-10 -60h-61z" />
    <glyph glyph-name="Yacute" unicode="&#xdd;" horiz-adv-x="577" 
d="M228 0l54 342l-210 363h45l189 -326l293 326h52l-327 -362l-54 -343h-42zM347 765l131 170h57l-150 -170h-38z" />
    <glyph glyph-name="Thorn" unicode="&#xde;" horiz-adv-x="616" 
d="M58 0l112 705h42l-21 -135h194q100 0 157 -45.5t57 -138.5q0 -101 -64.5 -162.5t-186.5 -61.5h-222l-26 -162h-42zM132 201h220q99 0 151 47t52 137q0 76 -43.5 111t-126.5 35h-201z" />
    <glyph glyph-name="germandbls" unicode="&#xdf;" horiz-adv-x="581" 
d="M350 -8q-56 0 -103.5 17t-76.5 44l23 33q32 -27 69 -41t83 -14q66 0 101.5 25t35.5 72q0 30 -20.5 55t-81.5 45q-70 24 -97 52t-27 71q0 25 9 44.5t32 40.5t63 50q37 27 58 51.5t21 61.5q0 32 -23 53.5t-67 21.5q-76 0 -121.5 -45.5t-59.5 -128.5l-79 -500h-42l79 501
q16 101 72.5 156.5t152.5 55.5q62 0 96.5 -32.5t34.5 -77.5q0 -52 -28 -84t-73 -66q-36 -25 -58.5 -47.5t-22.5 -55.5q0 -26 21.5 -46.5t74.5 -38.5q63 -22 96.5 -51.5t33.5 -82.5q0 -64 -49 -101.5t-127 -37.5z" />
    <glyph glyph-name="agrave" unicode="&#xe0;" horiz-adv-x="514" 
d="M205 -8q-40 0 -76 17.5t-58 49.5t-22 75q0 76 65 108.5t210 32.5h71l6 40q11 68 -15.5 103t-96.5 35q-46 0 -85.5 -12.5t-77.5 -40.5l-18 36q35 26 84 41t99 15q88 0 126 -50t24 -140l-48 -302h-41l12 80q-25 -45 -69 -66.5t-90 -21.5zM208 30q40 0 76.5 19t62.5 55
t34 87l8 47h-49q-93 0 -146 -9.5t-75.5 -32t-22.5 -60.5q0 -52 34.5 -79t77.5 -27zM290 549l-140 200h53l123 -200h-36z" />
    <glyph glyph-name="aacute" unicode="&#xe1;" horiz-adv-x="514" 
d="M205 -8q-40 0 -76 17.5t-58 49.5t-22 75q0 76 65 108.5t210 32.5h71l6 40q11 68 -15.5 103t-96.5 35q-46 0 -85.5 -12.5t-77.5 -40.5l-18 36q35 26 84 41t99 15q88 0 126 -50t24 -140l-48 -302h-41l12 80q-25 -45 -69 -66.5t-90 -21.5zM208 30q40 0 76.5 19t62.5 55
t34 87l8 47h-49q-93 0 -146 -9.5t-75.5 -32t-22.5 -60.5q0 -52 34.5 -79t77.5 -27zM292 549l135 200h55l-154 -200h-36z" />
    <glyph glyph-name="acircumflex" unicode="&#xe2;" horiz-adv-x="514" 
d="M205 -8q-40 0 -76 17.5t-58 49.5t-22 75q0 76 65 108.5t210 32.5h71l6 40q11 68 -15.5 103t-96.5 35q-46 0 -85.5 -12.5t-77.5 -40.5l-18 36q35 26 84 41t99 15q88 0 126 -50t24 -140l-48 -302h-41l12 80q-25 -45 -69 -66.5t-90 -21.5zM208 30q40 0 76.5 19t62.5 55
t34 87l8 47h-49q-93 0 -146 -9.5t-75.5 -32t-22.5 -60.5q0 -52 34.5 -79t77.5 -27zM176 549l131 200h48l87 -200h-34l-79 161l-117 -161h-36z" />
    <glyph glyph-name="atilde" unicode="&#xe3;" horiz-adv-x="514" 
d="M205 -8q-40 0 -76 17.5t-58 49.5t-22 75q0 76 65 108.5t210 32.5h71l6 40q11 68 -15.5 103t-96.5 35q-46 0 -85.5 -12.5t-77.5 -40.5l-18 36q35 26 84 41t99 15q88 0 126 -50t24 -140l-48 -302h-41l12 80q-25 -45 -69 -66.5t-90 -21.5zM208 30q40 0 76.5 19t62.5 55
t34 87l8 47h-49q-93 0 -146 -9.5t-75.5 -32t-22.5 -60.5q0 -52 34.5 -79t77.5 -27zM180 595l-32 2q11 58 37.5 89.5t66.5 31.5q26 0 43.5 -15t32.5 -32q14 -15 27.5 -26.5t29.5 -11.5q52 0 71 87l32 -2q-10 -58 -37 -89.5t-66 -31.5q-25 0 -43.5 15t-33.5 32
q-13 15 -26.5 26.5t-30.5 11.5q-52 0 -71 -87z" />
    <glyph glyph-name="adieresis" unicode="&#xe4;" horiz-adv-x="514" 
d="M205 -8q-40 0 -76 17.5t-58 49.5t-22 75q0 76 65 108.5t210 32.5h71l6 40q11 68 -15.5 103t-96.5 35q-46 0 -85.5 -12.5t-77.5 -40.5l-18 36q35 26 84 41t99 15q88 0 126 -50t24 -140l-48 -302h-41l12 80q-25 -45 -69 -66.5t-90 -21.5zM208 30q40 0 76.5 19t62.5 55
t34 87l8 47h-49q-93 0 -146 -9.5t-75.5 -32t-22.5 -60.5q0 -52 34.5 -79t77.5 -27zM372 620l9 60h61l-9 -60h-61zM211 620l9 60h61l-9 -60h-61z" />
    <glyph glyph-name="aring" unicode="&#xe5;" horiz-adv-x="514" 
d="M205 -8q-40 0 -76 17.5t-58 49.5t-22 75q0 76 65 108.5t210 32.5h71l6 40q11 68 -15.5 103t-96.5 35q-46 0 -85.5 -12.5t-77.5 -40.5l-18 36q35 26 84 41t99 15q88 0 126 -50t24 -140l-48 -302h-41l12 80q-25 -45 -69 -66.5t-90 -21.5zM208 30q40 0 76.5 19t62.5 55
t34 87l8 47h-49q-93 0 -146 -9.5t-75.5 -32t-22.5 -60.5q0 -52 34.5 -79t77.5 -27zM328 547q-47 0 -79.5 32t-32.5 78t32.5 78t79.5 32t79.5 -32t32.5 -78t-32.5 -78t-79.5 -32zM328 579q35 0 56.5 22.5t21.5 55.5t-21.5 55.5t-56.5 22.5q-34 0 -56 -22.5t-22 -55.5
t22 -55.5t56 -22.5z" />
    <glyph glyph-name="ae" unicode="&#xe6;" horiz-adv-x="857" 
d="M205 -8q-40 0 -76 17.5t-58 49.5t-22 75q0 76 65 108t210 32h75l5 31q24 148 -115 148q-46 0 -85.5 -12.5t-77.5 -40.5l-18 36q35 26 84 41t99 15q124 0 151 -99q32 45 80.5 72t112.5 27q73 0 115 -35t56.5 -89t4.5 -113l-3 -18h-378q-13 -92 30.5 -149t132.5 -57
q48 0 88 14t74 47l22 -31q-32 -34 -82 -51.5t-100 -17.5q-74 0 -124.5 32t-71.5 90q-29 -63 -81 -92.5t-113 -29.5zM634 454q-61 0 -102 -26.5t-64 -68t-32 -85.5h339q5 50 -7.5 91t-45 65t-88.5 24zM208 30q40 0 77 17t64 50.5t35 84.5l9 55h-53q-93 0 -146 -9.5
t-75.5 -31.5t-22.5 -60q0 -52 34.5 -79t77.5 -27z" />
    <glyph glyph-name="ccedilla" unicode="&#xe7;" horiz-adv-x="455" 
d="M248 -8q-100 0 -148 58.5t-48 151.5q0 53 14 104.5t43.5 93.5t76 67t111.5 25q48 0 90.5 -17.5t67.5 -46.5l-21 -32q-54 57 -139 57q-53 0 -91 -21.5t-62 -58t-35.5 -81t-11.5 -90.5q0 -78 36.5 -124.5t118.5 -46.5q33 0 69 13.5t67 42.5l19 -34q-29 -28 -72 -44.5
t-85 -16.5zM216 -190q-49 0 -77 18l12 34q18 -9 33 -12.5t39 -3.5q28 0 47 11.5t19 33.5q0 30 -35 30q-11 0 -23 -2t-30 -8l-13 13l31 96h38l-23 -69q15 3 26 3q29 0 49 -15.5t20 -44.5q0 -37 -32 -60.5t-81 -23.5z" />
    <glyph glyph-name="egrave" unicode="&#xe8;" horiz-adv-x="523" 
d="M261 -8q-98 0 -154 55.5t-56 152.5q0 77 29 143.5t85 107.5t136 41q73 0 115 -35t56.5 -90t4.5 -115l-3 -18h-379q-11 -91 32.5 -147t131.5 -56q48 0 88 14t74 47l22 -31q-32 -34 -82 -51.5t-100 -17.5zM300 454q-62 0 -103 -27t-64 -69t-32 -87h339q6 51 -6 92.5t-45 66
t-89 24.5zM295 549l-140 200h53l123 -200h-36z" />
    <glyph glyph-name="eacute" unicode="&#xe9;" horiz-adv-x="523" 
d="M261 -8q-98 0 -154 55.5t-56 152.5q0 77 29 143.5t85 107.5t136 41q73 0 115 -35t56.5 -90t4.5 -115l-3 -18h-379q-11 -91 32.5 -147t131.5 -56q48 0 88 14t74 47l22 -31q-32 -34 -82 -51.5t-100 -17.5zM300 454q-62 0 -103 -27t-64 -69t-32 -87h339q6 51 -6 92.5t-45 66
t-89 24.5zM297 549l135 200h55l-154 -200h-36z" />
    <glyph glyph-name="ecircumflex" unicode="&#xea;" horiz-adv-x="523" 
d="M261 -8q-98 0 -154 55.5t-56 152.5q0 77 29 143.5t85 107.5t136 41q73 0 115 -35t56.5 -90t4.5 -115l-3 -18h-379q-11 -91 32.5 -147t131.5 -56q48 0 88 14t74 47l22 -31q-32 -34 -82 -51.5t-100 -17.5zM300 454q-62 0 -103 -27t-64 -69t-32 -87h339q6 51 -6 92.5t-45 66
t-89 24.5zM181 549l131 200h48l87 -200h-34l-79 161l-117 -161h-36z" />
    <glyph glyph-name="edieresis" unicode="&#xeb;" horiz-adv-x="523" 
d="M261 -8q-98 0 -154 55.5t-56 152.5q0 77 29 143.5t85 107.5t136 41q73 0 115 -35t56.5 -90t4.5 -115l-3 -18h-379q-11 -91 32.5 -147t131.5 -56q48 0 88 14t74 47l22 -31q-32 -34 -82 -51.5t-100 -17.5zM300 454q-62 0 -103 -27t-64 -69t-32 -87h339q6 51 -6 92.5t-45 66
t-89 24.5zM377 620l9 60h61l-9 -60h-61zM216 620l9 60h61l-9 -60h-61z" />
    <glyph glyph-name="igrave" unicode="&#xec;" horiz-adv-x="212" 
d="M47 0l76 484h42l-76 -484h-42zM136 549l-140 200h53l123 -200h-36z" />
    <glyph glyph-name="iacute" unicode="&#xed;" horiz-adv-x="212" 
d="M47 0l76 484h42l-76 -484h-42zM138 549l135 200h55l-154 -200h-36z" />
    <glyph glyph-name="icircumflex" unicode="&#xee;" horiz-adv-x="212" 
d="M47 0l76 484h42l-76 -484h-42zM22 549l131 200h48l87 -200h-34l-79 161l-117 -161h-36z" />
    <glyph glyph-name="idieresis" unicode="&#xef;" horiz-adv-x="212" 
d="M47 0l76 484h42l-76 -484h-42zM218 620l9 60h61l-9 -60h-61zM57 620l9 60h61l-9 -60h-61z" />
    <glyph glyph-name="eth" unicode="&#xf0;" horiz-adv-x="541" 
d="M245 -8q-56 0 -100.5 23t-70.5 66.5t-26 102.5q0 80 32 140.5t87 95t125 34.5q56 0 100 -24.5t64 -75.5q-4 85 -31.5 150.5t-80.5 109.5l-150 -64l-14 33l130 55q-40 24 -92 39l14 33q69 -22 118 -56l132 56l14 -33l-115 -48q59 -53 86.5 -132t26.5 -185
q0 -60 -13.5 -117t-42.5 -103t-76.5 -73t-116.5 -27zM246 31q55 0 99.5 26.5t71.5 77.5t27 124q0 75 -41.5 115.5t-113.5 40.5q-54 0 -99 -26.5t-72 -77.5t-27 -124q0 -75 41.5 -115.5t113.5 -40.5z" />
    <glyph glyph-name="ntilde" unicode="&#xf1;" horiz-adv-x="553" 
d="M47 0l77 484h41l-14 -88q28 45 73.5 70.5t106.5 25.5q81 0 122 -48.5t25 -148.5l-47 -295h-42l47 296q25 157 -106 157q-86 0 -135.5 -51.5t-63.5 -137.5l-42 -264h-42zM196 595l-32 2q11 58 37.5 89.5t66.5 31.5q26 0 43.5 -15t32.5 -32q14 -15 27.5 -26.5t29.5 -11.5
q52 0 71 87l32 -2q-10 -58 -37 -89.5t-66 -31.5q-25 0 -43.5 15t-33.5 32q-13 15 -26.5 26.5t-30.5 11.5q-52 0 -71 -87z" />
    <glyph glyph-name="ograve" unicode="&#xf2;" horiz-adv-x="538" 
d="M245 -8q-89 0 -141.5 55.5t-52.5 152.5q0 77 28 143.5t82 107.5t132 41q89 0 141.5 -55t52.5 -153q0 -77 -28 -143.5t-81.5 -107.5t-132.5 -41zM247 31q64 0 108 35t66.5 93t22.5 127q0 83 -40.5 125t-112.5 42q-64 0 -108 -35t-66.5 -92.5t-22.5 -127.5
q0 -82 40.5 -124.5t112.5 -42.5zM300 549l-140 200h53l123 -200h-36z" />
    <glyph glyph-name="oacute" unicode="&#xf3;" horiz-adv-x="538" 
d="M245 -8q-89 0 -141.5 55.5t-52.5 152.5q0 77 28 143.5t82 107.5t132 41q89 0 141.5 -55t52.5 -153q0 -77 -28 -143.5t-81.5 -107.5t-132.5 -41zM247 31q64 0 108 35t66.5 93t22.5 127q0 83 -40.5 125t-112.5 42q-64 0 -108 -35t-66.5 -92.5t-22.5 -127.5
q0 -82 40.5 -124.5t112.5 -42.5zM302 549l135 200h55l-154 -200h-36z" />
    <glyph glyph-name="ocircumflex" unicode="&#xf4;" horiz-adv-x="538" 
d="M245 -8q-89 0 -141.5 55.5t-52.5 152.5q0 77 28 143.5t82 107.5t132 41q89 0 141.5 -55t52.5 -153q0 -77 -28 -143.5t-81.5 -107.5t-132.5 -41zM247 31q64 0 108 35t66.5 93t22.5 127q0 83 -40.5 125t-112.5 42q-64 0 -108 -35t-66.5 -92.5t-22.5 -127.5
q0 -82 40.5 -124.5t112.5 -42.5zM186 549l131 200h48l87 -200h-34l-79 161l-117 -161h-36z" />
    <glyph glyph-name="otilde" unicode="&#xf5;" horiz-adv-x="538" 
d="M245 -8q-89 0 -141.5 55.5t-52.5 152.5q0 77 28 143.5t82 107.5t132 41q89 0 141.5 -55t52.5 -153q0 -77 -28 -143.5t-81.5 -107.5t-132.5 -41zM247 31q64 0 108 35t66.5 93t22.5 127q0 83 -40.5 125t-112.5 42q-64 0 -108 -35t-66.5 -92.5t-22.5 -127.5
q0 -82 40.5 -124.5t112.5 -42.5zM190 595l-32 2q11 58 37.5 89.5t66.5 31.5q26 0 43.5 -15t32.5 -32q14 -15 27.5 -26.5t29.5 -11.5q52 0 71 87l32 -2q-10 -58 -37 -89.5t-66 -31.5q-25 0 -43.5 15t-33.5 32q-13 15 -26.5 26.5t-30.5 11.5q-52 0 -71 -87z" />
    <glyph glyph-name="odieresis" unicode="&#xf6;" horiz-adv-x="538" 
d="M245 -8q-89 0 -141.5 55.5t-52.5 152.5q0 77 28 143.5t82 107.5t132 41q89 0 141.5 -55t52.5 -153q0 -77 -28 -143.5t-81.5 -107.5t-132.5 -41zM247 31q64 0 108 35t66.5 93t22.5 127q0 83 -40.5 125t-112.5 42q-64 0 -108 -35t-66.5 -92.5t-22.5 -127.5
q0 -82 40.5 -124.5t112.5 -42.5zM382 620l9 60h61l-9 -60h-61zM221 620l9 60h61l-9 -60h-61z" />
    <glyph glyph-name="divide" unicode="&#xf7;" horiz-adv-x="600" 
d="M292 452l11 70h70l-11 -70h-70zM60 267l6 39h488l-6 -39h-488zM228 51l12 70h70l-12 -70h-70z" />
    <glyph glyph-name="oslash" unicode="&#xf8;" horiz-adv-x="538" 
d="M94 -32l-29 23l40 55q-54 56 -54 154q0 77 28 143.5t82 107.5t132 41q67 0 113 -31l40 54l28 -22l-40 -55q53 -56 53 -154q0 -77 -28 -143.5t-81.5 -107.5t-132.5 -41q-65 0 -112 30zM94 198q0 -76 35 -119l254 349q-37 25 -92 25q-64 0 -108 -35t-66.5 -92.5
t-22.5 -127.5zM247 31q64 0 108 35t66.5 93t22.5 127q0 75 -35 118l-252 -349q36 -24 90 -24z" />
    <glyph glyph-name="ugrave" unicode="&#xf9;" horiz-adv-x="545" 
d="M219 -8q-79 0 -119.5 48.5t-24.5 148.5l47 295h42l-47 -296q-25 -157 103 -157q83 0 132 52t62 137l42 264h42l-77 -484h-41l14 87q-27 -45 -72 -70t-103 -25zM297 550l-140 200h53l123 -200h-36z" />
    <glyph glyph-name="uacute" unicode="&#xfa;" horiz-adv-x="545" 
d="M219 -8q-79 0 -119.5 48.5t-24.5 148.5l47 295h42l-47 -296q-25 -157 103 -157q83 0 132 52t62 137l42 264h42l-77 -484h-41l14 87q-27 -45 -72 -70t-103 -25zM299 550l135 200h55l-154 -200h-36z" />
    <glyph glyph-name="ucircumflex" unicode="&#xfb;" horiz-adv-x="545" 
d="M219 -8q-79 0 -119.5 48.5t-24.5 148.5l47 295h42l-47 -296q-25 -157 103 -157q83 0 132 52t62 137l42 264h42l-77 -484h-41l14 87q-27 -45 -72 -70t-103 -25zM183 550l131 200h48l87 -200h-34l-79 161l-117 -161h-36z" />
    <glyph glyph-name="udieresis" unicode="&#xfc;" horiz-adv-x="545" 
d="M219 -8q-79 0 -119.5 48.5t-24.5 148.5l47 295h42l-47 -296q-25 -157 103 -157q83 0 132 52t62 137l42 264h42l-77 -484h-41l14 87q-27 -45 -72 -70t-103 -25zM379 621l9 60h61l-9 -60h-61zM218 621l9 60h61l-9 -60h-61z" />
    <glyph glyph-name="yacute" unicode="&#xfd;" horiz-adv-x="504" 
d="M86 -180l103 177l-129 487h44l112 -440l255 440h50l-389 -664h-46zM272 549l135 200h55l-154 -200h-36z" />
    <glyph glyph-name="thorn" unicode="&#xfe;" horiz-adv-x="568" 
d="M18 -180l140 885h42l-49 -306q28 43 73 68t103 25q86 0 138 -55.5t52 -150.5q0 -78 -27.5 -145t-81.5 -108t-133 -41q-57 0 -103 28t-66 87l-46 -287h-42zM277 31q64 0 108 35t66.5 93t22.5 127q0 83 -40.5 125t-112.5 42q-64 0 -108 -35t-66.5 -92.5t-22.5 -127.5
q0 -82 40.5 -124.5t112.5 -42.5z" />
    <glyph glyph-name="ydieresis" unicode="&#xff;" horiz-adv-x="504" 
d="M86 -180l103 177l-129 487h44l112 -440l255 440h50l-389 -664h-46zM352 620l9 60h61l-9 -60h-61zM191 620l9 60h61l-9 -60h-61z" />
    <glyph glyph-name="Amacron" unicode="&#x100;" horiz-adv-x="716" 
d="M-3 0l415 705h40l191 -705h-42l-53 195h-387l-115 -195h-49zM425 648l-241 -414h353l-110 414h-2zM298 822l6 38h310l-6 -38h-310z" />
    <glyph glyph-name="amacron" unicode="&#x101;" horiz-adv-x="514" 
d="M205 -8q-40 0 -76 17.5t-58 49.5t-22 75q0 76 65 108.5t210 32.5h71l6 40q11 68 -15.5 103t-96.5 35q-46 0 -85.5 -12.5t-77.5 -40.5l-18 36q35 26 84 41t99 15q88 0 126 -50t24 -140l-48 -302h-41l12 80q-25 -45 -69 -66.5t-90 -21.5zM208 30q40 0 76.5 19t62.5 55
t34 87l8 47h-49q-93 0 -146 -9.5t-75.5 -32t-22.5 -60.5q0 -52 34.5 -79t77.5 -27zM184 633l6 38h280l-6 -38h-280z" />
    <glyph glyph-name="Abreve" unicode="&#x102;" horiz-adv-x="716" 
d="M-3 0l415 705h40l191 -705h-42l-53 195h-387l-115 -195h-49zM425 648l-241 -414h353l-110 414h-2zM447 760q-64 0 -104.5 44.5t-38.5 122.5l33 4q-3 -64 28.5 -99.5t84.5 -35.5t89 35.5t46 99.5l33 -4q-13 -78 -60 -122.5t-111 -44.5z" />
    <glyph glyph-name="abreve" unicode="&#x103;" horiz-adv-x="514" 
d="M205 -8q-40 0 -76 17.5t-58 49.5t-22 75q0 76 65 108.5t210 32.5h71l6 40q11 68 -15.5 103t-96.5 35q-46 0 -85.5 -12.5t-77.5 -40.5l-18 36q35 26 84 41t99 15q88 0 126 -50t24 -140l-48 -302h-41l12 80q-25 -45 -69 -66.5t-90 -21.5zM208 30q40 0 76.5 19t62.5 55
t34 87l8 47h-49q-93 0 -146 -9.5t-75.5 -32t-22.5 -60.5q0 -52 34.5 -79t77.5 -27zM319 547q-62 0 -98 49.5t-32 137.5l33 4q-4 -74 22.5 -114.5t75.5 -40.5q50 0 82 40.5t42 114.5l33 -4q-13 -88 -54.5 -137.5t-103.5 -49.5z" />
    <glyph glyph-name="Aogonek" unicode="&#x104;" horiz-adv-x="716" 
d="M-3 0l415 705h40l191 -705h-42l-53 195h-387l-115 -195h-49zM425 648l-241 -414h353l-110 414h-2zM613 -190q-43 0 -66 24.5t-23 62.5q0 44 28.5 79.5t72.5 54.5l18 -31q-40 -16 -60 -43t-20 -56q0 -25 13.5 -40t41.5 -15q25 0 54 13l9 -34q-10 -5 -29 -10t-39 -5z" />
    <glyph glyph-name="aogonek" unicode="&#x105;" horiz-adv-x="514" 
d="M205 -8q-40 0 -76 17.5t-58 49.5t-22 75q0 76 65 108.5t210 32.5h71l6 40q11 68 -15.5 103t-96.5 35q-46 0 -85.5 -12.5t-77.5 -40.5l-18 36q35 26 84 41t99 15q88 0 126 -50t24 -140l-48 -302h-41l12 80q-25 -45 -69 -66.5t-90 -21.5zM208 30q40 0 76.5 19t62.5 55
t34 87l8 47h-49q-93 0 -146 -9.5t-75.5 -32t-22.5 -60.5q0 -52 34.5 -79t77.5 -27zM363 -190q-43 0 -66 24.5t-23 62.5q0 44 28.5 79.5t72.5 54.5l18 -31q-40 -16 -60 -43t-20 -56q0 -25 13.5 -40t41.5 -15q25 0 54 13l9 -34q-10 -5 -29 -10t-39 -5z" />
    <glyph glyph-name="Cacute" unicode="&#x106;" horiz-adv-x="667" 
d="M371 -8q-86 0 -151 33.5t-101 102.5t-36 177q0 87 24.5 161.5t70.5 129.5t110.5 86t145.5 31q74 0 132 -25t97 -70l-25 -35q-41 46 -90.5 67.5t-116.5 21.5q-93 0 -161 -47.5t-105 -130.5t-37 -190q0 -97 30 -157t85 -87t129 -27q62 0 110.5 21t97.5 67l24 -34
q-97 -95 -233 -95zM424 765l131 170h57l-150 -170h-38z" />
    <glyph glyph-name="cacute" unicode="&#x107;" horiz-adv-x="455" 
d="M248 -8q-100 0 -148 58.5t-48 151.5q0 53 14 104.5t43.5 93.5t76 67t111.5 25q48 0 90.5 -17.5t67.5 -46.5l-21 -32q-54 57 -139 57q-53 0 -91 -21.5t-62 -58t-35.5 -81t-11.5 -90.5q0 -78 36.5 -124.5t118.5 -46.5q33 0 69 13.5t67 42.5l19 -34q-29 -28 -72 -44.5
t-85 -16.5zM288 549l135 200h55l-154 -200h-36z" />
    <glyph glyph-name="Ccircumflex" unicode="&#x108;" horiz-adv-x="667" 
d="M371 -8q-86 0 -151 33.5t-101 102.5t-36 177q0 87 24.5 161.5t70.5 129.5t110.5 86t145.5 31q74 0 132 -25t97 -70l-25 -35q-41 46 -90.5 67.5t-116.5 21.5q-93 0 -161 -47.5t-105 -130.5t-37 -190q0 -97 30 -157t85 -87t129 -27q62 0 110.5 21t97.5 67l24 -34
q-97 -95 -233 -95zM289 765l139 170h48l103 -170h-37l-92 132l-124 -132h-37z" />
    <glyph glyph-name="ccircumflex" unicode="&#x109;" horiz-adv-x="455" 
d="M248 -8q-100 0 -148 58.5t-48 151.5q0 53 14 104.5t43.5 93.5t76 67t111.5 25q48 0 90.5 -17.5t67.5 -46.5l-21 -32q-54 57 -139 57q-53 0 -91 -21.5t-62 -58t-35.5 -81t-11.5 -90.5q0 -78 36.5 -124.5t118.5 -46.5q33 0 69 13.5t67 42.5l19 -34q-29 -28 -72 -44.5
t-85 -16.5zM172 549l131 200h48l87 -200h-34l-79 161l-117 -161h-36z" />
    <glyph glyph-name="Cdotaccent" unicode="&#x10a;" horiz-adv-x="667" 
d="M371 -8q-86 0 -151 33.5t-101 102.5t-36 177q0 87 24.5 161.5t70.5 129.5t110.5 86t145.5 31q74 0 132 -25t97 -70l-25 -35q-41 46 -90.5 67.5t-116.5 21.5q-93 0 -161 -47.5t-105 -130.5t-37 -190q0 -97 30 -157t85 -87t129 -27q62 0 110.5 21t97.5 67l24 -34
q-97 -95 -233 -95zM420 818l10 63h62l-10 -63h-62z" />
    <glyph glyph-name="cdotaccent" unicode="&#x10b;" horiz-adv-x="455" 
d="M248 -8q-100 0 -148 58.5t-48 151.5q0 53 14 104.5t43.5 93.5t76 67t111.5 25q48 0 90.5 -17.5t67.5 -46.5l-21 -32q-54 57 -139 57q-53 0 -91 -21.5t-62 -58t-35.5 -81t-11.5 -90.5q0 -78 36.5 -124.5t118.5 -46.5q33 0 69 13.5t67 42.5l19 -34q-29 -28 -72 -44.5
t-85 -16.5zM285 619l10 63h64l-10 -63h-64z" />
    <glyph glyph-name="Ccaron" unicode="&#x10c;" horiz-adv-x="667" 
d="M371 -8q-86 0 -151 33.5t-101 102.5t-36 177q0 87 24.5 161.5t70.5 129.5t110.5 86t145.5 31q74 0 132 -25t97 -70l-25 -35q-41 46 -90.5 67.5t-116.5 21.5q-93 0 -161 -47.5t-105 -130.5t-37 -190q0 -97 30 -157t85 -87t129 -27q62 0 110.5 21t97.5 67l24 -34
q-97 -95 -233 -95zM419 765l-103 170h36l91 -132l125 132h38l-139 -170h-48z" />
    <glyph glyph-name="ccaron" unicode="&#x10d;" horiz-adv-x="455" 
d="M248 -8q-100 0 -148 58.5t-48 151.5q0 53 14 104.5t43.5 93.5t76 67t111.5 25q48 0 90.5 -17.5t67.5 -46.5l-21 -32q-54 57 -139 57q-53 0 -91 -21.5t-62 -58t-35.5 -81t-11.5 -90.5q0 -78 36.5 -124.5t118.5 -46.5q33 0 69 13.5t67 42.5l19 -34q-29 -28 -72 -44.5
t-85 -16.5zM282 549l-87 200h34l79 -161l117 161h36l-131 -200h-48z" />
    <glyph glyph-name="Dcaron" unicode="&#x10e;" horiz-adv-x="725" 
d="M58 0l112 705h190q153 0 236 -75.5t83 -213.5q0 -85 -22.5 -160t-70.5 -132.5t-122.5 -90.5t-179.5 -33h-226zM106 39h180q96 0 162.5 30t107.5 83t59.5 121t18.5 143q0 122 -69 186t-206 64h-153zM412 765l-103 170h36l91 -132l125 132h38l-139 -170h-48z" />
    <glyph glyph-name="dcaron" unicode="&#x10f;" horiz-adv-x="568" 
d="M241 -8q-85 0 -137.5 55.5t-52.5 150.5q0 78 27.5 145t81.5 108t133 41q57 0 103 -28t66 -87l52 328h42l-112 -705h-42l13 83q-28 -43 -72 -67t-102 -24zM247 31q64 0 108 35t66.5 93t22.5 127q0 83 -40.5 125t-112.5 42q-64 0 -108 -35t-66.5 -92.5t-22.5 -127.5
q0 -82 40.5 -124.5t112.5 -42.5zM576 517l30 188h49l-52 -188h-27z" />
    <glyph glyph-name="Dcroat" unicode="&#x110;" horiz-adv-x="725" 
d="M58 0l112 705h190q153 0 236 -75.5t83 -213.5q0 -85 -22.5 -160t-70.5 -132.5t-122.5 -90.5t-179.5 -33h-226zM106 39h180q96 0 162.5 30t107.5 83t59.5 121t18.5 143q0 122 -69 186t-206 64h-153zM22 340l6 37h334l-6 -37h-334z" />
    <glyph glyph-name="dcroat" unicode="&#x111;" horiz-adv-x="568" 
d="M241 -8q-85 0 -137.5 55.5t-52.5 150.5q0 78 27.5 145t81.5 108t133 41q57 0 102.5 -27.5t66.5 -85.5l29 183h-197l6 36h197l17 107h42l-17 -107h95l-6 -36h-95l-89 -562h-42l13 83q-28 -43 -72 -67t-102 -24zM247 31q64 0 108 35t66.5 93t22.5 127q0 83 -40.5 125
t-112.5 42q-64 0 -108 -35t-66.5 -92.5t-22.5 -127.5q0 -82 40.5 -124.5t112.5 -42.5z" />
    <glyph glyph-name="Emacron" unicode="&#x112;" horiz-adv-x="570" 
d="M58 0l112 705h424l-6 -39h-382l-46 -289h362l-6 -39h-363l-47 -299h382l-6 -39h-424zM260 822l6 38h310l-6 -38h-310z" />
    <glyph glyph-name="emacron" unicode="&#x113;" horiz-adv-x="523" 
d="M261 -8q-98 0 -154 55.5t-56 152.5q0 77 29 143.5t85 107.5t136 41q73 0 115 -35t56.5 -90t4.5 -115l-3 -18h-379q-11 -91 32.5 -147t131.5 -56q48 0 88 14t74 47l22 -31q-32 -34 -82 -51.5t-100 -17.5zM300 454q-62 0 -103 -27t-64 -69t-32 -87h339q6 51 -6 92.5t-45 66
t-89 24.5zM189 633l6 38h280l-6 -38h-280z" />
    <glyph glyph-name="Ebreve" unicode="&#x114;" horiz-adv-x="570" 
d="M58 0l112 705h424l-6 -39h-382l-46 -289h362l-6 -39h-363l-47 -299h382l-6 -39h-424zM409 760q-64 0 -104.5 44.5t-38.5 122.5l33 4q-3 -64 28.5 -99.5t84.5 -35.5t89 35.5t46 99.5l33 -4q-13 -78 -60 -122.5t-111 -44.5z" />
    <glyph glyph-name="ebreve" unicode="&#x115;" horiz-adv-x="523" 
d="M261 -8q-98 0 -154 55.5t-56 152.5q0 77 29 143.5t85 107.5t136 41q73 0 115 -35t56.5 -90t4.5 -115l-3 -18h-379q-11 -91 32.5 -147t131.5 -56q48 0 88 14t74 47l22 -31q-32 -34 -82 -51.5t-100 -17.5zM300 454q-62 0 -103 -27t-64 -69t-32 -87h339q6 51 -6 92.5t-45 66
t-89 24.5zM324 547q-62 0 -98 49.5t-32 137.5l33 4q-4 -74 22.5 -114.5t75.5 -40.5q50 0 82 40.5t42 114.5l33 -4q-13 -88 -54.5 -137.5t-103.5 -49.5z" />
    <glyph glyph-name="Edotaccent" unicode="&#x116;" horiz-adv-x="570" 
d="M58 0l112 705h424l-6 -39h-382l-46 -289h362l-6 -39h-363l-47 -299h382l-6 -39h-424zM383 818l10 63h62l-10 -63h-62z" />
    <glyph glyph-name="edotaccent" unicode="&#x117;" horiz-adv-x="523" 
d="M261 -8q-98 0 -154 55.5t-56 152.5q0 77 29 143.5t85 107.5t136 41q73 0 115 -35t56.5 -90t4.5 -115l-3 -18h-379q-11 -91 32.5 -147t131.5 -56q48 0 88 14t74 47l22 -31q-32 -34 -82 -51.5t-100 -17.5zM300 454q-62 0 -103 -27t-64 -69t-32 -87h339q6 51 -6 92.5t-45 66
t-89 24.5zM294 619l10 63h64l-10 -63h-64z" />
    <glyph glyph-name="Eogonek" unicode="&#x118;" horiz-adv-x="570" 
d="M58 0l112 705h424l-6 -39h-382l-46 -289h362l-6 -39h-363l-47 -299h382l-6 -39h-424zM419 -190q-43 0 -66 24.5t-23 62.5q0 44 28.5 79.5t72.5 54.5l18 -31q-40 -16 -60 -43t-20 -56q0 -25 13.5 -40t41.5 -15q25 0 54 13l9 -34q-10 -5 -29 -10t-39 -5z" />
    <glyph glyph-name="eogonek" unicode="&#x119;" horiz-adv-x="523" 
d="M261 -8q-98 0 -154 55.5t-56 152.5q0 77 29 143.5t85 107.5t136 41q73 0 115 -35t56.5 -90t4.5 -115l-3 -18h-379q-11 -91 32.5 -147t131.5 -56q48 0 88 14t74 47l22 -31q-32 -34 -82 -51.5t-100 -17.5zM300 454q-62 0 -103 -27t-64 -69t-32 -87h339q6 51 -6 92.5t-45 66
t-89 24.5zM273 -190q-43 0 -66 24.5t-23 62.5q0 44 28.5 79.5t72.5 54.5l18 -31q-40 -16 -60 -43t-20 -56q0 -25 13.5 -40t41.5 -15q25 0 54 13l9 -34q-10 -5 -29 -10t-39 -5z" />
    <glyph glyph-name="Ecaron" unicode="&#x11a;" horiz-adv-x="570" 
d="M58 0l112 705h424l-6 -39h-382l-46 -289h362l-6 -39h-363l-47 -299h382l-6 -39h-424zM382 765l-103 170h36l91 -132l125 132h38l-139 -170h-48z" />
    <glyph glyph-name="ecaron" unicode="&#x11b;" horiz-adv-x="523" 
d="M261 -8q-98 0 -154 55.5t-56 152.5q0 77 29 143.5t85 107.5t136 41q73 0 115 -35t56.5 -90t4.5 -115l-3 -18h-379q-11 -91 32.5 -147t131.5 -56q48 0 88 14t74 47l22 -31q-32 -34 -82 -51.5t-100 -17.5zM300 454q-62 0 -103 -27t-64 -69t-32 -87h339q6 51 -6 92.5t-45 66
t-89 24.5zM291 549l-87 200h34l79 -161l117 161h36l-131 -200h-48z" />
    <glyph glyph-name="Gcircumflex" unicode="&#x11c;" horiz-adv-x="718" 
d="M384 -8q-145 0 -223.5 76t-78.5 221q0 128 43 223.5t122 148t186 52.5q75 0 134.5 -25t99.5 -70l-25 -35q-43 46 -93.5 67.5t-118.5 21.5q-93 0 -161 -46.5t-105 -132.5t-37 -204q0 -130 65.5 -193t193.5 -63q52 0 94 8.5t79 21.5l41 253h-194l6 39h234l-51 -323
q-36 -16 -94 -28t-117 -12zM290 765l139 170h48l103 -170h-37l-92 132l-124 -132h-37z" />
    <glyph glyph-name="gcircumflex" unicode="&#x11d;" horiz-adv-x="570" 
d="M241 -188q-64 0 -114 21.5t-88 52.5l19 35q45 -34 84 -52t97 -18q68 0 111 36.5t55 112.5l17 110q-27 -46 -73 -72.5t-107 -26.5q-57 0 -100 24.5t-67 69t-24 103.5q0 55 15.5 106t46.5 91t76 63.5t105 23.5q58 0 104 -28t66 -87l17 107h42l-77 -482
q-16 -97 -66.5 -143.5t-138.5 -46.5zM248 50q65 0 109 34.5t66.5 90.5t22.5 121q0 75 -40.5 116t-113.5 41q-64 0 -108.5 -34.5t-67 -90t-22.5 -120.5q0 -76 40.5 -117t113.5 -41zM202 549l131 200h48l87 -200h-34l-79 161l-117 -161h-36z" />
    <glyph glyph-name="Gbreve" unicode="&#x11e;" horiz-adv-x="718" 
d="M384 -8q-145 0 -223.5 76t-78.5 221q0 128 43 223.5t122 148t186 52.5q75 0 134.5 -25t99.5 -70l-25 -35q-43 46 -93.5 67.5t-118.5 21.5q-93 0 -161 -46.5t-105 -132.5t-37 -204q0 -130 65.5 -193t193.5 -63q52 0 94 8.5t79 21.5l41 253h-194l6 39h234l-51 -323
q-36 -16 -94 -28t-117 -12zM447 760q-64 0 -104.5 44.5t-38.5 122.5l33 4q-3 -64 28.5 -99.5t84.5 -35.5t89 35.5t46 99.5l33 -4q-13 -78 -60 -122.5t-111 -44.5z" />
    <glyph glyph-name="gbreve" unicode="&#x11f;" horiz-adv-x="570" 
d="M241 -188q-64 0 -114 21.5t-88 52.5l19 35q45 -34 84 -52t97 -18q68 0 111 36.5t55 112.5l17 110q-27 -46 -73 -72.5t-107 -26.5q-57 0 -100 24.5t-67 69t-24 103.5q0 55 15.5 106t46.5 91t76 63.5t105 23.5q58 0 104 -28t66 -87l17 107h42l-77 -482
q-16 -97 -66.5 -143.5t-138.5 -46.5zM248 50q65 0 109 34.5t66.5 90.5t22.5 121q0 75 -40.5 116t-113.5 41q-64 0 -108.5 -34.5t-67 -90t-22.5 -120.5q0 -76 40.5 -117t113.5 -41zM345 547q-62 0 -98 49.5t-32 137.5l33 4q-4 -74 22.5 -114.5t75.5 -40.5q50 0 82 40.5
t42 114.5l33 -4q-13 -88 -54.5 -137.5t-103.5 -49.5z" />
    <glyph glyph-name="Gdotaccent" unicode="&#x120;" horiz-adv-x="718" 
d="M384 -8q-145 0 -223.5 76t-78.5 221q0 128 43 223.5t122 148t186 52.5q75 0 134.5 -25t99.5 -70l-25 -35q-43 46 -93.5 67.5t-118.5 21.5q-93 0 -161 -46.5t-105 -132.5t-37 -204q0 -130 65.5 -193t193.5 -63q52 0 94 8.5t79 21.5l41 253h-194l6 39h234l-51 -323
q-36 -16 -94 -28t-117 -12zM421 818l10 63h62l-10 -63h-62z" />
    <glyph glyph-name="gdotaccent" unicode="&#x121;" horiz-adv-x="570" 
d="M241 -188q-64 0 -114 21.5t-88 52.5l19 35q45 -34 84 -52t97 -18q68 0 111 36.5t55 112.5l17 110q-27 -46 -73 -72.5t-107 -26.5q-57 0 -100 24.5t-67 69t-24 103.5q0 55 15.5 106t46.5 91t76 63.5t105 23.5q58 0 104 -28t66 -87l17 107h42l-77 -482
q-16 -97 -66.5 -143.5t-138.5 -46.5zM248 50q65 0 109 34.5t66.5 90.5t22.5 121q0 75 -40.5 116t-113.5 41q-64 0 -108.5 -34.5t-67 -90t-22.5 -120.5q0 -76 40.5 -117t113.5 -41zM315 619l10 63h64l-10 -63h-64z" />
    <glyph glyph-name="uni0122" unicode="&#x122;" horiz-adv-x="718" 
d="M384 -8q-145 0 -223.5 76t-78.5 221q0 128 43 223.5t122 148t186 52.5q75 0 134.5 -25t99.5 -70l-25 -35q-43 46 -93.5 67.5t-118.5 21.5q-93 0 -161 -46.5t-105 -132.5t-37 -204q0 -130 65.5 -193t193.5 -63q52 0 94 8.5t79 21.5l41 253h-194l6 39h234l-51 -323
q-36 -16 -94 -28t-117 -12zM322 -259l-20 22q25 22 33.5 41t13.5 45h-36l11 65h70l-10 -61q-6 -36 -20.5 -64t-41.5 -48z" />
    <glyph glyph-name="uni0123" unicode="&#x123;" horiz-adv-x="570" 
d="M241 -188q-64 0 -114 21.5t-88 52.5l19 35q45 -34 84 -52t97 -18q68 0 111 36.5t55 112.5l17 110q-27 -46 -73 -72.5t-107 -26.5q-57 0 -100 24.5t-67 69t-24 103.5q0 55 15.5 106t46.5 91t76 63.5t105 23.5q58 0 104 -28t66 -87l17 107h42l-77 -482
q-16 -97 -66.5 -143.5t-138.5 -46.5zM248 50q65 0 109 34.5t66.5 90.5t22.5 121q0 75 -40.5 116t-113.5 41q-64 0 -108.5 -34.5t-67 -90t-22.5 -120.5q0 -76 40.5 -117t113.5 -41zM305 570l10 61q6 36 20.5 64t41.5 48l20 -22q-25 -22 -33.5 -41t-13.5 -45h36l-11 -65h-70z
" />
    <glyph glyph-name="Hcircumflex" unicode="&#x124;" horiz-adv-x="751" 
d="M58 0l112 705h42l-52 -328h474l52 328h42l-112 -705h-42l54 338h-474l-54 -338h-42zM304 765l139 170h48l103 -170h-37l-92 132l-124 -132h-37z" />
    <glyph glyph-name="hcircumflex" unicode="&#x125;" horiz-adv-x="553" 
d="M47 0l112 705h42l-49 -307q28 45 73.5 69.5t105.5 24.5q81 0 122 -48.5t25 -148.5l-47 -295h-42l47 296q25 157 -106 157q-86 0 -135.5 -51.5t-63.5 -137.5l-42 -264h-42zM207 765l139 170h48l103 -170h-37l-92 132l-124 -132h-37z" />
    <glyph glyph-name="Hbar" unicode="&#x126;" horiz-adv-x="781" 
d="M72 0l84 527h-96l6 38h96l22 140h42l-22 -140h474l22 140h42l-22 -140h97l-6 -38h-97l-84 -527h-42l54 338h-474l-54 -338h-42zM174 377h474l24 150h-474z" />
    <glyph glyph-name="hbar" unicode="&#x127;" horiz-adv-x="553" 
d="M47 0l89 562h-95l6 36h95l17 107h42l-17 -107h197l-6 -36h-197l-26 -164q28 45 73.5 69.5t105.5 24.5q81 0 122 -48.5t25 -148.5l-47 -295h-42l47 296q25 157 -106 157q-86 0 -135.5 -51.5t-63.5 -137.5l-42 -264h-42z" />
    <glyph glyph-name="Itilde" unicode="&#x128;" horiz-adv-x="234" 
d="M58 0l112 705h42l-112 -705h-42zM36 792l-32 2q11 58 40.5 89.5t73.5 31.5q29 0 54 -15t48 -32q20 -15 38 -26.5t37 -11.5q59 0 79 87l32 -2q-11 -58 -40 -89.5t-73 -31.5q-29 0 -54.5 15.5t-48.5 31.5q-19 15 -38 26.5t-37 11.5q-59 0 -79 -87z" />
    <glyph glyph-name="itilde" unicode="&#x129;" horiz-adv-x="212" 
d="M47 0l76 484h42l-76 -484h-42zM26 595l-32 2q11 58 37.5 89.5t66.5 31.5q26 0 43.5 -15t32.5 -32q14 -15 27.5 -26.5t29.5 -11.5q52 0 71 87l32 -2q-10 -58 -37 -89.5t-66 -31.5q-25 0 -43.5 15t-33.5 32q-13 15 -26.5 26.5t-30.5 11.5q-52 0 -71 -87z" />
    <glyph glyph-name="Imacron" unicode="&#x12a;" horiz-adv-x="234" 
d="M58 0l112 705h42l-112 -705h-42zM55 822l6 38h310l-6 -38h-310z" />
    <glyph glyph-name="imacron" unicode="&#x12b;" horiz-adv-x="212" 
d="M47 0l76 484h42l-76 -484h-42zM30 633l6 38h280l-6 -38h-280z" />
    <glyph glyph-name="Ibreve" unicode="&#x12c;" horiz-adv-x="234" 
d="M58 0l112 705h42l-112 -705h-42zM204 760q-64 0 -104.5 44.5t-38.5 122.5l33 4q-3 -64 28.5 -99.5t84.5 -35.5t89 35.5t46 99.5l33 -4q-13 -78 -60 -122.5t-111 -44.5z" />
    <glyph glyph-name="ibreve" unicode="&#x12d;" horiz-adv-x="212" 
d="M47 0l76 484h42l-76 -484h-42zM165 547q-62 0 -98 49.5t-32 137.5l33 4q-4 -74 22.5 -114.5t75.5 -40.5q50 0 82 40.5t42 114.5l33 -4q-13 -88 -54.5 -137.5t-103.5 -49.5z" />
    <glyph glyph-name="Iogonek" unicode="&#x12e;" horiz-adv-x="234" 
d="M58 0l112 705h42l-112 -705h-42zM70 -190q-43 0 -66 24.5t-23 62.5q0 44 28.5 79.5t72.5 54.5l18 -31q-40 -16 -60 -43t-20 -56q0 -25 13.5 -40t41.5 -15q25 0 54 13l9 -34q-10 -5 -29 -10t-39 -5z" />
    <glyph glyph-name="iogonek" unicode="&#x12f;" horiz-adv-x="212" 
d="M47 0l76 484h42l-76 -484h-42zM135 619l10 63h64l-10 -63h-64zM59 -190q-43 0 -66 24.5t-23 62.5q0 44 28.5 79.5t72.5 54.5l18 -31q-40 -16 -60 -43t-20 -56q0 -25 13.5 -40t41.5 -15q25 0 54 13l9 -34q-10 -5 -29 -10t-39 -5z" />
    <glyph glyph-name="Idotaccent" unicode="&#x130;" horiz-adv-x="234" 
d="M58 0l112 705h42l-112 -705h-42zM178 818l10 63h62l-10 -63h-62z" />
    <glyph glyph-name="dotlessi" unicode="&#x131;" horiz-adv-x="212" 
d="M47 0l76 484h42l-76 -484h-42z" />
    <glyph glyph-name="IJ" unicode="&#x132;" horiz-adv-x="531" 
d="M58 0l112 705h42l-112 -705h-42zM191 -6l-1 38l50 4q122 9 144 151l82 518h42l-84 -528q-13 -82 -59 -128.5t-126 -51.5z" />
    <glyph glyph-name="Jcircumflex" unicode="&#x134;" horiz-adv-x="297" 
d="M-43 -6l-1 38l50 4q122 9 144 151l82 518h42l-84 -528q-13 -82 -59 -128.5t-126 -51.5zM110 765l139 170h48l103 -170h-37l-92 132l-124 -132h-37z" />
    <glyph glyph-name="jcircumflex" unicode="&#x135;" horiz-adv-x="215" 
d="M-119 -193l-2 38l41 3q106 8 126 130l80 506h42l-81 -510q-12 -77 -55 -118t-108 -46zM22 549l131 200h48l87 -200h-34l-79 161l-117 -161h-36z" />
    <glyph glyph-name="uni0136" unicode="&#x136;" horiz-adv-x="590" 
d="M58 0l112 705h42l-52 -328h2l421 328h62l-447 -351l358 -354h-57l-343 338h-2l-54 -338h-42zM227 -259l-20 22q25 22 33.5 41t13.5 45h-36l11 65h70l-10 -61q-6 -36 -20.5 -64t-41.5 -48z" />
    <glyph glyph-name="uni0137" unicode="&#x137;" horiz-adv-x="468" 
d="M47 0l111 705h42l-70 -445h2l284 224h60l-301 -239l254 -245h-56l-245 237h-2l-37 -237h-42zM149 -259l-20 22q25 22 33.5 41t13.5 45h-36l11 65h70l-10 -61q-6 -36 -20.5 -64t-41.5 -48z" />
    <glyph glyph-name="kgreenlandic" unicode="&#x138;" horiz-adv-x="468" 
d="M47 0l76 484h42l-35 -224h2l284 224h60l-301 -239l254 -245h-57l-244 237h-2l-37 -237h-42z" />
    <glyph glyph-name="Lacute" unicode="&#x139;" horiz-adv-x="527" 
d="M58 0l112 705h42l-106 -666h376l-6 -39h-418zM182 765l131 170h57l-150 -170h-38z" />
    <glyph glyph-name="lacute" unicode="&#x13a;" horiz-adv-x="275" 
d="M177 -8q-62 0 -91 38t-17 113l89 562h42l-89 -562q-10 -61 8.5 -86.5t65.5 -25.5q25 0 50 6l-9 -38q-11 -4 -24.5 -5.5t-24.5 -1.5zM171 765l131 170h57l-150 -170h-38z" />
    <glyph glyph-name="uni013B" unicode="&#x13b;" horiz-adv-x="527" 
d="M58 0l112 705h42l-106 -666h376l-6 -39h-418zM217 -259l-20 22q25 22 33.5 41t13.5 45h-36l11 65h70l-10 -61q-6 -36 -20.5 -64t-41.5 -48z" />
    <glyph glyph-name="uni013C" unicode="&#x13c;" horiz-adv-x="275" 
d="M177 -8q-62 0 -91 38t-17 113l89 562h42l-89 -562q-10 -61 8.5 -86.5t65.5 -25.5q25 0 50 6l-9 -38q-11 -4 -24.5 -5.5t-24.5 -1.5zM93 -259l-20 22q25 22 33.5 41t13.5 45h-36l11 65h70l-10 -61q-6 -36 -20.5 -64t-41.5 -48z" />
    <glyph glyph-name="Lcaron" unicode="&#x13d;" horiz-adv-x="527" 
d="M58 0l112 705h42l-106 -666h376l-6 -39h-418zM300 489l34 216h49l-53 -216h-30z" />
    <glyph glyph-name="lcaron" unicode="&#x13e;" horiz-adv-x="275" 
d="M177 -8q-62 0 -91 38t-17 113l89 562h42l-89 -562q-10 -61 8.5 -86.5t65.5 -25.5q25 0 50 6l-9 -38q-11 -4 -24.5 -5.5t-24.5 -1.5zM220 517l30 188h49l-52 -188h-27z" />
    <glyph glyph-name="Ldot" unicode="&#x13f;" horiz-adv-x="527" 
d="M58 0l112 705h42l-106 -666h376l-6 -39h-418zM368 352l11 68h68l-11 -68h-68z" />
    <glyph glyph-name="ldot" unicode="&#x140;" horiz-adv-x="275" 
d="M177 -8q-62 0 -91 38t-17 113l89 562h42l-89 -562q-10 -61 8.5 -86.5t65.5 -25.5q25 0 50 6l-9 -38q-11 -4 -24.5 -5.5t-24.5 -1.5zM212 323l11 68h68l-11 -68h-68z" />
    <glyph glyph-name="Lslash" unicode="&#x141;" horiz-adv-x="527" 
d="M58 0l112 705h42l-106 -666h376l-6 -39h-418zM18 294l-17 34l339 157l17 -34z" />
    <glyph glyph-name="lslash" unicode="&#x142;" horiz-adv-x="275" 
d="M177 -8q-62 0 -91 38t-17 113l89 562h42l-89 -562q-10 -61 8.5 -86.5t65.5 -25.5q25 0 50 6l-9 -38q-11 -4 -24.5 -5.5t-24.5 -1.5zM22 283l-17 35l241 113l17 -36z" />
    <glyph glyph-name="Nacute" unicode="&#x143;" horiz-adv-x="732" 
d="M58 0l112 705h35l364 -638l101 638h39l-112 -705h-34l-365 640l-101 -640h-39zM431 765l131 170h57l-150 -170h-38z" />
    <glyph glyph-name="nacute" unicode="&#x144;" horiz-adv-x="553" 
d="M47 0l77 484h41l-14 -88q28 45 73.5 70.5t106.5 25.5q81 0 122 -48.5t25 -148.5l-47 -295h-42l47 296q25 157 -106 157q-86 0 -135.5 -51.5t-63.5 -137.5l-42 -264h-42zM308 549l135 200h55l-154 -200h-36z" />
    <glyph glyph-name="uni0145" unicode="&#x145;" horiz-adv-x="732" 
d="M58 0l112 705h35l364 -638l101 638h39l-112 -705h-34l-365 640l-101 -640h-39zM288 -259l-20 22q25 22 33.5 41t13.5 45h-36l11 65h70l-10 -61q-6 -36 -20.5 -64t-41.5 -48z" />
    <glyph glyph-name="uni0146" unicode="&#x146;" horiz-adv-x="553" 
d="M47 0l77 484h41l-14 -88q28 45 73.5 70.5t106.5 25.5q81 0 122 -48.5t25 -148.5l-47 -295h-42l47 296q25 157 -106 157q-86 0 -135.5 -51.5t-63.5 -137.5l-42 -264h-42zM194 -259l-20 22q25 22 33.5 41t13.5 45h-36l11 65h70l-10 -61q-6 -36 -20.5 -64t-41.5 -48z" />
    <glyph glyph-name="Ncaron" unicode="&#x147;" horiz-adv-x="732" 
d="M58 0l112 705h35l364 -638l101 638h39l-112 -705h-34l-365 640l-101 -640h-39zM426 765l-103 170h36l91 -132l125 132h38l-139 -170h-48z" />
    <glyph glyph-name="ncaron" unicode="&#x148;" horiz-adv-x="553" 
d="M47 0l77 484h41l-14 -88q28 45 73.5 70.5t106.5 25.5q81 0 122 -48.5t25 -148.5l-47 -295h-42l47 296q25 157 -106 157q-86 0 -135.5 -51.5t-63.5 -137.5l-42 -264h-42zM302 549l-87 200h34l79 -161l117 161h36l-131 -200h-48z" />
    <glyph glyph-name="napostrophe" unicode="&#x149;" horiz-adv-x="553" 
d="M78 575l-23 20q23 22 32.5 41t12.5 37h-32l11 70h69l-10 -61q-5 -32 -18 -57t-42 -50zM47 0l77 484h41l-14 -88q28 45 73.5 70.5t106.5 25.5q81 0 122 -48.5t25 -148.5l-47 -295h-42l47 296q25 157 -106 157q-86 0 -135.5 -51.5t-63.5 -137.5l-42 -264h-42z" />
    <glyph glyph-name="Eng" unicode="&#x14a;" horiz-adv-x="732" 
d="M387 -193l-2 38l41 3q109 7 129 130l4 28l-361 634l-101 -640h-39l112 705h35l364 -640l101 640h39l-116 -731q-12 -77 -55 -118t-108 -46z" />
    <glyph glyph-name="eng" unicode="&#x14b;" horiz-adv-x="553" 
d="M220 -193l-2 38l41 3q107 8 127 130l50 318q25 157 -106 157q-86 0 -135.5 -51.5t-63.5 -137.5l-42 -264h-42l77 484h41l-14 -89q27 46 73 71.5t107 25.5q81 0 122 -48.5t25 -148.5l-51 -321q-12 -77 -55.5 -118t-108.5 -46z" />
    <glyph glyph-name="Omacron" unicode="&#x14c;" horiz-adv-x="751" 
d="M357 -8q-126 0 -200.5 76t-74.5 221q0 89 22 166t66 135t109 90.5t150 32.5q126 0 200.5 -76t74.5 -221q0 -89 -22 -166t-66 -135t-108.5 -90.5t-150.5 -32.5zM359 33q98 0 164.5 50.5t101 137.5t34.5 195q0 130 -61.5 193t-171.5 63q-97 0 -163.5 -50.5t-101 -137
t-34.5 -195.5q0 -130 61.5 -193t170.5 -63zM304 822l6 38h310l-6 -38h-310z" />
    <glyph glyph-name="omacron" unicode="&#x14d;" horiz-adv-x="538" 
d="M245 -8q-89 0 -141.5 55.5t-52.5 152.5q0 77 28 143.5t82 107.5t132 41q89 0 141.5 -55t52.5 -153q0 -77 -28 -143.5t-81.5 -107.5t-132.5 -41zM247 31q64 0 108 35t66.5 93t22.5 127q0 83 -40.5 125t-112.5 42q-64 0 -108 -35t-66.5 -92.5t-22.5 -127.5
q0 -82 40.5 -124.5t112.5 -42.5zM194 633l6 38h280l-6 -38h-280z" />
    <glyph glyph-name="Obreve" unicode="&#x14e;" horiz-adv-x="751" 
d="M357 -8q-126 0 -200.5 76t-74.5 221q0 89 22 166t66 135t109 90.5t150 32.5q126 0 200.5 -76t74.5 -221q0 -89 -22 -166t-66 -135t-108.5 -90.5t-150.5 -32.5zM359 33q98 0 164.5 50.5t101 137.5t34.5 195q0 130 -61.5 193t-171.5 63q-97 0 -163.5 -50.5t-101 -137
t-34.5 -195.5q0 -130 61.5 -193t170.5 -63zM453 760q-64 0 -104.5 44.5t-38.5 122.5l33 4q-3 -64 28.5 -99.5t84.5 -35.5t89 35.5t46 99.5l33 -4q-13 -78 -60 -122.5t-111 -44.5z" />
    <glyph glyph-name="obreve" unicode="&#x14f;" horiz-adv-x="538" 
d="M245 -8q-89 0 -141.5 55.5t-52.5 152.5q0 77 28 143.5t82 107.5t132 41q89 0 141.5 -55t52.5 -153q0 -77 -28 -143.5t-81.5 -107.5t-132.5 -41zM247 31q64 0 108 35t66.5 93t22.5 127q0 83 -40.5 125t-112.5 42q-64 0 -108 -35t-66.5 -92.5t-22.5 -127.5
q0 -82 40.5 -124.5t112.5 -42.5zM329 547q-62 0 -98 49.5t-32 137.5l33 4q-4 -74 22.5 -114.5t75.5 -40.5q50 0 82 40.5t42 114.5l33 -4q-13 -88 -54.5 -137.5t-103.5 -49.5z" />
    <glyph glyph-name="Ohungarumlaut" unicode="&#x150;" horiz-adv-x="751" 
d="M357 -8q-126 0 -200.5 76t-74.5 221q0 89 22 166t66 135t109 90.5t150 32.5q126 0 200.5 -76t74.5 -221q0 -89 -22 -166t-66 -135t-108.5 -90.5t-150.5 -32.5zM359 33q98 0 164.5 50.5t101 137.5t34.5 195q0 130 -61.5 193t-171.5 63q-97 0 -163.5 -50.5t-101 -137
t-34.5 -195.5q0 -130 61.5 -193t170.5 -63zM382 765l100 170h52l-125 -170h-27zM491 765l99 170h52l-124 -170h-27z" />
    <glyph glyph-name="ohungarumlaut" unicode="&#x151;" horiz-adv-x="538" 
d="M245 -8q-89 0 -141.5 55.5t-52.5 152.5q0 77 28 143.5t82 107.5t132 41q89 0 141.5 -55t52.5 -153q0 -77 -28 -143.5t-81.5 -107.5t-132.5 -41zM247 31q64 0 108 35t66.5 93t22.5 127q0 83 -40.5 125t-112.5 42q-64 0 -108 -35t-66.5 -92.5t-22.5 -127.5
q0 -82 40.5 -124.5t112.5 -42.5zM361 549l76 200h48l-97 -200h-27zM252 549l76 200h48l-97 -200h-27z" />
    <glyph glyph-name="OE" unicode="&#x152;" horiz-adv-x="1038" 
d="M400 0q-153 0 -236 75.5t-83 213.5q0 85 22.5 160t70.5 132.5t122.5 90.5t179.5 33h585l-6 -39h-380l-46 -289h362l-6 -39h-363l-47 -299h382l-6 -39h-551zM401 39h132l100 627h-159q-96 0 -162.5 -30t-107.5 -83t-59.5 -121t-18.5 -143q0 -121 69 -185.5t206 -64.5z" />
    <glyph glyph-name="oe" unicode="&#x153;" horiz-adv-x="906" 
d="M245 -8q-89 0 -141.5 55.5t-52.5 152.5q0 77 28 143.5t82 107.5t132 41q71 0 118 -35t64 -99q30 59 83 96.5t128 37.5q72 0 113.5 -35t56 -90t4.5 -115l-3 -18h-373q-11 -91 31.5 -147t128.5 -56q47 0 86.5 14t73.5 47l22 -31q-32 -34 -82 -51.5t-98 -17.5
q-76 0 -126.5 34.5t-69.5 97.5q-28 -58 -79.5 -95t-125.5 -37zM685 454q-61 0 -101 -27t-62.5 -69t-31.5 -87h333q6 51 -6 92.5t-44.5 66t-87.5 24.5zM247 31q64 0 108 35t66.5 93t22.5 127q0 83 -40.5 125t-112.5 42q-64 0 -108 -35t-66.5 -92.5t-22.5 -127.5
q0 -82 40.5 -124.5t112.5 -42.5z" />
    <glyph glyph-name="Racute" unicode="&#x154;" horiz-adv-x="654" 
d="M58 0l112 705h231q111 0 165.5 -49.5t54.5 -135.5q0 -89 -55 -140.5t-142 -61.5q22 -10 38.5 -31.5t28.5 -52.5l89 -234h-41l-84 221q-19 50 -49 70.5t-89 20.5h-168l-49 -312h-42zM156 351h227q91 0 142.5 44t51.5 124q0 73 -42 110t-134 37h-195zM386 765l131 170h57
l-150 -170h-38z" />
    <glyph glyph-name="racute" unicode="&#x155;" horiz-adv-x="327" 
d="M47 0l77 484h41l-13 -80q23 37 62 60.5t97 28.5l35 3l4 -38l-33 -3q-91 -8 -131.5 -54.5t-52.5 -120.5l-44 -280h-42zM231 552l135 200h55l-154 -200h-36z" />
    <glyph glyph-name="uni0156" unicode="&#x156;" horiz-adv-x="654" 
d="M58 0l112 705h231q111 0 165.5 -49.5t54.5 -135.5q0 -89 -55 -140.5t-142 -61.5q22 -10 38.5 -31.5t28.5 -52.5l89 -234h-41l-84 221q-19 50 -49 70.5t-89 20.5h-168l-49 -312h-42zM156 351h227q91 0 142.5 44t51.5 124q0 73 -42 110t-134 37h-195zM255 -259l-20 22
q25 22 33.5 41t13.5 45h-36l11 65h70l-10 -61q-6 -36 -20.5 -64t-41.5 -48z" />
    <glyph glyph-name="uni0157" unicode="&#x157;" horiz-adv-x="327" 
d="M47 0l77 484h41l-13 -80q23 37 62 60.5t97 28.5l35 3l4 -38l-33 -3q-91 -8 -131.5 -54.5t-52.5 -120.5l-44 -280h-42zM18 -259l-20 22q25 22 33.5 41t13.5 45h-36l11 65h70l-10 -61q-6 -36 -20.5 -64t-41.5 -48z" />
    <glyph glyph-name="Rcaron" unicode="&#x158;" horiz-adv-x="654" 
d="M58 0l112 705h231q111 0 165.5 -49.5t54.5 -135.5q0 -89 -55 -140.5t-142 -61.5q22 -10 38.5 -31.5t28.5 -52.5l89 -234h-41l-84 221q-19 50 -49 70.5t-89 20.5h-168l-49 -312h-42zM156 351h227q91 0 142.5 44t51.5 124q0 73 -42 110t-134 37h-195zM381 765l-103 170h36
l91 -132l125 132h38l-139 -170h-48z" />
    <glyph glyph-name="rcaron" unicode="&#x159;" horiz-adv-x="327" 
d="M47 0l77 484h41l-13 -80q23 37 62 60.5t97 28.5l35 3l4 -38l-33 -3q-91 -8 -131.5 -54.5t-52.5 -120.5l-44 -280h-42zM225 552l-87 200h34l79 -161l117 161h36l-131 -200h-48z" />
    <glyph glyph-name="Sacute" unicode="&#x15a;" horiz-adv-x="600" 
d="M295 -8q-77 0 -144.5 19.5t-117.5 67.5l23 33q53 -46 109.5 -62.5t131.5 -16.5q90 0 146.5 39.5t56.5 109.5q0 47 -33 81t-119 53l-99 24q-67 16 -108 54.5t-41 117.5q0 60 33.5 105.5t90 70.5t125.5 25q68 0 132 -22t106 -71l-23 -35q-44 47 -99.5 67t-117.5 20
q-57 0 -103 -20t-73 -55.5t-27 -84.5q0 -62 29 -90t85 -42l99 -24q99 -22 143 -65t44 -105t-33 -105.5t-89 -66t-127 -22.5zM352 765l131 170h57l-150 -170h-38z" />
    <glyph glyph-name="sacute" unicode="&#x15b;" horiz-adv-x="475" 
d="M220 -8q-56 0 -103.5 16.5t-76.5 44.5l23 33q35 -30 74.5 -42.5t85.5 -12.5q60 0 95.5 25t35.5 72q0 30 -19.5 50t-54.5 29l-97 26q-45 12 -72 43t-27 74q0 63 50.5 102.5t130.5 39.5q51 0 95.5 -18t67.5 -48l-21 -32q-53 59 -143 59q-61 0 -98.5 -27.5t-37.5 -74.5
q0 -29 17.5 -50t53.5 -31l97 -26q47 -13 74.5 -41t27.5 -72q0 -64 -49 -101.5t-129 -37.5zM260 549l135 200h55l-154 -200h-36z" />
    <glyph glyph-name="Scircumflex" unicode="&#x15c;" horiz-adv-x="600" 
d="M295 -8q-77 0 -144.5 19.5t-117.5 67.5l23 33q53 -46 109.5 -62.5t131.5 -16.5q90 0 146.5 39.5t56.5 109.5q0 47 -33 81t-119 53l-99 24q-67 16 -108 54.5t-41 117.5q0 60 33.5 105.5t90 70.5t125.5 25q68 0 132 -22t106 -71l-23 -35q-44 47 -99.5 67t-117.5 20
q-57 0 -103 -20t-73 -55.5t-27 -84.5q0 -62 29 -90t85 -42l99 -24q99 -22 143 -65t44 -105t-33 -105.5t-89 -66t-127 -22.5zM217 765l139 170h48l103 -170h-37l-92 132l-124 -132h-37z" />
    <glyph glyph-name="scircumflex" unicode="&#x15d;" horiz-adv-x="475" 
d="M220 -8q-56 0 -103.5 16.5t-76.5 44.5l23 33q35 -30 74.5 -42.5t85.5 -12.5q60 0 95.5 25t35.5 72q0 30 -19.5 50t-54.5 29l-97 26q-45 12 -72 43t-27 74q0 63 50.5 102.5t130.5 39.5q51 0 95.5 -18t67.5 -48l-21 -32q-53 59 -143 59q-61 0 -98.5 -27.5t-37.5 -74.5
q0 -29 17.5 -50t53.5 -31l97 -26q47 -13 74.5 -41t27.5 -72q0 -64 -49 -101.5t-129 -37.5zM144 549l131 200h48l87 -200h-34l-79 161l-117 -161h-36z" />
    <glyph glyph-name="Scedilla" unicode="&#x15e;" horiz-adv-x="600" 
d="M295 -8q-77 0 -144.5 19.5t-117.5 67.5l23 33q53 -46 109.5 -62.5t131.5 -16.5q90 0 146.5 39.5t56.5 109.5q0 47 -33 81t-119 53l-99 24q-67 16 -108 54.5t-41 117.5q0 60 33.5 105.5t90 70.5t125.5 25q68 0 132 -22t106 -71l-23 -35q-44 47 -99.5 67t-117.5 20
q-57 0 -103 -20t-73 -55.5t-27 -84.5q0 -62 29 -90t85 -42l99 -24q99 -22 143 -65t44 -105t-33 -105.5t-89 -66t-127 -22.5zM268 -190q-49 0 -77 18l12 34q18 -9 33 -12.5t39 -3.5q28 0 47 11.5t19 33.5q0 30 -35 30q-11 0 -23 -2t-30 -8l-13 13l31 96h38l-23 -69q15 3 26 3
q29 0 49 -15.5t20 -44.5q0 -37 -32 -60.5t-81 -23.5z" />
    <glyph glyph-name="scedilla" unicode="&#x15f;" horiz-adv-x="475" 
d="M220 -8q-56 0 -103.5 16.5t-76.5 44.5l23 33q35 -30 74.5 -42.5t85.5 -12.5q60 0 95.5 25t35.5 72q0 30 -19.5 50t-54.5 29l-97 26q-45 12 -72 43t-27 74q0 63 50.5 102.5t130.5 39.5q51 0 95.5 -18t67.5 -48l-21 -32q-53 59 -143 59q-61 0 -98.5 -27.5t-37.5 -74.5
q0 -29 17.5 -50t53.5 -31l97 -26q47 -13 74.5 -41t27.5 -72q0 -64 -49 -101.5t-129 -37.5zM189 -190q-49 0 -77 18l12 34q18 -9 33 -12.5t39 -3.5q28 0 47 11.5t19 33.5q0 30 -35 30q-11 0 -23 -2t-30 -8l-13 13l31 96h38l-23 -69q15 3 26 3q29 0 49 -15.5t20 -44.5
q0 -37 -32 -60.5t-81 -23.5z" />
    <glyph glyph-name="Scaron" unicode="&#x160;" horiz-adv-x="600" 
d="M295 -8q-77 0 -144.5 19.5t-117.5 67.5l23 33q53 -46 109.5 -62.5t131.5 -16.5q90 0 146.5 39.5t56.5 109.5q0 47 -33 81t-119 53l-99 24q-67 16 -108 54.5t-41 117.5q0 60 33.5 105.5t90 70.5t125.5 25q68 0 132 -22t106 -71l-23 -35q-44 47 -99.5 67t-117.5 20
q-57 0 -103 -20t-73 -55.5t-27 -84.5q0 -62 29 -90t85 -42l99 -24q99 -22 143 -65t44 -105t-33 -105.5t-89 -66t-127 -22.5zM347 765l-103 170h36l91 -132l125 132h38l-139 -170h-48z" />
    <glyph glyph-name="scaron" unicode="&#x161;" horiz-adv-x="475" 
d="M220 -8q-56 0 -103.5 16.5t-76.5 44.5l23 33q35 -30 74.5 -42.5t85.5 -12.5q60 0 95.5 25t35.5 72q0 30 -19.5 50t-54.5 29l-97 26q-45 12 -72 43t-27 74q0 63 50.5 102.5t130.5 39.5q51 0 95.5 -18t67.5 -48l-21 -32q-53 59 -143 59q-61 0 -98.5 -27.5t-37.5 -74.5
q0 -29 17.5 -50t53.5 -31l97 -26q47 -13 74.5 -41t27.5 -72q0 -64 -49 -101.5t-129 -37.5zM254 549l-87 200h34l79 -161l117 161h36l-131 -200h-48z" />
    <glyph glyph-name="uni0162" unicode="&#x162;" horiz-adv-x="586" 
d="M233 0l106 666h-269l6 39h580l-6 -39h-269l-106 -666h-42zM236 -190q-49 0 -77 18l12 34q18 -9 33 -12.5t39 -3.5q28 0 47 11.5t19 33.5q0 30 -35 30q-11 0 -23 -2t-30 -8l-13 13l31 96h38l-23 -69q15 3 26 3q29 0 49 -15.5t20 -44.5q0 -37 -32 -60.5t-81 -23.5z" />
    <glyph glyph-name="uni0163" unicode="&#x163;" horiz-adv-x="320" 
d="M220 -8q-73 0 -108 43t-23 118l47 295h-97l6 36h96l24 151h42l-24 -151h159l-6 -36h-159l-45 -286q-11 -70 12.5 -100.5t78.5 -30.5q19 0 34.5 4t26.5 8l9 -35q-10 -6 -31.5 -11t-41.5 -5zM154 -190q-49 0 -77 18l12 34q18 -9 33 -12.5t39 -3.5q28 0 47 11.5t19 33.5
q0 30 -35 30q-11 0 -23 -2t-30 -8l-13 13l31 96h38l-23 -69q15 3 26 3q29 0 49 -15.5t20 -44.5q0 -37 -32 -60.5t-81 -23.5z" />
    <glyph glyph-name="Tcaron" unicode="&#x164;" horiz-adv-x="586" 
d="M233 0l106 666h-269l6 39h580l-6 -39h-269l-106 -666h-42zM352 765l-103 170h36l91 -132l125 132h38l-139 -170h-48z" />
    <glyph glyph-name="tcaron" unicode="&#x165;" horiz-adv-x="320" 
d="M220 -8q-73 0 -108 43t-23 118l47 295h-97l6 36h96l24 151h42l-24 -151h159l-6 -36h-159l-45 -286q-11 -70 12.5 -100.5t78.5 -30.5q19 0 34.5 4t26.5 8l9 -35q-10 -6 -31.5 -11t-41.5 -5zM269.707 536.312l29.293 169.205h47.8457l-50.7754 -169.205h-26.3633z" />
    <glyph glyph-name="Tbar" unicode="&#x166;" horiz-adv-x="586" 
d="M233 0l106 666h-269l6 39h580l-6 -39h-269l-106 -666h-42zM141 340l6 37h334l-6 -37h-334z" />
    <glyph glyph-name="tbar" unicode="&#x167;" horiz-adv-x="320" 
d="M220 -8q-73 0 -108 43t-23 118l47 295h-97l6 36h96l24 151h42l-24 -151h159l-6 -36h-159l-45 -286q-11 -70 12.5 -100.5t78.5 -30.5q19 0 34.5 4t26.5 8l9 -35q-10 -6 -31.5 -11t-41.5 -5zM29 253l6 36h245l-6 -36h-245z" />
    <glyph glyph-name="Utilde" unicode="&#x168;" horiz-adv-x="720" 
d="M330 -8q-133 0 -194 74.5t-38 221.5l66 417h42l-67 -423q-40 -249 191 -249q113 0 177 56t84 181l69 435h42l-70 -444q-21 -135 -95.5 -202t-206.5 -67zM278 792l-32 2q11 58 40.5 89.5t73.5 31.5q29 0 54 -15t48 -32q20 -15 38 -26.5t37 -11.5q59 0 79 87l32 -2
q-11 -58 -40 -89.5t-73 -31.5q-29 0 -54.5 15.5t-48.5 31.5q-19 15 -38 26.5t-37 11.5q-59 0 -79 -87z" />
    <glyph glyph-name="utilde" unicode="&#x169;" horiz-adv-x="545" 
d="M219 -8q-79 0 -119.5 48.5t-24.5 148.5l47 295h42l-47 -296q-25 -157 103 -157q83 0 132 52t62 137l42 264h42l-77 -484h-41l14 87q-27 -45 -72 -70t-103 -25zM187 596l-32 2q11 58 37.5 89.5t66.5 31.5q26 0 43.5 -15t32.5 -32q14 -15 27.5 -26.5t29.5 -11.5q52 0 71 87
l32 -2q-10 -58 -37 -89.5t-66 -31.5q-25 0 -43.5 15t-33.5 32q-13 15 -26.5 26.5t-30.5 11.5q-52 0 -71 -87z" />
    <glyph glyph-name="Umacron" unicode="&#x16a;" horiz-adv-x="720" 
d="M330 -8q-133 0 -194 74.5t-38 221.5l66 417h42l-67 -423q-40 -249 191 -249q113 0 177 56t84 181l69 435h42l-70 -444q-21 -135 -95.5 -202t-206.5 -67zM297 822l6 38h310l-6 -38h-310z" />
    <glyph glyph-name="umacron" unicode="&#x16b;" horiz-adv-x="545" 
d="M219 -8q-79 0 -119.5 48.5t-24.5 148.5l47 295h42l-47 -296q-25 -157 103 -157q83 0 132 52t62 137l42 264h42l-77 -484h-41l14 87q-27 -45 -72 -70t-103 -25zM191 634l6 38h280l-6 -38h-280z" />
    <glyph glyph-name="Ubreve" unicode="&#x16c;" horiz-adv-x="720" 
d="M330 -8q-133 0 -194 74.5t-38 221.5l66 417h42l-67 -423q-40 -249 191 -249q113 0 177 56t84 181l69 435h42l-70 -444q-21 -135 -95.5 -202t-206.5 -67zM446 760q-64 0 -104.5 44.5t-38.5 122.5l33 4q-3 -64 28.5 -99.5t84.5 -35.5t89 35.5t46 99.5l33 -4
q-13 -78 -60 -122.5t-111 -44.5z" />
    <glyph glyph-name="ubreve" unicode="&#x16d;" horiz-adv-x="545" 
d="M219 -8q-79 0 -119.5 48.5t-24.5 148.5l47 295h42l-47 -296q-25 -157 103 -157q83 0 132 52t62 137l42 264h42l-77 -484h-41l14 87q-27 -45 -72 -70t-103 -25zM326 548q-62 0 -98 49.5t-32 137.5l33 4q-4 -74 22.5 -114.5t75.5 -40.5q50 0 82 40.5t42 114.5l33 -4
q-13 -88 -54.5 -137.5t-103.5 -49.5z" />
    <glyph glyph-name="Uring" unicode="&#x16e;" horiz-adv-x="720" 
d="M330 -8q-133 0 -194 74.5t-38 221.5l66 417h42l-67 -423q-40 -249 191 -249q113 0 177 56t84 181l69 435h42l-70 -444q-21 -135 -95.5 -202t-206.5 -67zM460 760q-47 0 -79.5 32t-32.5 78t32.5 78t79.5 32t79.5 -32t32.5 -78t-32.5 -78t-79.5 -32zM460 792
q35 0 56.5 22.5t21.5 55.5t-21.5 55.5t-56.5 22.5q-34 0 -56 -22.5t-22 -55.5t22 -55.5t56 -22.5z" />
    <glyph glyph-name="uring" unicode="&#x16f;" horiz-adv-x="545" 
d="M219 -8q-79 0 -119.5 48.5t-24.5 148.5l47 295h42l-47 -296q-25 -157 103 -157q83 0 132 52t62 137l42 264h42l-77 -484h-41l14 87q-27 -45 -72 -70t-103 -25zM335 548q-47 0 -79.5 32t-32.5 78t32.5 78t79.5 32t79.5 -32t32.5 -78t-32.5 -78t-79.5 -32zM335 580
q35 0 56.5 22.5t21.5 55.5t-21.5 55.5t-56.5 22.5q-34 0 -56 -22.5t-22 -55.5t22 -55.5t56 -22.5z" />
    <glyph glyph-name="Uhungarumlaut" unicode="&#x170;" horiz-adv-x="720" 
d="M330 -8q-133 0 -194 74.5t-38 221.5l66 417h42l-67 -423q-40 -249 191 -249q113 0 177 56t84 181l69 435h42l-70 -444q-21 -135 -95.5 -202t-206.5 -67zM375 765l100 170h52l-125 -170h-27zM484 765l99 170h52l-124 -170h-27z" />
    <glyph glyph-name="uhungarumlaut" unicode="&#x171;" horiz-adv-x="545" 
d="M219 -8q-79 0 -119.5 48.5t-24.5 148.5l47 295h42l-47 -296q-25 -157 103 -157q83 0 132 52t62 137l42 264h42l-77 -484h-41l14 87q-27 -45 -72 -70t-103 -25zM358 550l76 200h48l-97 -200h-27zM249 550l76 200h48l-97 -200h-27z" />
    <glyph glyph-name="Uogonek" unicode="&#x172;" horiz-adv-x="720" 
d="M330 -8q-133 0 -194 74.5t-38 221.5l66 417h42l-67 -423q-40 -249 191 -249q113 0 177 56t84 181l69 435h42l-70 -444q-21 -135 -95.5 -202t-206.5 -67zM354 -190q-43 0 -66 24.5t-23 62.5q0 44 28.5 79.5t72.5 54.5l18 -31q-40 -16 -60 -43t-20 -56q0 -25 13.5 -40
t41.5 -15q25 0 54 13l9 -34q-10 -5 -29 -10t-39 -5z" />
    <glyph glyph-name="uogonek" unicode="&#x173;" horiz-adv-x="545" 
d="M219 -8q-79 0 -119.5 48.5t-24.5 148.5l47 295h42l-47 -296q-25 -157 103 -157q83 0 132 52t62 137l42 264h42l-77 -484h-41l14 87q-27 -45 -72 -70t-103 -25zM391 -190q-43 0 -66 24.5t-23 62.5q0 44 28.5 79.5t72.5 54.5l18 -31q-40 -16 -60 -43t-20 -56
q0 -25 13.5 -40t41.5 -15q25 0 54 13l9 -34q-10 -5 -29 -10t-39 -5z" />
    <glyph glyph-name="Wcircumflex" unicode="&#x174;" horiz-adv-x="1091" 
d="M243 0l-132 705h42l119 -641l323 641h39l121 -647l325 647h46l-356 -705h-43l-120 642l-323 -642h-41zM474 765l139 170h48l103 -170h-37l-92 132l-124 -132h-37z" />
    <glyph glyph-name="wcircumflex" unicode="&#x175;" horiz-adv-x="830" 
d="M171 0l-93 484h43l80 -435l225 435h51l83 -436l222 436h46l-248 -484h-49l-85 435l-226 -435h-49zM327 549l131 200h48l87 -200h-34l-79 161l-117 -161h-36z" />
    <glyph glyph-name="Ycircumflex" unicode="&#x176;" horiz-adv-x="577" 
d="M228 0l54 342l-210 363h45l189 -326l293 326h52l-327 -362l-54 -343h-42zM212 765l139 170h48l103 -170h-37l-92 132l-124 -132h-37z" />
    <glyph glyph-name="ycircumflex" unicode="&#x177;" horiz-adv-x="504" 
d="M86 -180l103 177l-129 487h44l112 -440l255 440h50l-389 -664h-46zM156 549l131 200h48l87 -200h-34l-79 161l-117 -161h-36z" />
    <glyph glyph-name="Ydieresis" unicode="&#x178;" horiz-adv-x="577" 
d="M228 0l54 342l-210 363h45l189 -326l293 326h52l-327 -362l-54 -343h-42zM424 820l10 60h61l-10 -60h-61zM263 820l10 60h61l-10 -60h-61z" />
    <glyph glyph-name="Zacute" unicode="&#x179;" horiz-adv-x="575" 
d="M11 0l5 31l531 635h-431l7 39h489l-5 -31l-532 -635h445l-6 -39h-503zM355 765l131 170h57l-150 -170h-38z" />
    <glyph glyph-name="zacute" unicode="&#x17a;" horiz-adv-x="454" 
d="M22 0l5 29l362 420h-296l6 35h349l-5 -29l-362 -420h307l-6 -35h-360zM261 549l135 200h55l-154 -200h-36z" />
    <glyph glyph-name="Zdotaccent" unicode="&#x17b;" horiz-adv-x="575" 
d="M11 0l5 31l531 635h-431l7 39h489l-5 -31l-532 -635h445l-6 -39h-503zM351 818l10 63h62l-10 -63h-62z" />
    <glyph glyph-name="zdotaccent" unicode="&#x17c;" horiz-adv-x="454" 
d="M22 0l5 29l362 420h-296l6 35h349l-5 -29l-362 -420h307l-6 -35h-360zM258 619l10 63h64l-10 -63h-64z" />
    <glyph glyph-name="Zcaron" unicode="&#x17d;" horiz-adv-x="575" 
d="M11 0l5 31l531 635h-431l7 39h489l-5 -31l-532 -635h445l-6 -39h-503zM350 765l-103 170h36l91 -132l125 132h38l-139 -170h-48z" />
    <glyph glyph-name="zcaron" unicode="&#x17e;" horiz-adv-x="454" 
d="M22 0l5 29l362 420h-296l6 35h349l-5 -29l-362 -420h307l-6 -35h-360zM255 549l-87 200h34l79 -161l117 161h36l-131 -200h-48z" />
    <glyph glyph-name="uni0181" unicode="&#x181;" horiz-adv-x="767" 
d="M159 0l106 666h-39q-61 0 -94 -26t-44 -92l-7 -42h-39l7 45q12 77 53 115.5t131 38.5h285q104 0 156 -43.5t52 -120.5q0 -72 -40 -120.5t-109 -65.5q52 -16 82 -55t30 -93q0 -103 -62 -155t-180 -52h-288zM261 376h227q89 0 141.5 42.5t52.5 121.5q0 126 -167 126h-208z
M208 39h243q194 0 194 167q0 65 -42.5 98t-122.5 33h-225z" />
    <glyph glyph-name="uni018A" unicode="&#x18a;" horiz-adv-x="826" 
d="M159 0l106 666h-39q-61 0 -94 -26t-44 -92l-7 -42h-39l7 45q12 77 53 115.5t131 38.5h228q153 0 236 -75.5t83 -213.5q0 -85 -22.5 -160t-70.5 -132.5t-122.5 -90.5t-179.5 -33h-226zM207 39h180q96 0 162.5 30t107.5 83t59.5 121t18.5 143q0 122 -69 186t-206 64h-154z
" />
    <glyph glyph-name="uni018F" unicode="&#x18f;" horiz-adv-x="751" 
d="M352 -8q-81 0 -137.5 30t-88.5 81t-42.5 115t-0.5 131l4 27h571q1 20 1 40q0 77 -31 134.5t-88 89.5t-135 32q-85 0 -142 -21t-110 -68l-19 36q51 49 120.5 71.5t157.5 22.5q87 0 152.5 -38.5t102.5 -105.5t37 -153q0 -127 -42 -222.5t-120.5 -148.5t-189.5 -53zM358 33
q86 0 148 39t99.5 107.5t48.5 157.5h-529q-9 -84 10.5 -153t73.5 -110t149 -41z" />
    <glyph glyph-name="florin" unicode="&#x192;" horiz-adv-x="600" 
d="M-20 -188l6 37h44q50 0 83 25.5t58 91.5l179 482h-131l6 36h138l31 83q28 74 69.5 110t121.5 36h38l-6 -39h-42q-51 0 -83.5 -24t-57.5 -92l-28 -74h132l-6 -36h-139l-183 -491q-29 -79 -71 -112t-119 -33h-40z" />
    <glyph glyph-name="Ohorn" unicode="&#x1a0;" horiz-adv-x="751" 
d="M357 -8q-126 0 -200.5 76t-74.5 221q0 89 22 166t66 135t109 90.5t150 32.5q126 0 200.5 -76t74.5 -221q0 -89 -22 -166t-66 -135t-108.5 -90.5t-150.5 -32.5zM359 33q98 0 164.5 50.5t101 137.5t34.5 195q0 130 -61.5 193t-171.5 63q-97 0 -163.5 -50.5t-101 -137
t-34.5 -195.5q0 -130 61.5 -193t170.5 -63zM516 667l-47 42q29 -2 50 -3t43 -1q73 0 101 31t38 89l2 12h40l-3 -20q-11 -73 -51 -111.5t-117 -38.5h-56z" />
    <glyph glyph-name="ohorn" unicode="&#x1a1;" horiz-adv-x="538" 
d="M245 -8q-89 0 -141.5 55.5t-52.5 152.5q0 77 28 143.5t82 107.5t132 41q89 0 141.5 -55t52.5 -153q0 -77 -28 -143.5t-81.5 -107.5t-132.5 -41zM247 31q64 0 108 35t66.5 93t22.5 127q0 83 -40.5 125t-112.5 42q-64 0 -108 -35t-66.5 -92.5t-22.5 -127.5
q0 -82 40.5 -124.5t112.5 -42.5zM366 446l-14 13l4 25q73 1 101 32t38 88l2 12h40l-4 -27q-21 -137 -167 -143z" />
    <glyph glyph-name="Uhorn" unicode="&#x1af;" horiz-adv-x="720" 
d="M330 -8q-133 0 -194 74.5t-38 221.5l66 417h42l-67 -423q-40 -249 191 -249q113 0 177 56t84 181l69 435h42l-70 -444q-21 -135 -95.5 -202t-206.5 -67zM669 667l-13 13l4 25q73 1 101 31.5t38 88.5l2 12h40l-3 -20q-10 -70 -54 -108.5t-115 -41.5z" />
    <glyph glyph-name="uhorn" unicode="&#x1b0;" horiz-adv-x="545" 
d="M219 -8q-79 0 -119.5 48.5t-24.5 148.5l47 295h42l-47 -296q-25 -157 103 -157q83 0 132 52t62 137l42 264h42l-77 -484h-41l14 87q-27 -45 -72 -70t-103 -25zM468 446l-14 13l4 25q73 1 101 32t38 88l2 12h40l-4 -27q-21 -137 -167 -143z" />
    <glyph glyph-name="uni01B3" unicode="&#x1b3;" horiz-adv-x="607" 
d="M228 0l54 342l-210 363h45l189 -326l237 265q34 38 62 53.5t65 15.5q16 0 26 -1.5t22 -6.5l-6 -37q-9 4 -20 6t-26 2q-25 0 -44 -11.5t-45 -40.5l-253 -281l-54 -343h-42z" />
    <glyph glyph-name="uni01B4" unicode="&#x1b4;" horiz-adv-x="534" 
d="M423 402q27 47 58.5 68.5t76.5 21.5q30 0 51 -7l-13 -37q-7 3 -17.5 4.5t-18.5 1.5q-33 0 -55 -17.5t-50 -64.5l-323 -552h-46l103 177l-129 487h44l112 -440z" />
    <glyph glyph-name="uni01C4" unicode="&#x1c4;" horiz-adv-x="1285" 
d="M58 0l112 705h190q153 0 236 -75.5t83 -213.5q0 -85 -22.5 -160t-70.5 -132.5t-122.5 -90.5t-179.5 -33h-226zM106 39h180q96 0 162.5 30t107.5 83t59.5 121t18.5 143q0 122 -69 186t-206 64h-153zM721 0l5 31l531 635h-431l7 39h489l-5 -31l-532 -635h445l-6 -39h-503z
M1060 765l-103 170h36l91 -132l125 132h38l-139 -170h-48z" />
    <glyph glyph-name="uni01C5" unicode="&#x1c5;" horiz-adv-x="1179" 
d="M58 0l112 705h190q153 0 236 -75.5t83 -213.5q0 -85 -22.5 -160t-70.5 -132.5t-122.5 -90.5t-179.5 -33h-226zM106 39h180q96 0 162.5 30t107.5 83t59.5 121t18.5 143q0 122 -69 186t-206 64h-153zM747 0l5 29l362 420h-296l6 35h349l-5 -29l-362 -420h307l-6 -35h-360z
M980 549l-87 200h34l79 -161l117 161h36l-131 -200h-48z" />
    <glyph glyph-name="uni01C6" unicode="&#x1c6;" horiz-adv-x="1022" 
d="M241 -8q-85 0 -137.5 55.5t-52.5 150.5q0 78 27.5 145t81.5 108t133 41q57 0 103 -28t66 -87l52 328h42l-112 -705h-42l13 83q-28 -43 -72 -67t-102 -24zM247 31q64 0 108 35t66.5 93t22.5 127q0 83 -40.5 125t-112.5 42q-64 0 -108 -35t-66.5 -92.5t-22.5 -127.5
q0 -82 40.5 -124.5t112.5 -42.5zM590 0l5 29l362 420h-296l6 35h349l-5 -29l-362 -420h307l-6 -35h-360zM823 549l-87 200h34l79 -161l117 161h36l-131 -200h-48z" />
    <glyph glyph-name="uni01C7" unicode="&#x1c7;" horiz-adv-x="864" 
d="M58 0l112 705h42l-106 -666h376l-6 -39h-418zM524 -6l-1 38l50 4q122 9 144 151l82 518h42l-84 -528q-13 -82 -59 -128.5t-126 -51.5z" />
    <glyph glyph-name="uni01C8" unicode="&#x1c8;" horiz-adv-x="742" 
d="M58 0l112 705h42l-106 -666h376l-6 -39h-418zM664 619l10 63h64l-10 -63h-64zM408 -193l-2 38l41 3q106 8 126 130l80 506h42l-81 -510q-12 -77 -55 -118t-108 -46z" />
    <glyph glyph-name="uni01C9" unicode="&#x1c9;" horiz-adv-x="490" 
d="M177 -8q-62 0 -91 38t-17 113l89 562h42l-89 -562q-10 -61 8.5 -86.5t65.5 -25.5q25 0 50 6l-9 -38q-11 -4 -24.5 -5.5t-24.5 -1.5zM412 619l10 63h64l-10 -63h-64zM156 -193l-2 38l41 3q106 8 126 130l80 506h42l-81 -510q-12 -77 -55 -118t-108 -46z" />
    <glyph glyph-name="uni01CA" unicode="&#x1ca;" horiz-adv-x="1029" 
d="M58 0l112 705h35l364 -638l101 638h39l-112 -705h-34l-365 640l-101 -640h-39zM689 -6l-1 38l50 4q122 9 144 151l82 518h42l-84 -528q-13 -82 -59 -128.5t-126 -51.5z" />
    <glyph glyph-name="uni01CB" unicode="&#x1cb;" horiz-adv-x="947" 
d="M58 0l112 705h35l364 -638l101 638h39l-112 -705h-34l-365 640l-101 -640h-39zM869 619l10 63h64l-10 -63h-64zM613 -193l-2 38l41 3q106 8 126 130l80 506h42l-81 -510q-12 -77 -55 -118t-108 -46z" />
    <glyph glyph-name="uni01CC" unicode="&#x1cc;" horiz-adv-x="768" 
d="M47 0l77 484h41l-14 -88q28 45 73.5 70.5t106.5 25.5q81 0 122 -48.5t25 -148.5l-47 -295h-42l47 296q25 157 -106 157q-86 0 -135.5 -51.5t-63.5 -137.5l-42 -264h-42zM690 619l10 63h64l-10 -63h-64zM434 -193l-2 38l41 3q106 8 126 130l80 506h42l-81 -510
q-12 -77 -55 -118t-108 -46z" />
    <glyph glyph-name="uni01CD" unicode="&#x1cd;" horiz-adv-x="716" 
d="M-3 0l415 705h40l191 -705h-42l-53 195h-387l-115 -195h-49zM425 648l-241 -414h353l-110 414h-2zM420 765l-103 170h36l91 -132l125 132h38l-139 -170h-48z" />
    <glyph glyph-name="uni01CE" unicode="&#x1ce;" horiz-adv-x="514" 
d="M205 -8q-40 0 -76 17.5t-58 49.5t-22 75q0 76 65 108.5t210 32.5h71l6 40q11 68 -15.5 103t-96.5 35q-46 0 -85.5 -12.5t-77.5 -40.5l-18 36q35 26 84 41t99 15q88 0 126 -50t24 -140l-48 -302h-41l12 80q-25 -45 -69 -66.5t-90 -21.5zM208 30q40 0 76.5 19t62.5 55
t34 87l8 47h-49q-93 0 -146 -9.5t-75.5 -32t-22.5 -60.5q0 -52 34.5 -79t77.5 -27zM286 549l-87 200h34l79 -161l117 161h36l-131 -200h-48z" />
    <glyph glyph-name="uni01D4" unicode="&#x1d4;" horiz-adv-x="545" 
d="M219 -8q-79 0 -119.5 48.5t-24.5 148.5l47 295h42l-47 -296q-25 -157 103 -157q83 0 132 52t62 137l42 264h42l-77 -484h-41l14 87q-27 -45 -72 -70t-103 -25zM293 550l-87 200h34l79 -161l117 161h36l-131 -200h-48z" />
    <glyph glyph-name="uni01E5" unicode="&#x1e5;" horiz-adv-x="570" 
d="M242 -188q-64 0 -114 21.5t-88 52.5l19 35q45 -34 84 -52t97 -18q52 0 89.5 21.5t57.5 64.5h-121l6 36h128q2 6 3.5 13t2.5 14l22 137q-27 -49 -74 -77.5t-111 -28.5q-57 0 -100 24.5t-67 66.5t-24 96q0 51 15.5 100t46.5 88t76 62.5t105 23.5q58 0 104 -28t66 -87
l17 107h42l-77 -482q-1 -9 -2.5 -16.5t-3.5 -12.5h76l-6 -36h-80q-46 -125 -189 -125zM249 70q65 0 109 34t66.5 88t22.5 114q0 68 -40.5 107.5t-113.5 39.5q-64 0 -108.5 -34t-67 -87.5t-22.5 -113.5q0 -68 40.5 -108t113.5 -40z" />
    <glyph glyph-name="Gcaron" unicode="&#x1e6;" horiz-adv-x="718" 
d="M384 -8q-145 0 -223.5 76t-78.5 221q0 128 43 223.5t122 148t186 52.5q75 0 134.5 -25t99.5 -70l-25 -35q-43 46 -93.5 67.5t-118.5 21.5q-93 0 -161 -46.5t-105 -132.5t-37 -204q0 -130 65.5 -193t193.5 -63q52 0 94 8.5t79 21.5l41 253h-194l6 39h234l-51 -323
q-36 -16 -94 -28t-117 -12zM420 765l-103 170h36l91 -132l125 132h38l-139 -170h-48z" />
    <glyph glyph-name="gcaron" unicode="&#x1e7;" horiz-adv-x="570" 
d="M241 -188q-64 0 -114 21.5t-88 52.5l19 35q45 -34 84 -52t97 -18q68 0 111 36.5t55 112.5l17 110q-27 -46 -73 -72.5t-107 -26.5q-57 0 -100 24.5t-67 69t-24 103.5q0 55 15.5 106t46.5 91t76 63.5t105 23.5q58 0 104 -28t66 -87l17 107h42l-77 -482
q-16 -97 -66.5 -143.5t-138.5 -46.5zM248 50q65 0 109 34.5t66.5 90.5t22.5 121q0 75 -40.5 116t-113.5 41q-64 0 -108.5 -34.5t-67 -90t-22.5 -120.5q0 -76 40.5 -117t113.5 -41zM312 549l-87 200h34l79 -161l117 161h36l-131 -200h-48z" />
    <glyph glyph-name="uni01E9" unicode="&#x1e9;" horiz-adv-x="468" 
d="M47 0l111 705h42l-70 -445h2l284 224h60l-301 -239l254 -245h-56l-245 237h-2l-37 -237h-42zM337 765l-103 170h36l91 -132l125 132h38l-139 -170h-48z" />
    <glyph glyph-name="uni01EA" unicode="&#x1ea;" horiz-adv-x="751" 
d="M357 -8q-126 0 -200.5 76t-74.5 221q0 89 22 166t66 135t109 90.5t150 32.5q126 0 200.5 -76t74.5 -221q0 -89 -22 -166t-66 -135t-108.5 -90.5t-150.5 -32.5zM359 33q98 0 164.5 50.5t101 137.5t34.5 195q0 130 -61.5 193t-171.5 63q-97 0 -163.5 -50.5t-101 -137
t-34.5 -195.5q0 -130 61.5 -193t170.5 -63zM371 -190q-43 0 -66 24.5t-23 62.5q0 44 28.5 79.5t72.5 54.5l18 -31q-40 -16 -60 -43t-20 -56q0 -25 13.5 -40t41.5 -15q25 0 54 13l9 -34q-10 -5 -29 -10t-39 -5z" />
    <glyph glyph-name="uni01EB" unicode="&#x1eb;" horiz-adv-x="538" 
d="M245 -8q-89 0 -141.5 55.5t-52.5 152.5q0 77 28 143.5t82 107.5t132 41q89 0 141.5 -55t52.5 -153q0 -77 -28 -143.5t-81.5 -107.5t-132.5 -41zM247 31q64 0 108 35t66.5 93t22.5 127q0 83 -40.5 125t-112.5 42q-64 0 -108 -35t-66.5 -92.5t-22.5 -127.5
q0 -82 40.5 -124.5t112.5 -42.5zM272 -190q-43 0 -66 24.5t-23 62.5q0 44 28.5 79.5t72.5 54.5l18 -31q-40 -16 -60 -43t-20 -56q0 -25 13.5 -40t41.5 -15q25 0 54 13l9 -34q-10 -5 -29 -10t-39 -5z" />
    <glyph glyph-name="uni01EF" unicode="&#x1ef;" horiz-adv-x="476" 
d="M178 -188q-56 0 -110.5 17t-101.5 54l23 32q46 -35 90.5 -49.5t98.5 -14.5q91 0 137 50t46 135q0 56 -36.5 93t-104.5 37h-107l4 24l263 257h-314l6 37h373l-5 -30l-257 -250h41q58 0 98 -23t61 -61.5t21 -85.5q0 -66 -27.5 -116t-78 -78t-120.5 -28zM247 549l-87 200h34
l79 -161l117 161h36l-131 -200h-48z" />
    <glyph glyph-name="Aringacute" unicode="&#x1fa;" horiz-adv-x="716" 
d="M-3 0l415 705h40l191 -705h-42l-53 195h-387l-115 -195h-49zM425 648l-241 -414h353l-110 414h-2zM443 760q-47 0 -79.5 32t-32.5 78t32.5 78t79.5 32q38 0 68 -22l76 71h61l-113 -95q20 -28 20 -64q0 -46 -32.5 -78t-79.5 -32zM443 792q35 0 56.5 22.5t21.5 55.5
t-21.5 55.5t-56.5 22.5q-34 0 -56 -22.5t-22 -55.5t22 -55.5t56 -22.5z" />
    <glyph glyph-name="aringacute" unicode="&#x1fb;" horiz-adv-x="514" 
d="M205 -8q-40 0 -76 17.5t-58 49.5t-22 75q0 76 65 108.5t210 32.5h71l6 40q11 68 -15.5 103t-96.5 35q-46 0 -85.5 -12.5t-77.5 -40.5l-18 36q35 26 84 41t99 15q88 0 126 -50t24 -140l-48 -302h-41l12 80q-25 -45 -69 -66.5t-90 -21.5zM208 30q40 0 76.5 19t62.5 55
t34 87l8 47h-49q-93 0 -146 -9.5t-75.5 -32t-22.5 -60.5q0 -52 34.5 -79t77.5 -27zM326 547q-47 0 -79.5 32t-32.5 78t32.5 78t79.5 32q38 0 68 -22l76 71h61l-113 -95q20 -28 20 -64q0 -46 -32.5 -78t-79.5 -32zM326 579q35 0 56.5 22.5t21.5 55.5t-21.5 55.5t-56.5 22.5
q-34 0 -56 -22.5t-22 -55.5t22 -55.5t56 -22.5z" />
    <glyph glyph-name="AEacute" unicode="&#x1fc;" horiz-adv-x="971" 
d="M-37 0l532 705h500l-6 -39h-450l15 -289h369l-6 -39h-361l15 -299h319l-7 -39h-349l-9 195h-366l-147 -195h-49zM499 648l-310 -414h334l-22 414h-2zM535 765l131 170h57l-150 -170h-38z" />
    <glyph glyph-name="aeacute" unicode="&#x1fd;" horiz-adv-x="857" 
d="M205 -8q-40 0 -76 17.5t-58 49.5t-22 75q0 76 65 108t210 32h75l5 31q24 148 -115 148q-46 0 -85.5 -12.5t-77.5 -40.5l-18 36q35 26 84 41t99 15q124 0 151 -99q32 45 80.5 72t112.5 27q73 0 115 -35t56.5 -89t4.5 -113l-3 -18h-378q-13 -92 30.5 -149t132.5 -57
q48 0 88 14t74 47l22 -31q-32 -34 -82 -51.5t-100 -17.5q-74 0 -124.5 32t-71.5 90q-29 -63 -81 -92.5t-113 -29.5zM634 454q-61 0 -102 -26.5t-64 -68t-32 -85.5h339q5 50 -7.5 91t-45 65t-88.5 24zM208 30q40 0 77 17t64 50.5t35 84.5l9 55h-53q-93 0 -146 -9.5
t-75.5 -31.5t-22.5 -60q0 -52 34.5 -79t77.5 -27zM436 549l135 200h55l-154 -200h-36z" />
    <glyph glyph-name="Oslashacute" unicode="&#x1fe;" horiz-adv-x="751" 
d="M357 -8q-126 0 -200.5 76t-74.5 221q0 89 22 166t66 135t109 90.5t150 32.5q126 0 200.5 -76t74.5 -221q0 -89 -22 -166t-66 -135t-108.5 -90.5t-150.5 -32.5zM359 33q98 0 164.5 50.5t101 137.5t34.5 195q0 130 -61.5 193t-171.5 63q-97 0 -163.5 -50.5t-101 -137
t-34.5 -195.5q0 -130 61.5 -193t170.5 -63zM137 -24l-30 22l58 79l17 22l392 530l16 22l59 78l30 -22l-59 -79l-16 -22l-392 -530l-17 -22zM431 765l131 170h57l-150 -170h-38z" />
    <glyph glyph-name="oslashacute" unicode="&#x1ff;" horiz-adv-x="538" 
d="M94 -32l-29 23l40 55q-54 56 -54 154q0 77 28 143.5t82 107.5t132 41q67 0 113 -31l40 54l28 -22l-40 -55q53 -56 53 -154q0 -77 -28 -143.5t-81.5 -107.5t-132.5 -41q-65 0 -112 30zM94 198q0 -76 35 -119l254 349q-37 25 -92 25q-64 0 -108 -35t-66.5 -92.5
t-22.5 -127.5zM247 31q64 0 108 35t66.5 93t22.5 127q0 75 -35 118l-252 -349q36 -24 90 -24zM302 549l135 200h55l-154 -200h-36z" />
    <glyph glyph-name="uni0200" unicode="&#x200;" horiz-adv-x="716" 
d="M-3 0l415 705h40l191 -705h-42l-53 195h-387l-115 -195h-49zM425 648l-241 -414h353l-110 414h-2zM485 765l-97 170h51l73 -170h-27zM376 765l-96 170h51l72 -170h-27z" />
    <glyph glyph-name="uni0201" unicode="&#x201;" horiz-adv-x="514" 
d="M205 -8q-40 0 -76 17.5t-58 49.5t-22 75q0 76 65 108.5t210 32.5h71l6 40q11 68 -15.5 103t-96.5 35q-46 0 -85.5 -12.5t-77.5 -40.5l-18 36q35 26 84 41t99 15q88 0 126 -50t24 -140l-48 -302h-41l12 80q-25 -45 -69 -66.5t-90 -21.5zM208 30q40 0 76.5 19t62.5 55
t34 87l8 47h-49q-93 0 -146 -9.5t-75.5 -32t-22.5 -60.5q0 -52 34.5 -79t77.5 -27zM351 549l-61 200h47l41 -200h-27zM242 549l-61 200h47l41 -200h-27z" />
    <glyph glyph-name="uni0202" unicode="&#x202;" horiz-adv-x="716" 
d="M-3 0l415 705h40l191 -705h-42l-53 195h-387l-115 -195h-49zM425 648l-241 -414h353l-110 414h-2zM313 760l-33 4q13 78 60 122.5t111 44.5t104.5 -44.5t38.5 -122.5l-33 -4q3 65 -28.5 100t-84.5 35t-89 -35t-46 -100z" />
    <glyph glyph-name="uni0203" unicode="&#x203;" horiz-adv-x="514" 
d="M205 -8q-40 0 -76 17.5t-58 49.5t-22 75q0 76 65 108.5t210 32.5h71l6 40q11 68 -15.5 103t-96.5 35q-46 0 -85.5 -12.5t-77.5 -40.5l-18 36q35 26 84 41t99 15q88 0 126 -50t24 -140l-48 -302h-41l12 80q-25 -45 -69 -66.5t-90 -21.5zM208 30q40 0 76.5 19t62.5 55
t34 87l8 47h-49q-93 0 -146 -9.5t-75.5 -32t-22.5 -60.5q0 -52 34.5 -79t77.5 -27zM192 547l-33 4q13 88 54.5 137.5t103.5 49.5t98.5 -49.5t31.5 -137.5l-33 -4q5 74 -21.5 114.5t-76.5 40.5q-49 0 -81.5 -40.5t-42.5 -114.5z" />
    <glyph glyph-name="uni0204" unicode="&#x204;" horiz-adv-x="570" 
d="M58 0l112 705h424l-6 -39h-382l-46 -289h362l-6 -39h-363l-47 -299h382l-6 -39h-424zM447 765l-97 170h51l73 -170h-27zM338 765l-96 170h51l72 -170h-27z" />
    <glyph glyph-name="uni0205" unicode="&#x205;" horiz-adv-x="523" 
d="M261 -8q-98 0 -154 55.5t-56 152.5q0 77 29 143.5t85 107.5t136 41q73 0 115 -35t56.5 -90t4.5 -115l-3 -18h-379q-11 -91 32.5 -147t131.5 -56q48 0 88 14t74 47l22 -31q-32 -34 -82 -51.5t-100 -17.5zM300 454q-62 0 -103 -27t-64 -69t-32 -87h339q6 51 -6 92.5t-45 66
t-89 24.5zM356 549l-61 200h47l41 -200h-27zM247 549l-61 200h47l41 -200h-27z" />
    <glyph glyph-name="uni0206" unicode="&#x206;" horiz-adv-x="570" 
d="M58 0l112 705h424l-6 -39h-382l-46 -289h362l-6 -39h-363l-47 -299h382l-6 -39h-424zM275 760l-33 4q13 78 60 122.5t111 44.5t104.5 -44.5t38.5 -122.5l-33 -4q3 65 -28.5 100t-84.5 35t-89 -35t-46 -100z" />
    <glyph glyph-name="uni0207" unicode="&#x207;" horiz-adv-x="523" 
d="M261 -8q-98 0 -154 55.5t-56 152.5q0 77 29 143.5t85 107.5t136 41q73 0 115 -35t56.5 -90t4.5 -115l-3 -18h-379q-11 -91 32.5 -147t131.5 -56q48 0 88 14t74 47l22 -31q-32 -34 -82 -51.5t-100 -17.5zM300 454q-62 0 -103 -27t-64 -69t-32 -87h339q6 51 -6 92.5t-45 66
t-89 24.5zM197 547l-33 4q13 88 54.5 137.5t103.5 49.5t98.5 -49.5t31.5 -137.5l-33 -4q5 74 -21.5 114.5t-76.5 40.5q-49 0 -81.5 -40.5t-42.5 -114.5z" />
    <glyph glyph-name="uni0208" unicode="&#x208;" horiz-adv-x="234" 
d="M58 0l112 705h42l-112 -705h-42zM242 765l-97 170h51l73 -170h-27zM133 765l-96 170h51l72 -170h-27z" />
    <glyph glyph-name="uni0209" unicode="&#x209;" horiz-adv-x="212" 
d="M47 0l76 484h42l-76 -484h-42zM197 549l-61 200h47l41 -200h-27zM88 549l-61 200h47l41 -200h-27z" />
    <glyph glyph-name="uni020A" unicode="&#x20a;" horiz-adv-x="234" 
d="M58 0l112 705h42l-112 -705h-42zM70 760l-33 4q13 78 60 122.5t111 44.5t104.5 -44.5t38.5 -122.5l-33 -4q3 65 -28.5 100t-84.5 35t-89 -35t-46 -100z" />
    <glyph glyph-name="uni020B" unicode="&#x20b;" horiz-adv-x="212" 
d="M47 0l76 484h42l-76 -484h-42zM38 547l-33 4q13 88 54.5 137.5t103.5 49.5t98.5 -49.5t31.5 -137.5l-33 -4q5 74 -21.5 114.5t-76.5 40.5q-49 0 -81.5 -40.5t-42.5 -114.5z" />
    <glyph glyph-name="uni020C" unicode="&#x20c;" horiz-adv-x="751" 
d="M357 -8q-126 0 -200.5 76t-74.5 221q0 89 22 166t66 135t109 90.5t150 32.5q126 0 200.5 -76t74.5 -221q0 -89 -22 -166t-66 -135t-108.5 -90.5t-150.5 -32.5zM359 33q98 0 164.5 50.5t101 137.5t34.5 195q0 130 -61.5 193t-171.5 63q-97 0 -163.5 -50.5t-101 -137
t-34.5 -195.5q0 -130 61.5 -193t170.5 -63zM491 765l-97 170h51l73 -170h-27zM382 765l-96 170h51l72 -170h-27z" />
    <glyph glyph-name="uni020D" unicode="&#x20d;" horiz-adv-x="538" 
d="M245 -8q-89 0 -141.5 55.5t-52.5 152.5q0 77 28 143.5t82 107.5t132 41q89 0 141.5 -55t52.5 -153q0 -77 -28 -143.5t-81.5 -107.5t-132.5 -41zM247 31q64 0 108 35t66.5 93t22.5 127q0 83 -40.5 125t-112.5 42q-64 0 -108 -35t-66.5 -92.5t-22.5 -127.5
q0 -82 40.5 -124.5t112.5 -42.5zM361 549l-61 200h47l41 -200h-27zM252 549l-61 200h47l41 -200h-27z" />
    <glyph glyph-name="uni020E" unicode="&#x20e;" horiz-adv-x="751" 
d="M357 -8q-126 0 -200.5 76t-74.5 221q0 89 22 166t66 135t109 90.5t150 32.5q126 0 200.5 -76t74.5 -221q0 -89 -22 -166t-66 -135t-108.5 -90.5t-150.5 -32.5zM359 33q98 0 164.5 50.5t101 137.5t34.5 195q0 130 -61.5 193t-171.5 63q-97 0 -163.5 -50.5t-101 -137
t-34.5 -195.5q0 -130 61.5 -193t170.5 -63zM319 760l-33 4q13 78 60 122.5t111 44.5t104.5 -44.5t38.5 -122.5l-33 -4q3 65 -28.5 100t-84.5 35t-89 -35t-46 -100z" />
    <glyph glyph-name="uni020F" unicode="&#x20f;" horiz-adv-x="538" 
d="M245 -8q-89 0 -141.5 55.5t-52.5 152.5q0 77 28 143.5t82 107.5t132 41q89 0 141.5 -55t52.5 -153q0 -77 -28 -143.5t-81.5 -107.5t-132.5 -41zM247 31q64 0 108 35t66.5 93t22.5 127q0 83 -40.5 125t-112.5 42q-64 0 -108 -35t-66.5 -92.5t-22.5 -127.5
q0 -82 40.5 -124.5t112.5 -42.5zM202 547l-33 4q13 88 54.5 137.5t103.5 49.5t98.5 -49.5t31.5 -137.5l-33 -4q5 74 -21.5 114.5t-76.5 40.5q-49 0 -81.5 -40.5t-42.5 -114.5z" />
    <glyph glyph-name="uni0210" unicode="&#x210;" horiz-adv-x="654" 
d="M58 0l112 705h231q111 0 165.5 -49.5t54.5 -135.5q0 -89 -55 -140.5t-142 -61.5q22 -10 38.5 -31.5t28.5 -52.5l89 -234h-41l-84 221q-19 50 -49 70.5t-89 20.5h-168l-49 -312h-42zM156 351h227q91 0 142.5 44t51.5 124q0 73 -42 110t-134 37h-195zM446 765l-97 170h51
l73 -170h-27zM337 765l-96 170h51l72 -170h-27z" />
    <glyph glyph-name="uni0211" unicode="&#x211;" horiz-adv-x="327" 
d="M47 0l77 484h41l-13 -80q23 37 62 60.5t97 28.5l35 3l4 -38l-33 -3q-91 -8 -131.5 -54.5t-52.5 -120.5l-44 -280h-42zM290 552l-61 200h47l41 -200h-27zM181 552l-61 200h47l41 -200h-27z" />
    <glyph glyph-name="uni0212" unicode="&#x212;" horiz-adv-x="654" 
d="M58 0l112 705h231q111 0 165.5 -49.5t54.5 -135.5q0 -89 -55 -140.5t-142 -61.5q22 -10 38.5 -31.5t28.5 -52.5l89 -234h-41l-84 221q-19 50 -49 70.5t-89 20.5h-168l-49 -312h-42zM156 351h227q91 0 142.5 44t51.5 124q0 73 -42 110t-134 37h-195zM274 760l-33 4
q13 78 60 122.5t111 44.5t104.5 -44.5t38.5 -122.5l-33 -4q3 65 -28.5 100t-84.5 35t-89 -35t-46 -100z" />
    <glyph glyph-name="uni0213" unicode="&#x213;" horiz-adv-x="327" 
d="M47 0l77 484h41l-13 -80q23 37 62 60.5t97 28.5l35 3l4 -38l-33 -3q-91 -8 -131.5 -54.5t-52.5 -120.5l-44 -280h-42zM131 550l-33 4q13 88 54.5 137.5t103.5 49.5t98.5 -49.5t31.5 -137.5l-33 -4q5 74 -21.5 114.5t-76.5 40.5q-49 0 -81.5 -40.5t-42.5 -114.5z" />
    <glyph glyph-name="uni0214" unicode="&#x214;" horiz-adv-x="720" 
d="M330 -8q-133 0 -194 74.5t-38 221.5l66 417h42l-67 -423q-40 -249 191 -249q113 0 177 56t84 181l69 435h42l-70 -444q-21 -135 -95.5 -202t-206.5 -67zM484 765l-97 170h51l73 -170h-27zM375 765l-96 170h51l72 -170h-27z" />
    <glyph glyph-name="uni0215" unicode="&#x215;" horiz-adv-x="545" 
d="M219 -8q-79 0 -119.5 48.5t-24.5 148.5l47 295h42l-47 -296q-25 -157 103 -157q83 0 132 52t62 137l42 264h42l-77 -484h-41l14 87q-27 -45 -72 -70t-103 -25zM358 550l-61 200h47l41 -200h-27zM249 550l-61 200h47l41 -200h-27z" />
    <glyph glyph-name="uni0216" unicode="&#x216;" horiz-adv-x="720" 
d="M330 -8q-133 0 -194 74.5t-38 221.5l66 417h42l-67 -423q-40 -249 191 -249q113 0 177 56t84 181l69 435h42l-70 -444q-21 -135 -95.5 -202t-206.5 -67zM312 760l-33 4q13 78 60 122.5t111 44.5t104.5 -44.5t38.5 -122.5l-33 -4q3 65 -28.5 100t-84.5 35t-89 -35
t-46 -100z" />
    <glyph glyph-name="uni0217" unicode="&#x217;" horiz-adv-x="545" 
d="M219 -8q-79 0 -119.5 48.5t-24.5 148.5l47 295h42l-47 -296q-25 -157 103 -157q83 0 132 52t62 137l42 264h42l-77 -484h-41l14 87q-27 -45 -72 -70t-103 -25zM199 548l-33 4q13 88 54.5 137.5t103.5 49.5t98.5 -49.5t31.5 -137.5l-33 -4q5 74 -21.5 114.5t-76.5 40.5
q-49 0 -81.5 -40.5t-42.5 -114.5z" />
    <glyph glyph-name="uni0218" unicode="&#x218;" horiz-adv-x="600" 
d="M295 -8q-77 0 -144.5 19.5t-117.5 67.5l23 33q53 -46 109.5 -62.5t131.5 -16.5q90 0 146.5 39.5t56.5 109.5q0 47 -33 81t-119 53l-99 24q-67 16 -108 54.5t-41 117.5q0 60 33.5 105.5t90 70.5t125.5 25q68 0 132 -22t106 -71l-23 -35q-44 47 -99.5 67t-117.5 20
q-57 0 -103 -20t-73 -55.5t-27 -84.5q0 -62 29 -90t85 -42l99 -24q99 -22 143 -65t44 -105t-33 -105.5t-89 -66t-127 -22.5zM236 -259l-20 22q25 22 33.5 41t13.5 45h-36l11 65h70l-10 -61q-6 -36 -20.5 -64t-41.5 -48z" />
    <glyph glyph-name="uni0219" unicode="&#x219;" horiz-adv-x="475" 
d="M220 -8q-56 0 -103.5 16.5t-76.5 44.5l23 33q35 -30 74.5 -42.5t85.5 -12.5q60 0 95.5 25t35.5 72q0 30 -19.5 50t-54.5 29l-97 26q-45 12 -72 43t-27 74q0 63 50.5 102.5t130.5 39.5q51 0 95.5 -18t67.5 -48l-21 -32q-53 59 -143 59q-61 0 -98.5 -27.5t-37.5 -74.5
q0 -29 17.5 -50t53.5 -31l97 -26q47 -13 74.5 -41t27.5 -72q0 -64 -49 -101.5t-129 -37.5zM157 -259l-20 22q25 22 33.5 41t13.5 45h-36l11 65h70l-10 -61q-6 -36 -20.5 -64t-41.5 -48z" />
    <glyph glyph-name="uni021A" unicode="&#x21a;" horiz-adv-x="586" 
d="M233 0l106 666h-269l6 39h580l-6 -39h-269l-106 -666h-42zM204 -259l-20 22q25 22 33.5 41t13.5 45h-36l11 65h70l-10 -61q-6 -36 -20.5 -64t-41.5 -48z" />
    <glyph glyph-name="uni021B" unicode="&#x21b;" horiz-adv-x="320" 
d="M220 -8q-73 0 -108 43t-23 118l47 295h-97l6 36h96l24 151h42l-24 -151h159l-6 -36h-159l-45 -286q-11 -70 12.5 -100.5t78.5 -30.5q19 0 34.5 4t26.5 8l9 -35q-10 -6 -31.5 -11t-41.5 -5zM122 -259l-20 22q25 22 33.5 41t13.5 45h-36l11 65h70l-10 -61q-6 -36 -20.5 -64
t-41.5 -48z" />
    <glyph glyph-name="uni021F" unicode="&#x21f;" horiz-adv-x="553" 
d="M47 0l112 705h42l-49 -307q28 45 73.5 69.5t105.5 24.5q81 0 122 -48.5t25 -148.5l-47 -295h-42l47 296q25 157 -106 157q-86 0 -135.5 -51.5t-63.5 -137.5l-42 -264h-42zM337 765l-103 170h36l91 -132l125 132h38l-139 -170h-48z" />
    <glyph glyph-name="uni0226" unicode="&#x226;" horiz-adv-x="716" 
d="M-3 0l415 705h40l191 -705h-42l-53 195h-387l-115 -195h-49zM425 648l-241 -414h353l-110 414h-2zM421 818l10 63h62l-10 -63h-62z" />
    <glyph glyph-name="uni0227" unicode="&#x227;" horiz-adv-x="514" 
d="M205 -8q-40 0 -76 17.5t-58 49.5t-22 75q0 76 65 108.5t210 32.5h71l6 40q11 68 -15.5 103t-96.5 35q-46 0 -85.5 -12.5t-77.5 -40.5l-18 36q35 26 84 41t99 15q88 0 126 -50t24 -140l-48 -302h-41l12 80q-25 -45 -69 -66.5t-90 -21.5zM208 30q40 0 76.5 19t62.5 55
t34 87l8 47h-49q-93 0 -146 -9.5t-75.5 -32t-22.5 -60.5q0 -52 34.5 -79t77.5 -27zM289 619l10 63h64l-10 -63h-64z" />
    <glyph glyph-name="uni0228" unicode="&#x228;" horiz-adv-x="570" 
d="M58 0l112 705h424l-6 -39h-382l-46 -289h362l-6 -39h-363l-47 -299h382l-6 -39h-424zM271 -190q-49 0 -77 18l12 34q18 -9 33 -12.5t39 -3.5q28 0 47 11.5t19 33.5q0 30 -35 30q-11 0 -23 -2t-30 -8l-13 13l31 96h38l-23 -69q15 3 26 3q29 0 49 -15.5t20 -44.5
q0 -37 -32 -60.5t-81 -23.5z" />
    <glyph glyph-name="uni022A" unicode="&#x22a;" horiz-adv-x="751" 
d="M357 -8q-126 0 -200.5 76t-74.5 221q0 89 22 166t66 135t109 90.5t150 32.5q126 0 200.5 -76t74.5 -221q0 -89 -22 -166t-66 -135t-108.5 -90.5t-150.5 -32.5zM359 33q98 0 164.5 50.5t101 137.5t34.5 195q0 130 -61.5 193t-171.5 63q-97 0 -163.5 -50.5t-101 -137
t-34.5 -195.5q0 -130 61.5 -193t170.5 -63zM335 927l6 38h280l-6 -38h-280zM345 806l10 60h61l-10 -60h-61zM506 806l10 60h61l-10 -60h-61z" />
    <glyph glyph-name="uni022B" unicode="&#x22b;" horiz-adv-x="538" 
d="M245 -8q-89 0 -141.5 55.5t-52.5 152.5q0 77 28 143.5t82 107.5t132 41q89 0 141.5 -55t52.5 -153q0 -77 -28 -143.5t-81.5 -107.5t-132.5 -41zM247 31q64 0 108 35t66.5 93t22.5 127q0 83 -40.5 125t-112.5 42q-64 0 -108 -35t-66.5 -92.5t-22.5 -127.5
q0 -82 40.5 -124.5t112.5 -42.5zM205 706l6 38h280l-6 -38h-280zM215 585l9 60h61l-9 -60h-61zM376 585l9 60h61l-9 -60h-61z" />
    <glyph glyph-name="uni022C" unicode="&#x22c;" horiz-adv-x="751" 
d="M357 -8q-126 0 -200.5 76t-74.5 221q0 89 22 166t66 135t109 90.5t150 32.5q126 0 200.5 -76t74.5 -221q0 -89 -22 -166t-66 -135t-108.5 -90.5t-150.5 -32.5zM359 33q98 0 164.5 50.5t101 137.5t34.5 195q0 130 -61.5 193t-171.5 63q-97 0 -163.5 -50.5t-101 -137
t-34.5 -195.5q0 -130 61.5 -193t170.5 -63zM335 927l6 38h280l-6 -38h-280zM520 768q-20 0 -37 10.5t-33 21.5q-13 11 -27 19.5t-29 8.5q-22 0 -34.5 -14.5t-20.5 -47.5l-33 2q8 48 32.5 72t58.5 24q20 0 36.5 -10t32.5 -22q14 -10 27.5 -19t28.5 -9q23 0 35.5 14.5
t19.5 47.5l33 -2q-8 -48 -32 -72t-58 -24z" />
    <glyph glyph-name="uni022D" unicode="&#x22d;" horiz-adv-x="538" 
d="M245 -8q-89 0 -141.5 55.5t-52.5 152.5q0 77 28 143.5t82 107.5t132 41q89 0 141.5 -55t52.5 -153q0 -77 -28 -143.5t-81.5 -107.5t-132.5 -41zM247 31q64 0 108 35t66.5 93t22.5 127q0 83 -40.5 125t-112.5 42q-64 0 -108 -35t-66.5 -92.5t-22.5 -127.5
q0 -82 40.5 -124.5t112.5 -42.5zM205 706l6 38h280l-6 -38h-280zM209 545l-33 2q17 96 87 96q22 0 39.5 -10.5t33.5 -22.5q14 -10 27.5 -18.5t28.5 -8.5q23 0 35.5 14.5t19.5 47.5l33 -2q-16 -96 -86 -96q-22 0 -40 10.5t-35 22.5q-13 11 -27 19t-28 8q-22 0 -34.5 -14.5
t-20.5 -47.5z" />
    <glyph glyph-name="uni0230" unicode="&#x230;" horiz-adv-x="751" 
d="M357 -8q-126 0 -200.5 76t-74.5 221q0 89 22 166t66 135t109 90.5t150 32.5q126 0 200.5 -76t74.5 -221q0 -89 -22 -166t-66 -135t-108.5 -90.5t-150.5 -32.5zM359 33q98 0 164.5 50.5t101 137.5t34.5 195q0 130 -61.5 193t-171.5 63q-97 0 -163.5 -50.5t-101 -137
t-34.5 -195.5q0 -130 61.5 -193t170.5 -63zM335 927l6 38h280l-6 -38h-280zM426 806l10 60h61l-10 -60h-61z" />
    <glyph glyph-name="uni0231" unicode="&#x231;" horiz-adv-x="538" 
d="M245 -8q-89 0 -141.5 55.5t-52.5 152.5q0 77 28 143.5t82 107.5t132 41q89 0 141.5 -55t52.5 -153q0 -77 -28 -143.5t-81.5 -107.5t-132.5 -41zM247 31q64 0 108 35t66.5 93t22.5 127q0 83 -40.5 125t-112.5 42q-64 0 -108 -35t-66.5 -92.5t-22.5 -127.5
q0 -82 40.5 -124.5t112.5 -42.5zM205 706l6 38h280l-6 -38h-280zM296 585l9 60h61l-9 -60h-61z" />
    <glyph glyph-name="uni0232" unicode="&#x232;" horiz-adv-x="577" 
d="M228 0l54 342l-210 363h45l189 -326l293 326h52l-327 -362l-54 -343h-42zM220 822l6 38h310l-6 -38h-310z" />
    <glyph glyph-name="uni0233" unicode="&#x233;" horiz-adv-x="504" 
d="M86 -180l103 177l-129 487h44l112 -440l255 440h50l-389 -664h-46zM164 633l6 38h280l-6 -38h-280z" />
    <glyph glyph-name="uni0237" unicode="&#x237;" horiz-adv-x="215" 
d="M-119 -193l-2 38l41 3q106 8 126 130l80 506h42l-81 -510q-12 -77 -55 -118t-108 -46z" />
    <glyph glyph-name="uni0253" unicode="&#x253;" horiz-adv-x="568" 
d="M275 -8q-57 0 -103 28t-66 87l-17 -107h-42l90 567q12 76 51.5 111t111.5 35q28 0 48 -7l-12 -37q-13 4 -20.5 5t-17.5 1q-103 0 -119 -109l-26 -165q28 43 72 67t102 24q86 0 138 -55.5t52 -150.5q0 -78 -27.5 -145t-81.5 -108t-133 -41zM277 31q64 0 108 35t66.5 93
t22.5 127q0 83 -40.5 125t-112.5 42q-64 0 -108 -35t-66.5 -92.5t-22.5 -127.5q0 -82 40.5 -124.5t112.5 -42.5z" />
    <glyph glyph-name="uni0257" unicode="&#x257;" horiz-adv-x="568" 
d="M241 -8q-85 0 -137.5 55.5t-52.5 150.5q0 78 27.5 145t81.5 108t133 41q57 0 103 -28t66 -87l30 190q12 76 51.5 111t111.5 35q28 0 48 -7l-12 -37q-13 4 -20.5 5t-17.5 1q-103 0 -119 -109l-90 -566h-42l13 83q-28 -43 -72 -67t-102 -24zM247 31q64 0 108 35t66.5 93
t22.5 127q0 83 -40.5 125t-112.5 42q-64 0 -108 -35t-66.5 -92.5t-22.5 -127.5q0 -82 40.5 -124.5t112.5 -42.5z" />
    <glyph glyph-name="uni0259" unicode="&#x259;" horiz-adv-x="523" 
d="M222 -8q-73 0 -115 35t-56.5 90t-4.5 115l3 18h379q11 91 -32.5 147t-131.5 56q-48 0 -87.5 -14t-74.5 -47l-22 31q32 35 82.5 52t99.5 17q98 0 154 -55t56 -153q0 -77 -29 -143.5t-85 -107.5t-136 -41zM223 30q62 0 103 27t64 69t32 87h-339q-6 -51 6 -92.5t45 -66
t89 -24.5z" />
    <glyph glyph-name="uni0292" unicode="&#x292;" horiz-adv-x="476" 
d="M178 -188q-56 0 -110.5 17t-101.5 54l23 32q46 -35 90.5 -49.5t98.5 -14.5q91 0 137 50t46 135q0 56 -36.5 93t-104.5 37h-107l4 24l263 257h-314l6 37h373l-5 -30l-257 -250h41q58 0 98 -23t61 -61.5t21 -85.5q0 -66 -27.5 -116t-78 -78t-120.5 -28z" />
    <glyph glyph-name="uni02B9" unicode="&#x2b9;" horiz-adv-x="202" 
d="M119 440l29 265h52l-53 -265h-28z" />
    <glyph glyph-name="uni02BA" unicode="&#x2ba;" horiz-adv-x="342" 
d="M119 440l29 265h52l-53 -265h-28zM259 440l29 265h52l-53 -265h-28z" />
    <glyph glyph-name="uni02BB" unicode="&#x2bb;" horiz-adv-x="500" 
d="M266 570l8 54q11 70 66 119l23 -20q-26 -24 -37 -45t-15 -43h35l-10 -65h-70z" />
    <glyph glyph-name="uni02BC" unicode="&#x2bc;" horiz-adv-x="300" 
d="M196 575l-23 20q23 22 32.5 41t12.5 37h-32l11 70h69l-10 -61q-5 -32 -18 -57t-42 -50z" />
    <glyph glyph-name="uni02BE" unicode="&#x2be;" horiz-adv-x="500" 
d="M299 556l6 36q28 -1 47.5 18t19.5 47q0 23 -13 37.5t-36 15.5l6 35q38 -2 60.5 -26.5t22.5 -59.5q0 -30 -15.5 -54t-41.5 -37.5t-56 -11.5z" />
    <glyph glyph-name="uni02BF" unicode="&#x2bf;" horiz-adv-x="500" 
d="M300 556q-38 2 -60.5 27t-22.5 59q0 30 16 54t42 37.5t56 11.5l-6 -36q-28 2 -48 -17t-20 -48q0 -22 13 -36.5t36 -16.5z" />
    <glyph glyph-name="circumflex" unicode="&#x2c6;" horiz-adv-x="500" 
d="M164 549l131 200h48l87 -200h-34l-79 161l-117 -161h-36z" />
    <glyph glyph-name="caron" unicode="&#x2c7;" horiz-adv-x="500" 
d="M274 549l-87 200h34l79 -161l117 161h36l-131 -200h-48z" />
    <glyph glyph-name="uni02C8" unicode="&#x2c8;" horiz-adv-x="500" 
d="M285 596l31 198h42l-31 -198h-42z" />
    <glyph glyph-name="uni02C9" unicode="&#x2c9;" horiz-adv-x="500" 
d="M172 633l6 38h280l-6 -38h-280z" />
    <glyph glyph-name="uni02CA" unicode="&#x2ca;" horiz-adv-x="500" 
d="M280 549l122 200h54l-140 -200h-36z" />
    <glyph glyph-name="fourthtofinechinese" unicode="&#x2cb;" horiz-adv-x="500" 
d="M278 549l-140 200h53l123 -200h-36z" />
    <glyph glyph-name="uni02CC" unicode="&#x2cc;" horiz-adv-x="500" 
d="M148 -270l31 198h42l-31 -198h-42z" />
    <glyph glyph-name="breve" unicode="&#x2d8;" horiz-adv-x="500" 
d="M307 547q-62 0 -98 49.5t-32 137.5l33 4q-4 -74 22.5 -114.5t75.5 -40.5q50 0 82 40.5t42 114.5l33 -4q-13 -88 -54.5 -137.5t-103.5 -49.5z" />
    <glyph glyph-name="dotaccent" unicode="&#x2d9;" horiz-adv-x="500" 
d="M277 619l10 63h64l-10 -63h-64z" />
    <glyph glyph-name="ring" unicode="&#x2da;" horiz-adv-x="500" 
d="M316 547q-47 0 -79.5 32t-32.5 78t32.5 78t79.5 32t79.5 -32t32.5 -78t-32.5 -78t-79.5 -32zM316 579q35 0 56.5 22.5t21.5 55.5t-21.5 55.5t-56.5 22.5q-34 0 -56 -22.5t-22 -55.5t22 -55.5t56 -22.5z" />
    <glyph glyph-name="ogonek" unicode="&#x2db;" horiz-adv-x="500" 
d="M181 -190q-43 0 -66 24.5t-23 62.5q0 44 28.5 79.5t72.5 54.5l18 -31q-40 -16 -60 -43t-20 -56q0 -25 13.5 -40t41.5 -15q25 0 54 13l9 -34q-10 -5 -29 -10t-39 -5z" />
    <glyph glyph-name="tilde" unicode="&#x2dc;" horiz-adv-x="500" 
d="M168 595l-32 2q11 58 37.5 89.5t66.5 31.5q26 0 43.5 -15t32.5 -32q14 -15 27.5 -26.5t29.5 -11.5q52 0 71 87l32 -2q-10 -58 -37 -89.5t-66 -31.5q-25 0 -43.5 15t-33.5 32q-13 15 -26.5 26.5t-30.5 11.5q-52 0 -71 -87z" />
    <glyph glyph-name="hungarumlaut" unicode="&#x2dd;" horiz-adv-x="500" 
d="M339 549l76 200h48l-97 -200h-27zM230 549l76 200h48l-97 -200h-27z" />
    <glyph glyph-name="gravecomb" unicode="&#x300;" 
d="M-10 549l-140 200h53l123 -200h-36z" />
    <glyph glyph-name="acutecomb" unicode="&#x301;" 
d="M-8 549l135 200h55l-154 -200h-36z" />
    <glyph glyph-name="uni0302" unicode="&#x302;" 
d="M-124 549l131 200h48l87 -200h-34l-79 161l-117 -161h-36z" />
    <glyph glyph-name="tildecomb" unicode="&#x303;" 
d="M-120 595l-32 2q11 58 37.5 89.5t66.5 31.5q26 0 43.5 -15t32.5 -32q14 -15 27.5 -26.5t29.5 -11.5q52 0 71 87l32 -2q-10 -58 -37 -89.5t-66 -31.5q-25 0 -43.5 15t-33.5 32q-13 15 -26.5 26.5t-30.5 11.5q-52 0 -71 -87z" />
    <glyph glyph-name="uni0304" unicode="&#x304;" 
d="M-116 633l6 38h280l-6 -38h-280z" />
    <glyph glyph-name="uni0306" unicode="&#x306;" 
d="M19 547q-62 0 -98 49.5t-32 137.5l33 4q-4 -74 22.5 -114.5t75.5 -40.5q50 0 82 40.5t42 114.5l33 -4q-13 -88 -54.5 -137.5t-103.5 -49.5z" />
    <glyph glyph-name="uni0307" unicode="&#x307;" 
d="M-11 619l10 63h64l-10 -63h-64z" />
    <glyph glyph-name="uni0308" unicode="&#x308;" 
d="M72 620l9 60h61l-9 -60h-61zM-89 620l9 60h61l-9 -60h-61z" />
    <glyph glyph-name="hookabovecomb" unicode="&#x309;" 
d="M-13 549l3 20q4 24 16 40t26.5 28.5t25 24.5t10.5 28q0 28 -49 28q-15 0 -31 -3.5t-36 -12.5l-6 32q17 11 37.5 15.5t42.5 4.5q40 0 61.5 -15.5t21.5 -43.5q0 -27 -11 -42.5t-26 -26.5t-28 -24.5t-18 -37.5l-3 -15h-36z" />
    <glyph glyph-name="uni030A" unicode="&#x30a;" 
d="M28 547q-47 0 -79.5 32t-32.5 78t32.5 78t79.5 32t79.5 -32t32.5 -78t-32.5 -78t-79.5 -32zM28 579q35 0 56.5 22.5t21.5 55.5t-21.5 55.5t-56.5 22.5q-34 0 -56 -22.5t-22 -55.5t22 -55.5t56 -22.5z" />
    <glyph glyph-name="uni030B" unicode="&#x30b;" 
d="M51 549l76 200h48l-97 -200h-27zM-58 549l76 200h48l-97 -200h-27z" />
    <glyph glyph-name="uni030C" unicode="&#x30c;" 
d="M-14 549l-87 200h34l79 -161l117 161h36l-131 -200h-48z" />
    <glyph glyph-name="uni030F" unicode="&#x30f;" 
d="M51 549l-61 200h47l41 -200h-27zM-58 549l-61 200h47l41 -200h-27z" />
    <glyph glyph-name="uni0311" unicode="&#x311;" 
d="M-108 547l-33 4q13 88 54.5 137.5t103.5 49.5t98.5 -49.5t31.5 -137.5l-33 -4q5 74 -21.5 114.5t-76.5 40.5q-49 0 -81.5 -40.5t-42.5 -114.5z" />
    <glyph glyph-name="uni0312" unicode="&#x312;" 
d="M-21 570l10 61q6 36 20.5 64t41.5 48l20 -22q-25 -22 -33.5 -41t-13.5 -45h36l-11 -65h-70z" />
    <glyph glyph-name="uni031B" unicode="&#x31b;" 
d="M10 446l-14 13l4 25q73 1 101 32t38 88l2 12h40l-4 -27q-21 -137 -167 -143z" />
    <glyph glyph-name="dotbelowcomb" unicode="&#x323;" 
d="M-59 -172l10 63h64l-10 -63h-64z" />
    <glyph glyph-name="uni0324" unicode="&#x324;" 
d="M23 -171l10 60h61l-10 -60h-61zM-138 -171l10 60h61l-10 -60h-61z" />
    <glyph glyph-name="uni0326" unicode="&#x326;" 
d="M-50 -259l-20 22q25 22 33.5 41t13.5 45h-36l11 65h70l-10 -61q-6 -36 -20.5 -64t-41.5 -48z" />
    <glyph glyph-name="uni0327" unicode="&#x327;" 
d="M-18 -190q-49 0 -77 18l12 34q18 -9 33 -12.5t39 -3.5q28 0 47 11.5t19 33.5q0 30 -35 30q-11 0 -23 -2t-30 -8l-13 13l31 96h38l-23 -69q15 3 26 3q29 0 49 -15.5t20 -44.5q0 -37 -32 -60.5t-81 -23.5z" />
    <glyph glyph-name="uni0328" unicode="&#x328;" 
d="M-30 -190q-43 0 -66 24.5t-23 62.5q0 44 28.5 79.5t72.5 54.5l18 -31q-40 -16 -60 -43t-20 -56q0 -25 13.5 -40t41.5 -15q25 0 54 13l9 -34q-10 -5 -29 -10t-39 -5z" />
    <glyph glyph-name="uni032E" unicode="&#x32e;" 
d="M-21 -215q-62 0 -99 39t-34 108l33 4q-4 -55 24 -85t77 -30q50 0 81 30t40 85l33 -4q-10 -69 -51.5 -108t-103.5 -39z" />
    <glyph glyph-name="uni0331" unicode="&#x331;" 
d="M-163 -148l6 38h280l-6 -38h-280z" />
    <glyph glyph-name="uni0335" unicode="&#x335;" 
d="M-170 522l6 36h334l-6 -36h-334z" />
    <glyph glyph-name="uni0337" unicode="&#x337;" 
d="M-112 283l-17 35l241 113l17 -36z" />
    <glyph glyph-name="uni0338" unicode="&#x338;" 
d="M-175 -29l-29 23l381 524l28 -22z" />
    <glyph glyph-name="uni0394" unicode="&#x394;" horiz-adv-x="716" 
d="M9 0l5 29l397 676h40l183 -676l-5 -29h-620zM424 647l-358 -608h524l-164 608h-2z" />
    <glyph glyph-name="Sigma" unicode="&#x3a3;" horiz-adv-x="600" 
d="M-12 -180l5 31l349 416l-219 407l5 31h490l-6 -39h-438l209 -387l-6 -33l-327 -387h434l-6 -39h-490z" />
    <glyph glyph-name="uni03A9" unicode="&#x3a9;" horiz-adv-x="760" 
d="M6 0l6 38h222q-155 142 -155 313q0 106 42.5 187.5t123.5 128t195 46.5q86 0 151 -36.5t101 -100t36 -144.5q0 -134 -69.5 -233.5t-184.5 -160.5h208l-6 -38h-274l6 36q126 68 200.5 165.5t74.5 230.5q0 70 -30 124t-85.5 85t-130.5 31q-101 0 -171 -41.5t-106 -113.5
t-36 -164q0 -84 40 -163.5t122 -153.5l-6 -36h-274z" />
    <glyph glyph-name="uni03BC" unicode="&#x3bc;" horiz-adv-x="545" 
d="M16 -180l106 664h42l-47 -296q-25 -157 103 -157q83 0 132 52t62 137l42 264h42l-77 -484h-41l14 87q-27 -45 -72 -70t-103 -25q-92 0 -128 62l-33 -234h-42z" />
    <glyph glyph-name="pi" unicode="&#x3c0;" horiz-adv-x="560" 
d="M450 -3q-70 0 -99 45.5t-17 119.5l45 286h-200q-24 -138 -58.5 -249t-80.5 -199h-47q100 184 144 448h-99l6 36h510l-6 -36h-127l-45 -287q-10 -64 9.5 -94.5t75.5 -30.5q24 0 55 6l-8 -39q-33 -6 -58 -6z" />
    <glyph glyph-name="uni0400" unicode="&#x400;" horiz-adv-x="570" 
d="M58 0l112 705h424l-6 -39h-382l-46 -289h362l-6 -39h-363l-47 -299h382l-6 -39h-424zM387 765l-122 170h55l105 -170h-38z" />
    <glyph glyph-name="uni0401" unicode="&#x401;" horiz-adv-x="570" 
d="M58 0l112 705h424l-6 -39h-382l-46 -289h362l-6 -39h-363l-47 -299h382l-6 -39h-424zM464 820l10 60h61l-10 -60h-61zM303 820l10 60h61l-10 -60h-61z" />
    <glyph glyph-name="uni0402" unicode="&#x402;" horiz-adv-x="817" 
d="M505 -188q-33 0 -61.5 6t-46.5 15l12 37q38 -19 95 -19q145 0 176 191l16 98q21 128 -23.5 188t-151.5 60q-52 0 -99.5 -10.5t-92.5 -36.5l-54 -341h-42l106 666h-269l6 39h580l-6 -39h-269l-44 -279q38 21 85 31.5t99 10.5q127 0 183 -71.5t34 -211.5l-16 -103
q-36 -231 -217 -231z" />
    <glyph glyph-name="uni0403" unicode="&#x403;" horiz-adv-x="527" 
d="M58 0l112 705h417l-6 -39h-375l-106 -666h-42zM339 765l131 170h57l-150 -170h-38z" />
    <glyph glyph-name="uni0404" unicode="&#x404;" horiz-adv-x="667" 
d="M371 -8q-86 0 -151 33.5t-101 102.5t-36 177q0 87 24.5 161.5t70.5 129.5t110.5 86t145.5 31q74 0 132 -25t97 -70l-25 -35q-41 46 -90.5 67.5t-116.5 21.5q-82 0 -145 -37.5t-102 -104t-51 -153.5h384l-6 -39h-382q-4 -94 18.5 -162.5t77 -105.5t147.5 -37
q62 0 110.5 21t97.5 67l24 -34q-97 -95 -233 -95z" />
    <glyph glyph-name="uni0405" unicode="&#x405;" horiz-adv-x="600" 
d="M295 -8q-77 0 -144.5 19.5t-117.5 67.5l23 33q53 -46 109.5 -62.5t131.5 -16.5q90 0 146.5 39.5t56.5 109.5q0 47 -33 81t-119 53l-99 24q-67 16 -108 54.5t-41 117.5q0 60 33.5 105.5t90 70.5t125.5 25q68 0 132 -22t106 -71l-23 -35q-44 47 -99.5 67t-117.5 20
q-57 0 -103 -20t-73 -55.5t-27 -84.5q0 -62 29 -90t85 -42l99 -24q99 -22 143 -65t44 -105t-33 -105.5t-89 -66t-127 -22.5z" />
    <glyph glyph-name="uni0406" unicode="&#x406;" horiz-adv-x="234" 
d="M58 0l112 705h42l-112 -705h-42z" />
    <glyph glyph-name="uni0407" unicode="&#x407;" horiz-adv-x="234" 
d="M58 0l112 705h42l-112 -705h-42zM259 820l10 60h61l-10 -60h-61zM98 820l10 60h61l-10 -60h-61z" />
    <glyph glyph-name="uni0408" unicode="&#x408;" horiz-adv-x="297" 
d="M-43 -6l-1 38l50 4q122 9 144 151l82 518h42l-84 -528q-13 -82 -59 -128.5t-126 -51.5z" />
    <glyph glyph-name="uni0409" unicode="&#x409;" horiz-adv-x="1126" 
d="M3 -13l-17 38q39 19 75 44.5t68 72.5t58 126.5t46 206.5l36 230h420l-52 -326h219q103 0 155.5 -46t52.5 -124q0 -104 -62 -156.5t-180 -52.5h-287l106 666h-338l-32 -201q-19 -120 -45 -201.5t-59 -134.5t-73.5 -86t-90.5 -56zM583 39h243q194 0 194 169
q0 65 -42.5 98.5t-122.5 33.5h-224z" />
    <glyph glyph-name="uni040A" unicode="&#x40a;" horiz-adv-x="1166" 
d="M58 0l112 705h42l-52 -328h474l52 328h42l-52 -326h220q103 0 155.5 -46t52.5 -124q0 -104 -62 -156.5t-180 -52.5h-288l54 338h-474l-54 -338h-42zM622 39h244q194 0 194 169q0 65 -42.5 98.5t-122.5 33.5h-225z" />
    <glyph glyph-name="uni040B" unicode="&#x40b;" horiz-adv-x="833" 
d="M233 0l106 666h-269l6 39h580l-6 -39h-269l-44 -279q39 21 91.5 31.5t104.5 10.5q131 0 187.5 -71.5t34.5 -211.5l-23 -146h-42l23 140q21 128 -24 188t-156 60q-52 0 -104.5 -10.5t-99.5 -36.5l-54 -341h-42z" />
    <glyph glyph-name="uni040C" unicode="&#x40c;" horiz-adv-x="611" 
d="M58 0l112 705h42l-52 -327h142l274 327h52l-281 -334q45 -12 79 -45.5t51 -86.5l79 -239h-43l-68 210q-22 70 -60.5 99.5t-97.5 29.5h-133l-54 -339h-42zM367 765l131 170h57l-150 -170h-38z" />
    <glyph glyph-name="uni040D" unicode="&#x40d;" horiz-adv-x="732" 
d="M58 0l112 705h39l-100 -629l565 629h35l-112 -705h-39l100 631l-566 -631h-34zM430 765l-122 170h55l105 -170h-38z" />
    <glyph glyph-name="uni040E" unicode="&#x40e;" horiz-adv-x="628" 
d="M172 0l143 213l-232 492h44l214 -455l307 455h48l-476 -705h-48zM382 760q-35 0 -69.5 12t-61.5 39.5t-41 72.5l34 14q34 -102 138 -102q53 0 90.5 21.5t75.5 79.5l31 -13q-40 -73 -92 -98.5t-105 -25.5z" />
    <glyph glyph-name="uni040F" unicode="&#x40f;" horiz-adv-x="746" 
d="M291 -150l24 150h-257l112 705h42l-105 -666h469l105 666h42l-112 -705h-256l-24 -150h-40z" />
    <glyph glyph-name="uni0410" unicode="&#x410;" horiz-adv-x="716" 
d="M-3 0l415 705h40l191 -705h-42l-53 195h-387l-115 -195h-49zM425 648l-241 -414h353l-110 414h-2z" />
    <glyph glyph-name="uni0411" unicode="&#x411;" horiz-adv-x="649" 
d="M58 0l112 705h422l-6 -39h-380l-46 -287h219q103 0 155.5 -46t52.5 -124q0 -104 -62 -156.5t-180 -52.5h-287zM106 39h243q194 0 194 169q0 65 -42.5 98.5t-122.5 33.5h-224z" />
    <glyph glyph-name="uni0412" unicode="&#x412;" horiz-adv-x="666" 
d="M58 0l112 705h247q104 0 156 -43.5t52 -120.5q0 -72 -40 -120.5t-109 -65.5q52 -16 82 -55t30 -93q0 -103 -62 -155t-180 -52h-288zM160 376h227q89 0 141.5 42.5t52.5 121.5q0 126 -167 126h-208zM107 39h243q194 0 194 167q0 65 -42.5 98t-122.5 33h-225z" />
    <glyph glyph-name="uni0413" unicode="&#x413;" horiz-adv-x="527" 
d="M58 0l112 705h417l-6 -39h-375l-106 -666h-42z" />
    <glyph glyph-name="uni0414" unicode="&#x414;" horiz-adv-x="760" 
d="M-43 -150l30 189h68q67 66 112 184.5t74 301.5l29 180h440l-105 -666h100l-30 -189h-40l24 150h-638l-24 -150h-40zM107 39h456l99 627h-358l-22 -141q-28 -181 -70.5 -300.5t-104.5 -185.5z" />
    <glyph glyph-name="uni0415" unicode="&#x415;" horiz-adv-x="570" 
d="M58 0l112 705h424l-6 -39h-382l-46 -289h362l-6 -39h-363l-47 -299h382l-6 -39h-424z" />
    <glyph glyph-name="uni0416" unicode="&#x416;" horiz-adv-x="928" 
d="M-21 0l153 239q36 57 78.5 91t93.5 43l-174 332h44l171 -327h119l52 327h42l-52 -327h113l274 327h52l-281 -334q45 -12 79 -45.5t51 -86.5l79 -239h-43l-68 210q-22 70 -60.5 99.5t-97.5 29.5h-104l-54 -339h-42l54 339h-102q-61 0 -106.5 -30.5t-89.5 -98.5l-134 -210
h-47z" />
    <glyph glyph-name="uni0417" unicode="&#x417;" horiz-adv-x="645" 
d="M306 -8q-91 0 -156 22t-122 71l23 35q59 -51 120.5 -69t139.5 -18q57 0 105 16t77 53.5t29 101.5q0 66 -42 99.5t-122 33.5h-171l6 39h172q89 0 141.5 43t52.5 124q0 46 -24 74t-64 41.5t-89 13.5q-65 0 -130 -21.5t-117 -66.5l-21 36q55 47 126.5 70t141.5 23
q60 0 110 -18t80.5 -55t30.5 -95q0 -74 -39.5 -123t-107.5 -66q51 -16 80.5 -56.5t29.5 -96.5q0 -76 -35.5 -122.5t-94.5 -67.5t-130 -21z" />
    <glyph glyph-name="uni0418" unicode="&#x418;" horiz-adv-x="732" 
d="M58 0l112 705h39l-100 -629l565 629h35l-112 -705h-39l100 631l-566 -631h-34z" />
    <glyph glyph-name="uni0419" unicode="&#x419;" horiz-adv-x="732" 
d="M58 0l112 705h39l-100 -629l565 629h35l-112 -705h-39l100 631l-566 -631h-34zM443 760q-35 0 -69.5 12t-61.5 39.5t-41 72.5l34 14q34 -102 138 -102q53 0 90.5 21.5t75.5 79.5l31 -13q-40 -73 -92 -98.5t-105 -25.5z" />
    <glyph glyph-name="uni041A" unicode="&#x41a;" horiz-adv-x="611" 
d="M58 0l112 705h42l-52 -327h142l274 327h52l-281 -334q45 -12 79 -45.5t51 -86.5l79 -239h-43l-68 210q-22 70 -60.5 99.5t-97.5 29.5h-133l-54 -339h-42z" />
    <glyph glyph-name="uni041B" unicode="&#x41b;" horiz-adv-x="731" 
d="M0 -13l-14 39q39 18 75 44t67.5 72.5t57.5 126t46 206.5l36 230h440l-112 -705h-42l106 666h-358l-32 -201q-19 -120 -44 -201.5t-57.5 -134.5t-74 -86t-94.5 -56z" />
    <glyph glyph-name="uni041C" unicode="&#x41c;" horiz-adv-x="844" 
d="M60 0l112 705h36l199 -552l377 552h36l-112 -705h-39l97 617l-346 -507h-35l-187 517l-99 -627h-39z" />
    <glyph glyph-name="uni041D" unicode="&#x41d;" horiz-adv-x="751" 
d="M58 0l112 705h42l-52 -328h474l52 328h42l-112 -705h-42l54 338h-474l-54 -338h-42z" />
    <glyph glyph-name="uni041E" unicode="&#x41e;" horiz-adv-x="751" 
d="M357 -8q-126 0 -200.5 76t-74.5 221q0 89 22 166t66 135t109 90.5t150 32.5q126 0 200.5 -76t74.5 -221q0 -89 -22 -166t-66 -135t-108.5 -90.5t-150.5 -32.5zM359 33q98 0 164.5 50.5t101 137.5t34.5 195q0 130 -61.5 193t-171.5 63q-97 0 -163.5 -50.5t-101 -137
t-34.5 -195.5q0 -130 61.5 -193t170.5 -63z" />
    <glyph glyph-name="uni041F" unicode="&#x41f;" horiz-adv-x="746" 
d="M58 0l112 705h553l-112 -705h-42l106 666h-469l-106 -666h-42z" />
    <glyph glyph-name="uni0420" unicode="&#x420;" horiz-adv-x="616" 
d="M58 0l112 705h237q100 0 157 -45.5t57 -138.5q0 -101 -64.5 -162.5t-186.5 -61.5h-223l-47 -297h-42zM154 336h220q99 0 151 47t52 137q0 76 -43.5 111t-126.5 35h-201z" />
    <glyph glyph-name="uni0421" unicode="&#x421;" horiz-adv-x="667" 
d="M371 -8q-86 0 -151 33.5t-101 102.5t-36 177q0 87 24.5 161.5t70.5 129.5t110.5 86t145.5 31q74 0 132 -25t97 -70l-25 -35q-41 46 -90.5 67.5t-116.5 21.5q-93 0 -161 -47.5t-105 -130.5t-37 -190q0 -97 30 -157t85 -87t129 -27q62 0 110.5 21t97.5 67l24 -34
q-97 -95 -233 -95z" />
    <glyph glyph-name="uni0422" unicode="&#x422;" horiz-adv-x="586" 
d="M233 0l106 666h-269l6 39h580l-6 -39h-269l-106 -666h-42z" />
    <glyph glyph-name="uni0423" unicode="&#x423;" horiz-adv-x="628" 
d="M172 0l143 213l-232 492h44l214 -455l307 455h48l-476 -705h-48z" />
    <glyph glyph-name="uni0424" unicode="&#x424;" horiz-adv-x="810" 
d="M342 -20l13 77q-81 3 -142.5 35.5t-96 90t-34.5 134.5q0 64 24.5 124.5t70 109.5t110 78t143.5 29h19l12 72h42l-12 -72q81 -3 143 -35.5t96.5 -90t34.5 -134.5q0 -64 -24.5 -124.5t-70 -109.5t-109.5 -78t-144 -29h-20l-13 -77h-42zM127 316q0 -102 64 -159t169 -61
l83 523h-16q-69 0 -124 -25.5t-94.5 -68.5t-60.5 -97.5t-21 -111.5zM720 399q0 103 -64.5 160t-170.5 60l-83 -523h18q69 0 124 25.5t94.5 68.5t60.5 97.5t21 111.5z" />
    <glyph glyph-name="uni0425" unicode="&#x425;" horiz-adv-x="631" 
d="M-14 0l325 364l-197 341h46l179 -311l274 311h53l-305 -345l208 -360h-46l-191 329l-293 -329h-53z" />
    <glyph glyph-name="uni0426" unicode="&#x426;" horiz-adv-x="773" 
d="M648 -150l24 150h-614l112 705h42l-105 -666h469l105 666h42l-105 -666h100l-30 -189h-40z" />
    <glyph glyph-name="uni0427" unicode="&#x427;" horiz-adv-x="657" 
d="M480 0l50 318q-39 -21 -91.5 -31.5t-104.5 -10.5q-130 0 -187 71.5t-35 211.5l23 146h42l-23 -140q-21 -127 24 -187.5t156 -60.5q52 0 105 10.5t99 36.5l54 341h42l-112 -705h-42z" />
    <glyph glyph-name="uni0428" unicode="&#x428;" horiz-adv-x="1038" 
d="M58 0l112 705h42l-105 -666h360l105 666h42l-105 -666h359l105 666h42l-112 -705h-845z" />
    <glyph glyph-name="uni0429" unicode="&#x429;" horiz-adv-x="1064" 
d="M939 -150l24 150h-905l112 705h42l-105 -666h360l105 666h42l-105 -666h360l105 666h42l-105 -666h98l-30 -189h-40z" />
    <glyph glyph-name="uni042A" unicode="&#x42a;" horiz-adv-x="776" 
d="M185 0l106 666h-221l6 39h263l-52 -326h219q103 0 155.5 -46t52.5 -124q0 -104 -62 -156.5t-180 -52.5h-287zM233 39h243q194 0 194 169q0 65 -42.5 98.5t-122.5 33.5h-224z" />
    <glyph glyph-name="uni042B" unicode="&#x42b;" horiz-adv-x="813" 
d="M58 0l112 705h42l-52 -326h191q103 0 155.5 -46t52.5 -124q0 -104 -62 -156.5t-180 -52.5h-259zM636 0l112 705h42l-112 -705h-42zM106 39h215q194 0 194 169q0 65 -42.5 98.5t-122.5 33.5h-196z" />
    <glyph glyph-name="uni042C" unicode="&#x42c;" horiz-adv-x="649" 
d="M58 0l112 705h42l-52 -326h219q103 0 155.5 -46t52.5 -124q0 -104 -62 -156.5t-180 -52.5h-287zM106 39h243q194 0 194 169q0 65 -42.5 98.5t-122.5 33.5h-224z" />
    <glyph glyph-name="uni042D" unicode="&#x42d;" horiz-adv-x="667" 
d="M268 -8q-73 0 -131.5 25t-97.5 70l25 35q41 -46 90.5 -67.5t116.5 -21.5q84 0 147.5 38.5t103 107.5t49.5 159h-385l6 39h382q3 90 -19 156t-75.5 102.5t-144.5 36.5q-61 0 -112 -20.5t-101 -67.5l-24 34q97 95 238 95q86 0 149.5 -33t98.5 -102.5t35 -177.5
q0 -87 -24.5 -161.5t-70.5 -129.5t-110.5 -86t-145.5 -31z" />
    <glyph glyph-name="uni042E" unicode="&#x42e;" horiz-adv-x="984" 
d="M590 -8q-99 0 -162.5 44t-91.5 122t-19 180h-163l-54 -338h-42l112 705h42l-52 -328h161q13 97 55.5 173t114.5 119.5t171 43.5q126 0 200.5 -76t74.5 -221q0 -89 -22 -166t-66 -135t-108.5 -90.5t-150.5 -32.5zM592 33q98 0 164.5 50.5t101 137.5t34.5 195
q0 130 -61.5 193t-171.5 63q-97 0 -163.5 -50.5t-101 -137t-34.5 -195.5q0 -130 61.5 -193t170.5 -63z" />
    <glyph glyph-name="uni042F" unicode="&#x42f;" horiz-adv-x="654" 
d="M10 0l168 242q24 34 43.5 53.5t43.5 26.5q-76 15 -113.5 61.5t-37.5 117.5q0 68 32.5 113t88.5 68t127 23h269l-112 -705h-42l50 312h-147q-39 0 -67 -7t-51.5 -25.5t-47.5 -53.5l-156 -226h-48zM334 351h199l50 315h-231q-91 0 -142.5 -44t-51.5 -124q0 -73 42.5 -110
t133.5 -37z" />
    <glyph glyph-name="uni0430" unicode="&#x430;" horiz-adv-x="520" 
d="M208 -8q-40 0 -76 17.5t-58 49.5t-22 75q0 76 65 108.5t210 32.5h71l6 40q11 68 -15.5 103t-96.5 35q-46 0 -85.5 -12.5t-77.5 -40.5l-18 36q35 26 84 41t99 15q88 0 126 -50t24 -140l-48 -302h-41l12 80q-25 -45 -69 -66.5t-90 -21.5zM211 30q40 0 76.5 19t62.5 55
t34 87l8 47h-49q-93 0 -146 -9.5t-75.5 -32t-22.5 -60.5q0 -52 34.5 -79t77.5 -27z" />
    <glyph glyph-name="uni0431" unicode="&#x431;" horiz-adv-x="544" 
d="M248 -8q-71 0 -117.5 35.5t-65 96.5t-6.5 138l12 77q16 98 41.5 160.5t73 101.5t127.5 64l165 52l16 -38l-189 -57q-85 -26 -125 -84t-57 -139q30 43 77 68t100 25q86 0 138 -55t52 -153q0 -77 -28 -143.5t-81.5 -107.5t-132.5 -41zM250 31q64 0 108 35t66.5 93t22.5 127
q0 83 -40.5 125t-112.5 42q-64 0 -108 -34t-66.5 -87.5t-22.5 -113.5q0 -97 40.5 -142t112.5 -45z" />
    <glyph glyph-name="uni0432" unicode="&#x432;" horiz-adv-x="528" 
d="M50 0l77 484h205q71 0 107.5 -28.5t36.5 -79.5q0 -52 -26 -84.5t-74 -45.5q35 -9 58 -35t23 -67q0 -70 -46 -107t-144 -37h-217zM134 264h176q56 0 89.5 28.5t33.5 80.5q0 36 -25.5 55.5t-73.5 19.5h-171zM98 36h179q73 0 105 27.5t32 79.5q0 42 -27 63.5t-77 21.5h-182z
" />
    <glyph glyph-name="uni0433" unicode="&#x433;" horiz-adv-x="415" 
d="M50 0l77 484h314l-6 -37h-272l-71 -447h-42z" />
    <glyph glyph-name="uni0434" unicode="&#x434;" horiz-adv-x="569" 
d="M-32 -130l26 166h47q49 47 78 121t45 179l23 148h312l-71 -448h74l-26 -166h-38l20 130h-432l-20 -130h-38zM91 36h295l65 412h-229l-17 -112q-14 -94 -43.5 -175t-70.5 -125z" />
    <glyph glyph-name="uni0435" unicode="&#x435;" horiz-adv-x="529" 
d="M264 -8q-98 0 -154 55.5t-56 152.5q0 77 29 143.5t85 107.5t136 41q73 0 115 -35t56.5 -90t4.5 -115l-3 -18h-379q-11 -91 32.5 -147t131.5 -56q48 0 88 14t74 47l22 -31q-32 -34 -82 -51.5t-100 -17.5zM303 454q-62 0 -103 -27t-64 -69t-32 -87h339q6 51 -6 92.5t-45 66
t-89 24.5z" />
    <glyph glyph-name="uni0436" unicode="&#x436;" horiz-adv-x="748" 
d="M-31 0l122 156q30 38 51 59.5t38.5 32t36.5 15.5l-145 221h46l141 -215h98l34 215h42l-34 -215h92l209 215h52l-215 -222q32 -11 53 -37t41 -69l72 -156h-43l-69 150q-22 50 -49 66.5t-71 16.5h-78l-37 -233h-42l37 233h-71q-33 0 -56 -7t-43.5 -25t-46.5 -51l-117 -150
h-48z" />
    <glyph glyph-name="uni0437" unicode="&#x437;" horiz-adv-x="477" 
d="M194 -8q-60 0 -109.5 17.5t-74.5 48.5l21 36q29 -33 70.5 -48t93.5 -15q77 0 122 25t45 87q0 38 -27.5 61.5t-78.5 23.5h-101l6 36h93q55 0 91.5 29t36.5 80q0 37 -30.5 58.5t-88.5 21.5q-50 0 -95 -14t-89 -46l-19 37q90 62 204 62q77 0 119 -32t42 -84q0 -51 -28 -83.5
t-71 -45.5q37 -10 58.5 -38.5t21.5 -64.5q0 -82 -58.5 -117t-153.5 -35z" />
    <glyph glyph-name="uni0438" unicode="&#x438;" horiz-adv-x="566" 
d="M50 0l77 484h39l-66 -417l378 417h38l-77 -484h-39l66 417l-378 -417h-38z" />
    <glyph glyph-name="uni0439" unicode="&#x439;" horiz-adv-x="566" 
d="M50 0l77 484h39l-66 -417l378 417h38l-77 -484h-39l66 417l-378 -417h-38zM333 547q-31 0 -62 12t-55.5 39.5t-36.5 72.5l33 14q14 -52 45.5 -77t76.5 -25q46 0 78 21.5t64 79.5l32 -13q-35 -73 -81.5 -98.5t-93.5 -25.5z" />
    <glyph glyph-name="uni043A" unicode="&#x43a;" horiz-adv-x="497" 
d="M50 0l77 484h42l-34 -215h105l209 215h52l-215 -222q25 -9 48 -33t46 -73l72 -156h-43l-69 150q-22 50 -49 66.5t-71 16.5h-91l-37 -233h-42z" />
    <glyph glyph-name="uni043B" unicode="&#x43b;" horiz-adv-x="554" 
d="M5 -9l-14 35q39 16 67 41t48 65.5t35.5 101.5t29.5 149l16 101h317l-77 -484h-42l71 448h-234l-10 -66q-15 -97 -32 -164t-40.5 -111t-56.5 -71t-78 -45z" />
    <glyph glyph-name="uni043C" unicode="&#x43c;" horiz-adv-x="636" 
d="M50 0l77 484h34l139 -358l250 358h36l-77 -484h-38l62 395l-226 -318h-26l-129 325l-64 -402h-38z" />
    <glyph glyph-name="uni043D" unicode="&#x43d;" horiz-adv-x="568" 
d="M50 0l77 484h42l-34 -215h307l34 215h42l-77 -484h-42l37 232h-307l-37 -232h-42z" />
    <glyph glyph-name="uni043E" unicode="&#x43e;" horiz-adv-x="544" 
d="M248 -8q-89 0 -141.5 55.5t-52.5 152.5q0 77 28 143.5t82 107.5t132 41q89 0 141.5 -55t52.5 -153q0 -77 -28 -143.5t-81.5 -107.5t-132.5 -41zM250 31q64 0 108 35t66.5 93t22.5 127q0 83 -40.5 125t-112.5 42q-64 0 -108 -35t-66.5 -92.5t-22.5 -127.5
q0 -82 40.5 -124.5t112.5 -42.5z" />
    <glyph glyph-name="uni043F" unicode="&#x43f;" horiz-adv-x="565" 
d="M50 0l77 484h388l-77 -484h-42l71 448h-304l-71 -448h-42z" />
    <glyph glyph-name="uni0440" unicode="&#x440;" horiz-adv-x="574" 
d="M21 -180l105 664h42l-13 -85q27 43 72 68t103 25q86 0 138 -55t52 -153q0 -77 -28 -143.5t-81.5 -107.5t-132.5 -41q-57 0 -103 28t-66 87l-46 -287h-42zM280 31q64 0 108 35t66.5 93t22.5 127q0 83 -40.5 125t-112.5 42q-64 0 -108 -35t-66.5 -92.5t-22.5 -127.5
q0 -82 40.5 -124.5t112.5 -42.5z" />
    <glyph glyph-name="uni0441" unicode="&#x441;" horiz-adv-x="461" 
d="M251 -8q-100 0 -148 58.5t-48 151.5q0 53 14 104.5t43.5 93.5t76 67t111.5 25q48 0 90.5 -17.5t67.5 -46.5l-21 -32q-54 57 -139 57q-53 0 -91 -21.5t-62 -58t-35.5 -81t-11.5 -90.5q0 -78 36.5 -124.5t118.5 -46.5q33 0 69 13.5t67 42.5l19 -34q-29 -28 -72 -44.5
t-85 -16.5z" />
    <glyph glyph-name="uni0442" unicode="&#x442;" horiz-adv-x="418" 
d="M149 0l71 447h-185l6 37h412l-6 -37h-185l-71 -447h-42z" />
    <glyph glyph-name="uni0443" unicode="&#x443;" horiz-adv-x="510" 
d="M89 -180l103 177l-129 487h44l112 -440l255 440h50l-389 -664h-46z" />
    <glyph glyph-name="uni0444" unicode="&#x444;" horiz-adv-x="756" 
d="M302 -180l41 259q-22 -46 -54 -66.5t-76 -20.5q-68 0 -113 55.5t-45 152.5q0 77 23 143.5t66 107.5t104 41q44 0 76 -23.5t47 -67.5l48 304h42l-48 -300q22 46 54 66.5t76 20.5q68 0 113 -55t45 -153q0 -77 -23 -143.5t-66 -107.5t-104 -41q-44 0 -76 23.5t-47 66.5
l-41 -262h-42zM508 30q49 0 82.5 35t51 94t17.5 129q0 46 -14 83.5t-40 60.5t-62 23q-56 0 -89 -35t-47 -93.5t-14 -128.5q0 -82 31.5 -125t83.5 -43zM213 29q56 0 89 35t47 93.5t14 128.5q0 83 -31 125.5t-84 42.5q-48 0 -82 -35t-51.5 -93.5t-17.5 -129.5q0 -45 14 -83
t40 -61t62 -23z" />
    <glyph glyph-name="uni0445" unicode="&#x445;" horiz-adv-x="512" 
d="M-6 0l239 250l-151 234h47l133 -207l192 207h54l-224 -238l158 -246h-47l-140 219l-208 -219h-53z" />
    <glyph glyph-name="uni0446" unicode="&#x446;" horiz-adv-x="575" 
d="M444 -130l20 130h-414l77 484h42l-71 -448h294l71 448h42l-71 -448h74l-26 -166h-38z" />
    <glyph glyph-name="uni0447" unicode="&#x447;" horiz-adv-x="532" 
d="M363 0l34 214q-32 -20 -67 -30.5t-77 -10.5q-96 0 -139 48.5t-28 142.5l19 120h42l-19 -119q-13 -79 18 -116t108 -37q44 0 79 10t71 33l36 229h42l-77 -484h-42z" />
    <glyph glyph-name="uni0448" unicode="&#x448;" horiz-adv-x="770" 
d="M50 0l77 484h42l-71 -448h234l71 448h42l-71 -448h233l71 448h42l-77 -484h-593z" />
    <glyph glyph-name="uni0449" unicode="&#x449;" horiz-adv-x="790" 
d="M659 -130l20 130h-629l77 484h42l-71 -448h234l71 448h42l-71 -448h233l71 448h42l-71 -448h74l-26 -166h-38z" />
    <glyph glyph-name="uni044A" unicode="&#x44a;" horiz-adv-x="598" 
d="M124 0l71 447h-160l6 37h202l-29 -184h160q79 0 121 -37.5t42 -103.5q0 -73 -49 -116t-140 -43h-224zM172 36h174q74 0 110.5 32t36.5 90q0 56 -32.5 81t-92.5 25h-160z" />
    <glyph glyph-name="uni044B" unicode="&#x44b;" horiz-adv-x="689" 
d="M50 0l77 484h42l-29 -184h159q79 0 121 -37.5t42 -103.5q0 -73 -49 -116t-140 -43h-223zM520 0l77 484h42l-77 -484h-42zM98 36h173q74 0 110.5 32t36.5 90q0 56 -32.5 81t-92.5 25h-159z" />
    <glyph glyph-name="uni044C" unicode="&#x44c;" horiz-adv-x="523" 
d="M50 0l77 484h42l-29 -184h159q79 0 121 -37.5t42 -103.5q0 -73 -49 -116t-140 -43h-223zM98 36h173q74 0 110.5 32t36.5 90q0 56 -32.5 81t-92.5 25h-159z" />
    <glyph glyph-name="uni044D" unicode="&#x44d;" horiz-adv-x="471" 
d="M171 -8q-52 0 -95 18t-68 46l21 32q28 -29 62.5 -43t81.5 -14q61 0 102 28t64 73.5t30 97.5h-259l5 36h258q3 84 -32.5 135.5t-122.5 51.5q-37 0 -73.5 -13.5t-67.5 -42.5l-19 34q29 29 72.5 45t89.5 16q101 0 148.5 -58.5t47.5 -151.5q0 -53 -14 -104.5t-43.5 -93.5
t-76 -67t-111.5 -25z" />
    <glyph glyph-name="uni044E" unicode="&#x44e;" horiz-adv-x="727" 
d="M431 -8q-69 0 -114 31.5t-65 86.5t-14 123h-110l-37 -233h-41l77 484h41l-34 -215h109q11 62 41.5 112.5t79.5 80.5t115 30q89 0 141.5 -55t52.5 -153q0 -77 -28 -143.5t-81.5 -107.5t-132.5 -41zM433 31q64 0 108 35t66.5 93t22.5 127q0 83 -40.5 125t-112.5 42
q-64 0 -108 -35t-66.5 -92.5t-22.5 -127.5q0 -82 40.5 -124.5t112.5 -42.5z" />
    <glyph glyph-name="uni044F" unicode="&#x44f;" horiz-adv-x="520" 
d="M12 0l94 134q18 26 43 45t49 26q-53 8 -83 42.5t-30 88.5q0 62 46 105t131 43h208l-77 -484h-42l32 200h-91q-49 0 -86 -23.5t-61 -58.5l-82 -118h-51zM243 237h146l33 211h-158q-68 0 -102 -30t-34 -83q0 -51 30 -74.5t85 -23.5z" />
    <glyph glyph-name="uni0450" unicode="&#x450;" horiz-adv-x="529" 
d="M264 -8q-98 0 -154 55.5t-56 152.5q0 77 29 143.5t85 107.5t136 41q73 0 115 -35t56.5 -90t4.5 -115l-3 -18h-379q-11 -91 32.5 -147t131.5 -56q48 0 88 14t74 47l22 -31q-32 -34 -82 -51.5t-100 -17.5zM303 454q-62 0 -103 -27t-64 -69t-32 -87h339q6 51 -6 92.5t-45 66
t-89 24.5zM298 549l-140 200h53l123 -200h-36z" />
    <glyph glyph-name="uni0451" unicode="&#x451;" horiz-adv-x="529" 
d="M264 -8q-98 0 -154 55.5t-56 152.5q0 77 29 143.5t85 107.5t136 41q73 0 115 -35t56.5 -90t4.5 -115l-3 -18h-379q-11 -91 32.5 -147t131.5 -56q48 0 88 14t74 47l22 -31q-32 -34 -82 -51.5t-100 -17.5zM303 454q-62 0 -103 -27t-64 -69t-32 -87h339q6 51 -6 92.5t-45 66
t-89 24.5zM380 620l9 60h61l-9 -60h-61zM219 620l9 60h61l-9 -60h-61z" />
    <glyph glyph-name="uni0452" unicode="&#x452;" horiz-adv-x="559" 
d="M237 -185l-9 37q60 13 94 37.5t51.5 62.5t25.5 90l40 254q25 157 -106 157q-86 0 -135.5 -51.5t-63.5 -137.5l-42 -264h-42l89 562h-95l6 36h95l17 107h42l-17 -107h197l-6 -36h-197l-26 -164q28 45 73.5 69.5t105.5 24.5q81 0 122 -48.5t25 -148.5l-40 -250
q-10 -63 -31 -109.5t-62 -76.5t-111 -44z" />
    <glyph glyph-name="uni0453" unicode="&#x453;" horiz-adv-x="415" 
d="M50 0l77 484h314l-6 -37h-272l-71 -447h-42zM262 549l135 200h55l-154 -200h-36z" />
    <glyph glyph-name="uni0454" unicode="&#x454;" horiz-adv-x="471" 
d="M251 -8q-100 0 -148 58.5t-48 151.5q0 53 14 104.5t43.5 93.5t76 67t111.5 25q56 0 99.5 -17.5t68.5 -46.5l-21 -32q-28 29 -63 43t-86 14q-59 0 -99 -26t-63.5 -68.5t-31.5 -92.5h258l-5 -36h-258q-6 -90 29 -144.5t125 -54.5q41 0 78 13.5t68 42.5l19 -34
q-29 -28 -73 -44.5t-94 -16.5z" />
    <glyph glyph-name="uni0455" unicode="&#x455;" horiz-adv-x="481" 
d="M223 -8q-56 0 -103.5 16.5t-76.5 44.5l23 33q35 -30 74.5 -42.5t85.5 -12.5q60 0 95.5 25t35.5 72q0 30 -19.5 50t-54.5 29l-97 26q-45 12 -72 43t-27 74q0 63 50.5 102.5t130.5 39.5q51 0 95.5 -18t67.5 -48l-21 -32q-53 59 -143 59q-61 0 -98.5 -27.5t-37.5 -74.5
q0 -29 17.5 -50t53.5 -31l97 -26q47 -13 74.5 -41t27.5 -72q0 -64 -49 -101.5t-129 -37.5z" />
    <glyph glyph-name="uni0456" unicode="&#x456;" horiz-adv-x="218" 
d="M137 619l10 63h64l-10 -63h-64zM49 0l77 484h42l-77 -484h-42z" />
    <glyph glyph-name="uni0457" unicode="&#x457;" horiz-adv-x="218" 
d="M50 0l76 484h42l-76 -484h-42zM221 620l9 60h61l-9 -60h-61zM60 620l9 60h61l-9 -60h-61z" />
    <glyph glyph-name="uni0458" unicode="&#x458;" horiz-adv-x="221" 
d="M140 619l10 63h64l-10 -63h-64zM-116 -193l-2 38l41 3q106 8 126 130l80 506h42l-81 -510q-12 -77 -55 -118t-108 -46z" />
    <glyph glyph-name="uni0459" unicode="&#x459;" horiz-adv-x="859" 
d="M5 -9l-14 35q39 16 67 41t48 65.5t35.5 101.5t29.5 149l16 101h317l-29 -184h160q79 0 121 -37.5t42 -103.5q0 -73 -49 -116t-140 -43h-224l71 448h-234l-10 -66q-15 -97 -32 -164t-40.5 -111t-56.5 -71t-78 -45zM433 36h174q74 0 110.5 32t36.5 90q0 56 -32.5 81
t-92.5 25h-160z" />
    <glyph glyph-name="uni045A" unicode="&#x45a;" horiz-adv-x="873" 
d="M50 0l77 484h42l-34 -215h307l34 215h42l-29 -184h160q79 0 121 -37.5t42 -103.5q0 -73 -49 -116t-140 -43h-224l37 232h-307l-37 -232h-42zM447 36h174q74 0 110.5 32t36.5 90q0 56 -32.5 81t-92.5 25h-160z" />
    <glyph glyph-name="uni045B" unicode="&#x45b;" horiz-adv-x="559" 
d="M50 0l89 562h-95l6 36h95l17 107h42l-17 -107h197l-6 -36h-197l-26 -164q28 45 73.5 69.5t105.5 24.5q81 0 122 -48.5t25 -148.5l-47 -295h-42l47 296q25 157 -106 157q-86 0 -135.5 -51.5t-63.5 -137.5l-42 -264h-42z" />
    <glyph glyph-name="uni045C" unicode="&#x45c;" horiz-adv-x="497" 
d="M50 0l77 484h42l-34 -215h105l209 215h52l-215 -222q25 -9 48 -33t46 -73l72 -156h-43l-69 150q-22 50 -49 66.5t-71 16.5h-91l-37 -233h-42zM289 549l135 200h55l-154 -200h-36z" />
    <glyph glyph-name="uni045D" unicode="&#x45d;" horiz-adv-x="566" 
d="M50 0l77 484h39l-66 -417l378 417h38l-77 -484h-39l66 417l-378 -417h-38zM310 549l-140 200h53l123 -200h-36z" />
    <glyph glyph-name="uni045E" unicode="&#x45e;" horiz-adv-x="510" 
d="M89 -180l103 177l-129 487h44l112 -440l255 440h50l-389 -664h-46zM296 547q-31 0 -62 12t-55.5 39.5t-36.5 72.5l33 14q14 -52 45.5 -77t76.5 -25q46 0 78 21.5t64 79.5l32 -13q-35 -73 -81.5 -98.5t-93.5 -25.5z" />
    <glyph glyph-name="uni045F" unicode="&#x45f;" horiz-adv-x="565" 
d="M206 -130l20 130h-176l77 484h42l-71 -448h304l71 448h42l-77 -484h-174l-20 -130h-38z" />
    <glyph glyph-name="uni0462" unicode="&#x462;" horiz-adv-x="707" 
d="M116 0l87 548h-174l6 39h174l19 118h42l-19 -118h240l-6 -39h-240l-27 -169h219q103 0 155.5 -46t52.5 -124q0 -104 -62 -156.5t-180 -52.5h-287zM164 39h243q194 0 194 169q0 65 -42.5 98.5t-122.5 33.5h-224z" />
    <glyph glyph-name="uni0463" unicode="&#x463;" horiz-adv-x="598" 
d="M125 0l71 448h-160l6 36h160l35 221h42l-35 -221h160l-6 -36h-160l-23 -148h159q79 0 121 -37.5t42 -103.5q0 -73 -49 -116t-140 -43h-223zM173 36h173q74 0 110.5 32t36.5 90q0 56 -32.5 81t-92.5 25h-159z" />
    <glyph glyph-name="uni046A" unicode="&#x46a;" horiz-adv-x="908" 
d="M-21 0l153 239q46 71 97.5 105t121.5 34h74l-230 327h664l-334 -327h71q70 0 114 -38.5t64 -100.5l79 -239h-43l-68 210q-22 70 -60.5 99.5t-97.5 29.5h-94l-54 -339h-42l54 339h-92q-61 0 -106.5 -30.5t-89.5 -98.5l-134 -210h-47zM472 382h2l286 284h-486z" />
    <glyph glyph-name="uni046B" unicode="&#x46b;" horiz-adv-x="748" 
d="M-31 0l122 156q34 43 58.5 67.5t52.5 35t72 10.5h65l-153 215h452l-221 -215h67q51 0 84 -24t63 -89l72 -156h-43l-69 150q-22 50 -50 66.5t-78 16.5h-70l-37 -233h-42l37 233h-71q-33 0 -56 -7t-43.5 -25t-46.5 -51l-117 -150h-48zM376 283h2l167 165h-283z" />
    <glyph glyph-name="uni0472" unicode="&#x472;" horiz-adv-x="751" 
d="M357 -8q-126 0 -200.5 76t-74.5 221q0 89 22 166t66 135t109 90.5t150 32.5q126 0 200.5 -76t74.5 -221q0 -89 -22 -166t-66 -135t-108.5 -90.5t-150.5 -32.5zM426 672q-83 0 -144.5 -37.5t-98.5 -104.5t-50 -153h525q1 19 1 39q0 130 -61.5 193t-171.5 63zM359 33
q86 0 148 39.5t99 108.5t48 158h-525q-2 -24 -2 -50q0 -130 61.5 -193t170.5 -63z" />
    <glyph glyph-name="uni0473" unicode="&#x473;" horiz-adv-x="544" 
d="M248 -8q-89 0 -141.5 55.5t-52.5 152.5q0 77 28 143.5t82 107.5t132 41q89 0 141.5 -55t52.5 -153q0 -77 -28 -143.5t-81.5 -107.5t-132.5 -41zM294 453q-54 0 -94 -25.5t-64.5 -69t-33.5 -98.5h344q1 13 1 26q0 83 -40.5 125t-112.5 42zM250 31q54 0 94 25.5t64.5 69
t33.5 98.5h-344q-1 -13 -1 -26q0 -82 40.5 -124.5t112.5 -42.5z" />
    <glyph glyph-name="uni0474" unicode="&#x474;" horiz-adv-x="719" 
d="M271 0l-190 705h43l176 -652l275 480q39 68 72 107.5t73.5 56t99.5 16.5l3 -37q-44 0 -77 -12.5t-62 -43.5t-62 -88l-306 -532h-45z" />
    <glyph glyph-name="uni0475" unicode="&#x475;" horiz-adv-x="530" 
d="M192 0l-129 484h46l112 -440l195 340q35 61 71 84.5t94 23.5l4 -35q-32 -1 -54.5 -10t-40.5 -29t-38 -55l-212 -363h-48z" />
    <glyph glyph-name="uni048A" unicode="&#x48a;" horiz-adv-x="742" 
d="M443 760q-35 0 -69.5 12t-61.5 39.5t-41 72.5l34 14q34 -102 138 -102q53 0 90.5 21.5t75.5 79.5l31 -13q-40 -73 -92 -98.5t-105 -25.5zM573 -150l74 150h-89l100 630l-566 -630h-34l112 705h39l-100 -628l565 628h35l-106 -666h103l-93 -189h-40z" />
    <glyph glyph-name="uni048B" unicode="&#x48b;" horiz-adv-x="586" 
d="M333 547q-31 0 -62 12t-55.5 39.5t-36.5 72.5l33 14q14 -52 45.5 -77t76.5 -25q46 0 78 21.5t64 79.5l32 -13q-35 -73 -81.5 -98.5t-93.5 -25.5zM50 0l77 484h39l-66 -417l378 417h38l-71 -447h78l-86 -167h-39l67 130h-65l66 417l-378 -417h-38z" />
    <glyph glyph-name="uni048C" unicode="&#x48c;" horiz-adv-x="697" 
d="M106 0l87 548h-144l6 39h144l19 118h42l-19 -118h144l-6 -39h-144l-27 -169h219q103 0 155.5 -46t52.5 -124q0 -104 -62 -156.5t-180 -52.5h-287zM154 39h243q194 0 194 169q0 65 -42.5 98.5t-122.5 33.5h-224z" />
    <glyph glyph-name="uni048D" unicode="&#x48d;" horiz-adv-x="598" 
d="M125 0l71 448h-160l6 36h160l35 221h42l-35 -221h160l-6 -36h-160l-23 -148h159q79 0 121 -37.5t42 -103.5q0 -73 -49 -116t-140 -43h-223zM173 36h173q74 0 110.5 32t36.5 90q0 56 -32.5 81t-92.5 25h-159z" />
    <glyph glyph-name="uni048E" unicode="&#x48e;" horiz-adv-x="616" 
d="M58 0l112 705h237q100 0 157 -45.5t57 -138.5q0 -79 -39 -134.5t-112 -76.5l48 -74l-30 -21l-58 86q-14 -2 -29 -3t-31 -1h-223l-47 -297h-42zM154 336h220q8 0 16.5 0.5t15.5 1.5l-54 82l32 21l64 -97q129 31 129 176q0 76 -43.5 111t-126.5 35h-201z" />
    <glyph glyph-name="uni048F" unicode="&#x48f;" horiz-adv-x="574" 
d="M21 -180l105 664h42l-13 -83q28 43 72 67t102 24q86 0 138 -55.5t52 -150.5q0 -72 -23.5 -135t-69.5 -104l51 -64l-26 -19l-49 64q-26 -17 -57.5 -26.5t-67.5 -9.5q-57 0 -102.5 27.5t-66.5 85.5l-45 -285h-42zM279 31q57 0 98 28l-43 54l26 19l41 -53q37 35 56 89.5
t19 117.5q0 83 -40.5 125t-112.5 42q-64 0 -108 -35t-66.5 -92.5t-22.5 -127.5q0 -82 40.5 -124.5t112.5 -42.5z" />
    <glyph glyph-name="uni0490" unicode="&#x490;" horiz-adv-x="527" 
d="M58 0l112 705h377l24 150h40l-30 -189h-375l-106 -666h-42z" />
    <glyph glyph-name="uni0491" unicode="&#x491;" horiz-adv-x="415" 
d="M50 0l77 484h276l19 118h38l-25 -155h-272l-71 -447h-42z" />
    <glyph glyph-name="uni0492" unicode="&#x492;" horiz-adv-x="558" 
d="M88 0l54 338h-100l6 38h100l52 329h418l-6 -39h-376l-46 -290h190l-6 -38h-190l-54 -338h-42z" />
    <glyph glyph-name="uni0493" unicode="&#x493;" horiz-adv-x="432" 
d="M66 0l36 225h-100l6 37h100l35 222h315l-6 -37h-273l-29 -185h150l-6 -37h-150l-36 -225h-42z" />
    <glyph glyph-name="uni0494" unicode="&#x494;" horiz-adv-x="641" 
d="M329 -188q-33 0 -61.5 6t-46.5 15l12 37q38 -19 95 -19q71 0 116 47.5t60 143.5l16 98q21 128 -23.5 188t-151.5 60q-51 0 -98.5 -10.5t-92.5 -36.5l-54 -341h-42l112 705h430l-6 -39h-388l-44 -279q38 21 85 31.5t98 10.5q127 0 183 -71.5t34 -211.5l-16 -103
q-36 -231 -217 -231z" />
    <glyph glyph-name="uni0495" unicode="&#x495;" horiz-adv-x="529" 
d="M242 -185l-9 37q60 13 94 37.5t51.5 62.5t25.5 90l13 85q12 80 -14 118.5t-94 38.5q-86 0 -137 -51.5t-65 -137.5l-15 -95h-42l77 484h308l-6 -37h-266l-35 -218q28 44 74.5 69t107.5 25q83 0 124 -49t25 -148l-13 -81q-10 -63 -31 -109.5t-62 -76.5t-111 -44z" />
    <glyph glyph-name="uni0496" unicode="&#x496;" horiz-adv-x="928" 
d="M-21 0l153 239q36 57 78.5 91t93.5 43l-174 332h44l171 -327h119l52 327h42l-52 -327h113l274 327h52l-281 -334q45 -12 79 -45.5t51 -86.5l66 -200h75l-30 -189h-40l23 150h-58l-68 210q-22 70 -60.5 99.5t-97.5 29.5h-104l-54 -339h-42l54 339h-102q-61 0 -106.5 -30.5
t-89.5 -98.5l-134 -210h-47z" />
    <glyph glyph-name="uni0497" unicode="&#x497;" horiz-adv-x="787" 
d="M-31 0l122 156q30 38 51 59.5t38.5 32t36.5 15.5l-145 221h46l141 -215h98l34 215h42l-34 -215h92l209 215h52l-215 -222q32 -11 53 -37t41 -69l55 -119h52l-26 -167h-38l20 130h-34l-69 150q-22 50 -49 66.5t-71 16.5h-78l-37 -233h-42l37 233h-71q-33 0 -56 -7
t-43.5 -25t-46.5 -51l-117 -150h-48z" />
    <glyph glyph-name="uni0498" unicode="&#x498;" horiz-adv-x="645" 
d="M244 -150l22 143q-74 5 -131 27t-107 65l23 35q59 -51 120.5 -69t139.5 -18q57 0 105 16t77 53.5t29 101.5q0 66 -42 99.5t-122 33.5h-171l6 39h172q89 0 141.5 43t52.5 124q0 46 -24 74t-64 41.5t-89 13.5q-65 0 -130 -21.5t-117 -66.5l-21 36q55 47 126.5 70t141.5 23
q60 0 110 -18t80.5 -55t30.5 -95q0 -74 -39.5 -122.5t-107.5 -66.5q51 -17 80.5 -57t29.5 -96q0 -76 -35.5 -122.5t-94.5 -67.5t-130 -21l-22 -142h-40z" />
    <glyph glyph-name="uni0499" unicode="&#x499;" horiz-adv-x="477" 
d="M167 -130l19 122q-58 2 -105 19t-71 47l21 36q29 -33 70.5 -48t93.5 -15q77 0 122 25t45 87q0 38 -27.5 61.5t-78.5 23.5h-101l6 36h93q55 0 91.5 29t36.5 80q0 37 -30.5 58.5t-88.5 21.5q-50 0 -95 -14t-89 -46l-19 37q90 62 204 62q77 0 119 -32t42 -84
q0 -51 -28 -83.5t-72 -45.5q37 -10 59 -38t22 -65q0 -75 -49 -110.5t-131 -40.5l-19 -123h-40z" />
    <glyph glyph-name="uni049A" unicode="&#x49a;" horiz-adv-x="631" 
d="M58 0l112 705h42l-52 -327h142l274 327h52l-281 -334q45 -12 79 -45.5t51 -86.5l66 -200h74l-30 -189h-40l23 150h-57l-68 210q-22 70 -60.5 99.5t-97.5 29.5h-133l-54 -339h-42z" />
    <glyph glyph-name="uni049B" unicode="&#x49b;" horiz-adv-x="531" 
d="M50 0l77 484h42l-34 -215h105l209 215h52l-215 -222q25 -9 48 -33t46 -73l55 -119h52l-26 -167h-38l20 130h-34l-69 150q-22 50 -49 66.5t-71 16.5h-91l-37 -233h-42z" />
    <glyph glyph-name="uni049C" unicode="&#x49c;" horiz-adv-x="621" 
d="M58 0l112 705h42l-52 -327h81l27 171h36l-27 -171h34l275 327h52l-281 -334q45 -12 79 -45.5t51 -86.5l79 -239h-43l-68 210q-22 70 -60.5 99.5t-97.5 29.5h-26l-27 -171h-36l27 171h-81l-54 -339h-42z" />
    <glyph glyph-name="uni049D" unicode="&#x49d;" horiz-adv-x="497" 
d="M50 0l77 484h42l-34 -215h60l18 115h36l-18 -115h9l209 215h52l-215 -222q25 -9 48 -33t46 -73l72 -156h-43l-69 150q-22 50 -48.5 66.5t-66.5 16.5l-19 -123h-36l20 123h-61l-37 -233h-42z" />
    <glyph glyph-name="uni049E" unicode="&#x49e;" horiz-adv-x="632" 
d="M89 0l87 549h-140l6 38h140l19 118h42l-19 -118h140l-6 -38h-140l-27 -171h132l274 327h52l-281 -334q45 -12 79 -45.5t51 -86.5l79 -239h-43l-68 210q-22 70 -60.5 99.5t-97.5 29.5h-123l-54 -339h-42z" />
    <glyph glyph-name="uni049F" unicode="&#x49f;" horiz-adv-x="497" 
d="M49 0l89 562h-94l6 36h95l17 107h42l-17 -107h197l-6 -36h-198l-46 -293h106l209 215h52l-215 -222q25 -9 48 -33t46 -73l72 -156h-43l-69 150q-22 50 -49 66.5t-71 16.5h-92l-37 -233h-42z" />
    <glyph glyph-name="uni04A0" unicode="&#x4a0;" horiz-adv-x="738" 
d="M185 0l106 667h-221l6 38h263l-52 -327h142l274 327h52l-281 -334q45 -12 79 -45.5t51 -86.5l79 -239h-43l-68 210q-22 70 -60.5 99.5t-97.5 29.5h-133l-54 -339h-42z" />
    <glyph glyph-name="uni04A1" unicode="&#x4a1;" horiz-adv-x="572" 
d="M125 0l71 447h-161l6 37h203l-34 -215h106l208 215h52l-214 -222q25 -9 47.5 -33t45.5 -73l72 -156h-43l-69 150q-22 50 -48.5 66.5t-70.5 16.5h-92l-37 -233h-42z" />
    <glyph glyph-name="uni04A2" unicode="&#x4a2;" horiz-adv-x="785" 
d="M58 0l112 705h42l-52 -328h474l52 328h42l-106 -666h101l-31 -189h-40l24 150h-102l54 338h-474l-54 -338h-42z" />
    <glyph glyph-name="uni04A3" unicode="&#x4a3;" horiz-adv-x="588" 
d="M454 -130l21 130h-76l37 232h-307l-37 -232h-42l77 484h42l-34 -215h307l34 215h42l-71 -447h72l-27 -167h-38z" />
    <glyph glyph-name="uni04A4" unicode="&#x4a4;" horiz-adv-x="927" 
d="M58 0l112 705h42l-52 -328h474l52 328h311l-6 -39h-269l-106 -666h-42l54 338h-474l-54 -338h-42z" />
    <glyph glyph-name="uni04A5" unicode="&#x4a5;" horiz-adv-x="727" 
d="M50 0l77 484h42l-34 -215h307l34 215h277l-6 -37h-235l-71 -447h-42l37 232h-307l-37 -232h-42z" />
    <glyph glyph-name="uni04A8" unicode="&#x4a8;" horiz-adv-x="780" 
d="M363 -8q-81 0 -144.5 34t-100 100.5t-36.5 162.5q0 128 43 223.5t122 148t186 52.5q20 0 44.5 -3.5t37.5 -9.5l-10 -38q-16 5 -36.5 7.5t-38.5 2.5q-93 0 -161 -46.5t-105 -132.5t-37 -204q0 -86 30.5 -143t84 -85t124.5 -28q48 0 91 14q-49 37 -77 94.5t-28 127.5
q0 76 24 141t71.5 105t117.5 40t110.5 -45.5t40.5 -123.5q0 -108 -46 -199t-126 -142q36 -12 79 -12q72 0 128 28l12 -38q-27 -16 -60 -23.5t-77 -7.5q-69 0 -127 29q-31 -14 -65 -21.5t-71 -7.5zM396 275q0 -73 27.5 -127t76.5 -84q56 29 94 78.5t58 112t20 129.5
q0 62 -27.5 96t-80.5 34q-57 0 -94 -35t-55.5 -89.5t-18.5 -114.5z" />
    <glyph glyph-name="uni04A9" unicode="&#x4a9;" horiz-adv-x="591" 
d="M253 -8q-94 0 -146 57t-52 153q0 53 14 104.5t43 93.5t74.5 67t108.5 25q32 0 65 -9t48 -22l-15 -35q-37 27 -100 27q-51 0 -88 -21.5t-60.5 -58t-35 -81t-11.5 -90.5q0 -82 41.5 -127t118.5 -45q36 0 69 9q-33 28 -52 68.5t-19 85.5q0 80 42 128.5t112 48.5
q52 0 83 -36.5t31 -90.5q0 -65 -31.5 -118.5t-84.5 -87.5q25 -7 54 -7q28 0 49 6t45 17l14 -35q-52 -26 -113 -26q-50 0 -93 22q-53 -22 -111 -22zM298 192q0 -43 18 -79.5t52 -57.5q53 27 83 77t30 113q0 40 -20 63.5t-55 23.5q-51 0 -79.5 -39.5t-28.5 -100.5z" />
    <glyph glyph-name="uni04AA" unicode="&#x4aa;" horiz-adv-x="667" 
d="M288 -150l22 146q-103 16 -165 91.5t-62 217.5q0 87 24.5 161.5t70.5 129.5t110.5 86t145.5 31q74 0 132 -25t97 -70l-25 -35q-41 46 -90.5 67.5t-116.5 21.5q-93 0 -161 -47.5t-105 -130.5t-37 -190q0 -97 30 -157t85 -87t129 -27q62 0 110.5 21t97.5 67l24 -34
q-97 -95 -233 -95q-11 0 -21 1l-22 -143h-40z" />
    <glyph glyph-name="uni04AB" unicode="&#x4ab;" horiz-adv-x="461" 
d="M197 -130l19 124q-82 10 -121.5 66.5t-39.5 141.5q0 53 14 104.5t43.5 93.5t76 67t111.5 25q48 0 90.5 -17.5t67.5 -46.5l-21 -32q-54 57 -139 57q-53 0 -91 -21.5t-62 -58t-35.5 -81t-11.5 -90.5q0 -78 36.5 -124.5t118.5 -46.5q33 0 69 13.5t67 42.5l19 -34
q-29 -28 -71.5 -44.5t-80.5 -16.5l-19 -122h-40z" />
    <glyph glyph-name="uni04AC" unicode="&#x4ac;" horiz-adv-x="566" 
d="M302 -150l24 150h-102l105 666h-259l6 39h560l-6 -39h-259l-99 -627h100l-30 -189h-40z" />
    <glyph glyph-name="uni04AD" unicode="&#x4ad;" horiz-adv-x="418" 
d="M204 -130l21 130h-76l71 447h-185l6 37h412l-6 -37h-185l-65 -410h72l-27 -167h-38z" />
    <glyph glyph-name="uni04AE" unicode="&#x4ae;" horiz-adv-x="577" 
d="M228 0l54 342l-210 363h45l189 -326l293 326h52l-327 -362l-54 -343h-42z" />
    <glyph glyph-name="uni04AF" unicode="&#x4af;" horiz-adv-x="510" 
d="M167 -180l27 173l-131 491h46l112 -440l253 440h49l-287 -491l-27 -173h-42z" />
    <glyph glyph-name="uni04B0" unicode="&#x4b0;" horiz-adv-x="577" 
d="M228 0l54 342l-210 363h45l189 -326l293 326h52l-327 -362l-54 -343h-42zM112 307l5 36h372l-5 -36h-372z" />
    <glyph glyph-name="uni04B1" unicode="&#x4b1;" horiz-adv-x="510" 
d="M167 -180l23 144h-118l6 36h115l-130 484h46l112 -440l253 440h49l-283 -484h116l-6 -36h-118l-23 -144h-42z" />
    <glyph glyph-name="uni04B2" unicode="&#x4b2;" horiz-adv-x="651" 
d="M-14 0l325 364l-197 341h46l179 -311l274 311h53l-305 -345l185 -321h66l-30 -189h-40l23 150h-42l-191 329l-293 -329h-53z" />
    <glyph glyph-name="uni04B3" unicode="&#x4b3;" horiz-adv-x="519" 
d="M-6 0l239 250l-151 234h47l133 -207l192 207h54l-224 -238l134 -209h55l-26 -167h-38l20 130h-34l-140 219l-208 -219h-53z" />
    <glyph glyph-name="uni04B4" unicode="&#x4b4;" horiz-adv-x="900" 
d="M775 -150l23 150h-614l106 666h-220l6 39h482l-6 -39h-220l-99 -627h470l105 666h42l-105 -666h100l-30 -189h-40z" />
    <glyph glyph-name="uni04B5" unicode="&#x4b5;" horiz-adv-x="656" 
d="M525 -130l20 130h-421l71 447h-160l6 37h362l-6 -37h-160l-65 -411h301l71 448h42l-71 -448h74l-26 -166h-38z" />
    <glyph glyph-name="uni04B6" unicode="&#x4b6;" horiz-adv-x="691" 
d="M557 -150l24 150h-101l50 318q-39 -21 -91.5 -31.5t-104.5 -10.5q-130 0 -187 71.5t-35 211.5l23 146h42l-23 -140q-21 -127 24 -187.5t156 -60.5q52 0 105 10.5t99 36.5l54 341h42l-106 -666h100l-31 -189h-40z" />
    <glyph glyph-name="uni04B7" unicode="&#x4b7;" horiz-adv-x="552" 
d="M363 0l34 214q-32 -20 -67 -30.5t-77 -10.5q-96 0 -139 48.5t-28 142.5l19 120h42l-19 -119q-13 -79 18 -116t108 -37q44 0 79 10t71 33l36 229h42l-71 -447h73l-27 -167h-38l21 130h-77z" />
    <glyph glyph-name="uni04B8" unicode="&#x4b8;" horiz-adv-x="657" 
d="M480 0l50 318q-38 -20 -89 -30.5t-98 -11.5l-26 -161h-36l26 161q-116 8 -166 79t-29 204l23 146h42l-23 -140q-20 -122 20 -182t139 -66l29 181h36l-28 -181q48 1 96.5 12t91.5 35l54 341h42l-112 -705h-42z" />
    <glyph glyph-name="uni04B9" unicode="&#x4b9;" horiz-adv-x="532" 
d="M363 0l34 214q-60 -38 -130 -41l-16 -103h-36l17 103q-174 12 -146 191l19 120h42l-19 -119q-12 -77 15 -114t95 -39l20 129h36l-20 -129q37 2 67.5 12t62.5 31l36 229h42l-77 -484h-42z" />
    <glyph glyph-name="uni04BA" unicode="&#x4ba;" horiz-adv-x="657" 
d="M58 0l112 705h42l-50 -318q39 21 91.5 31.5t104.5 10.5q131 0 187.5 -71.5t34.5 -211.5l-23 -146h-42l23 140q21 128 -24 188t-156 60q-52 0 -104.5 -10.5t-99.5 -36.5l-54 -341h-42z" />
    <glyph glyph-name="uni04BB" unicode="&#x4bb;" horiz-adv-x="559" 
d="M50 0l112 705h42l-49 -307q28 45 73.5 69.5t105.5 24.5q81 0 122 -48.5t25 -148.5l-47 -295h-42l47 296q25 157 -106 157q-86 0 -135.5 -51.5t-63.5 -137.5l-42 -264h-42z" />
    <glyph glyph-name="uni04BC" unicode="&#x4bc;" horiz-adv-x="888" 
d="M507 -8q-91 0 -159 43t-102 119t-26 175h-11q-79 0 -117 37.5t-26 116.5l9 59h42l-9 -56q-10 -61 15.5 -89.5t83.5 -28.5h16q13 105 57.5 182.5t118.5 120t172 42.5q81 0 137.5 -30t88.5 -81t42.5 -115t0.5 -131l-4 -27h-571q-8 -88 20 -155t86 -104t143 -37q82 0 138 21
t108 61l21 -36q-52 -44 -123 -65.5t-151 -21.5zM565 672q-86 0 -148 -39t-99.5 -108t-48.5 -157h529q9 84 -10.5 153t-73.5 110t-149 41z" />
    <glyph glyph-name="uni04BD" unicode="&#x4bd;" horiz-adv-x="599" 
d="M362 -8q-108 0 -164 65t-44 177h-9q-59 0 -88 31.5t-20 87.5l6 37h40l-6 -39q-5 -36 10 -58t58 -22h14q11 62 43 112t82.5 79.5t117.5 29.5q73 0 115 -35t56.5 -90t4.5 -115l-3 -18h-378q-12 -91 31.5 -147t131.5 -56q48 0 88 14t74 47l22 -31q-32 -34 -82 -51.5
t-100 -17.5zM401 454q-62 0 -103 -27t-64 -69t-32 -87h339q6 51 -6 92.5t-45 66t-89 24.5z" />
    <glyph glyph-name="uni04BE" unicode="&#x4be;" horiz-adv-x="888" 
d="M507 -8q-91 0 -159 43t-102 119t-26 175h-11q-79 0 -117 37.5t-26 116.5l9 59h42l-9 -56q-10 -61 15.5 -89.5t83.5 -28.5h16q13 105 57.5 182.5t118.5 120t172 42.5q81 0 137.5 -30t88.5 -81t42.5 -115t0.5 -131l-4 -27h-571q-8 -88 20 -155t86 -104t143 -37q82 0 138 21
t108 61l21 -36q-52 -44 -123 -65.5t-151 -21.5zM565 672q-86 0 -148 -39t-99.5 -108t-48.5 -157h529q9 84 -10.5 153t-73.5 110t-149 41zM507 -190q-43 0 -66 24.5t-23 62.5q0 44 28.5 79.5t72.5 54.5l18 -31q-40 -16 -60 -43t-20 -56q0 -25 13.5 -40t41.5 -15q25 0 54 13
l9 -34q-10 -5 -29 -10t-39 -5z" />
    <glyph glyph-name="uni04BF" unicode="&#x4bf;" horiz-adv-x="599" 
d="M362 -8q-108 0 -164 65t-44 177h-9q-59 0 -88 31.5t-20 87.5l6 37h40l-6 -39q-5 -36 10 -58t58 -22h14q11 62 43 112t82.5 79.5t117.5 29.5q73 0 115 -35t56.5 -90t4.5 -115l-3 -18h-378q-12 -91 31.5 -147t131.5 -56q48 0 88 14t74 47l22 -31q-32 -34 -82 -51.5
t-100 -17.5zM401 454q-62 0 -103 -27t-64 -69t-32 -87h339q6 51 -6 92.5t-45 66t-89 24.5zM374 -190q-43 0 -66 24.5t-23 62.5q0 44 28.5 79.5t72.5 54.5l18 -31q-40 -16 -60 -43t-20 -56q0 -25 13.5 -40t41.5 -15q25 0 54 13l9 -34q-10 -5 -29 -10t-39 -5z" />
    <glyph glyph-name="uni04C0" unicode="&#x4c0;" horiz-adv-x="234" 
d="M58 0l112 705h42l-112 -705h-42z" />
    <glyph glyph-name="uni04C1" unicode="&#x4c1;" horiz-adv-x="928" 
d="M-21 0l153 239q36 57 78.5 91t93.5 43l-174 332h44l171 -327h119l52 327h42l-52 -327h113l274 327h52l-281 -334q45 -12 79 -45.5t51 -86.5l79 -239h-43l-68 210q-22 70 -60.5 99.5t-97.5 29.5h-104l-54 -339h-42l54 339h-102q-61 0 -106.5 -30.5t-89.5 -98.5l-134 -210
h-47zM541 760q-35 0 -69.5 12t-61.5 39.5t-41 72.5l34 14q34 -102 138 -102q53 0 90.5 21.5t75.5 79.5l31 -13q-40 -73 -92 -98.5t-105 -25.5z" />
    <glyph glyph-name="uni04C2" unicode="&#x4c2;" horiz-adv-x="748" 
d="M-31 0l122 156q30 38 51 59.5t38.5 32t36.5 15.5l-145 221h46l141 -215h98l34 215h42l-34 -215h92l209 215h52l-215 -222q32 -11 53 -37t41 -69l72 -156h-43l-69 150q-22 50 -49 66.5t-71 16.5h-78l-37 -233h-42l37 233h-71q-33 0 -56 -7t-43.5 -25t-46.5 -51l-117 -150
h-48zM425 547q-31 0 -62 12t-55.5 39.5t-36.5 72.5l33 14q14 -52 45.5 -77t76.5 -25q46 0 78 21.5t64 79.5l32 -13q-35 -73 -81.5 -98.5t-93.5 -25.5z" />
    <glyph glyph-name="uni04C3" unicode="&#x4c3;" horiz-adv-x="641" 
d="M331 -188q-33 0 -64.5 6t-41.5 15l10 37q38 -19 95 -19q145 0 176 191l8 48q22 132 -27.5 190.5t-172.5 58.5h-160l-54 -339h-42l112 705h42l-52 -327h144l274 327h51l-277 -329q120 -7 173.5 -76.5t30.5 -203.5l-9 -53q-19 -113 -71.5 -172t-144.5 -59z" />
    <glyph glyph-name="uni04C4" unicode="&#x4c4;" horiz-adv-x="514" 
d="M226 -185l-9 37q60 13 94 37.5t51.5 62.5t25.5 90l5 29q13 84 -20 123t-119 39h-125l-37 -233h-42l77 484h42l-34 -215h104l209 215h52l-212 -218q79 -7 120 -53t27 -138l-5 -30q-10 -63 -31 -109.5t-62 -76.5t-111 -44z" />
    <glyph glyph-name="uni04C5" unicode="&#x4c5;" horiz-adv-x="741" 
d="M569 -150l74 150h-89l106 666h-358l-32 -201q-19 -120 -44 -201.5t-57.5 -134.5t-74 -86t-94.5 -56l-14 39q39 18 75 44t67.5 72.5t57.5 126t46 206.5l36 230h440l-106 -666h100l-93 -189h-40z" />
    <glyph glyph-name="uni04C6" unicode="&#x4c6;" horiz-adv-x="574" 
d="M5 -9l-14 35q39 16 67 41t48 65.5t35.5 101.5t29.5 149l16 101h317l-71 -447h75l-86 -167h-39l67 130h-65l71 448h-234l-10 -66q-15 -97 -32 -164t-40.5 -111t-56.5 -71t-78 -45z" />
    <glyph glyph-name="uni04C7" unicode="&#x4c7;" horiz-adv-x="751" 
d="M406 -193l-2 38l41 3q106 8 126 130l57 360h-474l-54 -338h-42l112 705h42l-52 -328h474l52 328h42l-116 -731q-12 -77 -55 -118t-108 -46z" />
    <glyph glyph-name="uni04C8" unicode="&#x4c8;" horiz-adv-x="568" 
d="M231 -193l-2 38l41 3q106 8 126 130l40 254h-307l-37 -232h-42l77 484h42l-34 -215h307l34 215h42l-81 -510q-12 -77 -55 -118t-108 -46z" />
    <glyph glyph-name="uni04C9" unicode="&#x4c9;" horiz-adv-x="761" 
d="M58 0l112 705h42l-52 -328h474l52 328h42l-106 -666h100l-93 -189h-40l74 150h-89l54 338h-474l-54 -338h-42z" />
    <glyph glyph-name="uni04CA" unicode="&#x4ca;" horiz-adv-x="588" 
d="M50 0l77 484h42l-34 -215h307l34 215h42l-71 -447h75l-86 -167h-39l67 130h-65l37 232h-307l-37 -232h-42z" />
    <glyph glyph-name="uni04CB" unicode="&#x4cb;" horiz-adv-x="657" 
d="M402 -150h-43l30 189h97l44 279q-39 -21 -91.5 -31.5t-104.5 -10.5q-130 0 -187 71.5t-35 211.5l23 146h42l-23 -140q-21 -127 24 -187.5t156 -60.5q52 0 105 10.5t99 36.5l54 341h42l-112 -705h-97z" />
    <glyph glyph-name="uni04CC" unicode="&#x4cc;" horiz-adv-x="545" 
d="M309 -130h-38l26 166h72l28 178q-32 -20 -67 -30.5t-77 -10.5q-96 0 -139 48.5t-28 142.5l19 120h42l-19 -119q-13 -79 18 -116t108 -37q44 0 79 10t71 33l36 229h42l-77 -484h-76z" />
    <glyph glyph-name="uni04CD" unicode="&#x4cd;" horiz-adv-x="854" 
d="M683 -150l74 150h-88l97 617l-346 -507h-35l-187 518l-99 -628h-39l112 705h36l199 -552l377 552h36l-106 -666h102l-93 -189h-40z" />
    <glyph glyph-name="uni04CE" unicode="&#x4ce;" horiz-adv-x="656" 
d="M50 0l77 484h34l139 -358l250 358h36l-71 -447h79l-86 -167h-39l67 130h-65l62 395l-226 -318h-26l-129 325l-64 -402h-38z" />
    <glyph glyph-name="uni04CF" unicode="&#x4cf;" horiz-adv-x="218" 
d="M49 0l112 705h42l-112 -705h-42z" />
    <glyph glyph-name="uni04D0" unicode="&#x4d0;" horiz-adv-x="716" 
d="M-3 0l415 705h40l191 -705h-42l-53 195h-387l-115 -195h-49zM425 648l-241 -414h353l-110 414h-2zM438 760q-35 0 -69.5 12t-61.5 39.5t-41 72.5l34 14q34 -102 138 -102q53 0 90.5 21.5t75.5 79.5l31 -13q-40 -73 -92 -98.5t-105 -25.5z" />
    <glyph glyph-name="uni04D1" unicode="&#x4d1;" horiz-adv-x="520" 
d="M208 -8q-40 0 -76 17.5t-58 49.5t-22 75q0 76 65 108.5t210 32.5h71l6 40q11 68 -15.5 103t-96.5 35q-46 0 -85.5 -12.5t-77.5 -40.5l-18 36q35 26 84 41t99 15q88 0 126 -50t24 -140l-48 -302h-41l12 80q-25 -45 -69 -66.5t-90 -21.5zM211 30q40 0 76.5 19t62.5 55
t34 87l8 47h-49q-93 0 -146 -9.5t-75.5 -32t-22.5 -60.5q0 -52 34.5 -79t77.5 -27zM316 547q-31 0 -62 12t-55.5 39.5t-36.5 72.5l33 14q14 -52 45.5 -77t76.5 -25q46 0 78 21.5t64 79.5l32 -13q-35 -73 -81.5 -98.5t-93.5 -25.5z" />
    <glyph glyph-name="uni04D2" unicode="&#x4d2;" horiz-adv-x="716" 
d="M-3 0l415 705h40l191 -705h-42l-53 195h-387l-115 -195h-49zM425 648l-241 -414h353l-110 414h-2zM502 820l10 60h61l-10 -60h-61zM341 820l10 60h61l-10 -60h-61z" />
    <glyph glyph-name="uni04D3" unicode="&#x4d3;" horiz-adv-x="520" 
d="M208 -8q-40 0 -76 17.5t-58 49.5t-22 75q0 76 65 108.5t210 32.5h71l6 40q11 68 -15.5 103t-96.5 35q-46 0 -85.5 -12.5t-77.5 -40.5l-18 36q35 26 84 41t99 15q88 0 126 -50t24 -140l-48 -302h-41l12 80q-25 -45 -69 -66.5t-90 -21.5zM211 30q40 0 76.5 19t62.5 55
t34 87l8 47h-49q-93 0 -146 -9.5t-75.5 -32t-22.5 -60.5q0 -52 34.5 -79t77.5 -27zM375 620l9 60h61l-9 -60h-61zM214 620l9 60h61l-9 -60h-61z" />
    <glyph glyph-name="uni04D4" unicode="&#x4d4;" horiz-adv-x="971" 
d="M-37 0l532 705h500l-6 -39h-450l15 -289h369l-6 -39h-361l15 -299h319l-7 -39h-349l-9 195h-366l-147 -195h-49zM499 648l-310 -414h334l-22 414h-2z" />
    <glyph glyph-name="uni04D5" unicode="&#x4d5;" horiz-adv-x="863" 
d="M208 -8q-40 0 -76 17.5t-58 49.5t-22 75q0 76 65 108t210 32h75l5 31q24 148 -115 148q-46 0 -85.5 -12.5t-77.5 -40.5l-18 36q35 26 84 41t99 15q124 0 151 -99q32 45 80.5 72t112.5 27q73 0 115 -35t56.5 -89t4.5 -113l-3 -18h-378q-13 -92 30.5 -149t132.5 -57
q48 0 88 14t74 47l22 -31q-32 -34 -82 -51.5t-100 -17.5q-74 0 -124.5 32t-71.5 90q-29 -63 -81 -92.5t-113 -29.5zM637 454q-61 0 -102 -26.5t-64 -68t-32 -85.5h339q5 50 -7.5 91t-45 65t-88.5 24zM211 30q40 0 77 17t64 50.5t35 84.5l9 55h-53q-93 0 -146 -9.5
t-75.5 -31.5t-22.5 -60q0 -52 34.5 -79t77.5 -27z" />
    <glyph glyph-name="uni04D6" unicode="&#x4d6;" horiz-adv-x="570" 
d="M58 0l112 705h424l-6 -39h-382l-46 -289h362l-6 -39h-363l-47 -299h382l-6 -39h-424zM400 760q-35 0 -69.5 12t-61.5 39.5t-41 72.5l34 14q34 -102 138 -102q53 0 90.5 21.5t75.5 79.5l31 -13q-40 -73 -92 -98.5t-105 -25.5z" />
    <glyph glyph-name="uni04D7" unicode="&#x4d7;" horiz-adv-x="529" 
d="M264 -8q-98 0 -154 55.5t-56 152.5q0 77 29 143.5t85 107.5t136 41q73 0 115 -35t56.5 -90t4.5 -115l-3 -18h-379q-11 -91 32.5 -147t131.5 -56q48 0 88 14t74 47l22 -31q-32 -34 -82 -51.5t-100 -17.5zM303 454q-62 0 -103 -27t-64 -69t-32 -87h339q6 51 -6 92.5t-45 66
t-89 24.5zM321 547q-31 0 -62 12t-55.5 39.5t-36.5 72.5l33 14q14 -52 45.5 -77t76.5 -25q46 0 78 21.5t64 79.5l32 -13q-35 -73 -81.5 -98.5t-93.5 -25.5z" />
    <glyph glyph-name="uni04D8" unicode="&#x4d8;" horiz-adv-x="751" 
d="M352 -8q-81 0 -137.5 30t-88.5 81t-42.5 115t-0.5 131l4 27h571q1 20 1 40q0 77 -31 134.5t-88 89.5t-135 32q-85 0 -142 -21t-110 -68l-19 36q51 49 120.5 71.5t157.5 22.5q87 0 152.5 -38.5t102.5 -105.5t37 -153q0 -127 -42 -222.5t-120.5 -148.5t-189.5 -53zM358 33
q86 0 148 39t99.5 107.5t48.5 157.5h-529q-9 -84 10.5 -153t73.5 -110t149 -41z" />
    <glyph glyph-name="uni04D9" unicode="&#x4d9;" horiz-adv-x="529" 
d="M225 -8q-73 0 -115 35t-56.5 90t-4.5 115l3 18h379q11 91 -32.5 147t-131.5 56q-48 0 -87.5 -14t-74.5 -47l-22 31q32 35 82.5 52t99.5 17q98 0 154 -55t56 -153q0 -77 -29 -143.5t-85 -107.5t-136 -41zM226 30q62 0 103 27t64 69t32 87h-339q-6 -51 6 -92.5t45 -66
t89 -24.5z" />
    <glyph glyph-name="uni04DA" unicode="&#x4da;" horiz-adv-x="751" 
d="M352 -8q-81 0 -137.5 30t-88.5 81t-42.5 115t-0.5 131l4 27h571q1 20 1 40q0 77 -31 134.5t-88 89.5t-135 32q-85 0 -142 -21t-110 -68l-19 36q51 49 120.5 71.5t157.5 22.5q87 0 152.5 -38.5t102.5 -105.5t37 -153q0 -127 -42 -222.5t-120.5 -148.5t-189.5 -53zM358 33
q86 0 148 39t99.5 107.5t48.5 157.5h-529q-9 -84 10.5 -153t73.5 -110t149 -41zM475 820l10 60h61l-10 -60h-61zM314 820l10 60h61l-10 -60h-61z" />
    <glyph glyph-name="uni04DB" unicode="&#x4db;" horiz-adv-x="529" 
d="M225 -8q-73 0 -115 35t-56.5 90t-4.5 115l3 18h379q11 91 -32.5 147t-131.5 56q-48 0 -87.5 -14t-74.5 -47l-22 31q32 35 82.5 52t99.5 17q98 0 154 -55t56 -153q0 -77 -29 -143.5t-85 -107.5t-136 -41zM226 30q62 0 103 27t64 69t32 87h-339q-6 -51 6 -92.5t45 -66
t89 -24.5zM353 620l9 60h61l-9 -60h-61zM192 620l9 60h61l-9 -60h-61z" />
    <glyph glyph-name="uni04DC" unicode="&#x4dc;" horiz-adv-x="928" 
d="M-21 0l153 239q36 57 78.5 91t93.5 43l-174 332h44l171 -327h119l52 327h42l-52 -327h113l274 327h52l-281 -334q45 -12 79 -45.5t51 -86.5l79 -239h-43l-68 210q-22 70 -60.5 99.5t-97.5 29.5h-104l-54 -339h-42l54 339h-102q-61 0 -106.5 -30.5t-89.5 -98.5l-134 -210
h-47zM605 820l10 60h61l-10 -60h-61zM444 820l10 60h61l-10 -60h-61z" />
    <glyph glyph-name="uni04DD" unicode="&#x4dd;" horiz-adv-x="748" 
d="M-31 0l122 156q30 38 51 59.5t38.5 32t36.5 15.5l-145 221h46l141 -215h98l34 215h42l-34 -215h92l209 215h52l-215 -222q32 -11 53 -37t41 -69l72 -156h-43l-69 150q-22 50 -49 66.5t-71 16.5h-78l-37 -233h-42l37 233h-71q-33 0 -56 -7t-43.5 -25t-46.5 -51l-117 -150
h-48zM484 620l9 60h61l-9 -60h-61zM323 620l9 60h61l-9 -60h-61z" />
    <glyph glyph-name="uni04DE" unicode="&#x4de;" horiz-adv-x="645" 
d="M306 -8q-91 0 -156 22t-122 71l23 35q59 -51 120.5 -69t139.5 -18q57 0 105 16t77 53.5t29 101.5q0 66 -42 99.5t-122 33.5h-171l6 39h172q89 0 141.5 43t52.5 124q0 46 -24 74t-64 41.5t-89 13.5q-65 0 -130 -21.5t-117 -66.5l-21 36q55 47 126.5 70t141.5 23
q60 0 110 -18t80.5 -55t30.5 -95q0 -74 -39.5 -123t-107.5 -66q51 -16 80.5 -56.5t29.5 -96.5q0 -76 -35.5 -122.5t-94.5 -67.5t-130 -21zM461 820l10 60h61l-10 -60h-61zM300 820l10 60h61l-10 -60h-61z" />
    <glyph glyph-name="uni04DF" unicode="&#x4df;" horiz-adv-x="477" 
d="M194 -8q-60 0 -109.5 17.5t-74.5 48.5l21 36q29 -33 70.5 -48t93.5 -15q77 0 122 25t45 87q0 38 -27.5 61.5t-78.5 23.5h-101l6 36h93q55 0 91.5 29t36.5 80q0 37 -30.5 58.5t-88.5 21.5q-50 0 -95 -14t-89 -46l-19 37q90 62 204 62q77 0 119 -32t42 -84q0 -51 -28 -83.5
t-71 -45.5q37 -10 58.5 -38.5t21.5 -64.5q0 -82 -58.5 -117t-153.5 -35zM324 620l9 60h61l-9 -60h-61zM163 620l9 60h61l-9 -60h-61z" />
    <glyph glyph-name="uni04E0" unicode="&#x4e0;" horiz-adv-x="645" 
d="M306 -8q-91 0 -156 22t-122 71l23 35q59 -51 120.5 -69t139.5 -18q57 0 105 16t77 53.5t29 101.5q0 66 -44 99.5t-138 33.5h-111l6 36l314 293h-423l6 39h489l-5 -31l-319 -298h50q79 0 127 -23t70 -62t22 -88q0 -76 -35.5 -122.5t-94.5 -67.5t-130 -21z" />
    <glyph glyph-name="uni04E1" unicode="&#x4e1;" horiz-adv-x="476" 
d="M178 -188q-56 0 -110.5 17t-101.5 54l23 32q46 -35 90.5 -49.5t98.5 -14.5q91 0 137 50t46 135q0 56 -36.5 93t-104.5 37h-107l4 24l263 257h-314l6 37h373l-5 -30l-257 -250h41q58 0 98 -23t61 -61.5t21 -85.5q0 -66 -27.5 -116t-78 -78t-120.5 -28z" />
    <glyph glyph-name="uni04E2" unicode="&#x4e2;" horiz-adv-x="732" 
d="M58 0l112 705h39l-100 -629l565 629h35l-112 -705h-39l100 631l-566 -631h-34zM303 822l6 38h310l-6 -38h-310z" />
    <glyph glyph-name="uni04E3" unicode="&#x4e3;" horiz-adv-x="566" 
d="M50 0l77 484h39l-66 -417l378 417h38l-77 -484h-39l66 417l-378 -417h-38zM204 633l6 38h280l-6 -38h-280z" />
    <glyph glyph-name="uni04E4" unicode="&#x4e4;" horiz-adv-x="732" 
d="M58 0l112 705h39l-100 -629l565 629h35l-112 -705h-39l100 631l-566 -631h-34zM507 820l10 60h61l-10 -60h-61zM346 820l10 60h61l-10 -60h-61z" />
    <glyph glyph-name="uni04E5" unicode="&#x4e5;" horiz-adv-x="566" 
d="M50 0l77 484h39l-66 -417l378 417h38l-77 -484h-39l66 417l-378 -417h-38zM392 620l9 60h61l-9 -60h-61zM231 620l9 60h61l-9 -60h-61z" />
    <glyph glyph-name="uni04E6" unicode="&#x4e6;" horiz-adv-x="751" 
d="M357 -8q-126 0 -200.5 76t-74.5 221q0 89 22 166t66 135t109 90.5t150 32.5q126 0 200.5 -76t74.5 -221q0 -89 -22 -166t-66 -135t-108.5 -90.5t-150.5 -32.5zM359 33q98 0 164.5 50.5t101 137.5t34.5 195q0 130 -61.5 193t-171.5 63q-97 0 -163.5 -50.5t-101 -137
t-34.5 -195.5q0 -130 61.5 -193t170.5 -63zM508 820l10 60h61l-10 -60h-61zM347 820l10 60h61l-10 -60h-61z" />
    <glyph glyph-name="uni04E7" unicode="&#x4e7;" horiz-adv-x="544" 
d="M248 -8q-89 0 -141.5 55.5t-52.5 152.5q0 77 28 143.5t82 107.5t132 41q89 0 141.5 -55t52.5 -153q0 -77 -28 -143.5t-81.5 -107.5t-132.5 -41zM250 31q64 0 108 35t66.5 93t22.5 127q0 83 -40.5 125t-112.5 42q-64 0 -108 -35t-66.5 -92.5t-22.5 -127.5
q0 -82 40.5 -124.5t112.5 -42.5zM385 620l9 60h61l-9 -60h-61zM224 620l9 60h61l-9 -60h-61z" />
    <glyph glyph-name="uni04E8" unicode="&#x4e8;" horiz-adv-x="751" 
d="M357 -8q-126 0 -200.5 76t-74.5 221q0 89 22 166t66 135t109 90.5t150 32.5q126 0 200.5 -76t74.5 -221q0 -89 -22 -166t-66 -135t-108.5 -90.5t-150.5 -32.5zM426 672q-83 0 -144.5 -37.5t-98.5 -104.5t-50 -153h525q1 19 1 39q0 130 -61.5 193t-171.5 63zM359 33
q86 0 148 39.5t99 108.5t48 158h-525q-2 -24 -2 -50q0 -130 61.5 -193t170.5 -63z" />
    <glyph glyph-name="uni04E9" unicode="&#x4e9;" horiz-adv-x="544" 
d="M248 -8q-89 0 -141.5 55.5t-52.5 152.5q0 77 28 143.5t82 107.5t132 41q89 0 141.5 -55t52.5 -153q0 -77 -28 -143.5t-81.5 -107.5t-132.5 -41zM294 453q-54 0 -94 -25.5t-64.5 -69t-33.5 -98.5h344q1 13 1 26q0 83 -40.5 125t-112.5 42zM250 31q54 0 94 25.5t64.5 69
t33.5 98.5h-344q-1 -13 -1 -26q0 -82 40.5 -124.5t112.5 -42.5z" />
    <glyph glyph-name="uni04EA" unicode="&#x4ea;" horiz-adv-x="751" 
d="M357 -8q-126 0 -200.5 76t-74.5 221q0 89 22 166t66 135t109 90.5t150 32.5q126 0 200.5 -76t74.5 -221q0 -89 -22 -166t-66 -135t-108.5 -90.5t-150.5 -32.5zM426 672q-83 0 -144.5 -37.5t-98.5 -104.5t-50 -153h525q1 19 1 39q0 130 -61.5 193t-171.5 63zM359 33
q86 0 148 39.5t99 108.5t48 158h-525q-2 -24 -2 -50q0 -130 61.5 -193t170.5 -63zM508 820l10 60h61l-10 -60h-61zM347 820l10 60h61l-10 -60h-61z" />
    <glyph glyph-name="uni04EB" unicode="&#x4eb;" horiz-adv-x="544" 
d="M248 -8q-89 0 -141.5 55.5t-52.5 152.5q0 77 28 143.5t82 107.5t132 41q89 0 141.5 -55t52.5 -153q0 -77 -28 -143.5t-81.5 -107.5t-132.5 -41zM294 453q-54 0 -94 -25.5t-64.5 -69t-33.5 -98.5h344q1 13 1 26q0 83 -40.5 125t-112.5 42zM250 31q54 0 94 25.5t64.5 69
t33.5 98.5h-344q-1 -13 -1 -26q0 -82 40.5 -124.5t112.5 -42.5zM385 620l9 60h61l-9 -60h-61zM224 620l9 60h61l-9 -60h-61z" />
    <glyph glyph-name="uni04EC" unicode="&#x4ec;" horiz-adv-x="667" 
d="M268 -8q-73 0 -131.5 25t-97.5 70l25 35q41 -46 90.5 -67.5t116.5 -21.5q84 0 147.5 38.5t103 107.5t49.5 159h-385l6 39h382q3 90 -19 156t-75.5 102.5t-144.5 36.5q-61 0 -112 -20.5t-101 -67.5l-24 34q97 95 238 95q86 0 149.5 -33t98.5 -102.5t35 -177.5
q0 -87 -24.5 -161.5t-70.5 -129.5t-110.5 -86t-145.5 -31zM433 820l10 60h61l-10 -60h-61zM272 820l10 60h61l-10 -60h-61z" />
    <glyph glyph-name="uni04ED" unicode="&#x4ed;" horiz-adv-x="471" 
d="M171 -8q-52 0 -95 18t-68 46l21 32q28 -29 62.5 -43t81.5 -14q61 0 102 28t64 73.5t30 97.5h-259l5 36h258q3 84 -32.5 135.5t-122.5 51.5q-37 0 -73.5 -13.5t-67.5 -42.5l-19 34q29 29 72.5 45t89.5 16q101 0 148.5 -58.5t47.5 -151.5q0 -53 -14 -104.5t-43.5 -93.5
t-76 -67t-111.5 -25zM312 620l9 60h61l-9 -60h-61zM151 620l9 60h61l-9 -60h-61z" />
    <glyph glyph-name="uni04EE" unicode="&#x4ee;" horiz-adv-x="628" 
d="M172 0l143 213l-232 492h44l214 -455l307 455h48l-476 -705h-48zM242 822l6 38h310l-6 -38h-310z" />
    <glyph glyph-name="uni04EF" unicode="&#x4ef;" horiz-adv-x="510" 
d="M89 -180l103 177l-129 487h44l112 -440l255 440h50l-389 -664h-46zM167 633l6 38h280l-6 -38h-280z" />
    <glyph glyph-name="uni04F0" unicode="&#x4f0;" horiz-adv-x="628" 
d="M172 0l143 213l-232 492h44l214 -455l307 455h48l-476 -705h-48zM446 820l10 60h61l-10 -60h-61zM285 820l10 60h61l-10 -60h-61z" />
    <glyph glyph-name="uni04F1" unicode="&#x4f1;" horiz-adv-x="510" 
d="M89 -180l103 177l-129 487h44l112 -440l255 440h50l-389 -664h-46zM355 620l9 60h61l-9 -60h-61zM194 620l9 60h61l-9 -60h-61z" />
    <glyph glyph-name="uni04F2" unicode="&#x4f2;" horiz-adv-x="628" 
d="M172 0l143 213l-232 492h44l214 -455l307 455h48l-476 -705h-48zM320 765l100 170h52l-125 -170h-27zM429 765l99 170h52l-124 -170h-27z" />
    <glyph glyph-name="uni04F3" unicode="&#x4f3;" horiz-adv-x="510" 
d="M89 -180l103 177l-129 487h44l112 -440l255 440h50l-389 -664h-46zM334 549l76 200h48l-97 -200h-27zM225 549l76 200h48l-97 -200h-27z" />
    <glyph glyph-name="uni04F4" unicode="&#x4f4;" horiz-adv-x="657" 
d="M480 0l50 318q-39 -21 -91.5 -31.5t-104.5 -10.5q-130 0 -187 71.5t-35 211.5l23 146h42l-23 -140q-21 -127 24 -187.5t156 -60.5q52 0 105 10.5t99 36.5l54 341h42l-112 -705h-42zM447 820l10 60h61l-10 -60h-61zM286 820l10 60h61l-10 -60h-61z" />
    <glyph glyph-name="uni04F5" unicode="&#x4f5;" horiz-adv-x="532" 
d="M363 0l34 214q-32 -20 -67 -30.5t-77 -10.5q-96 0 -139 48.5t-28 142.5l19 120h42l-19 -119q-13 -79 18 -116t108 -37q44 0 79 10t71 33l36 229h42l-77 -484h-42zM366 620l9 60h61l-9 -60h-61zM205 620l9 60h61l-9 -60h-61z" />
    <glyph glyph-name="uni04F6" unicode="&#x4f6;" horiz-adv-x="527" 
d="M58 0l112 705h417l-6 -39h-375l-100 -627h100l-31 -189h-40l24 150h-101z" />
    <glyph glyph-name="uni04F7" unicode="&#x4f7;" horiz-adv-x="415" 
d="M50 0l77 484h314l-6 -37h-272l-65 -410h72l-27 -167h-38l21 130h-76z" />
    <glyph glyph-name="uni04F8" unicode="&#x4f8;" horiz-adv-x="813" 
d="M58 0l112 705h42l-52 -326h191q103 0 155.5 -46t52.5 -124q0 -104 -62 -156.5t-180 -52.5h-259zM636 0l112 705h42l-112 -705h-42zM106 39h215q194 0 194 169q0 65 -42.5 98.5t-122.5 33.5h-196zM540 820l10 60h61l-10 -60h-61zM379 820l10 60h61l-10 -60h-61z" />
    <glyph glyph-name="uni04F9" unicode="&#x4f9;" horiz-adv-x="689" 
d="M50 0l77 484h42l-29 -184h159q79 0 121 -37.5t42 -103.5q0 -73 -49 -116t-140 -43h-223zM520 0l77 484h42l-77 -484h-42zM98 36h173q74 0 110.5 32t36.5 90q0 56 -32.5 81t-92.5 25h-159zM452 620l9 60h61l-9 -60h-61zM291 620l9 60h61l-9 -60h-61z" />
    <glyph glyph-name="uni04FA" unicode="&#x4fa;" horiz-adv-x="558" 
d="M32 -180l-2 38l37 3q53 5 83.5 38.5t40.5 100.5h-103l54 338h-100l6 38h100l52 329h418l-6 -39h-376l-46 -290h190l-6 -38h-190l-47 -299h100l-6 -39q-13 -85 -53.5 -128.5t-106.5 -48.5z" />
    <glyph glyph-name="uni04FB" unicode="&#x4fb;" horiz-adv-x="432" 
d="M31 -180l-2 38l36 3q45 4 70 41.5t35 97.5h-104l36 225h-100l6 36h100l35 223h315l-6 -37h-273l-29 -186h150l-6 -36h-150l-30 -189h100l-6 -36q-14 -85 -47.5 -128.5t-91.5 -48.5z" />
    <glyph glyph-name="uni04FC" unicode="&#x4fc;" horiz-adv-x="631" 
d="M363 -183l-8 36q76 11 107 44t31 92q0 26 -10 62.5t-35 79.5l-115 198l-294 -329h-53l325 364l-197 341h46l179 -311l274 311h53l-305 -345l126 -219q25 -43 35.5 -83.5t10.5 -69.5q0 -78 -43.5 -118t-126.5 -53z" />
    <glyph glyph-name="uni04FD" unicode="&#x4fd;" horiz-adv-x="512" 
d="M280 -183l-9 35q59 8 87 34.5t28 81.5q0 26 -13.5 57t-43.5 78l-74 116l-208 -219h-53l239 250l-151 234h47l133 -207l192 207h54l-224 -238l78 -121q32 -49 48 -86.5t16 -78.5q0 -60 -37.5 -98t-108.5 -45z" />
    <glyph glyph-name="uni04FE" unicode="&#x4fe;" horiz-adv-x="631" 
d="M-14 0l325 364l-197 341h46l179 -311l274 311h53l-305 -345l208 -360h-46l-191 329l-293 -329h-53zM147 345l5 36h372l-5 -36h-372z" />
    <glyph glyph-name="uni04FF" unicode="&#x4ff;" horiz-adv-x="512" 
d="M-6 0l239 250l-151 234h47l133 -207l192 207h54l-224 -238l158 -246h-47l-140 219l-208 -219h-53zM68 225l5 36h372l-5 -36h-372z" />
    <glyph glyph-name="uni0510" unicode="&#x510;" horiz-adv-x="645" 
d="M304 -8q-115 0 -180 43t-65 126q0 74 43.5 129t118.5 72q-44 16 -68.5 50.5t-24.5 87.5q0 66 34.5 114t95 73.5t138.5 25.5q77 0 138 -25t99 -70l-25 -35q-42 46 -92 67.5t-126 21.5q-98 0 -158 -45t-60 -124q0 -127 163 -127h158l-6 -39h-173q-100 0 -156 -44.5
t-56 -125.5q0 -69 51.5 -101.5t148.5 -32.5q80 0 142.5 20.5t120.5 67.5l24 -34q-47 -44 -121.5 -69.5t-163.5 -25.5z" />
    <glyph glyph-name="uni0511" unicode="&#x511;" horiz-adv-x="477" 
d="M208 -8q-91 0 -132 32.5t-41 87.5q0 59 33.5 93.5t84.5 43.5q-31 13 -49 39.5t-18 59.5q0 52 26 83.5t71 46t101 14.5t103 -15.5t73 -42.5l-23 -35q-28 29 -67.5 41.5t-86.5 12.5q-66 0 -110 -24t-44 -80q0 -37 28 -61t79 -24h85l-6 -36h-91q-68 0 -106.5 -29.5
t-38.5 -83.5q0 -40 29.5 -62t100.5 -22q55 0 100 14t89 46l19 -37q-90 -62 -209 -62z" />
    <glyph glyph-name="uni0512" unicode="&#x512;" horiz-adv-x="731" 
d="M386 -193l-2 38l41 3q106 8 126 130l109 688h-358l-32 -201q-19 -120 -44.5 -201.5t-58.5 -134.5t-73.5 -86t-90.5 -56l-17 38q39 19 75 44.5t67.5 72.5t57.5 126.5t46 206.5l36 230h440l-116 -731q-12 -77 -55 -118t-108 -46z" />
    <glyph glyph-name="uni0513" unicode="&#x513;" horiz-adv-x="554" 
d="M217 -193l-2 38l41 3q106 8 126 130l74 470h-234l-10 -66q-15 -97 -32 -164t-40.5 -111t-56.5 -71t-78 -45l-14 35q39 16 67 41t48 65.5t35.5 101.5t29.5 149l16 101h317l-81 -510q-12 -77 -55 -118t-108 -46z" />
    <glyph glyph-name="uni051A" unicode="&#x51a;" horiz-adv-x="751" 
d="M519 -190l-53 116q-31 66 -119 66v0q-122 3 -193.5 79t-71.5 218q0 89 22 166t66 135t109 90.5t150 32.5q126 0 200.5 -76t74.5 -221q0 -103 -29.5 -189.5t-87.5 -145.5t-144 -79q19 -8 34 -24.5t29 -46.5l48 -105zM359 33q98 0 164.5 50.5t101 137.5t34.5 195
q0 130 -61.5 193t-171.5 63q-97 0 -163.5 -50.5t-101 -137t-34.5 -195.5q0 -130 61.5 -193t170.5 -63z" />
    <glyph glyph-name="uni051B" unicode="&#x51b;" horiz-adv-x="574" 
d="M377 -180l41 263q-28 -43 -72 -67t-102 -24q-85 0 -137.5 55.5t-52.5 150.5q0 78 27.5 145t81.5 108t133 41q57 0 103 -28t66 -87l17 107h42l-105 -664h-42zM250 31q64 0 108 35t66.5 93t22.5 127q0 83 -40.5 125t-112.5 42q-64 0 -108 -35t-66.5 -92.5t-22.5 -127.5
q0 -82 40.5 -124.5t112.5 -42.5z" />
    <glyph glyph-name="uni051C" unicode="&#x51c;" horiz-adv-x="1091" 
d="M243 0l-132 705h42l119 -641l323 641h39l121 -647l325 647h46l-356 -705h-43l-120 642l-323 -642h-41z" />
    <glyph glyph-name="uni051D" unicode="&#x51d;" horiz-adv-x="836" 
d="M174 0l-93 484h43l80 -435l225 435h51l83 -436l222 436h46l-248 -484h-49l-85 435l-226 -435h-49z" />
    <glyph glyph-name="uni0524" unicode="&#x524;" horiz-adv-x="780" 
d="M646 -150l24 150h-101l106 666h-469l-106 -666h-42l112 705h553l-106 -666h100l-31 -189h-40z" />
    <glyph glyph-name="uni0525" unicode="&#x525;" horiz-adv-x="585" 
d="M451 -130l21 130h-76l71 448h-304l-71 -448h-42l77 484h388l-71 -447h72l-27 -167h-38z" />
    <glyph glyph-name="uni0526" unicode="&#x526;" horiz-adv-x="691" 
d="M592 -150l24 150h-101l23 140q21 128 -24 188t-156 60q-52 0 -104.5 -10.5t-99.5 -36.5l-54 -341h-42l112 705h42l-50 -318q39 21 91.5 31.5t104.5 10.5q131 0 187.5 -71.5t34.5 -211.5l-17 -107h100l-31 -189h-40z" />
    <glyph glyph-name="uni0527" unicode="&#x527;" horiz-adv-x="559" 
d="M50 0l112 705h42l-49 -307q28 45 73.5 69.5t105.5 24.5q81 0 122 -48.5t25 -148.5l-41 -258h73l-27 -167h-38l21 130h-77l47 296q25 157 -106 157q-86 0 -135.5 -51.5t-63.5 -137.5l-42 -264h-42z" />
    <glyph glyph-name="uni0528" unicode="&#x528;" horiz-adv-x="751" 
d="M-110 -193l-2 38l41 3q106 8 126 130l115 727h42l-52 -328h474l52 328h42l-112 -705h-42l54 338h-474l-58 -364q-12 -77 -55 -118t-108 -46z" />
    <glyph glyph-name="uni0529" unicode="&#x529;" horiz-adv-x="568" 
d="M-119 -193l-2 38l41 3q106 8 126 130l80 506h42l-34 -215h308l34 215h42l-77 -484h-42l37 232h-308l-41 -258q-12 -77 -55 -118t-108 -46z" />
    <glyph glyph-name="uni052E" unicode="&#x52e;" horiz-adv-x="765" 
d="M632 -150l24 150h-102l106 666h-358l-32 -201q-19 -120 -44 -201.5t-57.5 -134.5t-74 -86t-94.5 -56l-14 39q39 18 75 44t67.5 72.5t57.5 126t46 206.5l36 230h440l-106 -666h101l-31 -189h-40z" />
    <glyph glyph-name="uni052F" unicode="&#x52f;" horiz-adv-x="574" 
d="M5 -9l-14 35q39 16 67 41t48 65.5t35.5 101.5t29.5 149l16 101h317l-71 -447h72l-27 -167h-38l21 130h-76l71 448h-234l-10 -66q-15 -97 -32 -164t-40.5 -111t-56.5 -71t-78 -45z" />
    <glyph glyph-name="uni1E08" unicode="&#x1e08;" horiz-adv-x="667" 
d="M371 -8q-86 0 -151 33.5t-101 102.5t-36 177q0 87 24.5 161.5t70.5 129.5t110.5 86t145.5 31q74 0 132 -25t97 -70l-25 -35q-41 46 -90.5 67.5t-116.5 21.5q-93 0 -161 -47.5t-105 -130.5t-37 -190q0 -97 30 -157t85 -87t129 -27q62 0 110.5 21t97.5 67l24 -34
q-97 -95 -233 -95zM346 -190q-49 0 -77 18l12 34q18 -9 33 -12.5t39 -3.5q28 0 47 11.5t19 33.5q0 30 -35 30q-11 0 -23 -2t-30 -8l-13 13l31 96h38l-23 -69q15 3 26 3q29 0 49 -15.5t20 -44.5q0 -37 -32 -60.5t-81 -23.5zM424 765l131 170h57l-150 -170h-38z" />
    <glyph glyph-name="uni1E09" unicode="&#x1e09;" horiz-adv-x="455" 
d="M248 -8q-100 0 -148 58.5t-48 151.5q0 53 14 104.5t43.5 93.5t76 67t111.5 25q48 0 90.5 -17.5t67.5 -46.5l-21 -32q-54 57 -139 57q-53 0 -91 -21.5t-62 -58t-35.5 -81t-11.5 -90.5q0 -78 36.5 -124.5t118.5 -46.5q33 0 69 13.5t67 42.5l19 -34q-29 -28 -72 -44.5
t-85 -16.5zM216 -190q-49 0 -77 18l12 34q18 -9 33 -12.5t39 -3.5q28 0 47 11.5t19 33.5q0 30 -35 30q-11 0 -23 -2t-30 -8l-13 13l31 96h38l-23 -69q15 3 26 3q29 0 49 -15.5t20 -44.5q0 -37 -32 -60.5t-81 -23.5zM288 549l135 200h55l-154 -200h-36z" />
    <glyph glyph-name="uni1E0C" unicode="&#x1e0c;" horiz-adv-x="725" 
d="M58 0l112 705h190q153 0 236 -75.5t83 -213.5q0 -85 -22.5 -160t-70.5 -132.5t-122.5 -90.5t-179.5 -33h-226zM106 39h180q96 0 162.5 30t107.5 83t59.5 121t18.5 143q0 122 -69 186t-206 64h-153zM266 -172l10 63h64l-10 -63h-64z" />
    <glyph glyph-name="uni1E0D" unicode="&#x1e0d;" horiz-adv-x="568" 
d="M241 -8q-85 0 -137.5 55.5t-52.5 150.5q0 78 27.5 145t81.5 108t133 41q57 0 103 -28t66 -87l52 328h42l-112 -705h-42l13 83q-28 -43 -72 -67t-102 -24zM247 31q64 0 108 35t66.5 93t22.5 127q0 83 -40.5 125t-112.5 42q-64 0 -108 -35t-66.5 -92.5t-22.5 -127.5
q0 -82 40.5 -124.5t112.5 -42.5zM191 -172l10 63h64l-10 -63h-64z" />
    <glyph glyph-name="uni1E0E" unicode="&#x1e0e;" horiz-adv-x="725" 
d="M58 0l112 705h190q153 0 236 -75.5t83 -213.5q0 -85 -22.5 -160t-70.5 -132.5t-122.5 -90.5t-179.5 -33h-226zM106 39h180q96 0 162.5 30t107.5 83t59.5 121t18.5 143q0 122 -69 186t-206 64h-153zM162 -148l6 38h280l-6 -38h-280z" />
    <glyph glyph-name="uni1E0F" unicode="&#x1e0f;" horiz-adv-x="568" 
d="M241 -8q-85 0 -137.5 55.5t-52.5 150.5q0 78 27.5 145t81.5 108t133 41q57 0 103 -28t66 -87l52 328h42l-112 -705h-42l13 83q-28 -43 -72 -67t-102 -24zM247 31q64 0 108 35t66.5 93t22.5 127q0 83 -40.5 125t-112.5 42q-64 0 -108 -35t-66.5 -92.5t-22.5 -127.5
q0 -82 40.5 -124.5t112.5 -42.5zM87 -148l6 38h280l-6 -38h-280z" />
    <glyph glyph-name="uni1E14" unicode="&#x1e14;" horiz-adv-x="570" 
d="M58 0l112 705h424l-6 -39h-382l-46 -289h362l-6 -39h-363l-47 -299h382l-6 -39h-424zM404 871l-102 150h53l85 -150h-36zM270 796l6 38h280l-6 -38h-280z" />
    <glyph glyph-name="uni1E15" unicode="&#x1e15;" horiz-adv-x="523" 
d="M261 -8q-98 0 -154 55.5t-56 152.5q0 77 29 143.5t85 107.5t136 41q73 0 115 -35t56.5 -90t4.5 -115l-3 -18h-379q-11 -91 32.5 -147t131.5 -56q48 0 88 14t74 47l22 -31q-32 -34 -82 -51.5t-100 -17.5zM300 454q-62 0 -103 -27t-64 -69t-32 -87h339q6 51 -6 92.5t-45 66
t-89 24.5zM310 650l-102 150h53l85 -150h-36zM176 575l6 38h280l-6 -38h-280z" />
    <glyph glyph-name="uni1E16" unicode="&#x1e16;" horiz-adv-x="570" 
d="M58 0l112 705h424l-6 -39h-382l-46 -289h362l-6 -39h-363l-47 -299h382l-6 -39h-424zM404 871l111 150h55l-130 -150h-36zM270 796l6 38h280l-6 -38h-280z" />
    <glyph glyph-name="uni1E17" unicode="&#x1e17;" horiz-adv-x="523" 
d="M261 -8q-98 0 -154 55.5t-56 152.5q0 77 29 143.5t85 107.5t136 41q73 0 115 -35t56.5 -90t4.5 -115l-3 -18h-379q-11 -91 32.5 -147t131.5 -56q48 0 88 14t74 47l22 -31q-32 -34 -82 -51.5t-100 -17.5zM300 454q-62 0 -103 -27t-64 -69t-32 -87h339q6 51 -6 92.5t-45 66
t-89 24.5zM310 650l111 150h55l-130 -150h-36zM176 575l6 38h280l-6 -38h-280z" />
    <glyph glyph-name="uni1E1C" unicode="&#x1e1c;" horiz-adv-x="570" 
d="M58 0l112 705h424l-6 -39h-382l-46 -289h362l-6 -39h-363l-47 -299h382l-6 -39h-424zM271 -190q-49 0 -77 18l12 34q18 -9 33 -12.5t39 -3.5q28 0 47 11.5t19 33.5q0 30 -35 30q-11 0 -23 -2t-30 -8l-13 13l31 96h38l-23 -69q15 3 26 3q29 0 49 -15.5t20 -44.5
q0 -37 -32 -60.5t-81 -23.5zM409 760q-64 0 -104.5 44.5t-38.5 122.5l33 4q-3 -64 28.5 -99.5t84.5 -35.5t89 35.5t46 99.5l33 -4q-13 -78 -60 -122.5t-111 -44.5z" />
    </font>
</defs>
</svg>
