<?xml version="1.0" standalone="no"?>
<!DOCTYPE svg PUBLIC "-//W3C//DTD SVG 1.1//EN" "http://www.w3.org/Graphics/SVG/1.1/DTD/svg11.dtd" >
<svg xmlns="http://www.w3.org/2000/svg" xmlns:xlink="http://www.w3.org/1999/xlink" version="1.1">
<metadata>
Created by FontForge 20170731 at Mon Jun 29 15:02:13 2020
 By Aleksey,,,
Copyright 2016 The Nunito Sans Project Authors (https://github.com/Fonthausen/NunitoSans)
</metadata>
<defs>
<font id="NunitoSans-ExtraBoldItalic" horiz-adv-x="0" >
  <font-face 
    font-family="Nunito Sans ExtraBold"
    font-weight="800"
    font-style="italic"
    font-stretch="normal"
    units-per-em="1000"
    panose-1="0 0 0 0 0 0 0 0 0 0"
    ascent="800"
    descent="-200"
    x-height="491"
    cap-height="705"
    bbox="-329 -284 1410 1055"
    underline-thickness="49"
    underline-position="-159"
    slope="-9"
    unicode-range="U+000D-FB02"
  />
<missing-glyph horiz-adv-x="500" 
d="M50 -180v885h400v-885h-400zM100 -130h300v785h-300v-785z" />
    <glyph glyph-name="fi" unicode="fi" horiz-adv-x="641" 
d="M482 586l22 141h162l-23 -141h-161zM57 0l61 378h-93l17 113h93l3 15q14 90 73 143t184 59l58 3l-4 -110l-47 -3q-54 -3 -80.5 -23.5t-32.5 -63.5l-3 -20h336l-78 -491h-151l60 378h-184l-61 -378h-151z" />
    <glyph glyph-name="fl" unicode="fl" horiz-adv-x="716" 
d="M57 0l61 378h-93l17 113h93l3 15q14 90 73 143.5t184 58.5l64 3l-3 -110l-54 -3q-54 -3 -80.5 -23.5t-32.5 -63.5l-3 -20h126l-18 -113h-125l-61 -378h-151zM588 -11q-92 0 -132 50.5t-25 146.5l82 519h151l-82 -517q-11 -77 58 -77q10 0 21 1l22 2l-20 -115
q-33 -10 -75 -10z" />
    <glyph glyph-name=".notdef" horiz-adv-x="500" 
d="M50 -180v885h400v-885h-400zM100 -130h300v785h-300v-785z" />
    <glyph glyph-name=".null" 
 />
    <glyph glyph-name="nonmarkingreturn" horiz-adv-x="333" 
 />
    <glyph glyph-name="NULL" 
 />
    <glyph glyph-name="NULL" 
 />
    <glyph glyph-name="CR" unicode="&#xd;" horiz-adv-x="278" 
 />
    <glyph glyph-name="space" unicode=" " horiz-adv-x="278" 
 />
    <glyph glyph-name="exclam" unicode="!" horiz-adv-x="260" 
d="M81 229l29 476h185l-122 -476h-92zM10 0l26 160h162l-25 -160h-163z" />
    <glyph glyph-name="quotedbl" unicode="&#x22;" horiz-adv-x="480" 
d="M103 407l11 298h174l-84 -298h-101zM328 407l11 298h174l-84 -298h-101z" />
    <glyph glyph-name="numbersign" unicode="#" horiz-adv-x="600" 
d="M38 0l58 166h-59l14 93h79l69 195h-94l14 94h113l56 157h100l-56 -157h108l56 157h100l-55 -157h58l-15 -94h-77l-69 -195h93l-14 -93h-112l-60 -166h-99l58 166h-107l-59 -166h-100zM230 259h108l69 195h-108z" />
    <glyph glyph-name="dollar" unicode="$" horiz-adv-x="600" 
d="M193 -115l18 112q-59 7 -112 26.5t-96 52.5l51 119q58 -39 118 -56t119 -17q57 0 91.5 21t34.5 58q0 29 -20 47t-67 30l-104 26q-73 18 -115.5 64.5t-42.5 119.5q0 67 34.5 115t92.5 75.5t128 32.5l18 109h119l-20 -118q42 -9 82.5 -27.5t74.5 -47.5l-53 -111
q-44 37 -95.5 52t-97.5 15q-62 0 -97 -21.5t-35 -57.5q0 -32 18.5 -49.5t56.5 -27.5l104 -26q84 -21 127.5 -68.5t43.5 -115.5q0 -67 -32.5 -113.5t-87 -73t-120.5 -34.5l-17 -111h-119z" />
    <glyph glyph-name="percent" unicode="%" horiz-adv-x="954" 
d="M283 -34l-88 62l510 707l87 -62zM240 280q-81 0 -124 46t-43 121q0 74 23.5 134t68.5 95t109 35q81 0 124.5 -46t43.5 -122q0 -75 -23.5 -134.5t-68.5 -94t-110 -34.5zM240 374q27 0 45 25t27.5 64t10.5 81q1 40 -12 56.5t-36 16.5q-27 0 -45 -25t-27.5 -64t-10.5 -81
q-1 -40 12 -56.5t36 -16.5zM713 -11q-82 0 -125 46t-43 121q0 74 23.5 134t68.5 95t109 35q81 0 124 -46t43 -122q0 -75 -23 -134.5t-68 -94t-109 -34.5zM712 84q27 0 45 25t27.5 64t10.5 81q0 40 -12.5 56.5t-35.5 16.5q-27 0 -45.5 -25.5t-27.5 -64.5t-10 -80
q-1 -40 12 -56.5t36 -16.5z" />
    <glyph glyph-name="ampersand" unicode="&#x26;" horiz-adv-x="745" 
d="M275 -11q-71 0 -123 22t-80.5 61t-28.5 90q0 52 23 94t62.5 75t88.5 58l1 1q-25 30 -36 63t-11 65q0 60 29.5 104t80.5 69t115 25q79 0 126 -41t47 -105q0 -45 -22.5 -82t-58.5 -66.5t-78 -52.5l102 -123q26 39 44 85.5t30 97.5h124q-12 -75 -42.5 -144t-74.5 -124
l139 -161h-173l-59 71q-46 -39 -102.5 -60.5t-122.5 -21.5zM391 613q-38 0 -60 -23t-22 -62q0 -19 7 -37t26 -43q106 42 106 115q0 50 -57 50zM298 106q37 0 67.5 11.5t58.5 33.5l-134 159q-40 -22 -68.5 -52t-28.5 -74q0 -35 26.5 -56.5t78.5 -21.5z" />
    <glyph glyph-name="quotesingle" unicode="'" horiz-adv-x="255" 
d="M103 407l11 298h174l-84 -298h-101z" />
    <glyph glyph-name="parenleft" unicode="(" horiz-adv-x="381" 
d="M174 -197q-41 84 -60.5 173.5t-19.5 174.5q0 110 28.5 214.5t78.5 195.5t114 162l101 -48q-50 -89 -85.5 -179t-55 -187.5t-19.5 -211.5q0 -60 6 -118.5t16 -134.5z" />
    <glyph glyph-name="parenright" unicode=")" horiz-adv-x="381" 
d="M72 -197l-102 48q51 90 87 179.5t55 187.5t19 211q0 60 -5.5 118.5t-16.5 134.5l104 41q41 -84 61 -173t20 -175q0 -110 -28.5 -214.5t-79 -195.5t-114.5 -162z" />
    <glyph glyph-name="asterisk" unicode="*" horiz-adv-x="454" 
d="M215 329l-89 51l67 102l-119 -8v102l120 -9l-67 102l89 52l56 -122l55 122l89 -53l-67 -101l120 9v-102l-120 8l67 -102l-89 -52l-56 123z" />
    <glyph glyph-name="plus" unicode="+" horiz-adv-x="600" 
d="M214 40l31 195h-191l17 104h190l30 189h107l-30 -189h191l-17 -104h-190l-31 -195h-107z" />
    <glyph glyph-name="comma" unicode="," horiz-adv-x="260" 
d="M65 -144l-51 56q28 24 44 44.5t25 43.5h-73l25 160h162l-18 -116q-9 -56 -32.5 -99t-81.5 -89z" />
    <glyph glyph-name="hyphen" unicode="-" horiz-adv-x="440" 
d="M60 209l19 118h308l-18 -118h-309z" />
    <glyph glyph-name="period" unicode="." horiz-adv-x="260" 
d="M10 0l25 160h162l-25 -160h-162z" />
    <glyph glyph-name="slash" unicode="/" horiz-adv-x="331" 
d="M39 -77l-102 46l384 796l103 -46z" />
    <glyph glyph-name="zero" unicode="0" horiz-adv-x="600" 
d="M288 -11q-116 0 -177 70t-61 200q0 140 36.5 242.5t103 158.5t157.5 56q116 0 177 -69.5t61 -198.5q0 -141 -36.5 -244t-103 -159t-157.5 -56zM295 115q60 0 99.5 88.5t41.5 263.5q2 123 -96 123q-60 0 -100.5 -87t-41.5 -264q0 -124 97 -124z" />
    <glyph glyph-name="one" unicode="1" horiz-adv-x="600" 
d="M61 0l20 127h158l62 395l-123 -66l-47 118l244 131h111l-92 -578h148l-21 -127h-460z" />
    <glyph glyph-name="two" unicode="2" horiz-adv-x="600" 
d="M38 0l19 115l250 231q51 46 79 84t28 81q0 36 -25.5 56t-69.5 20q-42 0 -85 -17.5t-87 -49.5l-45 116q53 38 117 59t133 21q65 0 113.5 -23.5t75 -64t26.5 -92.5q0 -58 -20.5 -105t-57.5 -88t-85 -82l-151 -134h281l-20 -127h-476z" />
    <glyph glyph-name="three" unicode="3" horiz-adv-x="600" 
d="M275 -11q-46 0 -93.5 8.5t-90 27t-73.5 47.5l60 110q44 -36 93 -50t104 -14q50 0 83 25.5t33 72.5q0 36 -25 56.5t-74 20.5h-114l19 125h104q53 0 87.5 24t34.5 70q0 35 -26.5 55t-69.5 20q-47 0 -95 -16.5t-92 -50.5l-46 116q54 39 121.5 59.5t133.5 20.5
q76 0 125 -25.5t73.5 -66.5t24.5 -88q1 -65 -38 -110.5t-102 -64.5q53 -18 80.5 -59t27.5 -97q0 -58 -31 -107t-90.5 -79t-143.5 -30z" />
    <glyph glyph-name="four" unicode="4" horiz-adv-x="600" 
d="M295 0l20 126h-299l17 111l398 468h127l-73 -457h94l-18 -122h-94l-20 -126h-152zM334 248l37 234l-195 -234h158z" />
    <glyph glyph-name="five" unicode="5" horiz-adv-x="600" 
d="M279 -11q-62 0 -128 19.5t-112 63.5l60 110q44 -36 88 -50t92 -14q58 0 96 32t38 85q0 43 -28 67.5t-73 24.5q-37 0 -71 -15t-63 -42h-100l70 435h445l-19 -127h-298l-25 -158q54 32 117 32q60 0 103.5 -26t67 -71.5t23.5 -104.5q0 -81 -39 -139.5t-103.5 -90
t-140.5 -31.5z" />
    <glyph glyph-name="six" unicode="6" horiz-adv-x="600" 
d="M312 -11q-121 0 -188 73.5t-67 198.5q0 142 42 244t120 156.5t186 54.5q60 0 113.5 -21t96.5 -62l-61 -109q-71 63 -157 63q-79 0 -128.5 -58t-61.5 -165q26 45 72 69.5t97 24.5q56 0 97.5 -27.5t65 -73.5t23.5 -102q0 -76 -31.5 -136t-88 -95t-130.5 -35zM306 110
q51 0 82 37t31 94q0 43 -26.5 69.5t-69.5 26.5q-50 0 -81.5 -37t-31.5 -94q0 -43 27 -69.5t69 -26.5z" />
    <glyph glyph-name="seven" unicode="7" horiz-adv-x="600" 
d="M31 0l398 576h-330l20 129h507l-19 -116l-401 -589h-175z" />
    <glyph glyph-name="eight" unicode="8" horiz-adv-x="600" 
d="M271 -10q-115 0 -182 49.5t-67 134.5q0 69 39.5 120.5t102.5 69.5q-36 20 -55.5 57t-19.5 86q0 67 36 113.5t97 70t137 23.5q106 0 169 -47t63 -126q0 -59 -34 -108.5t-88 -70.5q42 -19 66.5 -58.5t24.5 -94.5q0 -72 -38 -120.5t-103 -73.5t-148 -25zM327 416
q55 0 88 28.5t33 74.5q0 37 -25 57t-70 20q-57 0 -89.5 -28t-32.5 -75q0 -37 25.5 -57t70.5 -20zM279 108q63 0 101 28t38 80q0 40 -31.5 60.5t-83.5 20.5q-64 0 -101.5 -27t-37.5 -78q0 -42 31 -63t84 -21z" />
    <glyph glyph-name="nine" unicode="9" horiz-adv-x="600" 
d="M242 -11q-60 0 -120 21t-102 62l60 110q76 -64 161 -64q75 0 124.5 58t61.5 165q-25 -44 -72 -69t-97 -25q-56 0 -98 27.5t-65.5 74t-23.5 102.5q0 76 32 136t89 94.5t130 34.5q121 0 187.5 -73t66.5 -198q0 -97 -21 -180t-63 -145t-104.5 -96.5t-145.5 -34.5zM310 368
q51 0 82 37t31 94q0 43 -26.5 70t-68.5 27q-51 0 -82 -37t-31 -94q0 -43 26.5 -70t68.5 -27z" />
    <glyph glyph-name="colon" unicode=":" horiz-adv-x="260" 
d="M62 331l26 160h162l-26 -160h-162zM10 0l26 160h162l-25 -160h-163z" />
    <glyph glyph-name="semicolon" unicode=";" horiz-adv-x="260" 
d="M62 331l26 160h162l-26 -160h-162zM65 -144l-51 56q28 24 44 44.5t25 43.5h-73l25 160h162l-18 -116q-9 -56 -32.5 -99t-81.5 -89z" />
    <glyph glyph-name="less" unicode="&#x3c;" horiz-adv-x="600" 
d="M510 31l-457 200l18 113l520 199l-19 -119l-378 -143l333 -143z" />
    <glyph glyph-name="equal" unicode="=" horiz-adv-x="600" 
d="M70 335l16 104h488l-16 -104h-488zM39 136l16 103h488l-16 -103h-488z" />
    <glyph glyph-name="greater" unicode="&#x3e;" horiz-adv-x="600" 
d="M22 31l19 119l377 143l-333 143l18 107l456 -199l-18 -113z" />
    <glyph glyph-name="question" unicode="?" horiz-adv-x="468" 
d="M181 223l7 48q5 31 14 56t28 49t53 54q14 12 30 26.5t27.5 32.5t11.5 43q0 24 -17 39.5t-54 15.5q-87 0 -172 -67l-46 113q54 43 119.5 63t131.5 20q59 0 101.5 -21.5t66 -57.5t23.5 -80q0 -63 -35 -107.5t-85 -75.5q-36 -25 -56.5 -44.5t-31 -37.5t-16.5 -40l-10 -29
h-90zM110 0l26 160h161l-25 -160h-162z" />
    <glyph glyph-name="at" unicode="@" horiz-adv-x="952" 
d="M496 -166q-97 0 -177 31t-138 88t-90 136t-32 176q0 136 57 237t159.5 157.5t239.5 56.5q120 0 209 -46.5t138.5 -131t49.5 -198.5q0 -86 -25 -149t-69 -97.5t-103 -34.5q-100 0 -129 83q-27 -42 -64 -62.5t-79 -20.5q-82 0 -127 51t-45 139q0 73 27.5 130t75.5 89.5
t110 32.5q85 0 119 -67l11 57h109l-41 -231q-6 -37 -6 -58q0 -57 47 -57q43 0 70.5 54t27.5 141q0 138 -81 212.5t-226 74.5q-107 0 -186.5 -44.5t-123.5 -125.5t-44 -192q0 -107 41.5 -183.5t116.5 -117.5t178 -41q144 0 236 75l44 -77q-48 -41 -120.5 -64t-159.5 -23z
M466 151q51 0 83.5 46.5t32.5 122.5q0 88 -77 88q-52 0 -85 -43.5t-33 -114.5q0 -49 20.5 -74t58.5 -25z" />
    <glyph glyph-name="A" unicode="A" horiz-adv-x="753" 
d="M-49 0l437 705h125l211 -705h-148l-40 153h-332l-90 -153h-163zM431 540l-156 -266h228l-70 266h-2z" />
    <glyph glyph-name="B" unicode="B" horiz-adv-x="695" 
d="M32 0l112 705h303q81 0 131 -22t73 -60t23 -86q0 -67 -38 -112.5t-101 -64.5q50 -18 78 -57t28 -92q0 -103 -70 -157t-191 -54h-348zM247 415h153q60 0 92.5 26t32.5 76q0 35 -25 54t-78 19h-148zM199 115h172q61 0 91 27.5t30 77.5q0 80 -104 80h-160z" />
    <glyph glyph-name="C" unicode="C" horiz-adv-x="683" 
d="M398 -11q-95 0 -170 36t-118 108t-43 179q0 85 26 158t75.5 128.5t122 86.5t165.5 31q73 0 136 -22.5t100 -58.5l-61 -123q-80 67 -178 67q-72 0 -121.5 -34.5t-74.5 -94t-25 -133.5q0 -100 45.5 -145.5t138.5 -45.5q43 0 87 14.5t90 47.5l41 -122q-43 -37 -107.5 -57
t-128.5 -20z" />
    <glyph glyph-name="D" unicode="D" horiz-adv-x="774" 
d="M32 0l112 705h238q172 0 266 -80.5t94 -224.5q1 -113 -45 -204t-136.5 -143.5t-224.5 -52.5h-304zM207 127h131q83 0 136.5 34.5t79.5 95.5t26 141q0 87 -50 133.5t-148 46.5h-103z" />
    <glyph glyph-name="E" unicode="E" horiz-adv-x="605" 
d="M33 0l111 705h483l-19 -121h-335l-26 -165h313l-19 -122h-313l-28 -176h334l-19 -121h-482z" />
    <glyph glyph-name="F" unicode="F" horiz-adv-x="570" 
d="M33 0l111 705h476l-19 -121h-320l-28 -172h299l-19 -121h-299l-46 -291h-155z" />
    <glyph glyph-name="G" unicode="G" horiz-adv-x="742" 
d="M402 -11q-98 0 -174 36.5t-118.5 107.5t-42.5 174q0 117 46.5 209.5t136.5 146t218 53.5q80 0 143 -22t98 -55l-60 -122q-83 64 -189 64q-75 0 -126.5 -36t-78.5 -96.5t-27 -134.5q0 -99 52 -146t145 -47q27 0 54 4t54 12l23 140h-152l17 112h280l-55 -352
q-52 -24 -117 -36t-127 -12z" />
    <glyph glyph-name="H" unicode="H" horiz-adv-x="780" 
d="M32 0l112 705h155l-45 -283h327l46 283h155l-112 -705h-155l46 293h-328l-46 -293h-155z" />
    <glyph glyph-name="I" unicode="I" horiz-adv-x="297" 
d="M32 0l112 705h155l-112 -705h-155z" />
    <glyph glyph-name="J" unicode="J" horiz-adv-x="372" 
d="M-36 -10l3 126l78 4q42 3 65 25t31 68l78 492h155l-80 -503q-10 -65 -36 -109.5t-75 -69t-127 -28.5z" />
    <glyph glyph-name="K" unicode="K" horiz-adv-x="687" 
d="M32 0l112 705h155l-49 -307h2l334 307h194l-381 -348l284 -357h-176l-266 326h-2l-52 -326h-155z" />
    <glyph glyph-name="L" unicode="L" horiz-adv-x="573" 
d="M32 0l112 705h155l-91 -574h326l-21 -131h-481z" />
    <glyph glyph-name="M" unicode="M" horiz-adv-x="876" 
d="M34 0l112 705h123l167 -436l307 436h133l-112 -705h-140l68 432l-231 -326h-86l-133 323l-68 -429h-140z" />
    <glyph glyph-name="N" unicode="N" horiz-adv-x="752" 
d="M32 0l112 705h115l278 -464l73 464h144l-112 -705h-114l-279 464l-73 -464h-144z" />
    <glyph glyph-name="O" unicode="O" horiz-adv-x="796" 
d="M388 -11q-97 0 -169.5 37t-112.5 107t-40 169q0 121 46.5 214.5t130.5 146.5t199 53q98 0 170.5 -37t112 -107t39.5 -168q0 -122 -46 -215.5t-130.5 -146.5t-199.5 -53zM391 121q67 0 114.5 36t72.5 99t25 145q0 93 -44 138t-120 45q-67 0 -114 -35.5t-72 -98.5t-25 -146
q0 -93 43.5 -138t119.5 -45z" />
    <glyph glyph-name="P" unicode="P" horiz-adv-x="664" 
d="M32 0l112 705h285q123 0 185 -52.5t62 -147.5q0 -120 -73 -185.5t-212 -65.5h-164l-40 -254h-155zM247 374h150q130 0 130 118q0 92 -117 92h-130z" />
    <glyph glyph-name="Q" unicode="Q" horiz-adv-x="796" 
d="M544 -220l-76 160q-12 27 -32.5 38t-62.5 11l1 1q-93 2 -162.5 40t-107.5 106.5t-38 165.5q0 121 46.5 214.5t130.5 146.5t199 53q98 0 170.5 -37t112 -107t39.5 -168q0 -134 -55.5 -233.5t-154.5 -146.5q39 -15 61 -61l62 -134zM391 121q67 0 114.5 36t72.5 99t25 145
q0 93 -44 138t-120 45q-67 0 -114 -35.5t-72 -98.5t-25 -146q0 -93 43.5 -138t119.5 -45z" />
    <glyph glyph-name="R" unicode="R" horiz-adv-x="696" 
d="M32 0l112 705h289q118 0 180.5 -53t62.5 -145q0 -98 -52.5 -153.5t-137.5 -71.5q27 -11 46.5 -35t32.5 -58l72 -189h-159l-81 214q-12 32 -31 45.5t-53 13.5h-83l-42 -273h-156zM248 385h152q61 0 94 27.5t33 81.5q0 45 -28.5 67.5t-90.5 22.5h-128z" />
    <glyph glyph-name="S" unicode="S" horiz-adv-x="641" 
d="M302 -11q-78 0 -152 20.5t-130 63.5l53 118q59 -40 121.5 -56.5t121.5 -16.5q64 0 99.5 23t35.5 59q0 29 -21 48t-70 30l-113 27q-74 17 -117.5 63t-43.5 119q0 72 40 123.5t106 78.5t143 27q66 0 133.5 -20t121.5 -62l-55 -112q-46 35 -99.5 50t-102.5 15
q-61 0 -97.5 -23.5t-36.5 -62.5q0 -30 19.5 -47.5t58.5 -27.5l112 -27q85 -19 130 -66.5t45 -113.5q0 -77 -42 -128t-111 -76.5t-149 -25.5z" />
    <glyph glyph-name="T" unicode="T" horiz-adv-x="632" 
d="M200 0l91 577h-233l21 128h621l-20 -128h-233l-92 -577h-155z" />
    <glyph glyph-name="U" unicode="U" horiz-adv-x="742" 
d="M346 -11q-91 0 -158 35.5t-98 107t-14 181.5l62 392h156l-64 -402q-13 -88 18.5 -135t109.5 -47q71 0 113.5 38t56.5 120l67 426h154l-67 -421q-23 -143 -102 -219t-234 -76z" />
    <glyph glyph-name="V" unicode="V" horiz-adv-x="727" 
d="M261 0l-205 705h155l137 -506l298 506h171l-429 -705h-127z" />
    <glyph glyph-name="W" unicode="W" horiz-adv-x="1120" 
d="M229 0l-140 705h150l86 -483l248 483h113l88 -487l244 487h159l-364 -705h-126l-91 467l-241 -467h-126z" />
    <glyph glyph-name="X" unicode="X" horiz-adv-x="685" 
d="M-54 0l322 364l-203 341h170l138 -243l204 243h190l-314 -355l209 -350h-172l-145 251l-210 -251h-189z" />
    <glyph glyph-name="Y" unicode="Y" horiz-adv-x="631" 
d="M199 0l50 318l-210 387h170l132 -250l211 250h184l-331 -386l-51 -319h-155z" />
    <glyph glyph-name="Z" unicode="Z" horiz-adv-x="615" 
d="M7 0l18 115l416 461h-342l20 129h532l-18 -114l-415 -462h358l-20 -129h-549z" />
    <glyph glyph-name="bracketleft" unicode="[" horiz-adv-x="377" 
d="M37 -180l140 885h258l-18 -112h-107l-104 -661h107l-18 -112h-258z" />
    <glyph glyph-name="backslash" unicode="\" horiz-adv-x="331" 
d="M193 -77l-136 820l112 22l136 -819z" />
    <glyph glyph-name="bracketright" unicode="]" horiz-adv-x="377" 
d="M-53 -180l17 112h108l105 661h-108l18 112h258l-140 -885h-258z" />
    <glyph glyph-name="asciicircum" unicode="^" horiz-adv-x="600" 
d="M28 140l277 488h112l122 -488h-108l-87 356l-199 -356h-117z" />
    <glyph glyph-name="underscore" unicode="_" horiz-adv-x="500" 
d="M-32 -88l14 88h459l-14 -88h-459z" />
    <glyph glyph-name="grave" unicode="`" horiz-adv-x="500" 
d="M249 555l-142 205h143l98 -205h-99z" />
    <glyph glyph-name="a" unicode="a" horiz-adv-x="557" 
d="M189 -11q-46 0 -84 21.5t-60 56.5t-22 76q0 78 66.5 113.5t208.5 35.5h68l2 13q7 41 -14.5 63t-72.5 22q-88 0 -170 -49l-31 102q39 26 99.5 42t122.5 16q84 0 132 -31t65 -83.5t6 -117.5l-42 -269h-141l11 72q-24 -43 -62 -63t-82 -20zM240 90q43 0 72.5 26.5t36.5 71.5
l5 26h-53q-73 0 -103 -13.5t-30 -47.5q0 -30 20.5 -46.5t51.5 -16.5z" />
    <glyph glyph-name="b" unicode="b" horiz-adv-x="610" 
d="M331 -11q-52 0 -92.5 23t-59.5 67l-12 -79h-148l112 705h151l-44 -281q28 37 68 57t89 20q83 0 133 -57t50 -155q0 -85 -30 -153t-85.5 -107.5t-131.5 -39.5zM300 102q60 0 93 51t33 128q0 52 -24.5 79.5t-67.5 27.5q-60 0 -93 -51t-33 -127q0 -52 24.5 -80t67.5 -28z
" />
    <glyph glyph-name="c" unicode="c" horiz-adv-x="478" 
d="M278 -11q-123 0 -184 62.5t-61 164.5q0 55 17.5 106t52.5 91.5t89.5 64t127.5 23.5q49 0 94.5 -13.5t75.5 -37.5l-45 -104q-21 18 -51.5 29t-62.5 11q-53 0 -84.5 -25t-45.5 -63.5t-14 -79.5q0 -51 26.5 -82t87.5 -31q26 0 56 10t55 29l32 -105q-29 -24 -76 -37t-90 -13z
" />
    <glyph glyph-name="d" unicode="d" horiz-adv-x="610" 
d="M215 -11q-83 0 -133 57.5t-50 155.5q0 85 30 152.5t85.5 107t130.5 39.5q51 0 90.5 -21.5t59.5 -63.5l46 289h151l-112 -705h-148l12 74q-27 -40 -69 -62.5t-93 -22.5zM276 102q60 0 93 51t33 128q0 52 -24.5 79.5t-67.5 27.5q-60 0 -93 -51t-33 -127q0 -52 24.5 -80
t67.5 -28z" />
    <glyph glyph-name="e" unicode="e" horiz-adv-x="549" 
d="M286 -11q-77 0 -134 28.5t-88 79t-31 118.5q0 84 35.5 148.5t98 101t142.5 36.5q82 0 131 -35.5t68 -95t10 -131.5l-4 -26h-341q1 -53 34 -82t94 -29q42 0 81.5 12t70.5 35l33 -99q-36 -28 -89 -44.5t-111 -16.5zM308 401q-54 0 -84 -32.5t-40 -77.5h218q3 47 -19.5 78.5
t-74.5 31.5z" />
    <glyph glyph-name="f" unicode="f" horiz-adv-x="382" 
d="M57 0l61 378h-93l17 113h93l3 15q14 90 73 143.5t184 58.5l64 3l-3 -110l-54 -3q-54 -3 -80.5 -23.5t-32.5 -63.5l-3 -20h126l-18 -113h-125l-61 -378h-151z" />
    <glyph glyph-name="g" unicode="g" horiz-adv-x="615" 
d="M260 -191q-74 0 -135.5 17t-112.5 50l45 103q42 -26 87 -41.5t94 -15.5q57 0 92.5 24t44.5 79l10 62q-25 -37 -66 -56t-89 -19q-89 0 -143 53.5t-54 148.5q0 78 31 143.5t87.5 104.5t131.5 39q52 0 92.5 -21.5t59.5 -63.5l12 75h148l-73 -458q-16 -107 -81.5 -165.5
t-180.5 -58.5zM279 125q41 0 70 23t44.5 60.5t15.5 81.5q0 45 -25 71.5t-71 26.5q-41 0 -69.5 -22.5t-43.5 -60t-15 -82.5q-1 -45 24 -71.5t70 -26.5z" />
    <glyph glyph-name="h" unicode="h" horiz-adv-x="595" 
d="M19 0l112 705h151l-44 -282q54 78 161 78q80 0 122.5 -50t25.5 -159l-46 -292h-151l45 289q16 95 -61 95q-51 0 -82 -32.5t-40 -89.5l-42 -262h-151z" />
    <glyph glyph-name="i" unicode="i" horiz-adv-x="268" 
d="M107 586l23 141h162l-22 -141h-163zM19 0l78 491h151l-78 -491h-151z" />
    <glyph glyph-name="j" unicode="j" horiz-adv-x="273" 
d="M110 586l23 141h162l-22 -141h-163zM-95 -193l-10 108l49 5q36 3 55 22t25 56l78 493h151l-75 -474q-11 -70 -36 -114t-71 -66t-121 -27z" />
    <glyph glyph-name="k" unicode="k" horiz-adv-x="558" 
d="M20 0l111 705h151l-65 -417h2l209 203h177l-242 -242l180 -249h-173l-162 219h-2l-35 -219h-151z" />
    <glyph glyph-name="l" unicode="l" horiz-adv-x="333" 
d="M206 -11q-92 0 -132 50.5t-25 146.5l82 519h151l-82 -517q-11 -77 58 -77q10 0 21 1l22 2l-20 -115q-33 -10 -75 -10z" />
    <glyph glyph-name="m" unicode="m" horiz-adv-x="889" 
d="M21 0l78 491h148l-12 -73q29 43 70 63t85 20q101 0 134 -93q55 93 171 93q77 0 118.5 -50t24.5 -159l-46 -292h-151l46 291q14 93 -55 93q-43 0 -71 -32t-37 -90l-42 -262h-151l46 291q15 93 -55 93q-42 0 -70.5 -32t-37.5 -90l-42 -262h-151z" />
    <glyph glyph-name="n" unicode="n" horiz-adv-x="595" 
d="M19 0l78 491h148l-12 -75q54 85 166 85q80 0 122.5 -50t25.5 -159l-46 -292h-151l45 289q16 95 -61 95q-51 0 -82 -32.5t-40 -89.5l-42 -262h-151z" />
    <glyph glyph-name="o" unicode="o" horiz-adv-x="589" 
d="M274 -11q-114 0 -177.5 61.5t-63.5 164.5q0 91 39 155t103.5 97.5t138.5 33.5q114 0 178 -61.5t64 -163.5q0 -92 -39.5 -156t-103.5 -97.5t-139 -33.5zM278 102q59 0 92.5 51t33.5 128q0 52 -25 79.5t-68 27.5q-60 0 -93 -51t-33 -127q0 -52 24.5 -80t68.5 -28z" />
    <glyph glyph-name="p" unicode="p" horiz-adv-x="610" 
d="M-9 -180l106 671h148l-11 -72q27 39 68.5 60.5t92.5 21.5q83 0 133 -57t50 -155q0 -85 -30 -153t-85.5 -107.5t-131.5 -39.5q-50 0 -89.5 21.5t-59.5 62.5l-40 -253h-151zM300 102q60 0 93 51t33 128q0 52 -24.5 79.5t-67.5 27.5q-60 0 -93 -51t-33 -127q0 -52 24.5 -80
t67.5 -28z" />
    <glyph glyph-name="q" unicode="q" horiz-adv-x="610" 
d="M333 -180l40 248q-28 -37 -68.5 -58t-89.5 -21q-83 0 -133 57.5t-50 155.5q0 85 30 152.5t85.5 107t130.5 39.5q53 0 93.5 -23t59.5 -68l12 81h148l-107 -671h-151zM276 102q60 0 93 51t33 128q0 52 -24.5 79.5t-67.5 27.5q-60 0 -93 -51t-33 -127q0 -52 24.5 -80
t67.5 -28z" />
    <glyph glyph-name="r" unicode="r" horiz-adv-x="412" 
d="M19 0l78 491h148l-14 -84q23 41 63 65.5t95 28.5l46 3l-5 -127l-96 -10q-60 -6 -86.5 -35t-35.5 -86l-39 -246h-154z" />
    <glyph glyph-name="s" unicode="s" horiz-adv-x="492" 
d="M228 -11q-64 0 -121 15t-96 43l44 97q36 -24 82 -37.5t90 -13.5q43 0 64.5 15t21.5 38q0 33 -47 42l-91 17q-59 10 -91 43.5t-32 84.5q0 45 26.5 83.5t78.5 61.5t128 23q47 0 96.5 -13.5t85.5 -40.5l-42 -95q-33 23 -71.5 34.5t-76.5 11.5q-45 0 -67.5 -16t-22.5 -41
q0 -14 9.5 -24.5t31.5 -14.5l90 -17q130 -24 130 -128q0 -81 -60.5 -124.5t-159.5 -43.5z" />
    <glyph glyph-name="t" unicode="t" horiz-adv-x="404" 
d="M270 -11q-106 0 -153 56.5t-33 145.5l30 187h-93l17 113h93l23 144h151l-23 -144h146l-18 -113h-145l-29 -179q-8 -47 12 -67t59 -20q25 0 54 9l7 -112q-19 -9 -46 -14.5t-52 -5.5z" />
    <glyph glyph-name="u" unicode="u" horiz-adv-x="590" 
d="M194 -11q-78 0 -120.5 50.5t-24.5 159.5l46 292h151l-46 -290q-15 -94 60 -94q47 0 78 32.5t40 89.5l41 262h151l-78 -491h-147l11 73q-55 -84 -162 -84z" />
    <glyph glyph-name="v" unicode="v" horiz-adv-x="534" 
d="M163 0l-135 491h152l73 -312l176 312h156l-294 -491h-128z" />
    <glyph glyph-name="w" unicode="w" horiz-adv-x="861" 
d="M158 0l-122 491h144l67 -312l166 312h99l68 -320l169 320h154l-277 -491h-128l-64 279l-150 -279h-126z" />
    <glyph glyph-name="x" unicode="x" horiz-adv-x="559" 
d="M-52 0l246 255l-155 236h170l87 -141l124 141h179l-229 -243l165 -248h-170l-96 150l-142 -150h-179z" />
    <glyph glyph-name="y" unicode="y" horiz-adv-x="533" 
d="M28 -180l128 207l-129 464h152l73 -312l177 312h156l-403 -671h-154z" />
    <glyph glyph-name="z" unicode="z" horiz-adv-x="480" 
d="M7 0l16 97l271 281h-227l18 113h399l-15 -97l-273 -282h239l-18 -112h-410z" />
    <glyph glyph-name="braceleft" unicode="{" horiz-adv-x="414" 
d="M232 -180q-76 0 -111 38t-26 95l28 174q6 39 -3 56t-44 20l-41 5l17 108l42 5q34 3 49.5 20t21.5 56l28 175q11 68 47.5 100.5t94.5 32.5h137l-19 -112h-63q-19 0 -32.5 -9t-17.5 -34l-26 -171q-8 -48 -38.5 -78.5t-62.5 -36.5q29 -8 49.5 -40t13.5 -79l-26 -170
q-4 -25 4.5 -34t28.5 -9h66l-18 -112h-99z" />
    <glyph glyph-name="bar" unicode="|" horiz-adv-x="302" 
d="M9 -180l140 885h151l-140 -885h-151z" />
    <glyph glyph-name="braceright" unicode="}" horiz-adv-x="414" 
d="M-52 -180l18 112h64q19 0 32.5 9t16.5 34l27 171q7 48 38 78.5t62 37.5q-29 8 -49.5 39.5t-13.5 79.5l27 169q4 25 -5 34t-28 9h-67l18 112h100q76 0 111 -38t26 -95l-28 -174q-6 -38 3 -55.5t43 -20.5l42 -4l-17 -109l-42 -4q-34 -4 -50 -21t-22 -56l-28 -175
q-10 -68 -47 -100.5t-94 -32.5h-137z" />
    <glyph glyph-name="asciitilde" unicode="~" horiz-adv-x="600" 
d="M416 204q-32 0 -64 12.5t-60 25.5q-24 13 -45.5 22t-39.5 9q-25 0 -44 -15.5t-34 -44.5l-70 50q24 51 58 79.5t79 28.5q33 0 65 -13t61 -26q24 -12 44.5 -21t38.5 -9q47 0 80 60l70 -52q-25 -49 -59.5 -77.5t-79.5 -28.5z" />
    <glyph glyph-name="uni00A0" unicode="&#xa0;" horiz-adv-x="278" 
 />
    <glyph glyph-name="exclamdown" unicode="&#xa1;" horiz-adv-x="260" 
d="M62 331l26 160h162l-26 -160h-162zM-31 -180l118 443h91l-23 -443h-186z" />
    <glyph glyph-name="cent" unicode="&#xa2;" horiz-adv-x="600" 
d="M198 -115l20 127q-71 23 -106 77t-35 127q0 62 23 119t71 98t122 55l20 122h119l-19 -117q79 -9 129 -49l-43 -104q-47 41 -122 41q-54 0 -86 -24.5t-46 -62.5t-14 -76q0 -45 26.5 -75.5t89.5 -30.5q64 0 117 40l32 -106q-25 -21 -71 -34.5t-91 -14.5l-17 -112h-119z" />
    <glyph glyph-name="sterling" unicode="&#xa3;" horiz-adv-x="600" 
d="M3 0l20 125h74l29 180h-75l15 97h76l13 87q18 114 82.5 170.5t184.5 56.5q65 0 121.5 -22t93.5 -53l-62 -106q-35 32 -71 45t-73 13q-54 0 -83 -25.5t-37 -72.5l-14 -93h157l-15 -97h-158l-29 -180h296l-20 -125h-525z" />
    <glyph glyph-name="currency" unicode="&#xa4;" horiz-adv-x="600" 
d="M85 -32l-56 56l73 75q-21 31 -33.5 68t-12.5 78t12 78.5t34 68.5l-73 74l57 57l73 -75q30 21 65.5 33t74.5 12q78 0 139 -44l74 76l60 -61l-75 -75q44 -64 44 -144q0 -40 -12 -77t-33 -68l74 -76l-56 -55l-73 75q-30 -22 -66 -34.5t-76 -12.5q-39 0 -75 12t-66 33z
M299 116q34 0 61.5 17.5t43.5 47t16 64.5q0 36 -16 65.5t-43.5 47t-61.5 17.5q-33 0 -61 -17.5t-44.5 -47t-16.5 -65.5q0 -35 16 -64.5t44 -47t62 -17.5z" />
    <glyph glyph-name="yen" unicode="&#xa5;" horiz-adv-x="600" 
d="M183 0l24 154h-156l15 96h157l10 62h-157l15 95h114l-155 298h161l117 -241l193 241h174l-248 -298h113l-15 -95h-157l-10 -62h157l-15 -96h-157l-25 -154h-155z" />
    <glyph glyph-name="brokenbar" unicode="&#xa6;" horiz-adv-x="302" 
d="M96 372l53 333h151l-53 -333h-151zM9 -180l53 334h151l-53 -334h-151z" />
    <glyph glyph-name="section" unicode="&#xa7;" horiz-adv-x="584" 
d="M233 -191q-63 0 -122 17.5t-109 50.5l48 96q34 -27 83 -43.5t95 -16.5t73.5 21.5t27.5 57.5q0 27 -13 44t-43 33l-122 67q-54 30 -82 70t-28 85q0 53 23 91t67 67q-14 30 -14 67q0 64 33 108.5t87.5 68t119.5 23.5q57 0 111 -15.5t100 -47.5l-42 -95q-35 24 -80 39
t-85 15q-46 0 -73 -21.5t-27 -58.5q0 -26 13 -43.5t43 -34.5l121 -66q111 -62 111 -156q0 -51 -23.5 -89.5t-66.5 -67.5q14 -29 14 -64q0 -65 -32.5 -110t-87 -68.5t-120.5 -23.5zM174 319q0 -25 17 -46t48 -39l112 -59q13 -8 24 -15.5t19 -15.5q11 15 16.5 31t5.5 31
q0 25 -17.5 45.5t-49.5 39.5l-110 58q-14 8 -25 16t-19 17q-11 -17 -16 -33t-5 -30z" />
    <glyph glyph-name="dieresis" unicode="&#xa8;" horiz-adv-x="500" 
d="M339 590l19 132h132l-20 -132h-131zM141 590l21 132h131l-20 -132h-132z" />
    <glyph glyph-name="copyright" unicode="&#xa9;" horiz-adv-x="815" 
d="M425 -11q-77 0 -143.5 28t-116 77.5t-77 115.5t-27.5 143t27.5 143t77 115.5t116 77t143.5 27.5t143 -27.5t115.5 -77t77 -115.5t27.5 -143t-27.5 -143t-77 -115.5t-115.5 -77.5t-143 -28zM425 48q87 0 155 40t107 109t39 156t-39 155.5t-107 108.5t-155 40t-155 -40
t-107.5 -108.5t-39.5 -155.5t39.5 -156t107.5 -109t155 -40zM446 137q-102 0 -162.5 58.5t-60.5 157.5q0 100 60.5 157.5t162.5 57.5q39 0 79 -12t66 -33l-35 -89q-44 37 -99 37q-50 0 -78.5 -31t-28.5 -87q0 -55 28.5 -86.5t78.5 -31.5q57 0 99 37l35 -89
q-26 -21 -66 -33.5t-79 -12.5z" />
    <glyph glyph-name="ordfeminine" unicode="&#xaa;" horiz-adv-x="346" 
d="M163 406q-44 0 -73.5 28t-29.5 66q0 46 45.5 68t131.5 22h42l1 6q8 49 -52 49q-27 0 -53.5 -5.5t-52.5 -19.5l-21 64q24 16 62.5 24t76.5 8q78 0 109 -41.5t21 -100.5l-25 -161h-90l9 55h-3q-35 -62 -98 -62zM197 469q26 0 47 17t25 42l2 13h-32q-84 0 -84 -35
q0 -17 11.5 -27t30.5 -10z" />
    <glyph glyph-name="guillemotleft" unicode="&#xab;" horiz-adv-x="525" 
d="M127 68l-73 162l11 73l131 162l97 -48l-109 -157l46 -149zM349 68l-73 162l11 73l131 162l97 -48l-109 -157l46 -149z" />
    <glyph glyph-name="logicalnot" unicode="&#xac;" horiz-adv-x="600" 
d="M419 135l32 201h-381l17 103h487l-48 -304h-107z" />
    <glyph glyph-name="uni00AD" unicode="&#xad;" horiz-adv-x="440" 
d="M60 209l19 118h308l-18 -118h-309z" />
    <glyph glyph-name="registered" unicode="&#xae;" horiz-adv-x="815" 
d="M425 -11q-77 0 -143.5 28t-116 77.5t-77 115.5t-27.5 143t27.5 143t77 115.5t116 77t143.5 27.5t143 -27.5t115.5 -77t77 -115.5t27.5 -143t-27.5 -143t-77 -115.5t-115.5 -77.5t-143 -28zM425 48q87 0 155 40t107 109t39 156t-39 155.5t-107 108.5t-155 40t-155 -40
t-107.5 -108.5t-39.5 -155.5t39.5 -156t107.5 -109t155 -40zM263 142v423h190q72 0 111 -35.5t39 -90.5q0 -44 -22 -72.5t-62 -39.5q20 -6 33.5 -24t22.5 -54l32 -107h-115l-34 122q-6 20 -18 27t-30 7h-33v-156h-114zM376 381h61q59 0 59 51t-59 51h-61v-102z" />
    <glyph glyph-name="macron" unicode="&#xaf;" horiz-adv-x="500" 
d="M146 611l13 85h326l-13 -85h-326z" />
    <glyph glyph-name="degree" unicode="&#xb0;" horiz-adv-x="384" 
d="M241 394q-47 0 -83.5 20.5t-57.5 56.5t-21 81t21 81t58 56.5t83 20.5t82.5 -20.5t58 -56.5t21.5 -81t-21.5 -81t-58 -56.5t-82.5 -20.5zM241 475q31 0 52.5 22t21.5 55t-21.5 55t-52.5 22q-32 0 -53 -22t-21 -55t21 -55t53 -22z" />
    <glyph glyph-name="plusminus" unicode="&#xb1;" horiz-adv-x="600" 
d="M231 146l22 141h-190l17 104h190l22 141h107l-22 -141h191l-17 -104h-191l-22 -141h-107zM18 0l15 103h488l-15 -103h-488z" />
    <glyph glyph-name="uni00B2" unicode="&#xb2;" horiz-adv-x="380" 
d="M50 282l14 87l148 129q23 21 36 40.5t13 38.5q1 35 -46 35q-24 0 -48 -10t-45 -26l-30 88q71 45 156 45q69 0 105.5 -35t35.5 -81q0 -44 -24.5 -78.5t-76.5 -75.5l-70 -59h156l-16 -98h-308z" />
    <glyph glyph-name="uni00B3" unicode="&#xb3;" horiz-adv-x="380" 
d="M200 277q-47 0 -91.5 13t-70.5 38l42 78q24 -20 51.5 -27.5t66.5 -7.5q27 0 43.5 10.5t16.5 33.5q1 33 -51 33h-83l16 93h73q28 0 45 9.5t18 30.5q0 34 -53 34q-28 0 -55 -8.5t-52 -25.5l-29 83q72 45 155 45q68 0 108 -28.5t41 -75.5q0 -36 -24.5 -65t-63.5 -41
q32 -11 50.5 -35.5t18.5 -57.5q0 -37 -22.5 -66.5t-61.5 -46t-88 -16.5z" />
    <glyph glyph-name="acute" unicode="&#xb4;" horiz-adv-x="500" 
d="M250 555l132 205h147l-180 -205h-99z" />
    <glyph glyph-name="uni00B5" unicode="&#xb5;" horiz-adv-x="600" 
d="M-5 -180l107 671h151l-46 -290q-15 -94 60 -94q47 0 78 32.5t40 89.5l41 262h151l-77 -491h-148l14 91q-15 -49 -45 -75.5t-68 -26.5q-63 0 -84 46l-23 -215h-151z" />
    <glyph glyph-name="paragraph" unicode="&#xb6;" horiz-adv-x="645" 
d="M184 -180l70 445q-58 0 -100.5 25.5t-65.5 69t-23 97.5q0 74 31 130t87 87t132 31h332l-140 -885h-106l123 780h-110l-124 -780h-106z" />
    <glyph glyph-name="periodcentered" unicode="&#xb7;" horiz-adv-x="260" 
d="M40 188l25 160h162l-25 -160h-162z" />
    <glyph glyph-name="cedilla" unicode="&#xb8;" horiz-adv-x="500" 
d="M188 -197q-31 0 -59.5 5.5t-48.5 16.5l27 64q35 -18 73 -18q54 0 54 28q0 18 -35 18q-8 0 -17 -1t-21 -4l-19 20l27 88h76l-18 -54h4q42 0 65 -18t23 -50q0 -43 -37.5 -69t-93.5 -26z" />
    <glyph glyph-name="uni00B9" unicode="&#xb9;" horiz-adv-x="380" 
d="M60 282l15 98h104l29 186l-77 -38l-39 92l172 85h86l-51 -325h79l-16 -98h-302z" />
    <glyph glyph-name="ordmasculine" unicode="&#xba;" horiz-adv-x="361" 
d="M225 408q-68 0 -112.5 39t-44.5 105q0 51 22.5 87.5t60.5 56.5t85 20q69 0 113.5 -39t44.5 -105q0 -50 -23 -87t-61 -57t-85 -20zM227 481q30 0 49.5 23t19.5 69q0 35 -17 53t-44 18q-31 0 -50 -23t-19 -69q0 -35 17 -53t44 -18z" />
    <glyph glyph-name="guillemotright" unicode="&#xbb;" horiz-adv-x="525" 
d="M113 68l-97 49l109 156l-45 149l103 43l73 -161l-12 -74zM335 68l-97 49l109 156l-45 149l103 43l73 -161l-12 -74z" />
    <glyph glyph-name="onequarter" unicode="&#xbc;" horiz-adv-x="922" 
d="M60 282l15 98h104l29 186l-77 -38l-39 92l172 85h86l-51 -325h79l-16 -98h-302zM291 -30l-86 57l523 708l86 -56zM706 0l11 66h-185l13 81l235 276h107l-42 -263h50l-15 -94h-49l-11 -66h-114zM733 160l19 113l-96 -113h77z" />
    <glyph glyph-name="onehalf" unicode="&#xbd;" horiz-adv-x="972" 
d="M60 282l15 98h104l29 186l-77 -38l-39 92l172 85h86l-51 -325h79l-16 -98h-302zM291 -30l-86 57l523 708l86 -56zM597 0l14 87l148 129q23 21 36 40.5t13 38.5q1 35 -46 35q-24 0 -48 -10t-45 -26l-30 88q71 45 156 45q69 0 105.5 -35t35.5 -81q0 -44 -24.5 -78.5
t-76.5 -75.5l-70 -59h156l-16 -98h-308z" />
    <glyph glyph-name="threequarters" unicode="&#xbe;" horiz-adv-x="922" 
d="M200 277q-47 0 -91.5 13t-70.5 38l42 78q24 -20 51.5 -27.5t66.5 -7.5q27 0 43.5 10.5t16.5 33.5q1 33 -51 33h-83l16 93h73q28 0 45 9.5t18 30.5q0 34 -53 34q-28 0 -55 -8.5t-52 -25.5l-29 83q72 45 155 45q68 0 108 -28.5t41 -75.5q0 -36 -24.5 -65t-63.5 -41
q32 -11 50.5 -35.5t18.5 -57.5q0 -37 -22.5 -66.5t-61.5 -46t-88 -16.5zM291 -30l-86 57l523 708l86 -56zM706 0l11 66h-185l13 81l235 276h107l-42 -263h50l-15 -94h-49l-11 -66h-114zM733 160l19 113l-96 -113h77z" />
    <glyph glyph-name="questiondown" unicode="&#xbf;" horiz-adv-x="468" 
d="M170 330l25 160h162l-25 -160h-162zM164 -191q-60 0 -104.5 20t-68.5 54t-24 76q0 55 30.5 96t83.5 72q53 32 74 57t31 55l10 28h90l-7 -42q-6 -45 -26 -79t-68 -67q-32 -22 -48 -42t-16 -46q0 -23 17.5 -38t51.5 -15q44 0 87.5 13t86.5 46l45 -113q-53 -41 -116.5 -58
t-128.5 -17z" />
    <glyph glyph-name="Agrave" unicode="&#xc0;" horiz-adv-x="753" 
d="M-49 0l437 705h125l211 -705h-148l-40 153h-332l-90 -153h-163zM431 540l-156 -266h228l-70 266h-2zM406 765l-152 175h151l106 -175h-105z" />
    <glyph glyph-name="Aacute" unicode="&#xc1;" horiz-adv-x="753" 
d="M-49 0l437 705h125l211 -705h-148l-40 153h-332l-90 -153h-163zM431 540l-156 -266h228l-70 266h-2zM406 765l130 175h157l-182 -175h-105z" />
    <glyph glyph-name="Acircumflex" unicode="&#xc2;" horiz-adv-x="753" 
d="M-49 0l437 705h125l211 -705h-148l-40 153h-332l-90 -153h-163zM431 540l-156 -266h228l-70 266h-2zM264 765l142 175h126l109 -175h-104l-75 95l-95 -95h-103z" />
    <glyph glyph-name="Atilde" unicode="&#xc3;" horiz-adv-x="753" 
d="M-49 0l437 705h125l211 -705h-148l-40 153h-332l-90 -153h-163zM431 540l-156 -266h228l-70 266h-2zM296 766l-72 4q12 76 51.5 116.5t98.5 40.5q29 0 55 -11t50 -22q20 -11 38.5 -19t36.5 -8q55 0 73 64l71 -4q-11 -76 -50.5 -116.5t-97.5 -40.5q-31 0 -56.5 11
t-48.5 23q-21 10 -39 18t-37 8q-56 0 -73 -64z" />
    <glyph glyph-name="Adieresis" unicode="&#xc4;" horiz-adv-x="753" 
d="M-49 0l437 705h125l211 -705h-148l-40 153h-332l-90 -153h-163zM431 540l-156 -266h228l-70 266h-2zM492 781l22 132h131l-21 -132h-132zM296 781l20 132h132l-21 -132h-131z" />
    <glyph glyph-name="Aring" unicode="&#xc5;" horiz-adv-x="753" 
d="M-49 0l437 705h125l211 -705h-148l-40 153h-332l-90 -153h-163zM431 540l-156 -266h228l-70 266h-2zM470 753q-37 0 -66.5 17t-47 45.5t-17.5 64.5t17.5 64.5t47 45t66.5 16.5t66.5 -16.5t46.5 -45t17 -64.5t-17 -64.5t-46.5 -45.5t-66.5 -17zM470 818q26 0 43.5 17.5
t17.5 44.5t-17.5 44t-43.5 17t-43.5 -17t-17.5 -44t17.5 -44.5t43.5 -17.5z" />
    <glyph glyph-name="AE" unicode="&#xc6;" horiz-adv-x="1000" 
d="M-87 0l555 705h552l-19 -121h-383l10 -165h325l-19 -122h-299l10 -176h283l-19 -121h-391l-9 153h-311l-115 -153h-170zM485 535l-197 -261h214l-15 261h-2z" />
    <glyph glyph-name="Ccedilla" unicode="&#xc7;" horiz-adv-x="683" 
d="M398 -11q-95 0 -170 36t-118 108t-43 179q0 85 26 158t75.5 128.5t122 86.5t165.5 31q73 0 136 -22.5t100 -58.5l-61 -123q-80 67 -178 67q-72 0 -121.5 -34.5t-74.5 -94t-25 -133.5q0 -100 45.5 -145.5t138.5 -45.5q43 0 87 14.5t90 47.5l41 -122q-43 -37 -107.5 -57
t-128.5 -20zM350 -197q-31 0 -59.5 5.5t-48.5 16.5l27 64q35 -18 73 -18q54 0 54 28q0 18 -35 18q-8 0 -17 -1t-21 -4l-19 20l27 88h76l-18 -54h4q42 0 65 -18t23 -50q0 -43 -37.5 -69t-93.5 -26z" />
    <glyph glyph-name="Egrave" unicode="&#xc8;" horiz-adv-x="605" 
d="M33 0l111 705h483l-19 -121h-335l-26 -165h313l-19 -122h-313l-28 -176h334l-19 -121h-482zM360 765l-152 175h151l106 -175h-105z" />
    <glyph glyph-name="Eacute" unicode="&#xc9;" horiz-adv-x="605" 
d="M33 0l111 705h483l-19 -121h-335l-26 -165h313l-19 -122h-313l-28 -176h334l-19 -121h-482zM360 765l130 175h157l-182 -175h-105z" />
    <glyph glyph-name="Ecircumflex" unicode="&#xca;" horiz-adv-x="605" 
d="M33 0l111 705h483l-19 -121h-335l-26 -165h313l-19 -122h-313l-28 -176h334l-19 -121h-482zM218 765l142 175h126l109 -175h-104l-75 95l-95 -95h-103z" />
    <glyph glyph-name="Edieresis" unicode="&#xcb;" horiz-adv-x="605" 
d="M33 0l111 705h483l-19 -121h-335l-26 -165h313l-19 -122h-313l-28 -176h334l-19 -121h-482zM446 781l22 132h131l-21 -132h-132zM250 781l20 132h132l-21 -132h-131z" />
    <glyph glyph-name="Igrave" unicode="&#xcc;" horiz-adv-x="297" 
d="M32 0l112 705h155l-112 -705h-155zM179 765l-152 175h151l106 -175h-105z" />
    <glyph glyph-name="Iacute" unicode="&#xcd;" horiz-adv-x="297" 
d="M32 0l112 705h155l-112 -705h-155zM179 765l130 175h157l-182 -175h-105z" />
    <glyph glyph-name="Icircumflex" unicode="&#xce;" horiz-adv-x="297" 
d="M32 0l112 705h155l-112 -705h-155zM37 765l142 175h126l109 -175h-104l-75 95l-95 -95h-103z" />
    <glyph glyph-name="Idieresis" unicode="&#xcf;" horiz-adv-x="297" 
d="M32 0l112 705h155l-112 -705h-155zM265 781l22 132h131l-21 -132h-132zM69 781l20 132h132l-21 -132h-131z" />
    <glyph glyph-name="Eth" unicode="&#xd0;" horiz-adv-x="774" 
d="M32 0l112 705h238q172 0 266 -80.5t94 -224.5q1 -113 -45 -204t-136.5 -143.5t-224.5 -52.5h-304zM207 127h131q83 0 136.5 34.5t79.5 95.5t26 141q0 87 -50 133.5t-148 46.5h-103zM-6 301l18 111h426l-18 -111h-426z" />
    <glyph glyph-name="Ntilde" unicode="&#xd1;" horiz-adv-x="752" 
d="M32 0l112 705h115l278 -464l73 464h144l-112 -705h-114l-279 464l-73 -464h-144zM294 766l-72 4q12 76 51.5 116.5t98.5 40.5q29 0 55 -11t50 -22q20 -11 38.5 -19t36.5 -8q55 0 73 64l71 -4q-11 -76 -50.5 -116.5t-97.5 -40.5q-31 0 -56.5 11t-48.5 23q-21 10 -39 18
t-37 8q-56 0 -73 -64z" />
    <glyph glyph-name="Ograve" unicode="&#xd2;" horiz-adv-x="796" 
d="M388 -11q-97 0 -169.5 37t-112.5 107t-40 169q0 121 46.5 214.5t130.5 146.5t199 53q98 0 170.5 -37t112 -107t39.5 -168q0 -122 -46 -215.5t-130.5 -146.5t-199.5 -53zM391 121q67 0 114.5 36t72.5 99t25 145q0 93 -44 138t-120 45q-67 0 -114 -35.5t-72 -98.5t-25 -146
q0 -93 43.5 -138t119.5 -45zM415 765l-152 175h151l106 -175h-105z" />
    <glyph glyph-name="Oacute" unicode="&#xd3;" horiz-adv-x="796" 
d="M388 -11q-97 0 -169.5 37t-112.5 107t-40 169q0 121 46.5 214.5t130.5 146.5t199 53q98 0 170.5 -37t112 -107t39.5 -168q0 -122 -46 -215.5t-130.5 -146.5t-199.5 -53zM391 121q67 0 114.5 36t72.5 99t25 145q0 93 -44 138t-120 45q-67 0 -114 -35.5t-72 -98.5t-25 -146
q0 -93 43.5 -138t119.5 -45zM415 765l130 175h157l-182 -175h-105z" />
    <glyph glyph-name="Ocircumflex" unicode="&#xd4;" horiz-adv-x="796" 
d="M388 -11q-97 0 -169.5 37t-112.5 107t-40 169q0 121 46.5 214.5t130.5 146.5t199 53q98 0 170.5 -37t112 -107t39.5 -168q0 -122 -46 -215.5t-130.5 -146.5t-199.5 -53zM391 121q67 0 114.5 36t72.5 99t25 145q0 93 -44 138t-120 45q-67 0 -114 -35.5t-72 -98.5t-25 -146
q0 -93 43.5 -138t119.5 -45zM273 765l142 175h126l109 -175h-104l-75 95l-95 -95h-103z" />
    <glyph glyph-name="Otilde" unicode="&#xd5;" horiz-adv-x="796" 
d="M388 -11q-97 0 -169.5 37t-112.5 107t-40 169q0 121 46.5 214.5t130.5 146.5t199 53q98 0 170.5 -37t112 -107t39.5 -168q0 -122 -46 -215.5t-130.5 -146.5t-199.5 -53zM391 121q67 0 114.5 36t72.5 99t25 145q0 93 -44 138t-120 45q-67 0 -114 -35.5t-72 -98.5t-25 -146
q0 -93 43.5 -138t119.5 -45zM305 766l-72 4q12 76 51.5 116.5t98.5 40.5q29 0 55 -11t50 -22q20 -11 38.5 -19t36.5 -8q55 0 73 64l71 -4q-11 -76 -50.5 -116.5t-97.5 -40.5q-31 0 -56.5 11t-48.5 23q-21 10 -39 18t-37 8q-56 0 -73 -64z" />
    <glyph glyph-name="Odieresis" unicode="&#xd6;" horiz-adv-x="796" 
d="M388 -11q-97 0 -169.5 37t-112.5 107t-40 169q0 121 46.5 214.5t130.5 146.5t199 53q98 0 170.5 -37t112 -107t39.5 -168q0 -122 -46 -215.5t-130.5 -146.5t-199.5 -53zM391 121q67 0 114.5 36t72.5 99t25 145q0 93 -44 138t-120 45q-67 0 -114 -35.5t-72 -98.5t-25 -146
q0 -93 43.5 -138t119.5 -45zM501 781l22 132h131l-21 -132h-132zM305 781l20 132h132l-21 -132h-131z" />
    <glyph glyph-name="multiply" unicode="&#xd7;" horiz-adv-x="600" 
d="M129 52l-71 72l176 163l-147 160l75 73l148 -161l175 161l70 -73l-176 -161l147 -162l-74 -72l-148 161z" />
    <glyph glyph-name="Oslash" unicode="&#xd8;" horiz-adv-x="796" 
d="M388 -11q-97 0 -169.5 37t-112.5 107t-40 169q0 121 46.5 214.5t130.5 146.5t199 53q98 0 170.5 -37t112 -107t39.5 -168q0 -122 -46 -215.5t-130.5 -146.5t-199.5 -53zM391 121q67 0 114.5 36t72.5 99t25 145q0 93 -44 138t-120 45q-67 0 -114 -35.5t-72 -98.5t-25 -146
q0 -93 43.5 -138t119.5 -45zM175 -58l-89 62l89 118l52 63l299 398l41 64l87 117l89 -61l-88 -118l-53 -64l-298 -398l-41 -64z" />
    <glyph glyph-name="Ugrave" unicode="&#xd9;" horiz-adv-x="742" 
d="M346 -11q-91 0 -158 35.5t-98 107t-14 181.5l62 392h156l-64 -402q-13 -88 18.5 -135t109.5 -47q71 0 113.5 38t56.5 120l67 426h154l-67 -421q-23 -143 -102 -219t-234 -76zM401 765l-152 175h151l106 -175h-105z" />
    <glyph glyph-name="Uacute" unicode="&#xda;" horiz-adv-x="742" 
d="M346 -11q-91 0 -158 35.5t-98 107t-14 181.5l62 392h156l-64 -402q-13 -88 18.5 -135t109.5 -47q71 0 113.5 38t56.5 120l67 426h154l-67 -421q-23 -143 -102 -219t-234 -76zM401 765l130 175h157l-182 -175h-105z" />
    <glyph glyph-name="Ucircumflex" unicode="&#xdb;" horiz-adv-x="742" 
d="M346 -11q-91 0 -158 35.5t-98 107t-14 181.5l62 392h156l-64 -402q-13 -88 18.5 -135t109.5 -47q71 0 113.5 38t56.5 120l67 426h154l-67 -421q-23 -143 -102 -219t-234 -76zM259 765l142 175h126l109 -175h-104l-75 95l-95 -95h-103z" />
    <glyph glyph-name="Udieresis" unicode="&#xdc;" horiz-adv-x="742" 
d="M346 -11q-91 0 -158 35.5t-98 107t-14 181.5l62 392h156l-64 -402q-13 -88 18.5 -135t109.5 -47q71 0 113.5 38t56.5 120l67 426h154l-67 -421q-23 -143 -102 -219t-234 -76zM487 781l22 132h131l-21 -132h-132zM291 781l20 132h132l-21 -132h-131z" />
    <glyph glyph-name="Yacute" unicode="&#xdd;" horiz-adv-x="631" 
d="M199 0l50 318l-210 387h170l132 -250l211 250h184l-331 -386l-51 -319h-155zM333 765l130 175h157l-182 -175h-105z" />
    <glyph glyph-name="Thorn" unicode="&#xde;" horiz-adv-x="666" 
d="M32 0l112 705h155l-18 -112h133q122 0 184.5 -52.5t62.5 -146.5q0 -120 -73.5 -186.5t-212.5 -66.5h-166l-22 -141h-155zM228 262h154q130 0 130 118q0 48 -29 70t-89 22h-132z" />
    <glyph glyph-name="germandbls" unicode="&#xdf;" horiz-adv-x="676" 
d="M430 -11q-61 0 -116 18t-89 47l49 97q36 -24 78 -37.5t81 -13.5q34 0 53.5 11.5t19.5 35.5q0 18 -17.5 32t-64.5 30q-62 22 -89 52t-27 71q0 45 21.5 77.5t67.5 71.5q23 19 36 36.5t13 41.5q0 19 -14.5 34t-46.5 15q-60 0 -94 -32t-45 -101l-75 -475h-151l71 451
q13 84 47 143t95.5 90.5t156.5 31.5q61 0 105 -19t68 -50.5t24 -69.5q0 -43 -19.5 -74t-56.5 -63q-38 -34 -52 -49.5t-14 -32.5q0 -19 19 -32t61 -27q56 -21 86.5 -53t30.5 -86q0 -56 -27.5 -94t-75.5 -57.5t-109 -19.5z" />
    <glyph glyph-name="agrave" unicode="&#xe0;" horiz-adv-x="557" 
d="M189 -11q-46 0 -84 21.5t-60 56.5t-22 76q0 78 66.5 113.5t208.5 35.5h68l2 13q7 41 -14.5 63t-72.5 22q-88 0 -170 -49l-31 102q39 26 99.5 42t122.5 16q84 0 132 -31t65 -83.5t6 -117.5l-42 -269h-141l11 72q-24 -43 -62 -63t-82 -20zM240 90q43 0 72.5 26.5t36.5 71.5
l5 26h-53q-73 0 -103 -13.5t-30 -47.5q0 -30 20.5 -46.5t51.5 -16.5zM274 555l-142 205h143l98 -205h-99z" />
    <glyph glyph-name="aacute" unicode="&#xe1;" horiz-adv-x="557" 
d="M189 -11q-46 0 -84 21.5t-60 56.5t-22 76q0 78 66.5 113.5t208.5 35.5h68l2 13q7 41 -14.5 63t-72.5 22q-88 0 -170 -49l-31 102q39 26 99.5 42t122.5 16q84 0 132 -31t65 -83.5t6 -117.5l-42 -269h-141l11 72q-24 -43 -62 -63t-82 -20zM240 90q43 0 72.5 26.5t36.5 71.5
l5 26h-53q-73 0 -103 -13.5t-30 -47.5q0 -30 20.5 -46.5t51.5 -16.5zM275 555l132 205h147l-180 -205h-99z" />
    <glyph glyph-name="acircumflex" unicode="&#xe2;" horiz-adv-x="557" 
d="M189 -11q-46 0 -84 21.5t-60 56.5t-22 76q0 78 66.5 113.5t208.5 35.5h68l2 13q7 41 -14.5 63t-72.5 22q-88 0 -170 -49l-31 102q39 26 99.5 42t122.5 16q84 0 132 -31t65 -83.5t6 -117.5l-42 -269h-141l11 72q-24 -43 -62 -63t-82 -20zM240 90q43 0 72.5 26.5t36.5 71.5
l5 26h-53q-73 0 -103 -13.5t-30 -47.5q0 -30 20.5 -46.5t51.5 -16.5zM144 555l131 205h128l91 -205h-93l-68 123l-95 -123h-94z" />
    <glyph glyph-name="atilde" unicode="&#xe3;" horiz-adv-x="557" 
d="M189 -11q-46 0 -84 21.5t-60 56.5t-22 76q0 78 66.5 113.5t208.5 35.5h68l2 13q7 41 -14.5 63t-72.5 22q-88 0 -170 -49l-31 102q39 26 99.5 42t122.5 16q84 0 132 -31t65 -83.5t6 -117.5l-42 -269h-141l11 72q-24 -43 -62 -63t-82 -20zM240 90q43 0 72.5 26.5t36.5 71.5
l5 26h-53q-73 0 -103 -13.5t-30 -47.5q0 -30 20.5 -46.5t51.5 -16.5zM198 581l-71 4q9 76 46 116.5t91 40.5q28 0 47.5 -12t36.5 -25q14 -9 27.5 -16t30.5 -7q50 0 66 64l71 -4q-9 -76 -45.5 -116.5t-90.5 -40.5q-29 0 -49 11.5t-37 24.5q-14 10 -27.5 17t-29.5 7
q-50 0 -66 -64z" />
    <glyph glyph-name="adieresis" unicode="&#xe4;" horiz-adv-x="557" 
d="M189 -11q-46 0 -84 21.5t-60 56.5t-22 76q0 78 66.5 113.5t208.5 35.5h68l2 13q7 41 -14.5 63t-72.5 22q-88 0 -170 -49l-31 102q39 26 99.5 42t122.5 16q84 0 132 -31t65 -83.5t6 -117.5l-42 -269h-141l11 72q-24 -43 -62 -63t-82 -20zM240 90q43 0 72.5 26.5t36.5 71.5
l5 26h-53q-73 0 -103 -13.5t-30 -47.5q0 -30 20.5 -46.5t51.5 -16.5zM364 590l19 132h132l-20 -132h-131zM166 590l21 132h131l-20 -132h-132z" />
    <glyph glyph-name="aring" unicode="&#xe5;" horiz-adv-x="557" 
d="M189 -11q-46 0 -84 21.5t-60 56.5t-22 76q0 78 66.5 113.5t208.5 35.5h68l2 13q7 41 -14.5 63t-72.5 22q-88 0 -170 -49l-31 102q39 26 99.5 42t122.5 16q84 0 132 -31t65 -83.5t6 -117.5l-42 -269h-141l11 72q-24 -43 -62 -63t-82 -20zM240 90q43 0 72.5 26.5t36.5 71.5
l5 26h-53q-73 0 -103 -13.5t-30 -47.5q0 -30 20.5 -46.5t51.5 -16.5zM343 545q-36 0 -66 17t-47 45.5t-17 63.5q0 36 17 65t47 45.5t66 16.5q37 0 66.5 -16.5t47 -45.5t17.5 -65q0 -35 -17.5 -63.5t-47 -45.5t-66.5 -17zM343 610q26 0 43.5 17.5t17.5 43.5q0 27 -17.5 44
t-43.5 17t-43.5 -17t-17.5 -44q0 -26 17.5 -43.5t43.5 -17.5z" />
    <glyph glyph-name="ae" unicode="&#xe6;" horiz-adv-x="868" 
d="M218 -11q-51 0 -95.5 17t-72 51.5t-27.5 85.5q0 78 66.5 113.5t208.5 35.5h66l2 11q6 42 -14 63.5t-71 21.5q-44 0 -86.5 -12t-81.5 -36l-33 103q39 26 99.5 42t122.5 16q112 0 157 -68q67 68 170 68q81 0 130.5 -35t69 -93.5t8.5 -129.5l-4 -29h-337q-1 -53 31.5 -82.5
t92.5 -29.5q91 0 152 47l34 -99q-37 -28 -90 -44.5t-112 -16.5q-72 0 -123.5 26.5t-77.5 74.5q-27 -52 -77 -76.5t-108 -24.5zM627 400q-52 0 -81 -32t-39 -76h212q3 46 -18.5 77t-73.5 31zM239 93q43 0 71.5 24t36.5 69l4 28h-49q-73 0 -103.5 -14.5t-30.5 -48.5
q0 -26 20 -42t51 -16z" />
    <glyph glyph-name="ccedilla" unicode="&#xe7;" horiz-adv-x="478" 
d="M278 -11q-123 0 -184 62.5t-61 164.5q0 55 17.5 106t52.5 91.5t89.5 64t127.5 23.5q49 0 94.5 -13.5t75.5 -37.5l-45 -104q-21 18 -51.5 29t-62.5 11q-53 0 -84.5 -25t-45.5 -63.5t-14 -79.5q0 -51 26.5 -82t87.5 -31q26 0 56 10t55 29l32 -105q-29 -24 -76 -37t-90 -13z
M225 -197q-31 0 -59.5 5.5t-48.5 16.5l27 64q35 -18 73 -18q54 0 54 28q0 18 -35 18q-8 0 -17 -1t-21 -4l-19 20l27 88h76l-18 -54h4q42 0 65 -18t23 -50q0 -43 -37.5 -69t-93.5 -26z" />
    <glyph glyph-name="egrave" unicode="&#xe8;" horiz-adv-x="549" 
d="M286 -11q-77 0 -134 28.5t-88 79t-31 118.5q0 84 35.5 148.5t98 101t142.5 36.5q82 0 131 -35.5t68 -95t10 -131.5l-4 -26h-341q1 -53 34 -82t94 -29q42 0 81.5 12t70.5 35l33 -99q-36 -28 -89 -44.5t-111 -16.5zM308 401q-54 0 -84 -32.5t-40 -77.5h218q3 47 -19.5 78.5
t-74.5 31.5zM285 555l-142 205h143l98 -205h-99z" />
    <glyph glyph-name="eacute" unicode="&#xe9;" horiz-adv-x="549" 
d="M286 -11q-77 0 -134 28.5t-88 79t-31 118.5q0 84 35.5 148.5t98 101t142.5 36.5q82 0 131 -35.5t68 -95t10 -131.5l-4 -26h-341q1 -53 34 -82t94 -29q42 0 81.5 12t70.5 35l33 -99q-36 -28 -89 -44.5t-111 -16.5zM308 401q-54 0 -84 -32.5t-40 -77.5h218q3 47 -19.5 78.5
t-74.5 31.5zM286 555l132 205h147l-180 -205h-99z" />
    <glyph glyph-name="ecircumflex" unicode="&#xea;" horiz-adv-x="549" 
d="M286 -11q-77 0 -134 28.5t-88 79t-31 118.5q0 84 35.5 148.5t98 101t142.5 36.5q82 0 131 -35.5t68 -95t10 -131.5l-4 -26h-341q1 -53 34 -82t94 -29q42 0 81.5 12t70.5 35l33 -99q-36 -28 -89 -44.5t-111 -16.5zM308 401q-54 0 -84 -32.5t-40 -77.5h218q3 47 -19.5 78.5
t-74.5 31.5zM155 555l131 205h128l91 -205h-93l-68 123l-95 -123h-94z" />
    <glyph glyph-name="edieresis" unicode="&#xeb;" horiz-adv-x="549" 
d="M286 -11q-77 0 -134 28.5t-88 79t-31 118.5q0 84 35.5 148.5t98 101t142.5 36.5q82 0 131 -35.5t68 -95t10 -131.5l-4 -26h-341q1 -53 34 -82t94 -29q42 0 81.5 12t70.5 35l33 -99q-36 -28 -89 -44.5t-111 -16.5zM308 401q-54 0 -84 -32.5t-40 -77.5h218q3 47 -19.5 78.5
t-74.5 31.5zM375 590l19 132h132l-20 -132h-131zM177 590l21 132h131l-20 -132h-132z" />
    <glyph glyph-name="igrave" unicode="&#xec;" horiz-adv-x="268" 
d="M19 0l78 491h151l-78 -491h-151zM133 555l-142 205h143l98 -205h-99z" />
    <glyph glyph-name="iacute" unicode="&#xed;" horiz-adv-x="268" 
d="M19 0l78 491h151l-78 -491h-151zM134 555l132 205h147l-180 -205h-99z" />
    <glyph glyph-name="icircumflex" unicode="&#xee;" horiz-adv-x="268" 
d="M19 0l78 491h151l-78 -491h-151zM3 555l131 205h128l91 -205h-93l-68 123l-95 -123h-94z" />
    <glyph glyph-name="idieresis" unicode="&#xef;" horiz-adv-x="268" 
d="M19 0l78 491h151l-78 -491h-151zM223 590l19 132h132l-20 -132h-131zM25 590l21 132h131l-20 -132h-132z" />
    <glyph glyph-name="eth" unicode="&#xf0;" horiz-adv-x="593" 
d="M267 -11q-68 0 -122 26.5t-85 73t-31 107.5q0 75 34 131.5t91.5 88.5t129.5 32q45 0 83.5 -13.5t61.5 -44.5q-8 50 -34 91.5t-64 73.5l-160 -71l-30 65l115 50q-43 19 -88 25l32 92q53 -9 97.5 -25t80.5 -37l139 62l31 -64l-103 -47q64 -58 93 -134t29 -153
q0 -93 -34 -167.5t-101 -118t-165 -43.5zM281 104q52 0 86.5 37t34.5 102q0 43 -26.5 68.5t-73.5 25.5q-52 0 -86.5 -36.5t-34.5 -101.5q0 -44 27 -69.5t73 -25.5z" />
    <glyph glyph-name="ntilde" unicode="&#xf1;" horiz-adv-x="595" 
d="M19 0l78 491h148l-12 -75q54 85 166 85q80 0 122.5 -50t25.5 -159l-46 -292h-151l45 289q16 95 -61 95q-51 0 -82 -32.5t-40 -89.5l-42 -262h-151zM217 581l-71 4q9 76 46 116.5t91 40.5q28 0 47.5 -12t36.5 -25q14 -9 27.5 -16t30.5 -7q50 0 66 64l71 -4
q-9 -76 -45.5 -116.5t-90.5 -40.5q-29 0 -49 11.5t-37 24.5q-14 10 -27.5 17t-29.5 7q-50 0 -66 -64z" />
    <glyph glyph-name="ograve" unicode="&#xf2;" horiz-adv-x="589" 
d="M274 -11q-114 0 -177.5 61.5t-63.5 164.5q0 91 39 155t103.5 97.5t138.5 33.5q114 0 178 -61.5t64 -163.5q0 -92 -39.5 -156t-103.5 -97.5t-139 -33.5zM278 102q59 0 92.5 51t33.5 128q0 52 -25 79.5t-68 27.5q-60 0 -93 -51t-33 -127q0 -52 24.5 -80t68.5 -28zM294 555
l-142 205h143l98 -205h-99z" />
    <glyph glyph-name="oacute" unicode="&#xf3;" horiz-adv-x="589" 
d="M274 -11q-114 0 -177.5 61.5t-63.5 164.5q0 91 39 155t103.5 97.5t138.5 33.5q114 0 178 -61.5t64 -163.5q0 -92 -39.5 -156t-103.5 -97.5t-139 -33.5zM278 102q59 0 92.5 51t33.5 128q0 52 -25 79.5t-68 27.5q-60 0 -93 -51t-33 -127q0 -52 24.5 -80t68.5 -28zM295 555
l132 205h147l-180 -205h-99z" />
    <glyph glyph-name="ocircumflex" unicode="&#xf4;" horiz-adv-x="589" 
d="M274 -11q-114 0 -177.5 61.5t-63.5 164.5q0 91 39 155t103.5 97.5t138.5 33.5q114 0 178 -61.5t64 -163.5q0 -92 -39.5 -156t-103.5 -97.5t-139 -33.5zM278 102q59 0 92.5 51t33.5 128q0 52 -25 79.5t-68 27.5q-60 0 -93 -51t-33 -127q0 -52 24.5 -80t68.5 -28zM164 555
l131 205h128l91 -205h-93l-68 123l-95 -123h-94z" />
    <glyph glyph-name="otilde" unicode="&#xf5;" horiz-adv-x="589" 
d="M274 -11q-114 0 -177.5 61.5t-63.5 164.5q0 91 39 155t103.5 97.5t138.5 33.5q114 0 178 -61.5t64 -163.5q0 -92 -39.5 -156t-103.5 -97.5t-139 -33.5zM278 102q59 0 92.5 51t33.5 128q0 52 -25 79.5t-68 27.5q-60 0 -93 -51t-33 -127q0 -52 24.5 -80t68.5 -28zM218 581
l-71 4q9 76 46 116.5t91 40.5q28 0 47.5 -12t36.5 -25q14 -9 27.5 -16t30.5 -7q50 0 66 64l71 -4q-9 -76 -45.5 -116.5t-90.5 -40.5q-29 0 -49 11.5t-37 24.5q-14 10 -27.5 17t-29.5 7q-50 0 -66 -64z" />
    <glyph glyph-name="odieresis" unicode="&#xf6;" horiz-adv-x="589" 
d="M274 -11q-114 0 -177.5 61.5t-63.5 164.5q0 91 39 155t103.5 97.5t138.5 33.5q114 0 178 -61.5t64 -163.5q0 -92 -39.5 -156t-103.5 -97.5t-139 -33.5zM278 102q59 0 92.5 51t33.5 128q0 52 -25 79.5t-68 27.5q-60 0 -93 -51t-33 -127q0 -52 24.5 -80t68.5 -28zM384 590
l19 132h132l-20 -132h-131zM186 590l21 132h131l-20 -132h-132z" />
    <glyph glyph-name="divide" unicode="&#xf7;" horiz-adv-x="600" 
d="M265 425l18 115h115l-18 -115h-115zM54 235l17 104h488l-17 -104h-488zM203 34l19 115h114l-18 -115h-115z" />
    <glyph glyph-name="oslash" unicode="&#xf8;" horiz-adv-x="589" 
d="M122 -55l-65 45l43 58q-67 61 -67 167q0 92 39 156t103.5 97t138.5 33q61 0 109 -18l46 61l64 -45l-43 -58q66 -60 66 -165q0 -92 -39.5 -156t-103.5 -97.5t-139 -33.5q-59 0 -106 18zM169 208q0 -31 9 -55l177 238q-21 7 -48 7q-63 0 -100.5 -52t-37.5 -138zM280 93
q64 0 101 52.5t37 137.5q0 29 -7 51l-175 -235q20 -6 44 -6z" />
    <glyph glyph-name="ugrave" unicode="&#xf9;" horiz-adv-x="590" 
d="M194 -11q-78 0 -120.5 50.5t-24.5 159.5l46 292h151l-46 -290q-15 -94 60 -94q47 0 78 32.5t40 89.5l41 262h151l-78 -491h-147l11 73q-55 -84 -162 -84zM291 556l-142 205h143l98 -205h-99z" />
    <glyph glyph-name="uacute" unicode="&#xfa;" horiz-adv-x="590" 
d="M194 -11q-78 0 -120.5 50.5t-24.5 159.5l46 292h151l-46 -290q-15 -94 60 -94q47 0 78 32.5t40 89.5l41 262h151l-78 -491h-147l11 73q-55 -84 -162 -84zM292 556l132 205h147l-180 -205h-99z" />
    <glyph glyph-name="ucircumflex" unicode="&#xfb;" horiz-adv-x="590" 
d="M194 -11q-78 0 -120.5 50.5t-24.5 159.5l46 292h151l-46 -290q-15 -94 60 -94q47 0 78 32.5t40 89.5l41 262h151l-78 -491h-147l11 73q-55 -84 -162 -84zM161 556l131 205h128l91 -205h-93l-68 123l-95 -123h-94z" />
    <glyph glyph-name="udieresis" unicode="&#xfc;" horiz-adv-x="590" 
d="M194 -11q-78 0 -120.5 50.5t-24.5 159.5l46 292h151l-46 -290q-15 -94 60 -94q47 0 78 32.5t40 89.5l41 262h151l-78 -491h-147l11 73q-55 -84 -162 -84zM381 591l19 132h132l-20 -132h-131zM183 591l21 132h131l-20 -132h-132z" />
    <glyph glyph-name="yacute" unicode="&#xfd;" horiz-adv-x="533" 
d="M28 -180l128 207l-129 464h152l73 -312l177 312h156l-403 -671h-154zM252 555l132 205h147l-180 -205h-99z" />
    <glyph glyph-name="thorn" unicode="&#xfe;" horiz-adv-x="610" 
d="M-9 -180l140 885h151l-43 -279q27 36 67.5 55.5t88.5 19.5q83 0 133 -57t50 -155q0 -85 -30 -153t-85.5 -107.5t-131.5 -39.5q-50 0 -89 21.5t-59 61.5l-41 -252h-151zM300 102q60 0 93 51t33 128q0 52 -24.5 79.5t-67.5 27.5q-60 0 -93 -51t-33 -127q0 -52 24.5 -80
t67.5 -28z" />
    <glyph glyph-name="ydieresis" unicode="&#xff;" horiz-adv-x="533" 
d="M28 -180l128 207l-129 464h152l73 -312l177 312h156l-403 -671h-154zM341 590l19 132h132l-20 -132h-131zM143 590l21 132h131l-20 -132h-132z" />
    <glyph glyph-name="Amacron" unicode="&#x100;" horiz-adv-x="753" 
d="M-49 0l437 705h125l211 -705h-148l-40 153h-332l-90 -153h-163zM431 540l-156 -266h228l-70 266h-2zM285 801l13 85h356l-13 -85h-356z" />
    <glyph glyph-name="amacron" unicode="&#x101;" horiz-adv-x="557" 
d="M189 -11q-46 0 -84 21.5t-60 56.5t-22 76q0 78 66.5 113.5t208.5 35.5h68l2 13q7 41 -14.5 63t-72.5 22q-88 0 -170 -49l-31 102q39 26 99.5 42t122.5 16q84 0 132 -31t65 -83.5t6 -117.5l-42 -269h-141l11 72q-24 -43 -62 -63t-82 -20zM240 90q43 0 72.5 26.5t36.5 71.5
l5 26h-53q-73 0 -103 -13.5t-30 -47.5q0 -30 20.5 -46.5t51.5 -16.5zM171 611l13 85h326l-13 -85h-326z" />
    <glyph glyph-name="Abreve" unicode="&#x102;" horiz-adv-x="753" 
d="M-49 0l437 705h125l211 -705h-148l-40 153h-332l-90 -153h-163zM431 540l-156 -266h228l-70 266h-2zM461 760q-81 0 -129.5 48t-47.5 123l83 11q0 -45 26 -70t73 -25t77.5 25t38.5 70l83 -11q-12 -78 -67.5 -124.5t-136.5 -46.5z" />
    <glyph glyph-name="abreve" unicode="&#x103;" horiz-adv-x="557" 
d="M189 -11q-46 0 -84 21.5t-60 56.5t-22 76q0 78 66.5 113.5t208.5 35.5h68l2 13q7 41 -14.5 63t-72.5 22q-88 0 -170 -49l-31 102q39 26 99.5 42t122.5 16q84 0 132 -31t65 -83.5t6 -117.5l-42 -269h-141l11 72q-24 -43 -62 -63t-82 -20zM240 90q43 0 72.5 26.5t36.5 71.5
l5 26h-53q-73 0 -103 -13.5t-30 -47.5q0 -30 20.5 -46.5t51.5 -16.5zM332 552q-75 0 -119 53t-39 142l83 8q-1 -56 20 -85.5t61 -29.5t65.5 29.5t33.5 85.5l83 -8q-10 -90 -60.5 -142.5t-127.5 -52.5z" />
    <glyph glyph-name="Aogonek" unicode="&#x104;" horiz-adv-x="753" 
d="M-49 0l437 705h125l211 -705h-148l-40 153h-332l-90 -153h-163zM431 540l-156 -266h228l-70 266h-2zM630 -197q-54 0 -82.5 26.5t-28.5 70.5q0 49 33 88t83 57l38 -45q-34 -13 -48.5 -34t-14.5 -41t14 -32.5t36 -12.5q14 0 26.5 3t27.5 8l11 -71q-27 -8 -48.5 -12.5
t-46.5 -4.5z" />
    <glyph glyph-name="aogonek" unicode="&#x105;" horiz-adv-x="557" 
d="M189 -11q-46 0 -84 21.5t-60 56.5t-22 76q0 78 66.5 113.5t208.5 35.5h68l2 13q7 41 -14.5 63t-72.5 22q-88 0 -170 -49l-31 102q39 26 99.5 42t122.5 16q84 0 132 -31t65 -83.5t6 -117.5l-42 -269h-141l11 72q-24 -43 -62 -63t-82 -20zM240 90q43 0 72.5 26.5t36.5 71.5
l5 26h-53q-73 0 -103 -13.5t-30 -47.5q0 -30 20.5 -46.5t51.5 -16.5zM374 -197q-54 0 -82.5 26.5t-28.5 70.5q0 49 33 88t83 57l38 -45q-34 -13 -48.5 -34t-14.5 -41t14 -32.5t36 -12.5q14 0 26.5 3t27.5 8l11 -71q-27 -8 -48.5 -12.5t-46.5 -4.5z" />
    <glyph glyph-name="Cacute" unicode="&#x106;" horiz-adv-x="683" 
d="M398 -11q-95 0 -170 36t-118 108t-43 179q0 85 26 158t75.5 128.5t122 86.5t165.5 31q73 0 136 -22.5t100 -58.5l-61 -123q-80 67 -178 67q-72 0 -121.5 -34.5t-74.5 -94t-25 -133.5q0 -100 45.5 -145.5t138.5 -45.5q43 0 87 14.5t90 47.5l41 -122q-43 -37 -107.5 -57
t-128.5 -20zM403 765l130 175h157l-182 -175h-105z" />
    <glyph glyph-name="cacute" unicode="&#x107;" horiz-adv-x="478" 
d="M278 -11q-123 0 -184 62.5t-61 164.5q0 55 17.5 106t52.5 91.5t89.5 64t127.5 23.5q49 0 94.5 -13.5t75.5 -37.5l-45 -104q-21 18 -51.5 29t-62.5 11q-53 0 -84.5 -25t-45.5 -63.5t-14 -79.5q0 -51 26.5 -82t87.5 -31q26 0 56 10t55 29l32 -105q-29 -24 -76 -37t-90 -13z
M279 555l132 205h147l-180 -205h-99z" />
    <glyph glyph-name="Ccircumflex" unicode="&#x108;" horiz-adv-x="683" 
d="M398 -11q-95 0 -170 36t-118 108t-43 179q0 85 26 158t75.5 128.5t122 86.5t165.5 31q73 0 136 -22.5t100 -58.5l-61 -123q-80 67 -178 67q-72 0 -121.5 -34.5t-74.5 -94t-25 -133.5q0 -100 45.5 -145.5t138.5 -45.5q43 0 87 14.5t90 47.5l41 -122q-43 -37 -107.5 -57
t-128.5 -20zM261 765l142 175h126l109 -175h-104l-75 95l-95 -95h-103z" />
    <glyph glyph-name="ccircumflex" unicode="&#x109;" horiz-adv-x="478" 
d="M278 -11q-123 0 -184 62.5t-61 164.5q0 55 17.5 106t52.5 91.5t89.5 64t127.5 23.5q49 0 94.5 -13.5t75.5 -37.5l-45 -104q-21 18 -51.5 29t-62.5 11q-53 0 -84.5 -25t-45.5 -63.5t-14 -79.5q0 -51 26.5 -82t87.5 -31q26 0 56 10t55 29l32 -105q-29 -24 -76 -37t-90 -13z
M148 555l131 205h128l91 -205h-93l-68 123l-95 -123h-94z" />
    <glyph glyph-name="Cdotaccent" unicode="&#x10a;" horiz-adv-x="683" 
d="M398 -11q-95 0 -170 36t-118 108t-43 179q0 85 26 158t75.5 128.5t122 86.5t165.5 31q73 0 136 -22.5t100 -58.5l-61 -123q-80 67 -178 67q-72 0 -121.5 -34.5t-74.5 -94t-25 -133.5q0 -100 45.5 -145.5t138.5 -45.5q43 0 87 14.5t90 47.5l41 -122q-43 -37 -107.5 -57
t-128.5 -20zM388 786l21 133h139l-20 -133h-140z" />
    <glyph glyph-name="cdotaccent" unicode="&#x10b;" horiz-adv-x="478" 
d="M278 -11q-123 0 -184 62.5t-61 164.5q0 55 17.5 106t52.5 91.5t89.5 64t127.5 23.5q49 0 94.5 -13.5t75.5 -37.5l-45 -104q-21 18 -51.5 29t-62.5 11q-53 0 -84.5 -25t-45.5 -63.5t-14 -79.5q0 -51 26.5 -82t87.5 -31q26 0 56 10t55 29l32 -105q-29 -24 -76 -37t-90 -13z
M264 590l20 133h141l-21 -133h-140z" />
    <glyph glyph-name="Ccaron" unicode="&#x10c;" horiz-adv-x="683" 
d="M398 -11q-95 0 -170 36t-118 108t-43 179q0 85 26 158t75.5 128.5t122 86.5t165.5 31q73 0 136 -22.5t100 -58.5l-61 -123q-80 67 -178 67q-72 0 -121.5 -34.5t-74.5 -94t-25 -133.5q0 -100 45.5 -145.5t138.5 -45.5q43 0 87 14.5t90 47.5l41 -122q-43 -37 -107.5 -57
t-128.5 -20zM393 765l-110 175h99l78 -95l92 95h108l-142 -175h-125z" />
    <glyph glyph-name="ccaron" unicode="&#x10d;" horiz-adv-x="478" 
d="M278 -11q-123 0 -184 62.5t-61 164.5q0 55 17.5 106t52.5 91.5t89.5 64t127.5 23.5q49 0 94.5 -13.5t75.5 -37.5l-45 -104q-21 18 -51.5 29t-62.5 11q-53 0 -84.5 -25t-45.5 -63.5t-14 -79.5q0 -51 26.5 -82t87.5 -31q26 0 56 10t55 29l32 -105q-29 -24 -76 -37t-90 -13z
M265 555l-91 205h93l67 -123l96 123h94l-131 -205h-128z" />
    <glyph glyph-name="Dcaron" unicode="&#x10e;" horiz-adv-x="774" 
d="M32 0l112 705h238q172 0 266 -80.5t94 -224.5q1 -113 -45 -204t-136.5 -143.5t-224.5 -52.5h-304zM207 127h131q83 0 136.5 34.5t79.5 95.5t26 141q0 87 -50 133.5t-148 46.5h-103zM396 765l-110 175h99l78 -95l92 95h108l-142 -175h-125z" />
    <glyph glyph-name="dcaron" unicode="&#x10f;" horiz-adv-x="610" 
d="M215 -11q-83 0 -133 57.5t-50 155.5q0 85 30 152.5t85.5 107t130.5 39.5q51 0 90.5 -21.5t59.5 -63.5l46 289h151l-112 -705h-148l12 74q-27 -40 -69 -62.5t-93 -22.5zM276 102q60 0 93 51t33 128q0 52 -24.5 79.5t-67.5 27.5q-60 0 -93 -51t-33 -127q0 -52 24.5 -80
t67.5 -28zM631 511l31 194h95l-59 -194h-67z" />
    <glyph glyph-name="Dcroat" unicode="&#x110;" horiz-adv-x="774" 
d="M32 0l112 705h238q172 0 266 -80.5t94 -224.5q1 -113 -45 -204t-136.5 -143.5t-224.5 -52.5h-304zM207 127h131q83 0 136.5 34.5t79.5 95.5t26 141q0 87 -50 133.5t-148 46.5h-103zM-6 301l18 111h426l-18 -111h-426z" />
    <glyph glyph-name="dcroat" unicode="&#x111;" horiz-adv-x="610" 
d="M214 -11q-83 0 -133 57.5t-50 152.5q0 83 30 150t85.5 106.5t130.5 39.5q51 0 90.5 -22t59.5 -65l20 130h-186l17 104h186l9 63h151l-10 -63h86l-17 -104h-85l-85 -538h-148l12 74q-27 -40 -69.5 -62.5t-93.5 -22.5zM276 102q39 0 67.5 23.5t43.5 63t15 89.5
q0 49 -24.5 76.5t-68.5 27.5q-40 0 -68 -23t-43 -63t-15 -89q0 -50 24.5 -77.5t68.5 -27.5z" />
    <glyph glyph-name="Emacron" unicode="&#x112;" horiz-adv-x="605" 
d="M33 0l111 705h483l-19 -121h-335l-26 -165h313l-19 -122h-313l-28 -176h334l-19 -121h-482zM239 801l13 85h356l-13 -85h-356z" />
    <glyph glyph-name="emacron" unicode="&#x113;" horiz-adv-x="549" 
d="M286 -11q-77 0 -134 28.5t-88 79t-31 118.5q0 84 35.5 148.5t98 101t142.5 36.5q82 0 131 -35.5t68 -95t10 -131.5l-4 -26h-341q1 -53 34 -82t94 -29q42 0 81.5 12t70.5 35l33 -99q-36 -28 -89 -44.5t-111 -16.5zM308 401q-54 0 -84 -32.5t-40 -77.5h218q3 47 -19.5 78.5
t-74.5 31.5zM182 611l13 85h326l-13 -85h-326z" />
    <glyph glyph-name="Ebreve" unicode="&#x114;" horiz-adv-x="605" 
d="M33 0l111 705h483l-19 -121h-335l-26 -165h313l-19 -122h-313l-28 -176h334l-19 -121h-482zM415 760q-81 0 -129.5 48t-47.5 123l83 11q0 -45 26 -70t73 -25t77.5 25t38.5 70l83 -11q-12 -78 -67.5 -124.5t-136.5 -46.5z" />
    <glyph glyph-name="ebreve" unicode="&#x115;" horiz-adv-x="549" 
d="M286 -11q-77 0 -134 28.5t-88 79t-31 118.5q0 84 35.5 148.5t98 101t142.5 36.5q82 0 131 -35.5t68 -95t10 -131.5l-4 -26h-341q1 -53 34 -82t94 -29q42 0 81.5 12t70.5 35l33 -99q-36 -28 -89 -44.5t-111 -16.5zM308 401q-54 0 -84 -32.5t-40 -77.5h218q3 47 -19.5 78.5
t-74.5 31.5zM343 552q-75 0 -119 53t-39 142l83 8q-1 -56 20 -85.5t61 -29.5t65.5 29.5t33.5 85.5l83 -8q-10 -90 -60.5 -142.5t-127.5 -52.5z" />
    <glyph glyph-name="Edotaccent" unicode="&#x116;" horiz-adv-x="605" 
d="M33 0l111 705h483l-19 -121h-335l-26 -165h313l-19 -122h-313l-28 -176h334l-19 -121h-482zM345 786l21 133h139l-20 -133h-140z" />
    <glyph glyph-name="edotaccent" unicode="&#x117;" horiz-adv-x="549" 
d="M286 -11q-77 0 -134 28.5t-88 79t-31 118.5q0 84 35.5 148.5t98 101t142.5 36.5q82 0 131 -35.5t68 -95t10 -131.5l-4 -26h-341q1 -53 34 -82t94 -29q42 0 81.5 12t70.5 35l33 -99q-36 -28 -89 -44.5t-111 -16.5zM308 401q-54 0 -84 -32.5t-40 -77.5h218q3 47 -19.5 78.5
t-74.5 31.5zM271 590l20 133h141l-21 -133h-140z" />
    <glyph glyph-name="Eogonek" unicode="&#x118;" horiz-adv-x="605" 
d="M33 0l111 705h483l-19 -121h-335l-26 -165h313l-19 -122h-313l-28 -176h334l-19 -121h-482zM415 -197q-54 0 -82.5 26.5t-28.5 70.5q0 49 33 88t83 57l38 -45q-34 -13 -48.5 -34t-14.5 -41t14 -32.5t36 -12.5q14 0 26.5 3t27.5 8l11 -71q-27 -8 -48.5 -12.5t-46.5 -4.5z
" />
    <glyph glyph-name="eogonek" unicode="&#x119;" horiz-adv-x="549" 
d="M286 -11q-77 0 -134 28.5t-88 79t-31 118.5q0 84 35.5 148.5t98 101t142.5 36.5q82 0 131 -35.5t68 -95t10 -131.5l-4 -26h-341q1 -53 34 -82t94 -29q42 0 81.5 12t70.5 35l33 -99q-36 -28 -89 -44.5t-111 -16.5zM308 401q-54 0 -84 -32.5t-40 -77.5h218q3 47 -19.5 78.5
t-74.5 31.5zM308 -197q-54 0 -82.5 26.5t-28.5 70.5q0 49 33 88t83 57l38 -45q-34 -13 -48.5 -34t-14.5 -41t14 -32.5t36 -12.5q14 0 26.5 3t27.5 8l11 -71q-27 -8 -48.5 -12.5t-46.5 -4.5z" />
    <glyph glyph-name="Ecaron" unicode="&#x11a;" horiz-adv-x="605" 
d="M33 0l111 705h483l-19 -121h-335l-26 -165h313l-19 -122h-313l-28 -176h334l-19 -121h-482zM350 765l-110 175h99l78 -95l92 95h108l-142 -175h-125z" />
    <glyph glyph-name="ecaron" unicode="&#x11b;" horiz-adv-x="549" 
d="M286 -11q-77 0 -134 28.5t-88 79t-31 118.5q0 84 35.5 148.5t98 101t142.5 36.5q82 0 131 -35.5t68 -95t10 -131.5l-4 -26h-341q1 -53 34 -82t94 -29q42 0 81.5 12t70.5 35l33 -99q-36 -28 -89 -44.5t-111 -16.5zM308 401q-54 0 -84 -32.5t-40 -77.5h218q3 47 -19.5 78.5
t-74.5 31.5zM272 555l-91 205h93l67 -123l96 123h94l-131 -205h-128z" />
    <glyph glyph-name="Gcircumflex" unicode="&#x11c;" horiz-adv-x="742" 
d="M402 -11q-98 0 -174 36.5t-118.5 107.5t-42.5 174q0 117 46.5 209.5t136.5 146t218 53.5q80 0 143 -22t98 -55l-60 -122q-83 64 -189 64q-75 0 -126.5 -36t-78.5 -96.5t-27 -134.5q0 -99 52 -146t145 -47q27 0 54 4t54 12l23 140h-152l17 112h280l-55 -352
q-52 -24 -117 -36t-127 -12zM267 765l142 175h126l109 -175h-104l-75 95l-95 -95h-103z" />
    <glyph glyph-name="gcircumflex" unicode="&#x11d;" horiz-adv-x="615" 
d="M260 -191q-74 0 -135.5 17t-112.5 50l45 103q42 -26 87 -41.5t94 -15.5q57 0 92.5 24t44.5 79l10 62q-25 -37 -66 -56t-89 -19q-89 0 -143 53.5t-54 148.5q0 78 31 143.5t87.5 104.5t131.5 39q52 0 92.5 -21.5t59.5 -63.5l12 75h148l-73 -458q-16 -107 -81.5 -165.5
t-180.5 -58.5zM279 125q41 0 70 23t44.5 60.5t15.5 81.5q0 45 -25 71.5t-71 26.5q-41 0 -69.5 -22.5t-43.5 -60t-15 -82.5q-1 -45 24 -71.5t70 -26.5zM169 555l131 205h128l91 -205h-93l-68 123l-95 -123h-94z" />
    <glyph glyph-name="Gbreve" unicode="&#x11e;" horiz-adv-x="742" 
d="M402 -11q-98 0 -174 36.5t-118.5 107.5t-42.5 174q0 117 46.5 209.5t136.5 146t218 53.5q80 0 143 -22t98 -55l-60 -122q-83 64 -189 64q-75 0 -126.5 -36t-78.5 -96.5t-27 -134.5q0 -99 52 -146t145 -47q27 0 54 4t54 12l23 140h-152l17 112h280l-55 -352
q-52 -24 -117 -36t-127 -12zM464 760q-81 0 -129.5 48t-47.5 123l83 11q0 -45 26 -70t73 -25t77.5 25t38.5 70l83 -11q-12 -78 -67.5 -124.5t-136.5 -46.5z" />
    <glyph glyph-name="gbreve" unicode="&#x11f;" horiz-adv-x="615" 
d="M260 -191q-74 0 -135.5 17t-112.5 50l45 103q42 -26 87 -41.5t94 -15.5q57 0 92.5 24t44.5 79l10 62q-25 -37 -66 -56t-89 -19q-89 0 -143 53.5t-54 148.5q0 78 31 143.5t87.5 104.5t131.5 39q52 0 92.5 -21.5t59.5 -63.5l12 75h148l-73 -458q-16 -107 -81.5 -165.5
t-180.5 -58.5zM279 125q41 0 70 23t44.5 60.5t15.5 81.5q0 45 -25 71.5t-71 26.5q-41 0 -69.5 -22.5t-43.5 -60t-15 -82.5q-1 -45 24 -71.5t70 -26.5zM357 552q-75 0 -119 53t-39 142l83 8q-1 -56 20 -85.5t61 -29.5t65.5 29.5t33.5 85.5l83 -8q-10 -90 -60.5 -142.5
t-127.5 -52.5z" />
    <glyph glyph-name="Gdotaccent" unicode="&#x120;" horiz-adv-x="742" 
d="M402 -11q-98 0 -174 36.5t-118.5 107.5t-42.5 174q0 117 46.5 209.5t136.5 146t218 53.5q80 0 143 -22t98 -55l-60 -122q-83 64 -189 64q-75 0 -126.5 -36t-78.5 -96.5t-27 -134.5q0 -99 52 -146t145 -47q27 0 54 4t54 12l23 140h-152l17 112h280l-55 -352
q-52 -24 -117 -36t-127 -12zM394 786l21 133h139l-20 -133h-140z" />
    <glyph glyph-name="gdotaccent" unicode="&#x121;" horiz-adv-x="615" 
d="M260 -191q-74 0 -135.5 17t-112.5 50l45 103q42 -26 87 -41.5t94 -15.5q57 0 92.5 24t44.5 79l10 62q-25 -37 -66 -56t-89 -19q-89 0 -143 53.5t-54 148.5q0 78 31 143.5t87.5 104.5t131.5 39q52 0 92.5 -21.5t59.5 -63.5l12 75h148l-73 -458q-16 -107 -81.5 -165.5
t-180.5 -58.5zM279 125q41 0 70 23t44.5 60.5t15.5 81.5q0 45 -25 71.5t-71 26.5q-41 0 -69.5 -22.5t-43.5 -60t-15 -82.5q-1 -45 24 -71.5t70 -26.5zM285 590l20 133h141l-21 -133h-140z" />
    <glyph glyph-name="uni0122" unicode="&#x122;" horiz-adv-x="742" 
d="M402 -11q-98 0 -174 36.5t-118.5 107.5t-42.5 174q0 117 46.5 209.5t136.5 146t218 53.5q80 0 143 -22t98 -55l-60 -122q-83 64 -189 64q-75 0 -126.5 -36t-78.5 -96.5t-27 -134.5q0 -99 52 -146t145 -47q27 0 54 4t54 12l23 140h-152l17 112h280l-55 -352
q-52 -24 -117 -36t-127 -12zM363 -284l-44 41q20 14 30 28.5t14 31.5h-72l18 114h150l-13 -80q-7 -45 -23.5 -77t-59.5 -58z" />
    <glyph glyph-name="uni0123" unicode="&#x123;" horiz-adv-x="615" 
d="M260 -191q-74 0 -135.5 17t-112.5 50l45 103q42 -26 87 -41.5t94 -15.5q57 0 92.5 24t44.5 79l10 62q-25 -37 -66 -56t-89 -19q-89 0 -143 53.5t-54 148.5q0 78 31 143.5t87.5 104.5t131.5 39q52 0 92.5 -21.5t59.5 -63.5l12 75h148l-73 -458q-16 -107 -81.5 -165.5
t-180.5 -58.5zM279 125q41 0 70 23t44.5 60.5t15.5 81.5q0 45 -25 71.5t-71 26.5q-41 0 -69.5 -22.5t-43.5 -60t-15 -82.5q-1 -45 24 -71.5t70 -26.5zM276 562l13 81q7 44 23.5 76t59.5 58l43 -41q-20 -14 -29.5 -28.5t-14.5 -31.5h73l-19 -114h-149z" />
    <glyph glyph-name="Hcircumflex" unicode="&#x124;" horiz-adv-x="780" 
d="M32 0l112 705h155l-45 -283h327l46 283h155l-112 -705h-155l46 293h-328l-46 -293h-155zM277 765l142 175h126l109 -175h-104l-75 95l-95 -95h-103z" />
    <glyph glyph-name="hcircumflex" unicode="&#x125;" horiz-adv-x="595" 
d="M19 0l112 705h151l-44 -282q54 78 161 78q80 0 122.5 -50t25.5 -159l-46 -292h-151l45 289q16 95 -61 95q-51 0 -82 -32.5t-40 -89.5l-42 -262h-151zM185 765l142 175h126l109 -175h-104l-75 95l-95 -95h-103z" />
    <glyph glyph-name="Hbar" unicode="&#x126;" horiz-adv-x="829" 
d="M56 0l81 506h-81l18 112h80l14 87h155l-13 -87h327l13 87h156l-14 -87h82l-18 -112h-81l-81 -506h-156l45 280h-327l-45 -280h-155zM277 409h327l15 97h-327z" />
    <glyph glyph-name="hbar" unicode="&#x127;" horiz-adv-x="595" 
d="M19 0l85 538h-84l16 104h85l10 63h151l-10 -63h186l-16 -104h-187l-18 -121q54 78 161 78q80 0 122.5 -50t25.5 -159l-45 -286h-151l44 283q16 95 -61 95q-51 0 -82 -32.5t-40 -89.5l-41 -256h-151z" />
    <glyph glyph-name="Itilde" unicode="&#x128;" horiz-adv-x="297" 
d="M32 0l112 705h155l-112 -705h-155zM69 766l-72 4q12 76 51.5 116.5t98.5 40.5q29 0 55 -11t50 -22q20 -11 38.5 -19t36.5 -8q55 0 73 64l71 -4q-11 -76 -50.5 -116.5t-97.5 -40.5q-31 0 -56.5 11t-48.5 23q-21 10 -39 18t-37 8q-56 0 -73 -64z" />
    <glyph glyph-name="itilde" unicode="&#x129;" horiz-adv-x="268" 
d="M19 0l78 491h151l-78 -491h-151zM57 581l-71 4q9 76 46 116.5t91 40.5q28 0 47.5 -12t36.5 -25q14 -9 27.5 -16t30.5 -7q50 0 66 64l71 -4q-9 -76 -45.5 -116.5t-90.5 -40.5q-29 0 -49 11.5t-37 24.5q-14 10 -27.5 17t-29.5 7q-50 0 -66 -64z" />
    <glyph glyph-name="Imacron" unicode="&#x12a;" horiz-adv-x="297" 
d="M32 0l112 705h155l-112 -705h-155zM58 801l13 85h356l-13 -85h-356z" />
    <glyph glyph-name="imacron" unicode="&#x12b;" horiz-adv-x="268" 
d="M19 0l78 491h151l-78 -491h-151zM30 611l13 85h326l-13 -85h-326z" />
    <glyph glyph-name="Ibreve" unicode="&#x12c;" horiz-adv-x="297" 
d="M32 0l112 705h155l-112 -705h-155zM234 760q-81 0 -129.5 48t-47.5 123l83 11q0 -45 26 -70t73 -25t77.5 25t38.5 70l83 -11q-12 -78 -67.5 -124.5t-136.5 -46.5z" />
    <glyph glyph-name="ibreve" unicode="&#x12d;" horiz-adv-x="268" 
d="M19 0l78 491h151l-78 -491h-151zM191 552q-75 0 -119 53t-39 142l83 8q-1 -56 20 -85.5t61 -29.5t65.5 29.5t33.5 85.5l83 -8q-10 -90 -60.5 -142.5t-127.5 -52.5z" />
    <glyph glyph-name="Iogonek" unicode="&#x12e;" horiz-adv-x="297" 
d="M32 0l112 705h155l-112 -705h-155zM107 -197q-54 0 -82.5 26.5t-28.5 70.5q0 49 33 88t83 57l38 -45q-34 -13 -48.5 -34t-14.5 -41t14 -32.5t36 -12.5q14 0 26.5 3t27.5 8l11 -71q-27 -8 -48.5 -12.5t-46.5 -4.5z" />
    <glyph glyph-name="iogonek" unicode="&#x12f;" horiz-adv-x="268" 
d="M19 0l78 491h151l-78 -491h-151zM107 586l23 141h162l-22 -141h-163zM93 -197q-54 0 -82.5 26.5t-28.5 70.5q0 49 33 88t83 57l38 -45q-34 -13 -48.5 -34t-14.5 -41t14 -32.5t36 -12.5q14 0 26.5 3t27.5 8l11 -71q-27 -8 -48.5 -12.5t-46.5 -4.5z" />
    <glyph glyph-name="Idotaccent" unicode="&#x130;" horiz-adv-x="297" 
d="M32 0l112 705h155l-112 -705h-155zM164 786l21 133h139l-20 -133h-140z" />
    <glyph glyph-name="dotlessi" unicode="&#x131;" horiz-adv-x="268" 
d="M19 0l78 491h151l-78 -491h-151z" />
    <glyph glyph-name="IJ" unicode="&#x132;" horiz-adv-x="669" 
d="M32 0l112 705h155l-112 -705h-155zM261 -10l3 126l78 4q42 3 65 25t31 68l78 492h155l-80 -503q-10 -65 -36 -109.5t-75 -69t-127 -28.5z" />
    <glyph glyph-name="Jcircumflex" unicode="&#x134;" horiz-adv-x="372" 
d="M-36 -10l3 126l78 4q42 3 65 25t31 68l78 492h155l-80 -503q-10 -65 -36 -109.5t-75 -69t-127 -28.5zM112 765l142 175h126l109 -175h-104l-75 95l-95 -95h-103z" />
    <glyph glyph-name="jcircumflex" unicode="&#x135;" horiz-adv-x="273" 
d="M-95 -193l-10 108l49 5q36 3 55 22t25 56l78 493h151l-75 -474q-11 -70 -36 -114t-71 -66t-121 -27zM6 555l131 205h128l91 -205h-93l-68 123l-95 -123h-94z" />
    <glyph glyph-name="uni0136" unicode="&#x136;" horiz-adv-x="687" 
d="M32 0l112 705h155l-49 -307h2l334 307h194l-381 -348l284 -357h-176l-266 326h-2l-52 -326h-155zM277 -284l-44 41q20 14 30 28.5t14 31.5h-72l18 114h150l-13 -80q-7 -45 -23.5 -77t-59.5 -58z" />
    <glyph glyph-name="uni0137" unicode="&#x137;" horiz-adv-x="558" 
d="M20 0l111 705h151l-65 -417h2l209 203h177l-242 -242l180 -249h-173l-162 219h-2l-35 -219h-151zM221 -284l-44 41q20 14 30 28.5t14 31.5h-72l18 114h150l-13 -80q-7 -45 -23.5 -77t-59.5 -58z" />
    <glyph glyph-name="kgreenlandic" unicode="&#x138;" horiz-adv-x="558" 
d="M19 0l78 491h151l-32 -203h2l210 203h177l-243 -242l181 -249h-173l-163 219h-2l-35 -219h-151z" />
    <glyph glyph-name="Lacute" unicode="&#x139;" horiz-adv-x="573" 
d="M32 0l112 705h155l-91 -574h326l-21 -131h-481zM178 765l130 175h157l-182 -175h-105z" />
    <glyph glyph-name="lacute" unicode="&#x13a;" horiz-adv-x="333" 
d="M206 -11q-92 0 -132 50.5t-25 146.5l82 519h151l-82 -517q-11 -77 58 -77q10 0 21 1l22 2l-20 -115q-33 -10 -75 -10zM164 765l130 175h157l-182 -175h-105z" />
    <glyph glyph-name="uni013B" unicode="&#x13b;" horiz-adv-x="573" 
d="M32 0l112 705h155l-91 -574h326l-21 -131h-481zM243 -284l-44 41q20 14 30 28.5t14 31.5h-72l18 114h150l-13 -80q-7 -45 -23.5 -77t-59.5 -58z" />
    <glyph glyph-name="uni013C" unicode="&#x13c;" horiz-adv-x="333" 
d="M206 -11q-92 0 -132 50.5t-25 146.5l82 519h151l-82 -517q-11 -77 58 -77q10 0 21 1l22 2l-20 -115q-33 -10 -75 -10zM128 -284l-44 41q20 14 30 28.5t14 31.5h-72l18 114h150l-13 -80q-7 -45 -23.5 -77t-59.5 -58z" />
    <glyph glyph-name="Lcaron" unicode="&#x13d;" horiz-adv-x="573" 
d="M32 0l112 705h155l-91 -574h326l-21 -131h-481zM363 462l38 243h112l-62 -243h-88z" />
    <glyph glyph-name="lcaron" unicode="&#x13e;" horiz-adv-x="333" 
d="M206 -11q-92 0 -132 50.5t-25 146.5l82 519h151l-82 -517q-11 -77 58 -77q10 0 21 1l22 2l-20 -115q-33 -10 -75 -10zM288 511l31 194h95l-59 -194h-67z" />
    <glyph glyph-name="Ldot" unicode="&#x13f;" horiz-adv-x="573" 
d="M32 0l112 705h155l-91 -574h326l-21 -131h-481zM370 326l22 140h163l-23 -140h-162z" />
    <glyph glyph-name="ldot" unicode="&#x140;" horiz-adv-x="414" 
d="M206 -11q-92 0 -132 50.5t-25 146.5l82 519h151l-82 -517q-11 -77 58 -77q10 0 21 1l22 2l-20 -115q-33 -10 -75 -10zM267 287l22 140h163l-23 -140h-162z" />
    <glyph glyph-name="Lslash" unicode="&#x141;" horiz-adv-x="573" 
d="M32 0l112 705h155l-91 -574h326l-21 -131h-481zM10 231l-48 105l444 207l48 -105z" />
    <glyph glyph-name="lslash" unicode="&#x142;" horiz-adv-x="333" 
d="M206 -11q-92 0 -132 50.5t-25 146.5l82 519h151l-82 -517q-11 -77 58 -77q10 0 21 1l22 2l-20 -115q-33 -10 -75 -10zM7 217l-48 106l358 173l48 -106z" />
    <glyph glyph-name="Nacute" unicode="&#x143;" horiz-adv-x="752" 
d="M32 0l112 705h115l278 -464l73 464h144l-112 -705h-114l-279 464l-73 -464h-144zM404 765l130 175h157l-182 -175h-105z" />
    <glyph glyph-name="nacute" unicode="&#x144;" horiz-adv-x="595" 
d="M19 0l78 491h148l-12 -75q54 85 166 85q80 0 122.5 -50t25.5 -159l-46 -292h-151l45 289q16 95 -61 95q-51 0 -82 -32.5t-40 -89.5l-42 -262h-151zM294 555l132 205h147l-180 -205h-99z" />
    <glyph glyph-name="uni0145" unicode="&#x145;" horiz-adv-x="752" 
d="M32 0l112 705h115l278 -464l73 464h144l-112 -705h-114l-279 464l-73 -464h-144zM316 -284l-44 41q20 14 30 28.5t14 31.5h-72l18 114h150l-13 -80q-7 -45 -23.5 -77t-59.5 -58z" />
    <glyph glyph-name="uni0146" unicode="&#x146;" horiz-adv-x="595" 
d="M19 0l78 491h148l-12 -75q54 85 166 85q80 0 122.5 -50t25.5 -159l-46 -292h-151l45 289q16 95 -61 95q-51 0 -82 -32.5t-40 -89.5l-42 -262h-151zM230 -284l-44 41q20 14 30 28.5t14 31.5h-72l18 114h150l-13 -80q-7 -45 -23.5 -77t-59.5 -58z" />
    <glyph glyph-name="Ncaron" unicode="&#x147;" horiz-adv-x="752" 
d="M32 0l112 705h115l278 -464l73 464h144l-112 -705h-114l-279 464l-73 -464h-144zM394 765l-110 175h99l78 -95l92 95h108l-142 -175h-125z" />
    <glyph glyph-name="ncaron" unicode="&#x148;" horiz-adv-x="595" 
d="M19 0l78 491h148l-12 -75q54 85 166 85q80 0 122.5 -50t25.5 -159l-46 -292h-151l45 289q16 95 -61 95q-51 0 -82 -32.5t-40 -89.5l-42 -262h-151zM280 555l-91 205h93l67 -123l96 123h94l-131 -205h-128z" />
    <glyph glyph-name="napostrophe" unicode="&#x149;" horiz-adv-x="595" 
d="M114 564l-50 36q18 15 27.5 30.5t12.5 31.5h-71l18 115h149l-11 -73q-7 -43 -22.5 -76.5t-52.5 -63.5zM19 0l78 491h148l-12 -75q54 85 166 85q80 0 122.5 -50t25.5 -159l-46 -292h-151l45 289q16 95 -61 95q-51 0 -82 -32.5t-40 -89.5l-42 -262h-151z" />
    <glyph glyph-name="Eng" unicode="&#x14a;" horiz-adv-x="752" 
d="M372 -193l-10 108l49 5q42 4 61.5 22.5t25.5 55.5l6 41l-255 425l-73 -464h-144l112 705h115l277 -465l74 465h144l-109 -688q-11 -70 -36 -114t-71 -66t-121 -27z" />
    <glyph glyph-name="eng" unicode="&#x14b;" horiz-adv-x="595" 
d="M225 -193l-10 108l49 5q74 6 85 78l46 291q16 95 -61 95q-51 0 -82 -32.5t-40 -89.5l-42 -262h-151l78 491h148l-12 -75q54 85 166 85q80 0 122.5 -50t25.5 -159l-44 -275q-11 -70 -37 -114t-73.5 -66t-121.5 -27z" />
    <glyph glyph-name="Omacron" unicode="&#x14c;" horiz-adv-x="796" 
d="M388 -11q-97 0 -169.5 37t-112.5 107t-40 169q0 121 46.5 214.5t130.5 146.5t199 53q98 0 170.5 -37t112 -107t39.5 -168q0 -122 -46 -215.5t-130.5 -146.5t-199.5 -53zM391 121q67 0 114.5 36t72.5 99t25 145q0 93 -44 138t-120 45q-67 0 -114 -35.5t-72 -98.5t-25 -146
q0 -93 43.5 -138t119.5 -45zM294 801l13 85h356l-13 -85h-356z" />
    <glyph glyph-name="omacron" unicode="&#x14d;" horiz-adv-x="589" 
d="M274 -11q-114 0 -177.5 61.5t-63.5 164.5q0 91 39 155t103.5 97.5t138.5 33.5q114 0 178 -61.5t64 -163.5q0 -92 -39.5 -156t-103.5 -97.5t-139 -33.5zM278 102q59 0 92.5 51t33.5 128q0 52 -25 79.5t-68 27.5q-60 0 -93 -51t-33 -127q0 -52 24.5 -80t68.5 -28zM191 611
l13 85h326l-13 -85h-326z" />
    <glyph glyph-name="Obreve" unicode="&#x14e;" horiz-adv-x="796" 
d="M388 -11q-97 0 -169.5 37t-112.5 107t-40 169q0 121 46.5 214.5t130.5 146.5t199 53q98 0 170.5 -37t112 -107t39.5 -168q0 -122 -46 -215.5t-130.5 -146.5t-199.5 -53zM391 121q67 0 114.5 36t72.5 99t25 145q0 93 -44 138t-120 45q-67 0 -114 -35.5t-72 -98.5t-25 -146
q0 -93 43.5 -138t119.5 -45zM470 760q-81 0 -129.5 48t-47.5 123l83 11q0 -45 26 -70t73 -25t77.5 25t38.5 70l83 -11q-12 -78 -67.5 -124.5t-136.5 -46.5z" />
    <glyph glyph-name="obreve" unicode="&#x14f;" horiz-adv-x="589" 
d="M274 -11q-114 0 -177.5 61.5t-63.5 164.5q0 91 39 155t103.5 97.5t138.5 33.5q114 0 178 -61.5t64 -163.5q0 -92 -39.5 -156t-103.5 -97.5t-139 -33.5zM278 102q59 0 92.5 51t33.5 128q0 52 -25 79.5t-68 27.5q-60 0 -93 -51t-33 -127q0 -52 24.5 -80t68.5 -28zM352 552
q-75 0 -119 53t-39 142l83 8q-1 -56 20 -85.5t61 -29.5t65.5 29.5t33.5 85.5l83 -8q-10 -90 -60.5 -142.5t-127.5 -52.5z" />
    <glyph glyph-name="Ohungarumlaut" unicode="&#x150;" horiz-adv-x="796" 
d="M388 -11q-97 0 -169.5 37t-112.5 107t-40 169q0 121 46.5 214.5t130.5 146.5t199 53q98 0 170.5 -37t112 -107t39.5 -168q0 -122 -46 -215.5t-130.5 -146.5t-199.5 -53zM391 121q67 0 114.5 36t72.5 99t25 145q0 93 -44 138t-120 45q-67 0 -114 -35.5t-72 -98.5t-25 -146
q0 -93 43.5 -138t119.5 -45zM346 765l100 175h131l-147 -175h-84zM504 765l113 175h131l-159 -175h-85z" />
    <glyph glyph-name="ohungarumlaut" unicode="&#x151;" horiz-adv-x="589" 
d="M274 -11q-114 0 -177.5 61.5t-63.5 164.5q0 91 39 155t103.5 97.5t138.5 33.5q114 0 178 -61.5t64 -163.5q0 -92 -39.5 -156t-103.5 -97.5t-139 -33.5zM278 102q59 0 92.5 51t33.5 128q0 52 -25 79.5t-68 27.5q-60 0 -93 -51t-33 -127q0 -52 24.5 -80t68.5 -28zM384 555
l64 205h123l-109 -205h-78zM222 555l66 205h123l-110 -205h-79z" />
    <glyph glyph-name="OE" unicode="&#x152;" horiz-adv-x="1062" 
d="M428 0q-173 0 -266.5 81t-93.5 224q-1 119 45 209.5t137.5 140.5t229.5 50h602l-19 -121h-334l-26 -165h312l-19 -122h-311l-29 -176h334l-19 -121h-543zM428 127h81l71 451h-102q-86 0 -141 -34.5t-81.5 -95.5t-26.5 -141q0 -87 50 -133.5t149 -46.5z" />
    <glyph glyph-name="oe" unicode="&#x153;" horiz-adv-x="917" 
d="M274 -11q-114 0 -177.5 62t-63.5 164q0 92 39 156t103.5 97t138.5 33q60 0 105 -21t73 -60q35 37 82.5 59t104.5 22q81 0 130.5 -35t68.5 -94t8 -131l-4 -28h-334q-1 -53 31 -81.5t91 -28.5q90 0 151 47l34 -100q-37 -28 -88 -44.5t-109 -16.5q-64 0 -113 21.5t-80 60.5
q-37 -39 -86 -60.5t-105 -21.5zM678 401q-52 0 -81 -32.5t-38 -77.5h212q4 47 -18 78.5t-75 31.5zM278 103q59 0 92.5 50.5t33.5 127.5q0 52 -25 79.5t-68 27.5q-60 0 -93 -51t-33 -127q0 -52 24.5 -79.5t68.5 -27.5z" />
    <glyph glyph-name="Racute" unicode="&#x154;" horiz-adv-x="696" 
d="M32 0l112 705h289q118 0 180.5 -53t62.5 -145q0 -98 -52.5 -153.5t-137.5 -71.5q27 -11 46.5 -35t32.5 -58l72 -189h-159l-81 214q-12 32 -31 45.5t-53 13.5h-83l-42 -273h-156zM248 385h152q61 0 94 27.5t33 81.5q0 45 -28.5 67.5t-90.5 22.5h-128zM370 765l130 175h157
l-182 -175h-105z" />
    <glyph glyph-name="racute" unicode="&#x155;" horiz-adv-x="412" 
d="M19 0l78 491h148l-14 -84q23 41 63 65.5t95 28.5l46 3l-5 -127l-96 -10q-60 -6 -86.5 -35t-35.5 -86l-39 -246h-154zM232 556l132 205h147l-180 -205h-99z" />
    <glyph glyph-name="uni0156" unicode="&#x156;" horiz-adv-x="696" 
d="M32 0l112 705h289q118 0 180.5 -53t62.5 -145q0 -98 -52.5 -153.5t-137.5 -71.5q27 -11 46.5 -35t32.5 -58l72 -189h-159l-81 214q-12 32 -31 45.5t-53 13.5h-83l-42 -273h-156zM248 385h152q61 0 94 27.5t33 81.5q0 45 -28.5 67.5t-90.5 22.5h-128zM287 -284l-44 41
q20 14 30 28.5t14 31.5h-72l18 114h150l-13 -80q-7 -45 -23.5 -77t-59.5 -58z" />
    <glyph glyph-name="uni0157" unicode="&#x157;" horiz-adv-x="412" 
d="M19 0l78 491h148l-14 -84q23 41 63 65.5t95 28.5l46 3l-5 -127l-96 -10q-60 -6 -86.5 -35t-35.5 -86l-39 -246h-154zM65 -284l-44 41q20 14 30 28.5t14 31.5h-72l18 114h150l-13 -80q-7 -45 -23.5 -77t-59.5 -58z" />
    <glyph glyph-name="Rcaron" unicode="&#x158;" horiz-adv-x="696" 
d="M32 0l112 705h289q118 0 180.5 -53t62.5 -145q0 -98 -52.5 -153.5t-137.5 -71.5q27 -11 46.5 -35t32.5 -58l72 -189h-159l-81 214q-12 32 -31 45.5t-53 13.5h-83l-42 -273h-156zM248 385h152q61 0 94 27.5t33 81.5q0 45 -28.5 67.5t-90.5 22.5h-128zM360 765l-110 175h99
l78 -95l92 95h108l-142 -175h-125z" />
    <glyph glyph-name="rcaron" unicode="&#x159;" horiz-adv-x="412" 
d="M19 0l78 491h148l-14 -84q23 41 63 65.5t95 28.5l46 3l-5 -127l-96 -10q-60 -6 -86.5 -35t-35.5 -86l-39 -246h-154zM218 556l-91 205h93l67 -123l96 123h94l-131 -205h-128z" />
    <glyph glyph-name="Sacute" unicode="&#x15a;" horiz-adv-x="641" 
d="M302 -11q-78 0 -152 20.5t-130 63.5l53 118q59 -40 121.5 -56.5t121.5 -16.5q64 0 99.5 23t35.5 59q0 29 -21 48t-70 30l-113 27q-74 17 -117.5 63t-43.5 119q0 72 40 123.5t106 78.5t143 27q66 0 133.5 -20t121.5 -62l-55 -112q-46 35 -99.5 50t-102.5 15
q-61 0 -97.5 -23.5t-36.5 -62.5q0 -30 19.5 -47.5t58.5 -27.5l112 -27q85 -19 130 -66.5t45 -113.5q0 -77 -42 -128t-111 -76.5t-149 -25.5zM342 765l130 175h157l-182 -175h-105z" />
    <glyph glyph-name="sacute" unicode="&#x15b;" horiz-adv-x="492" 
d="M228 -11q-64 0 -121 15t-96 43l44 97q36 -24 82 -37.5t90 -13.5q43 0 64.5 15t21.5 38q0 33 -47 42l-91 17q-59 10 -91 43.5t-32 84.5q0 45 26.5 83.5t78.5 61.5t128 23q47 0 96.5 -13.5t85.5 -40.5l-42 -95q-33 23 -71.5 34.5t-76.5 11.5q-45 0 -67.5 -16t-22.5 -41
q0 -14 9.5 -24.5t31.5 -14.5l90 -17q130 -24 130 -128q0 -81 -60.5 -124.5t-159.5 -43.5zM241 555l132 205h147l-180 -205h-99z" />
    <glyph glyph-name="Scircumflex" unicode="&#x15c;" horiz-adv-x="641" 
d="M302 -11q-78 0 -152 20.5t-130 63.5l53 118q59 -40 121.5 -56.5t121.5 -16.5q64 0 99.5 23t35.5 59q0 29 -21 48t-70 30l-113 27q-74 17 -117.5 63t-43.5 119q0 72 40 123.5t106 78.5t143 27q66 0 133.5 -20t121.5 -62l-55 -112q-46 35 -99.5 50t-102.5 15
q-61 0 -97.5 -23.5t-36.5 -62.5q0 -30 19.5 -47.5t58.5 -27.5l112 -27q85 -19 130 -66.5t45 -113.5q0 -77 -42 -128t-111 -76.5t-149 -25.5zM200 765l142 175h126l109 -175h-104l-75 95l-95 -95h-103z" />
    <glyph glyph-name="scircumflex" unicode="&#x15d;" horiz-adv-x="492" 
d="M228 -11q-64 0 -121 15t-96 43l44 97q36 -24 82 -37.5t90 -13.5q43 0 64.5 15t21.5 38q0 33 -47 42l-91 17q-59 10 -91 43.5t-32 84.5q0 45 26.5 83.5t78.5 61.5t128 23q47 0 96.5 -13.5t85.5 -40.5l-42 -95q-33 23 -71.5 34.5t-76.5 11.5q-45 0 -67.5 -16t-22.5 -41
q0 -14 9.5 -24.5t31.5 -14.5l90 -17q130 -24 130 -128q0 -81 -60.5 -124.5t-159.5 -43.5zM110 555l131 205h128l91 -205h-93l-68 123l-95 -123h-94z" />
    <glyph glyph-name="Scedilla" unicode="&#x15e;" horiz-adv-x="641" 
d="M302 -11q-78 0 -152 20.5t-130 63.5l53 118q59 -40 121.5 -56.5t121.5 -16.5q64 0 99.5 23t35.5 59q0 29 -21 48t-70 30l-113 27q-74 17 -117.5 63t-43.5 119q0 72 40 123.5t106 78.5t143 27q66 0 133.5 -20t121.5 -62l-55 -112q-46 35 -99.5 50t-102.5 15
q-61 0 -97.5 -23.5t-36.5 -62.5q0 -30 19.5 -47.5t58.5 -27.5l112 -27q85 -19 130 -66.5t45 -113.5q0 -77 -42 -128t-111 -76.5t-149 -25.5zM283 -197q-31 0 -59.5 5.5t-48.5 16.5l27 64q35 -18 73 -18q54 0 54 28q0 18 -35 18q-8 0 -17 -1t-21 -4l-19 20l27 88h76l-18 -54
h4q42 0 65 -18t23 -50q0 -43 -37.5 -69t-93.5 -26z" />
    <glyph glyph-name="scedilla" unicode="&#x15f;" horiz-adv-x="492" 
d="M228 -11q-64 0 -121 15t-96 43l44 97q36 -24 82 -37.5t90 -13.5q43 0 64.5 15t21.5 38q0 33 -47 42l-91 17q-59 10 -91 43.5t-32 84.5q0 45 26.5 83.5t78.5 61.5t128 23q47 0 96.5 -13.5t85.5 -40.5l-42 -95q-33 23 -71.5 34.5t-76.5 11.5q-45 0 -67.5 -16t-22.5 -41
q0 -14 9.5 -24.5t31.5 -14.5l90 -17q130 -24 130 -128q0 -81 -60.5 -124.5t-159.5 -43.5zM198 -197q-31 0 -59.5 5.5t-48.5 16.5l27 64q35 -18 73 -18q54 0 54 28q0 18 -35 18q-8 0 -17 -1t-21 -4l-19 20l27 88h76l-18 -54h4q42 0 65 -18t23 -50q0 -43 -37.5 -69t-93.5 -26z
" />
    <glyph glyph-name="Scaron" unicode="&#x160;" horiz-adv-x="641" 
d="M302 -11q-78 0 -152 20.5t-130 63.5l53 118q59 -40 121.5 -56.5t121.5 -16.5q64 0 99.5 23t35.5 59q0 29 -21 48t-70 30l-113 27q-74 17 -117.5 63t-43.5 119q0 72 40 123.5t106 78.5t143 27q66 0 133.5 -20t121.5 -62l-55 -112q-46 35 -99.5 50t-102.5 15
q-61 0 -97.5 -23.5t-36.5 -62.5q0 -30 19.5 -47.5t58.5 -27.5l112 -27q85 -19 130 -66.5t45 -113.5q0 -77 -42 -128t-111 -76.5t-149 -25.5zM332 765l-110 175h99l78 -95l92 95h108l-142 -175h-125z" />
    <glyph glyph-name="scaron" unicode="&#x161;" horiz-adv-x="492" 
d="M228 -11q-64 0 -121 15t-96 43l44 97q36 -24 82 -37.5t90 -13.5q43 0 64.5 15t21.5 38q0 33 -47 42l-91 17q-59 10 -91 43.5t-32 84.5q0 45 26.5 83.5t78.5 61.5t128 23q47 0 96.5 -13.5t85.5 -40.5l-42 -95q-33 23 -71.5 34.5t-76.5 11.5q-45 0 -67.5 -16t-22.5 -41
q0 -14 9.5 -24.5t31.5 -14.5l90 -17q130 -24 130 -128q0 -81 -60.5 -124.5t-159.5 -43.5zM227 555l-91 205h93l67 -123l96 123h94l-131 -205h-128z" />
    <glyph glyph-name="uni0162" unicode="&#x162;" horiz-adv-x="632" 
d="M200 0l91 577h-233l21 128h621l-20 -128h-233l-92 -577h-155zM256 -197q-31 0 -59.5 5.5t-48.5 16.5l27 64q35 -18 73 -18q54 0 54 28q0 18 -35 18q-8 0 -17 -1t-21 -4l-19 20l27 88h76l-18 -54h4q42 0 65 -18t23 -50q0 -43 -37.5 -69t-93.5 -26z" />
    <glyph glyph-name="uni0163" unicode="&#x163;" horiz-adv-x="404" 
d="M270 -11q-106 0 -153 56.5t-33 145.5l30 187h-93l17 113h93l23 144h151l-23 -144h146l-18 -113h-145l-29 -179q-8 -47 12 -67t59 -20q25 0 54 9l7 -112q-19 -9 -46 -14.5t-52 -5.5zM186 -197q-31 0 -59.5 5.5t-48.5 16.5l27 64q35 -18 73 -18q54 0 54 28q0 18 -35 18
q-8 0 -17 -1t-21 -4l-19 20l27 88h76l-18 -54h4q42 0 65 -18t23 -50q0 -43 -37.5 -69t-93.5 -26z" />
    <glyph glyph-name="Tcaron" unicode="&#x164;" horiz-adv-x="632" 
d="M200 0l91 577h-233l21 128h621l-20 -128h-233l-92 -577h-155zM335 765l-110 175h99l78 -95l92 95h108l-142 -175h-125z" />
    <glyph glyph-name="tcaron" unicode="&#x165;" horiz-adv-x="404" 
d="M270 -11q-106 0 -153 56.5t-33 145.5l30 187h-93l17 113h93l23 144h151l-23 -144h146l-18 -113h-145l-29 -179q-8 -47 12 -67t59 -20q25 0 54 9l7 -112q-19 -9 -46 -14.5t-52 -5.5zM336.226 535.788l27.7744 168.986h94.2344l-55.5488 -168.986h-66.46z" />
    <glyph glyph-name="Tbar" unicode="&#x166;" horiz-adv-x="632" 
d="M200 0l91 577h-233l21 128h621l-20 -128h-233l-92 -577h-155zM111 301l18 111h426l-18 -111h-426z" />
    <glyph glyph-name="tbar" unicode="&#x167;" horiz-adv-x="404" 
d="M270 -11q-106 0 -153 56.5t-33 145.5l30 187h-93l17 113h93l23 144h151l-23 -144h146l-18 -113h-145l-29 -179q-8 -47 12 -67t59 -20q25 0 54 9l7 -112q-19 -9 -46 -14.5t-52 -5.5zM19 213l15 88h327l-15 -88h-327z" />
    <glyph glyph-name="Utilde" unicode="&#x168;" horiz-adv-x="742" 
d="M346 -11q-91 0 -158 35.5t-98 107t-14 181.5l62 392h156l-64 -402q-13 -88 18.5 -135t109.5 -47q71 0 113.5 38t56.5 120l67 426h154l-67 -421q-23 -143 -102 -219t-234 -76zM291 766l-72 4q12 76 51.5 116.5t98.5 40.5q29 0 55 -11t50 -22q20 -11 38.5 -19t36.5 -8
q55 0 73 64l71 -4q-11 -76 -50.5 -116.5t-97.5 -40.5q-31 0 -56.5 11t-48.5 23q-21 10 -39 18t-37 8q-56 0 -73 -64z" />
    <glyph glyph-name="utilde" unicode="&#x169;" horiz-adv-x="590" 
d="M194 -11q-78 0 -120.5 50.5t-24.5 159.5l46 292h151l-46 -290q-15 -94 60 -94q47 0 78 32.5t40 89.5l41 262h151l-78 -491h-147l11 73q-55 -84 -162 -84zM215 582l-71 4q9 76 46 116.5t91 40.5q28 0 47.5 -12t36.5 -25q14 -9 27.5 -16t30.5 -7q50 0 66 64l71 -4
q-9 -76 -45.5 -116.5t-90.5 -40.5q-29 0 -49 11.5t-37 24.5q-14 10 -27.5 17t-29.5 7q-50 0 -66 -64z" />
    <glyph glyph-name="Umacron" unicode="&#x16a;" horiz-adv-x="742" 
d="M346 -11q-91 0 -158 35.5t-98 107t-14 181.5l62 392h156l-64 -402q-13 -88 18.5 -135t109.5 -47q71 0 113.5 38t56.5 120l67 426h154l-67 -421q-23 -143 -102 -219t-234 -76zM280 801l13 85h356l-13 -85h-356z" />
    <glyph glyph-name="umacron" unicode="&#x16b;" horiz-adv-x="590" 
d="M194 -11q-78 0 -120.5 50.5t-24.5 159.5l46 292h151l-46 -290q-15 -94 60 -94q47 0 78 32.5t40 89.5l41 262h151l-78 -491h-147l11 73q-55 -84 -162 -84zM188 612l13 85h326l-13 -85h-326z" />
    <glyph glyph-name="Ubreve" unicode="&#x16c;" horiz-adv-x="742" 
d="M346 -11q-91 0 -158 35.5t-98 107t-14 181.5l62 392h156l-64 -402q-13 -88 18.5 -135t109.5 -47q71 0 113.5 38t56.5 120l67 426h154l-67 -421q-23 -143 -102 -219t-234 -76zM456 760q-81 0 -129.5 48t-47.5 123l83 11q0 -45 26 -70t73 -25t77.5 25t38.5 70l83 -11
q-12 -78 -67.5 -124.5t-136.5 -46.5z" />
    <glyph glyph-name="ubreve" unicode="&#x16d;" horiz-adv-x="590" 
d="M194 -11q-78 0 -120.5 50.5t-24.5 159.5l46 292h151l-46 -290q-15 -94 60 -94q47 0 78 32.5t40 89.5l41 262h151l-78 -491h-147l11 73q-55 -84 -162 -84zM349 553q-75 0 -119 53t-39 142l83 8q-1 -56 20 -85.5t61 -29.5t65.5 29.5t33.5 85.5l83 -8q-10 -90 -60.5 -142.5
t-127.5 -52.5z" />
    <glyph glyph-name="Uring" unicode="&#x16e;" horiz-adv-x="742" 
d="M346 -11q-91 0 -158 35.5t-98 107t-14 181.5l62 392h156l-64 -402q-13 -88 18.5 -135t109.5 -47q71 0 113.5 38t56.5 120l67 426h154l-67 -421q-23 -143 -102 -219t-234 -76zM465 753q-37 0 -66.5 17t-47 45.5t-17.5 64.5t17.5 64.5t47 45t66.5 16.5t66.5 -16.5t46.5 -45
t17 -64.5t-17 -64.5t-46.5 -45.5t-66.5 -17zM465 818q26 0 43.5 17.5t17.5 44.5t-17.5 44t-43.5 17t-43.5 -17t-17.5 -44t17.5 -44.5t43.5 -17.5z" />
    <glyph glyph-name="uring" unicode="&#x16f;" horiz-adv-x="590" 
d="M194 -11q-78 0 -120.5 50.5t-24.5 159.5l46 292h151l-46 -290q-15 -94 60 -94q47 0 78 32.5t40 89.5l41 262h151l-78 -491h-147l11 73q-55 -84 -162 -84zM360 546q-36 0 -66 17t-47 45.5t-17 63.5q0 36 17 65t47 45.5t66 16.5q37 0 66.5 -16.5t47 -45.5t17.5 -65
q0 -35 -17.5 -63.5t-47 -45.5t-66.5 -17zM360 611q26 0 43.5 17.5t17.5 43.5q0 27 -17.5 44t-43.5 17t-43.5 -17t-17.5 -44q0 -26 17.5 -43.5t43.5 -17.5z" />
    <glyph glyph-name="Uhungarumlaut" unicode="&#x170;" horiz-adv-x="742" 
d="M346 -11q-91 0 -158 35.5t-98 107t-14 181.5l62 392h156l-64 -402q-13 -88 18.5 -135t109.5 -47q71 0 113.5 38t56.5 120l67 426h154l-67 -421q-23 -143 -102 -219t-234 -76zM332 765l100 175h131l-147 -175h-84zM490 765l113 175h131l-159 -175h-85z" />
    <glyph glyph-name="uhungarumlaut" unicode="&#x171;" horiz-adv-x="590" 
d="M194 -11q-78 0 -120.5 50.5t-24.5 159.5l46 292h151l-46 -290q-15 -94 60 -94q47 0 78 32.5t40 89.5l41 262h151l-78 -491h-147l11 73q-55 -84 -162 -84zM381 556l64 205h123l-109 -205h-78zM219 556l66 205h123l-110 -205h-79z" />
    <glyph glyph-name="Uogonek" unicode="&#x172;" horiz-adv-x="742" 
d="M346 -11q-91 0 -158 35.5t-98 107t-14 181.5l62 392h156l-64 -402q-13 -88 18.5 -135t109.5 -47q71 0 113.5 38t56.5 120l67 426h154l-67 -421q-23 -143 -102 -219t-234 -76zM363 -197q-54 0 -82.5 26.5t-28.5 70.5q0 49 33 88t83 57l38 -45q-34 -13 -48.5 -34t-14.5 -41
t14 -32.5t36 -12.5q14 0 26.5 3t27.5 8l11 -71q-27 -8 -48.5 -12.5t-46.5 -4.5z" />
    <glyph glyph-name="uogonek" unicode="&#x173;" horiz-adv-x="590" 
d="M194 -11q-78 0 -120.5 50.5t-24.5 159.5l46 292h151l-46 -290q-15 -94 60 -94q47 0 78 32.5t40 89.5l41 262h151l-78 -491h-147l11 73q-55 -84 -162 -84zM402 -197q-54 0 -82.5 26.5t-28.5 70.5q0 49 33 88t83 57l38 -45q-34 -13 -48.5 -34t-14.5 -41t14 -32.5t36 -12.5
q14 0 26.5 3t27.5 8l11 -71q-27 -8 -48.5 -12.5t-46.5 -4.5z" />
    <glyph glyph-name="Wcircumflex" unicode="&#x174;" horiz-adv-x="1120" 
d="M229 0l-140 705h150l86 -483l248 483h113l88 -487l244 487h159l-364 -705h-126l-91 467l-241 -467h-126zM446 765l142 175h126l109 -175h-104l-75 95l-95 -95h-103z" />
    <glyph glyph-name="wcircumflex" unicode="&#x175;" horiz-adv-x="861" 
d="M158 0l-122 491h144l67 -312l166 312h99l68 -320l169 320h154l-277 -491h-128l-64 279l-150 -279h-126zM287 555l131 205h128l91 -205h-93l-68 123l-95 -123h-94z" />
    <glyph glyph-name="Ycircumflex" unicode="&#x176;" horiz-adv-x="631" 
d="M199 0l50 318l-210 387h170l132 -250l211 250h184l-331 -386l-51 -319h-155zM191 765l142 175h126l109 -175h-104l-75 95l-95 -95h-103z" />
    <glyph glyph-name="ycircumflex" unicode="&#x177;" horiz-adv-x="533" 
d="M28 -180l128 207l-129 464h152l73 -312l177 312h156l-403 -671h-154zM121 555l131 205h128l91 -205h-93l-68 123l-95 -123h-94z" />
    <glyph glyph-name="Ydieresis" unicode="&#x178;" horiz-adv-x="631" 
d="M199 0l50 318l-210 387h170l132 -250l211 250h184l-331 -386l-51 -319h-155zM419 781l22 132h131l-21 -132h-132zM223 781l20 132h132l-21 -132h-131z" />
    <glyph glyph-name="Zacute" unicode="&#x179;" horiz-adv-x="615" 
d="M7 0l18 115l416 461h-342l20 129h532l-18 -114l-415 -462h358l-20 -129h-549zM336 765l130 175h157l-182 -175h-105z" />
    <glyph glyph-name="zacute" unicode="&#x17a;" horiz-adv-x="480" 
d="M7 0l16 97l271 281h-227l18 113h399l-15 -97l-273 -282h239l-18 -112h-410zM243 555l132 205h147l-180 -205h-99z" />
    <glyph glyph-name="Zdotaccent" unicode="&#x17b;" horiz-adv-x="615" 
d="M7 0l18 115l416 461h-342l20 129h532l-18 -114l-415 -462h358l-20 -129h-549zM321 786l21 133h139l-20 -133h-140z" />
    <glyph glyph-name="zdotaccent" unicode="&#x17c;" horiz-adv-x="480" 
d="M7 0l16 97l271 281h-227l18 113h399l-15 -97l-273 -282h239l-18 -112h-410zM228 590l20 133h141l-21 -133h-140z" />
    <glyph glyph-name="Zcaron" unicode="&#x17d;" horiz-adv-x="615" 
d="M7 0l18 115l416 461h-342l20 129h532l-18 -114l-415 -462h358l-20 -129h-549zM326 765l-110 175h99l78 -95l92 95h108l-142 -175h-125z" />
    <glyph glyph-name="zcaron" unicode="&#x17e;" horiz-adv-x="480" 
d="M7 0l16 97l271 281h-227l18 113h399l-15 -97l-273 -282h239l-18 -112h-410zM229 555l-91 205h93l67 -123l96 123h94l-131 -205h-128z" />
    <glyph glyph-name="uni0181" unicode="&#x181;" horiz-adv-x="860" 
d="M197 0l95 597h-23q-46 0 -70 -22.5t-32 -72.5l-7 -45h-126l10 63q14 96 70.5 140.5t166.5 44.5h332q80 0 130 -22t73 -60t23 -86q0 -67 -38 -112.5t-101 -64.5q51 -18 78.5 -57t27.5 -92q0 -103 -70 -157t-191 -54h-348zM411 415h154q60 0 92.5 26t32.5 76q0 35 -25 54
t-78 19h-148zM364 115h173q60 0 90 27.5t30 77.5q0 80 -104 80h-159z" />
    <glyph glyph-name="uni018A" unicode="&#x18a;" horiz-adv-x="939" 
d="M197 0l95 597h-23q-46 0 -70 -22.5t-32 -72.5l-7 -45h-126l10 63q14 96 70.5 140.5t166.5 44.5h266q173 0 266.5 -80.5t94.5 -224.5q0 -113 -46 -204t-136.5 -143.5t-224.5 -52.5h-304zM372 127h131q83 0 136.5 34.5t80 95.5t26.5 141q0 87 -50 133.5t-149 46.5h-103z
" />
    <glyph glyph-name="uni018F" unicode="&#x18f;" horiz-adv-x="796" 
d="M383 -11q-112 0 -188 51t-109 138.5t-15 197.5l6 38h524q-4 80 -56.5 125t-145.5 45q-132 0 -233 -67l-48 120q58 37 135 58t169 21q101 0 178 -39.5t120 -111.5t43 -170q0 -80 -23 -152.5t-69.5 -129.5t-118.5 -90.5t-169 -33.5zM390 115q83 0 132 50t68 127h-369
q0 -84 42.5 -130.5t126.5 -46.5z" />
    <glyph glyph-name="florin" unicode="&#x192;" horiz-adv-x="600" 
d="M-43 -191l19 119h69q32 0 52 19t37 64l136 367h-101l18 113h126l10 28q33 101 92.5 149t163.5 48h68l-19 -119h-57q-41 0 -63.5 -19t-38.5 -65l-8 -22h110l-18 -113h-134l-141 -380q-27 -75 -61 -116t-80.5 -57t-112.5 -16h-67z" />
    <glyph glyph-name="Ohorn" unicode="&#x1a0;" horiz-adv-x="796" 
d="M388 -11q-97 0 -169.5 37t-112.5 107t-40 169q0 121 46.5 214.5t130.5 146.5t199 53q98 0 170.5 -37t112 -107t39.5 -168q0 -122 -46 -215.5t-130.5 -146.5t-199.5 -53zM391 121q67 0 114.5 36t72.5 99t25 145q0 93 -44 138t-120 45q-67 0 -114 -35.5t-72 -98.5t-25 -146
q0 -93 43.5 -138t119.5 -45zM542 633l-32 76q19 -1 34 -2.5t29 -1.5q47 0 70 20t33 82l4 23h131l-7 -42q-6 -42 -27.5 -77.5t-55 -56.5t-76.5 -21h-103z" />
    <glyph glyph-name="ohorn" unicode="&#x1a1;" horiz-adv-x="589" 
d="M274 -11q-114 0 -177.5 61.5t-63.5 164.5q0 91 39 155t103.5 97.5t138.5 33.5q114 0 178 -61.5t64 -163.5q0 -92 -39.5 -156t-103.5 -97.5t-139 -33.5zM278 102q59 0 92.5 51t33.5 128q0 52 -25 79.5t-68 27.5q-60 0 -93 -51t-33 -127q0 -52 24.5 -80t68.5 -28zM466 418
l-84 55l2 18q47 0 70 20t34 81l3 24h132l-8 -44q-10 -62 -49 -104.5t-100 -49.5z" />
    <glyph glyph-name="Uhorn" unicode="&#x1af;" horiz-adv-x="742" 
d="M346 -11q-91 0 -158 35.5t-98 107t-14 181.5l62 392h156l-64 -402q-13 -88 18.5 -135t109.5 -47q71 0 113.5 38t56.5 120l67 426h154l-67 -421q-23 -143 -102 -219t-234 -76zM715 633l-84 55l3 17q31 0 51.5 7.5t33 29t18.5 62.5l4 26h131l-6 -45q-10 -62 -50 -103.5
t-101 -48.5z" />
    <glyph glyph-name="uhorn" unicode="&#x1b0;" horiz-adv-x="590" 
d="M194 -11q-78 0 -120.5 50.5t-24.5 159.5l46 292h151l-46 -290q-15 -94 60 -94q47 0 78 32.5t40 89.5l41 262h151l-78 -491h-147l11 73q-55 -84 -162 -84zM539 418l-84 55l2 18q47 0 70 20t34 81l3 24h132l-8 -44q-10 -62 -49 -104.5t-100 -49.5z" />
    <glyph glyph-name="uni01B3" unicode="&#x1b3;" horiz-adv-x="644" 
d="M199 0l50 318l-210 387h170l132 -250l140 164q31 37 61 58t63.5 29.5t76.5 8.5q21 0 45.5 -3t37.5 -10l-18 -105q-17 7 -48 7q-49 0 -92 -50l-202 -235l-51 -319h-155z" />
    <glyph glyph-name="uni01B4" unicode="&#x1b4;" horiz-adv-x="583" 
d="M361 371q27 49 55.5 77.5t65 40.5t88.5 12q55 0 80 -12l-37 -111q-9 4 -18.5 5t-19.5 1q-26 0 -48.5 -15t-46.5 -52l-298 -497h-154l128 207l-129 464h152l73 -312z" />
    <glyph glyph-name="uni01C4" unicode="&#x1c4;" horiz-adv-x="1374" 
d="M32 0l112 705h238q172 0 266 -80.5t94 -224.5q1 -113 -45 -204t-136.5 -143.5t-224.5 -52.5h-304zM207 127h131q83 0 136.5 34.5t79.5 95.5t26 141q0 87 -50 133.5t-148 46.5h-103zM766 0l18 115l416 461h-342l20 129h532l-18 -114l-415 -462h358l-20 -129h-549z
M1085 765l-110 175h99l78 -95l92 95h108l-142 -175h-125z" />
    <glyph glyph-name="uni01C5" unicode="&#x1c5;" horiz-adv-x="1254" 
d="M32 0l112 705h238q172 0 266 -80.5t94 -224.5q1 -113 -45 -204t-136.5 -143.5t-224.5 -52.5h-304zM207 127h131q83 0 136.5 34.5t79.5 95.5t26 141q0 87 -50 133.5t-148 46.5h-103zM781 0l16 97l271 281h-227l18 113h399l-15 -97l-273 -282h239l-18 -112h-410zM1003 555
l-91 205h93l67 -123l96 123h94l-131 -205h-128z" />
    <glyph glyph-name="uni01C6" unicode="&#x1c6;" horiz-adv-x="1090" 
d="M215 -11q-83 0 -133 57.5t-50 155.5q0 85 30 152.5t85.5 107t130.5 39.5q51 0 90.5 -21.5t59.5 -63.5l46 289h151l-112 -705h-148l12 74q-27 -40 -69 -62.5t-93 -22.5zM276 102q60 0 93 51t33 128q0 52 -24.5 79.5t-67.5 27.5q-60 0 -93 -51t-33 -127q0 -52 24.5 -80
t67.5 -28zM617 0l16 97l271 281h-227l18 113h399l-15 -97l-273 -282h239l-18 -112h-410zM839 555l-91 205h93l67 -123l96 123h94l-131 -205h-128z" />
    <glyph glyph-name="uni01C7" unicode="&#x1c7;" horiz-adv-x="985" 
d="M32 0l112 705h155l-91 -574h326l-21 -131h-481zM577 -10l3 126l78 4q42 3 65 25t31 68l78 492h155l-80 -503q-10 -65 -36 -109.5t-75 -69t-127 -28.5z" />
    <glyph glyph-name="uni01C8" unicode="&#x1c8;" horiz-adv-x="846" 
d="M32 0l112 705h155l-91 -574h326l-21 -131h-481zM683 586l23 141h162l-22 -141h-163zM478 -193l-10 108l49 5q36 3 55 22t25 56l78 493h151l-75 -474q-11 -70 -36 -114t-71 -66t-121 -27z" />
    <glyph glyph-name="uni01C9" unicode="&#x1c9;" horiz-adv-x="606" 
d="M206 -11q-92 0 -132 50.5t-25 146.5l82 519h151l-82 -517q-11 -77 58 -77q10 0 21 1l22 2l-20 -115q-33 -10 -75 -10zM443 586l23 141h162l-22 -141h-163zM238 -193l-10 108l49 5q36 3 55 22t25 56l78 493h151l-75 -474q-11 -70 -36 -114t-71 -66t-121 -27z" />
    <glyph glyph-name="uni01CA" unicode="&#x1ca;" horiz-adv-x="1124" 
d="M32 0l112 705h115l278 -464l73 464h144l-112 -705h-114l-279 464l-73 -464h-144zM716 -10l3 126l78 4q42 3 65 25t31 68l78 492h155l-80 -503q-10 -65 -36 -109.5t-75 -69t-127 -28.5z" />
    <glyph glyph-name="uni01CB" unicode="&#x1cb;" horiz-adv-x="1025" 
d="M32 0l112 705h115l278 -464l73 464h144l-112 -705h-114l-279 464l-73 -464h-144zM862 586l23 141h162l-22 -141h-163zM657 -193l-10 108l49 5q36 3 55 22t25 56l78 493h151l-75 -474q-11 -70 -36 -114t-71 -66t-121 -27z" />
    <glyph glyph-name="uni01CC" unicode="&#x1cc;" horiz-adv-x="868" 
d="M19 0l78 491h148l-12 -75q54 85 166 85q80 0 122.5 -50t25.5 -159l-46 -292h-151l45 289q16 95 -61 95q-51 0 -82 -32.5t-40 -89.5l-42 -262h-151zM705 586l23 141h162l-22 -141h-163zM500 -193l-10 108l49 5q36 3 55 22t25 56l78 493h151l-75 -474q-11 -70 -36 -114
t-71 -66t-121 -27z" />
    <glyph glyph-name="uni01CD" unicode="&#x1cd;" horiz-adv-x="753" 
d="M-49 0l437 705h125l211 -705h-148l-40 153h-332l-90 -153h-163zM431 540l-156 -266h228l-70 266h-2zM396 765l-110 175h99l78 -95l92 95h108l-142 -175h-125z" />
    <glyph glyph-name="uni01CE" unicode="&#x1ce;" horiz-adv-x="557" 
d="M189 -11q-46 0 -84 21.5t-60 56.5t-22 76q0 78 66.5 113.5t208.5 35.5h68l2 13q7 41 -14.5 63t-72.5 22q-88 0 -170 -49l-31 102q39 26 99.5 42t122.5 16q84 0 132 -31t65 -83.5t6 -117.5l-42 -269h-141l11 72q-24 -43 -62 -63t-82 -20zM240 90q43 0 72.5 26.5t36.5 71.5
l5 26h-53q-73 0 -103 -13.5t-30 -47.5q0 -30 20.5 -46.5t51.5 -16.5zM261 555l-91 205h93l67 -123l96 123h94l-131 -205h-128z" />
    <glyph glyph-name="uni01D4" unicode="&#x1d4;" horiz-adv-x="590" 
d="M194 -11q-78 0 -120.5 50.5t-24.5 159.5l46 292h151l-46 -290q-15 -94 60 -94q47 0 78 32.5t40 89.5l41 262h151l-78 -491h-147l11 73q-55 -84 -162 -84zM278 556l-91 205h93l67 -123l96 123h94l-131 -205h-128z" />
    <glyph glyph-name="uni01E5" unicode="&#x1e5;" horiz-adv-x="615" 
d="M248 -191q-73 0 -135 13.5t-109 45.5l49 103q81 -54 180 -54q35 0 61.5 8t45.5 26h-103l12 78h126l15 101q-25 -39 -69.5 -60t-94.5 -21q-60 0 -102.5 26.5t-64.5 71t-22 98.5q0 70 31 128t87 93t131 35q53 0 92.5 -22t56.5 -62l12 74h148l-72 -450q0 -4 -2 -12h54
l-12 -78h-66q-32 -69 -94.5 -105.5t-154.5 -36.5zM283 161q39 0 68.5 18t46 49t16.5 69q0 41 -24.5 66t-70.5 25q-39 0 -68.5 -18.5t-46 -49.5t-16.5 -69q0 -40 25 -65t70 -25z" />
    <glyph glyph-name="Gcaron" unicode="&#x1e6;" horiz-adv-x="742" 
d="M402 -11q-98 0 -174 36.5t-118.5 107.5t-42.5 174q0 117 46.5 209.5t136.5 146t218 53.5q80 0 143 -22t98 -55l-60 -122q-83 64 -189 64q-75 0 -126.5 -36t-78.5 -96.5t-27 -134.5q0 -99 52 -146t145 -47q27 0 54 4t54 12l23 140h-152l17 112h280l-55 -352
q-52 -24 -117 -36t-127 -12zM399 765l-110 175h99l78 -95l92 95h108l-142 -175h-125z" />
    <glyph glyph-name="gcaron" unicode="&#x1e7;" horiz-adv-x="615" 
d="M260 -191q-74 0 -135.5 17t-112.5 50l45 103q42 -26 87 -41.5t94 -15.5q57 0 92.5 24t44.5 79l10 62q-25 -37 -66 -56t-89 -19q-89 0 -143 53.5t-54 148.5q0 78 31 143.5t87.5 104.5t131.5 39q52 0 92.5 -21.5t59.5 -63.5l12 75h148l-73 -458q-16 -107 -81.5 -165.5
t-180.5 -58.5zM279 125q41 0 70 23t44.5 60.5t15.5 81.5q0 45 -25 71.5t-71 26.5q-41 0 -69.5 -22.5t-43.5 -60t-15 -82.5q-1 -45 24 -71.5t70 -26.5zM286 555l-91 205h93l67 -123l96 123h94l-131 -205h-128z" />
    <glyph glyph-name="uni01E9" unicode="&#x1e9;" horiz-adv-x="558" 
d="M20 0l111 705h151l-65 -417h2l209 203h177l-242 -242l180 -249h-173l-162 219h-2l-35 -219h-151zM317 765l-110 175h99l78 -95l92 95h108l-142 -175h-125z" />
    <glyph glyph-name="uni01EA" unicode="&#x1ea;" horiz-adv-x="796" 
d="M388 -11q-97 0 -169.5 37t-112.5 107t-40 169q0 121 46.5 214.5t130.5 146.5t199 53q98 0 170.5 -37t112 -107t39.5 -168q0 -122 -46 -215.5t-130.5 -146.5t-199.5 -53zM391 121q67 0 114.5 36t72.5 99t25 145q0 93 -44 138t-120 45q-67 0 -114 -35.5t-72 -98.5t-25 -146
q0 -93 43.5 -138t119.5 -45zM393 -197q-54 0 -82.5 26.5t-28.5 70.5q0 49 33 88t83 57l38 -45q-34 -13 -48.5 -34t-14.5 -41t14 -32.5t36 -12.5q14 0 26.5 3t27.5 8l11 -71q-27 -8 -48.5 -12.5t-46.5 -4.5z" />
    <glyph glyph-name="uni01EB" unicode="&#x1eb;" horiz-adv-x="589" 
d="M274 -11q-114 0 -177.5 61.5t-63.5 164.5q0 91 39 155t103.5 97.5t138.5 33.5q114 0 178 -61.5t64 -163.5q0 -92 -39.5 -156t-103.5 -97.5t-139 -33.5zM278 102q59 0 92.5 51t33.5 128q0 52 -25 79.5t-68 27.5q-60 0 -93 -51t-33 -127q0 -52 24.5 -80t68.5 -28zM282 -197
q-54 0 -82.5 26.5t-28.5 70.5q0 49 33 88t83 57l38 -45q-34 -13 -48.5 -34t-14.5 -41t14 -32.5t36 -12.5q14 0 26.5 3t27.5 8l11 -71q-27 -8 -48.5 -12.5t-46.5 -4.5z" />
    <glyph glyph-name="uni01EF" unicode="&#x1ef;" horiz-adv-x="529" 
d="M197 -191q-73 0 -137.5 18t-112.5 53l54 99q35 -29 79.5 -42.5t101.5 -13.5q63 0 98.5 29t35.5 84q0 39 -30 63.5t-93 24.5h-93l11 70l209 182h-274l18 115h441l-16 -101l-196 -167q56 -5 94.5 -30t58.5 -63.5t20 -83.5q0 -66 -31 -119.5t-91 -85.5t-147 -32zM237 555
l-91 205h93l67 -123l96 123h94l-131 -205h-128z" />
    <glyph glyph-name="Aringacute" unicode="&#x1fa;" horiz-adv-x="753" 
d="M-49 0l437 705h125l211 -705h-148l-40 153h-332l-90 -153h-163zM431 540l-156 -266h228l-70 266h-2zM459 753q-34 0 -62.5 16t-45 43.5t-16.5 61.5q0 50 36 84.5t88 34.5q34 0 62 -16l62 57h112l-125 -108q13 -23 13 -52q0 -34 -16.5 -61.5t-44.5 -43.5t-63 -16zM459 812
q26 0 43.5 17.5t17.5 44.5q0 26 -17.5 43.5t-43.5 17.5t-43.5 -17.5t-17.5 -43.5q0 -27 17.5 -44.5t43.5 -17.5z" />
    <glyph glyph-name="aringacute" unicode="&#x1fb;" horiz-adv-x="557" 
d="M189 -11q-46 0 -84 21.5t-60 56.5t-22 76q0 78 66.5 113.5t208.5 35.5h68l2 13q7 41 -14.5 63t-72.5 22q-88 0 -170 -49l-31 102q39 26 99.5 42t122.5 16q84 0 132 -31t65 -83.5t6 -117.5l-42 -269h-141l11 72q-24 -43 -62 -63t-82 -20zM240 90q43 0 72.5 26.5t36.5 71.5
l5 26h-53q-73 0 -103 -13.5t-30 -47.5q0 -30 20.5 -46.5t51.5 -16.5zM339 539q-52 0 -88 34.5t-36 84.5q0 34 16.5 61.5t44.5 43.5t63 16q17 0 32.5 -4.5t29.5 -12.5l62 57h112l-125 -108q13 -25 13 -53q0 -50 -36 -84.5t-88 -34.5zM339 597q26 0 43.5 17.5t17.5 43.5
q0 27 -17.5 44t-43.5 17t-43.5 -17t-17.5 -44q0 -26 17.5 -43.5t43.5 -17.5z" />
    <glyph glyph-name="AEacute" unicode="&#x1fc;" horiz-adv-x="1000" 
d="M-87 0l555 705h552l-19 -121h-383l10 -165h325l-19 -122h-299l10 -176h283l-19 -121h-391l-9 153h-311l-115 -153h-170zM485 535l-197 -261h214l-15 261h-2zM507 765l130 175h157l-182 -175h-105z" />
    <glyph glyph-name="aeacute" unicode="&#x1fd;" horiz-adv-x="868" 
d="M218 -11q-51 0 -95.5 17t-72 51.5t-27.5 85.5q0 78 66.5 113.5t208.5 35.5h66l2 11q6 42 -14 63.5t-71 21.5q-44 0 -86.5 -12t-81.5 -36l-33 103q39 26 99.5 42t122.5 16q112 0 157 -68q67 68 170 68q81 0 130.5 -35t69 -93.5t8.5 -129.5l-4 -29h-337q-1 -53 31.5 -82.5
t92.5 -29.5q91 0 152 47l34 -99q-37 -28 -90 -44.5t-112 -16.5q-72 0 -123.5 26.5t-77.5 74.5q-27 -52 -77 -76.5t-108 -24.5zM627 400q-52 0 -81 -32t-39 -76h212q3 46 -18.5 77t-73.5 31zM239 93q43 0 71.5 24t36.5 69l4 28h-49q-73 0 -103.5 -14.5t-30.5 -48.5
q0 -26 20 -42t51 -16zM398 555l132 205h147l-180 -205h-99z" />
    <glyph glyph-name="Oslashacute" unicode="&#x1fe;" horiz-adv-x="796" 
d="M388 -11q-97 0 -169.5 37t-112.5 107t-40 169q0 121 46.5 214.5t130.5 146.5t199 53q98 0 170.5 -37t112 -107t39.5 -168q0 -122 -46 -215.5t-130.5 -146.5t-199.5 -53zM391 121q67 0 114.5 36t72.5 99t25 145q0 93 -44 138t-120 45q-67 0 -114 -35.5t-72 -98.5t-25 -146
q0 -93 43.5 -138t119.5 -45zM175 -58l-89 62l89 118l52 63l299 398l41 64l87 117l89 -61l-88 -118l-53 -64l-298 -398l-41 -64zM415 765l130 175h157l-182 -175h-105z" />
    <glyph glyph-name="oslashacute" unicode="&#x1ff;" horiz-adv-x="589" 
d="M122 -55l-65 45l43 58q-67 61 -67 167q0 92 39 156t103.5 97t138.5 33q61 0 109 -18l46 61l64 -45l-43 -58q66 -60 66 -165q0 -92 -39.5 -156t-103.5 -97.5t-139 -33.5q-59 0 -106 18zM169 208q0 -31 9 -55l177 238q-21 7 -48 7q-63 0 -100.5 -52t-37.5 -138zM280 93
q64 0 101 52.5t37 137.5q0 29 -7 51l-175 -235q20 -6 44 -6zM295 555l132 205h147l-180 -205h-99z" />
    <glyph glyph-name="uni0200" unicode="&#x200;" horiz-adv-x="753" 
d="M-49 0l437 705h125l211 -705h-148l-40 153h-332l-90 -153h-163zM431 540l-156 -266h228l-70 266h-2zM495 765l-116 175h130l71 -175h-85zM337 765l-129 175h130l83 -175h-84z" />
    <glyph glyph-name="uni0201" unicode="&#x201;" horiz-adv-x="557" 
d="M189 -11q-46 0 -84 21.5t-60 56.5t-22 76q0 78 66.5 113.5t208.5 35.5h68l2 13q7 41 -14.5 63t-72.5 22q-88 0 -170 -49l-31 102q39 26 99.5 42t122.5 16q84 0 132 -31t65 -83.5t6 -117.5l-42 -269h-141l11 72q-24 -43 -62 -63t-82 -20zM240 90q43 0 72.5 26.5t36.5 71.5
l5 26h-53q-73 0 -103 -13.5t-30 -47.5q0 -30 20.5 -46.5t51.5 -16.5zM368 555l-73 205h122l29 -205h-78zM207 555l-73 205h122l30 -205h-79z" />
    <glyph glyph-name="uni0202" unicode="&#x202;" horiz-adv-x="753" 
d="M-49 0l437 705h125l211 -705h-148l-40 153h-332l-90 -153h-163zM431 540l-156 -266h228l-70 266h-2zM348 760l-82 11q12 78 67 124.5t137 46.5q80 0 128.5 -48t48.5 -123l-84 -11q0 45 -26 70t-73 25q-46 0 -76.5 -25t-39.5 -70z" />
    <glyph glyph-name="uni0203" unicode="&#x203;" horiz-adv-x="557" 
d="M189 -11q-46 0 -84 21.5t-60 56.5t-22 76q0 78 66.5 113.5t208.5 35.5h68l2 13q7 41 -14.5 63t-72.5 22q-88 0 -170 -49l-31 102q39 26 99.5 42t122.5 16q84 0 132 -31t65 -83.5t6 -117.5l-42 -269h-141l11 72q-24 -43 -62 -63t-82 -20zM240 90q43 0 72.5 26.5t36.5 71.5
l5 26h-53q-73 0 -103 -13.5t-30 -47.5q0 -30 20.5 -46.5t51.5 -16.5zM230 552l-83 7q10 90 60.5 143t127.5 53q75 0 119 -53.5t39 -142.5l-83 -7q1 55 -20 84.5t-61 29.5t-65.5 -29.5t-33.5 -84.5z" />
    <glyph glyph-name="uni0204" unicode="&#x204;" horiz-adv-x="605" 
d="M33 0l111 705h483l-19 -121h-335l-26 -165h313l-19 -122h-313l-28 -176h334l-19 -121h-482zM449 765l-116 175h130l71 -175h-85zM291 765l-129 175h130l83 -175h-84z" />
    <glyph glyph-name="uni0205" unicode="&#x205;" horiz-adv-x="549" 
d="M286 -11q-77 0 -134 28.5t-88 79t-31 118.5q0 84 35.5 148.5t98 101t142.5 36.5q82 0 131 -35.5t68 -95t10 -131.5l-4 -26h-341q1 -53 34 -82t94 -29q42 0 81.5 12t70.5 35l33 -99q-36 -28 -89 -44.5t-111 -16.5zM308 401q-54 0 -84 -32.5t-40 -77.5h218q3 47 -19.5 78.5
t-74.5 31.5zM379 555l-73 205h122l29 -205h-78zM218 555l-73 205h122l30 -205h-79z" />
    <glyph glyph-name="uni0206" unicode="&#x206;" horiz-adv-x="605" 
d="M33 0l111 705h483l-19 -121h-335l-26 -165h313l-19 -122h-313l-28 -176h334l-19 -121h-482zM302 760l-82 11q12 78 67 124.5t137 46.5q80 0 128.5 -48t48.5 -123l-84 -11q0 45 -26 70t-73 25q-46 0 -76.5 -25t-39.5 -70z" />
    <glyph glyph-name="uni0207" unicode="&#x207;" horiz-adv-x="549" 
d="M286 -11q-77 0 -134 28.5t-88 79t-31 118.5q0 84 35.5 148.5t98 101t142.5 36.5q82 0 131 -35.5t68 -95t10 -131.5l-4 -26h-341q1 -53 34 -82t94 -29q42 0 81.5 12t70.5 35l33 -99q-36 -28 -89 -44.5t-111 -16.5zM308 401q-54 0 -84 -32.5t-40 -77.5h218q3 47 -19.5 78.5
t-74.5 31.5zM241 552l-83 7q10 90 60.5 143t127.5 53q75 0 119 -53.5t39 -142.5l-83 -7q1 55 -20 84.5t-61 29.5t-65.5 -29.5t-33.5 -84.5z" />
    <glyph glyph-name="uni0208" unicode="&#x208;" horiz-adv-x="297" 
d="M32 0l112 705h155l-112 -705h-155zM268 765l-116 175h130l71 -175h-85zM110 765l-129 175h130l83 -175h-84z" />
    <glyph glyph-name="uni0209" unicode="&#x209;" horiz-adv-x="268" 
d="M19 0l78 491h151l-78 -491h-151zM227 555l-73 205h122l29 -205h-78zM66 555l-73 205h122l30 -205h-79z" />
    <glyph glyph-name="uni020A" unicode="&#x20a;" horiz-adv-x="297" 
d="M32 0l112 705h155l-112 -705h-155zM121 760l-82 11q12 78 67 124.5t137 46.5q80 0 128.5 -48t48.5 -123l-84 -11q0 45 -26 70t-73 25q-46 0 -76.5 -25t-39.5 -70z" />
    <glyph glyph-name="uni020B" unicode="&#x20b;" horiz-adv-x="268" 
d="M19 0l78 491h151l-78 -491h-151zM89 552l-83 7q10 90 60.5 143t127.5 53q75 0 119 -53.5t39 -142.5l-83 -7q1 55 -20 84.5t-61 29.5t-65.5 -29.5t-33.5 -84.5z" />
    <glyph glyph-name="uni020C" unicode="&#x20c;" horiz-adv-x="796" 
d="M388 -11q-97 0 -169.5 37t-112.5 107t-40 169q0 121 46.5 214.5t130.5 146.5t199 53q98 0 170.5 -37t112 -107t39.5 -168q0 -122 -46 -215.5t-130.5 -146.5t-199.5 -53zM391 121q67 0 114.5 36t72.5 99t25 145q0 93 -44 138t-120 45q-67 0 -114 -35.5t-72 -98.5t-25 -146
q0 -93 43.5 -138t119.5 -45zM504 765l-116 175h130l71 -175h-85zM346 765l-129 175h130l83 -175h-84z" />
    <glyph glyph-name="uni020D" unicode="&#x20d;" horiz-adv-x="589" 
d="M274 -11q-114 0 -177.5 61.5t-63.5 164.5q0 91 39 155t103.5 97.5t138.5 33.5q114 0 178 -61.5t64 -163.5q0 -92 -39.5 -156t-103.5 -97.5t-139 -33.5zM278 102q59 0 92.5 51t33.5 128q0 52 -25 79.5t-68 27.5q-60 0 -93 -51t-33 -127q0 -52 24.5 -80t68.5 -28zM388 555
l-73 205h122l29 -205h-78zM227 555l-73 205h122l30 -205h-79z" />
    <glyph glyph-name="uni020E" unicode="&#x20e;" horiz-adv-x="796" 
d="M388 -11q-97 0 -169.5 37t-112.5 107t-40 169q0 121 46.5 214.5t130.5 146.5t199 53q98 0 170.5 -37t112 -107t39.5 -168q0 -122 -46 -215.5t-130.5 -146.5t-199.5 -53zM391 121q67 0 114.5 36t72.5 99t25 145q0 93 -44 138t-120 45q-67 0 -114 -35.5t-72 -98.5t-25 -146
q0 -93 43.5 -138t119.5 -45zM357 760l-82 11q12 78 67 124.5t137 46.5q80 0 128.5 -48t48.5 -123l-84 -11q0 45 -26 70t-73 25q-46 0 -76.5 -25t-39.5 -70z" />
    <glyph glyph-name="uni020F" unicode="&#x20f;" horiz-adv-x="589" 
d="M274 -11q-114 0 -177.5 61.5t-63.5 164.5q0 91 39 155t103.5 97.5t138.5 33.5q114 0 178 -61.5t64 -163.5q0 -92 -39.5 -156t-103.5 -97.5t-139 -33.5zM278 102q59 0 92.5 51t33.5 128q0 52 -25 79.5t-68 27.5q-60 0 -93 -51t-33 -127q0 -52 24.5 -80t68.5 -28zM250 552
l-83 7q10 90 60.5 143t127.5 53q75 0 119 -53.5t39 -142.5l-83 -7q1 55 -20 84.5t-61 29.5t-65.5 -29.5t-33.5 -84.5z" />
    <glyph glyph-name="uni0210" unicode="&#x210;" horiz-adv-x="696" 
d="M32 0l112 705h289q118 0 180.5 -53t62.5 -145q0 -98 -52.5 -153.5t-137.5 -71.5q27 -11 46.5 -35t32.5 -58l72 -189h-159l-81 214q-12 32 -31 45.5t-53 13.5h-83l-42 -273h-156zM248 385h152q61 0 94 27.5t33 81.5q0 45 -28.5 67.5t-90.5 22.5h-128zM459 765l-116 175
h130l71 -175h-85zM301 765l-129 175h130l83 -175h-84z" />
    <glyph glyph-name="uni0211" unicode="&#x211;" horiz-adv-x="412" 
d="M19 0l78 491h148l-14 -84q23 41 63 65.5t95 28.5l46 3l-5 -127l-96 -10q-60 -6 -86.5 -35t-35.5 -86l-39 -246h-154zM325 556l-73 205h122l29 -205h-78zM164 556l-73 205h122l30 -205h-79z" />
    <glyph glyph-name="uni0212" unicode="&#x212;" horiz-adv-x="696" 
d="M32 0l112 705h289q118 0 180.5 -53t62.5 -145q0 -98 -52.5 -153.5t-137.5 -71.5q27 -11 46.5 -35t32.5 -58l72 -189h-159l-81 214q-12 32 -31 45.5t-53 13.5h-83l-42 -273h-156zM248 385h152q61 0 94 27.5t33 81.5q0 45 -28.5 67.5t-90.5 22.5h-128zM312 760l-82 11
q12 78 67 124.5t137 46.5q80 0 128.5 -48t48.5 -123l-84 -11q0 45 -26 70t-73 25q-46 0 -76.5 -25t-39.5 -70z" />
    <glyph glyph-name="uni0213" unicode="&#x213;" horiz-adv-x="412" 
d="M19 0l78 491h148l-14 -84q23 41 63 65.5t95 28.5l46 3l-5 -127l-96 -10q-60 -6 -86.5 -35t-35.5 -86l-39 -246h-154zM187 553l-83 7q10 90 60.5 143t127.5 53q75 0 119 -53.5t39 -142.5l-83 -7q1 55 -20 84.5t-61 29.5t-65.5 -29.5t-33.5 -84.5z" />
    <glyph glyph-name="uni0214" unicode="&#x214;" horiz-adv-x="742" 
d="M346 -11q-91 0 -158 35.5t-98 107t-14 181.5l62 392h156l-64 -402q-13 -88 18.5 -135t109.5 -47q71 0 113.5 38t56.5 120l67 426h154l-67 -421q-23 -143 -102 -219t-234 -76zM490 765l-116 175h130l71 -175h-85zM332 765l-129 175h130l83 -175h-84z" />
    <glyph glyph-name="uni0215" unicode="&#x215;" horiz-adv-x="590" 
d="M194 -11q-78 0 -120.5 50.5t-24.5 159.5l46 292h151l-46 -290q-15 -94 60 -94q47 0 78 32.5t40 89.5l41 262h151l-78 -491h-147l11 73q-55 -84 -162 -84zM385 556l-73 205h122l29 -205h-78zM224 556l-73 205h122l30 -205h-79z" />
    <glyph glyph-name="uni0216" unicode="&#x216;" horiz-adv-x="742" 
d="M346 -11q-91 0 -158 35.5t-98 107t-14 181.5l62 392h156l-64 -402q-13 -88 18.5 -135t109.5 -47q71 0 113.5 38t56.5 120l67 426h154l-67 -421q-23 -143 -102 -219t-234 -76zM343 760l-82 11q12 78 67 124.5t137 46.5q80 0 128.5 -48t48.5 -123l-84 -11q0 45 -26 70
t-73 25q-46 0 -76.5 -25t-39.5 -70z" />
    <glyph glyph-name="uni0217" unicode="&#x217;" horiz-adv-x="590" 
d="M194 -11q-78 0 -120.5 50.5t-24.5 159.5l46 292h151l-46 -290q-15 -94 60 -94q47 0 78 32.5t40 89.5l41 262h151l-78 -491h-147l11 73q-55 -84 -162 -84zM247 553l-83 7q10 90 60.5 143t127.5 53q75 0 119 -53.5t39 -142.5l-83 -7q1 55 -20 84.5t-61 29.5t-65.5 -29.5
t-33.5 -84.5z" />
    <glyph glyph-name="uni0218" unicode="&#x218;" horiz-adv-x="641" 
d="M302 -11q-78 0 -152 20.5t-130 63.5l53 118q59 -40 121.5 -56.5t121.5 -16.5q64 0 99.5 23t35.5 59q0 29 -21 48t-70 30l-113 27q-74 17 -117.5 63t-43.5 119q0 72 40 123.5t106 78.5t143 27q66 0 133.5 -20t121.5 -62l-55 -112q-46 35 -99.5 50t-102.5 15
q-61 0 -97.5 -23.5t-36.5 -62.5q0 -30 19.5 -47.5t58.5 -27.5l112 -27q85 -19 130 -66.5t45 -113.5q0 -77 -42 -128t-111 -76.5t-149 -25.5zM274 -284l-44 41q20 14 30 28.5t14 31.5h-72l18 114h150l-13 -80q-7 -45 -23.5 -77t-59.5 -58z" />
    <glyph glyph-name="uni0219" unicode="&#x219;" horiz-adv-x="492" 
d="M228 -11q-64 0 -121 15t-96 43l44 97q36 -24 82 -37.5t90 -13.5q43 0 64.5 15t21.5 38q0 33 -47 42l-91 17q-59 10 -91 43.5t-32 84.5q0 45 26.5 83.5t78.5 61.5t128 23q47 0 96.5 -13.5t85.5 -40.5l-42 -95q-33 23 -71.5 34.5t-76.5 11.5q-45 0 -67.5 -16t-22.5 -41
q0 -14 9.5 -24.5t31.5 -14.5l90 -17q130 -24 130 -128q0 -81 -60.5 -124.5t-159.5 -43.5zM189 -284l-44 41q20 14 30 28.5t14 31.5h-72l18 114h150l-13 -80q-7 -45 -23.5 -77t-59.5 -58z" />
    <glyph glyph-name="uni021A" unicode="&#x21a;" horiz-adv-x="632" 
d="M200 0l91 577h-233l21 128h621l-20 -128h-233l-92 -577h-155zM247 -284l-44 41q20 14 30 28.5t14 31.5h-72l18 114h150l-13 -80q-7 -45 -23.5 -77t-59.5 -58z" />
    <glyph glyph-name="uni021B" unicode="&#x21b;" horiz-adv-x="404" 
d="M270 -11q-106 0 -153 56.5t-33 145.5l30 187h-93l17 113h93l23 144h151l-23 -144h146l-18 -113h-145l-29 -179q-8 -47 12 -67t59 -20q25 0 54 9l7 -112q-19 -9 -46 -14.5t-52 -5.5zM177 -284l-44 41q20 14 30 28.5t14 31.5h-72l18 114h150l-13 -80q-7 -45 -23.5 -77
t-59.5 -58z" />
    <glyph glyph-name="uni021F" unicode="&#x21f;" horiz-adv-x="595" 
d="M19 0l112 705h151l-44 -282q54 78 161 78q80 0 122.5 -50t25.5 -159l-46 -292h-151l45 289q16 95 -61 95q-51 0 -82 -32.5t-40 -89.5l-42 -262h-151zM317 765l-110 175h99l78 -95l92 95h108l-142 -175h-125z" />
    <glyph glyph-name="uni0226" unicode="&#x226;" horiz-adv-x="753" 
d="M-49 0l437 705h125l211 -705h-148l-40 153h-332l-90 -153h-163zM431 540l-156 -266h228l-70 266h-2zM391 786l21 133h139l-20 -133h-140z" />
    <glyph glyph-name="uni0227" unicode="&#x227;" horiz-adv-x="557" 
d="M189 -11q-46 0 -84 21.5t-60 56.5t-22 76q0 78 66.5 113.5t208.5 35.5h68l2 13q7 41 -14.5 63t-72.5 22q-88 0 -170 -49l-31 102q39 26 99.5 42t122.5 16q84 0 132 -31t65 -83.5t6 -117.5l-42 -269h-141l11 72q-24 -43 -62 -63t-82 -20zM240 90q43 0 72.5 26.5t36.5 71.5
l5 26h-53q-73 0 -103 -13.5t-30 -47.5q0 -30 20.5 -46.5t51.5 -16.5zM260 590l20 133h141l-21 -133h-140z" />
    <glyph glyph-name="uni0228" unicode="&#x228;" horiz-adv-x="605" 
d="M33 0l111 705h483l-19 -121h-335l-26 -165h313l-19 -122h-313l-28 -176h334l-19 -121h-482zM274 -197q-31 0 -59.5 5.5t-48.5 16.5l27 64q35 -18 73 -18q54 0 54 28q0 18 -35 18q-8 0 -17 -1t-21 -4l-19 20l27 88h76l-18 -54h4q42 0 65 -18t23 -50q0 -43 -37.5 -69
t-93.5 -26z" />
    <glyph glyph-name="uni022A" unicode="&#x22a;" horiz-adv-x="796" 
d="M388 -11q-97 0 -169.5 37t-112.5 107t-40 169q0 121 46.5 214.5t130.5 146.5t199 53q98 0 170.5 -37t112 -107t39.5 -168q0 -122 -46 -215.5t-130.5 -146.5t-199.5 -53zM391 121q67 0 114.5 36t72.5 99t25 145q0 93 -44 138t-120 45q-67 0 -114 -35.5t-72 -98.5t-25 -146
q0 -93 43.5 -138t119.5 -45zM328 923l14 85h326l-14 -85h-326zM305 782l15 96h131l-15 -96h-131zM502 782l15 96h132l-15 -96h-132z" />
    <glyph glyph-name="uni022B" unicode="&#x22b;" horiz-adv-x="589" 
d="M274 -11q-114 0 -177.5 61.5t-63.5 164.5q0 91 39 155t103.5 97.5t138.5 33.5q114 0 178 -61.5t64 -163.5q0 -92 -39.5 -156t-103.5 -97.5t-139 -33.5zM278 102q59 0 92.5 51t33.5 128q0 52 -25 79.5t-68 27.5q-60 0 -93 -51t-33 -127q0 -52 24.5 -80t68.5 -28zM205 709
l14 85h326l-14 -85h-326zM182 568l15 95h131l-15 -95h-131zM379 568l15 95h131l-15 -95h-131z" />
    <glyph glyph-name="uni022C" unicode="&#x22c;" horiz-adv-x="796" 
d="M388 -11q-97 0 -169.5 37t-112.5 107t-40 169q0 121 46.5 214.5t130.5 146.5t199 53q98 0 170.5 -37t112 -107t39.5 -168q0 -122 -46 -215.5t-130.5 -146.5t-199.5 -53zM391 121q67 0 114.5 36t72.5 99t25 145q0 93 -44 138t-120 45q-67 0 -114 -35.5t-72 -98.5t-25 -146
q0 -93 43.5 -138t119.5 -45zM329 923l13 85h326l-13 -85h-326zM545 766q-22 0 -42.5 7.5t-38.5 14.5q-15 7 -29 12.5t-27 5.5q-42 0 -55 -40l-65 3q8 56 40 84t80 28q22 0 42 -7t38 -14q16 -7 29.5 -12.5t26.5 -5.5q43 0 55 40l66 -4q-8 -56 -40.5 -84t-79.5 -28z" />
    <glyph glyph-name="uni022D" unicode="&#x22d;" horiz-adv-x="589" 
d="M274 -11q-114 0 -177.5 61.5t-63.5 164.5q0 91 39 155t103.5 97.5t138.5 33.5q114 0 178 -61.5t64 -163.5q0 -92 -39.5 -156t-103.5 -97.5t-139 -33.5zM278 102q59 0 92.5 51t33.5 128q0 52 -25 79.5t-68 27.5q-60 0 -93 -51t-33 -127q0 -52 24.5 -80t68.5 -28zM204 709
l14 85h326l-14 -85h-326zM229 552l-66 3q8 56 39.5 84t79.5 28q23 0 43.5 -7.5t39.5 -15.5q15 -7 28.5 -11.5t25.5 -4.5q44 0 55 39l66 -3q-8 -56 -39.5 -84t-79.5 -28q-22 0 -41.5 7t-38.5 14q-16 7 -30 12.5t-27 5.5q-44 0 -55 -39z" />
    <glyph glyph-name="uni0230" unicode="&#x230;" horiz-adv-x="796" 
d="M388 -11q-97 0 -169.5 37t-112.5 107t-40 169q0 121 46.5 214.5t130.5 146.5t199 53q98 0 170.5 -37t112 -107t39.5 -168q0 -122 -46 -215.5t-130.5 -146.5t-199.5 -53zM391 121q67 0 114.5 36t72.5 99t25 145q0 93 -44 138t-120 45q-67 0 -114 -35.5t-72 -98.5t-25 -146
q0 -93 43.5 -138t119.5 -45zM328 923l14 85h326l-14 -85h-326zM404 782l15 96h131l-15 -96h-131z" />
    <glyph glyph-name="uni0231" unicode="&#x231;" horiz-adv-x="589" 
d="M274 -11q-114 0 -177.5 61.5t-63.5 164.5q0 91 39 155t103.5 97.5t138.5 33.5q114 0 178 -61.5t64 -163.5q0 -92 -39.5 -156t-103.5 -97.5t-139 -33.5zM278 102q59 0 92.5 51t33.5 128q0 52 -25 79.5t-68 27.5q-60 0 -93 -51t-33 -127q0 -52 24.5 -80t68.5 -28zM199 709
l14 85h326l-14 -85h-326zM274 568l16 95h131l-15 -95h-132z" />
    <glyph glyph-name="uni0232" unicode="&#x232;" horiz-adv-x="631" 
d="M199 0l50 318l-210 387h170l132 -250l211 250h184l-331 -386l-51 -319h-155zM212 801l13 85h356l-13 -85h-356z" />
    <glyph glyph-name="uni0233" unicode="&#x233;" horiz-adv-x="533" 
d="M28 -180l128 207l-129 464h152l73 -312l177 312h156l-403 -671h-154zM148 611l13 85h326l-13 -85h-326z" />
    <glyph glyph-name="uni0237" unicode="&#x237;" horiz-adv-x="273" 
d="M-95 -193l-10 108l49 5q36 3 55 22t25 56l78 493h151l-75 -474q-11 -70 -36 -114t-71 -66t-121 -27z" />
    <glyph glyph-name="uni0253" unicode="&#x253;" horiz-adv-x="610" 
d="M331 -11q-52 0 -92.5 23t-59.5 68l-12 -80h-148l81 512q17 104 73.5 154t167.5 50q21 0 41.5 -4.5t33.5 -9.5l-34 -109q-11 3 -19.5 4.5t-18.5 1.5q-80 0 -93 -92l-13 -83q28 37 68 57t89 20q83 0 133 -57t50 -155q0 -85 -30 -153t-85.5 -107.5t-131.5 -39.5zM300 102
q60 0 93 51t33 128q0 52 -24.5 79.5t-67.5 27.5q-60 0 -93 -51t-33 -127q0 -52 24.5 -80t67.5 -28z" />
    <glyph glyph-name="uni0257" unicode="&#x257;" horiz-adv-x="610" 
d="M215 -11q-83 0 -133 57.5t-50 155.5q0 85 30 152.5t85.5 107t130.5 39.5q51 0 90.5 -21.5t59.5 -63.5l15 96q16 104 72.5 154t167.5 50q21 0 41 -4.5t34 -9.5l-34 -109q-11 3 -19.5 4.5t-18.5 1.5q-78 0 -93 -92l-80 -507h-148l12 74q-27 -40 -69 -62.5t-93 -22.5z
M276 102q60 0 93 51t33 128q0 52 -24.5 79.5t-67.5 27.5q-60 0 -93 -51t-33 -127q0 -52 24.5 -80t67.5 -28z" />
    <glyph glyph-name="uni0259" unicode="&#x259;" horiz-adv-x="549" 
d="M241 -11q-82 0 -132 35t-69.5 94t-8.5 131l4 29h340q1 52 -30.5 81t-92.5 29q-90 0 -154 -50l-34 103q36 29 90.5 44.5t112.5 15.5q76 0 132 -28t87 -78.5t31 -118.5q0 -84 -36 -148.5t-98.5 -101.5t-141.5 -37zM244 89q53 0 81.5 32.5t38.5 78.5h-207q-4 -48 18 -79.5
t69 -31.5z" />
    <glyph glyph-name="uni0292" unicode="&#x292;" horiz-adv-x="529" 
d="M197 -191q-73 0 -137.5 18t-112.5 53l54 99q35 -29 79.5 -42.5t101.5 -13.5q63 0 98.5 29t35.5 84q0 39 -30 63.5t-93 24.5h-93l11 70l209 182h-274l18 115h441l-16 -101l-196 -167q56 -5 94.5 -30t58.5 -63.5t20 -83.5q0 -66 -31 -119.5t-91 -85.5t-147 -32z" />
    <glyph glyph-name="uni02B9" unicode="&#x2b9;" horiz-adv-x="256" 
d="M104 407l11 298h173l-84 -298h-100z" />
    <glyph glyph-name="uni02BA" unicode="&#x2ba;" horiz-adv-x="480" 
d="M103 407l11 298h174l-84 -298h-101zM328 407l11 298h174l-84 -298h-101z" />
    <glyph glyph-name="uni02BB" unicode="&#x2bb;" horiz-adv-x="500" 
d="M225 562l12 78q6 44 24 76.5t60 60.5l45 -40q-20 -15 -30.5 -30t-15.5 -31h72l-18 -114h-149z" />
    <glyph glyph-name="uni02BC" unicode="&#x2bc;" horiz-adv-x="366" 
d="M256 564l-50 36q18 15 27.5 30.5t12.5 31.5h-71l18 115h149l-11 -73q-7 -43 -22.5 -76.5t-52.5 -63.5z" />
    <glyph glyph-name="uni02BE" unicode="&#x2be;" horiz-adv-x="500" 
d="M298 550l10 60q22 0 37.5 16t15.5 39q0 17 -10.5 28.5t-27.5 12.5l10 60q42 -4 67.5 -31.5t25.5 -66.5q0 -35 -18 -62t-47 -42t-63 -14z" />
    <glyph glyph-name="uni02BF" unicode="&#x2bf;" horiz-adv-x="500" 
d="M298 550q-42 4 -67.5 31.5t-25.5 66.5q0 34 18 61.5t47 42.5t63 14l-10 -60q-22 0 -37.5 -16t-15.5 -39q0 -17 10 -28.5t28 -13.5z" />
    <glyph glyph-name="circumflex" unicode="&#x2c6;" horiz-adv-x="500" 
d="M119 555l131 205h128l91 -205h-93l-68 123l-95 -123h-94z" />
    <glyph glyph-name="caron" unicode="&#x2c7;" horiz-adv-x="500" 
d="M236 555l-91 205h93l67 -123l96 123h94l-131 -205h-128z" />
    <glyph glyph-name="uni02C8" unicode="&#x2c8;" horiz-adv-x="500" 
d="M259 593l32 205h93l-32 -205h-93z" />
    <glyph glyph-name="uni02C9" unicode="&#x2c9;" horiz-adv-x="500" 
d="M145 611l13 85h326l-13 -85h-326z" />
    <glyph glyph-name="uni02CA" unicode="&#x2ca;" horiz-adv-x="500" 
d="M250 555l127 205h147l-175 -205h-99z" />
    <glyph glyph-name="fourthtofinechinese" unicode="&#x2cb;" horiz-adv-x="500" 
d="M249 555l-143 205h145l97 -205h-99z" />
    <glyph glyph-name="uni02CC" unicode="&#x2cc;" horiz-adv-x="500" 
d="M122 -270l32 205h93l-32 -205h-93z" />
    <glyph glyph-name="breve" unicode="&#x2d8;" horiz-adv-x="500" 
d="M307 552q-75 0 -119 53t-39 142l83 8q-1 -56 20 -85.5t61 -29.5t65.5 29.5t33.5 85.5l83 -8q-10 -90 -60.5 -142.5t-127.5 -52.5z" />
    <glyph glyph-name="dotaccent" unicode="&#x2d9;" horiz-adv-x="500" 
d="M235 590l20 133h141l-21 -133h-140z" />
    <glyph glyph-name="ring" unicode="&#x2da;" horiz-adv-x="500" 
d="M318 545q-36 0 -66 17t-47 45.5t-17 63.5q0 36 17 65t47 45.5t66 16.5q37 0 66.5 -16.5t47 -45.5t17.5 -65q0 -35 -17.5 -63.5t-47 -45.5t-66.5 -17zM318 610q26 0 43.5 17.5t17.5 43.5q0 27 -17.5 44t-43.5 17t-43.5 -17t-17.5 -44q0 -26 17.5 -43.5t43.5 -17.5z" />
    <glyph glyph-name="ogonek" unicode="&#x2db;" horiz-adv-x="500" 
d="M168 -197q-54 0 -82.5 26.5t-28.5 70.5q0 49 33 88t83 57l38 -45q-34 -13 -48.5 -34t-14.5 -41t14 -32.5t36 -12.5q14 0 26.5 3t27.5 8l11 -71q-27 -8 -48.5 -12.5t-46.5 -4.5z" />
    <glyph glyph-name="tilde" unicode="&#x2dc;" horiz-adv-x="500" 
d="M173 581l-71 4q9 76 46 116.5t91 40.5q28 0 47.5 -12t36.5 -25q14 -9 27.5 -16t30.5 -7q50 0 66 64l71 -4q-9 -76 -45.5 -116.5t-90.5 -40.5q-29 0 -49 11.5t-37 24.5q-14 10 -27.5 17t-29.5 7q-50 0 -66 -64z" />
    <glyph glyph-name="hungarumlaut" unicode="&#x2dd;" horiz-adv-x="500" 
d="M339 555l64 205h123l-109 -205h-78zM177 555l66 205h123l-110 -205h-79z" />
    <glyph glyph-name="gravecomb" unicode="&#x300;" 
d="M-39 555l-142 205h143l98 -205h-99z" />
    <glyph glyph-name="acutecomb" unicode="&#x301;" 
d="M-38 555l132 205h147l-180 -205h-99z" />
    <glyph glyph-name="uni0302" unicode="&#x302;" 
d="M-169 555l131 205h128l91 -205h-93l-68 123l-95 -123h-94z" />
    <glyph glyph-name="tildecomb" unicode="&#x303;" 
d="M-115 581l-71 4q9 76 46 116.5t91 40.5q28 0 47.5 -12t36.5 -25q14 -9 27.5 -16t30.5 -7q50 0 66 64l71 -4q-9 -76 -45.5 -116.5t-90.5 -40.5q-29 0 -49 11.5t-37 24.5q-14 10 -27.5 17t-29.5 7q-50 0 -66 -64z" />
    <glyph glyph-name="uni0304" unicode="&#x304;" 
d="M-142 611l13 85h326l-13 -85h-326z" />
    <glyph glyph-name="uni0306" unicode="&#x306;" 
d="M19 552q-75 0 -119 53t-39 142l83 8q-1 -56 20 -85.5t61 -29.5t65.5 29.5t33.5 85.5l83 -8q-10 -90 -60.5 -142.5t-127.5 -52.5z" />
    <glyph glyph-name="uni0307" unicode="&#x307;" 
d="M-53 590l20 133h141l-21 -133h-140z" />
    <glyph glyph-name="uni0308" unicode="&#x308;" 
d="M51 590l19 132h132l-20 -132h-131zM-147 590l21 132h131l-20 -132h-132z" />
    <glyph glyph-name="hookabovecomb" unicode="&#x309;" 
d="M-38 555l4 23q4 26 19 41.5t29 27.5t14 29q0 11 -10 16t-26 5q-30 0 -61 -15l-17 61q49 25 119 25q50 0 78 -18t28 -50q0 -27 -11.5 -43.5t-27.5 -28t-29.5 -24.5t-16.5 -32l-3 -17h-89z" />
    <glyph glyph-name="uni030A" unicode="&#x30a;" 
d="M30 545q-36 0 -66 17t-47 45.5t-17 63.5q0 36 17 65t47 45.5t66 16.5q37 0 66.5 -16.5t47 -45.5t17.5 -65q0 -35 -17.5 -63.5t-47 -45.5t-66.5 -17zM30 610q26 0 43.5 17.5t17.5 43.5q0 27 -17.5 44t-43.5 17t-43.5 -17t-17.5 -44q0 -26 17.5 -43.5t43.5 -17.5z" />
    <glyph glyph-name="uni030B" unicode="&#x30b;" 
d="M51 555l64 205h123l-109 -205h-78zM-111 555l66 205h123l-110 -205h-79z" />
    <glyph glyph-name="uni030C" unicode="&#x30c;" 
d="M-52 555l-91 205h93l67 -123l96 123h94l-131 -205h-128z" />
    <glyph glyph-name="uni030F" unicode="&#x30f;" 
d="M55 555l-73 205h122l29 -205h-78zM-106 555l-73 205h122l30 -205h-79z" />
    <glyph glyph-name="uni0311" unicode="&#x311;" 
d="M-83 552l-83 7q10 90 60.5 143t127.5 53q75 0 119 -53.5t39 -142.5l-83 -7q1 55 -20 84.5t-61 29.5t-65.5 -29.5t-33.5 -84.5z" />
    <glyph glyph-name="uni0312" unicode="&#x312;" 
d="M-62 562l13 81q7 44 23.5 76t59.5 58l43 -41q-20 -14 -29.5 -28.5t-14.5 -31.5h73l-19 -114h-149z" />
    <glyph glyph-name="uni031B" unicode="&#x31b;" 
d="M83 418l-84 55l2 18q47 0 70 20t34 81l3 24h132l-8 -44q-10 -62 -49 -104.5t-100 -49.5z" />
    <glyph glyph-name="dotbelowcomb" unicode="&#x323;" 
d="M-104 -214l21 133h140l-21 -133h-140z" />
    <glyph glyph-name="uni0324" unicode="&#x324;" 
d="M2 -199l20 132h132l-21 -132h-131zM-196 -199l22 132h131l-21 -132h-132z" />
    <glyph glyph-name="uni0326" unicode="&#x326;" 
d="M-32 -284l-44 41q20 14 30 28.5t14 31.5h-72l18 114h150l-13 -80q-7 -45 -23.5 -77t-59.5 -58z" />
    <glyph glyph-name="uni0327" unicode="&#x327;" 
d="M-23 -197q-31 0 -59.5 5.5t-48.5 16.5l27 64q35 -18 73 -18q54 0 54 28q0 18 -35 18q-8 0 -17 -1t-21 -4l-19 20l27 88h76l-18 -54h4q42 0 65 -18t23 -50q0 -43 -37.5 -69t-93.5 -26z" />
    <glyph glyph-name="uni0328" unicode="&#x328;" 
d="M-43 -197q-54 0 -82.5 26.5t-28.5 70.5q0 49 33 88t83 57l38 -45q-34 -13 -48.5 -34t-14.5 -41t14 -32.5t36 -12.5q14 0 26.5 3t27.5 8l11 -71q-27 -8 -48.5 -12.5t-46.5 -4.5z" />
    <glyph glyph-name="uni032E" unicode="&#x32e;" 
d="M-20 -215q-77 0 -122.5 42t-39.5 113l83 8q-1 -36 21 -56.5t62 -20.5t65 20.5t32 56.5l83 -8q-8 -71 -58 -113t-126 -42z" />
    <glyph glyph-name="uni0331" unicode="&#x331;" 
d="M-190 -170l14 85h326l-14 -85h-326z" />
    <glyph glyph-name="uni0335" unicode="&#x335;" 
d="M-219 534l17 104h422l-17 -104h-422z" />
    <glyph glyph-name="uni0337" unicode="&#x337;" 
d="M-155 219l-48 106l358 173l48 -106z" />
    <glyph glyph-name="uni0338" unicode="&#x338;" 
d="M-173 -52l-64 45l411 554l65 -45z" />
    <glyph glyph-name="uni0394" unicode="&#x394;" horiz-adv-x="753" 
d="M-2 0l13 85l376 620h124l180 -620l-9 -85h-684zM428 540l-245 -419h358l-111 419h-2z" />
    <glyph glyph-name="Sigma" unicode="&#x3a3;" horiz-adv-x="600" 
d="M-38 -180l17 109l310 346l-204 321l17 109h542l-20 -127h-361l175 -275l-14 -81l-245 -275h345l-20 -127h-542z" />
    <glyph glyph-name="uni03A9" unicode="&#x3a9;" horiz-adv-x="811" 
d="M-5 0l21 126h177q-65 51 -96.5 112.5t-31.5 125.5q0 112 49 190.5t137 119.5t203 41q94 0 170.5 -34.5t121.5 -95.5t45 -141q0 -111 -51.5 -190t-140.5 -128h159l-20 -126h-320l19 121q86 48 139 120t53 166q0 81 -47.5 129t-132.5 48q-72 0 -122 -29t-75.5 -80.5
t-25.5 -117.5q0 -62 27 -122t82 -114l-20 -121h-320z" />
    <glyph glyph-name="uni03BC" unicode="&#x3bc;" horiz-adv-x="590" 
d="M-12 -180l107 671h151l-46 -290q-15 -94 60 -94q47 0 78 32.5t40 89.5l41 262h151l-78 -491h-147l14 91q-16 -49 -45.5 -75.5t-67.5 -26.5q-63 0 -85 46l-22 -215h-151z" />
    <glyph glyph-name="pi" unicode="&#x3c0;" horiz-adv-x="636" 
d="M502 -9q-86 0 -132 56t-31 150l28 181h-98q-20 -114 -48 -203t-72 -175h-155q34 74 58 137t40.5 122t27.5 119h-95l18 113h596l-17 -113h-104l-24 -155q-10 -60 5.5 -86.5t66.5 -26.5q9 0 19.5 1t22.5 2l-25 -118q-22 -2 -40.5 -3t-40.5 -1z" />
    <glyph glyph-name="uni0400" unicode="&#x400;" horiz-adv-x="605" 
d="M33 0l111 705h483l-19 -121h-335l-26 -165h313l-19 -122h-313l-28 -176h334l-19 -121h-482zM360 765l-152 175h151l106 -175h-105z" />
    <glyph glyph-name="uni0401" unicode="&#x401;" horiz-adv-x="605" 
d="M33 0l111 705h483l-19 -121h-335l-26 -165h313l-19 -122h-313l-28 -176h334l-19 -121h-482zM446 781l22 132h131l-21 -132h-132zM250 781l20 132h132l-21 -132h-131z" />
    <glyph glyph-name="uni0402" unicode="&#x402;" horiz-adv-x="887" 
d="M551 -191q-41 0 -73.5 6t-55.5 15l25 114q36 -13 81 -13q48 0 81 33t43 95l12 73q15 93 -22.5 137.5t-112.5 44.5q-31 0 -65 -5.5t-63 -19.5l-46 -289h-155l91 577h-233l21 128h621l-20 -128h-233l-25 -156q27 11 63.5 18t75.5 7q87 0 151 -36.5t94 -105.5t14 -166
l-12 -73q-19 -123 -86.5 -189.5t-170.5 -66.5z" />
    <glyph glyph-name="uni0403" unicode="&#x403;" horiz-adv-x="569" 
d="M32 0l112 705h481l-20 -128h-326l-92 -577h-155zM313 765l130 175h157l-182 -175h-105z" />
    <glyph glyph-name="uni0404" unicode="&#x404;" horiz-adv-x="683" 
d="M398 -11q-95 0 -170 36t-118 108t-43 179q0 85 26 158t75.5 128.5t122 86.5t165.5 31q73 0 136 -22.5t100 -58.5l-61 -123q-80 67 -178 67q-81 0 -134.5 -44t-74.5 -115h298l-19 -122h-293q5 -82 49 -127t137 -45q43 0 87 14.5t90 47.5l41 -122q-43 -37 -107.5 -57
t-128.5 -20z" />
    <glyph glyph-name="uni0405" unicode="&#x405;" horiz-adv-x="641" 
d="M302 -11q-78 0 -152 20.5t-130 63.5l53 118q59 -40 121.5 -56.5t121.5 -16.5q64 0 99.5 23t35.5 59q0 29 -21 48t-70 30l-113 27q-74 17 -117.5 63t-43.5 119q0 72 40 123.5t106 78.5t143 27q66 0 133.5 -20t121.5 -62l-55 -112q-46 35 -99.5 50t-102.5 15
q-61 0 -97.5 -23.5t-36.5 -62.5q0 -30 19.5 -47.5t58.5 -27.5l112 -27q85 -19 130 -66.5t45 -113.5q0 -77 -42 -128t-111 -76.5t-149 -25.5z" />
    <glyph glyph-name="uni0406" unicode="&#x406;" horiz-adv-x="297" 
d="M32 0l112 705h155l-112 -705h-155z" />
    <glyph glyph-name="uni0407" unicode="&#x407;" horiz-adv-x="297" 
d="M32 0l112 705h155l-112 -705h-155zM265 781l22 132h131l-21 -132h-132zM69 781l20 132h132l-21 -132h-131z" />
    <glyph glyph-name="uni0408" unicode="&#x408;" horiz-adv-x="372" 
d="M-36 -10l3 126l78 4q42 3 65 25t31 68l78 492h155l-80 -503q-10 -65 -36 -109.5t-75 -69t-127 -28.5z" />
    <glyph glyph-name="uni0409" unicode="&#x409;" horiz-adv-x="1135" 
d="M60 -18l-70 113q44 23 77.5 51.5t59.5 71t45.5 105.5t34.5 153l37 229h510l-46 -284h145q123 0 183.5 -54t60.5 -137q0 -112 -70.5 -171t-208.5 -59h-331l91 577h-212l-22 -141q-21 -129 -58 -217.5t-92.5 -145.5t-133.5 -91zM661 120h160q127 0 127 101q0 41 -26.5 60.5
t-89.5 19.5h-143z" />
    <glyph glyph-name="uni040A" unicode="&#x40a;" horiz-adv-x="1163" 
d="M32 0l112 705h155l-45 -283h327l46 283h155l-46 -284h145q123 0 183.5 -54t60.5 -137q0 -112 -70.5 -171t-208.5 -59h-331l46 293h-328l-46 -293h-155zM689 120h160q127 0 127 101q0 41 -26.5 60.5t-89.5 19.5h-142z" />
    <glyph glyph-name="uni040B" unicode="&#x40b;" horiz-adv-x="876" 
d="M200 0l91 577h-233l21 128h621l-20 -128h-233l-25 -156q26 11 64 18t77 7q88 0 148.5 -36t87 -104.5t11.5 -166.5l-22 -139h-155l23 140q15 93 -17 133.5t-109 40.5q-31 0 -65 -5.5t-64 -19.5l-46 -289h-155z" />
    <glyph glyph-name="uni040C" unicode="&#x40c;" horiz-adv-x="695" 
d="M32 0l112 705h155l-46 -291h84l225 291h171l-255 -325q30 -19 50.5 -50.5t36.5 -75.5l92 -254h-159l-69 200q-15 47 -42.5 66.5t-74.5 19.5h-79l-46 -286h-155zM372 765l130 175h157l-182 -175h-105z" />
    <glyph glyph-name="uni040D" unicode="&#x40d;" horiz-adv-x="753" 
d="M32 0l112 705h144l-70 -443l422 443h115l-112 -705h-144l70 445l-423 -445h-114zM404 765l-152 175h151l106 -175h-105z" />
    <glyph glyph-name="uni040E" unicode="&#x40e;" horiz-adv-x="670" 
d="M125 0l146 221l-220 484h157l154 -348l232 348h167l-469 -705h-167zM402 760q-86 0 -133 40.5t-60 104.5l76 24q15 -47 44 -68t80 -21t83.5 22t54.5 66l69 -23q-24 -68 -80 -106.5t-134 -38.5z" />
    <glyph glyph-name="uni040F" unicode="&#x40f;" horiz-adv-x="773" 
d="M252 -170l27 170h-247l112 705h155l-92 -577h321l92 577h155l-112 -705h-248l-27 -170h-136z" />
    <glyph glyph-name="uni0410" unicode="&#x410;" horiz-adv-x="753" 
d="M-49 0l437 705h125l211 -705h-148l-40 153h-332l-90 -153h-163zM431 540l-156 -266h228l-70 266h-2z" />
    <glyph glyph-name="uni0411" unicode="&#x411;" horiz-adv-x="681" 
d="M32 0l112 705h496l-19 -121h-347l-26 -163h151q123 0 183.5 -54t60.5 -137q0 -112 -71.5 -171t-208.5 -59h-331zM200 120h167q127 0 127 101q0 41 -26.5 60.5t-89.5 19.5h-149z" />
    <glyph glyph-name="uni0412" unicode="&#x412;" horiz-adv-x="695" 
d="M32 0l112 705h303q81 0 131 -22t73 -60t23 -86q0 -67 -38 -112.5t-101 -64.5q50 -18 78 -57t28 -92q0 -103 -70 -157t-191 -54h-348zM247 415h153q60 0 92.5 26t32.5 76q0 35 -25 54t-78 19h-148zM199 115h172q61 0 91 27.5t30 77.5q0 80 -104 80h-160z" />
    <glyph glyph-name="uni0413" unicode="&#x413;" horiz-adv-x="569" 
d="M32 0l112 705h481l-20 -128h-326l-92 -577h-155z" />
    <glyph glyph-name="uni0414" unicode="&#x414;" horiz-adv-x="811" 
d="M-54 -170l47 292h71q54 55 90.5 150.5t59.5 240.5l31 192h517l-92 -584h100l-47 -291h-136l27 170h-504l-27 -170h-137zM226 121h288l74 463h-219l-13 -80q-21 -136 -51 -230.5t-79 -152.5z" />
    <glyph glyph-name="uni0415" unicode="&#x415;" horiz-adv-x="605" 
d="M33 0l111 705h483l-19 -121h-335l-26 -165h313l-19 -122h-313l-28 -176h334l-19 -121h-482z" />
    <glyph glyph-name="uni0416" unicode="&#x416;" horiz-adv-x="1041" 
d="M-40 0l160 254q63 101 150 136l-153 315h162l133 -291h61l46 291h149l-46 -291h61l224 291h174l-260 -323q31 -19 52 -51t38 -77l92 -254h-159l-69 200q-16 47 -43 66.5t-74 19.5h-56l-46 -286h-148l45 286h-55q-48 0 -81.5 -20t-61.5 -66l-126 -200h-169z" />
    <glyph glyph-name="uni0417" unicode="&#x417;" horiz-adv-x="631" 
d="M291 -11q-75 0 -146.5 21t-130.5 67l56 111q46 -38 102.5 -53.5t114.5 -15.5q35 0 66.5 9.5t52 31.5t20.5 58q0 79 -101 79h-171l19 121h162q56 0 90 23t34 69q0 41 -29 59t-84 18q-116 0 -209 -62l-47 114q58 37 130 57t146 20q76 0 131 -23.5t84 -63.5t29 -91
q0 -67 -38.5 -113t-101.5 -64q51 -18 79 -58t28 -94q0 -106 -77.5 -163t-208.5 -57z" />
    <glyph glyph-name="uni0418" unicode="&#x418;" horiz-adv-x="753" 
d="M32 0l112 705h144l-70 -443l422 443h115l-112 -705h-144l70 445l-423 -445h-114z" />
    <glyph glyph-name="uni0419" unicode="&#x419;" horiz-adv-x="753" 
d="M32 0l112 705h144l-70 -443l422 443h115l-112 -705h-144l70 445l-423 -445h-114zM451 760q-86 0 -133 40.5t-60 104.5l76 24q15 -47 44 -68t80 -21t83.5 22t54.5 66l69 -23q-24 -68 -80 -106.5t-134 -38.5z" />
    <glyph glyph-name="uni041A" unicode="&#x41a;" horiz-adv-x="695" 
d="M32 0l112 705h155l-46 -291h84l225 291h171l-255 -325q30 -19 50.5 -50.5t36.5 -75.5l92 -254h-159l-69 200q-15 47 -42.5 66.5t-74.5 19.5h-79l-46 -286h-155z" />
    <glyph glyph-name="uni041B" unicode="&#x41b;" horiz-adv-x="758" 
d="M57 -18l-67 113q44 23 77.5 51.5t59.5 71t45.5 105.5t34.5 153l37 229h517l-112 -705h-156l92 577h-219l-22 -141q-21 -129 -58 -217.5t-93.5 -145.5t-135.5 -91z" />
    <glyph glyph-name="uni041C" unicode="&#x41c;" horiz-adv-x="876" 
d="M34 0l112 705h123l167 -436l307 436h133l-112 -705h-140l68 432l-231 -326h-86l-133 323l-68 -429h-140z" />
    <glyph glyph-name="uni041D" unicode="&#x41d;" horiz-adv-x="780" 
d="M32 0l112 705h155l-45 -283h327l46 283h155l-112 -705h-155l46 293h-328l-46 -293h-155z" />
    <glyph glyph-name="uni041E" unicode="&#x41e;" horiz-adv-x="796" 
d="M388 -11q-97 0 -169.5 37t-112.5 107t-40 169q0 121 46.5 214.5t130.5 146.5t199 53q98 0 170.5 -37t112 -107t39.5 -168q0 -122 -46 -215.5t-130.5 -146.5t-199.5 -53zM391 121q67 0 114.5 36t72.5 99t25 145q0 93 -44 138t-120 45q-67 0 -114 -35.5t-72 -98.5t-25 -146
q0 -93 43.5 -138t119.5 -45z" />
    <glyph glyph-name="uni041F" unicode="&#x41f;" horiz-adv-x="773" 
d="M32 0l112 705h631l-112 -705h-155l92 577h-321l-92 -577h-155z" />
    <glyph glyph-name="uni0420" unicode="&#x420;" horiz-adv-x="664" 
d="M32 0l112 705h285q123 0 185 -52.5t62 -147.5q0 -120 -73 -185.5t-212 -65.5h-164l-40 -254h-155zM247 374h150q130 0 130 118q0 92 -117 92h-130z" />
    <glyph glyph-name="uni0421" unicode="&#x421;" horiz-adv-x="683" 
d="M398 -11q-95 0 -170 36t-118 108t-43 179q0 85 26 158t75.5 128.5t122 86.5t165.5 31q73 0 136 -22.5t100 -58.5l-61 -123q-80 67 -178 67q-72 0 -121.5 -34.5t-74.5 -94t-25 -133.5q0 -100 45.5 -145.5t138.5 -45.5q43 0 87 14.5t90 47.5l41 -122q-43 -37 -107.5 -57
t-128.5 -20z" />
    <glyph glyph-name="uni0422" unicode="&#x422;" horiz-adv-x="632" 
d="M200 0l91 577h-233l21 128h621l-20 -128h-233l-92 -577h-155z" />
    <glyph glyph-name="uni0423" unicode="&#x423;" horiz-adv-x="670" 
d="M125 0l146 221l-220 484h157l154 -348l232 348h167l-469 -705h-167z" />
    <glyph glyph-name="uni0424" unicode="&#x424;" horiz-adv-x="908" 
d="M333 -27l14 83q-85 6 -147.5 39t-97 91t-34.5 138q0 68 23.5 129t70.5 108t117 74t163 27v0l12 75h155l-12 -81q84 -6 147 -39t97.5 -91t34.5 -138q0 -68 -23.5 -129t-70.5 -108t-117 -74t-163 -27h-1l-12 -77h-156zM225 328q0 -70 33 -110t108 -46l59 373
q-69 -1 -113 -32t-65.5 -80t-21.5 -105zM718 384q0 71 -32.5 110.5t-108.5 45.5l-59 -373q69 1 113.5 31.5t65.5 80t21 105.5z" />
    <glyph glyph-name="uni0425" unicode="&#x425;" horiz-adv-x="685" 
d="M-54 0l322 364l-203 341h170l138 -243l204 243h190l-314 -355l209 -350h-172l-145 251l-210 -251h-189z" />
    <glyph glyph-name="uni0426" unicode="&#x426;" horiz-adv-x="824" 
d="M600 -170l27 170h-595l112 705h155l-92 -577h321l92 577h155l-91 -577h100l-47 -298h-137z" />
    <glyph glyph-name="uni0427" unicode="&#x427;" horiz-adv-x="709" 
d="M444 0l41 262q-27 -12 -64.5 -18.5t-76.5 -6.5q-86 0 -146.5 36.5t-87 105.5t-11.5 164l25 162h155l-25 -162q-15 -93 15.5 -134t107.5 -41q31 0 65.5 6t63.5 20l50 311h155l-112 -705h-155z" />
    <glyph glyph-name="uni0428" unicode="&#x428;" horiz-adv-x="1080" 
d="M32 0l112 705h152l-91 -577h240l92 577h152l-91 -577h240l91 577h153l-112 -705h-938z" />
    <glyph glyph-name="uni0429" unicode="&#x429;" horiz-adv-x="1131" 
d="M907 -170l27 170h-902l112 705h152l-91 -577h239l92 577h152l-91 -577h239l92 577h153l-92 -577h101l-47 -298h-136z" />
    <glyph glyph-name="uni042A" unicode="&#x42a;" horiz-adv-x="816" 
d="M168 0l91 577h-201l21 128h356l-46 -284h145q122 0 182.5 -54t60.5 -137q0 -112 -70 -171t-207 -59h-332zM342 120h160q127 0 127 101q0 41 -27 60.5t-89 19.5h-142z" />
    <glyph glyph-name="uni042B" unicode="&#x42b;" horiz-adv-x="928" 
d="M32 0l112 705h155l-45 -284h119q122 0 182.5 -54t60.5 -137q0 -112 -70.5 -171t-207.5 -59h-306zM663 0l112 705h156l-112 -705h-156zM206 120h135q127 0 127 101q0 41 -27 60.5t-89 19.5h-117z" />
    <glyph glyph-name="uni042C" unicode="&#x42c;" horiz-adv-x="681" 
d="M32 0l112 705h155l-45 -284h144q123 0 183.5 -54t60.5 -137q0 -112 -70 -171t-207 -59h-333zM206 120h160q127 0 127 101q0 41 -26.5 60.5t-89.5 19.5h-142z" />
    <glyph glyph-name="uni042D" unicode="&#x42d;" horiz-adv-x="683" 
d="M261 -11q-72 0 -135 23t-100 58l60 123q80 -67 178 -67q88 0 141 48t72 124h-299l19 122h289q-6 76 -47 117.5t-133 41.5q-44 0 -89.5 -14.5t-91.5 -47.5l-42 123q29 24 69 41t84.5 26t87.5 9q95 0 168.5 -36t115.5 -107.5t42 -179.5q0 -85 -26 -158t-75.5 -128.5
t-121.5 -86.5t-166 -31z" />
    <glyph glyph-name="uni042E" unicode="&#x42e;" horiz-adv-x="1066" 
d="M660 -11q-96 0 -166.5 36.5t-110 104.5t-42.5 163h-108l-46 -293h-155l112 705h155l-45 -283h100q20 88 69.5 154t123.5 103t167 37q97 0 169 -37t111.5 -107t39.5 -168q0 -122 -46 -215.5t-130 -146.5t-198 -53zM663 121q66 0 113 36t72 99t25 145q0 93 -43.5 138
t-118.5 45q-65 0 -112 -35.5t-71.5 -98.5t-24.5 -146q0 -93 43 -138t117 -45z" />
    <glyph glyph-name="uni042F" unicode="&#x42f;" horiz-adv-x="699" 
d="M-14 0l144 209q24 34 48.5 54t54.5 26q-66 20 -101.5 67.5t-35.5 116.5q0 80 35.5 131.5t97.5 76t140 24.5h333l-112 -705h-156l44 273h-67q-30 0 -53.5 -10.5t-42.5 -37.5l-154 -225h-175zM365 385h131l31 199h-154q-61 0 -94 -27.5t-33 -81.5q0 -45 28.5 -67.5
t90.5 -22.5z" />
    <glyph glyph-name="uni0430" unicode="&#x430;" horiz-adv-x="573" 
d="M197 -11q-46 0 -84 21.5t-60 56.5t-22 76q0 78 66.5 113.5t208.5 35.5h68l2 13q7 41 -14.5 63t-72.5 22q-88 0 -170 -49l-31 102q39 26 99.5 42t122.5 16q84 0 132 -31t65 -83.5t6 -117.5l-42 -269h-141l11 72q-24 -43 -62 -63t-82 -20zM248 90q43 0 72.5 26.5t36.5 71.5
l5 26h-53q-73 0 -103 -13.5t-30 -47.5q0 -30 20.5 -46.5t51.5 -16.5z" />
    <glyph glyph-name="uni0431" unicode="&#x431;" horiz-adv-x="604" 
d="M285 -11q-93 0 -149.5 40.5t-78 110.5t-7.5 157l11 72q16 102 54.5 164.5t102.5 98t157 58.5l144 35l32 -118l-178 -41q-74 -18 -114 -59t-52 -111l-1 -9q25 40 67 67t104 27q52 0 94.5 -25.5t67.5 -70.5t25 -104q0 -88 -34 -153.5t-96.5 -102t-148.5 -36.5zM284 102
q60 0 94 46t34 116q0 49 -25 77t-68 28q-60 0 -93.5 -46t-33.5 -111q0 -54 24.5 -82t67.5 -28z" />
    <glyph glyph-name="uni0432" unicode="&#x432;" horiz-adv-x="581" 
d="M27 0l78 491h270q89 0 129.5 -34t40.5 -81q0 -45 -24.5 -76.5t-65.5 -45.5q77 -22 77 -104q0 -69 -54 -109.5t-161 -40.5h-290zM213 295h124q32 0 52 16.5t20 46.5q0 22 -15 32.5t-42 10.5h-122zM180 90h131q84 0 84 66q0 50 -65 50h-131z" />
    <glyph glyph-name="uni0433" unicode="&#x433;" horiz-adv-x="470" 
d="M27 0l78 491h387l-18 -118h-236l-60 -373h-151z" />
    <glyph glyph-name="uni0434" unicode="&#x434;" horiz-adv-x="633" 
d="M-34 -130l40 246h58q32 40 52 95t33 143l22 137h402l-59 -375h81l-39 -246h-128l21 130h-335l-21 -130h-127zM200 116h173l41 260h-134l-10 -63q-9 -58 -26.5 -110.5t-43.5 -86.5z" />
    <glyph glyph-name="uni0435" unicode="&#x435;" horiz-adv-x="565" 
d="M294 -11q-77 0 -134 28.5t-88 79t-31 118.5q0 84 35.5 148.5t98 101t142.5 36.5q82 0 131 -35.5t68 -95t10 -131.5l-4 -26h-341q1 -53 34 -82t94 -29q42 0 81.5 12t70.5 35l33 -99q-36 -28 -89 -44.5t-111 -16.5zM316 401q-54 0 -84 -32.5t-40 -77.5h218q3 47 -19.5 78.5
t-74.5 31.5z" />
    <glyph glyph-name="uni0436" unicode="&#x436;" horiz-adv-x="852" 
d="M-48 0l128 190q45 63 93 86l-117 215h153l102 -183h49l29 183h151l-29 -183h48l160 183h161l-196 -229q19 -14 33 -34t25 -44l80 -184h-153l-63 142q-13 29 -28.5 39.5t-40.5 10.5h-44l-30 -192h-151l30 192h-42q-27 0 -45.5 -10.5t-40.5 -39.5l-101 -142h-161z" />
    <glyph glyph-name="uni0437" unicode="&#x437;" horiz-adv-x="532" 
d="M219 -11q-68 0 -123 16.5t-90 44.5l47 92q31 -22 78.5 -34.5t98.5 -12.5q56 0 86.5 12t30.5 45q0 43 -63 43h-138l16 105h126q71 0 71 51q0 21 -21.5 32.5t-74.5 11.5q-89 0 -174 -44l-31 96q46 25 106.5 39.5t133.5 14.5q93 0 145.5 -33t52.5 -88q0 -46 -25.5 -78.5
t-66.5 -46.5q38 -11 58.5 -39t20.5 -67q0 -80 -72 -120t-192 -40z" />
    <glyph glyph-name="uni0438" unicode="&#x438;" horiz-adv-x="616" 
d="M27 0l78 491h136l-46 -292l270 292h124l-78 -491h-136l47 293l-270 -293h-125z" />
    <glyph glyph-name="uni0439" unicode="&#x439;" horiz-adv-x="616" 
d="M27 0l78 491h136l-46 -292l270 292h124l-78 -491h-136l47 293l-270 -293h-125zM356 552q-81 0 -125 41.5t-54 102.5l73 24q13 -46 40.5 -67t72.5 -21t72.5 22t47.5 65l71 -23q-22 -68 -74 -106t-124 -38z" />
    <glyph glyph-name="uni043A" unicode="&#x43a;" horiz-adv-x="579" 
d="M27 0l78 491h151l-29 -183h59l159 183h162l-196 -230q18 -13 32.5 -32.5t25.5 -44.5l80 -184h-153l-63 142q-13 29 -28.5 39.5t-41.5 10.5h-54l-31 -192h-151z" />
    <glyph glyph-name="uni043B" unicode="&#x43b;" horiz-adv-x="610" 
d="M26 -15l-32 120q63 15 96 64.5t49 154.5l27 167h417l-78 -491h-151l60 374h-129l-10 -62q-18 -108 -46.5 -176t-76.5 -103.5t-126 -47.5z" />
    <glyph glyph-name="uni043C" unicode="&#x43c;" horiz-adv-x="700" 
d="M27 0l78 491h116l120 -268l202 268h131l-78 -491h-133l43 272l-143 -191h-69l-91 196l-43 -277h-133z" />
    <glyph glyph-name="uni043D" unicode="&#x43d;" horiz-adv-x="620" 
d="M27 0l78 491h151l-29 -182h186l29 182h151l-77 -491h-151l30 192h-186l-31 -192h-151z" />
    <glyph glyph-name="uni043E" unicode="&#x43e;" horiz-adv-x="604" 
d="M282 -11q-114 0 -177.5 61.5t-63.5 164.5q0 91 39 155t103.5 97.5t138.5 33.5q114 0 178 -61.5t64 -163.5q0 -92 -39.5 -156t-103.5 -97.5t-139 -33.5zM286 102q59 0 92.5 51t33.5 128q0 52 -25 79.5t-68 27.5q-60 0 -93 -51t-33 -127q0 -52 24.5 -80t68.5 -28z" />
    <glyph glyph-name="uni043F" unicode="&#x43f;" horiz-adv-x="617" 
d="M27 0l78 491h485l-77 -491h-151l59 374h-183l-60 -374h-151z" />
    <glyph glyph-name="uni0440" unicode="&#x440;" horiz-adv-x="626" 
d="M-1 -180l106 671h148l-11 -72q27 39 68.5 60.5t92.5 21.5q83 0 133 -57t50 -155q0 -85 -30 -153t-85.5 -107.5t-131.5 -39.5q-50 0 -89.5 21.5t-59.5 62.5l-40 -253h-151zM308 102q60 0 93 51t33 128q0 52 -24.5 79.5t-67.5 27.5q-60 0 -93 -51t-33 -127q0 -52 24.5 -80
t67.5 -28z" />
    <glyph glyph-name="uni0441" unicode="&#x441;" horiz-adv-x="494" 
d="M286 -11q-123 0 -184 62.5t-61 164.5q0 55 17.5 106t52.5 91.5t89.5 64t127.5 23.5q49 0 94.5 -13.5t75.5 -37.5l-45 -104q-21 18 -51.5 29t-62.5 11q-53 0 -84.5 -25t-45.5 -63.5t-14 -79.5q0 -51 26.5 -82t87.5 -31q26 0 56 10t55 29l32 -105q-29 -24 -76 -37t-90 -13z
" />
    <glyph glyph-name="uni0442" unicode="&#x442;" horiz-adv-x="490" 
d="M131 0l59 373h-162l19 118h475l-19 -118h-162l-59 -373h-151z" />
    <glyph glyph-name="uni0443" unicode="&#x443;" horiz-adv-x="549" 
d="M36 -180l128 207l-129 464h152l73 -312l177 312h156l-403 -671h-154z" />
    <glyph glyph-name="uni0444" unicode="&#x444;" horiz-adv-x="864" 
d="M304 -180l38 242q-24 -39 -58 -56t-71 -17q-52 0 -90.5 27t-60.5 75t-22 111q0 85 27.5 153t76 107t111.5 39q90 0 122 -69l43 273h151l-42 -264q24 32 55.5 46t65.5 14q52 0 91 -26.5t60.5 -74.5t21.5 -111q0 -85 -27.5 -153t-76 -107.5t-111.5 -39.5q-83 0 -117 60
l-36 -229h-151zM570 102q46 -1 74 51t28 132q0 46 -18.5 75t-51.5 29q-52 2 -77 -50t-25 -132q0 -51 19 -77.5t51 -27.5zM261 101q52 -1 77 51t25 132q0 51 -19 78t-50 27q-47 1 -75 -51t-28 -132q0 -46 19 -75t51 -30z" />
    <glyph glyph-name="uni0445" unicode="&#x445;" horiz-adv-x="575" 
d="M-44 0l246 255l-155 236h170l87 -141l124 141h179l-229 -243l165 -248h-170l-96 150l-142 -150h-179z" />
    <glyph glyph-name="uni0446" unicode="&#x446;" horiz-adv-x="638" 
d="M433 -130l21 130h-427l78 491h151l-60 -374h171l60 374h151l-60 -374h82l-39 -247h-128z" />
    <glyph glyph-name="uni0447" unicode="&#x447;" horiz-adv-x="587" 
d="M334 0l26 165q-27 -11 -50.5 -16t-50.5 -5q-110 0 -161 55t-34 162l20 130h151l-18 -116q-10 -58 9 -84t74 -26q44 0 76 19l32 207h151l-77 -491h-148z" />
    <glyph glyph-name="uni0448" unicode="&#x448;" horiz-adv-x="851" 
d="M27 0l78 491h141l-60 -374h148l60 374h141l-60 -374h148l59 374h142l-78 -491h-719z" />
    <glyph glyph-name="uni0449" unicode="&#x449;" horiz-adv-x="884" 
d="M679 -130l21 130h-673l78 491h141l-60 -374h148l60 374h141l-60 -374h149l59 374h141l-59 -374h81l-39 -247h-128z" />
    <glyph glyph-name="uni044A" unicode="&#x44a;" horiz-adv-x="645" 
d="M109 0l59 373h-140l19 118h291l-25 -156h115q88 0 133 -41.5t45 -108.5q0 -60 -29 -101.5t-79 -62.5t-113 -21h-276zM275 97h95q46 0 71.5 19t25.5 59q0 64 -79 64h-90z" />
    <glyph glyph-name="uni044B" unicode="&#x44b;" horiz-adv-x="803" 
d="M27 0l78 491h151l-25 -156h116q87 0 132 -41.5t45 -108.5q0 -60 -29 -101.5t-78.5 -62.5t-112.5 -21h-277zM547 0l78 491h151l-78 -491h-151zM194 97h94q46 0 71.5 19t25.5 59q0 64 -79 64h-90z" />
    <glyph glyph-name="uni044C" unicode="&#x44c;" horiz-adv-x="563" 
d="M27 0l78 491h151l-25 -156h115q88 0 133 -41.5t45 -108.5q0 -60 -29 -101.5t-79 -62.5t-113 -21h-276zM194 97h94q46 0 71.5 19t25.5 59q0 64 -79 64h-90z" />
    <glyph glyph-name="uni044D" unicode="&#x44d;" horiz-adv-x="523" 
d="M179 -11q-53 0 -101 16t-79 42l43 92q25 -19 63.5 -31.5t77.5 -12.5q63 0 99.5 29.5t50.5 71.5h-223l17 103h218q-7 44 -38 70.5t-94 26.5q-32 0 -69 -11t-68 -32l-32 96q31 23 81.5 37.5t96.5 14.5q130 0 195 -62t65 -164q0 -55 -18.5 -106.5t-56 -91.5t-94.5 -64
t-134 -24z" />
    <glyph glyph-name="uni044E" unicode="&#x44e;" horiz-adv-x="844" 
d="M522 -11q-108 0 -170.5 55t-69.5 148h-75l-30 -192h-150l78 491h149l-29 -182h69q18 62 58.5 105t94.5 65t115 22q114 0 177.5 -61.5t63.5 -163.5q0 -92 -39.5 -156t-103.5 -97.5t-138 -33.5zM525 102q59 0 92.5 51t33.5 128q0 52 -24.5 79.5t-68.5 27.5q-59 0 -92.5 -51
t-33.5 -127q0 -52 24.5 -80t68.5 -28z" />
    <glyph glyph-name="uni044F" unicode="&#x44f;" horiz-adv-x="574" 
d="M-17 0l90 123q37 53 87 70q-50 11 -76.5 43.5t-26.5 81.5q0 84 60 128.5t158 44.5h272l-78 -491h-139l25 159h-42q-23 0 -44 -13.5t-36 -34.5l-79 -111h-171zM276 256h95l22 138h-100q-45 0 -69 -20t-24 -55q0 -63 76 -63z" />
    <glyph glyph-name="uni0450" unicode="&#x450;" horiz-adv-x="565" 
d="M294 -11q-77 0 -134 28.5t-88 79t-31 118.5q0 84 35.5 148.5t98 101t142.5 36.5q82 0 131 -35.5t68 -95t10 -131.5l-4 -26h-341q1 -53 34 -82t94 -29q42 0 81.5 12t70.5 35l33 -99q-36 -28 -89 -44.5t-111 -16.5zM316 401q-54 0 -84 -32.5t-40 -77.5h218q3 47 -19.5 78.5
t-74.5 31.5zM300 555l-142 205h143l98 -205h-99z" />
    <glyph glyph-name="uni0451" unicode="&#x451;" horiz-adv-x="565" 
d="M294 -11q-77 0 -134 28.5t-88 79t-31 118.5q0 84 35.5 148.5t98 101t142.5 36.5q82 0 131 -35.5t68 -95t10 -131.5l-4 -26h-341q1 -53 34 -82t94 -29q42 0 81.5 12t70.5 35l33 -99q-36 -28 -89 -44.5t-111 -16.5zM316 401q-54 0 -84 -32.5t-40 -77.5h218q3 47 -19.5 78.5
t-74.5 31.5zM390 590l19 132h132l-20 -132h-131zM192 590l21 132h131l-20 -132h-132z" />
    <glyph glyph-name="uni0452" unicode="&#x452;" horiz-adv-x="613" 
d="M290 -187l-47 109q44 12 69 29t37.5 43t18.5 66l35 223q7 47 -7.5 71t-54.5 24q-50 0 -81 -32.5t-40 -89.5l-41 -256h-151l85 538h-85l16 104h86l10 63h151l-10 -63h185l-16 -104h-186l-19 -121q55 78 162 78q80 0 122 -50t25 -159l-35 -224q-10 -60 -31 -108.5
t-67 -83.5t-131 -57z" />
    <glyph glyph-name="uni0453" unicode="&#x453;" horiz-adv-x="470" 
d="M27 0l78 491h387l-18 -118h-236l-60 -373h-151zM241 555l132 205h147l-180 -205h-99z" />
    <glyph glyph-name="uni0454" unicode="&#x454;" horiz-adv-x="524" 
d="M302 -11q-130 0 -195.5 62.5t-65.5 164.5q0 55 18.5 106t56 91.5t94.5 64t134 23.5q54 0 102 -15.5t78 -41.5l-42 -92q-25 20 -63 32t-78 12q-62 0 -98 -28t-52 -69h222l-17 -103h-218q6 -46 37.5 -74t94.5 -28q34 0 70.5 11t66.5 32l32 -96q-31 -22 -80.5 -37t-96.5 -15
z" />
    <glyph glyph-name="uni0455" unicode="&#x455;" horiz-adv-x="508" 
d="M236 -11q-64 0 -121 15t-96 43l44 97q36 -24 82 -37.5t90 -13.5q43 0 64.5 15t21.5 38q0 33 -47 42l-91 17q-59 10 -91 43.5t-32 84.5q0 45 26.5 83.5t78.5 61.5t128 23q47 0 96.5 -13.5t85.5 -40.5l-42 -95q-33 23 -71.5 34.5t-76.5 11.5q-45 0 -67.5 -16t-22.5 -41
q0 -14 9.5 -24.5t31.5 -14.5l90 -17q130 -24 130 -128q0 -81 -60.5 -124.5t-159.5 -43.5z" />
    <glyph glyph-name="uni0456" unicode="&#x456;" horiz-adv-x="284" 
d="M115 586l23 141h162l-22 -141h-163zM27 0l78 491h151l-78 -491h-151z" />
    <glyph glyph-name="uni0457" unicode="&#x457;" horiz-adv-x="284" 
d="M27 0l78 491h151l-78 -491h-151zM231 590l19 132h132l-20 -132h-131zM33 590l21 132h131l-20 -132h-132z" />
    <glyph glyph-name="uni0458" unicode="&#x458;" horiz-adv-x="289" 
d="M118 586l23 141h162l-22 -141h-163zM-87 -193l-10 108l49 5q36 3 55 22t25 56l78 493h151l-75 -474q-11 -70 -36 -114t-71 -66t-121 -27z" />
    <glyph glyph-name="uni0459" unicode="&#x459;" horiz-adv-x="887" 
d="M26 -15l-32 120q63 15 96 64.5t49 154.5l27 167h414l-25 -156h115q88 0 133 -41.5t45 -108.5q0 -60 -29 -101.5t-79 -62.5t-113 -21h-273l60 374h-129l-10 -62q-18 -108 -46.5 -176t-76.5 -103.5t-126 -47.5zM517 97h95q46 0 71.5 19t25.5 59q0 64 -79 64h-90z" />
    <glyph glyph-name="uni045A" unicode="&#x45a;" horiz-adv-x="900" 
d="M27 0l78 491h151l-29 -182h186l29 182h151l-25 -156h115q88 0 133 -41.5t45 -108.5q0 -60 -29 -101.5t-79 -62.5t-113 -21h-275l30 192h-186l-31 -192h-151zM531 97h94q46 0 71.5 19t25.5 59q0 64 -79 64h-90z" />
    <glyph glyph-name="uni045B" unicode="&#x45b;" horiz-adv-x="611" 
d="M27 0l85 538h-84l16 104h85l10 63h151l-10 -63h186l-16 -104h-187l-18 -121q54 78 161 78q80 0 122.5 -50t25.5 -159l-45 -286h-151l44 283q16 95 -61 95q-51 0 -82 -32.5t-40 -89.5l-41 -256h-151z" />
    <glyph glyph-name="uni045C" unicode="&#x45c;" horiz-adv-x="579" 
d="M27 0l78 491h151l-29 -183h59l159 183h162l-196 -230q18 -13 32.5 -32.5t25.5 -44.5l80 -184h-153l-63 142q-13 29 -28.5 39.5t-41.5 10.5h-54l-31 -192h-151zM305 555l132 205h147l-180 -205h-99z" />
    <glyph glyph-name="uni045D" unicode="&#x45d;" horiz-adv-x="616" 
d="M27 0l78 491h136l-46 -292l270 292h124l-78 -491h-136l47 293l-270 -293h-125zM302 555l-142 205h143l98 -205h-99z" />
    <glyph glyph-name="uni045E" unicode="&#x45e;" horiz-adv-x="549" 
d="M36 -180l128 207l-129 464h152l73 -312l177 312h156l-403 -671h-154zM313 552q-81 0 -125 41.5t-54 102.5l73 24q13 -46 40.5 -67t72.5 -21t72.5 22t47.5 65l71 -23q-22 -68 -74 -106t-124 -38z" />
    <glyph glyph-name="uni045F" unicode="&#x45f;" horiz-adv-x="617" 
d="M185 -130l21 130h-179l78 491h151l-60 -374h184l59 374h151l-77 -491h-179l-21 -130h-128z" />
    <glyph glyph-name="uni0462" unicode="&#x462;" horiz-adv-x="755" 
d="M109 0l81 515h-167l18 110h167l13 80h152l-13 -80h236l-18 -110h-236l-15 -94h145q123 0 183.5 -54t60.5 -137q0 -112 -70.5 -171t-207.5 -59h-329zM280 120h160q127 0 127 101q0 41 -26.5 60.5t-89.5 19.5h-142z" />
    <glyph glyph-name="uni0463" unicode="&#x463;" horiz-adv-x="645" 
d="M111 0l62 389h-142l16 102h142l34 214h151l-34 -214h166l-16 -102h-166l-11 -66h119q83 0 128.5 -36.5t45.5 -100.5q0 -87 -58.5 -136.5t-156.5 -49.5h-280zM276 92h97q45 0 70 21t25 59q0 31 -20.5 45t-55.5 14h-94z" />
    <glyph glyph-name="uni046A" unicode="&#x46a;" horiz-adv-x="1040" 
d="M-40 0l163 260q49 76 120 114t152 38h8l-203 293h786l-296 -293q82 -5 138.5 -47t81.5 -111l92 -254h-159l-69 200q-16 47 -43 66.5t-74 19.5h-52l-46 -286h-155l46 286h-52q-48 0 -81.5 -20t-61.5 -66l-126 -200h-169zM540 411h2l189 189h-324z" />
    <glyph glyph-name="uni046B" unicode="&#x46b;" horiz-adv-x="852" 
d="M-48 0l124 174q31 44 57.5 70t59.5 37.5t84 11.5v0l-139 198h652l-202 -199q61 -3 92.5 -31.5t58.5 -86.5l83 -174h-153l-61 126q-13 29 -29 40t-43 11h-46l-28 -177h-151l28 177h-47q-27 0 -45 -10.5t-40 -40.5l-94 -126h-161zM427 271h2l127 124h-216z" />
    <glyph glyph-name="uni0472" unicode="&#x472;" horiz-adv-x="796" 
d="M388 -11q-97 0 -169.5 37t-112.5 107t-40 169q0 121 46.5 214.5t130.5 146.5t199 53q98 0 170.5 -37t112 -107t39.5 -168q0 -122 -46 -215.5t-130.5 -146.5t-199.5 -53zM439 584q-76 0 -126.5 -46t-70.5 -123h360q-3 86 -46.5 127.5t-116.5 41.5zM391 121q78 0 129.5 49
t71.5 131h-364q1 -91 44.5 -135.5t118.5 -44.5z" />
    <glyph glyph-name="uni0473" unicode="&#x473;" horiz-adv-x="604" 
d="M282 -11q-114 0 -177.5 62t-63.5 164q0 92 39 156t103.5 97t138.5 33q114 0 178 -61.5t64 -163.5q0 -92 -39.5 -156t-103.5 -97.5t-139 -33.5zM315 398q-46 0 -78.5 -28t-47.5 -76h237q-6 104 -111 104zM288 93q46 0 79 28t48 77h-237q5 -105 110 -105z" />
    <glyph glyph-name="uni0474" unicode="&#x474;" horiz-adv-x="785" 
d="M261 0l-205 705h155l137 -504l174 306q35 60 67.5 100.5t69 64t81.5 33.5t105 10l5 -126q-49 0 -81 -13t-59 -44.5t-61 -89.5l-261 -442h-127z" />
    <glyph glyph-name="uni0475" unicode="&#x475;" horiz-adv-x="587" 
d="M171 0l-136 491h151l74 -312l104 184q31 53 62.5 83t74.5 42.5t109 12.5l1 -120q-47 0 -77 -18t-56 -61l-180 -302h-127z" />
    <glyph glyph-name="uni048A" unicode="&#x48a;" horiz-adv-x="783" 
d="M451 760q-86 0 -133.5 40.5t-59.5 104.5l76 24q14 -47 43.5 -68t79.5 -21q51 0 83.5 22t55.5 66l69 -23q-24 -68 -80 -106.5t-134 -38.5zM494 -170l85 170h-80l70 445l-423 -445h-114l112 705h144l-70 -443l422 443h115l-93 -582h110l-145 -293h-133z" />
    <glyph glyph-name="uni048B" unicode="&#x48b;" horiz-adv-x="649" 
d="M356 552q-81 0 -125 41.5t-54 102.5l73 24q13 -46 40 -67t72 -21t73 22t47 65l71 -23q-21 -68 -73 -106t-124 -38zM27 0l78 491h136l-46 -292l270 292h124l-60 -378h96l-120 -243h-126l64 130h-68l47 293l-270 -293h-125z" />
    <glyph glyph-name="uni048C" unicode="&#x48c;" horiz-adv-x="745" 
d="M101 0l82 515h-140l18 110h140l12 80h149l-12 -80h142l-18 -110h-142l-15 -94h145q123 0 183.5 -54t60.5 -137q0 -112 -71 -171t-209 -59h-325zM270 120h161q127 0 127 101q0 41 -26 60.5t-89 19.5h-145z" />
    <glyph glyph-name="uni048D" unicode="&#x48d;" horiz-adv-x="645" 
d="M111 0l62 389h-142l16 102h142l34 214h151l-34 -214h166l-16 -102h-166l-11 -66h119q83 0 128.5 -36.5t45.5 -100.5q0 -87 -58.5 -136.5t-156.5 -49.5h-280zM276 92h97q45 0 70 21t25 59q0 31 -20.5 45t-55.5 14h-94z" />
    <glyph glyph-name="uni048E" unicode="&#x48e;" horiz-adv-x="664" 
d="M32 0l112 705h285q123 0 185 -52.5t62 -147.5q0 -179 -155 -232l35 -62l-67 -41l-48 87q-24 -3 -50 -3h-164l-40 -254h-155zM247 374h131l-34 62l65 38l51 -89q67 24 67 107q0 92 -117 92h-130z" />
    <glyph glyph-name="uni048F" unicode="&#x48f;" horiz-adv-x="625" 
d="M-2 -180l107 671h148l-11 -70q28 38 69 59t90 21q84 0 134 -57t50 -155q0 -80 -27.5 -145.5t-76.5 -104.5l38 -58l-67 -47l-44 66q-34 -11 -71 -11q-49 0 -88.5 21t-59.5 62l-40 -252h-151zM307 102q16 0 29 4l-49 73l69 46l45 -68q16 23 24 56t8 69q0 52 -25 79t-68 27
q-59 0 -92.5 -51t-33.5 -127q0 -52 25 -80t68 -28z" />
    <glyph glyph-name="uni0490" unicode="&#x490;" horiz-adv-x="569" 
d="M32 0l112 705h344l26 163h136l-46 -291h-325l-92 -577h-155z" />
    <glyph glyph-name="uni0491" unicode="&#x491;" horiz-adv-x="470" 
d="M27 0l78 491h260l18 111h127l-36 -229h-236l-60 -373h-151z" />
    <glyph glyph-name="uni0492" unicode="&#x492;" horiz-adv-x="614" 
d="M77 0l47 289h-95l18 111h94l48 305h482l-21 -128h-326l-28 -177h177l-17 -111h-177l-46 -289h-156z" />
    <glyph glyph-name="uni0493" unicode="&#x493;" horiz-adv-x="496" 
d="M53 0l26 167h-87l17 104h88l34 220h387l-18 -118h-237l-15 -102h135l-16 -104h-137l-26 -167h-151z" />
    <glyph glyph-name="uni0494" unicode="&#x494;" horiz-adv-x="718" 
d="M383 -191q-41 0 -73.5 6t-55.5 15l25 114q36 -13 81 -13q48 0 81 33t43 95l12 73q15 93 -23 137.5t-113 44.5q-31 0 -64.5 -5.5t-62.5 -19.5l-46 -289h-155l112 705h497l-19 -128h-343l-25 -156q27 11 64 18t76 7q86 0 150 -36.5t93.5 -105.5t14.5 -166l-12 -73
q-19 -123 -86.5 -189.5t-170.5 -66.5z" />
    <glyph glyph-name="uni0495" unicode="&#x495;" horiz-adv-x="591" 
d="M298 -187l-48 109q44 12 69 29t37.5 43t18.5 66l8 46q7 47 -9 71t-57 24q-52 0 -84.5 -32.5t-41.5 -89.5l-13 -79h-151l78 491h378l-18 -112h-227l-22 -140q56 79 166 79q54 0 92.5 -22t55 -68.5t4.5 -118.5l-8 -47q-10 -60 -31 -108t-67 -83.5t-130 -57.5z" />
    <glyph glyph-name="uni0496" unicode="&#x496;" horiz-adv-x="1062" 
d="M-40 0l160 254q63 101 150 136l-153 315h162l133 -291h61l46 291h149l-46 -291h61l224 291h174l-260 -323q31 -19 52 -51t38 -77l47 -131h112l-46 -293h-136l26 170h-70l-69 200q-16 47 -43 66.5t-74 19.5h-56l-46 -286h-148l45 286h-55q-48 0 -81.5 -20t-61.5 -66
l-126 -200h-169z" />
    <glyph glyph-name="uni0497" unicode="&#x497;" horiz-adv-x="901" 
d="M-48 0l128 190q45 63 93 86l-117 215h153l102 -183h49l29 183h151l-29 -183h48l160 183h161l-196 -229q19 -14 33 -34t25 -44l31 -71h87l-37 -243h-128l21 130h-47l-63 142q-13 29 -28.5 39.5t-40.5 10.5h-44l-30 -192h-151l30 192h-42q-27 0 -45.5 -10.5t-40.5 -39.5
l-101 -142h-161z" />
    <glyph glyph-name="uni0498" unicode="&#x498;" horiz-adv-x="631" 
d="M194 -170l26 164q-57 7 -108.5 27.5t-97.5 55.5l56 111q46 -38 102.5 -53.5t114.5 -15.5q35 0 66.5 9.5t52 31.5t20.5 58q0 79 -101 79h-171l19 121h162q56 0 90 23t34 69q0 41 -29 59t-84 18q-116 0 -209 -62l-47 114q58 37 130 57t146 20q76 0 131 -23.5t84 -63.5
t29 -91q0 -68 -38.5 -113.5t-102.5 -63.5q51 -18 79.5 -58t28.5 -94q0 -93 -60.5 -148t-164.5 -68l-26 -163h-132z" />
    <glyph glyph-name="uni0499" unicode="&#x499;" horiz-adv-x="532" 
d="M162 -130l19 121q-55 4 -100 19.5t-75 39.5l47 92q31 -22 78.5 -34.5t98.5 -12.5q56 0 86.5 12t30.5 45q0 43 -63 43h-138l16 105h126q71 0 71 51q0 21 -21.5 32.5t-74.5 11.5q-89 0 -174 -44l-31 96q46 25 106.5 39.5t133.5 14.5q93 0 145.5 -33t52.5 -88
q0 -46 -26 -78.5t-67 -46.5q39 -11 59.5 -39t20.5 -67q0 -65 -49 -104t-134 -50l-20 -125h-118z" />
    <glyph glyph-name="uni049A" unicode="&#x49a;" horiz-adv-x="740" 
d="M32 0l112 705h155l-46 -291h84l225 291h171l-255 -325q30 -19 50.5 -50.5t36.5 -75.5l47 -131h113l-46 -293h-137l27 170h-71l-69 200q-15 47 -42.5 66.5t-74.5 19.5h-79l-46 -286h-155z" />
    <glyph glyph-name="uni049B" unicode="&#x49b;" horiz-adv-x="626" 
d="M27 0l78 491h151l-29 -183h59l159 183h162l-196 -230q18 -13 32.5 -32.5t25.5 -44.5l31 -71h87l-37 -243h-128l21 130h-47l-63 142q-13 29 -28.5 39.5t-41.5 10.5h-54l-31 -192h-151z" />
    <glyph glyph-name="uni049C" unicode="&#x49c;" horiz-adv-x="761" 
d="M32 0l112 705h155l-46 -292h50l26 163h99l-26 -162l226 291h170l-254 -325q30 -19 50.5 -50.5t36.5 -75.5l92 -254h-159l-68 202q-16 46 -42.5 66.5t-71.5 20.5l-25 -158h-99l26 158h-51l-46 -289h-155z" />
    <glyph glyph-name="uni049D" unicode="&#x49d;" horiz-adv-x="664" 
d="M27 0l78 491h151l-29 -183h43l18 109h95l-18 -109h6l160 183h162l-196 -229q34 -25 58 -78l80 -184h-153l-63 142q-13 29 -28.5 39.5t-40.5 10.5h-4l-18 -117h-95l19 117h-43l-31 -192h-151z" />
    <glyph glyph-name="uni049E" unicode="&#x49e;" horiz-adv-x="755" 
d="M90 0l83 520h-140l17 107h139l13 78h155l-12 -78h114l-17 -107h-114l-16 -106h91l225 291h171l-257 -328q29 -19 48.5 -49.5t34.5 -73.5l92 -254h-159l-69 200q-15 47 -42 66.5t-75 19.5h-81l-46 -286h-155z" />
    <glyph glyph-name="uni049F" unicode="&#x49f;" horiz-adv-x="580" 
d="M29 0l84 538h-85l16 104h86l10 63h151l-10 -63h186l-17 -104h-186l-36 -230h59l159 183h162l-196 -230q35 -25 58 -77l81 -184h-154l-63 142q-12 29 -28 39.5t-41 10.5h-55l-30 -192h-151z" />
    <glyph glyph-name="uni04A0" unicode="&#x4a0;" horiz-adv-x="831" 
d="M168 0l91 578h-200l20 127h356l-47 -291h85l224 291h172l-255 -325q30 -19 50.5 -50.5t36.5 -75.5l92 -254h-159l-69 200q-15 47 -42.5 66.5t-74.5 19.5h-79l-46 -286h-155z" />
    <glyph glyph-name="uni04A1" unicode="&#x4a1;" horiz-adv-x="661" 
d="M111 0l58 373h-141l19 118h293l-29 -183h57l160 183h161l-196 -230q35 -25 58 -77l80 -184h-153l-63 142q-13 29 -28.5 39.5t-40.5 10.5h-54l-30 -192h-151z" />
    <glyph glyph-name="uni04A2" unicode="&#x4a2;" horiz-adv-x="828" 
d="M32 0l112 705h155l-45 -283h327l46 283h155l-93 -582h96l-47 -293h-136l27 170h-114l46 293h-328l-46 -293h-155z" />
    <glyph glyph-name="uni04A3" unicode="&#x4a3;" horiz-adv-x="653" 
d="M448 -130l21 130h-104l30 192h-186l-31 -192h-151l78 491h151l-29 -182h186l29 182h151l-60 -378h82l-39 -243h-128z" />
    <glyph glyph-name="uni04A4" unicode="&#x4a4;" horiz-adv-x="947" 
d="M32 0l112 705h155l-45 -283h327l46 283h388l-20 -128h-234l-91 -577h-155l46 293h-328l-46 -293h-155z" />
    <glyph glyph-name="uni04A5" unicode="&#x4a5;" horiz-adv-x="771" 
d="M27 0l78 491h151l-29 -182h187l29 182h350l-19 -118h-199l-59 -373h-151l30 192h-187l-30 -192h-151z" />
    <glyph glyph-name="uni04A8" unicode="&#x4a8;" horiz-adv-x="862" 
d="M374 -11q-93 0 -162.5 34.5t-108 102.5t-38.5 168q0 123 47 218.5t132.5 149.5t202.5 54q20 0 44.5 -2t37.5 -5l-22 -122q-30 4 -53 4q-71 0 -122.5 -38t-78.5 -103.5t-27 -148.5q0 -103 43.5 -149t124.5 -46h15q-28 35 -43 77t-15 89q0 81 31 144t86 99.5t128 36.5
q57 0 101 -24t68.5 -66.5t24.5 -100.5q0 -75 -30 -140.5t-83 -114.5h4q66 0 139 32l24 -108q-36 -20 -79.5 -30.5t-98.5 -10.5q-73 0 -136 27q-75 -27 -156 -27zM493 259q0 -83 53 -121q102 57 102 209q0 39 -16 62.5t-46 23.5q-43 0 -68 -47.5t-25 -126.5z" />
    <glyph glyph-name="uni04A9" unicode="&#x4a9;" horiz-adv-x="730" 
d="M304 -11q-130 0 -197 62.5t-67 161.5q0 81 35.5 146.5t99.5 103.5t150 38q23 0 46 -3.5t40 -9.5l-28 -103q-8 5 -21.5 6.5t-28.5 1.5q-43 0 -76.5 -22t-52 -60.5t-18.5 -89.5q0 -62 35.5 -96t110.5 -34h2q-19 24 -29.5 52t-10.5 57q0 54 24 94.5t66.5 63t98.5 22.5
q70 0 114.5 -39t44.5 -100q0 -42 -18 -80t-50 -70q67 4 119 31l11 -104q-32 -14 -70 -21.5t-78 -7.5q-31 0 -60 6t-55 17q-66 -23 -137 -23zM410 191q0 -56 38 -80q37 17 57 46.5t20 73.5q0 23 -14 37t-36 14q-30 0 -47.5 -26t-17.5 -65z" />
    <glyph glyph-name="uni04AA" unicode="&#x4aa;" horiz-adv-x="683" 
d="M261 -170l28 173q-100 26 -161 103.5t-61 205.5q0 85 26 158t75.5 128.5t122 86.5t165.5 31q73 0 136 -22.5t100 -58.5l-61 -123q-80 67 -178 67q-72 0 -121.5 -34.5t-74.5 -94t-25 -133.5q0 -100 45.5 -145.5t138.5 -45.5q43 0 87 14.5t90 47.5l41 -122
q-39 -34 -97.5 -53.5t-117.5 -22.5l-25 -160h-133z" />
    <glyph glyph-name="uni04AB" unicode="&#x4ab;" horiz-adv-x="494" 
d="M177 -130l20 130q-78 21 -117 78t-39 138q0 55 17 106t52.5 91.5t89.5 64t128 23.5q49 0 94.5 -13.5t75.5 -37.5l-45 -104q-21 18 -51.5 29t-62.5 11q-53 0 -84.5 -25t-45.5 -63.5t-14 -79.5q0 -51 26.5 -82t86.5 -31q27 0 56.5 10t55.5 29l32 -105q-24 -20 -62 -32.5
t-76 -15.5l-19 -121h-118z" />
    <glyph glyph-name="uni04AC" unicode="&#x4ac;" horiz-adv-x="608" 
d="M279 -170l27 170h-118l91 577h-221l21 128h597l-21 -128h-220l-73 -454h100l-47 -293h-136z" />
    <glyph glyph-name="uni04AD" unicode="&#x4ad;" horiz-adv-x="490" 
d="M214 -130l21 130h-104l59 373h-162l19 118h475l-19 -118h-162l-41 -260h80l-39 -243h-127z" />
    <glyph glyph-name="uni04AE" unicode="&#x4ae;" horiz-adv-x="631" 
d="M199 0l50 318l-210 387h170l132 -250l211 250h184l-331 -386l-51 -319h-155z" />
    <glyph glyph-name="uni04AF" unicode="&#x4af;" horiz-adv-x="540" 
d="M127 -180l33 204l-129 467h151l74 -312l176 312h156l-276 -461l-34 -210h-151z" />
    <glyph glyph-name="uni04B0" unicode="&#x4b0;" horiz-adv-x="631" 
d="M199 0l50 318l-210 387h170l132 -250l211 250h184l-331 -386l-51 -319h-155zM76 258l15 95h481l-15 -95h-481z" />
    <glyph glyph-name="uni04B1" unicode="&#x4b1;" horiz-adv-x="540" 
d="M127 -180l19 120h-129l18 112h117l-121 439h151l74 -312l176 312h156l-263 -439h118l-18 -112h-128l-19 -120h-151z" />
    <glyph glyph-name="uni04B2" unicode="&#x4b2;" horiz-adv-x="729" 
d="M-54 0l322 364l-203 341h170l138 -243l204 243h190l-314 -355l135 -227h117l-46 -293h-136l27 170h-60l-145 251l-210 -251h-189z" />
    <glyph glyph-name="uni04B3" unicode="&#x4b3;" horiz-adv-x="611" 
d="M-44 0l246 255l-155 236h170l87 -141l124 141h179l-229 -243l90 -135h99l-37 -243h-128l21 130h-50l-96 150l-142 -150h-179z" />
    <glyph glyph-name="uni04B4" unicode="&#x4b4;" horiz-adv-x="960" 
d="M737 -170l26 170h-595l91 577h-200l20 128h530l-20 -128h-174l-72 -449h322l91 577h155l-91 -577h100l-47 -298h-136z" />
    <glyph glyph-name="uni04B5" unicode="&#x4b5;" horiz-adv-x="754" 
d="M549 -130l21 130h-460l58 373h-140l19 118h409l-19 -118h-118l-40 -256h205l59 374h151l-59 -374h81l-39 -247h-128z" />
    <glyph glyph-name="uni04B6" unicode="&#x4b6;" horiz-adv-x="757" 
d="M536 -170l27 170h-119l41 262q-27 -12 -64.5 -18.5t-76.5 -6.5q-86 0 -146.5 36.5t-87 105.5t-11.5 164l25 162h155l-25 -162q-15 -93 15.5 -134t107.5 -41q31 0 65.5 6t63.5 20l50 311h155l-92 -582h100l-47 -293h-136z" />
    <glyph glyph-name="uni04B7" unicode="&#x4b7;" horiz-adv-x="620" 
d="M334 0l26 165q-27 -11 -50.5 -16t-50.5 -5q-110 0 -161 55t-34 162l20 130h151l-18 -116q-10 -58 9 -84t74 -26q44 0 76 19l32 207h151l-59 -378h82l-39 -243h-128l21 130h-102z" />
    <glyph glyph-name="uni04B8" unicode="&#x4b8;" horiz-adv-x="709" 
d="M444 0l41 262q-35 -16 -88 -22l-21 -137h-99l22 137q-73 9 -122.5 48t-70.5 103.5t-7 151.5l25 162h155l-25 -162q-12 -73 4.5 -113.5t61.5 -53.5l25 153h98l-25 -158q23 2 45.5 8t42.5 15l50 311h155l-112 -705h-155z" />
    <glyph glyph-name="uni04B9" unicode="&#x4b9;" horiz-adv-x="630" 
d="M375 0l27 168q-29 -11 -58 -16l-15 -94h-95l14 90q-104 9 -152 63t-32 150l20 130h151l-19 -119q-7 -47 6 -71t45 -33l18 112h95l-19 -116q15 2 30 6t28 10l34 211h151l-78 -491h-151z" />
    <glyph glyph-name="uni04BA" unicode="&#x4ba;" horiz-adv-x="708" 
d="M32 0l112 705h155l-42 -262q27 12 65.5 18.5t77.5 6.5q88 0 148.5 -36t86.5 -104.5t11 -165.5l-26 -162h-155l26 162q15 93 -16.5 134t-107.5 41q-31 0 -66 -6t-64 -19l-50 -312h-155z" />
    <glyph glyph-name="uni04BB" unicode="&#x4bb;" horiz-adv-x="611" 
d="M27 0l112 705h151l-44 -282q54 78 161 78q80 0 122.5 -50t25.5 -159l-46 -292h-151l45 289q16 95 -61 95q-51 0 -82 -32.5t-40 -89.5l-42 -262h-151z" />
    <glyph glyph-name="uni04BC" unicode="&#x4bc;" horiz-adv-x="985" 
d="M603 -11q-97 0 -173 37t-121 105t-50 160h-16q-102 0 -155.5 52t-37.5 148l8 52h153l-8 -51q-7 -46 6.5 -62.5t49.5 -16.5h10q16 84 62 153t122 109.5t184 40.5q112 0 188.5 -50.5t109 -138t14.5 -198.5l-6 -38h-522q4 -80 58.5 -125t146.5 -45q64 0 119.5 17t105.5 47
l49 -120q-59 -35 -133 -55.5t-164 -20.5zM631 590q-84 0 -132.5 -49.5t-66.5 -127.5h374q-1 84 -46 130.5t-129 46.5z" />
    <glyph glyph-name="uni04BD" unicode="&#x4bd;" horiz-adv-x="678" 
d="M433 -11q-76 0 -132.5 28t-88.5 78.5t-33 120.5h-20q-83 0 -113 34.5t-18 102.5l6 32h116l-5 -33q-5 -33 4.5 -48.5t38.5 -15.5q14 64 52 112t93.5 74.5t122.5 26.5q82 0 131 -35.5t68 -95t10 -131.5l-4 -26h-341q-1 -52 32.5 -81.5t95.5 -29.5q42 0 81.5 12t69.5 35
l34 -99q-36 -28 -89 -44.5t-111 -16.5zM454 401q-54 0 -83.5 -32.5t-39.5 -77.5h218q3 47 -19.5 78.5t-75.5 31.5z" />
    <glyph glyph-name="uni04BE" unicode="&#x4be;" horiz-adv-x="985" 
d="M603 -11q-97 0 -173 37t-121 105t-50 160h-16q-102 0 -155.5 52t-37.5 148l8 52h153l-8 -51q-7 -46 6.5 -62.5t49.5 -16.5h10q16 84 62 153t122 109.5t184 40.5q112 0 188.5 -50.5t109 -138t14.5 -198.5l-6 -38h-522q4 -80 58.5 -125t146.5 -45q64 0 119.5 17t105.5 47
l49 -120q-59 -35 -133 -55.5t-164 -20.5zM631 590q-84 0 -132.5 -49.5t-66.5 -127.5h374q-1 84 -46 130.5t-129 46.5zM611 -197q-54 0 -82.5 26.5t-28.5 70.5q0 49 33 88t83 57l38 -45q-34 -13 -48.5 -34t-14.5 -41t14 -32.5t36 -12.5q14 0 26.5 3t27.5 8l11 -71
q-27 -8 -48.5 -12.5t-46.5 -4.5z" />
    <glyph glyph-name="uni04BF" unicode="&#x4bf;" horiz-adv-x="678" 
d="M433 -11q-76 0 -132.5 28t-88.5 78.5t-33 120.5h-20q-83 0 -113 34.5t-18 102.5l6 32h116l-5 -33q-5 -33 4.5 -48.5t38.5 -15.5q14 64 52 112t93.5 74.5t122.5 26.5q82 0 131 -35.5t68 -95t10 -131.5l-4 -26h-341q-1 -52 32.5 -81.5t95.5 -29.5q42 0 81.5 12t69.5 35
l34 -99q-36 -28 -89 -44.5t-111 -16.5zM454 401q-54 0 -83.5 -32.5t-39.5 -77.5h218q3 47 -19.5 78.5t-75.5 31.5zM455 -197q-54 0 -82.5 26.5t-28.5 70.5q0 49 33 88t83 57l38 -45q-34 -13 -48.5 -34t-14.5 -41t14 -32.5t36 -12.5q14 0 26.5 3t27.5 8l11 -71
q-27 -8 -48.5 -12.5t-46.5 -4.5z" />
    <glyph glyph-name="uni04C0" unicode="&#x4c0;" horiz-adv-x="297" 
d="M32 0l112 705h155l-112 -705h-155z" />
    <glyph glyph-name="uni04C1" unicode="&#x4c1;" horiz-adv-x="1041" 
d="M-40 0l160 254q63 101 150 136l-153 315h162l133 -291h61l46 291h149l-46 -291h61l224 291h174l-260 -323q31 -19 52 -51t38 -77l92 -254h-159l-69 200q-16 47 -43 66.5t-74 19.5h-56l-46 -286h-148l45 286h-55q-48 0 -81.5 -20t-61.5 -66l-126 -200h-169zM598 760
q-86 0 -133 40.5t-60 104.5l76 24q15 -47 44 -68t80 -21t83.5 22t54.5 66l69 -23q-24 -68 -80 -106.5t-134 -38.5z" />
    <glyph glyph-name="uni04C2" unicode="&#x4c2;" horiz-adv-x="852" 
d="M-48 0l128 190q45 63 93 86l-117 215h153l102 -183h49l29 183h151l-29 -183h48l160 183h161l-196 -229q19 -14 33 -34t25 -44l80 -184h-153l-63 142q-13 29 -28.5 39.5t-40.5 10.5h-44l-30 -192h-151l30 192h-42q-27 0 -45.5 -10.5t-40.5 -39.5l-101 -142h-161zM479 552
q-81 0 -125 41.5t-54 102.5l73 24q13 -46 40.5 -67t72.5 -21t72.5 22t47.5 65l71 -23q-22 -68 -74 -106t-124 -38z" />
    <glyph glyph-name="uni04C3" unicode="&#x4c3;" horiz-adv-x="718" 
d="M384 -191q-85 0 -129 21l24 114q37 -13 81 -13q49 0 82 33t42 95l10 56q15 93 -24 136t-122 43h-115l-46 -294h-155l112 705h155l-45 -283h99l218 283h171l-239 -304q82 -28 123.5 -96.5t22.5 -183.5l-10 -62q-21 -124 -86.5 -187t-168.5 -63z" />
    <glyph glyph-name="uni04C4" unicode="&#x4c4;" horiz-adv-x="588" 
d="M293 -187l-48 109q43 12 68 29t37.5 43t19.5 66l3 23q9 57 -16 83t-80 26h-68l-31 -192h-151l78 491h151l-29 -183h58l160 183h161l-177 -207q50 -21 79 -70t17 -125l-4 -27q-10 -60 -31 -108t-67 -83.5t-130 -57.5z" />
    <glyph glyph-name="uni04C5" unicode="&#x4c5;" horiz-adv-x="788" 
d="M498 -170l85 170h-90l92 577h-219l-22 -141q-21 -129 -58 -217.5t-93.5 -145.5t-135.5 -91l-67 113q44 23 77.5 51.5t59.5 71t45.5 105.5t34.5 153l37 229h517l-93 -582h108l-145 -293h-133z" />
    <glyph glyph-name="uni04C6" unicode="&#x4c6;" horiz-adv-x="643" 
d="M26 -15l-32 120q63 15 96 64.5t49 154.5l27 167h417l-60 -378h92l-120 -243h-126l64 130h-79l60 374h-129l-10 -62q-18 -108 -46.5 -176t-76.5 -103.5t-126 -47.5z" />
    <glyph glyph-name="uni04C7" unicode="&#x4c7;" horiz-adv-x="780" 
d="M395 -193l-10 108l49 5q37 4 55.5 22.5t24.5 55.5l47 295h-328l-46 -293h-155l112 705h155l-45 -283h327l46 283h155l-110 -688q-11 -70 -36 -114t-71.5 -66t-123.5 -27z" />
    <glyph glyph-name="uni04C8" unicode="&#x4c8;" horiz-adv-x="620" 
d="M245 -193l-10 108l49 5q37 3 55.5 22t24.5 56l31 194h-186l-31 -192h-151l78 491h151l-29 -182h186l29 182h151l-75 -474q-11 -70 -36 -114t-71 -66t-120 -27z" />
    <glyph glyph-name="uni04C9" unicode="&#x4c9;" horiz-adv-x="810" 
d="M32 0l112 705h155l-45 -283h327l46 283h155l-93 -582h103l-145 -293h-133l85 170h-84l46 293h-328l-46 -293h-155z" />
    <glyph glyph-name="uni04CA" unicode="&#x4ca;" horiz-adv-x="653" 
d="M27 0l78 491h151l-29 -182h186l29 182h151l-60 -378h92l-120 -243h-126l64 130h-78l30 192h-186l-31 -192h-151z" />
    <glyph glyph-name="uni04CB" unicode="&#x4cb;" horiz-adv-x="730" 
d="M457 -170h-139l46 293h99l22 139q-27 -12 -64.5 -18.5t-76.5 -6.5q-86 0 -146.5 36.5t-87 105.5t-11.5 164l25 162h155l-25 -162q-15 -93 15.5 -134t107.5 -41q31 0 65.5 6t63.5 20l50 311h155l-112 -705h-115z" />
    <glyph glyph-name="uni04CC" unicode="&#x4cc;" horiz-adv-x="621" 
d="M360 -130h-127l32 206h81l14 89q-27 -11 -50.5 -16t-50.5 -5q-110 0 -161 55t-34 162l20 130h151l-18 -116q-10 -58 9 -84t74 -26q44 0 76 19l32 207h151l-77 -491h-102z" />
    <glyph glyph-name="uni04CD" unicode="&#x4cd;" horiz-adv-x="906" 
d="M620 -170l85 170h-81l68 431l-231 -325h-86l-133 321l-68 -427h-140l112 705h123l167 -436l307 436h133l-92 -582h114l-145 -293h-133z" />
    <glyph glyph-name="uni04CE" unicode="&#x4ce;" horiz-adv-x="733" 
d="M27 0l78 491h116l120 -268l202 268h131l-60 -378h99l-120 -243h-126l64 130h-68l43 272l-143 -191h-69l-91 196l-43 -277h-133z" />
    <glyph glyph-name="uni04CF" unicode="&#x4cf;" horiz-adv-x="283" 
d="M27 0l112 705h151l-112 -705h-151z" />
    <glyph glyph-name="uni04D0" unicode="&#x4d0;" horiz-adv-x="753" 
d="M-49 0l437 705h125l211 -705h-148l-40 153h-332l-90 -153h-163zM431 540l-156 -266h228l-70 266h-2zM453 760q-86 0 -133 40.5t-60 104.5l76 24q15 -47 44 -68t80 -21t83.5 22t54.5 66l69 -23q-24 -68 -80 -106.5t-134 -38.5z" />
    <glyph glyph-name="uni04D1" unicode="&#x4d1;" horiz-adv-x="573" 
d="M197 -11q-46 0 -84 21.5t-60 56.5t-22 76q0 78 66.5 113.5t208.5 35.5h68l2 13q7 41 -14.5 63t-72.5 22q-88 0 -170 -49l-31 102q39 26 99.5 42t122.5 16q84 0 132 -31t65 -83.5t6 -117.5l-42 -269h-141l11 72q-24 -43 -62 -63t-82 -20zM248 90q43 0 72.5 26.5t36.5 71.5
l5 26h-53q-73 0 -103 -13.5t-30 -47.5q0 -30 20.5 -46.5t51.5 -16.5zM336 552q-81 0 -125 41.5t-54 102.5l73 24q13 -46 40.5 -67t72.5 -21t72.5 22t47.5 65l71 -23q-22 -68 -74 -106t-124 -38z" />
    <glyph glyph-name="uni04D2" unicode="&#x4d2;" horiz-adv-x="753" 
d="M-49 0l437 705h125l211 -705h-148l-40 153h-332l-90 -153h-163zM431 540l-156 -266h228l-70 266h-2zM492 781l22 132h131l-21 -132h-132zM296 781l20 132h132l-21 -132h-131z" />
    <glyph glyph-name="uni04D3" unicode="&#x4d3;" horiz-adv-x="573" 
d="M197 -11q-46 0 -84 21.5t-60 56.5t-22 76q0 78 66.5 113.5t208.5 35.5h68l2 13q7 41 -14.5 63t-72.5 22q-88 0 -170 -49l-31 102q39 26 99.5 42t122.5 16q84 0 132 -31t65 -83.5t6 -117.5l-42 -269h-141l11 72q-24 -43 -62 -63t-82 -20zM248 90q43 0 72.5 26.5t36.5 71.5
l5 26h-53q-73 0 -103 -13.5t-30 -47.5q0 -30 20.5 -46.5t51.5 -16.5zM372 590l19 132h132l-20 -132h-131zM174 590l21 132h131l-20 -132h-132z" />
    <glyph glyph-name="uni04D4" unicode="&#x4d4;" horiz-adv-x="1000" 
d="M-87 0l555 705h552l-19 -121h-383l10 -165h325l-19 -122h-299l10 -176h283l-19 -121h-391l-9 153h-311l-115 -153h-170zM485 535l-197 -261h214l-15 261h-2z" />
    <glyph glyph-name="uni04D5" unicode="&#x4d5;" horiz-adv-x="883" 
d="M226 -11q-51 0 -95.5 17t-72 51.5t-27.5 85.5q0 78 66.5 113.5t208.5 35.5h66l2 11q6 42 -14 63.5t-71 21.5q-44 0 -86.5 -12t-81.5 -36l-33 103q39 26 99.5 42t122.5 16q112 0 157 -68q67 68 170 68q81 0 130.5 -35t69 -93.5t8.5 -129.5l-4 -29h-337q-1 -53 31.5 -82.5
t92.5 -29.5q91 0 152 47l34 -99q-37 -28 -90 -44.5t-112 -16.5q-72 0 -123.5 26.5t-77.5 74.5q-27 -52 -77 -76.5t-108 -24.5zM635 400q-52 0 -81 -32t-39 -76h212q3 46 -18.5 77t-73.5 31zM247 93q43 0 71.5 24t36.5 69l4 28h-49q-73 0 -103.5 -14.5t-30.5 -48.5
q0 -26 20 -42t51 -16z" />
    <glyph glyph-name="uni04D6" unicode="&#x4d6;" horiz-adv-x="605" 
d="M33 0l111 705h483l-19 -121h-335l-26 -165h313l-19 -122h-313l-28 -176h334l-19 -121h-482zM407 760q-86 0 -133 40.5t-60 104.5l76 24q15 -47 44 -68t80 -21t83.5 22t54.5 66l69 -23q-24 -68 -80 -106.5t-134 -38.5z" />
    <glyph glyph-name="uni04D7" unicode="&#x4d7;" horiz-adv-x="565" 
d="M294 -11q-77 0 -134 28.5t-88 79t-31 118.5q0 84 35.5 148.5t98 101t142.5 36.5q82 0 131 -35.5t68 -95t10 -131.5l-4 -26h-341q1 -53 34 -82t94 -29q42 0 81.5 12t70.5 35l33 -99q-36 -28 -89 -44.5t-111 -16.5zM316 401q-54 0 -84 -32.5t-40 -77.5h218q3 47 -19.5 78.5
t-74.5 31.5zM354 552q-81 0 -125 41.5t-54 102.5l73 24q13 -46 40.5 -67t72.5 -21t72.5 22t47.5 65l71 -23q-22 -68 -74 -106t-124 -38z" />
    <glyph glyph-name="uni04D8" unicode="&#x4d8;" horiz-adv-x="796" 
d="M383 -11q-112 0 -188 51t-109 138.5t-15 197.5l6 38h524q-4 80 -56.5 125t-145.5 45q-132 0 -233 -67l-48 120q58 37 135 58t169 21q101 0 178 -39.5t120 -111.5t43 -170q0 -80 -23 -152.5t-69.5 -129.5t-118.5 -90.5t-169 -33.5zM390 115q83 0 132 50t68 127h-369
q0 -84 42.5 -130.5t126.5 -46.5z" />
    <glyph glyph-name="uni04D9" unicode="&#x4d9;" horiz-adv-x="565" 
d="M249 -11q-82 0 -132 35t-69.5 94t-8.5 131l4 29h340q1 52 -30.5 81t-92.5 29q-90 0 -154 -50l-34 103q36 29 90.5 44.5t112.5 15.5q76 0 132 -28t87 -78.5t31 -118.5q0 -84 -36 -148.5t-98.5 -101.5t-141.5 -37zM252 89q53 0 81.5 32.5t38.5 78.5h-207q-4 -48 18 -79.5
t69 -31.5z" />
    <glyph glyph-name="uni04DA" unicode="&#x4da;" horiz-adv-x="796" 
d="M383 -11q-112 0 -188 51t-109 138.5t-15 197.5l6 38h524q-4 80 -56.5 125t-145.5 45q-132 0 -233 -67l-48 120q58 37 135 58t169 21q101 0 178 -39.5t120 -111.5t43 -170q0 -80 -23 -152.5t-69.5 -129.5t-118.5 -90.5t-169 -33.5zM390 115q83 0 132 50t68 127h-369
q0 -84 42.5 -130.5t126.5 -46.5zM463 781l22 132h131l-21 -132h-132zM267 781l20 132h132l-21 -132h-131z" />
    <glyph glyph-name="uni04DB" unicode="&#x4db;" horiz-adv-x="565" 
d="M249 -11q-82 0 -132 35t-69.5 94t-8.5 131l4 29h340q1 52 -30.5 81t-92.5 29q-90 0 -154 -50l-34 103q36 29 90.5 44.5t112.5 15.5q76 0 132 -28t87 -78.5t31 -118.5q0 -84 -36 -148.5t-98.5 -101.5t-141.5 -37zM252 89q53 0 81.5 32.5t38.5 78.5h-207q-4 -48 18 -79.5
t69 -31.5zM349 590l19 132h132l-20 -132h-131zM151 590l21 132h131l-20 -132h-132z" />
    <glyph glyph-name="uni04DC" unicode="&#x4dc;" horiz-adv-x="1041" 
d="M-40 0l160 254q63 101 150 136l-153 315h162l133 -291h61l46 291h149l-46 -291h61l224 291h174l-260 -323q31 -19 52 -51t38 -77l92 -254h-159l-69 200q-16 47 -43 66.5t-74 19.5h-56l-46 -286h-148l45 286h-55q-48 0 -81.5 -20t-61.5 -66l-126 -200h-169zM637 781
l22 132h131l-21 -132h-132zM441 781l20 132h132l-21 -132h-131z" />
    <glyph glyph-name="uni04DD" unicode="&#x4dd;" horiz-adv-x="852" 
d="M-48 0l128 190q45 63 93 86l-117 215h153l102 -183h49l29 183h151l-29 -183h48l160 183h161l-196 -229q19 -14 33 -34t25 -44l80 -184h-153l-63 142q-13 29 -28.5 39.5t-40.5 10.5h-44l-30 -192h-151l30 192h-42q-27 0 -45.5 -10.5t-40.5 -39.5l-101 -142h-161zM515 590
l19 132h132l-20 -132h-131zM317 590l21 132h131l-20 -132h-132z" />
    <glyph glyph-name="uni04DE" unicode="&#x4de;" horiz-adv-x="631" 
d="M291 -11q-75 0 -146.5 21t-130.5 67l56 111q46 -38 102.5 -53.5t114.5 -15.5q35 0 66.5 9.5t52 31.5t20.5 58q0 79 -101 79h-171l19 121h162q56 0 90 23t34 69q0 41 -29 59t-84 18q-116 0 -209 -62l-47 114q58 37 130 57t146 20q76 0 131 -23.5t84 -63.5t29 -91
q0 -67 -38.5 -113t-101.5 -64q51 -18 79 -58t28 -94q0 -106 -77.5 -163t-208.5 -57zM420 781l22 132h131l-21 -132h-132zM224 781l20 132h132l-21 -132h-131z" />
    <glyph glyph-name="uni04DF" unicode="&#x4df;" horiz-adv-x="532" 
d="M219 -11q-68 0 -123 16.5t-90 44.5l47 92q31 -22 78.5 -34.5t98.5 -12.5q56 0 86.5 12t30.5 45q0 43 -63 43h-138l16 105h126q71 0 71 51q0 21 -21.5 32.5t-74.5 11.5q-89 0 -174 -44l-31 96q46 25 106.5 39.5t133.5 14.5q93 0 145.5 -33t52.5 -88q0 -46 -25.5 -78.5
t-66.5 -46.5q38 -11 58.5 -39t20.5 -67q0 -80 -72 -120t-192 -40zM336 590l19 132h132l-20 -132h-131zM138 590l21 132h131l-20 -132h-132z" />
    <glyph glyph-name="uni04E0" unicode="&#x4e0;" horiz-adv-x="631" 
d="M296 -11q-79 0 -150.5 21t-130.5 67l56 110q46 -37 102.5 -53t117.5 -16q35 0 66.5 10t51.5 32t20 58q0 40 -25.5 59.5t-81.5 19.5h-148l16 94l220 187h-329l20 127h522l-17 -107l-218 -183q66 -4 108 -30.5t62.5 -67t20.5 -88.5q0 -70 -34.5 -124.5t-98 -85
t-150.5 -30.5z" />
    <glyph glyph-name="uni04E1" unicode="&#x4e1;" horiz-adv-x="529" 
d="M197 -191q-73 0 -137.5 18t-112.5 53l54 99q35 -29 79.5 -42.5t101.5 -13.5q63 0 98.5 29t35.5 84q0 39 -30 63.5t-93 24.5h-93l11 70l209 182h-274l18 115h441l-16 -101l-196 -167q56 -5 94.5 -30t58.5 -63.5t20 -83.5q0 -66 -31 -119.5t-91 -85.5t-147 -32z" />
    <glyph glyph-name="uni04E2" unicode="&#x4e2;" horiz-adv-x="753" 
d="M32 0l112 705h144l-70 -443l422 443h115l-112 -705h-144l70 445l-423 -445h-114zM283 801l13 85h356l-13 -85h-356z" />
    <glyph glyph-name="uni04E3" unicode="&#x4e3;" horiz-adv-x="616" 
d="M27 0l78 491h136l-46 -292l270 292h124l-78 -491h-136l47 293l-270 -293h-125zM199 611l13 85h326l-13 -85h-326z" />
    <glyph glyph-name="uni04E4" unicode="&#x4e4;" horiz-adv-x="753" 
d="M32 0l112 705h144l-70 -443l422 443h115l-112 -705h-144l70 445l-423 -445h-114zM490 781l22 132h131l-21 -132h-132zM294 781l20 132h132l-21 -132h-131z" />
    <glyph glyph-name="uni04E5" unicode="&#x4e5;" horiz-adv-x="616" 
d="M27 0l78 491h136l-46 -292l270 292h124l-78 -491h-136l47 293l-270 -293h-125zM392 590l19 132h132l-20 -132h-131zM194 590l21 132h131l-20 -132h-132z" />
    <glyph glyph-name="uni04E6" unicode="&#x4e6;" horiz-adv-x="796" 
d="M388 -11q-97 0 -169.5 37t-112.5 107t-40 169q0 121 46.5 214.5t130.5 146.5t199 53q98 0 170.5 -37t112 -107t39.5 -168q0 -122 -46 -215.5t-130.5 -146.5t-199.5 -53zM391 121q67 0 114.5 36t72.5 99t25 145q0 93 -44 138t-120 45q-67 0 -114 -35.5t-72 -98.5t-25 -146
q0 -93 43.5 -138t119.5 -45zM501 781l22 132h131l-21 -132h-132zM305 781l20 132h132l-21 -132h-131z" />
    <glyph glyph-name="uni04E7" unicode="&#x4e7;" horiz-adv-x="604" 
d="M282 -11q-114 0 -177.5 61.5t-63.5 164.5q0 91 39 155t103.5 97.5t138.5 33.5q114 0 178 -61.5t64 -163.5q0 -92 -39.5 -156t-103.5 -97.5t-139 -33.5zM286 102q59 0 92.5 51t33.5 128q0 52 -25 79.5t-68 27.5q-60 0 -93 -51t-33 -127q0 -52 24.5 -80t68.5 -28zM392 590
l19 132h132l-20 -132h-131zM194 590l21 132h131l-20 -132h-132z" />
    <glyph glyph-name="uni04E8" unicode="&#x4e8;" horiz-adv-x="796" 
d="M388 -11q-97 0 -169.5 37t-112.5 107t-40 169q0 121 46.5 214.5t130.5 146.5t199 53q98 0 170.5 -37t112 -107t39.5 -168q0 -122 -46 -215.5t-130.5 -146.5t-199.5 -53zM439 584q-76 0 -126.5 -46t-70.5 -123h360q-3 86 -46.5 127.5t-116.5 41.5zM391 121q78 0 129.5 49
t71.5 131h-364q1 -91 44.5 -135.5t118.5 -44.5z" />
    <glyph glyph-name="uni04E9" unicode="&#x4e9;" horiz-adv-x="604" 
d="M282 -11q-114 0 -177.5 62t-63.5 164q0 92 39 156t103.5 97t138.5 33q114 0 178 -61.5t64 -163.5q0 -92 -39.5 -156t-103.5 -97.5t-139 -33.5zM315 398q-46 0 -78.5 -28t-47.5 -76h237q-6 104 -111 104zM288 93q46 0 79 28t48 77h-237q5 -105 110 -105z" />
    <glyph glyph-name="uni04EA" unicode="&#x4ea;" horiz-adv-x="796" 
d="M388 -11q-97 0 -169.5 37t-112.5 107t-40 169q0 121 46.5 214.5t130.5 146.5t199 53q98 0 170.5 -37t112 -107t39.5 -168q0 -122 -46 -215.5t-130.5 -146.5t-199.5 -53zM439 584q-76 0 -126.5 -46t-70.5 -123h360q-3 86 -46.5 127.5t-116.5 41.5zM391 121q78 0 129.5 49
t71.5 131h-364q1 -91 44.5 -135.5t118.5 -44.5zM501 781l22 132h131l-21 -132h-132zM305 781l20 132h132l-21 -132h-131z" />
    <glyph glyph-name="uni04EB" unicode="&#x4eb;" horiz-adv-x="604" 
d="M282 -11q-114 0 -177.5 62t-63.5 164q0 92 39 156t103.5 97t138.5 33q114 0 178 -61.5t64 -163.5q0 -92 -39.5 -156t-103.5 -97.5t-139 -33.5zM315 398q-46 0 -78.5 -28t-47.5 -76h237q-6 104 -111 104zM288 93q46 0 79 28t48 77h-237q5 -105 110 -105zM392 590l19 132
h132l-20 -132h-131zM194 590l21 132h131l-20 -132h-132z" />
    <glyph glyph-name="uni04EC" unicode="&#x4ec;" horiz-adv-x="683" 
d="M261 -11q-72 0 -135 23t-100 58l60 123q80 -67 178 -67q88 0 141 48t72 124h-299l19 122h289q-6 76 -47 117.5t-133 41.5q-44 0 -89.5 -14.5t-91.5 -47.5l-42 123q29 24 69 41t84.5 26t87.5 9q95 0 168.5 -36t115.5 -107.5t42 -179.5q0 -85 -26 -158t-75.5 -128.5
t-121.5 -86.5t-166 -31zM425 781l22 132h131l-21 -132h-132zM229 781l20 132h132l-21 -132h-131z" />
    <glyph glyph-name="uni04ED" unicode="&#x4ed;" horiz-adv-x="523" 
d="M179 -11q-53 0 -101 16t-79 42l43 92q25 -19 63.5 -31.5t77.5 -12.5q63 0 99.5 29.5t50.5 71.5h-223l17 103h218q-7 44 -38 70.5t-94 26.5q-32 0 -69 -11t-68 -32l-32 96q31 23 81.5 37.5t96.5 14.5q130 0 195 -62t65 -164q0 -55 -18.5 -106.5t-56 -91.5t-94.5 -64
t-134 -24zM309 590l19 132h132l-20 -132h-131zM111 590l21 132h131l-20 -132h-132z" />
    <glyph glyph-name="uni04EE" unicode="&#x4ee;" horiz-adv-x="670" 
d="M125 0l146 221l-220 484h157l154 -348l232 348h167l-469 -705h-167zM234 801l13 85h356l-13 -85h-356z" />
    <glyph glyph-name="uni04EF" unicode="&#x4ef;" horiz-adv-x="549" 
d="M36 -180l128 207l-129 464h152l73 -312l177 312h156l-403 -671h-154zM156 611l13 85h326l-13 -85h-326z" />
    <glyph glyph-name="uni04F0" unicode="&#x4f0;" horiz-adv-x="670" 
d="M125 0l146 221l-220 484h157l154 -348l232 348h167l-469 -705h-167zM441 781l22 132h131l-21 -132h-132zM245 781l20 132h132l-21 -132h-131z" />
    <glyph glyph-name="uni04F1" unicode="&#x4f1;" horiz-adv-x="549" 
d="M36 -180l128 207l-129 464h152l73 -312l177 312h156l-403 -671h-154zM349 590l19 132h132l-20 -132h-131zM151 590l21 132h131l-20 -132h-132z" />
    <glyph glyph-name="uni04F2" unicode="&#x4f2;" horiz-adv-x="670" 
d="M125 0l146 221l-220 484h157l154 -348l232 348h167l-469 -705h-167zM286 765l100 175h131l-147 -175h-84zM444 765l113 175h131l-159 -175h-85z" />
    <glyph glyph-name="uni04F3" unicode="&#x4f3;" horiz-adv-x="549" 
d="M36 -180l128 207l-129 464h152l73 -312l177 312h156l-403 -671h-154zM349 555l64 205h123l-109 -205h-78zM187 555l66 205h123l-110 -205h-79z" />
    <glyph glyph-name="uni04F4" unicode="&#x4f4;" horiz-adv-x="709" 
d="M444 0l41 262q-27 -12 -64.5 -18.5t-76.5 -6.5q-86 0 -146.5 36.5t-87 105.5t-11.5 164l25 162h155l-25 -162q-15 -93 15.5 -134t107.5 -41q31 0 65.5 6t63.5 20l50 311h155l-112 -705h-155zM456 781l22 132h131l-21 -132h-132zM260 781l20 132h132l-21 -132h-131z" />
    <glyph glyph-name="uni04F5" unicode="&#x4f5;" horiz-adv-x="587" 
d="M334 0l26 165q-27 -11 -50.5 -16t-50.5 -5q-110 0 -161 55t-34 162l20 130h151l-18 -116q-10 -58 9 -84t74 -26q44 0 76 19l32 207h151l-77 -491h-148zM372 590l19 132h132l-20 -132h-131zM174 590l21 132h131l-20 -132h-132z" />
    <glyph glyph-name="uni04F6" unicode="&#x4f6;" horiz-adv-x="569" 
d="M32 0l112 705h481l-20 -128h-326l-72 -454h100l-47 -293h-136l27 170h-119z" />
    <glyph glyph-name="uni04F7" unicode="&#x4f7;" horiz-adv-x="470" 
d="M27 0l78 491h387l-18 -118h-236l-42 -260h83l-39 -243h-127l21 130h-107z" />
    <glyph glyph-name="uni04F8" unicode="&#x4f8;" horiz-adv-x="928" 
d="M32 0l112 705h155l-45 -284h119q122 0 182.5 -54t60.5 -137q0 -112 -70.5 -171t-207.5 -59h-306zM663 0l112 705h156l-112 -705h-156zM206 120h135q127 0 127 101q0 41 -27 60.5t-89 19.5h-117zM575 781l22 132h131l-21 -132h-132zM379 781l20 132h132l-21 -132h-131z
" />
    <glyph glyph-name="uni04F9" unicode="&#x4f9;" horiz-adv-x="803" 
d="M27 0l78 491h151l-25 -156h116q87 0 132 -41.5t45 -108.5q0 -60 -29 -101.5t-78.5 -62.5t-112.5 -21h-277zM547 0l78 491h151l-78 -491h-151zM194 97h94q46 0 71.5 19t25.5 59q0 64 -79 64h-90zM489 590l19 132h132l-20 -132h-131zM291 590l21 132h131l-20 -132h-132z
" />
    <glyph glyph-name="uni04FA" unicode="&#x4fa;" horiz-adv-x="614" 
d="M37 -186l-9 102l59 4q94 9 105 80h-115l47 289h-94l18 111h93l48 305h482l-21 -128h-326l-28 -177h177l-17 -111h-177l-26 -166h100l-14 -93q-16 -101 -67.5 -152.5t-158.5 -58.5z" />
    <glyph glyph-name="uni04FB" unicode="&#x4fb;" horiz-adv-x="496" 
d="M18 -186l-5 102l65 5q33 3 47.5 24.5t20.5 54.5h-93l28 177h-87l16 101h88l33 213h387l-18 -118h-237l-14 -95h136l-16 -101h-137l-12 -76h76l-11 -72q-16 -102 -64 -153t-129 -57z" />
    <glyph glyph-name="uni04FC" unicode="&#x4fc;" horiz-adv-x="685" 
d="M377 -188l-28 123q54 5 82 24.5t28 61.5q0 15 -6.5 34.5t-21.5 46.5l-86 149l-210 -251h-189l322 364l-203 341h170l138 -243l204 243h190l-314 -355l111 -187q26 -43 36 -79.5t10 -66.5q0 -99 -60 -146t-173 -59z" />
    <glyph glyph-name="uni04FD" unicode="&#x4fd;" horiz-adv-x="575" 
d="M297 -188l-22 105q42 3 66 18t24 51q0 27 -34 80l-54 84l-142 -150h-179l246 255l-155 236h170l86 -141l125 141h178l-228 -243l81 -122q28 -41 40 -75.5t12 -66.5q0 -86 -55 -124.5t-159 -47.5z" />
    <glyph glyph-name="uni04FE" unicode="&#x4fe;" horiz-adv-x="685" 
d="M-54 0l322 364l-203 341h170l138 -243l204 243h190l-314 -355l209 -350h-172l-145 251l-210 -251h-189zM113 316l15 95h481l-15 -95h-481z" />
    <glyph glyph-name="uni04FF" unicode="&#x4ff;" horiz-adv-x="575" 
d="M-44 0l246 255l-155 236h170l87 -141l124 141h179l-229 -243l165 -248h-170l-96 150l-142 -150h-179zM39 199l15 95h481l-15 -95h-481z" />
    <glyph glyph-name="uni0510" unicode="&#x510;" horiz-adv-x="631" 
d="M296 -11q-140 0 -204 55t-55 144q6 66 45.5 112.5t105.5 65.5q-44 19 -65.5 57.5t-16.5 91.5q6 59 43.5 104.5t102 71t151.5 25.5q81 0 143 -22t103 -59l-63 -114q-72 66 -190 66q-67 0 -102.5 -26t-38.5 -68q-3 -39 22 -57t80 -18h152l-19 -121h-170q-124 0 -129 -91
q-7 -88 135 -88q71 0 126.5 17.5t98.5 47.5l29 -119q-54 -34 -125.5 -54.5t-158.5 -20.5z" />
    <glyph glyph-name="uni0511" unicode="&#x511;" horiz-adv-x="532" 
d="M232 -11q-107 0 -162.5 35t-55.5 94q0 57 31 91.5t83 46.5q-30 14 -47 40.5t-17 57.5q0 51 34 83.5t90.5 48t123.5 15.5q63 0 119.5 -14.5t90.5 -38.5l-48 -94q-30 19 -70 30t-89 11q-60 0 -87.5 -13.5t-27.5 -42.5q0 -39 60 -39h123l-16 -105h-136q-37 0 -58.5 -13.5
t-21.5 -42.5q0 -44 98 -44q52 0 106.5 11.5t94.5 34.5l24 -96q-50 -29 -112 -42.5t-130 -13.5z" />
    <glyph glyph-name="uni0512" unicode="&#x512;" horiz-adv-x="758" 
d="M370 -193l-10 108l49 5q73 8 84 78l92 579h-219l-22 -141q-21 -129 -58 -217.5t-92.5 -145.5t-133.5 -91l-70 113q44 23 77.5 51.5t59.5 71t45.5 105.5t34.5 153l37 229h517l-110 -688q-11 -70 -38 -114t-75 -66t-122 -27z" />
    <glyph glyph-name="uni0513" unicode="&#x513;" horiz-adv-x="610" 
d="M236 -193l-10 108l49 5q37 4 55.5 22.5t24.5 55.5l59 376h-129l-10 -62q-18 -108 -46.5 -176t-76.5 -103.5t-126 -47.5l-32 120q63 15 96 64.5t49 154.5l27 167h417l-77 -485q-10 -65 -34.5 -106.5t-70 -63t-120.5 -26.5z" />
    <glyph glyph-name="uni051A" unicode="&#x51a;" horiz-adv-x="796" 
d="M544 -220l-76 160q-12 27 -32.5 38t-62.5 11l1 1q-93 2 -162.5 40t-107.5 106.5t-38 165.5q0 121 46.5 214.5t130.5 146.5t199 53q98 0 170.5 -37t112 -107t39.5 -168q0 -134 -55.5 -233.5t-154.5 -146.5q39 -15 61 -61l62 -134zM391 121q67 0 114.5 36t72.5 99t25 145
q0 93 -44 138t-120 45q-67 0 -114 -35.5t-72 -98.5t-25 -146q0 -93 43.5 -138t119.5 -45z" />
    <glyph glyph-name="uni051B" unicode="&#x51b;" horiz-adv-x="626" 
d="M341 -180l40 248q-28 -37 -68.5 -58t-89.5 -21q-83 0 -133 57.5t-50 155.5q0 85 30 152.5t85.5 107t130.5 39.5q53 0 93.5 -23t59.5 -68l12 81h148l-107 -671h-151zM284 102q60 0 93 51t33 128q0 52 -24.5 79.5t-67.5 27.5q-60 0 -93 -51t-33 -127q0 -52 24.5 -80
t67.5 -28z" />
    <glyph glyph-name="uni051C" unicode="&#x51c;" horiz-adv-x="1120" 
d="M229 0l-140 705h150l86 -483l248 483h113l88 -487l244 487h159l-364 -705h-126l-91 467l-241 -467h-126z" />
    <glyph glyph-name="uni051D" unicode="&#x51d;" horiz-adv-x="876" 
d="M166 0l-122 491h144l67 -312l166 312h99l68 -320l169 320h154l-277 -491h-128l-64 279l-150 -279h-126z" />
    <glyph glyph-name="uni0524" unicode="&#x524;" horiz-adv-x="821" 
d="M600 -170l27 170h-119l92 577h-321l-92 -577h-155l112 705h631l-92 -582h100l-47 -293h-136z" />
    <glyph glyph-name="uni0525" unicode="&#x525;" horiz-adv-x="650" 
d="M449 -130l21 130h-108l59 374h-183l-60 -374h-151l78 491h485l-60 -378h86l-39 -243h-128z" />
    <glyph glyph-name="uni0526" unicode="&#x526;" horiz-adv-x="757" 
d="M557 -170l27 170h-119l26 162q15 93 -16.5 134t-107.5 41q-31 0 -66 -6t-64 -19l-50 -312h-155l112 705h155l-42 -262q27 12 65.5 18.5t77.5 6.5q88 0 148.5 -36t86.5 -104.5t11 -165.5l-7 -39h101l-47 -293h-136z" />
    <glyph glyph-name="uni0527" unicode="&#x527;" horiz-adv-x="639" 
d="M27 0l112 705h151l-44 -282q54 78 161 78q80 0 122.5 -50t25.5 -159l-29 -179h84l-39 -243h-127l21 130h-107l45 289q16 95 -61 95q-51 0 -82 -32.5t-40 -89.5l-42 -262h-151z" />
    <glyph glyph-name="uni0528" unicode="&#x528;" horiz-adv-x="786" 
d="M-83 -193l-10 108l49 5q37 4 56 22.5t25 55.5l113 707h155l-45 -283h328l45 283h155l-112 -705h-155l46 293h-327l-44 -276q-11 -70 -36.5 -114t-72.5 -66t-124 -27z" />
    <glyph glyph-name="uni0529" unicode="&#x529;" horiz-adv-x="620" 
d="M-92 -193l-10 108l49 5q37 4 55.5 22.5t24.5 55.5l78 493h151l-29 -182h186l29 182h151l-77 -491h-151l30 192h-186l-28 -175q-11 -70 -35.5 -114t-71 -66t-120.5 -27z" />
    <glyph glyph-name="uni052E" unicode="&#x52e;" horiz-adv-x="807" 
d="M585 -170l27 170h-119l92 577h-219l-22 -141q-21 -129 -58 -217.5t-93.5 -145.5t-135.5 -91l-67 113q44 23 77.5 51.5t59.5 71t45.5 105.5t34.5 153l37 229h517l-93 -582h100l-46 -293h-137z" />
    <glyph glyph-name="uni052F" unicode="&#x52f;" horiz-adv-x="643" 
d="M26 -15l-32 120q63 15 96 64.5t49 154.5l27 167h417l-60 -378h82l-39 -243h-128l21 130h-105l60 374h-129l-10 -62q-18 -108 -46.5 -176t-76.5 -103.5t-126 -47.5z" />
    <glyph glyph-name="uni1E08" unicode="&#x1e08;" horiz-adv-x="683" 
d="M398 -11q-95 0 -170 36t-118 108t-43 179q0 85 26 158t75.5 128.5t122 86.5t165.5 31q73 0 136 -22.5t100 -58.5l-61 -123q-80 67 -178 67q-72 0 -121.5 -34.5t-74.5 -94t-25 -133.5q0 -100 45.5 -145.5t138.5 -45.5q43 0 87 14.5t90 47.5l41 -122q-43 -37 -107.5 -57
t-128.5 -20zM350 -197q-31 0 -59.5 5.5t-48.5 16.5l27 64q35 -18 73 -18q54 0 54 28q0 18 -35 18q-8 0 -17 -1t-21 -4l-19 20l27 88h76l-18 -54h4q42 0 65 -18t23 -50q0 -43 -37.5 -69t-93.5 -26zM403 765l130 175h157l-182 -175h-105z" />
    <glyph glyph-name="uni1E09" unicode="&#x1e09;" horiz-adv-x="478" 
d="M278 -11q-123 0 -184 62.5t-61 164.5q0 55 17.5 106t52.5 91.5t89.5 64t127.5 23.5q49 0 94.5 -13.5t75.5 -37.5l-45 -104q-21 18 -51.5 29t-62.5 11q-53 0 -84.5 -25t-45.5 -63.5t-14 -79.5q0 -51 26.5 -82t87.5 -31q26 0 56 10t55 29l32 -105q-29 -24 -76 -37t-90 -13z
M225 -197q-31 0 -59.5 5.5t-48.5 16.5l27 64q35 -18 73 -18q54 0 54 28q0 18 -35 18q-8 0 -17 -1t-21 -4l-19 20l27 88h76l-18 -54h4q42 0 65 -18t23 -50q0 -43 -37.5 -69t-93.5 -26zM279 555l132 205h147l-180 -205h-99z" />
    <glyph glyph-name="uni1E0C" unicode="&#x1e0c;" horiz-adv-x="774" 
d="M32 0l112 705h238q172 0 266 -80.5t94 -224.5q1 -113 -45 -204t-136.5 -143.5t-224.5 -52.5h-304zM207 127h131q83 0 136.5 34.5t79.5 95.5t26 141q0 87 -50 133.5t-148 46.5h-103zM247 -214l21 133h140l-21 -133h-140z" />
    <glyph glyph-name="uni1E0D" unicode="&#x1e0d;" horiz-adv-x="610" 
d="M215 -11q-83 0 -133 57.5t-50 155.5q0 85 30 152.5t85.5 107t130.5 39.5q51 0 90.5 -21.5t59.5 -63.5l46 289h151l-112 -705h-148l12 74q-27 -40 -69 -62.5t-93 -22.5zM276 102q60 0 93 51t33 128q0 52 -24.5 79.5t-67.5 27.5q-60 0 -93 -51t-33 -127q0 -52 24.5 -80
t67.5 -28zM169 -214l21 133h140l-21 -133h-140z" />
    <glyph glyph-name="uni1E0E" unicode="&#x1e0e;" horiz-adv-x="774" 
d="M32 0l112 705h238q172 0 266 -80.5t94 -224.5q1 -113 -45 -204t-136.5 -143.5t-224.5 -52.5h-304zM207 127h131q83 0 136.5 34.5t79.5 95.5t26 141q0 87 -50 133.5t-148 46.5h-103zM161 -170l14 85h326l-14 -85h-326z" />
    <glyph glyph-name="uni1E0F" unicode="&#x1e0f;" horiz-adv-x="610" 
d="M215 -11q-83 0 -133 57.5t-50 155.5q0 85 30 152.5t85.5 107t130.5 39.5q51 0 90.5 -21.5t59.5 -63.5l46 289h151l-112 -705h-148l12 74q-27 -40 -69 -62.5t-93 -22.5zM276 102q60 0 93 51t33 128q0 52 -24.5 79.5t-67.5 27.5q-60 0 -93 -51t-33 -127q0 -52 24.5 -80
t67.5 -28zM83 -170l14 85h326l-14 -85h-326z" />
    <glyph glyph-name="uni1E14" unicode="&#x1e14;" horiz-adv-x="605" 
d="M33 0l111 705h483l-19 -121h-335l-26 -165h313l-19 -122h-313l-28 -176h334l-19 -121h-482zM388 901l-103 127h140l54 -127h-91zM251 779l14 85h326l-14 -85h-326z" />
    <glyph glyph-name="uni1E15" unicode="&#x1e15;" horiz-adv-x="549" 
d="M286 -11q-77 0 -134 28.5t-88 79t-31 118.5q0 84 35.5 148.5t98 101t142.5 36.5q82 0 131 -35.5t68 -95t10 -131.5l-4 -26h-341q1 -53 34 -82t94 -29q42 0 81.5 12t70.5 35l33 -99q-36 -28 -89 -44.5t-111 -16.5zM308 401q-54 0 -84 -32.5t-40 -77.5h218q3 47 -19.5 78.5
t-74.5 31.5zM309 686l-103 127h139l55 -127h-91zM172 564l14 85h326l-14 -85h-326z" />
    <glyph glyph-name="uni1E16" unicode="&#x1e16;" horiz-adv-x="605" 
d="M33 0l111 705h483l-19 -121h-335l-26 -165h313l-19 -122h-313l-28 -176h334l-19 -121h-482zM388 901l76 127h141l-126 -127h-91zM251 779l14 85h326l-14 -85h-326z" />
    <glyph glyph-name="uni1E17" unicode="&#x1e17;" horiz-adv-x="549" 
d="M286 -11q-77 0 -134 28.5t-88 79t-31 118.5q0 84 35.5 148.5t98 101t142.5 36.5q82 0 131 -35.5t68 -95t10 -131.5l-4 -26h-341q1 -53 34 -82t94 -29q42 0 81.5 12t70.5 35l33 -99q-36 -28 -89 -44.5t-111 -16.5zM308 401q-54 0 -84 -32.5t-40 -77.5h218q3 47 -19.5 78.5
t-74.5 31.5zM309 686l76 127h141l-126 -127h-91zM172 564l14 85h326l-14 -85h-326z" />
    <glyph glyph-name="uni1E1C" unicode="&#x1e1c;" horiz-adv-x="605" 
d="M33 0l111 705h483l-19 -121h-335l-26 -165h313l-19 -122h-313l-28 -176h334l-19 -121h-482zM274 -197q-31 0 -59.5 5.5t-48.5 16.5l27 64q35 -18 73 -18q54 0 54 28q0 18 -35 18q-8 0 -17 -1t-21 -4l-19 20l27 88h76l-18 -54h4q42 0 65 -18t23 -50q0 -43 -37.5 -69
t-93.5 -26zM415 760q-81 0 -129.5 48t-47.5 123l83 11q0 -45 26 -70t73 -25t77.5 25t38.5 70l83 -11q-12 -78 -67.5 -124.5t-136.5 -46.5z" />
    <glyph glyph-name="uni1E1D" unicode="&#x1e1d;" horiz-adv-x="549" 
d="M286 -11q-77 0 -134 28.5t-88 79t-31 118.5q0 84 35.5 148.5t98 101t142.5 36.5q82 0 131 -35.5t68 -95t10 -131.5l-4 -26h-341q1 -53 34 -82t94 -29q42 0 81.5 12t70.5 35l33 -99q-36 -28 -89 -44.5t-111 -16.5zM308 401q-54 0 -84 -32.5t-40 -77.5h218q3 47 -19.5 78.5
t-74.5 31.5zM235 -197q-31 0 -59.5 5.5t-48.5 16.5l27 64q35 -18 73 -18q54 0 54 28q0 18 -35 18q-8 0 -17 -1t-21 -4l-19 20l27 88h76l-18 -54h4q42 0 65 -18t23 -50q0 -43 -37.5 -69t-93.5 -26zM343 552q-75 0 -119 53t-39 142l83 8q-1 -56 20 -85.5t61 -29.5t65.5 29.5
t33.5 85.5l83 -8q-10 -90 -60.5 -142.5t-127.5 -52.5z" />
    <glyph glyph-name="uni1E20" unicode="&#x1e20;" horiz-adv-x="742" 
d="M402 -11q-98 0 -174 36.5t-118.5 107.5t-42.5 174q0 117 46.5 209.5t136.5 146t218 53.5q80 0 143 -22t98 -55l-60 -122q-83 64 -189 64q-75 0 -126.5 -36t-78.5 -96.5t-27 -134.5q0 -99 52 -146t145 -47q27 0 54 4t54 12l23 140h-152l17 112h280l-55 -352
q-52 -24 -117 -36t-127 -12zM288 801l13 85h356l-13 -85h-356z" />
    <glyph glyph-name="uni1E21" unicode="&#x1e21;" horiz-adv-x="615" 
d="M260 -191q-74 0 -135.5 17t-112.5 50l45 103q42 -26 87 -41.5t94 -15.5q57 0 92.5 24t44.5 79l10 62q-25 -37 -66 -56t-89 -19q-89 0 -143 53.5t-54 148.5q0 78 31 143.5t87.5 104.5t131.5 39q52 0 92.5 -21.5t59.5 -63.5l12 75h148l-73 -458q-16 -107 -81.5 -165.5
t-180.5 -58.5zM279 125q41 0 70 23t44.5 60.5t15.5 81.5q0 45 -25 71.5t-71 26.5q-41 0 -69.5 -22.5t-43.5 -60t-15 -82.5q-1 -45 24 -71.5t70 -26.5zM196 611l13 85h326l-13 -85h-326z" />
    </font>
</defs>
</svg>
