<?xml version="1.0" encoding="UTF-8" standalone="no"?> <svg width="24px" height="24px" viewBox="0 0 64 64" fill="none" xmlns="http://www.w3.org/2000/svg">
<path d="M32.0001 39.1601C35.9544 39.1601 39.1601 35.9544 39.1601 32.0001C39.1601 28.0457 35.9544 24.8401 32.0001 24.8401C28.0457 24.8401 24.8401 28.0457 24.8401 32.0001C24.8401 35.9544 28.0457 39.1601 32.0001 39.1601Z" fill="white"/>
<path d="M32.0899 19.07C36.0443 19.07 39.2499 15.8644 39.2499 11.91C39.2499 7.95564 36.0443 4.75 32.0899 4.75C28.1356 4.75 24.9299 7.95564 24.9299 11.91C24.9299 15.8644 28.1356 19.07 32.0899 19.07Z" fill="white"/>
<path d="M32.0899 59.2499C36.0443 59.2499 39.2499 56.0443 39.2499 52.0899C39.2499 48.1356 36.0443 44.9299 32.0899 44.9299C28.1356 44.9299 24.9299 48.1356 24.9299 52.0899C24.9299 56.0443 28.1356 59.2499 32.0899 59.2499Z" fill="white"/>
</svg>
